<svg width="222" height="172" viewBox="0 0 222 172" fill="none" xmlns="http://www.w3.org/2000/svg">
<g id="no-unit-assigned-empty-state" clip-path="url(#clip0_4879_23043)">
<path id="Vector" d="M193.807 99.0107C194.501 97.5863 195.113 96.0898 195.644 94.5215C201.727 76.567 192.529 55.063 173.157 49.8731C171.062 23.569 152.578 5.52633 131.705 2.44769C107.814 -1.07639 85.9245 14.1011 78.642 38.2267C69.8631 35.1179 61.3093 35.4961 53.2496 40.2057C49.5933 41.897 46.2479 44.3933 43.2458 47.6761C38.8378 52.4947 35.9749 58.5801 34.8079 64.9949C33.0795 65.2663 31.3813 65.5401 29.7805 66.1131C20.4471 69.4609 14.5567 76.3513 12.9419 86.7286C11.9351 93.1898 13.9651 99.6371 15.0972 102.242C19.5679 112.534 29.9359 118.371 40.4687 116.826C40.9931 116.749 41.754 116.986 42.2064 117.364C42.7632 133.815 50.751 148.364 62.7338 156.674C81.9596 170.01 106.695 165.901 122.3 147.615C128.986 154.454 136.944 157.776 146.293 156.57C155.587 155.37 162.805 150.241 168.071 141.903C170.502 142.557 172.811 143.501 175.196 143.761C184.534 144.782 192.118 141.068 197.681 132.672C199.811 129.458 201.825 125.292 201.825 117.991C201.825 110.462 198.837 103.607 193.807 99.0107Z" fill="#BFE4E8"/>
<path id="Vector_2" d="M183.715 90.9254C183.715 90.9254 210.726 90.9254 210.891 90.9254C217.129 90.9254 222.185 85.8678 222.185 79.6293C222.185 74.1866 218.336 69.6464 213.211 68.5745C213.269 68.0989 213.311 67.6164 213.311 67.1245C213.311 60.6633 208.075 55.4271 201.613 55.4271C197.799 55.4271 194.421 57.2622 192.287 60.0856C191.742 52.8936 185.318 47.3465 177.801 48.2652C172.305 48.938 167.76 53.186 166.748 58.6287C166.424 60.3733 166.458 62.0692 166.781 63.6584C165.308 62.0715 163.21 61.0716 160.874 61.0716C156.598 61.0716 153.109 64.4008 152.833 68.607C150.891 68.1778 148.78 68.2056 146.555 69.0408C142.305 70.637 139.277 74.639 139.099 79.1769C138.848 85.6219 143.996 90.9254 150.383 90.9254C150.868 90.9254 152.573 90.9254 152.968 90.9254H176.42" fill="#E0F8F9"/>
<path id="Vector_3" d="M155.167 23.0399H131.992C131.352 23.0399 130.832 22.5203 130.832 21.8799C130.832 21.2396 131.352 20.7199 131.992 20.7199H155.167C155.807 20.7199 156.327 21.2396 156.327 21.8799C156.327 22.5203 155.807 23.0399 155.167 23.0399ZM161.823 23.0399H158.482C157.842 23.0399 157.322 22.5203 157.322 21.8799C157.322 21.2396 157.842 20.7199 158.482 20.7199H161.823C162.463 20.7199 162.983 21.2396 162.983 21.8799C162.983 22.5203 162.463 23.0399 161.823 23.0399ZM171.191 23.0399H165.307C164.667 23.0399 164.147 22.5203 164.147 21.8799C164.147 21.2396 164.667 20.7199 165.307 20.7199H171.191C171.831 20.7199 172.351 21.2396 172.351 21.8799C172.351 22.5203 171.831 23.0399 171.191 23.0399ZM166.509 13.7599H144.291C143.65 13.7599 143.131 13.2403 143.131 12.5999C143.131 11.9596 143.65 11.4399 144.291 11.4399H166.509C167.149 11.4399 167.669 11.9596 167.669 12.5999C167.669 13.2403 167.152 13.7599 166.509 13.7599ZM140.291 13.7599H138.95C138.31 13.7599 137.79 13.2403 137.79 12.5999C137.79 11.9596 138.31 11.4399 138.95 11.4399H140.291C140.931 11.4399 141.451 11.9596 141.451 12.5999C141.451 13.2403 140.931 13.7599 140.291 13.7599ZM134.799 13.7599H131.435C130.795 13.7599 130.275 13.2403 130.275 12.5999C130.275 11.9596 130.795 11.4399 131.435 11.4399H134.799C135.44 11.4399 135.959 11.9596 135.959 12.5999C135.959 13.2403 135.44 13.7599 134.799 13.7599Z" fill="white"/>
<g id="Group">
<path id="Vector_4" d="M160.587 18.4001H148.971C148.33 18.4001 147.811 17.8804 147.811 17.2401C147.811 16.5998 148.33 16.0801 148.971 16.0801H160.587C161.227 16.0801 161.747 16.5998 161.747 17.2401C161.747 17.8804 161.229 18.4001 160.587 18.4001Z" fill="white"/>
</g>
<g id="Group_2">
<path id="Vector_5" d="M160.586 13.7599H157.681C157.041 13.7599 156.521 13.2403 156.521 12.5999C156.521 11.9596 157.041 11.4399 157.681 11.4399H160.586C161.226 11.4399 161.746 11.9596 161.746 12.5999C161.746 13.2403 161.229 13.7599 160.586 13.7599Z" fill="white"/>
</g>
<g id="Group_3">
<path id="Vector_6" d="M145.609 18.4001H141.547C140.906 18.4001 140.387 17.8804 140.387 17.2401C140.387 16.5998 140.906 16.0801 141.547 16.0801H145.609C146.249 16.0801 146.769 16.5998 146.769 17.2401C146.769 17.8804 146.252 18.4001 145.609 18.4001Z" fill="white"/>
</g>
<g id="Group_4">
<path id="Vector_7" d="M32.2997 83.3598H9.12289C8.48257 83.3598 7.96289 82.8401 7.96289 82.1998C7.96289 81.5594 8.48257 81.0398 9.12289 81.0398H32.2974C32.9377 81.0398 33.4574 81.5594 33.4574 82.1998C33.4574 82.8401 32.94 83.3598 32.2997 83.3598ZM38.9558 83.3598H35.6173C34.977 83.3598 34.4573 82.8401 34.4573 82.1998C34.4573 81.5594 34.977 81.0398 35.6173 81.0398H38.9558C39.5961 81.0398 40.1158 81.5594 40.1158 82.1998C40.1158 82.8401 39.5961 83.3598 38.9558 83.3598ZM48.3239 83.3598H42.4404C41.8001 83.3598 41.2804 82.8401 41.2804 82.1998C41.2804 81.5594 41.8001 81.0398 42.4404 81.0398H48.3239C48.9642 81.0398 49.4839 81.5594 49.4839 82.1998C49.4839 82.8401 48.9642 83.3598 48.3239 83.3598ZM48.3239 87.9998H26.1053C25.465 87.9998 24.9453 87.4801 24.9453 86.8398C24.9453 86.1994 25.465 85.6798 26.1053 85.6798H48.3239C48.9642 85.6798 49.4839 86.1994 49.4839 86.8398C49.4839 87.4801 48.9642 87.9998 48.3239 87.9998ZM22.1056 87.9998H20.7646C20.1243 87.9998 19.6046 87.4801 19.6046 86.8398C19.6046 86.1994 20.1243 85.6798 20.7646 85.6798H22.1056C22.7459 85.6798 23.2656 86.1994 23.2656 86.8398C23.2656 87.4801 22.7459 87.9998 22.1056 87.9998ZM16.6118 87.9998H13.2479C12.6075 87.9998 12.0879 87.4801 12.0879 86.8398C12.0879 86.1994 12.6075 85.6798 13.2479 85.6798H16.6118C17.2522 85.6798 17.7718 86.1994 17.7718 86.8398C17.7718 87.4801 17.2545 87.9998 16.6118 87.9998ZM37.7215 78.7198H26.1053C25.465 78.7198 24.9453 78.2001 24.9453 77.5598C24.9453 76.9194 25.465 76.3998 26.1053 76.3998H37.7215C38.3618 76.3998 38.8815 76.9194 38.8815 77.5598C38.8815 78.2001 38.3618 78.7198 37.7215 78.7198ZM37.7215 74.0798H34.8169C34.1766 74.0798 33.6569 73.5601 33.6569 72.9198C33.6569 72.2794 34.1766 71.7598 34.8169 71.7598H37.7215C38.3618 71.7598 38.8815 72.2794 38.8815 72.9198C38.8815 73.5601 38.3618 74.0798 37.7215 74.0798ZM30.1699 92.6398H26.1076C25.4673 92.6398 24.9476 92.1201 24.9476 91.4798C24.9476 90.8394 25.4673 90.3198 26.1076 90.3198H30.1699C30.8103 90.3198 31.3299 90.8394 31.3299 91.4798C31.3299 92.1201 30.8103 92.6398 30.1699 92.6398Z" fill="white"/>
</g>
<g id="Group_5">
<g id="Group_6">
<g id="Group_7">
<g id="Group_8">
<g id="Group_9">
<g id="Group_10">
<g id="Group_11">
<path id="Vector_8" d="M175.5 62.2293V131.288C175.5 132.525 174.498 133.527 173.259 133.527H123.834C122.598 133.527 121.594 132.525 121.594 131.288V62.2293C121.594 60.9931 122.598 59.9886 123.834 59.9886H173.259C174.498 59.9886 175.5 60.9931 175.5 62.2293Z" fill="#E4E6E9"/>
<g id="Group_12">
<path id="Vector_9" d="M175.499 79.6395V62.2291C175.499 60.9919 174.496 59.989 173.259 59.989H123.834C122.597 59.989 121.594 60.9919 121.594 62.2291V79.6395H175.499Z" fill="#BEC2C7"/>
</g>
<path id="Vector_10" d="M175.5 62.2293V72.7709H121.594V62.2293C121.594 60.9931 122.598 59.9886 123.834 59.9886H173.259C174.498 59.9886 175.5 60.9931 175.5 62.2293Z" fill="#989EA5"/>
</g>
</g>
<g id="Group_13">
<g id="Group_14">
<path id="Vector_11" d="M109.406 62.2292V131.288C109.406 132.525 108.401 133.527 107.165 133.527H57.7406C56.502 133.527 55.5 132.525 55.5 131.288V62.2292C55.5 60.993 56.502 59.9886 57.7406 59.9886H107.165C108.401 59.9886 109.406 60.993 109.406 62.2292Z" fill="#E4E6E9"/>
<g id="Group_15">
<path id="Vector_12" d="M109.405 79.6397V62.2294C109.405 60.9922 108.402 59.9892 107.165 59.9892H57.7399C56.5027 59.9892 55.5 60.9922 55.5 62.2294V79.6397H109.405Z" fill="#BEC2C7"/>
</g>
<path id="Vector_13" d="M109.405 72.7717H55.5V62.2291C55.5 60.9919 56.503 59.9891 57.7399 59.9891H107.165C108.402 59.9891 109.405 60.9921 109.405 62.2291V72.7717Z" fill="#989EA5"/>
<path id="Vector_14" d="M109.404 62.2283V72.7709H101.807V62.2283C101.807 60.9923 100.805 59.9882 99.5664 59.9882H107.163C108.401 59.9882 109.404 60.9923 109.404 62.2283Z" fill="#20BFD5"/>
</g>
</g>
</g>
<g id="Group_16">
<g id="Group_17">
<path id="Vector_15" d="M143.496 123.052H86.3329C84.9021 123.052 83.7422 121.892 83.7422 120.461V40.5907C83.7422 39.1599 84.9021 38 86.3329 38H143.496C144.927 38 146.087 39.1599 146.087 40.5907V120.461C146.087 121.892 144.927 123.052 143.496 123.052Z" fill="white"/>
<path id="Vector_16" d="M146.087 59.5718V40.5907C146.087 39.1599 144.927 38 143.496 38H86.3329C84.9021 38 83.7422 39.1599 83.7422 40.5907V59.5718H146.087Z" fill="#85CAD1"/>
<path id="Vector_17" d="M146.085 40.5907V52.7839H83.7402V40.5907C83.7402 39.159 84.9016 38 86.331 38H143.494C144.926 38 146.085 39.159 146.085 40.5907Z" fill="#0093A4"/>
</g>
</g>
</g>
</g>
</g>
<g id="Group_18">
<path id="Vector_18" d="M92.7659 47.1759C92.769 47.1761 92.7719 47.1768 92.775 47.1773C92.8146 47.1814 92.8552 47.1824 92.8955 47.1841C92.917 47.1851 92.9383 47.1875 92.96 47.1877H92.9696C93.9654 47.1877 94.7752 46.383 94.7803 45.3863C94.7849 44.5071 94.1619 43.7717 93.3321 43.6029C93.3299 43.6024 93.3275 43.6022 93.3251 43.6017C93.2693 43.5906 93.2125 43.5817 93.1551 43.5756C93.1346 43.5735 93.1133 43.5737 93.0925 43.5723C93.0546 43.5696 93.017 43.5662 92.9786 43.566H92.9556C92.9525 43.566 92.9494 43.566 92.946 43.566C92.8837 43.566 92.8221 43.5691 92.7615 43.5754C91.8484 43.6669 91.1445 44.4386 91.1445 45.3771C91.1443 46.3091 91.8587 47.0762 92.7659 47.1759Z" fill="white"/>
<path id="Vector_19" d="M98.4453 47.1878C99.4453 47.1878 100.256 46.377 100.256 45.3769C100.256 44.3768 99.4453 43.566 98.4453 43.566H98.4228C97.4227 43.566 96.623 44.3768 96.623 45.3769C96.623 46.377 97.4452 47.1878 98.4453 47.1878Z" fill="white"/>
<path id="Vector_20" d="M103.924 47.1878C104.924 47.1878 105.735 46.377 105.735 45.3769C105.735 44.3768 104.924 43.566 103.924 43.566H103.901C102.901 43.566 102.102 44.3768 102.102 45.3769C102.102 46.377 102.924 47.1878 103.924 47.1878Z" fill="white"/>
</g>
</g>
<g id="Group_19">
<path id="Vector_21" d="M79.8503 142.214C84.2026 142.214 87.9749 142.214 88.0306 142.214C92.9049 142.214 96.8582 138.347 96.8582 133.575C96.8582 129.412 93.8491 125.937 89.8448 125.118C89.8912 124.754 89.9214 124.385 89.9214 124.009C89.9214 119.068 85.8289 115.061 80.7783 115.061C77.7971 115.061 75.1569 116.465 73.4888 118.624C73.0619 113.124 68.0415 108.88 62.1672 109.583C57.8729 110.098 54.3187 113.346 53.5299 117.511C53.277 118.847 53.3025 120.142 53.5554 121.36C52.4047 120.146 50.7644 119.381 48.9386 119.381C45.5978 119.381 42.8695 121.926 42.6537 125.144C41.1364 124.814 39.4869 124.837 37.7469 125.475C34.4247 126.696 32.0583 129.758 31.9191 133.229C31.7219 138.159 35.7471 142.214 40.7397 142.214C41.1179 142.214 42.4519 142.214 42.7581 142.214H61.0884M64.8839 142.214H65.7145H64.8839Z" fill="#E0F8F9"/>
</g>
</g>
<defs>
<clipPath id="clip0_4879_23043">
<rect width="221" height="172" fill="white" transform="translate(0.5)"/>
</clipPath>
</defs>
</svg>
