<?xml version="1.0" encoding="utf-8"?>
<!-- Generator: Adobe Illustrator 18.1.1, SVG Export Plug-In . SVG Version: 6.00 Build 0)  -->
<svg version="1.1" id="Layer_1" xmlns="http://www.w3.org/2000/svg" xmlns:xlink="http://www.w3.org/1999/xlink" x="0px" y="0px"
	 viewBox="0 0 231.6 70.4" enable-background="new 0 0 231.6 70.4" xml:space="preserve">
<path d="M7.7,2.1C10,0.7,12.6,0,15.4,0c3.4,0,6.5,1.1,9.2,3.2l1,0.8C25.9,4.2,26,4.5,26,4.9c0,0.4-0.2,0.8-0.5,1.3l-0.9,1.2
	c-0.4,0.5-0.9,0.8-1.3,0.8c-0.3,0-0.7-0.1-1.1-0.5l-0.6-0.4C19.8,5.8,17.7,5,15.4,5c-1.9,0-3.7,0.5-5.3,1.4c-1.6,1-2.9,2.3-3.8,3.9
	c-0.9,1.7-1.4,3.5-1.4,5.4c0,1.9,0.5,3.7,1.4,5.4c0.9,1.7,2.2,3,3.8,3.9c1.6,1,3.4,1.4,5.3,1.4c2.3,0,4.4-0.7,6.2-2.1l1-0.8
	c0.2-0.2,0.4-0.2,0.6-0.2c0.4,0,0.9,0.3,1.4,0.9l0.9,1.2c0.3,0.4,0.4,0.8,0.4,1.1c0,0.5-0.3,0.9-0.8,1.3l-0.6,0.5
	c-2.7,2.1-5.8,3.2-9.2,3.2c-2.8,0-5.3-0.7-7.7-2.1c-2.4-1.4-4.2-3.3-5.6-5.8S0,18.7,0,15.8c0-2.9,0.7-5.5,2.1-8S5.3,3.5,7.7,2.1z"/>
<path d="M33.1,30.6c-0.1-0.2-0.2-0.4-0.2-0.6c0-0.2,0.1-0.5,0.2-0.8L44,1.8c0.3-0.9,1-1.4,2-1.4h2.6c1,0,1.7,0.5,2,1.4l10.9,27.4
	c0.1,0.3,0.2,0.6,0.2,0.8c0,0.2-0.1,0.5-0.2,0.6c-0.3,0.4-0.7,0.6-1.4,0.6h-1.8c-1,0-1.7-0.5-2-1.4l-1.5-3.7c-0.3-0.9-1-1.4-2-1.4
	h-11c-1,0-1.7,0.5-2,1.4l-1.5,3.7c-0.3,0.9-1,1.4-2,1.4h-1.8C33.8,31.2,33.4,31,33.1,30.6z M43.2,17.6c-0.1,0.3-0.2,0.6-0.2,0.8
	c0,0.3,0.1,0.5,0.2,0.7c0.3,0.4,0.7,0.6,1.4,0.5H50c0.7,0,1.1-0.2,1.4-0.6c0.1-0.2,0.2-0.4,0.2-0.7c0-0.2-0.1-0.5-0.2-0.8l-3-7.4
	c-0.3-0.7-0.7-1.1-1.2-1.1c-0.5,0-0.9,0.4-1.2,1.1L43.2,17.6z"/>
<path d="M67.1,29.4V2.2c0-1.2,0.6-1.8,1.8-1.8h12.4c2.5,0,4.5,0.8,6.2,2.5c1.6,1.7,2.4,3.9,2.4,6.5c0,2-0.5,3.8-1.5,5.3
	c-1,1.5-2.3,2.6-4,3.2c-0.8,0.3-1.2,0.8-1.2,1.3c0,0.3,0.1,0.6,0.3,0.9l6.2,8.8c0.3,0.4,0.4,0.8,0.4,1.1c0,0.2-0.1,0.3-0.1,0.5
	c-0.2,0.4-0.7,0.6-1.4,0.6h-1.8c-0.9,0-1.6-0.4-2.1-1.1l-7.3-10.5c-0.5-0.7-1.2-1.1-2.1-1.1h-1.4c-1.2,0-1.8,0.6-1.8,1.8v9.1
	c0,1.2-0.6,1.8-1.8,1.8h-1.4C67.7,31.2,67.1,30.6,67.1,29.4z M72,11.9c0,1.2,0.6,1.8,1.8,1.8h7.4c1.2,0,2.1-0.4,2.8-1.2
	c0.6-0.8,1-1.8,1-3c0-1.1-0.3-2.1-0.9-2.9c-0.6-0.8-1.5-1.2-2.7-1.2h-7.5C72.6,5.4,72,6,72,7.1V11.9z"/>
<path d="M131.5,29.4V2.2c0-1.2,0.6-1.8,1.8-1.8h18.5c1.2,0,1.8,0.6,1.8,1.8v1.5c0,1.2-0.6,1.8-1.8,1.8h-13.4c-1.2,0-1.8,0.6-1.8,1.8
	v4.6c0,1.2,0.6,1.8,1.8,1.8h7.6c1.2,0,1.8,0.6,1.8,1.8v1.5c0,1.2-0.6,1.8-1.8,1.8h-7.6c-1.2,0-1.8,0.6-1.8,1.8v4
	c0,1.2,0.6,1.7,1.8,1.7h13.4c1.2,0,1.8,0.6,1.8,1.8v1.5c0,1.2-0.6,1.8-1.8,1.8h-18.5C132.1,31.2,131.5,30.6,131.5,29.4z"/>
<path d="M162.6,4.6c1.4-1.4,3.1-2.5,5.1-3.4c2-0.8,4-1.2,6.1-1.2c3.5,0,6.7,1.1,9.5,3.2l1,0.8c0.3,0.3,0.5,0.6,0.5,0.9
	c0,0.4-0.2,0.8-0.6,1.3l-0.9,1.2c-0.4,0.5-0.8,0.8-1.3,0.8c-0.4,0-0.7-0.2-1.1-0.5l-0.6-0.5c-1.9-1.4-4.1-2.2-6.5-2.2
	c-1.9,0-3.7,0.5-5.4,1.4c-1.7,1-3,2.3-3.9,3.9c-1,1.7-1.4,3.5-1.4,5.4c0,1.9,0.5,3.7,1.4,5.4c1,1.7,2.3,3,3.9,3.9
	c1.7,1,3.5,1.4,5.4,1.4c1.5,0,3-0.3,4.4-1c0.8-0.4,1.2-1,1.2-2.1v-3.1c0-1.2-0.6-1.8-1.7-1.8h-3.4c-1.2,0-1.8-0.6-1.8-1.8v-1.5
	c0-1.2,0.6-1.8,1.8-1.8h8.5c1.2,0,1.8,0.6,1.8,1.8v10.8c0,0.9-0.3,1.6-1,2.1c-2.8,2.2-6.1,3.3-9.8,3.3c-2.1,0-4.2-0.4-6.1-1.2
	c-2-0.8-3.6-2-5.1-3.4c-1.4-1.4-2.5-3.1-3.4-5.1s-1.2-4-1.2-6.1s0.4-4.2,1.2-6.1C160.1,7.7,161.2,6,162.6,4.6z"/>
<path d="M194,2.2c0-1.2,0.6-1.8,1.8-1.8h1.5c1.2,0,1.8,0.6,1.8,1.8v27.3c0,1.2-0.6,1.8-1.8,1.8h-1.5c-1.2,0-1.8-0.6-1.8-1.8V2.2z"/>
<path d="M3.1,68.2V40.9c0-1.2,0.6-1.8,1.8-1.8h1.5c1.2,0,1.8,0.6,1.8,1.8v22.2c0,1.2,0.6,1.7,1.8,1.7h13.4c1.2,0,1.8,0.6,1.8,1.8
	v1.5c0,1.2-0.6,1.8-1.8,1.8H4.9C3.7,70,3.1,69.4,3.1,68.2z"/>
<path d="M60.3,69.4c-0.1-0.2-0.2-0.4-0.2-0.6c0-0.2,0.1-0.5,0.2-0.8l10.9-27.4c0.3-0.9,1-1.4,2-1.4h2.6c1,0,1.7,0.5,2,1.4l10.9,27.4
	c0.1,0.3,0.2,0.6,0.2,0.8c0,0.2-0.1,0.5-0.2,0.6C88.5,69.8,88,70,87.4,70h-1.8c-1,0-1.7-0.5-2-1.4L82,64.9c-0.3-0.9-1-1.4-2-1.4H69
	c-1,0-1.7,0.5-2,1.4l-1.5,3.7c-0.3,0.9-1,1.4-2,1.4h-1.8C61,70,60.5,69.8,60.3,69.4z M70.4,56.4c-0.1,0.3-0.2,0.6-0.2,0.8
	c0,0.3,0.1,0.5,0.2,0.7c0.3,0.4,0.7,0.6,1.4,0.5h5.5c0.7,0,1.1-0.2,1.4-0.6c0.1-0.2,0.2-0.4,0.2-0.7c0-0.2-0.1-0.5-0.2-0.8l-3-7.4
	c-0.3-0.7-0.7-1.1-1.2-1.1s-0.9,0.4-1.2,1.1L70.4,56.4z"/>
<path d="M94.3,68.2V40.9c0-1.2,0.6-1.8,1.8-1.8h12.4c2.5,0,4.5,0.8,6.2,2.5c1.6,1.7,2.4,3.9,2.4,6.5c0,2-0.5,3.8-1.5,5.3
	c-1,1.5-2.3,2.6-4,3.2c-0.8,0.3-1.2,0.8-1.2,1.3c0,0.3,0.1,0.6,0.3,0.9l6.2,8.8c0.3,0.4,0.4,0.8,0.4,1.1c0,0.2-0.1,0.3-0.1,0.5
	c-0.2,0.4-0.7,0.6-1.4,0.6H114c-0.9,0-1.6-0.4-2.1-1.1l-7.3-10.5c-0.5-0.7-1.2-1.1-2.1-1.1H101c-1.2,0-1.8,0.6-1.8,1.8v9.1
	c0,1.2-0.6,1.8-1.8,1.8h-1.4C94.9,70,94.3,69.4,94.3,68.2z M99.2,50.6c0,1.2,0.6,1.8,1.8,1.8h7.4c1.2,0,2.1-0.4,2.8-1.2
	c0.6-0.8,1-1.8,1-3c0-1.1-0.3-2.1-0.9-2.9c-0.6-0.8-1.5-1.2-2.7-1.2H101c-1.2,0-1.8,0.6-1.8,1.8V50.6z"/>
<path d="M158.8,40.9c0-1.2,0.6-1.8,1.8-1.8h1.5c1.2,0,1.8,0.6,1.8,1.8v27.3c0,1.2-0.6,1.8-1.8,1.8h-1.5c-1.2,0-1.8-0.6-1.8-1.8V40.9
	z"/>
<path d="M173.3,68.2V41c0-1.2,0.6-1.8,1.8-1.8h2.3c0.9,0,1.6,0.4,2.1,1.2l12.5,18.4c0.4,0.6,0.8,0.9,1.2,0.9c0.1,0,0.2,0,0.3,0
	c0.5-0.1,0.7-0.7,0.7-1.5V41c0-1.2,0.6-1.8,1.8-1.8h1.4c1.2,0,1.8,0.6,1.8,1.8v27.3c0,1.2-0.6,1.8-1.8,1.8h-2.3
	c-0.9,0-1.6-0.4-2.1-1.1l-12.5-18.4c-0.4-0.6-0.8-0.9-1.2-0.9c-0.1,0-0.2,0-0.3,0c-0.5,0.1-0.7,0.6-0.7,1.5v17.1
	c0,1.2-0.6,1.8-1.8,1.8H175C173.8,70,173.3,69.4,173.3,68.2z"/>
<path d="M209.4,43.4c1.4-1.4,3.1-2.5,5.1-3.4c2-0.8,4-1.2,6.1-1.2c3.5,0,6.7,1.1,9.5,3.2l1,0.8c0.3,0.3,0.5,0.6,0.5,0.9
	c0,0.4-0.2,0.8-0.6,1.3l-0.9,1.2c-0.4,0.5-0.8,0.8-1.3,0.8c-0.4,0-0.7-0.2-1.1-0.5L227,46c-1.9-1.4-4.1-2.2-6.5-2.2
	c-1.9,0-3.7,0.5-5.4,1.4c-1.7,1-3,2.3-3.9,3.9c-1,1.7-1.4,3.5-1.4,5.4c0,1.9,0.5,3.7,1.4,5.4c1,1.7,2.3,3,3.9,3.9
	c1.7,1,3.5,1.4,5.4,1.4c1.5,0,3-0.3,4.4-1c0.8-0.4,1.2-1,1.2-2.1v-3.1c0-1.2-0.6-1.8-1.7-1.8H221c-1.2,0-1.8-0.6-1.8-1.8v-1.5
	c0-1.2,0.6-1.8,1.8-1.8h8.5c1.2,0,1.8,0.6,1.8,1.8V65c0,0.9-0.3,1.6-1,2.1c-2.8,2.2-6.1,3.3-9.8,3.3c-2.1,0-4.2-0.4-6.1-1.2
	c-2-0.8-3.6-2-5.1-3.4c-1.4-1.4-2.5-3.1-3.4-5.1s-1.2-4-1.2-6.1c0-2.1,0.4-4.2,1.2-6.1C206.8,46.5,208,44.8,209.4,43.4z"/>
<path d="M147.6,39.2h-1.4c-1,0-1.8,0.8-1.8,1.8v17.1c0,0.9-0.2,1.4-0.7,1.5c-0.1,0-0.2,0-0.3,0c-0.4,0-0.8-0.3-1.2-0.9l-12.5-18.4
	c0-0.1-0.1-0.1-0.1-0.1l-6.1-9c-0.4-0.5-0.6-1.2-0.6-1.8V2.2c0-1-0.8-1.8-1.8-1.8h-1.4c-1,0-1.8,0.8-1.8,1.8v17.1
	c0,0.9-0.2,1.4-0.7,1.5c-0.1,0-0.2,0-0.3,0c-0.3,0-0.7-0.2-1-0.7L103.5,1.6c-0.5-0.8-1.2-1.2-2.1-1.2H99c-1,0-1.8,0.8-1.8,1.8v27.3
	c0,1,0.8,1.8,1.8,1.8h1.4c1,0,1.8-0.8,1.8-1.8V12.3c0-0.9,0.2-1.4,0.7-1.5c0.1,0,0.2,0,0.3,0c0.4,0,0.8,0.3,1.2,0.9l12.5,18.4
	c0,0,0.1,0.1,0.1,0.1l6.1,9c0.4,0.5,0.6,1.2,0.6,1.8v27.2c0,1,0.8,1.8,1.8,1.8h1.4c1,0,1.8-0.8,1.8-1.8V51.1c0-0.9,0.2-1.4,0.7-1.5
	c0.1,0,0.2,0,0.3,0c0.3,0,0.7,0.2,1,0.7l12.7,18.7c0.5,0.8,1.2,1.1,2.1,1.1h2.3c1,0,1.8-0.8,1.8-1.8V41
	C149.3,40,148.6,39.2,147.6,39.2z"/>
<path d="M229.3,5.6h-19.9c-0.6,0-1.1-0.5-1.1-1.1v-3c0-0.6,0.5-1.1,1.1-1.1h19.9c0.6,0,1.1,0.5,1.1,1.1v3
	C230.3,5.1,229.9,5.6,229.3,5.6z"/>
<path d="M229.3,31.2h-19.9c-0.6,0-1.1-0.5-1.1-1.1v-3c0-0.6,0.5-1.1,1.1-1.1h19.9c0.6,0,1.1,0.5,1.1,1.1v3
	C230.3,30.7,229.9,31.2,229.3,31.2z"/>
<path d="M223.4,18.4h-14c-0.6,0-1.1-0.5-1.1-1.1v-3c0-0.6,0.5-1.1,1.1-1.1h14c0.6,0,1.1,0.5,1.1,1.1v3
	C224.5,17.9,224,18.4,223.4,18.4z"/>
<path d="M52.9,44.3H33c-0.6,0-1.1-0.5-1.1-1.1v-3c0-0.6,0.5-1.1,1.1-1.1h19.9c0.6,0,1.1,0.5,1.1,1.1v3
	C53.9,43.8,53.5,44.3,52.9,44.3z"/>
<path d="M52.9,70H33c-0.6,0-1.1-0.5-1.1-1.1v-3c0-0.6,0.5-1.1,1.1-1.1h19.9c0.6,0,1.1,0.5,1.1,1.1v3C53.9,69.5,53.5,70,52.9,70z"/>
<path d="M47,57.1H33c-0.6,0-1.1-0.5-1.1-1.1v-3c0-0.6,0.5-1.1,1.1-1.1h14c0.6,0,1.1,0.5,1.1,1.1v3C48.1,56.7,47.6,57.1,47,57.1z"/>
</svg>
