<?xml version="1.0" encoding="utf-8"?>
<!-- Generator: Adobe Illustrator 18.1.1, SVG Export Plug-In . SVG Version: 6.00 Build 0)  -->
<svg version="1.1" id="Layer_1" xmlns="http://www.w3.org/2000/svg" xmlns:xlink="http://www.w3.org/1999/xlink" x="0px" y="0px"
	 height="400" width="400" viewBox="0 0 400 400" enable-background="new 0 0 400 400" xml:space="preserve">
<linearGradient id="SVGID_1_" gradientUnits="userSpaceOnUse" x1="199.95" y1="-2.8" x2="199.95" y2="402.5" gradientTransform="matrix(1 0 0 -1 0 400)">
	<stop  offset="0" style="stop-color:#F15A24"/>
	<stop  offset="1" style="stop-color:#000000"/>
</linearGradient>
<rect x="-2.7" y="-2.5" fill="url(#SVGID_1_)" stroke="#000000" stroke-miterlimit="10" width="405.3" height="405.3"/>
<path fill="#191516" d="M120.5,212.8c0.1,0,0.3,0,0.4,0c-0.1,0.1-0.2,0.2-0.2,0.3C120.6,212.9,120.6,212.9,120.5,212.8z"/>
<g>
	<g>
		<path fill="#BABF10" d="M48.2,377.3c-0.3-3.6-1.7-6.7-4.3-9.2c-1.1-1.1-2.8,0-2.5,1.5c0.7,3.5,2.2,6.6,4.6,9.3
			c0.6,0.6,1.5,0.5,2.1,0c1.9-1.5,1.9-3.8,1.9-6c-0.1-3.6-0.3-7.3-0.4-10.9c-0.1-1.6-2.7-2.1-2.9-0.4c-0.8,5-1.2,10-1.1,15
			c0,0.8,0.7,1.5,1.5,1.5c1.7,0.1,2.9-0.6,3.9-1.9c1.1-1.4,1.8-5.6,3.8-5.8c-0.1-1-0.3-2-0.4-2.9c-1,0.2-2,0.3-3,0.5
			c-1.9,0.3-1.1,3.2,0.8,2.9c1-0.2,2-0.3,3-0.5c1.7-0.3,1.3-3.1-0.4-2.9c-1.5,0.1-2.6,0.7-3.6,1.9c-1.2,1.4-1.9,6-4.2,5.8
			c0.5,0.5,1,1,1.5,1.5c-0.1-4.8,0.2-9.5,1-14.2c-1-0.1-2-0.3-2.9-0.4c0.1,2.5,0.2,5,0.3,7.4c0.1,2,0.9,5.9-0.8,7.4
			c0.7,0,1.4,0,2.1,0c-2.1-2.3-3.3-4.9-3.8-7.9c-0.8,0.5-1.7,1-2.5,1.5c2,2,3.1,4.3,3.4,7.1C45.3,379.3,48.3,379.3,48.2,377.3
			L48.2,377.3z"/>
	</g>
</g>
<g>
	<g>
		<path fill="#BABF10" d="M85.9,375.1c1.1-3.6-0.9-7.2-4.3-8.6c-1.3-0.5-2.2,1.2-1.7,2.2c1.3,2.8,2.7,5.6,4,8.4
			c0.4-0.8,0.9-1.5,1.3-2.3c-1.5,0.1-2.6-1.1-3.7-2.1c-1.1-0.9-2.2-1.7-3.7-2c-1.9-0.3-2.7,2.3-0.8,2.9c1.5,0.5,3.1,1,4.6,1.5
			c1.1,0.3,2.3,0.9,3.4,0.7c2.2-0.4,2.7-4,3.3-5.6c0.7-1.8-2.2-2.6-2.9-0.8c-0.3,0.8-0.6,1.6-0.9,2.4c-0.4,1.1-0.4,1-1.5,0.6
			c-1.8-0.6-3.5-1.2-5.3-1.7c-0.3,1-0.5,1.9-0.8,2.9c3.2,0.5,4.6,4.5,8.1,4.1c1.2-0.1,1.8-1.2,1.3-2.3c-1.3-2.8-2.7-5.6-4-8.4
			c-0.6,0.7-1.1,1.5-1.7,2.2c1.9,0.8,2.7,3,2.2,4.9C82.4,376.1,85.3,376.9,85.9,375.1L85.9,375.1z"/>
	</g>
</g>
<g>
	<g>
		<path fill="#BABF10" d="M176.1,377.3c-0.5-4.3,1.4-8.2,5.2-10.3c-0.5-0.9-1-1.7-1.5-2.6c-2.7,2-5.2,4.2-7.5,6.7
			c0.8,0.5,1.7,1,2.5,1.5c0.8-5.2-2.7-8.2-6.7-10.7c-1.5-1-2.9,1.1-1.8,2.4c1.7,2,3.5,4,5.2,5.9c1.3,1.5,2.6,3.7,4.3,4.7
			c1,0.6,1.7,0.5,2.8,0.1c2.5-1,4-2.2,6.9-1.9c-0.3-0.9-0.5-1.9-0.8-2.8c-2,1.4-4,2.6-6.2,3.6c-1.8,0.8-0.2,3.4,1.5,2.6
			c2.2-1,4.3-2.2,6.2-3.6c1.2-0.9,0.8-2.6-0.8-2.8c-1.6-0.2-3.1-0.1-4.7,0.3c-1,0.3-2.8,1.7-3.7,1.6c-1.1-0.2-3.2-3.6-3.9-4.5
			c-1.6-1.8-3.2-3.6-4.8-5.5c-0.6,0.8-1.2,1.6-1.8,2.4c2.6,1.6,5.9,3.7,5.3,7.3c-0.2,1.3,1.4,2.7,2.5,1.5c2.1-2.3,4.4-4.4,6.9-6.2
			c1.5-1.1,0.2-3.6-1.5-2.6c-4.6,2.6-7.3,7.6-6.7,12.9C173.3,379.2,176.3,379.3,176.1,377.3L176.1,377.3z"/>
	</g>
</g>
<g>
	<g>
		<path fill="#BABF10" d="M20.2,384.5c1.2-3.3-0.6-6.5-3.8-7.6c-0.9-0.3-1.9,0.5-1.9,1.4c0.2,3.5,1,6.7,2.5,9.9
			c0.6-0.7,1.1-1.5,1.7-2.2c-1.6-0.2-3.1-0.6-4.5-1.2c0,0.9,0,1.7,0,2.6c4.9-3.2,12.7,0,15.8-6.3c0.8-1.7-1.7-3.2-2.6-1.5
			c-1.4,2.9-4.9,3-7.7,3.3c-2.5,0.2-4.9,0.6-7,2c-0.8,0.5-1.1,2.1,0,2.6c1.7,0.7,3.4,1.2,5.3,1.5c1.3,0.2,2.3-1,1.7-2.2
			c-1.3-2.7-2-5.4-2.1-8.4c-0.6,0.5-1.3,1-1.9,1.4c1.8,0.6,2.3,2.2,1.7,3.9C16.6,385.5,19.5,386.3,20.2,384.5L20.2,384.5z"/>
	</g>
</g>
<g>
	<g>
		<path fill="#BABF10" d="M279.2,385.3c-0.3-4-1.7-7.7-4.1-10.9c-0.7-1-2.4-1-2.7,0.4c-0.4,1.6-0.6,3.2-0.3,4.9
			c0.1,0.8,0.7,1.9,0.7,2.6c0,1.3-0.6,1.1-1.2,0.1c-0.6,0.7-1.1,1.5-1.7,2.2c3.9,0.7,7.8,0,11.2-2.3c1.6-1.1,0.1-3.7-1.5-2.6
			c-2.7,1.8-5.7,2.5-8.9,2c-1.3-0.2-2.4,1-1.7,2.2c1.2,2.3,4.3,3.8,6.4,1.5c0.9-1,0.9-2.2,0.5-3.4c-0.8-2.3-1.3-4-0.6-6.4
			c-0.9,0.1-1.8,0.2-2.7,0.4c2.1,2.8,3.4,5.9,3.7,9.3C276.4,387.2,279.4,387.2,279.2,385.3L279.2,385.3z"/>
	</g>
</g>
<g>
	<g>
		<path fill="#BABF10" d="M347.6,361.9c0.3,1.6,0,3.2-0.8,4.6c0.9,0,1.7,0,2.6,0c-0.6-1.1-1.2-2.2-1.7-3.3c-0.8,0.6-1.6,1.2-2.4,1.8
			c2.4,3,7.2,2.4,9.3-0.7c1.1-1.6-1.5-3.1-2.6-1.5s-3.4,1.4-4.6,0.1c-1.1-1.4-3.1,0.4-2.4,1.8c0.6,1.1,1.2,2.2,1.7,3.3
			c0.5,1,2.1,1,2.6,0c1.1-2.2,1.5-4.5,1.1-6.9C350.2,359.2,347.3,360,347.6,361.9L347.6,361.9z"/>
	</g>
</g>
<g>
	<path fill="#FFA400" d="M144.2,373.4c1.5-0.4,3.1-0.9,4.6-0.4s2.7,2.3,1.9,3.6c-0.5,0.9-1.5,1.2-2.4,1.6c-2.1,0.8-4.4,1.5-6.6,1.2
		s-4.5-2.1-4.4-4.4c0-0.5,0.1-1.1,0.4-1.6c0.7-1.6,2.4-2.6,4.2-2.6c1.7,0,3.4,1.2,4.1,2.8c-0.2-1.7,2.1-3,3.5-2.1s1.4,3.3,0.1,4.4
		s-3.4,0.8-4.6-0.5c-0.3-0.3-0.5-0.6-0.4-1c0.1-1,2-0.7,1.9,0.3s-1.3,1.6-2.3,1.3c-1-0.3-1.6-1.1-2.2-1.9c-0.8,1.1-1.2,2.5-0.6,3.7
		c0.6,1.2,2.5,1.5,3.2,0.4c0.9-1.5-1.3-3-3-3.5c-0.6-0.2-1.3-0.4-1.9-0.5"/>
	<g>
		<path fill="#FFC627" d="M144.6,374.9c1.1-0.3,1.8-0.5,3-0.4c1.8,0.1,2,1.7,0.4,2.3c-1.6,0.6-3.5,1.3-5.3,1.2
			c-2.1-0.1-4.3-1.5-3.5-3.8c1-2.7,4.3-1.9,5.4,0.2c0.7,1.4,2.7,0.7,2.8-0.8c0.1-0.8,0.5-0.9,1-0.3c1.1,0.5,0.9,1-0.9,1.8
			c-1.2-0.3-2.4-0.6-3.6-0.8c-0.4-0.4-0.7-0.7-1-1.2c-0.6-0.8-1.9-0.4-2.4,0.3c-1,1.7-1.6,3.9-0.3,5.6c1,1.2,2.9,1.8,4.3,1
			c1.5-0.8,1.8-2.5,1.1-4c-1-2.1-3.7-2.7-5.8-3.3c-1.9-0.5-2.7,2.4-0.8,2.9c1.1,0.3,2.2,1,3.3,1.2c0.3,0.1,0.5,0.3,0.5,0.6
			c-0.6-0.9-0.5-1.7,0.2-2.5c-0.8,0.1-1.6,0.2-2.4,0.3c1.3,1.6,3.1,3.1,5.3,2.2c1.4-0.6,2.3-2.3,1.5-3.7c-2-3.3-6.9,0.7-3,3.5
			c3.4,2.5,8.7-0.4,7.2-4.7c-1.4-4.1-7.2-2.8-7.3,1.3c0.9-0.3,1.9-0.5,2.8-0.8c-1.9-3.6-6.7-4.7-9.7-1.7c-3.2,3.3-1.2,8,2.8,9.4
			c2.5,0.9,5.2,0.2,7.6-0.6c1.8-0.6,3.8-1.3,4.4-3.2c0.5-1.6-0.3-3.3-1.6-4.3c-2-1.6-4.6-1.1-6.9-0.4
			C142,372.5,142.8,375.4,144.6,374.9L144.6,374.9z"/>
	</g>
</g>
<g>
	<path fill="#FFA400" d="M128.4,373.5c-1.5-0.6-3-1.2-4.6-0.9c-1.5,0.3-2.9,2-2.3,3.4c0.4,0.9,1.3,1.4,2.2,1.8c2,1,4.2,2,6.5,1.9
		c2.3-0.1,4.6-1.7,4.8-3.9c0-0.5,0-1.1-0.2-1.6c-0.6-1.6-2.2-2.9-3.9-3s-3.5,0.8-4.3,2.4c0.4-1.6-1.8-3.2-3.3-2.4
		c-1.5,0.8-1.7,3.1-0.5,4.3c1.2,1.2,3.3,1.1,4.6,0c0.3-0.2,0.5-0.6,0.5-0.9c0-1-1.9-0.8-2,0.2s1.2,1.7,2.1,1.5c1-0.2,1.7-1,2.4-1.7
		c0.7,1.1,0.9,2.6,0.2,3.7s-2.7,1.2-3.2,0c-0.7-1.6,1.6-2.9,3.3-3.2c0.6-0.1,1.3-0.2,1.9-0.4"/>
	<g>
		<path fill="#0093C9" d="M128.8,372c-2.2-0.9-4.8-1.6-6.9-0.2c-1.4,0.9-2.2,2.6-1.8,4.2c0.5,2.2,2.9,3,4.7,3.8c2.2,1,4.8,1.7,7.2,1
			c3.9-1.1,5.9-5.3,3.4-8.8c-2.7-3.7-7.8-2.9-10.1,0.6c0.9,0.3,1.9,0.5,2.8,0.8c0.2-4.1-5.5-5.6-7.2-1.8c-1.9,4.3,3.4,7.6,7,5.2
			c3.7-2.4-0.6-6.6-2.9-3.6c-1.1,1.4-0.2,3.2,1.2,4c2.1,1.1,4-0.3,5.4-1.8c-0.8-0.1-1.6-0.2-2.4-0.3c0.8,1.6-0.4,1.9,1.7,1.3
			c0.7-0.2,1.5-0.3,2.3-0.4c1.9-0.4,1.1-3.2-0.8-2.9c-2,0.4-4.6,0.7-5.9,2.6c-1,1.4-0.7,3.3,0.8,4.3c1.4,0.8,3.2,0.5,4.3-0.6
			c1.5-1.6,1.1-3.9,0.2-5.7c-0.4-0.9-1.7-1-2.4-0.3c-1.1,1.2-2.9,1.3-4.4,1.2c-0.5,0.2-0.9,0.2-1.2-0.2c-0.6-0.4-0.2-0.7,1.2-0.9
			c-0.1,1.6,2,1.9,2.8,0.8c1.2-1.8,4.2-2.3,5.3,0c1.1,2.2-1.1,3.7-3,3.9c-1.8,0.2-3.7-0.7-5.3-1.5c-0.4-0.2-0.7-0.3-1.1-0.5
			c0.3-0.7,0.6-1.5,0.9-2.2c0.6-0.4,2.7,0.7,3.2,0.9C129.8,375.6,130.5,372.7,128.8,372L128.8,372z"/>
	</g>
</g>
<polygon points="139.5,375 141.3,371.5 143,375 "/>
<polygon points="145.5,376 147.3,372.5 149,376 "/>
<polygon points="142.5,378 143.9,375.5 145.2,378 "/>
<polygon points="133,375 131.2,371.5 129.5,375 "/>
<polygon points="127,376 125.2,372.5 123.5,376 "/>
<polygon points="130,378 128.6,375.5 127.3,378 "/>
</svg>
