<?xml version="1.0" encoding="utf-8"?>
<!-- Generator: Adobe Illustrator 18.1.1, SVG Export Plug-In . SVG Version: 6.00 Build 0)  -->
<svg version="1.1" id="Layer_1" xmlns="http://www.w3.org/2000/svg" xmlns:xlink="http://www.w3.org/1999/xlink" x="0px" y="0px"
	 height="400" width="400" viewBox="0 0 400 400" enable-background="new 0 0 400 400" xml:space="preserve">
<linearGradient id="SVGID_1_" gradientUnits="userSpaceOnUse" x1="199.9048" y1="402.7566" x2="199.9048" y2="-2.5344">
	<stop  offset="0" style="stop-color:#F15A24"/>
	<stop  offset="1" style="stop-color:#000000"/>
</linearGradient>
<rect x="-2.7" y="-2.5" fill="url(#SVGID_1_)" stroke="#000000" stroke-miterlimit="10" width="405.3" height="405.3"/>
<g>
	<path d="M111.3,196.9c0.2,0.5,0.4,1.1,0.7,1.5c0.8,1,0.9,1.2,0.1,2.2c-0.7,0.8-0.7,1.7-0.5,3.1c0.6-0.5,1.1-0.8,1.5-1.3
		c0.4-0.4,0.9-0.9,1.2-1.5c1-1.8,2.5-2,4-1.8c0.6,0.1,0.9,0.5,0.6,1.2c-0.3,0.8-0.6,1.7-1,2.4c-0.3,0.4-0.8,0.6-1.3,0.7
		c-1.2,0.3-1.3,0.5-1.1,1.9c0,0.3-0.1,0.8-0.2,1.1c-0.4,0.8-0.4,1.6,0.1,2.3c0,0.1,0.1,0.1,0.1,0.2c1.1,1.7,1.1,1.7,2.4,0.4
		c0.5-0.6,1-0.7,1.4,0.2c0.1,0.3,0.5,0.5,0.8,0.7c0.2-0.4,0.4-0.8,0.5-1.2c0.1-0.4,0-0.8,0-1.2c0-1.4,1.1-2.4,2.2-1.9
		c0.2,0.1,0.4,0.3,0.4,0.5c0,1.2,0.2,2.4-0.5,3.4c-0.8,1.1-1.6,2.3-2.4,3.5c-0.1,0.1-0.1,0.2-0.2,0.3c-0.3,0.6-0.9,1.2-0.4,2
		c0.1,0.2,0.9-0.3,1.3-0.6c0.3-0.2,0.5-0.6,0.8-0.8c0.9-0.9,1.3-0.7,1.6,0.6c0.2,0.6,0.5,1.2,0.9,1.7c0.1,0.2,0.4,0.1,0.7,0.2
		c-0.1-1.6-0.3-3.1-0.4-4.6c0-0.5,0-1,0.1-1.5c0.1-0.9,0.1-1.9,0.4-2.8c0.4-1.1,0.8-2.2,1.4-3.1c0.5-0.8,1.3-1.2,2-1.8
		c0.6-0.5,1-0.4,1.4,0.5c0.8,2,0.8,4.1,0.7,6.3c0,0.3-0.2,0.6-0.3,0.8c-0.2,0.5-0.5,0.9-0.6,1.4c-0.2,2.3-1.5,3.5-2.7,5
		c-0.4,0.5-1,0.8-0.4,1.6c0.5,0.8,1,0.3,1.5-0.2c0.3-0.3,0.6-0.7,0.9-1c0.8-0.8,1.7-0.3,1.9,1c0.1,0.6,0.4,1.1,0.6,1.6
		c0,0,0.5-0.1,0.5-0.3c0.1-0.6,0.2-1.4,0-1.8c-1-1.7-0.6-3.5-0.5-5.3c0-0.6,0.5-1.4,0.9-1.8c0.2-0.2,0.9,0.3,1.3,0.7
		c0.8,1,1.6,2,2.2,3.1c0.3,0.5,0.1,1.3,0.3,1.9c0.1,0.5,0.5,0.9,0.7,1.3c0.2-0.5,0.6-0.9,0.6-1.4c0.2-2.4,0.1-2.4,2.1-2.8
		c0.3-0.1,0.6-0.5,0.9-0.8c-0.3-0.3-0.5-0.8-0.9-0.9c-0.7-0.2-1.4-0.2-2.1-0.4c-0.2,0-0.4,0-0.5-0.2c-2.3-2.1-4.8-4-4.6-8.3
		c0-0.8-0.3-1.7-0.3-2.6c0.1-3.8,1.1-7,3.8-9.3c1.7-1.4,3.2-3.1,4.9-4.5c0.5-0.4,1.1-0.7,1.6-0.7c4.3-0.1,8.5-0.1,12.8,0
		c0.7,0,1.4,0.3,2,0.7c3.4,2.4,6.8,4.8,10.2,7.3c2.8,2,5.6,4.1,8.5,6.1c2.8,2,5.6,3.9,8.3,5.8c2.1,1.5,4.1,3,6.2,4.5
		c3,2.1,6,4.2,9,6.3c2.8,2,5.5,4,8.2,6.1c0.1,0.1,0.3,0.2,0.4,0.3c2.1,1,3.4,3,4.3,5.5c0.8,2.1,1.8,4,2.7,6c1.2,2.6,2.4,5.2,3.7,7.8
		c1.2,2.7,2.5,5.3,3.7,8c1.4,3,2.7,5.9,4.1,8.9c1.2,2.6,2.5,5.2,3.6,7.9c0.4,0.9,0.5,2,0.7,3c0.1,1,0.2,2,0.2,3.1
		c-0.1,4.1-0.1,8.2-1.1,12.2c-0.5,2-0.8,4-1.3,6c-0.3,1.2-0.8,2.3-1.2,3.5c-0.9,2.4-1.9,4.6-2.6,7.1c-0.9,2.9-1.9,5.8-2.7,8.8
		c-0.9,4-0.8,8-1,12c-0.2,3.4-0.5,6.8-0.9,10.1c-0.4,3.3-0.7,6.6-1.3,9.8c-0.8,4-0.6,7.9-0.8,11.9c-0.1,2.6-0.2,5.1-1,7.6
		c-1.1,3.2-2.5,6.1-4,9c-1.9,3.6-4.3,6.4-6.9,9c-1.5,1.5-3.2,2.7-4.9,3.8c-1.8,1.1-3.7,1.8-5.5,2.8c-0.8,0.4-1.5,1.2-2.1,2
		c-0.5,0.6,0,1.1,0.4,1.2c0.9,0.2,1.8,0.3,2.7,0.4c0.4,0,0.8-0.1,1.2-0.2c2.8-1,5.7-0.8,8.4-2.1c2.3-1.1,4.6-2.4,6.7-3.9
		c0.8-0.6,1.8-0.9,2.6-1.4c1.2-0.8,2.4-1.6,3.6-2.4c0.2-0.2,0.5-0.4,0.8-0.4c0.2,0,0.4,0.2,0.6,0.3c-0.1,0.3-0.2,0.6-0.3,0.7
		c-1.6,1.2-1.5,1.2-1.1,3.3c0.1,0.3-0.1,1-0.3,1.2c-0.7,0.5-1.5,0.9-2.2,1.2c-1.2,0.5-2.5,0.9-3.7,1.4c-0.8,0.3-1,1.4-0.4,2
		c0.4,0.5,1,0.9,1.6,0.9c2.5-0.1,5.1-0.2,7.5-0.7c1.3-0.3,2.5-1.3,3.5-2.3c1-1,1.8-1.6,3.1-1.6c2.1,0.1,4.2-0.1,6.3-0.2
		c1.4-0.1,2.4-1.2,3.2-2.7c0.7-1.5,1-1.5,2.4-1.4c3,0.3,5.5,2.2,8.2,3.7c1.3,0.8,2.7,1.4,4.1,2c0.1,0.1,0.3,0.1,0.4,0.2
		c2.6,1.9,5.4,1.1,8.2,1.1c0.4,0,0.7-0.2,1.1-0.4c2.1-1.4,4.3-1.1,6.5-0.2c1.3,0.5,2.5,1,3.8,0.4c0.4-0.2,0.7-0.5,1.2-0.8
		c-0.2-0.3-0.3-0.6-0.4-0.7c-2.1-1.1-4.1-2.6-6.3-3.3c-2.3-0.8-4.8-1-7.2-1.3c-2.6-0.3-4.8-1.6-7-3.3c-2.2-1.6-4.3-3.2-6.5-4.8
		c-2.2-1.6-4.2-3.5-5.6-6.2c-1.5-3-1.9-6.5-1.1-9.7c0.9-3.8,0.8-7.6,0.9-11.5c0-2.4-0.1-4.8-1-7.1c-0.1-0.2-0.1-0.5-0.1-0.8
		c-0.1-2.8-0.2-5.5-0.2-8.3c0-4.4,1.1-8.5,2.8-12.4c1-2.3,1.9-4.8,2.5-7.3c0.6-2.7,0.8-5.6,1.3-8.4c0.2-1.2,0.7-2.4,1.1-3.5
		c1-2.3,2.1-4.5,3.2-6.7c1.4-2.9,2.9-5.7,4.3-8.5c2.9-5.9,5.6-12,9.7-16.9c2.7-3.3,5-7.1,7.6-10.7c1-1.4,2-2.7,3-4.1
		c1.1-1.6,2.5-2.1,4-2.3c1.4-0.2,2.9-0.1,4.3-0.3c1.6-0.2,3.2-0.7,4.8-0.9c1.7-0.2,3.3-0.3,5-0.5c0.9-0.1,1.8-0.4,2.7-0.5
		c1.5-0.3,3-0.5,4.5-0.7c1.5-0.2,3.1-0.5,4.6-0.7c1.3-0.2,2.7-0.4,4-0.6c1.7-0.3,3.5-0.6,5.2-0.9c1.2-0.2,2.5-0.3,3.8-0.4
		c1.7-0.2,3.5-0.2,5.1-0.8c2-0.7,3.5,0.1,5.1,1.2c3.2,2.3,6.3,4.7,9.5,6.9c1.5,1,2.2,2.5,2.6,4.5c0.4,1.9,1,3.8,1.6,5.7
		c0.9,3.1,1,6.2-0.6,8.9c-1.3,2.2-3,4-5.2,4.9c-0.2,0.1-0.5,0.2-0.7,0.3c-1.8,1.3-3.6,0.9-5.4,0c-0.6-0.3-1.3-0.2-2-0.1
		c-0.2,0-0.5,0.5-0.5,0.7c0,0.3,0.3,0.7,0.5,0.8c0.4,0.2,0.8,0.2,1.2,0.3c1,0.1,1.3,0.7,0.8,1.8c-0.3,0.6-0.7,1.1-0.9,1.7
		c-0.1,0.4,0,0.9,0,1.4c0.4-0.1,0.9-0.1,1.1-0.4c0.5-0.5,0.9-1.1,1.3-1.8c0.6-1,1.5-1.1,2.3-1.4c0.2,0,0.3-0.1,0.5-0.1
		c0.5,0,1.1,0,1.6,0c-0.1,1,0,2.2-0.4,2.9c-0.9,1.6-2,2.9-3,4.4c-0.2,0.3-0.2,0.9-0.3,1.4c0.4-0.1,0.9,0,1.2-0.3
		c0.4-0.3,0.8-0.9,1.2-1.4c0.5-0.7,1.1-0.5,1.4,0.4c0.1,0.5,0.1,1.1,0.3,1.5c0.2,0.4,0.6,0.6,1,0.9c0.1-0.4,0.4-0.8,0.4-1.1
		c0-1-0.2-2-0.2-2.9c0-0.7,0-1.4,0.1-2.1c0.1-0.8,0.2-1.6,0.4-2.4c0.1-0.6,0.3-1.3,0.6-1.8c0.9-1.2,1.9-2.2,2.8-3.3
		c0.5-0.6,0.9-0.5,1.2,0.4c0.7,2,0.9,4,0.7,6.1c0,0.6-0.5,1.1-0.6,1.7c-0.4,2.6-1.7,4.2-3.2,5.8c-0.2,0.2-0.2,1.1,0,1.3
		c0.3,0.2,0.8,0.3,1.1,0.1c0.3-0.2,0.6-0.7,0.9-1.1c0.8-0.9,1.6-0.6,1.9,0.7c0.1,0.5,0.1,1,0.3,1.4c0.1,0.3,0.5,0.7,0.7,0.6
		c0.3-0.1,0.7-0.5,0.6-0.8c0-0.6-0.2-1.2-0.4-1.7c-0.1-0.3-0.6-0.7-0.5-0.9c0.3-1.8-0.2-3.7,0.8-5.4c0.4-0.7,0.8-0.8,1.3-0.2
		c0.8,1,1.8,1.9,1.5,3.7c-0.1,0.4,0.2,0.9,0.4,1.3c0.3,0.6,0.6,1.1,1,1.6c0.2,0.3,0.5,0.7,0.7,0.6c0.3-0.1,0.5-0.5,0.6-0.9
		c0.1-0.5,0-1.1,0-1.7c0.1-0.5,0.2-1,0.4-1.5c0.4,0.3,0.9,0.5,1.3,0.8c0.1,0.1,0.1,0.3,0.2,0.5c0.2,0.5,0.5,0.9,0.7,1.4
		c0.2-0.5,0.5-1,0.6-1.6c0.1-1,0-1.9-0.6-2.9c-0.4-0.6-0.4-1.7-0.4-2.5c0-0.7,0.1-1.3,0.3-2c0.1-0.3,0.2-0.7,0.4-0.8
		c0.2-0.1,0.6,0.1,0.8,0.2c1.8,1.6,2.6,4,3.6,6.4c0.1,0.4,0.5,0.6,0.8,0.9c0.1-0.5,0.3-1,0.3-1.4c0-0.3-0.3-0.6-0.3-1
		c-0.1-0.5-0.2-1.1-0.1-1.4c0.2-0.3,0.7-0.3,1.1-0.3c0.5,0,1.1,0.3,1.6,0.2c0.4-0.1,0.8-0.4,1.1-0.8c0.3-0.3,0.5-0.8,0.6-1.2
		c0.1-0.6,0.1-1.3,0.1-1.9c0-0.4-0.3-0.8-0.4-1.2c-0.3-1.2,0.2-1.9,1.2-1.7c0.6,0.1,1.3,0,1.8-0.2c0.6-0.3,0.6-0.9,0-1.3
		c-0.4-0.2-0.9-0.4-1.3-0.3c-1.2,0.4-2.1,0-3-1c-0.7-0.8-1.4-1.8-2-2.7c0.1-0.1,0.1-0.2,0.2-0.3c0.3,0,0.6,0.1,0.9,0
		c0.5-0.2,1.1-0.3,1.5-0.7c1.2-1.2,1.6-1.3,2.9-0.2c0.6,0.5,1.2,0.9,1.9,0.3c0.3-0.3,0.6-0.7,0.7-1.1c0-0.3-0.4-0.7-0.7-1
		c-0.4-0.3-0.8-0.4-1.2-0.8c-0.8-0.7-0.9-1.6-0.5-2.7c0.1-0.4,0.1-0.9,0.2-1.4c-0.3,0-0.6-0.1-0.9-0.1c-0.7,0.1-0.8-0.4-0.9-1.1
		c0-0.8-0.1-1.8,0.8-1.8c0.5,0,1.2,0.3,1.5,0.7c1.3,1.5,2.5,3.2,3.8,4.8c0.2,0.2,0.6,0.2,0.9,0.2c0.1-0.4,0.1-0.9,0.2-1.3
		c0,0,0-0.1-0.1-0.1c-1.1-2.2-1.1-2.2,0.7-3.5c0.3-0.2,0.6-0.4,0.9-0.6c0.2-0.2,0.2-0.5,0.4-0.7c-0.2-0.1-0.5-0.3-0.7-0.4
		c-0.1,0-0.2,0-0.3,0.1c-1.1,1-2.4,0.9-3.6,0.5c-1.6-0.6-3.2-1.4-4.2-3.3c-0.6-1.2-1.3-2.3-1.9-3.4c-0.5-0.8-0.4-1.3,0.4-1.5
		c0.9-0.3,1.7-0.6,2.6-0.8c1.3-0.4,2.3,0.7,3.4,1.4c1.9,1.1,2.9,3.2,4.2,5c0.2,0.3,0.5,0.6,0.8,1c0.3-1.5,0.1-2.6-0.5-3.6
		c-0.7-1.3-0.6-1.7,0.6-2.2c0-0.4,0-0.8,0-1.4c-0.2,0-0.5,0-0.6,0.1c-1.4,0.8-2.5-0.1-3.6-0.8c-0.9-0.6-0.9-1.7-0.1-2.5
		c1.8-1.7,1.8-1.7,3.6,0.3c0.1,0.1,0.3,0.3,0.7,0.6c0-1.3,0-2.4,0-3.5c0-0.2-0.5-0.4-0.7-0.7c-0.2-0.2-0.4-0.4-0.4-0.7
		c0-0.2,0.3-0.5,0.4-0.7c0.2-0.3,0.5-0.6,0.8-1c-0.2-0.3-0.5-0.6-0.7-0.9c-0.2-0.3-0.4-0.7-0.6-1c-0.2-0.3-0.3-0.7-0.5-0.7
		c-0.3,0-0.5,0.3-0.8,0.4c-0.1,0-0.1,0.2-0.1,0.3c-0.3,0.6-0.7,1.8-0.9,1.7c-0.8-0.2-1.6-0.7-2.4-1.3c-0.4-0.3-0.3-0.8,0.1-1.3
		c1.3-1.5,2.7-2.7,4.6-2.9c1.2-0.1,1.5-0.7,1.2-1.9c-0.8,0-1.5,0.1-2.3,0c-0.7-0.1-0.9-0.6-0.6-1.4c0.2-1,0.4-2,0.4-3
		c0-0.7-0.3-1.4-0.5-2.1c-0.2-0.8-0.6-1.6-0.6-2.4c0-1-0.3-1.4-1-1.8c-0.8-0.5-1.6-1.2-2.4-1.8c-0.7-0.6-0.7-1.1-0.1-1.8
		c0.6-0.7,1.3-1.3,1.9-1.9c0.2-0.1,0.5-0.3,0.6-0.2c1.3,0.6,2.4-0.4,3.6-0.5c0.3,0,0.6-0.6,0.9-0.9c-0.3-0.3-0.7-0.6-1-0.8
		c-0.5-0.2-1.1-0.1-1.6-0.3c-0.8-0.3-1-1-0.5-1.9c0.3-0.5,0.8-0.8,1.1-1.3c0.2-0.4,0.5-0.9,0.4-1.3c-0.1-0.4-0.6-0.8-0.9-0.8
		c-0.5,0-1.2,0.2-1.5,0.6c-1.4,1.7-3.7,0.6-4.7-0.7c-0.1-0.2-0.1-1,0.1-1.2c0.6-0.7,1.3-1.3,2-1.8c0.6-0.5,1.2-0.9,1.8-1.2
		c0.4-0.2,0.9-0.2,1.3-0.4c0.3-0.2,0.6-0.6,0.9-1c-0.3-0.3-0.7-0.7-1-0.7c-0.5,0-1,0.3-1.5,0.6c-0.5,0.4-0.9,0.5-1.3-0.1
		c-0.4-0.6-0.4-1.1,0-1.8c0.3-0.5,0.5-1.2,0.6-1.9c0-0.2-0.3-0.7-0.5-0.8c-0.2,0-0.6,0.3-0.7,0.6c-0.5,1.6-0.9,3.3-1.5,4.8
		c-0.7,1.7-1.9,2.6-3.3,3.1c-1.1,0.4-2.3,0.6-3.5,1c-0.5,0.1-0.8,0.1-0.8-0.7c-0.2-3,1.9-7.7,4.4-8.5c0.3-0.1,0.6-0.2,0.8-0.5
		c0.6-0.7,1.2-0.8,2-0.9c0.3,0,0.7-0.6,1-0.9c-0.4-0.4-0.7-0.9-1.1-1c-0.4-0.1-0.9,0.4-1.4,0.5c-0.4,0.1-1,0-1.2-0.3
		c-0.2-0.2,0-1,0-1.4c0.1-0.3,0.4-0.6,0.4-0.9c0-0.5-0.3-1-0.4-1.4c-0.3,0.3-0.7,0.5-0.8,0.9c-0.9,2-1.8,4.1-2.7,6.2
		c-0.1,0.3-0.7,0.2-1.1,0.4c0-0.5-0.2-1-0.1-1.4c0-0.2,0.3-0.4,0.5-0.6c0.5-0.6,0.4-1.1-0.1-1.6c-1.4-1.4-1.4-1.9,0-3.5
		c0.3-0.3,0.5-0.8,0.8-1.2c-0.6-0.5-1.2-1.2-1.9-1.6c-0.2-0.1-0.7,0.5-1,0.8c-0.2,0.2-0.3,0.6-0.5,0.9c-0.9,1.6-1.1,1.6-2.4,0.6
		c-0.2-0.2-0.4-0.3-0.7-0.4c-0.9-0.4-1.1-1-0.5-1.9c0.8-1.2,1.7-2.2,3-2.8c0.7-0.3,1.3-1.1,1.9-1.7c0.1-0.1,0.1-0.7,0-0.7
		c-0.2-0.2-0.6-0.4-0.8-0.3c-0.5,0.2-0.9,0.5-1.4,0.8c-1.1,0.5-1.4,0.2-1.4-1.2c0-0.4,0.1-0.9,0-1.3c-0.1-0.4-0.4-0.7-0.7-1
		c-0.2,0.3-0.4,0.6-0.6,0.9c-0.1,0.1-0.1,0.3,0,0.5c0.4,2.7-0.8,4.6-2,6.5c-0.3,0.4-0.4,0.9-0.7,1.3c-0.7,1-1.4,1.9-2.5,2.1
		c-0.5,0.1-1,0.4-1.5,0.6c-0.8,0.4-1.1,0.2-1.2-0.8c-0.2-4.4,1.5-7.7,4-10.5c0.6-0.7,1.7-0.5,2.2-1.7c0.1-0.4,0.2-0.8,0.3-1.2
		c-0.4,0-0.7-0.1-1.1,0c-0.5,0.2-1.1,0.5-1.6,0.8c-0.8,0.5-1,0.4-1-0.8c0-0.6,0-1.2-0.1-1.8c-0.1-0.4-0.4-0.7-0.6-1
		c-0.2,0.4-0.5,0.8-0.6,1.2c-0.2,1.1-0.1,2.3-0.3,3.4c-0.3,1.2-0.9,2.3-1.4,3.3c-0.1,0.2-0.9,0.2-1.1,0c-0.6-1-1-2.2-1.4-3.3
		c-0.1-0.4,0.2-1,0.3-1.4c0.3-0.8,0.2-1.4-0.4-2c-0.4-0.3-0.6-0.8-1-1.2c-0.1-0.2-0.3-0.3-0.5-0.5c-0.1,0.2-0.3,0.5-0.4,0.7
		c-0.1,0.5-0.1,1-0.3,1.5c-0.1,0.2-0.2,0.5-0.4,0.6c-0.1,0-0.3-0.2-0.4-0.4c-0.2-0.3-0.3-0.6-0.5-0.9c-0.5-0.7-1-0.9-1.7-0.3
		c-0.3,0.2-0.8,0.3-1,0.1c-0.6-0.6-1-0.4-1.5,0.2c-0.2,0.3-0.5,0.6-0.8,0.9c-0.4,0.4-0.7,0.2-0.9-0.4c-0.5-1.9-0.5-1.9-1.9-1.4
		c-0.4-1-0.3-1.6,0.6-2.2c0.4-0.2,0.8-0.4,1.1-0.7c0.7-0.5,0.6-1.2,0.3-2c-0.3-0.7-0.7-1.2-1.5-0.7c-0.6,0.4-1.1,0.9-1.7,1.3
		c-0.5,0.5-0.9,0.3-1.3-0.3c-0.3-0.4-0.5-0.8-0.8-1.2c-0.4-0.6-0.8-0.8-1.4-0.3c-0.4,0.4-0.9,0.3-1.1-0.3c-0.1-0.4,0.2-1.1,0.5-1.3
		c0.7-0.6,1.5-1.1,2.3-1.6c0.5-0.3,1.1-0.3,1.6-0.4c0.8-0.1,1.7,0,2.5-0.2c0.3-0.1,0.6-0.6,0.6-1c0-0.2-0.4-0.6-0.7-0.7
		c-0.4-0.1-0.8-0.1-1.2-0.1c-1.1,0-1.4-0.4-1.2-1.8c0.1-0.6,0.4-1.1,0.5-1.6c0.1-0.4,0-0.9,0-1.4c-0.3,0.2-0.7,0.2-0.9,0.5
		c-0.6,1.1-1,2.2-1.6,3.3c-0.8,1.7-2.2,2.6-3.5,3.7c-1.6,1.4-3.4,0.9-5.1,0.9c-0.5,0-0.8-0.5-0.5-1.2c0.3-0.8,0.6-1.6,0.9-2.5
		c0.7-2.4,2.3-3.3,3.9-4.4c0.5-0.4,1-0.9,1.6-1.1c0.7-0.3,1.4-0.4,2.2-0.6c0.5-0.1,1.1,0,1.6-0.1c0.2-0.1,0.5-0.4,0.6-0.7
		c0-0.2-0.2-0.7-0.4-0.8c-0.6-0.2-1.3-0.1-2-0.3c-0.5-0.1-1.1-0.3-1.4-0.7c-0.4-0.6-0.2-1.4,0.3-2c0.2-0.2,0.3-0.5,0.3-0.8
		c0-0.3-0.2-0.6-0.4-0.9c-0.2,0.2-0.5,0.3-0.6,0.6c-0.6,1.3-1.1,2.8-1.8,4c-0.6,0.9-1.5,1.5-2.3,2.1c-0.2,0.1-0.8-0.2-0.9-0.5
		c-0.8-1.9-0.3-5.2,1-6.8c0.6-0.8,0.3-2.7-0.5-3c-0.3-0.1-0.8,0.4-1,0.7c-0.4,0.6-0.6,1.7-1.5,1.3c-0.9-0.5-0.2-1.5-0.2-2.3
		c0-0.3,0.1-0.5,0.1-0.8c0-0.6-0.1-1.3-0.8-1.4c-0.7,0-0.7,0.7-0.8,1.3c-0.6,1.8-1.3,3.5-2,5.3c-0.1,0.3-0.4,0.5-0.6,0.7
		c-0.8,0.7-1.5,0.4-1.8-0.7c-0.6-1.6-0.3-3.3,0.3-4.8c0.3-1,0.7-1.9,0.3-2.9c-0.1-0.3-0.4-0.8-0.6-0.7c-0.2,0-0.5,0.4-0.6,0.7
		c-0.1,0.5-0.1,1-0.2,1.5c-0.1,1.1-0.6,1.5-1.5,1c-0.2-0.1-0.4-0.2-0.6-0.4c-0.9-1.2-1.9-1.5-3.2-1.1c-0.4,0.1-1.1-0.4-1.5-0.9
		c-0.5-0.6,0-1.2,0.4-1.7c0.2-0.3,0.4-0.7,0.5-1.1c0.1-0.6,0-1.3-0.6-1.3c-0.3,0-0.8,0.5-0.9,0.9c-0.7,2.3-2.1,3.7-3.7,4.8
		c-0.6,0.4-1,0-1.1-0.8c-0.2-2.3,0.2-4.4,1.5-6.2c0.3-0.4,0.4-1,0.4-1.5c0-0.3-0.3-0.8-0.5-0.9c-0.3,0-0.6,0.3-0.8,0.5
		c-0.4,0.5-0.7,1.2-1.1,1.7c-0.1,0.2-0.5,0.3-0.7,0.3c-1.1-0.3-1.2-1.6-1.5-2.6c-0.1-0.4,0.2-1,0.3-1.5c0.1-0.4,0.2-0.9,0.4-1.3
		c-0.4,0-0.9-0.1-1.3-0.1c0,0-0.1,0-0.1,0.1c-1.9,1.3-1.9,1.3-2.4-1.2c0-0.2,0-0.4-0.1-0.6c-0.1-0.2-0.3-0.4-0.4-0.6
		c-0.2,0.2-0.4,0.4-0.5,0.6c-0.1,0.7-0.2,1.4-0.2,2.1c-0.2,2.1-1.4,3.6-2.4,5.1c-0.5,0.8-0.9,0.5-1.4-0.4c-1.1-2.1-1.1-4.4-1.3-6.8
		c0-0.6-0.4-1.1-0.6-1.7c-0.2,0.5-0.5,1.1-0.7,1.7c-0.1,0.2,0,0.5-0.1,0.8c-0.1,0.9-0.4,1.2-1.1,0.8c-0.8-0.4-1.6-0.7-2.7-1.2
		c0.2,1.5,0.7,2.3,1.5,2.7c1.6,0.8,2.3,2.6,3.1,4.3c0.1,0.1,0,0.3,0.1,0.5c1.5,2.3,0.8,4.6,0.2,7c-0.3,1.2-0.7,1.3-1.4,0.5
		c-0.4-0.4-0.9-0.8-1.4-1.2c-0.6-0.5-1.1-1.1-1.1-2.2c0-0.5-0.3-1.2-0.6-1.4c-1.6-1-1.6-2.8-1.6-4.6c0-1,0-2,0-3
		c0-0.7,0-1.4-0.8-1.4c-0.6,0-0.7,0.7-0.7,1.3c0,0.2,0,0.4,0,0.6c-0.2,0.6-0.3,1.5-0.7,1.6c-0.5,0.2-1.2-0.1-1.8-0.2
		c-0.2,0-0.3-0.4-0.4-0.5c-0.4-0.1-0.8-0.1-1.1-0.1c0.1,0.5,0,1.1,0.3,1.4c0.5,0.6,1.1,1.1,1.8,1.6c0.7,0.5,0.9,1.3,0.7,2
		c-0.3,0.9-0.7,2-1.4,2.5c-0.3,0.3-1.2-0.3-1.7-0.7c-1-0.6-1.6-1.7-1.7-3.1c0-0.3-0.2-0.6-0.4-1.1c-1.3,1.5-2.3,0.8-3.3-0.4
		c-0.3-0.3-0.8-0.4-1.3-0.6c0.1,2,1.1,2.9,2,3.9c1.2,1.3,1.6,3.1,2.2,4.8c0.1,0.2,0.1,0.6,0,0.8c-0.8,1.7-0.4,3.7-0.9,5.5
		c-0.1,0.5-0.4,0.9-0.6,1.3c-0.3-0.2-0.6-0.4-0.9-0.7c-0.3-0.3-0.6-0.7-0.9-1c-1-1-1.4-2.3-1.7-3.8c-0.4-2-0.9-3.9-1.3-5.9
		c-0.1-0.5,0.2-1,0.3-1.5c0.2-0.8,0.4-1.6,0.5-2.5c0-1-0.6-1.4-1.3-0.9c-0.8,0.5-1.5,1.1-2.4,1.4c-0.4,0.2-1.1,0-1.5-0.3
		c-0.6-0.4-1-0.3-1.6,0.2c-0.6,0.4-1.4,0.3-2.1,0.4c0,0-0.3-0.9-0.2-1.1c0.9-1.2,1.8-2.3,2.8-3.4c0.7-0.8,1.3-1.6,2.4-1.5
		c0.1,0,0.4-0.5,0.4-0.8c0-0.3-0.4-0.7-0.5-0.7c-0.5,0.1-0.9,0.4-1.4,0.5c-0.4,0.1-0.9,0.3-1.1,0.1c-0.2-0.2-0.2-0.9-0.2-1.3
		c0-0.6,0.3-1.2,0.3-1.9c0-0.4-0.4-0.8-0.6-1.2c-0.2,0.3-0.6,0.6-0.7,1c-0.6,3.2-1.2,6.5-3.5,8.4c-1.2,1-2.6,1.5-4,1.8
		c-1.2,0.3-1.6-0.5-1.3-2.1c0.6-2.6,1.8-4.6,3.2-6.6c1.2-1.6,2.6-2.7,4-3.8c0.3-0.2,0.7-0.9,0.6-1.1c-0.3-0.7-0.8-0.7-1.3-0.3
		c-0.2,0.2-0.5,0.5-0.7,0.6c-0.4,0.1-0.8,0-1.1-0.2c-0.2-0.1-0.2-0.7-0.2-1.1c0-0.7,0.2-1.4,0.1-2.1c0-0.3-0.4-0.6-0.6-0.9
		c-0.2,0.3-0.5,0.6-0.6,1c-0.3,1.3-0.5,2.6-0.8,3.9c-0.2,0.7-0.5,0.9-1.1,0.5c-0.4-0.3-0.9-0.4-1.3-0.7c-0.2-0.2-0.5-0.7-0.4-1
		c0-0.3,0.3-0.7,0.6-0.9c0.6-0.6,1.3-1,1.9-1.7c0.4-0.5,0.1-1-0.4-1c-0.4,0-0.9,0.3-1.3,0.5c-1.4,1-1.5,1-2.4-0.5
		c-0.1-0.2-0.6-0.1-0.7,0c-0.2,0.2-0.2,0.7-0.3,1c-0.3,0.5-0.6,1.2-0.9,1.2c-0.5,0-1.2-0.3-1.5-0.8c-0.2-0.3,0-1.1,0.2-1.7
		c0.5-2.2,2.3-2.4,3.5-3.5c0.2-0.2,0.5-0.2,0.7-0.4c0.2-0.3,0.4-0.7,0.4-0.9c0-0.3-0.4-0.7-0.7-0.6c-0.5,0.1-1,0.3-1.5,0.5
		c-0.3,0.1-0.7,0.4-0.9,0.2c-0.3-0.2-0.4-0.7-0.5-1.1c-0.1-0.5,0-1,0-1.4c0-0.4-0.2-0.7-0.3-1.1c-0.1,0-0.2,0-0.3,0
		c-0.1,0.5-0.4,1-0.4,1.5c0,2.4-0.9,4.4-1.8,6.4c-0.4,1-1,2-1.6,2.8c-0.9,1.4-2.4,1-3.6,1.5c-0.1,0-0.6-0.8-0.6-1.1
		c0-0.8,0.4-1.5,0.4-2.3c0.1-2.9,1.4-5.1,2.6-7.3c0.5-0.9,1.6-1.4,2.5-2.1c0.3-0.2,0.7-0.3,0.8-0.5c0.2-0.3,0.2-0.8,0.1-1.2
		c0-0.2-0.5-0.4-0.7-0.3c-0.5,0.2-1,0.6-1.5,0.8c-0.3,0.2-0.7,0.5-0.9,0.3c-0.3-0.2-0.5-0.7-0.5-1.1c-0.1-0.8-0.1-1.7-0.3-2.6
		c0-0.3-0.4-0.5-0.6-0.8c-0.2,0.3-0.6,0.5-0.6,0.8c-0.1,1.3-0.2,2.6-0.2,3.9c0,1.7-0.5,3.2-1.2,4.7c-0.3,0.7-1,0.7-1.3,0
		c-0.5-1.1-1-2.2-1.4-3.3c-0.2-0.5-0.1-1.2,0.1-1.7c0.6-1.3-0.3-3.9-1.5-3.9c-0.2,0-0.5,0.7-0.6,1.1c-0.1,0.8,0,1.7-0.8,2.1
		c-0.5-1-1.1-2-1.6-2.9c-0.1-0.2-0.4-0.4-0.7-0.5c-0.1,0.3-0.2,0.7-0.2,1c-0.1,0.7-0.1,1.5-0.3,2.1c-0.2,0.8-0.3,1.4,0.3,2.1
		c0.5,0.6,0.5,1.4,0.1,2.1c-0.3,0.4-0.4,1-0.6,1.4c-0.2,0.3-0.5,0.7-0.7,0.7c-0.2,0-0.6-0.4-0.7-0.7c-0.7-1.6-1.3-3.1-2-5.1
		c-0.2,0.4-0.2,0.6-0.3,0.8c-0.5,1-1.1,1.2-1.9,0.6c-1-0.7-1.9-1-3.1-0.5c-1.4,0.6-2.4,0.1-2.4-2.2c0-0.4-0.2-0.8-0.3-1.2
		c-0.3,0.3-0.6,0.6-0.8,1c-0.2,0.4-0.2,0.8-0.2,1.2c0,1.8-0.9,3-1.6,4.4c-0.3,0.6-0.8,0.6-1.2,0c-0.9-1.4-1.4-2.7-1.1-4.7
		c0.2-1.3,0-2.8-0.1-4.3c-0.6,0-0.9,0-1.4,0c-0.1,0.9-0.2,1.8-0.3,2.7c-0.1,0.4-0.2,0.9-0.5,1c-0.2,0.1-0.7-0.1-0.9-0.3
		c-0.4-0.5-0.8-1-1.1-1.6c-0.3-0.6-0.7-1.4-1.2-0.8c-0.4,0.4-0.4,1.3-0.5,2c0,0.3,0.3,0.6,0.5,0.9c0.6,1,0.5,2.3-0.3,3.2
		c-0.3,0.4-0.6,0.8-0.9,1.2c-0.7,0.9-1.5,0.7-1.9-0.4c-0.5-1.6-0.9-3.2-1.5-4.8c-0.1-0.3-0.4-0.5-0.6-0.8c-0.2,0.3-0.5,0.5-0.6,0.8
		c-0.4,1.2-0.7,1.3-1.6,0.6c-0.3-0.3-0.7-0.4-1.1-0.5c-0.3,0-0.8,0.3-0.8,0.4c0,0.4,0.1,1,0.3,1.2c0.7,0.6,1.4,1,2.1,1.5
		c1.7,1.1,2.8,2.9,3,5.3c0.2,1.7-0.1,3.4-0.2,5.1c0,0.8-0.5,0.9-1,0.6c-2.1-1.1-3.7-2.8-4.6-5.5c-0.7-2.1-1.5-4.2-1.2-6.6
		c0-0.3,0-0.7-0.2-0.9c-0.1-0.2-0.4-0.6-0.6-0.5c-0.2,0-0.5,0.4-0.6,0.6c-0.1,0.6,0,1.4-0.2,2c-0.1,0.6-0.3,1.4-0.6,1.7
		c-0.5,0.5-0.9-0.1-1.4-0.5c-0.4-0.3-1-0.2-1.6-0.2c-0.1,0-0.3,0.5-0.3,0.8c0,0.2,0.3,0.5,0.5,0.7c0.9,0.6,2,1,2.7,1.8
		c0.9,1,1.6,2.3,2.3,3.5c0.1,0.1-0.1,0.8-0.2,0.8c-0.3,0.1-0.7,0-0.9-0.2c-0.2-0.2-0.2-0.6-0.3-0.9c-0.2-0.8-0.5-1-1-0.5
		c-0.4,0.3-0.7,0.7-1.1,1c-0.9,0.8-1.3,0.7-1.9-0.5c-0.3-0.5-0.7-1-1.2-1.2c-0.3-0.2-1,0-1.2,0.4c-0.2,0.4-0.3,1.2-0.2,1.6
		c0.2,0.6,0.6,1.1,1,1.5c0.8,0.9,0.8,1.7,0,2.6c-1.1,1.3-1.1,1.3-0.2,2.6c0.1,0.2,0.1,0.5,0.2,0.7c-0.2,0-0.5,0.2-0.7,0.1
		c-1.5-0.6-3.1-3.3-3.2-5.3c0-0.5-0.1-1.1-0.2-1.5c-0.1-0.3-0.5-0.7-0.7-0.7c-0.2,0-0.5,0.5-0.6,0.9c-0.1,0.5-0.1,1.1,0,1.6
		c0.2,1.6,0.1,1.9-1.2,2.4c-0.2,0.1-0.4,0.2-0.6,0.6c0.6,0.4,1.2,0.7,1.8,1.1c0.4,0.3,0.9,0.4,1.2,0.8c0.8,0.7,1.4,1.5,2.2,2.3
		c0.9,0.9,1.8,1.7,1.7,3.4c0,0.8,0.1,1.7,0.1,2.5c0,0.3-0.1,0.7-0.3,0.8c-0.2,0.1-0.6,0-0.8-0.2c-0.7-1.2-1.7-1.3-2.8-1.3
		c-1.1,0-1.5-0.7-1.1-2c0.2-0.5,0.4-1,0.6-1.5c0.1-0.3,0.1-0.7,0-0.9c-0.1-0.1-0.5-0.1-0.7,0c-0.4,0.3-0.8,0.8-1.2,1.2
		c-0.4,0.5-0.9,0.7-1.3,0.1c-0.5-0.6-1-1.2-1.5-1.7c0-0.1,0-0.3,0-0.4c0.5-0.2,0.9-0.5,1.4-0.6c0.6-0.2,1.3-0.2,1.9-0.4
		c0.2-0.1,0.3-0.6,0.5-0.9c-0.2-0.2-0.5-0.4-0.7-0.4c-0.6,0-1.1,0.2-1.7,0.2c-0.3,0-0.8-0.4-1-0.7c-0.1-0.3,0.2-0.9,0.5-1.2
		c0.6-0.7,0.5-2.7-0.2-3.2c-0.5-0.4-0.9,0-1.1,0.6c-0.4,1.1-0.9,2.2-1.4,3.3c-0.5,1.2-1.2,2-2.3,2.4c-0.7,0.3-1,0-1.1-0.7
		c-0.1-1.5-0.1-3,0-4.5c0-0.4,0.4-0.8,0.7-1.1c0.7-0.7,1.1-1.9,0.7-2.9c-0.1-0.3-0.6-0.6-0.8-0.5c-0.5,0.2-1,0.7-1.5,1
		c-0.3,0.2-0.7,0.4-0.9,0.3c-0.2-0.1-0.5-0.7-0.5-1c0-0.6,0.2-1.3,0.4-1.9c0.2-0.6,0.4-1.2-0.3-1.8c-0.9,1.9-2.5,3-2.9,5.4
		c-0.1,0.8-1.2,1.4-1.8,2c0,0-0.6-0.5-0.7-0.9c-0.1-1.8-0.1-3.5-0.1-5.3c0-0.4,0.3-0.8,0.4-1.1c0.2-0.4,0.5-0.9,0.4-1.3
		c0-0.5-0.3-0.9-0.5-1.4c-0.3,0.3-0.6,0.6-0.8,1c-0.4,0.7-0.7,1.5-1,2.2c-0.5,0.8-1,0.5-1.5-0.1c-0.1-0.1-0.1-0.3-0.2-0.4
		c-0.4-0.4-0.9-0.8-1.3-1.1c-0.1-0.1-0.5,0.3-0.5,0.4c0.2,0.7,0.3,1.5,0.7,2c0.7,1.2,1.6,2.3,2.2,3.5c0.3,0.5,0.4,1.3,0.4,1.9
		c0,1.5-0.1,3-0.8,4.3c-0.4,0.7-0.4,1.6-0.7,2.4c-0.4,1.3-0.9,1.4-1.6,0.3c-0.4-0.6-0.8-1.2-1.2-1.8c-1.1-1.3-1.4-2.9-1.3-4.7
		c0.1-1.3,0-2.5,0-3.8c0-1-0.1-2.1,0.7-2.8c0.2-0.2,0.4-0.8,0.3-1.1c-0.1-0.4-0.3-0.9-0.6-1.1c-0.2-0.1-0.6,0.4-0.8,0.7
		c-0.1,0.1,0,0.5-0.1,0.7c-0.4,0.6-0.7,1.4-1.2,1.7c-0.3,0.2-0.9-0.6-1.3-0.9c-0.1-0.1-0.2-0.4-0.3-0.5c-0.4-0.1-0.8-0.2-1.1-0.3
		c0,0.5-0.3,1.2-0.1,1.5c0.7,1.2,1.6,2.4,2.4,3.5c0.7,0.9,1.1,3.5,0.6,4.5c-0.3,0.7-1.9,0.6-2.9-0.3c-0.7-0.6-0.4-1.4,0-1.9
		c0.4-0.5,0.9-0.7,1.3-1.1c-0.1-0.2-0.3-0.5-0.4-0.7c-0.4,0.1-0.9,0.1-1.1,0.4c-0.5,0.7-1.1,0.7-1.6,0.2c-0.3-0.3-0.4-1-0.6-1.5
		c-0.1-0.2,0-0.5,0-0.7c0-1.3-0.2-1.5-1.2-0.8c-0.2,0.2-0.5,0.3-0.8,0.5c-0.6,0.4-0.8,1-0.6,1.9c0.4,1.3,0.7,2.5-0.2,3.8
		c-0.9,1.2-1.7,1.2-2.3-0.1c-0.7-1.5-1.2-3.1-0.4-4.8c0.2-0.5,0.4-1.2,0.4-1.8c0-0.4-0.4-0.9-0.6-1.3c-0.2,0.4-0.5,0.7-0.7,1.1
		c-0.1,0.1,0,0.4,0,0.6c-0.2,0.6-0.4,1.3-0.8,1.6c-0.3,0.2-0.8-0.1-1.2-0.2c-0.4-0.2-0.7-0.6-1.1-0.7c-0.3-0.1-0.8,0.1-1,0.4
		c-0.1,0.2,0.1,0.8,0.2,1.2c0,0.1,0.1,0.2,0.2,0.3c1.6,0.8,2.3,2.5,3.2,4.1c1.5,2.8,1.8,5.8,0.4,8.6c-0.3,0.6-0.6,0.8-1,0.3
		c-1-1.1-2-2.2-3-3.3c-0.3-0.3-0.4-0.9-0.5-1.3c-0.1-0.3-0.1-0.8-0.2-1c-1.1-1.9-1.1-4.1-1.1-6.2c0-0.4,0.1-0.9,0-1.3
		c-0.1-0.4-0.4-0.8-0.6-1.1c-0.3,0.4-0.6,0.7-0.7,1.1c-0.1,0.5,0,1.2-0.1,1.8c0,0.9-0.3,1.2-1,0.7c-0.4-0.3-0.9-0.7-1.3-0.9
		c-0.3-0.2-0.7-0.4-1-0.4c-0.3,0-0.7,0.3-0.8,0.6c-0.1,0.3,0.1,0.8,0.4,1.1c0.5,0.5,1.1,1,1.8,1.3c1.5,0.8,2.1,2.6,2.7,4.2
		c0.4,1.1-0.1,2-1.2,2c-1.3,0-3.1-0.8-3.6-2.7c-0.1-0.4-0.6-0.7-0.9-0.8c-0.5-0.2-1-0.1-1.5-0.1c-0.8,0-0.9,0.5-0.6,1.2
		c0.2,0.6,0.7,1.1,1,1.7c0.2,0.4,0.2,0.8,0.2,1.3c-0.3,0-0.7,0.1-1,0.1c-0.5-0.1-0.9-0.5-1.3-0.6c-0.3,0-0.7,0.3-0.8,0.5
		c-0.1,0.3,0.2,0.9,0.4,1c0.6,0.3,0.9,0.8,1,1.6c0.1,0.7,0.5,1,1.2,0.8c0.3-0.1,0.6,0.2,0.9,0.5c0.3,0.4,0.6,0.9,0.8,1.4
		c0.1,0.4,0.2,0.9,0.2,1.3c0,0.2-0.5,0.4-0.8,0.4c-1,0-2.1,0.1-3-0.1c-0.7-0.2-1.3-0.9-1.9-1.4c-0.4-0.3-0.7-0.7-1.2-0.7
		c-0.3-0.1-0.6,0.3-1,0.5c0.1,0.4,0.2,0.9,0.5,1.1c0.4,0.5,1,0.8,1.5,1.3c0.6,0.6,0.6,1.3-0.2,1.7c-0.3,0.2-0.7,0.1-1,0.4
		c-0.4,0.3-0.8,0.8-1,1.3c-0.1,0.3,0.5,0.9,0.9,1.1c0.7,0.5,1.4,0.8,2.1,1.3c0.3,0.2,0.5,0.5,0.6,0.9c0.1,0.4,0.1,0.8,0.2,1.2
		c-0.3,0-0.7,0-0.9-0.1c-0.5-0.2-0.9-0.7-1.3-0.9c-0.4-0.2-0.8-0.4-1.1-0.3c-0.3,0-0.6,0.5-0.7,0.8c-0.1,0.2,0.2,0.7,0.5,0.9
		c0.3,0.3,0.8,0.5,1.1,0.9c0.3,0.4,0.7,1.1,0.6,1.4c-0.3,0.5-0.8,1.1-1.2,1.2c-0.4,0-1-0.6-1.1-1.1c-0.3-0.8-0.3-1.8-0.3-2.7
		c0-1.1,0.1-2.3,0.1-3.4c0-0.8-0.1-1.5-0.9-1.6c-0.7-0.1-0.7,0.7-0.8,1.3c0,0.1,0,0.2,0,0.4c-0.1,0.7-0.3,1.5-0.4,2.2
		c-0.7-0.2-1.4-0.4-2.2-0.6c-0.2-0.1-0.3-0.4-0.5-0.4c-0.3,0-0.7,0-1,0.1c0.1,0.4,0.1,0.9,0.3,1.1c0.9,1,2,1.7,2.8,2.8
		c0.7,0.9,1.2,2.1,1.6,3.3c0.2,0.6,0,1.1-0.5,1.2c-0.1,0-0.1,0-0.2,0c-2.2-0.1-3,0.7-2.8-3c0-0.3-0.1-0.7-0.2-1
		c-0.1-0.2-0.4-0.5-0.6-0.5c-0.2,0-0.4,0.3-0.5,0.6c-0.1,0.2-0.1,0.5-0.1,0.8c-0.2,1.3-0.4,1.4-1.5,1c-0.6-0.2-1.3-0.2-1.9,0.1
		c-0.9,0.5-0.9,1.9,0,2.6c0.2,0.2,0.5,0.3,0.8,0.5c0.6,0.5,0.7,1,0.2,1.6c-0.1,0.1-0.3,0.2-0.4,0.4c-0.1,0.4-0.2,0.9-0.3,1.4
		c0.3,0.1,0.7,0.2,1,0.2c0.5,0,0.8-1.3,1.5-0.6c0.4,0.4,0.6,1.1,0.8,1.7c0.5,1,0.3,1.2-0.6,1.3c-1.9,0.2-3.5-0.6-5-2.1
		c0-0.1-0.1-0.1-0.1-0.1c-0.4-0.1-0.8-0.1-1.2-0.2c0,0.7-0.2,1.3,0.5,1.8c1.2,0.8,1.3,1.6,0.2,2.5c-0.9,0.7-0.8,1.5-0.6,2.7
		c1-0.6,1.9-1.1,2.7-1.7c0.9-0.6,1.7-0.8,2.7-0.6c2.4,0.3,4.1,1.9,5.8,3.8c0.5,0.5,0.4,1-0.2,1.4c-2.5,1.8-5.2,2.3-7.9,1.5
		c-0.8-0.2-1.5-0.9-2.3-1.4c-0.3-0.2-0.4-0.5-0.8-0.9c-0.1,1-0.2,1.6,0.4,2.3c0.8,1,0.7,1.5,0,2.4c-0.2,0.3-0.3,0.8-0.4,1.2
		c0.4,0,0.8,0.2,1.1,0c1.2-0.9,2.5-1,3.7-1c1.2-0.1,1.5,0.5,1,1.9c-0.1,0.3-0.2,0.7-0.4,1c-0.6,1.1-1.1,1.1-1.6,0
		c-0.1-0.3-0.4-0.5-0.7-0.7c-0.2,0.3-0.4,0.6-0.5,1c-0.1,0.3,0,0.6,0,0.9c0.2,1.5-0.1,1.9-1.3,1.9c-1.4,0-1.4,0-1.4,1.4
		c0.1,1.2,0.7,1.8,1.7,1.7c0.5-0.1,1.2-0.2,1.6,0.1c0.5,0.3,0.8,1,1.2,1.5c0.2,0.3,0.3,0.8,0.4,1.2c0.5,1,0.3,1.9-0.6,2
		c-1,0.2-2.1,0.2-3.1,0.1c-0.3,0-0.6-0.5-1.2-1c0,0.6-0.1,1.2,0,1.5c0.5,0.8,0.3,1.5,0,2.4c-0.2,0.6,0,1.3,0,2.3
		c0.7-0.7,1.1-1.2,1.7-1.6c0.6-0.5,1.2-1,1.9-1.2c1.1-0.5,2.3-0.9,3.5-1.1c0.5-0.1,1,0.3,1.5,0.5c0.6,0.3,1.2,0.6,1.8,0.9
		c1,0.4,1.2,1.2,0.4,2.2c-0.9,1-1.8,1.9-2.7,2.8c-0.3,0.3-0.6,0.5-0.9,0.5C116.3,196.8,114,196.8,111.3,196.9z M241.8,153.3
		c2-0.1,3.6,1.6,5.4,2.1c0.1,0,0.1,0.1,0.1,0.2c1.6,2.1,3.3,4.1,4.7,6.3c0.8,1.4,1.1,3.2,0.3,4.9c-0.4,0.9-0.2,1.7,0.2,2.4
		c0.4,0.7,0.5,1.4,0.3,2.2c-0.1,0.4-0.2,0.8-0.2,1.3c0,0.6-0.1,1.3,0.1,1.9c0.4,1.2,1.6,1.2,2.5,0c0.7-1.1,1.4-2,2.6-2.4
		c0.3-0.1,0.6-0.7,0.9-0.9c0.6-0.5,1.1-1.1,1.8-1.3c2.2-0.6,4.4-1.6,6.6-0.3c0,0,0.1,0,0.1,0c0.8,0.2,1.7,0.1,2.3,0.6
		c2.6,2.1,5.1,4.3,7.6,6.5c0.5,0.4,0.8,1.2,1,1.9c0.5,2,0.8,4.1,1.2,6.2c0.6,2.7,1.2,5.5,1.8,8.2c0.1,0.5,0.1,0.9,0.2,1.4
		c0.3,2.6-1,4.7-1.5,7c-0.4,2-1.2,3.9-1.8,5.8c-0.5,1.5-0.9,3.1-1.3,4.7c-0.4,1.3-0.8,2.6-1.2,3.9c-0.5,1.6-1.1,3.2-1.6,4.8
		c-0.5,1.8-1,3.6-1.6,5.3c-0.5,1.7-1.1,3.4-1.6,5.1c-0.4,1.4-0.7,2.8-1.2,4.2c-0.5,1.5-0.8,3.2-1.6,4.3c-2.2,3.3-4.6,6.4-6.9,9.6
		c-4.7,6.6-9.4,13.2-14,19.8c-0.8,1.1-1.4,1-2-0.2c-1.4-3.1-2.9-6.3-4.3-9.5c-1.3-2.9-2.7-5.8-4-8.7c-1.2-2.7-2.5-5.4-3.8-8.1
		c-1.6-3.5-3.2-6.9-4.8-10.4c-0.8-1.8-1.7-3.6-2.6-5.4c-0.9-2.1-1.8-4.2-2.7-6.4c-0.5-1.2-1.3-2.4-1.3-3.6
		c-0.1-4.9,0.1-9.9,0.2-14.8c0.1-4.6,0.4-9.2,0.5-13.8c0.1-5.6,0.2-11.2,0.3-16.7c0-0.6,0.2-1.2,0.5-1.7c2.8-4.3,5.6-8.5,8.4-12.7
		c0.7-1,1.4-1.7,2.6-1.7c0.8,0,1.7-0.3,2.5-0.5C238.4,154.2,240.1,153.7,241.8,153.3z M173.6,144.7c-0.3,0.1-0.6,0-0.8,0.2
		c-0.3,0.2-0.4,0.5-0.7,0.7c0.2,0.2,0.3,0.5,0.6,0.7c0.3,0.3,0.7,0.6,1.1,0.7c0.5,0.2,1.1,0.6,1.4,0.4c1.4-1.1,2.3,0,3.2,1
		c0.4,0.4,0.5,0.9-0.1,1.4c-1.4,1.1-2.9,1.7-4.6,1.6c-0.6,0-1.2,0.1-1.8,0.3c-0.2,0.1-0.5,0.5-0.5,0.6c0.1,0.3,0.3,0.6,0.5,0.7
		c0.5,0.2,1,0.3,1.6,0.4c0.9,0.1,0.8,0.6,0.5,1.3c-0.3,0.7-0.8,1.3-1,2c-0.1,0.4,0,1,0.1,1.5c0.3-0.1,0.7-0.1,1-0.4
		c0.4-0.4,0.8-1,1.1-1.6c0.8-1.6,1.6-3,3-3.7c1-0.5,2.1-1,3.1-1.1c1-0.1,2.1,0.4,3.1,0.7c0.8,0.2,1,0.8,0.5,1.6
		c-1.1,1.7-1.8,4.1-3.9,4.5c0,0-0.1,0-0.1,0.1c-1.8,1-3.6,2.2-5.7,1.2c-0.1-0.1-0.3-0.2-0.4-0.1c-0.4,0.2-0.7,0.5-1.1,0.8
		c0.3,0.3,0.6,0.6,1,0.8c0.2,0.1,0.4,0,0.7,0c0.4,0.2,1.2,0.3,1.2,0.6c0.2,0.6,0,1.4-0.1,2.1c0,0.2-0.2,0.4-0.4,0.7
		c-0.3,0.6-0.4,1.4,0.2,1.8c0.6,0.4,1-0.1,1.3-0.8c0.5-1.1,1-2.3,1.7-3.1c0.7-0.9,1.7-1.4,2.7-2c0.8-0.4,1.3,0.3,1.1,1.2
		c-0.7,2.5-0.5,5.6-2.4,7.5c0,0-0.1,0.1,0,0.1c0.1,0.4,0.1,0.9,0.2,1.3c0.3-0.1,0.7,0,0.9-0.2c0.5-0.5,0.8-1.2,1.3-1.8
		c0.6-0.9,1.4-0.7,1.7,0.3c0.1,0.2,0,0.6,0.2,0.7c0.5,0.4,1,0.7,1.4,1.1c0-0.5,0.2-1.2,0-1.6c-0.3-0.8-0.9-1.4-1.1-2.1
		c-0.7-2.7-0.6-5.6,0.3-8c1.3-3.1,2.8-6.3,6.1-6.9c0.3-0.1,0.5-0.3,0.8-0.5c0.8-0.7,1.6-0.5,2.4-0.2c2.1,0.8,4.2,1.4,6.3,2.1
		c0.2,0.1,0.3,0,0.5,0.1c0.5,0.2,1.2,0.3,1.5,0.8c0.9,1.1,1.7,2.2,2.5,3.5c1.9,3.2,3.7,6.4,5.6,9.6c1,1.7,1.5,3.4,1.3,5.5
		c-0.1,0.6-0.2,1.2-0.2,1.9c-0.1,8.3-0.2,16.6-0.3,24.8c0,2.8-0.2,5.6-0.3,8.4c-0.1,1.3-0.4,1.6-1.3,1c-3.1-2.1-6.1-4.3-9.1-6.5
		c-2-1.4-3.9-2.9-5.8-4.4c-1.2-0.9-2.5-1.6-3.8-2.5c-2.8-2-5.6-4-8.4-6c-1.4-1-2.9-1.9-4.3-2.9c-1.6-1.2-3.2-2.4-4.8-3.6
		c-1-0.7-2-1.4-3.1-2.1c-1.7-1.2-3.4-2.3-5.1-3.5c-0.9-0.6-1.9-1.1-2.2-2.6c-0.3-1.9-0.6-3.7-1-5.5c-0.3-1.5-0.6-3-0.9-4.6
		c-0.3-1.6-0.5-3.2-0.8-4.8c-0.3-1.6-0.6-3.2,0.3-4.6c0.2-0.4,0.3-0.9,0.5-1.3c0.8-2.1,1.6-4.1,2.4-6.1c0.6-1.6,1.9-2.2,3-3.1
		C169.3,143.1,171.4,143.4,173.6,144.7z M328.1,215.6c-0.4-1.6-0.9-2.3-1.9-2.5c-1-0.2-2-0.5-2.8-1.5c-1-1.3-2.3-2.5-2.6-4.4
		c-0.2-1.3-0.2-2.6-0.3-3.9c-0.1-1.3,0.4-1.7,1.4-1.1c0.6,0.3,1.1,0.8,1.7,1c1.2,0.4,2.1,1.3,2.7,2.6c1,2.1,2.2,4.1,2.4,6.7
		c0,0.3,0.4,0.5,0.6,0.7c0.1-0.3,0.3-0.5,0.4-0.8c0.1-0.2,0-0.5,0-0.8c0-2.1,0-2.1,1.7-1.9c0.1,0,0.3,0.1,0.4,0
		c0.4-0.3,1.2-0.5,1.2-0.9c0.2-0.9-0.6-0.9-1.1-1.1c-0.1,0-0.1,0-0.2,0c-1.8,0.2-2.7-1.5-3.7-2.9c-0.8-1.1-0.6-1.4,0.4-1.9
		c0.4-0.2,0.8-0.5,1.2-0.7c0.8-0.4,1.4,0,1.7,1c0.1,0.3,0.1,0.6,0.2,0.8c0.2,0.4,0.4,0.7,0.6,1c0.2-0.3,0.5-0.5,0.7-0.8
		c0.6-1.1,1.5-1.1,1.9,0.1c0.2,0.6,0.3,1.4,0.2,2.1c-0.1,2.5-0.4,5-0.4,7.4c0,1.9-0.4,3.4-1.5,4.8c-2.5,3.2-4.9,6.7-7.4,10
		c-0.5,0.7-1.1,1.6-1.8,1.8c-1.6,0.6-3.2,0.9-4.8,1.2c-1.2,0.2-2.3,0.1-3.5,0.3c-2.2,0.3-4.4,1.3-6.7,1.1c-0.6-0.1-1.2,0.1-1.8,0.2
		c-2.2,0.3-4.3,1.4-6.6,1.1c-0.6-0.1-1.3,0.1-2,0.2c-2.2,0.4-4.4,1.3-6.7,1.1c-0.6-0.1-1.3,0.1-1.9,0.2c-2.3,0.4-4.5,1.4-6.8,1.1
		c-0.6-0.1-1.1,0.2-1.7,0.2c-0.4,0-0.9,0-1.1-0.3c-0.2-0.2,0-0.9,0.1-1.3c0.5-1.8,1.1-3.6,1.6-5.4c0.5-1.8,1-3.6,1.5-5.3
		c0.5-1.6,1.1-3.2,1.6-4.8c0.9-2.9,1.7-5.8,2.5-8.6c0.7-2.3,1.3-4.6,2-6.8c0.4-1.2,0.9-2.7,1.7-3.4c1.3-1.2,2.8-2,4.2-2.9
		c2.6-1.7,5.3-3.3,7.9-5c0.9-0.6,1.7-0.6,2.6-0.1c0.6,0.4,1.3,0.6,2,0.9c0.9,0.3,1.8,0.5,2.7,0.8c0.5,0.2,1,0.5,1.5,0.5
		c1.2,0,1.9,0.8,2.7,1.8c1.3,1.8,2.8,3.6,2.4,6.4c0,0.3,0.1,0.5,0.1,0.8c0.1,1.4,0.3,2.8,0.2,4.2c-0.3,2.5-1.3,4.7-2.8,6.4
		c-0.7,0.8-1.4,1.5-2,2.3c-0.2,0.3-0.4,1.1-0.3,1.3c0.3,0.7,0.8,0.4,1.2,0c0.5-0.5,0.9-0.9,1.5-1.3c0.9-0.6,1.3-0.3,1.5,0.9
		c0,0.2,0,0.4,0.1,0.6c0.1,0.3,0.3,0.5,0.5,0.8c0.2-0.3,0.5-0.5,0.6-0.8c0.1-0.8,0-1.7,0-2.5c0-1.6,0.1-3.2,0.9-4.6
		c0.6-1.1,1-1.1,1.7-0.1c0.6,1,1.2,2,1.8,3c0.5,0.9,1,1.3,2,0.8c0.6-0.3,1.4-0.1,2.1,0C327.1,215.3,327.5,215.4,328.1,215.6z
		 M346.1,244.8c-1.2-0.1-2.4,0.1-3.3-0.4c-2.1-1.2-4-2.8-6-4.2c-1.6-1.1-3.1-2.3-4.6-3.4c-0.9-0.6-1-1.1-0.3-2
		c2.8-3.7,5.6-7.5,8.4-11.1c0.9-1.2,2.1-1.7,3.4-1.8c0.8-0.1,1.5-0.1,2.2-0.4c1.5-0.6,3-1.2,4.6-0.9c0.7,0.1,1.4,0.4,2,1
		c1.1,1.1,2.2,2.4,3.2,3.6c1.5,1.9,2.6,4,2.6,6.8c0,1.7-0.5,3.2-1.1,4.7c-1,2.8-2.7,4.8-4.6,6.7c-0.3,0.3-0.8,0.6-1.2,0.7
		C349.6,244.3,347.8,244.6,346.1,244.8z M148.8,176.5c-1.8,0-3.6,0.1-5.4,0c-0.7-0.1-1.6-0.3-2.2-0.9c-2.2-2-4.3-4.1-6.4-6.2
		c-1.1-1.1-1.7-2.6-1.5-4.5c0.1-0.8,0.1-1.6-0.1-2.4c-0.7-2.6,0-4.8,1.4-6.6c1.1-1.5,2.6-2.6,3.9-3.8c1-1,2.1-1.7,3.4-1.5
		c1.1,0.2,2.1,0.2,3.2,0.5c0.4,0.1,0.8,0.4,1.1,0.8c1.9,2,3.8,4.1,5.6,6.1c0.5,0.5,1.1,1.2,1.2,1.9c0.5,1.9,0.8,4,1.1,6
		c0.5,3.1,0.9,6.1,1.3,9.2c0.2,1.2,0,1.5-1,1.5C152.6,176.5,150.7,176.5,148.8,176.5z M211.8,132.9c0.9,0.4,1.4,0.3,1.9-0.4
		c0.8-1.1,1.7-2.2,2.7-3.1c0.4-0.4,1.2-0.5,1.8-0.4c1.3,0.3,2.5,1,3.5,2.2c0.8,1,1.7,1.9,2.5,2.8c0.2,0.2,0.6,0,1,0
		c-0.1-0.4-0.1-0.8-0.3-1.1c-0.4-0.5-0.9-0.8-1.2-1.3c-0.2-0.3-0.1-0.8-0.1-1.2c0.3,0,0.7-0.2,0.8,0c0.4,0.5,0.8,1,1.2,1.6
		c0.4,0.8,0.7,1.7,1,2.5c0.5,1.1,1,2.1,0.9,3.4c-0.2,3.3-0.4,6.6-0.6,9.9c0,0.6-0.3,1.2-0.6,1.7c-2.3,3.6-4.6,7.2-7,10.7
		c-1.4,2.1-1.7,2.1-3-0.1c-2.1-3.6-4.2-7.2-6.4-10.7c-0.7-1.2-1.1-2.5-1-4.1c0.1-1.9-0.1-3.9-0.1-5.8c0-1.2-0.1-2.4,0.2-3.4
		c0.6-1.9,1.6-3.7,2.4-5.5c0.1-0.2,0.4-0.5,0.6-0.5c0.3-0.1,0.7,0,1,0.1c-0.1,0.4,0,0.9-0.2,1.3C212.5,132,212.2,132.4,211.8,132.9z
		 M306.1,169.9c0.2,2.5-0.1,4.5-1.1,6.4c-1,1.7-1.7,3.6-2.4,5.5c-0.9,2.1-2.5,2.9-4,3.9c-2.8,1.8-5.6,3.5-8.4,5.2
		c-0.5,0.3-1.1,0.6-1.4-0.3c-0.4-1.5-0.8-3-1.1-4.5c-0.6-3-1.1-6.1-1.8-9.1c-0.4-1.8-0.6-3.4,0.1-5.2c0.6-1.7,1.3-3.5,1.6-5.3
		c0.6-3.7,2.8-4.9,5.1-6.2c0.2-0.1,0.5,0.1,0.8,0.1c0,0.3-0.1,0.6-0.1,0.9c0,0.3,0,0.8,0.1,0.9c0.2,0.2,0.6,0.2,0.9,0.1
		c0.9-0.4,1.8-1,2.8-1.2c0.7-0.1,1.7,0,2.2,0.6c2,2.1,3.8,4.5,4.7,7.6c0.2,0.5,0.3,1.2,1,0.8c0.6-0.4,0.7-1.1,0.3-1.8
		c-0.2-0.4-0.6-0.6-0.6-1c-0.1-0.5-0.1-1.3,0.1-1.5c0.5-0.4,0.9,0,1.1,0.7c0.1,0.4,0.2,0.8,0.2,1.3
		C306.1,168.7,306.1,169.4,306.1,169.9z M125.9,172.7c1.7,0.4,3.2,0.7,4.7,1c0.2,0,0.4,0.2,0.6,0.3c2.1,2,4.2,4,6.2,6.1
		c0.8,0.9,0.8,1.2,0,2c-1.8,1.7-3.5,3.3-5.3,5c-1,0.9-1.9,1.8-3.2,1.7c-0.7,0-1.3,0.4-2,0.5c-0.7,0.1-1.4,0.1-2-0.1
		c-1.4-0.6-2.7-1.3-4-2c-1.9-1.1-3.2-3-3-5.5c0.2-2.9,1.6-5.1,3.6-6.6c0.6-0.4,1.2-0.8,1.8-1.1C124,173.6,125,173.1,125.9,172.7z
		 M203.7,141.2C203.7,141.2,203.7,141.2,203.7,141.2c0.1,1.6,0.1,3.2,0,4.8c0,0.8-0.1,1.6-1,1.4c-2.2-0.5-4.4-1.1-6.6-1.8
		c-2.4-0.7-3.7-3.1-5.3-5.1c-0.2-0.3-0.2-0.9-0.3-1.3c-0.3-1.5-0.5-3.1-0.8-4.6c-0.3-1.3-0.4-2.6,0.1-3.9c0.3-0.8,0.5-1.6,0.6-2.5
		c0.3-1.4,0.8-2,1.9-2.2c1.8-0.3,3.6-0.1,5.1,1.3c0.6,0.5,1.3,0.8,1.9,1.4c0.7,0.6,1.5,1.2,2,2.1c0.7,1,1.2,2.3,1.7,3.4
		c0.3,0.8,0.6,1.6,0.6,2.4C203.7,138.1,203.7,139.6,203.7,141.2z M160.6,139.7c0.1,0,0.2,0.1,0.3,0.1c-0.3,1.4-0.5,3-1,4.3
		c-1.1,2.9-2.3,5.7-3.4,8.5c-0.5,1.2-0.7,1.3-1.5,0.4c-1.7-1.9-3.5-3.7-5.1-5.7c-0.9-1.1-1.7-2.4-2.1-3.8c-0.6-2.1-1.2-4.3-0.2-6.5
		c0.1-0.2,0-0.5,0.1-0.8c0.2-1.6,0.2-3.3,1-4.7c0.8-1.5,2.6-2.9,3.8-2.6c2.1,0.6,3.9,1.8,5.3,3.9c0.4,0.7,0.9,1.4,1.4,1.9
		c1.1,1.1,1.7,2.4,1.5,4.2C160.6,139.2,160.6,139.5,160.6,139.7z M340,214.1c0-0.1,0-0.3,0-0.6c0.2-2.7,0.6-5.5,0.7-8.2
		c0-2.4,1-4.2,1.9-6.1c0.5-0.9,1.2-1.3,2.1-1.4c0.7-0.1,1.3-0.5,2-0.8c0.5-0.2,1-0.5,1.4-0.5c1.2-0.1,2.4,0,3.6,0
		c1.9,0,3.4,1.8,3.4,4.3c0,2.3,0,4.5-0.8,6.7c-0.5,1.3-0.6,2.8-1.7,3.7c-1,0.8-1.8,2-2.9,2.6c-1.4,0.7-2.9,1-4.4,1.4
		c-1.2,0.3-2.4,0.4-3.6,0.7C340.4,216.2,340,216,340,214.1z M361.5,261.8c0,0.8-0.1,1.5,0,2.3c0.2,1.7-0.8,3.1-2.1,3.3
		c-2.4,0.4-4.8,0.2-7.1-0.5c-0.5-0.1-1-0.6-1.4-1c-0.5-0.4-0.9-0.9-1.4-1.2c-2-1.2-2.5-3.6-3.1-5.9c-0.5-1.9-1-3.8-1.6-5.6
		c-0.4-1.3-0.4-1.7,0.7-1.9c0.3-0.1,0.6,0,0.8-0.1c1.7-0.3,3.5-0.3,5.1-0.9c2.5-0.8,4.8,0.1,6.4,2
		C360,254.7,362.3,257.5,361.5,261.8z M318.4,172.6c3,0,3,0,4.6,1.2c0.6,0.5,1.3,1,1.9,1.5c1,0.8,1.5,1.8,1.1,3
		c-0.4,1.3-1,2.5-1.5,3.6c-0.4,0.9-1,1.6-1.4,2.5c-0.4,0.8-0.8,1.5-1.7,1.4c-0.7,0-1,0.5-1,1.3c0,0.9-0.4,1.3-1.1,1.3
		c-0.3,0-0.6,0.1-0.9,0.2c-1.2,0.1-2.4,0.5-3.5,0.3c-1.6-0.3-3.1-1-4.6-1.5c-0.6-0.2-1.2-0.3-1.9-0.4c-1.4-0.1-2-1.2-1.3-2.8
		c0.7-1.6,1.3-3.2,2-4.8c0.5-1.1,0.9-2.3,1.7-3C313.1,174.4,315.4,172,318.4,172.6z M232.2,144.1c0,0-0.1,0-0.1,0
		c0.1-1.9,0.3-3.8,0.4-5.7c0.2-2.9,1.7-4.9,3.1-7c0.1-0.1,0.2-0.2,0.3-0.2c1.1-0.5,2.1-1,3.2-1.5c0.7-0.3,1.4-0.4,2.1-0.7
		c1.3-0.7,3-0.3,3.8,1.1c1.3,2.2,2,4.6,1.2,7.3c-0.1,0.3-0.2,0.7-0.2,1c0,2.4-0.9,4.2-2.2,5.7c-1.2,1.5-2.3,3.4-4.3,3
		c-0.2,0-0.4,0.1-0.5,0.2c-1.8,0.4-3.6,1.3-5.5,1.1c-1.2-0.1-1.3,0-1.3-1.5C232.2,146,232.2,145,232.2,144.1z M271.6,158.8
		c-0.1,0-0.2,0-0.3-0.1c0.3-1.3,0.7-2.7,1-4c0.1-0.3,0.2-0.7,0.3-1c0.6-3.9,4.2-5.8,6.9-3.7c0.8,0.7,1.6,1.4,2.4,2
		c2.5,2,2.6,5,2,7.7c-0.7,3.4-1.8,6.7-2.8,10c-0.3,1.2-0.9,1.4-1.7,0.8c-1.5-1.2-3-2.4-4.5-3.7c-0.7-0.6-1.6-1.2-1.9-2
		C272.3,163,271.3,161.1,271.6,158.8z M295.6,146.9c0,1.6-0.7,2.8-1.3,4.1c-1.2,2.8-2.6,5.2-5.1,6.6c-1.3,0.8-1.7,0.6-1.7-1.3
		c0-2.3,0-4.6,0-6.9c-0.1-4.5,1.8-7.5,4.4-10.1c0.5-0.6,1-0.3,1.3,0.4c0.6,1.4,1.1,2.7,1.6,4.1C295.2,144.8,295.4,145.9,295.6,146.9
		z M360.4,219.4c-3.1,0-4-0.3-6.4-1.9c-0.8-0.6-0.8-1-0.2-1.9c2-3.3,5.2-2.8,7.8-3.9c0.1,0,0.2,0,0.3,0c1.6,1.1,3.2,2.1,4.7,3.3
		c0.6,0.5,0.4,1.3-0.2,1.8c-0.6,0.5-1.3,0.8-1.8,1.4c-1,1.1-2.1,1.4-3.3,1.2C360.9,219.3,360.6,219.4,360.4,219.4z M163.8,138.3
		c-0.5-1.7,0.6-3.3,1-5.1c0.7-2.8,1.9-5,4-6.2c1.2-0.7,2-0.6,2.4,1.1c0.5,2,0.6,4.2-0.3,6.1c-0.6,1.3-1.4,2.6-2,3.9
		c-0.9,1.9-2.5,2.7-4,3.5c-0.6,0.4-1.1,0.1-1.1-0.9C163.8,140,163.8,139.3,163.8,138.3z M204.3,124.5
		C204.3,124.5,204.3,124.5,204.3,124.5c0-0.3,0-0.6,0-0.8c-0.4-3.4,1.2-5.7,2.8-8c0.4-0.6,1-1,1.5-0.2c0.5,0.8,0.9,1.8,1.3,2.7
		c1.1,2.5,0.1,5-0.4,7.3c-0.4,2-1.6,3.8-2.5,5.7c-0.3,0.7-0.9,0.7-1.2,0c-0.8-1.7-1.8-3.3-1.5-5.5
		C204.4,125.4,204.3,125,204.3,124.5z M315.1,155.7c0.3,0.4,0.7,0.8,0.8,1.3c0.3,0.9,0.6,1.9,0.7,2.9c0.1,1-0.1,2-0.3,3
		c-0.2,0.8-0.6,1.5-0.8,2.2c-0.4,1-0.8,2-1.2,3c-0.7,1.6-2.2,1.9-3.3,2.9c-0.4,0.4-0.9,0-1-0.7c-0.1-1.5-0.4-3.1-0.2-4.6
		c0.2-2,0.8-3.9,1.3-5.9c0.5-1.9,1.8-2.9,3.1-3.8C314.4,155.9,314.6,155.9,315.1,155.7z M133.6,137c0.4-0.4,0.7-1.1,1.1-1.1
		c1.9,0,3.9-0.4,5.4,1.5c0.5,0.6,1,1.1,1.5,1.6c1.7,1.6,2.6,3.7,3,6.2c0.1,0.8-0.1,1.3-0.6,1.2c-1.5-0.3-3.1-0.3-4.4-1.2
		c-2.1-1.5-4.5-2.9-5.4-6.2c0-0.1-0.2-0.2-0.2-0.4C134,138.2,133.8,137.8,133.6,137z M233.2,123.5c0.4,3.5-1.2,6.1-2.5,8.8
		c-0.1,0.3-0.8,0.5-0.9,0.4c-0.7-1.4-1.6-2.7-2-4.3c-0.4-1.5-0.3-3.1-0.3-4.7c0-0.6-0.1-1.3,0.1-1.9c0.7-1.8,1.5-3.5,2.4-5.2
		c0.4-0.8,0.9-0.3,1.2,0.3c0.3,0.5,0.5,1.1,0.8,1.6C232.7,120.2,233.7,121.6,233.2,123.5z M351.2,277.1c-0.2,1.3-0.2,2.3-0.4,3.1
		c-0.2,0.9-0.6,1.9-1,2.7c-0.2,0.3-0.9,0.4-1.1,0.2c-1.9-1.9-3.2-4.2-3.3-7.3c0-0.7-0.2-1.4-0.2-2.1c0.1-1.9,0.2-3.8,0.4-5.6
		c0-0.5,0.4-1.2,0.9-0.7c1,1,2.1,2,2.9,3.2c0.4,0.6,0.5,1.6,0.8,2.4C350.5,274.4,350.9,276,351.2,277.1z M335.4,194.8
		c0-2.2,0-2.2,1.3-1.7c0.4,0.1,0.9-0.1,1.4-0.2c0.1,0,0.2-0.6,0.2-0.6c-0.4-0.2-0.7-0.6-1.1-0.6c-0.9-0.1-1.2-1-1.5-1.7
		c-0.1-0.4,0.3-1.1,0.4-1.6c0.2-0.8,0.5-1.6,0.7-2.4c0.1-0.4,0-1,0.1-1.3c0.3-0.5,0.8-1,1.3-1.3c0.1-0.1,0.6,0.2,0.8,0.5
		c0.7,1.4,1.4,2.7,1.9,4.2c0.2,0.7,0.3,1.5,0.2,2.3c-0.1,1.5-0.3,3-0.7,4.4c-0.4,1.6-1,3-1.6,4.5c-0.3,0.6-0.9,1.3-1.4,0.4
		C336.3,198.2,335.2,196.7,335.4,194.8z M249.2,151.6c0-0.1,0-0.1,0-0.2c-0.1,0-0.2,0-0.3,0c-1.2-0.6-2.5-1.1-3.7-1.8
		c-0.1-0.1-0.2-0.8-0.1-1c0.9-1,1.7-2.3,2.7-2.9c2.9-1.7,6-2.4,9.2-1.5c0.7,0.2,1,1,0.6,1.6c-0.3,0.4-1,0.9-1.4,0.8
		c-0.9-0.2-1.1,0.3-1.1,1.2c0.1,1.2-0.3,1.8-1.3,2.1c-0.4,0.1-0.8,0.4-1.1,0.5C251.6,150.8,250.4,151.2,249.2,151.6z M122.2,158.9
		c0.9-0.2,1.9,0.2,2.7,1.2c0.7,0.9,1.5,2,2.4,2.5c1.9,1,2.3,3.1,2.7,5.2c0,0.2-0.3,0.8-0.4,0.8c-1.4-0.1-2.7-0.3-4.1-0.5
		c-1.8-2.3-4.2-3.7-5.3-7c-0.5-1.5-0.3-2.3,1-2.3C121.5,158.9,121.7,158.9,122.2,158.9z M363.4,241.7c0.7,0.1,1.6,0.1,2.4,0.4
		c0.7,0.2,1.3,0.8,1.9,1.2c0.8,0.5,0.9,1.1,0.3,1.8c-1.2,1.3-2.5,2.4-4.2,2.3c-0.5,0-1,0-1.5,0.3c-2,0.9-3.9,0.5-5.7-1
		c-0.7-0.6-0.7-1.2,0-1.9c0.6-0.6,1.3-1.3,1.9-1.9c0.4-0.4,0.9-0.7,1.3-0.8C361,241.9,362.1,241.8,363.4,241.7z M129.2,193.4
		c0.6,0,0.8,0.4,0.7,1.2c-0.3,2.2-1.1,4-2.6,5.3c-1.8,1.6-3.3,4.1-6,3.6c-0.1,0-0.1,0.1-0.2,0.1c-0.3,0-0.7-0.1-1-0.1
		c0-0.4,0-0.9,0.1-1.3c0.2-0.8,0.4-1.5,0.7-2.2c0.3-0.7,0.7-1.5,1.1-2.1c0.3-0.4,0.8-0.7,1.1-1.1
		C124.8,194.5,126.7,193.2,129.2,193.4z M359.4,281.3c-0.5-0.4-1.1-0.9-1.8-1.3c-1.9-1.3-3.7-2.9-4.3-5.7c-0.2-1-0.4-2-0.6-3
		c-0.2-0.9,0.2-1.3,0.9-1.2c2.1,0.5,4.1,1.3,5.2,3.9c0.5,1,1.4,1.8,1.7,2.9c0.3,1,0.4,2,1,2.9c0.4,0.5,0.1,0.9-0.3,1.1
		C360.7,281.1,360.1,281.2,359.4,281.3z M183.1,144.8C183.1,144.8,183.1,144.8,183.1,144.8c-0.7,0-1.5,0.1-2.2-0.1
		c-0.5-0.1-1.1-0.5-1.5-0.8c-0.1-0.1-0.2-0.9-0.1-1c0.6-0.5,1.2-1.3,1.9-1.3c1.3,0,2.6,0.4,3.9,0.6c0.4,0.1,0.8,0.5,1.2,0.6
		c2,0.1,3,1.9,4.2,3.6c0.6,0.9,0.4,1.5-0.5,1.8c-0.6,0.2-1.2,0.3-1.7,0.6c-1.9,1-3.6-0.1-5.3-0.6c-0.3-0.1-0.4-0.7-0.6-1
		c0.4-0.1,0.7-0.4,1.1-0.4c0.6-0.1,1.2,0,1.8-0.1c0.2-0.1,0.5-0.7,0.5-1c0-0.3-0.4-0.7-0.7-0.7C184.3,144.7,183.7,144.8,183.1,144.8
		z M264.3,156.1c0.2,0.1,0.3,0.1,0.4,0.2c2.2,1.9,3.9,4.2,4.3,7.7c0.1,0.8-0.1,1.2-0.7,1.1c-0.8-0.1-1.7-0.2-2.4-0.6
		c-0.9-0.6-1.7-1.5-2.5-2.3c-0.2-0.2-0.1-0.7-0.1-1c0.2-1.4,0.2-1.4-1-1.5c-1.5-0.2-2.7-1.8-2.6-3.6c0-0.8,0.4-1.1,0.9-0.7
		c0.9,0.7,1.7,1.5,2.5,2.3c0.4,0.4,0.8,1,1.4,0.4c0.6-0.7,0-1.1-0.3-1.6C264.4,156.5,264.4,156.4,264.3,156.1z M308.8,154.7
		c0.1,2.2-0.2,2.6-1.8,2.5c-1.6-0.1-2-1.2-1.2-3c0.2-0.3,0.4-0.7,0.4-1c0-0.3-0.2-0.7-0.3-1c-0.2,0.2-0.5,0.3-0.6,0.6
		c-0.5,0.9-1,1.8-1.6,2.6c-0.2,0.3-0.6,0.5-0.8,0.4c-0.2-0.1-0.4-0.6-0.4-0.9c-0.1-1,0-2-0.1-3c-0.2-1.8,0.3-2.5,1.7-2.7
		c1.1-0.1,1.8,0.9,2.7,1.5C308.3,151.6,308.9,153,308.8,154.7z M359.2,224.3c0-0.2,0.1-0.7,0.2-1c0.7-1.5,1.9-1.3,3.1-1.2
		c0.9,0.1,1.2,1,1.4,1.9c0.1,0.3,0.1,0.5,0.2,0.8c0.1,0.3,0.2,0.5,0.3,0.8c0.2-0.2,0.5-0.3,0.7-0.5c0.7-0.9,1.4-0.9,1.9,0
		c0.3,0.6,0.3,1.3-0.1,1.8c-0.5,0.7-1.1,0.6-1.7,0.3c-1.5-0.8-1.5-0.8-2.5,0.8c-0.5,0.8-1.2,0.9-1.8,0.4
		C359.9,227.4,359.2,226.2,359.2,224.3z M326.6,201c-1.7-1-3.4-1.8-5-2.9c-0.7-0.4-0.5-1.1,0.2-1.5c0.3-0.2,0.7-0.2,1-0.2
		c0.9-0.1,1.7-0.1,2.6-0.1c1.2,0,2.3,0,3.4,0.3c0.5,0.1,1,0.6,1.4,1.2c0.2,0.3,0.1,1.3-0.1,1.4C329,199.9,327.8,200.4,326.6,201z
		 M325.9,186.8c0-1,0.1-1.9,0.9-2.3c1.3-0.7,2.8-0.4,3.4,0.7c0.5,0.7,0.9,1.4,1.3,2.2c0.9,1.6,0.5,2.6-1.1,2.7
		c-0.3,0-0.6,0.1-0.9,0.2C327.5,190.9,325.9,189.4,325.9,186.8z M173,140.4c-1.5,0-1.9-0.4-1.5-1.2c0.6-1.2,1.2-2.3,1.9-3.4
		c0.2-0.3,0.7-0.7,1-0.6c1.4,0.3,2.8,0.7,4.2,1.2c0.8,0.3,0.8,1.3,0.2,2c-0.5,0.5-1.1,1-1.7,1.4c-0.4,0.2-0.8,0.3-1.2,0.3
		c-0.6,0.1-1.2,0-1.8,0.1C173.5,140.2,173.1,140.4,173,140.4z M256.5,154.1c0.9-0.3,1.4,0.3,1.5,1.5c0,0.7,0.1,1.3,0.1,2
		c0,0.4,0,1-0.1,1.2c-0.2,0.2-0.6,0-0.9-0.1c-0.9-0.1-1.8-0.6-2.6-0.4c-0.8,0.2-1.3,0-1.8-0.7c-0.3-0.4-0.6-0.7-0.8-1.2
		c-0.2-0.5-0.7-1.2-0.6-1.5c0.2-0.5,0.8-0.7,1.2-1c0.2-0.1,0.4-0.1,0.7-0.1C254.2,153.9,255.3,154,256.5,154.1z M213.9,126.5
		c-1,0-1.7-0.3-1.6-1.2c0.1-1.1,0.4-2.3,0.8-3.2c0.2-0.5,1-0.6,1.5-0.9c0.7-0.3,0.8-0.7,0.3-1.3c-0.5-0.5-0.7-1.1-0.2-1.7
		c0.3-0.4,0.8-0.6,1.2-0.8c0.2,0.6,0.4,1.2,0.5,1.8c0,0.4-0.1,0.8-0.2,1.1c-0.5,1.6-0.5,1.5,0.7,2.5c0.3,0.3,0.8,0.9,0.7,1.2
		c-0.1,0.5-0.4,1.3-0.8,1.5C215.8,125.9,214.7,126.2,213.9,126.5z M130.3,146.2c0.1-0.3,0.2-0.6,0.3-0.8c0.4-1,1.4-1.4,2.4-1.1
		c0.9,0.2,2,1.5,2.1,2.3c0,0.3,0,0.8-0.1,1c-0.6,1-1.1,2-1.8,2.9c-0.5,0.8-1.1,0.6-1.8,0C130.1,149.4,131,147.5,130.3,146.2z
		 M254.4,164.2c0.1-0.7,0.2-1.2,1-1.4c2.1-0.4,3.3,1.2,4.5,2.9c0.4,0.5,0.3,1.1-0.3,1.3c-0.8,0.4-1.6,0.8-2.4,1.2
		c-0.2,0.1-0.4,0.1-0.5,0C255.9,167.9,254.4,165.3,254.4,164.2z M299.2,157.9c-1.4-0.1-2.3-1.3-3.4-2.1c-0.2-0.1-0.3-0.8-0.2-1.2
		c0.3-0.7,0.6-1.5,1-2.1c0.7-1.1,1.3-1.1,2.1,0c0.5,0.7,1.1,1.3,1.4,2.1c0.3,0.7,0.4,1.6,0.3,2.4
		C300.4,157.5,299.6,157.7,299.2,157.9z M362.6,238.4c-1.4,0-2.1-0.4-2.2-1.7c-0.1-1,0.3-2.1,0.6-3.1c0.2-0.5,0.8-1.2,1.1-1.1
		c0.5,0.1,1,0.6,1.4,1.2c0.3,0.4,0.4,1.2,0.7,1.7c0.9,1.9,0.7,2.6-1.1,3C362.9,238.4,362.7,238.4,362.6,238.4z M130.7,155.5
		c-0.3,0.8-0.5,2.1-1,3.2c-0.2,0.4-1,0.7-1.2,0.5c-0.8-0.6-1.5-1.4-2.2-2.2c-0.1-0.1-0.1-0.8,0-0.9c1-0.9,1.9-1.8,2.9-2.5
		C130,153.2,130.7,154,130.7,155.5z M224.7,124.7c0,0.2,0,0.4,0,0.6c0,1.5-0.5,2-1.6,1.4c-0.6-0.3-1.2-0.7-1.8-1.2
		c-0.6-0.4-0.7-0.9-0.3-1.7c0.6-1.1,1.5-1.3,2.4-1.5c0.9-0.2,1.2,0.1,1.2,1.1C224.7,123.9,224.7,124.3,224.7,124.7z M323.6,194.5
		c-0.8-0.2-1.8-0.4-2.7-0.8c-0.3-0.1-0.6-0.7-0.8-1.1c0.3-0.3,0.7-0.8,1-0.8c0.9,0,1.9,0.1,2.8,0.3c0.6,0.1,1.2,0.4,1.6,0.8
		c0.6,0.5,0.4,1.2-0.2,1.4C324.8,194.5,324.3,194.4,323.6,194.5z M305.6,158.5C305.6,158.5,305.6,158.5,305.6,158.5
		c0.6,0.1,1.2,0.1,1.8,0.3c0.2,0.1,0.5,0.2,0.6,0.4c0.3,0.7,0.1,2.6-0.4,3.1c-0.2,0.2-0.6,0.3-0.8,0.2c-0.9-0.8-1.7-1.6-2.5-2.6
		c-0.5-0.6-0.2-1.3,0.4-1.5C305,158.5,305.3,158.5,305.6,158.5z M261.9,151.4c-1.1-0.6-2.1-1.2-3.1-1.8c-0.1-0.1-0.2-0.4-0.2-0.6
		c0-1.2,1.7-2.2,2.5-1.5c0.5,0.5,1.1,1,1.5,1.6c0.3,0.4,0.5,1,0.4,1.4C262.9,150.8,262.4,151,261.9,151.4z M366.6,231.9
		c-0.6-0.3-1.2-0.4-1.6-0.7c-0.2-0.1-0.4-0.6-0.4-0.9c0-0.2,0.4-0.4,0.6-0.6c0.7-0.4,1.3-0.9,2-1.1c0.6-0.1,1.5-0.1,1.9,0.4
		c0.5,0.7,0,1.5-0.6,1.9C367.8,231.3,367.2,231.6,366.6,231.9z M222.9,120.8c-1.4,0-1.6-0.2-1.6-1.6c0-0.8-0.1-1.8,0.8-1.9
		c0.9-0.1,1.7,1.2,1.8,2.4C224,120.9,223.4,120.8,222.9,120.8z M249.7,132.5c-0.2,0.2-0.4,0.7-0.8,1c-0.2,0.2-0.9,0-1-0.2
		c-0.3-1-0.6-2-0.8-3c0-0.2,0.2-0.6,0.4-0.6C248.4,129.4,249.8,130.9,249.7,132.5z M219.6,118.7c0,0.3,0.1,0.8,0,1.2
		c-0.1,0.3-0.4,0.9-0.5,0.9c-0.3,0-0.8-0.4-0.9-0.7c-0.2-1-0.3-2-0.2-3c0-0.4,0.6-0.7,0.9-1.1c0.3,0.4,0.6,0.7,0.8,1.2
		C219.8,117.5,219.7,118,219.6,118.7z M301.4,150.2c0,1-0.5,1.9-1,1.8c-0.7-0.1-1.1-0.7-1.1-1.6c0-1,0.4-1.5,1.1-1.5
		C301,148.8,301.4,149.3,301.4,150.2z M366.8,232.6c0.6,0.7,1.1,1.1,1.3,1.6c0.2,0.6-0.7,2-1.1,1.7c-0.5-0.3-1-1-1.2-1.7
		C365.6,234,366.2,233.3,366.8,232.6z M332.7,182.2c0.2-0.6,0.2-0.7,0.3-0.8c0.4-0.5,0.9-1,1.3-1.5c0.3,0.6,0.7,1.1,0.9,1.8
		c0.1,0.1-0.2,0.7-0.3,0.7C334.3,182.3,333.6,182.2,332.7,182.2z M318.5,193.9c1.2,0,2.1,0.7,1.9,1.5c-0.1,0.4-0.5,0.9-0.8,1
		c-0.6,0.2-1.6-1-1.5-1.8C318.1,194.3,318.4,194,318.5,193.9z M328.9,182.2c-0.6-0.8-1.2-1.3-1.4-1.9c-0.2-0.7,0.4-1.1,0.9-1.1
		c0.7,0,1.2,0.6,1.2,1.5C329.7,181.1,329.3,181.5,328.9,182.2z M332.5,185.3c0-1.3,0.5-1.6,1-1.4c0.4,0.1,0.7,0.6,1.1,1
		c-0.4,0.5-0.7,1-1.1,1.5C333.1,186,332.7,185.6,332.5,185.3z M331.4,192.2c0.4,0.3,0.9,0.4,1,0.8c0.1,0.5-0.1,1.2-0.1,1.8
		c-0.4-0.2-0.8-0.4-1.3-0.5c-0.1,0-0.1-0.1-0.2-0.1c-0.2-0.4-0.4-0.8-0.6-1.2C330.6,192.7,330.9,192.5,331.4,192.2z M253.5,170.8
		c0.6-0.4,1-0.8,1.3-0.8c0.3,0,0.5,0.6,0.8,0.9c-0.3,0.4-0.7,0.9-1.1,1.2C254.4,172.1,254,171.4,253.5,170.8z M176.5,135.2
		c-0.4-0.5-0.8-0.9-0.8-1c0.3-0.6,0.6-1.1,1-1.6c0-0.1,0.8,0.7,0.8,0.8C177.3,134,177,134.4,176.5,135.2z M261.1,142.8
		c0.5-0.3,0.8-0.7,0.9-0.6c0.3,0.2,0.6,0.6,0.9,0.9c-0.3,0.2-0.5,0.7-0.8,0.6C261.9,143.7,261.7,143.3,261.1,142.8z M127.9,145.6
		c0.3-0.3,0.6-0.6,0.8-0.6c0.2,0,0.4,0.4,0.6,0.7c-0.2,0.2-0.4,0.6-0.6,0.7C128.4,146.4,128.2,146,127.9,145.6z"/>
</g>
<path d="M176.2,374.9H46.1c0,0-16.5-89-6-96.9s128.2,7.3,130.2,0S176.2,374.9,176.2,374.9z"/>
<path fill="#EEB90A" d="M95.4,369.8c-1.6-1.4-1.8-3.3-1.8-5.3c0.1-8.7,0-17.4,0.1-26.1c0-3.7,0.5-7.3,2-10.7
	c1.2-2.8,2.7-5.4,5.5-7.1c2.8-1.7,5.7-1.5,8.2,0.6c4.1,3.4,6,8,6.6,13.1c0.3,2.5,0.3,5,0.3,7.5c0,7.9,0,15.8,0,23.7
	c0,1.7-0.5,3.2-1.8,4.2C108.1,369.8,101.8,369.8,95.4,369.8z"/>
<path fill="#191516" d="M120.5,212.8c0.1,0,0.3,0,0.4,0c-0.1,0.1-0.2,0.2-0.2,0.3C120.6,212.9,120.6,212.9,120.5,212.8z"/>
<path fill="#EEB90A" d="M66.2,306.6c0,3.4,0,6.8,0,10.1c0,2.5-0.3,2.8-2.7,2.8c-1.6,0-3.1-0.1-4.7,0c-1.1,0.1-1.7-0.4-1.8-1.5
	c-0.1-0.7-0.2-1.3-0.2-2c0-5.9,0.1-11.9,0.2-17.8c0-1.5,0-3.1,0.5-4.5c0.9-2.4,2.8-3.4,4.8-3.1c2.1,0.4,3.9,2.4,3.9,4.8
	C66.3,299.2,66.2,302.9,66.2,306.6C66.2,306.6,66.2,306.6,66.2,306.6z"/>
<path fill="#EEB90A" d="M133.1,306.7c0,3.3,0,6.7,0,10c0,2.4-0.4,2.8-2.8,2.8c-1.6,0-3.2,0-4.8,0c-1,0-1.5-0.4-1.6-1.3
	c-0.1-1.1-0.2-2.3-0.2-3.4c0-5.6,0.2-11.1,0-16.7c-0.1-1.7,0-3.2,0.7-4.6c0.8-1.7,2.1-2.8,4-2.8c2,0,3.3,1.1,4.1,2.9
	c0.4,0.9,0.6,2,0.7,3C133.2,300,133.2,303.3,133.1,306.7C133.1,306.7,133.1,306.7,133.1,306.7z"/>
<path fill="#EEB90A" d="M91.8,306.7c0,3.3,0,6.7,0,10c0,2.4-0.4,2.8-2.8,2.8c-1.6,0-3.2,0-4.8,0c-1,0-1.5-0.4-1.6-1.3
	c-0.1-1.1-0.2-2.3-0.2-3.4c0-5.6,0.2-11.1,0-16.7c-0.1-1.7,0-3.2,0.7-4.6c0.8-1.7,2.1-2.8,4-2.8c2,0,3.3,1.1,4.1,2.9
	c0.4,0.9,0.6,2,0.7,3C91.9,300,91.9,303.3,91.8,306.7C91.9,306.7,91.8,306.7,91.8,306.7z"/>
<path fill="#EEB90A" d="M150.4,319.6c-1.5,0-2.9,0-4.4,0c-1.3,0-1.9-0.6-1.9-1.9c0-4.1-0.1-8.1,0.1-12.1c0.1-2.3,1.4-4.1,3.6-5
	c2.4-1,4.7-0.7,7,0.7c2,1.3,2.3,3.2,2.2,5.4c-0.1,3.5-0.1,7-0.1,10.4c0,2.1-0.3,2.5-2.4,2.5C153.1,319.6,151.8,319.6,150.4,319.6
	C150.4,319.6,150.4,319.6,150.4,319.6z"/>
<path fill="#EEB90A" d="M136.4,344.5c0,2,0,4.1,0,6.1c0,1.3-0.6,1.9-1.9,1.9c-2.9,0-5.8,0-8.7,0c-1.5,0-2.1-0.6-2.1-2
	c0-2.9,0-5.8,0-8.7c0-0.6,0.1-1.2-0.1-1.7c-1-3.5,3-6.7,5.8-7c3.8-0.4,7.3,2.9,7,6.4C136.2,341,136.3,342.8,136.4,344.5
	C136.4,344.5,136.4,344.5,136.4,344.5z"/>
<path d="M14.6,287.1l185.2-9.1c0,0-112.2-103.9-111.9-84.6C88.2,212.8,14.6,287.1,14.6,287.1z"/>
<g>
	<g>
		<path fill="#BABF10" d="M48.2,377.3c-0.3-3.6-1.7-6.7-4.3-9.2c-1.1-1.1-2.8,0-2.5,1.5c0.7,3.5,2.2,6.6,4.6,9.3
			c0.6,0.6,1.5,0.5,2.1,0c1.9-1.5,1.9-3.8,1.9-6c-0.1-3.6-0.3-7.3-0.4-10.9c-0.1-1.6-2.7-2.1-2.9-0.4c-0.8,5-1.2,10-1.1,15
			c0,0.8,0.7,1.5,1.5,1.5c1.7,0.1,2.9-0.6,3.9-1.9c1.1-1.4,1.8-5.6,3.8-5.8c-0.1-1-0.3-2-0.4-2.9c-1,0.2-2,0.3-3,0.5
			c-1.9,0.3-1.1,3.2,0.8,2.9c1-0.2,2-0.3,3-0.5c1.7-0.3,1.3-3.1-0.4-2.9c-1.5,0.1-2.6,0.7-3.6,1.9c-1.2,1.4-1.9,6-4.2,5.8
			c0.5,0.5,1,1,1.5,1.5c-0.1-4.8,0.2-9.5,1-14.2c-1-0.1-2-0.3-2.9-0.4c0.1,2.5,0.2,5,0.3,7.4c0.1,2,0.9,5.9-0.8,7.4
			c0.7,0,1.4,0,2.1,0c-2.1-2.3-3.3-4.9-3.8-7.9c-0.8,0.5-1.7,1-2.5,1.5c2,2,3.1,4.3,3.4,7.1C45.3,379.3,48.3,379.3,48.2,377.3
			L48.2,377.3z"/>
	</g>
</g>
<g>
	<g>
		<path fill="#BABF10" d="M85.9,375.1c1.1-3.6-0.9-7.2-4.3-8.6c-1.3-0.5-2.2,1.2-1.7,2.2c1.3,2.8,2.7,5.6,4,8.4
			c0.4-0.8,0.9-1.5,1.3-2.3c-1.5,0.1-2.6-1.1-3.7-2.1c-1.1-0.9-2.2-1.7-3.7-2c-1.9-0.3-2.7,2.3-0.8,2.9c1.5,0.5,3.1,1,4.6,1.5
			c1.1,0.3,2.3,0.9,3.4,0.7c2.2-0.4,2.7-4,3.3-5.6c0.7-1.8-2.2-2.6-2.9-0.8c-0.3,0.8-0.6,1.6-0.9,2.4c-0.4,1.1-0.4,1-1.5,0.6
			c-1.8-0.6-3.5-1.2-5.3-1.7c-0.3,1-0.5,1.9-0.8,2.9c3.2,0.5,4.6,4.5,8.1,4.1c1.2-0.1,1.8-1.2,1.3-2.3c-1.3-2.8-2.7-5.6-4-8.4
			c-0.6,0.7-1.1,1.5-1.7,2.2c1.9,0.8,2.7,3,2.2,4.9C82.4,376.1,85.3,376.9,85.9,375.1L85.9,375.1z"/>
	</g>
</g>
<g>
	<g>
		<path fill="#BABF10" d="M176.1,377.3c-0.5-4.3,1.4-8.2,5.2-10.3c-0.5-0.9-1-1.7-1.5-2.6c-2.7,2-5.2,4.2-7.5,6.7
			c0.8,0.5,1.7,1,2.5,1.5c0.8-5.2-2.7-8.2-6.7-10.7c-1.5-1-2.9,1.1-1.8,2.4c1.7,2,3.5,4,5.2,5.9c1.3,1.5,2.6,3.7,4.3,4.7
			c1,0.6,1.7,0.5,2.8,0.1c2.5-1,4-2.2,6.9-1.9c-0.3-0.9-0.5-1.9-0.8-2.8c-2,1.4-4,2.6-6.2,3.6c-1.8,0.8-0.2,3.4,1.5,2.6
			c2.2-1,4.3-2.2,6.2-3.6c1.2-0.9,0.8-2.6-0.8-2.8c-1.6-0.2-3.1-0.1-4.7,0.3c-1,0.3-2.8,1.7-3.7,1.6c-1.1-0.2-3.2-3.6-3.9-4.5
			c-1.6-1.8-3.2-3.6-4.8-5.5c-0.6,0.8-1.2,1.6-1.8,2.4c2.6,1.6,5.9,3.7,5.3,7.3c-0.2,1.3,1.4,2.7,2.5,1.5c2.1-2.3,4.4-4.4,6.9-6.2
			c1.5-1.1,0.2-3.6-1.5-2.6c-4.6,2.6-7.3,7.6-6.7,12.9C173.3,379.2,176.3,379.3,176.1,377.3L176.1,377.3z"/>
	</g>
</g>
<g>
	<g>
		<path fill="#BABF10" d="M20.2,384.5c1.2-3.3-0.6-6.5-3.8-7.6c-0.9-0.3-1.9,0.5-1.9,1.4c0.2,3.5,1,6.7,2.5,9.9
			c0.6-0.7,1.1-1.5,1.7-2.2c-1.6-0.2-3.1-0.6-4.5-1.2c0,0.9,0,1.7,0,2.6c4.9-3.2,12.7,0,15.8-6.3c0.8-1.7-1.7-3.2-2.6-1.5
			c-1.4,2.9-4.9,3-7.7,3.3c-2.5,0.2-4.9,0.6-7,2c-0.8,0.5-1.1,2.1,0,2.6c1.7,0.7,3.4,1.2,5.3,1.5c1.3,0.2,2.3-1,1.7-2.2
			c-1.3-2.7-2-5.4-2.1-8.4c-0.6,0.5-1.3,1-1.9,1.4c1.8,0.6,2.3,2.2,1.7,3.9C16.6,385.5,19.5,386.3,20.2,384.5L20.2,384.5z"/>
	</g>
</g>
<g>
	<g>
		<path fill="#BABF10" d="M279.2,385.3c-0.3-4-1.7-7.7-4.1-10.9c-0.7-1-2.4-1-2.7,0.4c-0.4,1.6-0.6,3.2-0.3,4.9
			c0.1,0.8,0.7,1.9,0.7,2.6c0,1.3-0.6,1.1-1.2,0.1c-0.6,0.7-1.1,1.5-1.7,2.2c3.9,0.7,7.8,0,11.2-2.3c1.6-1.1,0.1-3.7-1.5-2.6
			c-2.7,1.8-5.7,2.5-8.9,2c-1.3-0.2-2.4,1-1.7,2.2c1.2,2.3,4.3,3.8,6.4,1.5c0.9-1,0.9-2.2,0.5-3.4c-0.8-2.3-1.3-4-0.6-6.4
			c-0.9,0.1-1.8,0.2-2.7,0.4c2.1,2.8,3.4,5.9,3.7,9.3C276.4,387.2,279.4,387.2,279.2,385.3L279.2,385.3z"/>
	</g>
</g>
<g>
	<g>
		<path fill="#BABF10" d="M347.6,361.9c0.3,1.6,0,3.2-0.8,4.6c0.9,0,1.7,0,2.6,0c-0.6-1.1-1.2-2.2-1.7-3.3c-0.8,0.6-1.6,1.2-2.4,1.8
			c2.4,3,7.2,2.4,9.3-0.7c1.1-1.6-1.5-3.1-2.6-1.5c-1.1,1.6-3.4,1.4-4.6,0.1c-1.1-1.4-3.1,0.4-2.4,1.8c0.6,1.1,1.2,2.2,1.7,3.3
			c0.5,1,2.1,1,2.6,0c1.1-2.2,1.5-4.5,1.1-6.9C350.2,359.2,347.3,360,347.6,361.9L347.6,361.9z"/>
	</g>
</g>
<g>
	<path fill="#FFA400" d="M144.2,373.4c1.5-0.4,3.1-0.9,4.6-0.4s2.7,2.3,1.9,3.6c-0.5,0.9-1.5,1.2-2.4,1.6c-2.1,0.8-4.4,1.5-6.6,1.2
		s-4.5-2.1-4.4-4.4c0-0.5,0.1-1.1,0.4-1.6c0.7-1.6,2.4-2.6,4.2-2.6c1.7,0,3.4,1.2,4.1,2.8c-0.2-1.7,2.1-3,3.5-2.1
		c1.4,0.9,1.4,3.3,0.1,4.4s-3.4,0.8-4.6-0.5c-0.3-0.3-0.5-0.6-0.4-1c0.1-1,2-0.7,1.9,0.3s-1.3,1.6-2.3,1.3c-1-0.3-1.6-1.1-2.2-1.9
		c-0.8,1.1-1.2,2.5-0.6,3.7c0.6,1.2,2.5,1.5,3.2,0.4c0.9-1.5-1.3-3-3-3.5c-0.6-0.2-1.3-0.4-1.9-0.5"/>
	<g>
		<path fill="#FFC627" d="M144.6,374.9c1.1-0.3,1.8-0.5,3-0.4c1.8,0.1,2,1.7,0.4,2.3c-1.6,0.6-3.5,1.3-5.3,1.2
			c-2.1-0.1-4.3-1.5-3.5-3.8c1-2.7,4.3-1.9,5.4,0.2c0.7,1.4,2.7,0.7,2.8-0.8c0.1-0.8,0.5-0.9,1-0.3c1.1,0.5,0.9,1-0.9,1.8
			c-1.2-0.3-2.4-0.6-3.6-0.8c-0.4-0.4-0.7-0.7-1-1.2c-0.6-0.8-1.9-0.4-2.4,0.3c-1,1.7-1.6,3.9-0.3,5.6c1,1.2,2.9,1.8,4.3,1
			c1.5-0.8,1.8-2.5,1.1-4c-1-2.1-3.7-2.7-5.8-3.3c-1.9-0.5-2.7,2.4-0.8,2.9c1.1,0.3,2.2,1,3.3,1.2c0.3,0.1,0.5,0.3,0.5,0.6
			c-0.6-0.9-0.5-1.7,0.2-2.5c-0.8,0.1-1.6,0.2-2.4,0.3c1.3,1.6,3.1,3.1,5.3,2.2c1.4-0.6,2.3-2.3,1.5-3.7c-2-3.3-6.9,0.7-3,3.5
			c3.4,2.5,8.7-0.4,7.2-4.7c-1.4-4.1-7.2-2.8-7.3,1.3c0.9-0.3,1.9-0.5,2.8-0.8c-1.9-3.6-6.7-4.7-9.7-1.7c-3.2,3.3-1.2,8,2.8,9.4
			c2.5,0.9,5.2,0.2,7.6-0.6c1.8-0.6,3.8-1.3,4.4-3.2c0.5-1.6-0.3-3.3-1.6-4.3c-2-1.6-4.6-1.1-6.9-0.4
			C142,372.5,142.8,375.4,144.6,374.9L144.6,374.9z"/>
	</g>
</g>
<g>
	<path fill="#FFA400" d="M128.4,373.5c-1.5-0.6-3-1.2-4.6-0.9c-1.5,0.3-2.9,2-2.3,3.4c0.4,0.9,1.3,1.4,2.2,1.8c2,1,4.2,2,6.5,1.9
		c2.3-0.1,4.6-1.7,4.8-3.9c0-0.5,0-1.1-0.2-1.6c-0.6-1.6-2.2-2.9-3.9-3s-3.5,0.8-4.3,2.4c0.4-1.6-1.8-3.2-3.3-2.4
		c-1.5,0.8-1.7,3.1-0.5,4.3c1.2,1.2,3.3,1.1,4.6,0c0.3-0.2,0.5-0.6,0.5-0.9c0-1-1.9-0.8-2,0.2c-0.1,1,1.2,1.7,2.1,1.5
		c1-0.2,1.7-1,2.4-1.7c0.7,1.1,0.9,2.6,0.2,3.7s-2.7,1.2-3.2,0c-0.7-1.6,1.6-2.9,3.3-3.2c0.6-0.1,1.3-0.2,1.9-0.4"/>
	<g>
		<path fill="#0093C9" d="M128.8,372c-2.2-0.9-4.8-1.6-6.9-0.2c-1.4,0.9-2.2,2.6-1.8,4.2c0.5,2.2,2.9,3,4.7,3.8c2.2,1,4.8,1.7,7.2,1
			c3.9-1.1,5.9-5.3,3.4-8.8c-2.7-3.7-7.8-2.9-10.1,0.6c0.9,0.3,1.9,0.5,2.8,0.8c0.2-4.1-5.5-5.6-7.2-1.8c-1.9,4.3,3.4,7.6,7,5.2
			c3.7-2.4-0.6-6.6-2.9-3.6c-1.1,1.4-0.2,3.2,1.2,4c2.1,1.1,4-0.3,5.4-1.8c-0.8-0.1-1.6-0.2-2.4-0.3c0.8,1.6-0.4,1.9,1.7,1.3
			c0.7-0.2,1.5-0.3,2.3-0.4c1.9-0.4,1.1-3.2-0.8-2.9c-2,0.4-4.6,0.7-5.9,2.6c-1,1.4-0.7,3.3,0.8,4.3c1.4,0.8,3.2,0.5,4.3-0.6
			c1.5-1.6,1.1-3.9,0.2-5.7c-0.4-0.9-1.7-1-2.4-0.3c-1.1,1.2-2.9,1.3-4.4,1.2c-0.5,0.2-0.9,0.2-1.2-0.2c-0.6-0.4-0.2-0.7,1.2-0.9
			c-0.1,1.6,2,1.9,2.8,0.8c1.2-1.8,4.2-2.3,5.3,0c1.1,2.2-1.1,3.7-3,3.9c-1.8,0.2-3.7-0.7-5.3-1.5c-0.4-0.2-0.7-0.3-1.1-0.5
			c0.3-0.7,0.6-1.5,0.9-2.2c0.6-0.4,2.7,0.7,3.2,0.9C129.8,375.6,130.5,372.7,128.8,372L128.8,372z"/>
	</g>
</g>
<polygon points="139.5,375 141.3,371.5 143,375 "/>
<polygon points="145.5,376 147.3,372.5 149,376 "/>
<polygon points="142.5,378 143.9,375.5 145.2,378 "/>
<polygon points="133,375 131.2,371.5 129.5,375 "/>
<polygon points="127,376 125.2,372.5 123.5,376 "/>
<polygon points="130,378 128.6,375.5 127.3,378 "/>
<g>
	<path d="M44,259.9c0.9-8.4,1.7-16.8,2.6-25.1c0.2-2.2,0.5-4.5,1.3-6.5s2.5-3.9,4.6-4.5c0.4,7.2,0.4,14.4,0,21.6
		c-0.1,1.8-0.2,3.6-1.2,5.1c-1,1.5-3,2.4-4.6,1.6"/>
</g>
</svg>
