<svg xmlns="http://www.w3.org/2000/svg" width="110" height="110" version="1"><g><g fill-rule="evenodd" stroke="#000"><path d="M36.968 26.512c-4.475-2.448-8.715-4.196-14.385-5.594-.445-.138-1.15-.19-1.336-.01-.243.19-.126.987.007 1.305 1.223 5.257 3.02 9.83 5.243 14.444l10.47-10.145z" fill="#ffa72a" stroke-width="1.6359000000000001"/><path d="M34.498 27.628c-3.093-1.87-9.814-4.357-10.31-3.793-.714.494 2.447 8.33 3.63 10.308l6.68-6.515z" fill="#ffd5d5"/></g><g fill-rule="evenodd" stroke="#000"><path d="M73.606 26.512c4.474-2.448 8.715-4.197 14.384-5.595.446-.138 1.15-.19 1.336-.008.244.187.126.984-.006 1.303-1.223 5.257-3.02 9.83-5.243 14.444l-10.47-10.145z" fill="#ffa72a" stroke-width="1.6359000000000001"/><path d="M76.076 27.628c3.093-1.87 9.814-4.357 10.31-3.794.713.495-2.448 8.33-3.63 10.31l-6.68-6.516z" fill="#ffd5d5"/></g><path transform="matrix(.681 0 0 .686 21.14 20.66)" d="M100.258 49.997c0 27.477-22.444 49.75-50.13 49.75C22.444 99.747 0 77.474 0 49.997 0 22.52 22.443.247 50.13.247c27.684 0 50.128 22.274 50.128 49.75z" fill="#ffa72a" stroke="#000" stroke-width="2.5" stroke-linecap="round"/><path d="M72.997 84.467c-2.655 1.593-13.396-27.79-16.17-26.415-2.777 1.375 14.087 27.725 11.21 28.872-2.878 1.147-8.766-29.58-11.726-28.667-2.96.91 9.46 29.626 6.436 30.296-3.024.67-3.907-30.6-6.975-30.176-3.067.425 4.584 30.76 1.492 30.936-3.092.177 1.053-30.832-2.044-30.905-3.096-.072-.41 31.097-3.49 30.775-3.08-.32 5.984-30.264 2.94-30.832-3.045-.568-5.394 30.63-8.383 29.817-2.99-.81 10.762-28.912 7.848-29.96-2.914-1.05-10.236 29.365-13.056 28.085-2.82-1.28 15.26-26.812 12.552-28.315-2.71-1.503-14.815 27.344-17.394 25.628C33.658 81.888 55.6 59.588 53.168 57.67c-2.43-1.918-19.01 24.614-21.278 22.506-2.27-2.108 22.965-20.6 20.873-22.883-2.093-2.283-22.71 21.246-24.613 18.8-1.902-2.443 25.972-16.647 24.273-19.237-1.7-2.59-25.825 17.328-27.31 14.61C23.626 68.748 53.418 59.2 52.156 56.37c-1.262-2.828-28.27 12.96-29.3 10.04-1.03-2.92 29.908-7.567 29.116-10.56-.792-2.996-29.983 8.256-30.53 5.208-.55-3.05 30.733-2.672 30.432-5.754-.3-3.083-30.92 3.34-30.97.244-.053-3.097 30.764 2.293 30.96-.798.198-3.09-31.054-1.662-30.61-4.727.447-3.065 30 7.2 30.69 4.18.69-3.02-30.386-6.623-29.454-9.577.932-2.954 28.456 11.918 29.622 9.048 1.166-2.87-28.93-11.41-27.537-14.177C25.968 36.73 50.75 55.825 52.36 53.18c1.612-2.645-26.724-15.904-24.906-18.41 1.82-2.508 23.217 20.314 25.232 17.962 2.015-2.353-23.828-19.985-21.63-22.168 2.197-2.183 19.657 23.777 22.023 21.778 2.365-2-20.315-23.55-17.796-25.35 2.52-1.803 15.59 26.62 18.245 25.027 2.655-1.594-16.274-26.502-13.5-27.877 2.777-1.375 11.118 28.778 13.995 27.63 2.877-1.146-11.81-28.768-8.85-29.68 2.96-.91 6.355 30.188 9.38 29.518 3.023-.67-7.044-30.29-3.976-30.715 3.067-.425 1.43 30.817 4.523 30.64 3.092-.177-2.094-31.03 1.003-30.956 3.096.07-3.53 30.646-.45 30.968 3.08.32 2.91-30.963 5.956-30.394 3.044.568-8.4 29.684-5.412 30.495 2.99.81 7.84-30.095 10.754-29.046 2.914 1.05-13.053 27.953-10.233 29.233 2.82 1.28 12.567-28.447 15.275-26.944 2.708 1.503-17.368 25.496-14.79 27.213 2.578 1.716 16.967-26.063 19.4-24.145 2.43 1.92-21.235 22.38-18.965 24.49 2.27 2.106 20.928-23.005 23.02-20.722 2.093 2.283-24.548 18.684-22.646 21.13 1.902 2.443 24.347-19.35 26.046-16.76 1.7 2.59-27.228 14.504-25.743 17.222 1.486 2.717 27.136-15.193 28.398-12.365 1.262 2.83-29.202 9.95-28.172 12.87 1.03 2.92 29.22-10.643 30.013-7.65.792 2.996-30.42 5.137-29.872 8.185.55 3.05 30.55-5.818 30.852-2.735.3 3.082-30.85.19-30.798 3.286.052 3.098 31.088-.84 30.89 2.25-.196 3.09-30.48-4.76-30.925-1.696-.445 3.065 30.82 4.155 30.13 7.175-.69 3.018-29.322-9.59-30.253-6.636-.932 2.953 29.754 9.045 28.588 11.915-1.166 2.868-27.404-14.17-28.797-11.404-1.392 2.767 27.92 13.702 26.308 16.347-1.61 2.645-24.776-18.38-26.595-15.874-1.818 2.506 25.36 18.002 23.345 20.354-2.015 2.353-21.508-22.117-23.705-19.934-2.197 2.183 22.143 21.837 19.777 23.836-2.366 2-17.68-25.28-20.2-23.48-2.52 1.803 18.353 25.107 15.697 26.7z" fill="#ffca7d" stroke="#000" stroke-width="0.699545" stroke-linecap="round"/><path d="M41.182 26.96c7.216-3.405 20.88-3.34 28.27-.033 13.805 10.677 15.124 21.16 13.758 25.615-2.29 6.368-6.267 8.292-7.584 11.798-1.564 6.156-2.737 11.627-6.19 17.374-3.644 6.592-24.584 6.612-28.232-.01-3.54-5.616-4.52-11.06-6.002-17.17-1.568-3.817-5.57-5.555-7.802-12.01-1.38-4.43-.038-15.036 13.782-25.564z" fill="#ffca7d" fill-rule="evenodd" stroke="#000" stroke-width="0.8021999999999999"/><g><path d="M42.048 35.003c0 3.853-3.152 6.976-7.04 6.976s-7.04-3.124-7.04-6.977 3.152-6.976 7.04-6.976 7.04 3.123 7.04 6.976z" transform="matrix(.696 0 0 .702 22.167 21.639)" fill="#fff" stroke="#000" stroke-width="1.001" stroke-linecap="round"/><path d="M50.022 46.234c0 1.933-1.566 3.5-3.498 3.5-1.932 0-3.5-1.567-3.5-3.5 0-1.934 1.568-3.502 3.5-3.502s3.498 1.568 3.498 3.502z"/></g><path transform="matrix(.696 0 0 .702 39.667 21.64)" d="M42.048 35.003c0 3.853-3.152 6.976-7.04 6.976s-7.04-3.124-7.04-6.977 3.152-6.976 7.04-6.976 7.04 3.123 7.04 6.976z" fill="#fff" stroke="#000" stroke-width="1.001" stroke-linecap="round"/><path d="M67.523 46.234c0 1.933-1.566 3.5-3.498 3.5-1.932 0-3.5-1.567-3.5-3.5 0-1.934 1.568-3.502 3.5-3.502s3.498 1.568 3.498 3.502z"/><path d="M48.556 55.23c-.056-.9 13.46-.927 13.46 0-1.075 2.448-2.367 6.422-4.692 6.442l-4.02.032c-2.372-.004-3.71-3.99-4.748-6.474z" fill="#4d4d4d" fill-rule="evenodd" stroke="#000" stroke-width="0.5411"/><path d="M55.287 61.975v10.697" stroke="#000" stroke-width="1.75" fill="none"/><path d="M42.09 67.81c4.07 2.77 7.962 5.23 13.27 5.39 5.207-.167 9-2.59 13.105-5.408" stroke="#000" stroke-width="1.6099999999999999" stroke-linecap="round" fill="none"/></g></svg>