<svg width="111" height="122" viewBox="0 0 111 122" version="1.1" xmlns="http://www.w3.org/2000/svg" xmlns:xlink="http://www.w3.org/1999/xlink">
<title>PurpleChallengePerfect</title>
<desc>Created using Figma</desc>
<g id="Canvas" transform="translate(572 505)">
<g id="PurpleChallengePerfect">
<g id="Vector">
<use xlink:href="#path0_fill" transform="translate(-568 -494)" fill="#7665A0"/>
<use xlink:href="#path1_fill" transform="translate(-568 -494)" fill="#7665A0"/>
<use xlink:href="#path2_fill" transform="translate(-568 -494)" fill="#7665A0"/>
<mask id="mask0_outline_out">
<rect id="mask0_outline_inv" fill="white" x="-4" y="-11" width="111" height="122" transform="translate(-568 -494)"/>
<use xlink:href="#path0_fill" fill="black" transform="translate(-568 -494)"/>
<use xlink:href="#path1_fill" fill="black" transform="translate(-568 -494)"/>
<use xlink:href="#path2_fill" fill="black" transform="translate(-568 -494)"/>
</mask>
<g mask="url(#mask0_outline_out)">
<use xlink:href="#path3_stroke_2x" transform="translate(-568 -494)" fill="#FFFFFF"/>
</g>
</g>
</g>
</g>
<defs>
<path id="path0_fill" d="M 70.106 36.083L 62.1746 46.0918L 58.3315 50.9415L 51.6035 59.4317L 45.9261 54.5748L 52.1602 46.7079L 56.1348 41.6923L 65.0029 30.5014L 65.0041 30.4898L 65.6602 24.0494L 66.4862 15.9405L 70.5112 10.8612L 79.1181 0L 80.4299 16.7969L 80.4574 17.148L 80.8159 17.0963L 96.4657 14.8404L 88.4072 24.4582L 83.412 30.4201L 77.3098 33.0171L 71.4574 35.5078L 70.106 36.083Z"/>
<path id="path1_fill" d="M 60 56.474C 60 61.9968 55.5228 66.474 50 66.474C 44.4772 66.474 40 61.9968 40 56.474C 40 52.0563 42.8645 48.3078 46.8375 46.9844C 47.8314 46.6533 48.8948 46.474 50 46.474C 50.7417 46.474 51.4645 46.5547 52.1602 46.7079C 54.7258 47.2728 56.9219 48.823 58.3315 50.9415C 59.1907 52.2328 59.7577 53.7353 59.938 55.3546C 59.979 55.722 60 56.0956 60 56.474Z"/>
<path id="path2_fill" fill-rule="evenodd" d="M 80 56.474C 80 49.8216 77.8348 43.675 74.1706 38.7003L 72.6088 39.365L 64.4695 49.6362C 65.451 51.7096 66 54.0277 66 56.474C 66 65.3105 58.8366 72.474 50 72.474C 41.1634 72.474 34 65.3105 34 56.474C 34 47.6374 41.1634 40.474 50 40.474C 50.6454 40.474 51.282 40.5122 51.9074 40.5865L 61.142 28.9332L 61.1735 28.6238C 57.7202 27.237 53.9492 26.474 50 26.474C 33.4315 26.474 20 39.9054 20 56.474C 20 73.0425 33.4315 86.474 50 86.474C 66.5685 86.474 80 73.0425 80 56.474ZM 61.8021 22.4531L 62.5068 15.5352L 62.6252 14.3723L 63.3512 13.4562L 66.6377 9.30884C 61.4329 7.47283 55.8331 6.47396 50 6.47396C 22.3858 6.47396 0 28.8597 0 56.474C 0 84.0882 22.3858 106.474 50 106.474C 77.6142 106.474 100 84.0882 100 56.474C 100 45.7659 96.6339 35.8441 90.9021 27.7088L 86.4781 32.989L 85.8616 33.7248L 84.9784 34.1007L 79.8184 36.2967C 83.7204 42.052 86 48.9968 86 56.474C 86 76.3562 69.8822 92.474 50 92.474C 30.1177 92.474 14 76.3562 14 56.474C 14 36.5917 30.1177 20.474 50 20.474C 54.1338 20.474 58.1048 21.1707 61.8021 22.4531Z"/>
<path id="path3_stroke_2x" d="M 51.6035 59.4317L 50.3034 60.9514L 51.8813 62.3013L 53.171 60.6738L 51.6035 59.4317ZM 96.4657 14.8404L 97.9987 16.1248L 101.359 12.1143L 96.1803 12.8608L 96.4657 14.8404ZM 79.1181 0L 81.112 -0.155722L 80.7153 -5.23575L 77.5506 -1.24215L 79.1181 0ZM 49.0033 62.4712L 50.3034 60.9514L 50.3034 60.9514L 49.0033 62.4712ZM 52.1591 65.171L 50.859 66.6907L 52.4369 68.0406L 53.7266 66.4131L 52.1591 65.171ZM 43.3259 57.6144L 42.0258 59.1341L 42.0258 59.1341L 43.3259 57.6144ZM 40.3984 55.11L 38.8309 53.8678L 37.6345 55.3775L 39.0983 56.6297L 40.3984 55.11ZM 42.7911 52.0905L 44.3586 53.3327L 44.3586 53.3327L 42.7911 52.0905ZM 54.7385 61.916L 56.306 63.1581L 54.7385 61.916ZM 92.6144 19.4369L 94.1474 20.7214L 94.1474 20.7214L 92.6144 19.4369ZM 90.5303 15.696L 90.8157 17.6755L 90.8157 17.6755L 90.5303 15.696ZM 84.4249 16.5761L 84.7102 18.5556L 84.7102 18.5556L 84.4249 16.5761ZM 80.1452 13.1517L 78.1513 13.3074L 78.1513 13.3074L 80.1452 13.1517ZM 79.576 5.86265L 77.582 6.01837L 77.582 6.01837L 79.576 5.86265ZM 75.4659 4.60885L 77.0334 5.851L 77.0334 5.851L 75.4659 4.60885ZM 48.5618 56.8296L 47.2617 58.3494L 47.2617 58.3494L 48.5618 56.8296ZM 54.0896 56.2945L 55.6571 57.5366L 55.6571 57.5366L 54.0896 56.2945ZM 61.8021 22.4531L 62.4575 20.5636L 60.0686 19.735L 59.8124 22.2504L 61.8021 22.4531ZM 61.1735 28.6238L 59.1838 28.4211L 59.0312 29.9188L 60.4282 30.4797L 61.1735 28.6238ZM 74.1706 38.7003L 72.5603 39.8865L 73.4983 41.16L 74.9538 40.5406L 74.1706 38.7003ZM 79.8184 36.2967L 80.6016 38.137L 82.8373 37.1855L 81.4738 35.1744L 79.8184 36.2967ZM 51.9074 40.5865L 52.1433 38.6004L 51.0338 38.4686L 50.3399 39.3443L 51.9074 40.5865ZM 56.1348 41.6923L 55.3674 43.5392L 55.3674 43.5392L 56.1348 41.6923ZM 65.0041 30.4898L 64.0024 32.2209L 64.0024 32.2209L 65.0041 30.4898ZM 88.4072 24.4582L 86.8717 25.7396L 86.8717 25.7396L 88.4072 24.4582ZM 46.8375 46.9844L 45.27 45.7422L 45.27 45.7422L 46.8375 46.9844ZM 64.4695 49.6362L 66.037 50.8784L 66.8091 49.9041L 66.2772 48.7805L 64.4695 49.6362ZM 59.938 55.3546L 58.3705 54.1124L 58.3705 54.1124L 59.938 55.3546ZM 62.1746 46.0918L 60.6534 47.3903L 60.6534 47.3903L 62.1746 46.0918ZM 71.4574 35.5078L 70.027 36.9057L 70.027 36.9057L 71.4574 35.5078ZM 77.3098 33.0171L 78.8264 31.7133L 78.8264 31.7133L 77.3098 33.0171ZM 65.6602 24.0494L 64.7891 25.8497L 64.7891 25.8497L 65.6602 24.0494ZM 47.7032 63.991L 50.859 66.6907L 53.4592 63.6512L 50.3034 60.9514L 47.7032 63.991ZM 42.0258 59.1341L 47.7032 63.991L 50.3034 60.9514L 44.626 56.0946L 42.0258 59.1341ZM 39.0983 56.6297L 42.0258 59.1341L 44.626 56.0946L 41.6985 53.5902L 39.0983 56.6297ZM 41.2236 50.8484L 38.8309 53.8678L 41.9659 56.3521L 44.3586 53.3327L 41.2236 50.8484ZM 53.7266 66.4131L 56.306 63.1581L 53.171 60.6738L 50.5916 63.9288L 53.7266 66.4131ZM 94.9326 13.5559L 91.0814 18.1524L 94.1474 20.7214L 97.9987 16.1248L 94.9326 13.5559ZM 90.8157 17.6755L 96.751 16.8199L 96.1803 12.8608L 90.245 13.7164L 90.8157 17.6755ZM 84.7102 18.5556L 90.8157 17.6755L 90.245 13.7164L 84.1395 14.5966L 84.7102 18.5556ZM 77.582 6.01837L 78.1513 13.3074L 82.1392 12.996L 81.5699 5.70693L 77.582 6.01837ZM 77.1242 0.155722L 77.582 6.01837L 81.5699 5.70693L 81.112 -0.155722L 77.1242 0.155722ZM 77.0334 5.851L 80.6856 1.24215L 77.5506 -1.24215L 73.8984 3.3667L 77.0334 5.851ZM 49.862 55.3098L 47.2263 53.055L 44.626 56.0946L 47.2617 58.3494L 49.862 55.3098ZM 52.9036 57.9119L 49.8619 55.3098L 47.2617 58.3494L 50.3034 60.9514L 52.9036 57.9119ZM 52.5221 55.0523L 50.036 58.1895L 53.171 60.6738L 55.6571 57.5366L 52.5221 55.0523ZM 59.8124 22.2504L 59.1838 28.4211L 63.1632 28.8265L 63.7918 22.6558L 59.8124 22.2504ZM 74.9538 40.5406L 80.6016 38.137L 79.0352 34.4564L 73.3874 36.8601L 74.9538 40.5406ZM 51.6715 42.5725C 53.0116 42.7266 54.164 43.0344 55.3674 43.5392L 56.9022 39.8454C 55.4492 39.2465 53.7644 38.7981 52.1433 38.6004L 51.6715 42.5725ZM 66.0058 28.7588C 64.7195 28.0158 63.3117 27.3286 61.9188 26.7679L 60.4282 30.4797C 61.688 30.9842 62.8392 31.5463 64.0024 32.2209L 66.0058 28.7588ZM 89.9403 25.7427L 94.1474 20.7214L 91.0814 18.1524L 86.8742 23.1738L 89.9403 25.7427ZM 84.1395 14.5966L 80.5306 15.1168L 81.1013 19.0759L 84.7102 18.5556L 84.1395 14.5966ZM 79.5823 18.6705C 82.2834 20.7838 84.6777 23.1062 86.8717 25.7396L 89.9428 23.1768C 87.6098 20.3854 84.9132 17.7698 82.0496 15.5221L 79.5823 18.6705ZM 81.6482 15.2108C 78.5079 12.8028 74.9836 10.6858 71.3326 9.03762L 69.6899 12.6848C 73.1292 14.2299 76.256 16.1087 79.2117 18.383L 81.6482 15.2108ZM 72.0787 12.1034L 77.0334 5.851L 73.8984 3.36669L 68.9437 9.61905L 72.0787 12.1034ZM 78.1513 13.3074L 78.436 16.9526L 82.4239 16.6411L 82.1392 12.996L 78.1513 13.3074ZM 65.9724 11.1949C 67.2499 11.6451 68.464 12.1322 69.6899 12.6848L 71.3326 9.03762C 70.0303 8.45158 68.6602 7.90197 67.3031 7.42275L 65.9724 11.1949ZM 79.2117 18.383C 79.337 18.4792 79.458 18.5731 79.5823 18.6705L 82.0496 15.5221C 81.9176 15.4187 81.7812 15.3129 81.6482 15.2108L 79.2117 18.383ZM 86.8717 25.7396C 87.7205 26.7562 88.5033 27.7758 89.2672 28.8608L 92.5371 26.5569C 91.7254 25.4055 90.8432 24.2564 89.9428 23.1768L 86.8717 25.7396ZM 50.3399 39.3443L 45.27 45.7422L 48.405 48.2265L 53.4749 41.8286L 50.3399 39.3443ZM 45.27 45.7422L 41.2236 50.8484L 44.3586 53.3327L 48.405 48.2265L 45.27 45.7422ZM 62.902 48.3941L 58.3705 54.1124L 61.5055 56.5967L 66.037 50.8784L 62.902 48.3941ZM 56.306 63.1581L 61.5055 56.5967L 58.3705 54.1124L 53.171 60.6738L 56.306 63.1581ZM 66.2772 48.7805C 65.6075 47.3764 64.6895 45.964 63.6958 44.7933L 60.6534 47.3903C 61.4848 48.3577 62.1152 49.3268 62.6618 50.492L 66.2772 48.7805ZM 55.3674 43.5392C 57.4997 44.4095 59.1864 45.6512 60.6534 47.3903L 63.6958 44.7933C 61.9104 42.7221 59.466 40.9262 56.9022 39.8454L 55.3674 43.5392ZM 56.764 49.6993L 52.5221 55.0523L 55.6571 57.5366L 59.899 52.1836L 56.764 49.6993ZM 70.027 36.9057C 70.9556 37.8542 71.7726 38.815 72.5603 39.8865L 75.7809 37.5142C 74.9085 36.3319 73.9115 35.1592 72.8878 34.11L 70.027 36.9057ZM 64.0024 32.2209C 66.2623 33.5232 68.2179 35.0479 70.027 36.9057L 72.8878 34.11C 70.884 32.066 68.4989 30.2069 66.0058 28.7588L 64.0024 32.2209ZM 75.7932 34.321C 76.6533 35.3203 77.4218 36.3244 78.163 37.4191L 81.4738 35.1744C 80.6668 33.9856 79.7595 32.7999 78.8264 31.7133L 75.7932 34.321ZM 61.1467 24.3427C 62.4139 24.7813 63.5937 25.2704 64.7891 25.8497L 66.5313 22.2491C 65.2314 21.621 63.8358 21.0426 62.4575 20.5636L 61.1467 24.3427ZM 64.7891 25.8497C 69.0853 27.9165 72.7229 30.7341 75.7932 34.321L 78.8264 31.7133C 75.478 27.8342 71.1924 24.5164 66.5313 22.2491L 64.7891 25.8497ZM 51.6035 59.4317L 49.0033 62.4712L 52.1591 65.1709L 54.7385 61.916L 51.6035 59.4317ZM 70.106 36.083L 68.5396 32.4024L 67.6031 32.801L 66.971 33.5987L 70.106 36.083ZM 83.412 30.4201L 84.9784 34.1007L 85.8616 33.7248L 86.4781 32.989L 83.412 30.4201ZM 96.4657 14.8404L 99.5317 17.4093L 106.252 9.38824L 95.895 10.8813L 96.4657 14.8404ZM 80.4574 17.148L 76.4695 17.4595L 76.802 21.7163L 81.0281 21.1071L 80.4574 17.148ZM 79.1181 0L 83.106 -0.31145L 82.3125 -10.4715L 75.9831 -2.4843L 79.1181 0ZM 66.4862 15.9405L 63.3512 13.4562L 62.6252 14.3723L 62.5068 15.5351L 66.4862 15.9405ZM 65.0029 30.5014L 68.1379 32.9857L 68.8643 32.0691L 68.9825 30.9055L 65.0029 30.5014ZM 45.9261 54.5748L 42.7911 52.0905L 40.3984 55.11L 43.3259 57.6143L 45.9261 54.5748ZM 61.142 28.9332L 64.277 31.4175L 65.0029 30.5014L 65.1214 29.3386L 61.142 28.9332ZM 62.5068 15.5352L 58.5274 15.1298L 58.5274 15.1298L 62.5068 15.5352ZM 62.6252 14.3723L 59.4902 11.888L 58.7643 12.8041L 58.6458 13.967L 62.6252 14.3723ZM 63.3512 13.4562L 60.2162 10.9719L 60.2162 10.9719L 63.3512 13.4562ZM 86.4781 32.989L 83.412 30.4201L 83.412 30.4201L 86.4781 32.989ZM 85.8616 33.7248L 87.428 37.4053L 88.3112 37.0295L 88.9277 36.2937L 85.8616 33.7248ZM 84.9784 34.1007L 83.412 30.4201L 83.412 30.4201L 84.9784 34.1007ZM 72.6088 39.365L 71.0425 35.6844L 70.106 36.083L 69.4738 36.8807L 72.6088 39.365ZM 61.8021 22.4531L 60.4912 26.2322L 65.269 27.8894L 65.7815 22.8585L 61.8021 22.4531ZM 61.1735 28.6238L 65.1529 29.0292L 65.458 26.0339L 62.6641 24.9119L 61.1735 28.6238ZM 74.1706 38.7003L 77.3912 36.3281L 75.5151 33.781L 72.6042 35.0198L 74.1706 38.7003ZM 79.8184 36.2967L 78.252 32.6162L 73.7805 34.5191L 76.5076 38.5414L 79.8184 36.2967ZM 51.9074 40.5865L 51.4356 44.5585L 53.6546 44.8221L 55.0424 43.0708L 51.9074 40.5865ZM 56.1348 41.6923L 59.2698 44.1766L 59.2698 44.1766L 56.1348 41.6923ZM 65.0041 30.4898L 61.0247 30.0844L 61.0246 30.0857L 65.0041 30.4898ZM 66.6377 9.30884L 69.7727 11.7931L 73.2533 7.40094L 67.9684 5.53666L 66.6377 9.30884ZM 90.9021 27.7088L 94.172 25.405L 91.1764 21.1532L 87.8361 25.1399L 90.9021 27.7088ZM 88.4072 24.4582L 91.4733 27.0271L 91.4733 27.0271L 88.4072 24.4582ZM 80.8159 17.0963L 80.2452 13.1373L 80.2452 13.1373L 80.8159 17.0963ZM 80.4299 16.7969L 76.4421 17.1083L 76.4421 17.1084L 80.4299 16.7969ZM 70.5112 10.8612L 73.6462 13.3455L 73.6462 13.3455L 70.5112 10.8612ZM 46.8375 46.9844L 48.1016 50.7793L 48.1016 50.7793L 46.8375 46.9844ZM 64.4695 49.6362L 61.3345 47.1519L 59.7903 49.1005L 60.8541 51.3477L 64.4695 49.6362ZM 59.938 55.3546L 63.9135 54.9118L 63.9135 54.9117L 59.938 55.3546ZM 62.1746 46.0918L 65.3096 48.5761L 65.3096 48.5761L 62.1746 46.0918ZM 71.4574 35.5078L 73.0238 39.1884L 73.0238 39.1884L 71.4574 35.5078ZM 77.3098 33.0171L 75.7434 29.3366L 75.7434 29.3366L 77.3098 33.0171ZM 65.6602 24.0494L 61.6808 23.644L 61.6808 23.644L 65.6602 24.0494ZM 96 56.474C 96 81.8791 75.4051 102.474 50 102.474L 50 110.474C 79.8234 110.474 104 86.2973 104 56.474L 96 56.474ZM 50 102.474C 24.5949 102.474 4 81.8791 4 56.474L -4 56.474C -4 86.2973 20.1766 110.474 50 110.474L 50 102.474ZM 4 56.474C 4 31.0689 24.5949 10.474 50 10.474L 50 2.47396C 20.1766 2.47396 -4 26.6506 -4 56.474L 4 56.474ZM 82 56.474C 82 74.1471 67.6731 88.474 50 88.474L 50 96.474C 72.0914 96.474 90 78.5654 90 56.474L 82 56.474ZM 18 56.474C 18 38.8009 32.3269 24.474 50 24.474L 50 16.474C 27.9086 16.474 10 34.3826 10 56.474L 18 56.474ZM 50 88.474C 32.3269 88.474 18 74.1471 18 56.474L 10 56.474C 10 78.5654 27.9086 96.474 50 96.474L 50 88.474ZM 76 56.474C 76 70.8334 64.3594 82.474 50 82.474L 50 90.474C 68.7777 90.474 84 75.2516 84 56.474L 76 56.474ZM 50 82.474C 35.6406 82.474 24 70.8334 24 56.474L 16 56.474C 16 75.2516 31.2223 90.474 50 90.474L 50 82.474ZM 24 56.474C 24 42.1146 35.6406 30.474 50 30.474L 50 22.474C 31.2223 22.474 16 37.6963 16 56.474L 24 56.474ZM 62 56.474C 62 63.1014 56.6274 68.474 50 68.474L 50 76.474C 61.0457 76.474 70 67.5197 70 56.474L 62 56.474ZM 38 56.474C 38 49.8465 43.3726 44.474 50 44.474L 50 36.474C 38.9543 36.474 30 45.4283 30 56.474L 38 56.474ZM 50 68.474C 43.3726 68.474 38 63.1014 38 56.474L 30 56.474C 30 67.5197 38.9543 76.474 50 76.474L 50 68.474ZM 43.3259 57.6143L 49.0033 62.4712L 54.2038 56.3921L 48.5264 51.5353L 43.3259 57.6143ZM 58.6458 13.967L 58.5274 15.1298L 66.4862 15.9405L 66.6046 14.7777L 58.6458 13.967ZM 60.2162 10.9719L 59.4902 11.888L 65.7602 16.8566L 66.4862 15.9405L 60.2162 10.9719ZM 88.9277 36.2937L 89.5441 35.558L 83.412 30.4201L 82.7955 31.1559L 88.9277 36.2937ZM 86.5448 37.7812L 87.428 37.4053L 84.2952 30.0442L 83.412 30.4201L 86.5448 37.7812ZM 56 56.474C 56 59.7877 53.3137 62.474 50 62.474L 50 70.474C 57.732 70.474 64 64.206 64 56.474L 56 56.474ZM 50 62.474C 46.6863 62.474 44 59.7877 44 56.474L 36 56.474C 36 64.206 42.268 70.474 50 70.474L 50 62.474ZM 50 24.474C 53.7868 24.4589 57.1005 25.0426 60.4912 26.2322L 63.1129 18.674C 59.109 17.2988 54.4807 16.489 50 16.474L 50 24.474ZM 62.6641 24.9119C 58.8669 23.4049 54.3479 22.4939 50 22.474L 50 30.474C 53.5505 30.454 56.5734 31.0691 59.6829 32.3357L 62.6641 24.9119ZM 84 56.474C 83.9428 49.1475 81.3701 41.8039 77.3912 36.3281L 70.9499 41.0726C 74.2994 45.5461 76.0572 50.4958 76 56.474L 84 56.474ZM 76.5076 38.5414C 80.13 43.8152 82.0502 49.6284 82 56.474L 90 56.474C 89.9498 48.3651 87.3109 40.2888 83.1292 34.052L 76.5076 38.5414ZM 74.1752 43.0455L 75.737 42.3809L 72.6042 35.0198L 71.0425 35.6844L 74.1752 43.0455ZM 81.3848 39.9772L 86.5448 37.7812L 83.412 30.4201L 78.252 32.6162L 81.3848 39.9772ZM 58.5274 15.1298L 57.8227 22.0478L 65.7815 22.8585L 66.4862 15.9405L 58.5274 15.1298ZM 57.1941 28.2184L 57.1626 28.5278L 65.1214 29.3386L 65.1529 29.0292L 57.1941 28.2184ZM 58.007 26.4489L 48.7724 38.1022L 55.0424 43.0708L 64.277 31.4175L 58.007 26.4489ZM 59.2698 44.1766L 68.1379 32.9857L 61.8679 28.0171L 52.9998 39.208L 59.2698 44.1766ZM 68.9825 30.9055L 68.9836 30.8939L 61.0246 30.0857L 61.0234 30.0973L 68.9825 30.9055ZM 67.9684 5.53666C 62.4528 3.60504 56.1857 2.48953 50 2.47396L 50 10.474C 55.4805 10.4584 60.413 11.3406 65.3071 13.081L 67.9684 5.53666ZM 104 56.474C 103.947 45.1147 100.199 34.031 94.172 25.405L 87.6322 30.0127C 93.0684 37.6571 96.0534 46.4172 96 56.474L 104 56.474ZM 69.6212 18.4248L 73.6462 13.3455L 67.3762 8.3769L 63.3512 13.4562L 69.6212 18.4248ZM 76.4421 17.1084L 76.4695 17.4595L 84.4452 16.8365L 84.4178 16.4854L 76.4421 17.1084ZM 84.4178 16.4854L 83.106 -0.31145L 75.1303 0.31145L 76.4421 17.1083L 84.4178 16.4854ZM 81.0281 21.1071L 81.3867 21.0554L 80.2452 13.1373L 79.8866 13.189L 81.0281 21.1071ZM 95.895 10.8813L 80.2452 13.1373L 81.3866 21.0554L 97.0364 18.7994L 95.895 10.8813ZM 89.5441 35.558L 93.9682 30.2778L 87.8361 25.1399L 83.412 30.4201L 89.5441 35.558ZM 63.5027 6.82454L 60.2162 10.9719L 66.4862 15.9405L 69.7727 11.7931L 63.5027 6.82454ZM 75.9831 -2.4843L 67.3762 8.3769L 73.6462 13.3455L 82.2531 2.4843L 75.9831 -2.4843ZM 85.3412 21.8893L 80.346 27.8512L 86.4781 32.989L 91.4733 27.0271L 85.3412 21.8893ZM 91.4733 27.0271L 99.5317 17.4093L 93.3996 12.2714L 85.3412 21.8893L 91.4733 27.0271ZM 50 44.474C 50.5255 44.4722 50.926 44.4963 51.4356 44.5585L 52.3793 36.6144C 51.6379 36.528 50.7654 36.4758 50 36.474L 50 44.474ZM 48.1016 50.7793C 48.7989 50.5345 49.2285 50.46 50 50.474L 50 42.474C 48.5611 42.4879 46.8639 42.772 45.5733 43.1894L 48.1016 50.7793ZM 50 50.474C 50.5193 50.4678 50.8115 50.501 51.3 50.6143L 53.0204 42.8015C 52.1176 42.6084 50.9641 42.4802 50 42.474L 50 50.474ZM 55.2952 49.1922L 59.2698 44.1766L 52.9998 39.208L 49.0252 44.2236L 55.2952 49.1922ZM 49.0252 44.2236L 42.7911 52.0905L 49.0611 57.0591L 55.2952 49.1922L 49.0252 44.2236ZM 44 56.474C 44 53.8296 45.7133 51.5749 48.1016 50.7793L 45.5733 43.1894C 40.0157 45.0406 36 50.2831 36 56.474L 44 56.474ZM 70 56.474C 69.973 53.5636 69.2255 50.3857 68.0848 47.9248L 60.8541 51.3477C 61.6764 53.0335 62.027 54.4917 62 56.474L 70 56.474ZM 55.9626 55.7973C 55.9929 56.0559 56.0016 56.208 56 56.474L 64 56.474C 63.9984 55.9831 63.965 55.3882 63.9135 54.9118L 55.9626 55.7973ZM 67.6045 52.1205L 75.7438 41.8493L 69.4738 36.8807L 61.3345 47.1519L 67.6045 52.1205ZM 59.0396 43.6075L 55.1965 48.4572L 61.4665 53.4258L 65.3096 48.5761L 59.0396 43.6075ZM 55.0013 53.1573C 55.6316 54.0585 55.8685 54.6702 55.9626 55.7974L 63.9135 54.9117C 63.6469 52.8005 62.7497 50.4071 61.6617 48.7257L 55.0013 53.1573ZM 51.3 50.6143C 52.8288 50.951 54.1505 51.8786 55.0013 53.1573L 61.6617 48.7257C 59.6933 45.7674 56.6228 43.5947 53.0204 42.8015L 51.3 50.6143ZM 66.971 33.5987L 59.0396 43.6075L 65.3096 48.5761L 73.241 38.5673L 66.971 33.5987ZM 54.7385 61.916L 61.4665 53.4258L 55.1965 48.4572L 48.4685 56.9473L 54.7385 61.916ZM 71.6724 39.7635L 73.0238 39.1884L 69.891 31.8273L 68.5396 32.4024L 71.6724 39.7635ZM 73.0238 39.1884L 78.8762 36.6977L 75.7434 29.3366L 69.891 31.8273L 73.0238 39.1884ZM 78.8762 36.6977L 84.9784 34.1007L 81.8456 26.7396L 75.7434 29.3366L 78.8762 36.6977ZM 61.6808 23.644L 61.0247 30.0844L 68.9835 30.8952L 69.6396 24.4548L 61.6808 23.644ZM 62.5068 15.5351L 61.6808 23.644L 69.6396 24.4548L 70.4656 16.3459L 62.5068 15.5351Z"/>
</defs>
</svg>
