<svg width="116" height="124" viewBox="0 0 116 124" version="1.1" xmlns="http://www.w3.org/2000/svg" xmlns:xlink="http://www.w3.org/1999/xlink">
<title>Group</title>
<desc>Created using Figma</desc>
<g id="Canvas" transform="translate(432 508)">
<g id="Group">
<g id="Ellipse">
<use xlink:href="#path0_fill" transform="translate(-428 -488)" fill="#F2F2F2"/>
<mask id="mask0_outline_out">
<rect id="mask0_outline_inv" fill="white" x="-4" y="-4" width="108" height="108" transform="translate(-428 -488)"/>
<use xlink:href="#path0_fill" fill="#75699b" transform="translate(-428 -488)"/>
</mask>
<g mask="url(#mask0_outline_out)">
<use xlink:href="#path1_stroke_2x" transform="translate(-428 -488)" fill="#F2F2F2"/>
</g>
</g>
<g id="Ellipse">
<use xlink:href="#path0_fill" transform="translate(-428 -488)" fill="#F2F2F2"/>
<mask id="mask1_outline_ins">
<use xlink:href="#path0_fill" fill="white" transform="translate(-428 -488)"/>
</mask>
<g mask="url(#mask1_outline_ins)">
<use xlink:href="#path2_stroke_2x" fill="#75699b" transform="translate(-428 -488)"/>
</g>
</g>
<g id="Ellipse">
<use xlink:href="#path3_fill" transform="translate(-408 -468)" fill="#F2F2F2"/>
<mask id="mask2_outline_ins">
<use xlink:href="#path3_fill" fill="white" transform="translate(-408 -468)"/>
</mask>
<g mask="url(#mask2_outline_ins)">
<use xlink:href="#path4_stroke_2x" fill="#75699b" transform="translate(-408 -468)"/>
</g>
</g>
<g id="Vector 2">
<use xlink:href="#path5_fill" fill="#75699b" transform="matrix(0.995347 -0.0963594 0.0963594 0.995347 -387 -490.784)"/>
<mask id="mask3_outline_out">
<rect id="mask3_outline_inv" fill="white" x="-6" y="-11" width="71" height="74" transform="matrix(0.995347 -0.0963594 0.0963594 0.995347 -387 -490.784)"/>
<use xlink:href="#path5_fill" fill="#75699b" transform="matrix(0.995347 -0.0963594 0.0963594 0.995347 -387 -490.784)"/>
</mask>
<g mask="url(#mask3_outline_out)">
<use xlink:href="#path6_stroke_2x" transform="matrix(0.995347 -0.0963594 0.0963594 0.995347 -387 -490.784)" fill="#F2F2F2"/>
</g>
</g>
<g id="Ellipse">
<use xlink:href="#path7_fill" fill="#75699b" transform="translate(-388 -448)"/>
</g>
</g>
</g>
<defs>
<path id="path0_fill" d="M 100 50C 100 77.6142 77.6142 100 50 100C 22.3858 100 0 77.6142 0 50C 0 22.3858 22.3858 0 50 0C 77.6142 0 100 22.3858 100 50Z"/>
<path id="path1_stroke_2x" d="M 96 50C 96 75.4051 75.4051 96 50 96L 50 104C 79.8234 104 104 79.8234 104 50L 96 50ZM 50 96C 24.5949 96 4 75.4051 4 50L -4 50C -4 79.8234 20.1766 104 50 104L 50 96ZM 4 50C 4 24.5949 24.5949 4 50 4L 50 -4C 20.1766 -4 -4 20.1766 -4 50L 4 50ZM 50 4C 75.4051 4 96 24.5949 96 50L 104 50C 104 20.1766 79.8234 -4 50 -4L 50 4Z"/>
<path id="path2_stroke_2x" d="M 86 50C 86 69.8823 69.8823 86 50 86L 50 114C 85.3462 114 114 85.3462 114 50L 86 50ZM 50 86C 30.1177 86 14 69.8823 14 50L -14 50C -14 85.3462 14.6538 114 50 114L 50 86ZM 14 50C 14 30.1177 30.1177 14 50 14L 50 -14C 14.6538 -14 -14 14.6538 -14 50L 14 50ZM 50 14C 69.8823 14 86 30.1177 86 50L 114 50C 114 14.6538 85.3462 -14 50 -14L 50 14Z"/>
<path id="path3_fill" d="M 60 30C 60 46.5685 46.5685 60 30 60C 13.4315 60 0 46.5685 0 30C 0 13.4315 13.4315 0 30 0C 46.5685 0 60 13.4315 60 30Z"/>
<path id="path4_stroke_2x" d="M 46 30C 46 38.8366 38.8366 46 30 46L 30 74C 54.3005 74 74 54.3005 74 30L 46 30ZM 30 46C 21.1634 46 14 38.8366 14 30L -14 30C -14 54.3005 5.69947 74 30 74L 30 46ZM 14 30C 14 21.1634 21.1634 14 30 14L 30 -14C 5.69947 -14 -14 5.69947 -14 30L 14 30ZM 30 14C 38.8366 14 46 21.1634 46 30L 74 30C 74 5.69947 54.3005 -14 30 -14L 30 14Z"/>
<path id="path5_fill" d="M 25.8492 35.0467L 5.18296 56.5038L 0 51.1225L 21.3077 28.9993L 24.1872 14.6491L 38.2963 6.77896e-06L 37.977 17.1973L 54.1331 16.4429L 39.639 30.6923L 25.8492 35.0467Z"/>
<path id="path6_stroke_2x" d="M 5.18296 56.5038L 2.30194 59.2786L 5.18296 62.2699L 8.06399 59.2786L 5.18296 56.5038ZM 25.8492 35.0467L 24.6447 31.2323L 23.6742 31.5388L 22.9682 32.2719L 25.8492 35.0467ZM 39.639 30.6923L 40.8434 34.5067L 41.7587 34.2177L 42.4432 33.5447L 39.639 30.6923ZM 54.1331 16.4429L 56.9374 19.2953L 64.3995 11.9592L 53.9466 12.4473L 54.1331 16.4429ZM 37.977 17.1973L 33.9777 17.123L 33.8984 21.3921L 38.1635 21.1929L 37.977 17.1973ZM 38.2963 6.77896e-06L 42.2956 0.0742734L 42.4848 -10.1149L 35.4153 -2.77482L 38.2963 6.77896e-06ZM 24.1872 14.6491L 21.3061 11.8743L 20.4953 12.7162L 20.2653 13.8622L 24.1872 14.6491ZM 21.3077 28.9993L 24.1888 31.7741L 24.9996 30.9323L 25.2296 29.7862L 21.3077 28.9993ZM 0 51.1225L -2.88103 48.3477L -5.55358 51.1225L -2.88102 53.8973L 0 51.1225ZM 8.06399 59.2786L 28.7302 37.8215L 22.9682 32.2719L 2.30194 53.729L 8.06399 59.2786ZM 27.0536 38.861L 40.8434 34.5067L 38.4345 26.878L 24.6447 31.2323L 27.0536 38.861ZM 42.4432 33.5447L 56.9374 19.2953L 51.3289 13.5905L 36.8347 27.8399L 42.4432 33.5447ZM 53.9466 12.4473L 37.7904 13.2016L 38.1635 21.1929L 54.3197 20.4386L 53.9466 12.4473ZM 41.9763 17.2716L 42.2956 0.0742734L 34.297 -0.0742599L 33.9777 17.123L 41.9763 17.2716ZM 35.4153 -2.77482L 21.3061 11.8743L 27.0682 17.424L 41.1773 2.77484L 35.4153 -2.77482ZM 20.2653 13.8622L 17.3859 28.2124L 25.2296 29.7862L 28.109 15.4361L 20.2653 13.8622ZM 18.4267 26.2245L -2.88103 48.3477L 2.88103 53.8973L 24.1888 31.7741L 18.4267 26.2245ZM -2.88102 53.8973L 2.30194 59.2786L 8.06399 53.729L 2.88102 48.3477L -2.88102 53.8973Z"/>
<path id="path7_fill" d="M 20 10C 20 15.5228 15.5228 20 10 20C 4.47715 20 0 15.5228 0 10C 0 4.47715 4.47715 0 10 0C 15.5228 0 20 4.47715 20 10Z"/>
</defs>
</svg>
