<?xml version="1.0" encoding="utf-8"?>
<!-- Generator: Adobe Illustrator 19.2.0, SVG Export Plug-In . SVG Version: 6.00 Build 0)  -->
<svg version="1.1" id="Layer_1" xmlns="http://www.w3.org/2000/svg" xmlns:xlink="http://www.w3.org/1999/xlink" x="0px" y="0px"
	 viewBox="0 0 176.9 69.8" style="enable-background:new 0 0 176.9 69.8;" xml:space="preserve">
<style type="text/css">
	.st0{fill:#FFFFFF;stroke:#D1D3D4;stroke-width:2;stroke-miterlimit:10;}
	.st1{fill:#00AEEF;}
	.st2{fill:#231F20;}
	.st3{fill:#FFFFFF;}
</style>
<path class="st0" d="M160.1,1c8.7,0,15.8,7.1,15.8,15.8V53c0,8.7-7.1,15.8-15.8,15.8H16.8C8.1,68.8,1,61.7,1,53V16.8
	C1,8.1,8.1,1,16.8,1H160.1z"/>
<path class="st1" d="M53.2,5.7H18.9c-6.6,0-12,5.4-12,12v34.4c0,6.6,5.4,12,12,12h34.4c6.6,0,12-5.4,12-12V17.7
	C65.2,11.1,59.8,5.7,53.2,5.7z"/>
<g>
	<path class="st2" d="M75.8,20.1l1.4-2c0.9,0.9,2.2,1.7,3.9,1.7c1.4,0,2.1-0.6,2.1-1.4c0-2.1-7-0.6-7-5.2c0-2,1.8-3.7,4.6-3.7
		c1.9,0,3.5,0.6,4.8,1.7l-1.4,1.9c-1-0.9-2.3-1.3-3.5-1.3c-1.1,0-1.7,0.5-1.7,1.2c0,1.9,7,0.6,7,5.2c0,2.2-1.6,3.9-4.9,3.9
		C78.6,22,76.9,21.3,75.8,20.1z"/>
	<path class="st2" d="M90.7,21.8v-9.9h-3.6V9.6h9.7v2.3h-3.5v9.9H90.7z"/>
	<path class="st2" d="M98.9,16.9V9.6h2.6v7.2c0,1.7,1,2.9,2.9,2.9c1.9,0,2.9-1.2,2.9-2.9V9.6h2.7v7.3c0,3-1.8,5.1-5.5,5.1
		C100.7,22,98.9,20,98.9,16.9z"/>
	<path class="st2" d="M112.8,21.8V9.6h4.8c3.8,0,6.5,2.4,6.5,6.1c0,3.7-2.7,6.1-6.5,6.1H112.8z M121.5,15.7c0-2.1-1.3-3.8-3.8-3.8
		h-2.2v7.6h2.2C120.1,19.5,121.5,17.8,121.5,15.7z"/>
	<path class="st2" d="M126.4,21.8V9.6h8.6v2.3h-6v2.6h5.9v2.3H129v2.8h6v2.3H126.4z"/>
	<path class="st2" d="M146,21.8l-5.8-8v8h-2.6V9.6h2.7l5.7,7.7V9.6h2.6v12.2H146z"/>
	<path class="st2" d="M153.4,21.8v-9.9h-3.6V9.6h9.7v2.3H156v9.9H153.4z"/>
</g>
<g>
	<path class="st2" d="M76.8,39.9V26h6.5c3,0,4.7,2,4.7,4.5c0,2.4-1.7,4.5-4.7,4.5h-3.6v5H76.8z M85,30.5c0-1.2-0.9-1.9-2.1-1.9h-3.1
		v3.7h3.1C84.1,32.3,85,31.6,85,30.5z"/>
	<path class="st2" d="M97.5,39.9l-2.7-5h-2.2v5h-3V26h6.5c2.9,0,4.7,1.9,4.7,4.5c0,2.4-1.6,3.8-3.1,4.1l3.2,5.3H97.5z M97.8,30.4
		c0-1.1-0.9-1.9-2.1-1.9h-3.1v3.8h3.1C96.9,32.4,97.8,31.6,97.8,30.4z"/>
	<path class="st2" d="M102.7,39.9V26h3v13.9H102.7z"/>
	<path class="st2" d="M112.1,39.9L106.7,26h3.4l3.9,10.7l3.9-10.7h3.4l-5.4,13.9H112.1z"/>
	<path class="st2" d="M130.4,39.9l-0.9-2.4h-6l-0.9,2.4h-3.4l5.4-13.9h3.7l5.4,13.9H130.4z M126.5,28.9l-2.2,6h4.3L126.5,28.9z"/>
	<path class="st2" d="M133.7,33c0-4.3,3.2-7.2,7.4-7.2c3.1,0,4.8,1.7,5.8,3.4l-2.6,1.3c-0.6-1.1-1.8-2-3.3-2c-2.5,0-4.4,1.9-4.4,4.6
		c0,2.6,1.8,4.6,4.4,4.6c1.4,0,2.7-0.9,3.3-2l2.6,1.2c-1,1.7-2.8,3.4-5.8,3.4C136.9,40.2,133.7,37.2,133.7,33z"/>
	<path class="st2" d="M151.8,39.9v-5.7l-5.4-8.2h3.4l3.4,5.6l3.4-5.6h3.4l-5.3,8.2v5.7H151.8z"/>
</g>
<g>
	<path class="st2" d="M76.8,58.5V44.1H84c3.2,0,5,2.2,5,4.8c0,2.6-1.8,4.8-5,4.8h-3.5v4.8H76.8z M85.2,48.9c0-1-0.8-1.6-1.8-1.6
		h-2.9v3.1h2.9C84.4,50.4,85.2,49.8,85.2,48.9z"/>
	<path class="st2" d="M91,58.5V44.1h3.7v11.1h5.8v3.2H91z"/>
	<path class="st2" d="M102.3,58.5V44.1h10.5v3.2H106v2.2h6.7v3.2H106v2.4h6.8v3.2H102.3z"/>
	<path class="st2" d="M115.9,58.5V44.1h6c4.5,0,7.8,2.7,7.8,7.2s-3.3,7.2-7.8,7.2H115.9z M125.9,51.3c0-2.2-1.3-3.9-4-3.9h-2.3v7.9
		h2.3C124.4,55.2,125.9,53.4,125.9,51.3z"/>
	<path class="st2" d="M131.2,51.3c0-4.6,3.5-7.4,7.8-7.4c3.2,0,5.2,1.7,6.1,3.5L142,49c-0.5-0.9-1.6-1.8-3-1.8c-2.3,0-4,1.8-4,4.2
		c0,2.4,1.7,4.2,4,4.2c1.1,0,2.1-0.4,2.7-0.9v-1.1h-3.2v-3.3h6.9v5.7c-1.5,1.7-3.6,2.8-6.4,2.8C134.7,58.7,131.2,55.8,131.2,51.3z"
		/>
	<path class="st2" d="M147.9,58.5V44.1h10.5v3.2h-6.8v2.2h6.7v3.2h-6.7v2.4h6.8v3.2H147.9z"/>
</g>
<g>
	<path class="st3" d="M15.7,43V19.7c0,0-0.2-3.1,4.4-3.1c4.1,0,31.7,0,31.7,0s4.1,0.2,4.1,3.3c0,3.1,0,23.1,0,23.1H15.7z"/>
	<path class="st3" d="M59.1,45.1H41c0,0.6-0.5,1-1,1h-8c-0.6,0-1-0.5-1-1H12.8v3.5l0,0c0,1.2,0.9,2.1,2.1,2.1h42
		c1.2,0,2.1-0.9,2.1-2.1l0,0V45.1z"/>
	<rect x="20.1" y="21.1" class="st1" width="31.7" height="19.3"/>
</g>
<g>
	<path class="st3" d="M36,33.2l10.7-4.3L36,24l-7.5,3.4l-3,1.4c0,0,0,0-0.1,0l-0.2,0.1l0.2,0.1c0,0,0,0,0.1,0l0.4,0.2
		c0,0.1,0,0.3,0,0.5c0,0.1,0,0.2,0,0.3c0,0.1,0,0.2,0,0.3c0,0.2,0,0.5,0,0.7c0,0.2,0,0.5,0,0.7c0,0.2,0,0.4,0,0.6c0,0.1,0,0.2,0,0.3
		c-0.2,0.1-0.3,0.3-0.3,0.5c0,0.1,0,0.3,0.1,0.4c-0.1,0.1-0.1,0.1-0.1,0.2c0,0.1,0,0.2,0.1,0.2l0,0l-0.4,1.4l0.4,0.4h0.5l0.1-0.7
		l0,0.7h0.2l0.3-0.4l-0.4-1.4c0.1-0.1,0.1-0.1,0.1-0.2c0-0.1,0-0.2-0.1-0.2c0.1-0.1,0.1-0.2,0.1-0.4c0-0.2-0.1-0.5-0.3-0.5
		c0-0.1,0-0.2,0-0.3c0-0.2,0-0.4,0-0.6c0-0.2,0-0.5,0-0.7c0-0.2,0-0.5,0-0.7c0-0.1,0-0.2,0-0.3c0-0.1,0-0.2,0-0.3c0-0.2,0-0.3,0-0.4
		l1.7,0.7L36,33.2z"/>
	<g>
		<path class="st3" d="M36,33.9l-5.6-2.3v3.5c0,0,2.9,1.8,5.6,1.8c2.7,0,5.5-1.8,5.5-1.8v-3.4L36,33.9z"/>
	</g>
</g>
</svg>
