<svg xmlns="http://www.w3.org/2000/svg" width="976.99" height="1428.42" viewBox="0 0 976.99 1428.42"><defs><style>.cls-1{fill:#fff;}.cls-2{fill:#ffc60b;}.cls-3{fill:#3a3a3a;}.cls-4{fill:#21850f;}</style></defs><title>Artboard 280 copy 9</title><g id="Layer_1" data-name="Layer 1"><path class="cls-1" d="M488.5,1294.64l-311,133.78V864.88C64.64,771.51,0,634.49,0,488.5,0,219.14,219.14,0,488.5,0c147.83,0,285.56,65.74,379,180.64l38.14-45.1a31.25,31.25,0,0,1,48.18,39.82l-48.24,59.12A486.58,486.58,0,0,1,977,488.5c0,146-64.64,283-177.47,376.39v563.53Z"/><path class="cls-2" d="M488.5,977A486,486,0,0,1,197,880.24v515.81L488.5,1271.73,780,1396.05V880.24A486,486,0,0,1,488.5,977Z"/><path class="cls-3" d="M815.91,286.63h-.14c-17.93,0-29.54-13.09-31.41-15.14l-28.88-30.91a11.67,11.67,0,0,1,.38-16.29,11.27,11.27,0,0,1,16,.22l29.22,30.56s6.36,6.58,15,6.48c6.92,0,14.21-4.22,21.69-12.39L921,148.3a11.31,11.31,0,1,1,17.44,14.39L854.63,265.38c-12,13.27-25.07,21.25-38.72,21.25"/><path class="cls-4" d="M847.23,298.28A404,404,0,0,1,894.35,488.5c0,108.4-42.22,210.32-118.87,287S596.9,894.35,488.5,894.35s-210.33-42.22-287-118.87S82.65,596.9,82.65,488.5s42.21-210.33,118.87-287S380.09,82.65,488.5,82.65s210.32,42.21,287,118.87a412,412,0,0,1,40.92,47.69l42-48.36C772.64,90.76,638.84,20,488.5,20,229.72,20,20,229.73,20,488.5S229.72,957,488.5,957,957,747.27,957,488.5a466.26,466.26,0,0,0-66.28-240.37Z"/><path class="cls-3" d="M230.15,408.4c-21.54,0-36.83-15.23-36.83-42,0-28.47,16.9-43.08,37.47-43.08,10.47,0,18.2,2.9,24.31,7l-2.73,18.34c-6.61-5.27-12.89-7.66-20.44-7.66-11.08,0-19.14,8.65-19.14,24.94,0,16.95,8.69,25.1,20.44,25.1,6.73,0,12.84-1.87,20.09-7.82l2.6,17.3c-7.91,5.78-16,7.95-25.77,7.95m69.65-68.32c11.58,0,18,10.86,18,26S311.73,392,299.8,392c-11.23,0-17.52-11-17.52-25.93,0-15.27,6.12-26,17.52-26m0,68.51c21.21,0,36.84-15.95,36.84-42.55S321.19,323.28,300,323.28,263.43,339.41,263.43,366s15.3,42.55,36.37,42.55M461,406.9v-59c0-15.28-7.22-24.63-21.87-24.63-10.47,0-19,6-25.87,13.24-2.93-7.93-8.86-13.24-20-13.24-10.49,0-18.33,6-25.59,13.24L365.92,325H349.5V406.9h19.32V351.43c5.63-6.06,11.26-10.16,17.2-10.16,7.1,0,9.66,4.91,9.66,12v53.6H415V351.43c5.64-6.06,11.25-10.16,17.22-10.16,7,0,9.48,4.91,9.48,12v53.6Zm129.81,0v-59c0-15.28-7.24-24.63-21.86-24.63-10.45,0-19,6-25.9,13.24-2.93-7.93-8.84-13.24-19.95-13.24-10.43,0-18.33,6-25.58,13.24L495.71,325H479.32V406.9H498.6V351.43c5.66-6.06,11.29-10.16,17.25-10.16,7.06,0,9.61,4.91,9.61,12v53.6h19.31V351.43c5.64-6.06,11.26-10.16,17.25-10.16,7.05,0,9.45,4.91,9.45,12v53.6Zm50.69-66.82c11.57,0,18,10.86,18,26s-6.11,25.93-18,25.93C630.22,392,624,381,624,366c0-15.27,6.1-26,17.53-26m0,68.51c21.21,0,36.81-15.95,36.81-42.55s-15.45-42.76-36.69-42.76c-21.06,0-36.48,16.13-36.48,42.76s15.27,42.55,36.36,42.55m115.41-1.69v-59c0-15.28-7.71-24.63-22.2-24.63-10.43,0-18.66,6-25.91,13.24L707,325H690.65V406.9H710V351.6c5.63-6.23,11.53-10.33,17.65-10.33,7.09,0,10,4.91,10,12v53.6ZM226.07,531c20.42,0,31.37-9.51,31.37-25.6,0-15.42-7.87-21.19-28-26.61-11.54-3.23-14.44-5.6-14.44-10,0-4.61,3.52-7.48,10.78-7.48,7.69,0,16.89,2.87,24.58,7.48l2.59-17a62.76,62.76,0,0,0-27.17-5.74c-18,0-28.62,10-28.62,24.05,0,14.92,7.85,20.7,26.69,25.78,12.4,3.23,15.77,5.59,15.77,11.36,0,5.25-4.53,8.48-12.89,8.48-9.63,0-19.92-3.91-28.3-9.68l-2.57,16.95a64.71,64.71,0,0,0,30.24,8m74.62-71c9.35,0,14.16,7.09,15.43,19.82H285.23C286.71,466.42,293,460,300.69,460m34.11,32.54c0-1.18.16-3.22.16-4.93,0-23.23-10.45-41.7-33.8-41.7-20.27,0-35.36,16.12-35.36,42.75,0,29.47,16.24,42.56,37.95,42.56a51.29,51.29,0,0,0,31.05-10l-2.24-15.93c-8.55,6.27-16.73,10.17-26.73,10.17-11.91,0-19.94-6.94-20.87-22.9H334.8m81,37v-59c0-15.27-7.74-24.61-22.2-24.61-10.43,0-18.64,5.94-25.88,13.23L366,447.62H349.54v81.9h19.31v-55.3c5.6-6.26,11.58-10.35,17.71-10.35,7.05,0,9.94,5,9.94,12.07v53.58ZM458.27,531c20.45,0,31.37-9.51,31.37-25.6,0-15.42-7.86-21.19-28-26.61-11.55-3.23-14.45-5.6-14.45-10,0-4.61,3.51-7.48,10.75-7.48,7.73,0,16.88,2.87,24.61,7.48l2.58-17A63,63,0,0,0,458,446.11c-18,0-28.62,10-28.62,24.05,0,14.92,7.85,20.7,26.7,25.78,12.39,3.23,15.74,5.59,15.74,11.36,0,5.25-4.51,8.48-12.86,8.48-9.65,0-19.94-3.91-28.32-9.68L428,523.05a64.73,64.73,0,0,0,30.23,8m74.67-71c9.31,0,14.13,7.09,15.43,19.82h-30.9c1.46-13.4,7.75-19.82,15.47-19.82m34,32.54c0-1.18.17-3.22.17-4.93,0-23.23-10.46-41.7-33.75-41.7-20.28,0-35.4,16.12-35.4,42.75,0,29.47,16.26,42.56,38,42.56a51.09,51.09,0,0,0,31-10l-2.2-15.93c-8.58,6.27-16.77,10.17-26.72,10.17-11.89,0-19.92-6.94-20.9-22.9H567M368.46,652.08V543.62l-18.92,2.73V652.08Zm211.15,0-2.49-16.81a24.6,24.6,0,0,1-6.33.67c-7.65,0-10.65-3.5-10.65-10V588h19l-2.49-16.31H560.14V545.57l-19.64,3v23.12H529.18V588H540.5v41.28c0,18.31,10.65,24.13,26.47,24.13A55.87,55.87,0,0,0,579.61,652.08Zm35.8-105.18a11.51,11.51,0,0,0-11.82-11.65c-6.65,0-12,4.82-12,11.65,0,6.65,5.33,11.31,12,11.31C610.08,558.21,615.41,553.55,615.41,546.9Zm-2,105.18V571.69h-20v80.39Zm-387.34,1.45c20.42,0,31.37-9.51,31.37-25.61,0-15.41-7.87-21.18-28-26.6-11.54-3.23-14.44-5.6-14.44-10,0-4.61,3.52-7.48,10.78-7.48,7.69,0,16.89,2.87,24.58,7.48l2.59-17a62.76,62.76,0,0,0-27.17-5.74c-18,0-28.62,10-28.62,24,0,14.92,7.85,20.69,26.69,25.78,12.4,3.23,15.77,5.59,15.77,11.36,0,5.25-4.53,8.48-12.89,8.48-9.63,0-19.92-3.91-28.3-9.68l-2.57,16.95a64.71,64.71,0,0,0,30.24,8m74.62-72.09c9.35,0,14.16,7.09,15.43,19.82H285.23c1.48-13.4,7.73-19.82,15.46-19.82M334.8,615c0-1.18.16-3.23.16-4.93,0-23.23-10.45-41.7-33.8-41.7-20.27,0-35.36,16.12-35.36,42.75,0,29.47,16.24,42.56,37.95,42.56a51.29,51.29,0,0,0,31.05-10l-2.24-15.93c-8.55,6.27-16.73,10.17-26.73,10.17-11.91,0-19.94-6.94-20.87-22.9H334.8m79.67-33.59c9.35,0,14.16,7.09,15.42,19.82H399c1.48-13.4,7.73-19.82,15.46-19.82M448.58,615c0-1.18.16-3.23.16-4.93,0-23.23-10.45-41.7-33.8-41.7-20.27,0-35.36,16.12-35.36,42.75,0,29.47,16.24,42.56,37.95,42.56a51.29,51.29,0,0,0,31.05-10l-2.24-15.93c-8.55,6.27-16.73,10.17-26.73,10.17-11.91,0-19.94-6.94-20.87-22.9h49.84m46.59,38.68c9.81,0,17.86-2.17,25.77-8l-2.6-17.3c-7.25,5.95-13.36,7.82-20.1,7.82-11.75,0-20.43-8.15-20.43-25.1,0-16.29,8.06-24.94,19.14-24.94,7.55,0,13.83,2.39,20.44,7.67l2.72-18.34c-6.1-4.07-13.84-7-24.31-7-20.56,0-37.46,14.62-37.46,43.08,0,26.81,15.29,42,36.83,42m169.44-68.5c11.57,0,18,10.86,18,26,0,15.25-6.12,25.93-18,25.93-11.26,0-17.52-11-17.52-25.93,0-15.27,6.09-26,17.52-26m0,68.5c21.22,0,36.81-15.94,36.81-42.54S686,568.41,664.74,568.41c-21.07,0-36.49,16.12-36.49,42.76s15.27,42.54,36.36,42.54M780,652V593c0-15.28-7.71-24.63-22.2-24.63-10.42,0-18.66,6-25.91,13.24l-1.75-11.51H713.78V652h19.3v-55.3c5.63-6.23,11.54-10.33,17.65-10.33,7.09,0,10,4.91,10,12V652ZM261.5,1174.17v-99.74h14.25v89.06h24.93v10.68Zm50.36,0v-99.74H351v10.69H326.11v32.06h17.81v10.69H326.11v35.62H351v10.68Zm46.25,0,21.37-99.74h14.25l21.37,99.74H400.85l-5.34-24.93H377.7l-5.34,24.93Zm21.37-35.62h14.25l-7.12-42.74Zm48.2,35.62v-99.74h17.8q15.93,0,24,6.18t8.07,20.54q0,8.91-3.17,14.92a16.68,16.68,0,0,1-9.29,8.23l16,49.87H467l-14.36-46.3H441.93v46.3Zm14.25-57h3.55q8.91,0,13.36-3.76t4.46-12.27q0-8.52-4.46-12.27t-13.36-3.76h-3.55Zm52,57v-99.74h10.69l24.94,61.67v-61.67h14.25v99.74H533.65l-25.5-66.34v66.34Zm69.35,0v-99.74H577.5v99.74Zm34,0v-99.74H608l24.94,61.67v-61.67h14.25v99.74H637.05l-25.5-66.34v66.34Zm95.4,1a33.05,33.05,0,0,1-11.88-1.94,22,22,0,0,1-8.21-5.29,24.25,24.25,0,0,1-5.07-8.52,49.67,49.67,0,0,1-2.61-10.91,104.79,104.79,0,0,1-.73-13.19v-25.26q0-36.63,29-36.63a31.87,31.87,0,0,1,12.08,2.09,19.94,19.94,0,0,1,8.3,6.09,27.9,27.9,0,0,1,4.78,9.38,49.84,49.84,0,0,1,1.89,12.44q.06,1,.06,3.06H706.11v-3a55.58,55.58,0,0,0-.36-6,25.22,25.22,0,0,0-1.11-5,10.92,10.92,0,0,0-2.2-4,9.78,9.78,0,0,0-3.7-2.45,14.88,14.88,0,0,0-5.49-.92,15.41,15.41,0,0,0-7.32,1.59,10.63,10.63,0,0,0-4.55,4.62,23.54,23.54,0,0,0-2.26,6.67,48.16,48.16,0,0,0-.67,8.49v32.06q0,3.57.23,6.43a55.25,55.25,0,0,0,.75,5.84A19.93,19.93,0,0,0,681,1156a16.8,16.8,0,0,0,2.55,3.93,9.85,9.85,0,0,0,3.84,2.67,14.36,14.36,0,0,0,5.32.92,13.1,13.1,0,0,0,6.18-1.39,11.63,11.63,0,0,0,4.14-3.59,17.26,17.26,0,0,0,2.42-5.6,40.34,40.34,0,0,0,1.2-6.73q.32-3.35.31-7.63V1135H692.7v-10.58h28.5v49.76H710.51L707,1163.49Q702.76,1175.18,692.7,1175.17Z"/></g></svg>