<svg width="22" height="12" viewBox="0 0 22 12" version="1.1" xmlns="http://www.w3.org/2000/svg" xmlns:xlink="http://www.w3.org/1999/xlink">
<title>connect</title>
<desc>Created using Figma</desc>
<g id="Canvas" transform="translate(-4697 3069)">
<g id="connect">
<g id="Vector">
<use xlink:href="#path0_fill" transform="translate(4697 -3069)"/>
<use xlink:href="#path1_fill" transform="translate(4697 -3069)"/>
<use xlink:href="#path2_fill" transform="translate(4697 -3069)"/>
</g>
</g>
</g>
<defs>
<path id="path0_fill" d="M 6 7L 14 7L 14 5L 6 5L 6 7Z" fill="#fff"/>
<path id="path1_fill" d="M 14 5L 14 7L 14 9L 17 6L 14 3L 14 5Z" fill="#fff"/>
<path id="path2_fill" fill-rule="evenodd" d="M 10.2427 10.2427C 10.5273 9.95776 10.7808 9.64746 11 9.31665C 11.2192 9.64746 11.4727 9.95776 11.7573 10.2427C 12.8828 11.3679 14.4087 12 16 12C 17.5913 12 19.1172 11.3679 20.2427 10.2427C 21.3677 9.11743 22 7.59131 22 6C 22 4.40869 21.3677 2.88257 20.2427 1.75732C 19.1172 0.63208 17.5913 0 16 0C 14.4087 0 12.8828 0.63208 11.7573 1.75732C 11.4727 2.04224 11.2192 2.35254 11 2.68335C 10.7808 2.35254 10.5273 2.04224 10.2427 1.75732C 9.11719 0.63208 7.59131 0 6 0C 4.40869 0 2.88281 0.63208 1.75732 1.75732C 0.632324 2.88257 0 4.40869 0 6C 0 7.59131 0.632324 9.11743 1.75732 10.2427C 2.88281 11.3679 4.40869 12 6 12C 7.59131 12 9.11719 11.3679 10.2427 10.2427ZM 9.57764 8C 8.87451 9.25195 7.53418 10.1001 6 10.1001C 3.72998 10.1001 1.8999 8.26001 1.8999 6C 1.8999 3.73999 3.74023 1.8999 6 1.8999C 7.54102 1.8999 8.87939 2.74805 9.58008 4L 12.4224 4C 13.1255 2.74805 14.4658 1.8999 16 1.8999C 18.27 1.8999 20.1001 3.73999 20.1001 6C 20.1001 8.26001 18.2598 10.1001 16 10.1001C 14.459 10.1001 13.1206 9.25195 12.4199 8L 9.57764 8Z" fill="#fff"/>
</defs>
</svg>
