<svg width="40" height="40" viewBox="0 0 40 40" fill="none" xmlns="http://www.w3.org/2000/svg">
<path d="M40 37.2787C40 38.7799 38.7799 40 37.2787 40H23.9713C22.4701 40 21.25 38.7799 21.25 37.2787L21.25 23.9713C21.25 22.4701 22.4701 21.25 23.9713 21.25L37.2787 21.25C38.7799 21.25 40 22.4701 40 23.9713V37.2787Z" fill="black"/>
<path d="M32.3075 33.3872C32.303 33.3872 29.5318 33.3872 29.5318 33.3872V31.0786L32.1125 31.074C32.371 31.0695 32.5797 30.8563 32.5797 30.5978C32.5797 30.3347 32.3665 30.1216 32.1034 30.1216C32.0944 30.1216 29.5318 30.1261 29.5318 30.1261V27.8629H32.1942C32.1942 27.8629 32.1987 27.8629 32.2032 27.8629C32.4663 27.8629 32.6795 27.6497 32.6795 27.3866C32.6795 27.1236 32.4663 26.9104 32.2032 26.9104C32.1942 26.9104 29.7223 26.9149 28.8061 26.9149C28.6065 26.9149 28.4705 27.0737 28.4705 27.2506C28.4705 27.4048 28.4705 32.6025 28.4705 33.9949C28.4705 34.1854 28.6292 34.3351 28.8061 34.3351C29.7404 34.3351 32.2985 34.3396 32.3075 34.3396C32.5706 34.3396 32.7838 34.1265 32.7838 33.8634C32.7838 33.6003 32.5706 33.3872 32.3075 33.3872Z" fill="white"/>
<path d="M18.75 37.2787C18.75 38.7799 17.5299 40 16.0287 40H2.72134C1.22007 40 0 38.7799 0 37.2787L0 23.9713C0 22.4701 1.22007 21.25 2.72134 21.25L16.0287 21.25C17.5299 21.25 18.75 22.4701 18.75 23.9713L18.75 37.2787Z" fill="black"/>
<path d="M6.37238 33.9943C6.37238 33.8628 6.37238 28.6514 6.37238 27.2545C6.37238 27.0458 6.52205 26.9143 6.72615 26.9143C6.93025 26.9143 8.876 26.9143 8.876 26.9143C9.88743 26.9143 10.6857 27.064 11.2753 27.3679C11.8649 27.6717 12.3321 28.1162 12.6768 28.7059C13.026 29.2955 13.1984 29.935 13.1984 30.6289C13.1984 31.1233 13.1031 31.5995 12.9127 32.0531C12.7222 32.5066 12.45 32.9058 12.0917 33.2505C11.7289 33.6043 11.3116 33.8719 10.8308 34.0533C10.5496 34.1621 10.2956 34.2347 10.0598 34.2755C9.82394 34.3118 9.37945 34.3299 8.72179 34.3299C8.72179 34.3299 6.962 34.3254 6.72161 34.3299C6.49937 34.3345 6.37238 34.1485 6.37238 33.9943ZM8.76261 27.8622H7.4337L7.4337 33.3865H8.79436C9.32502 33.3865 9.73776 33.3503 10.0326 33.2777C10.3274 33.2051 10.5723 33.1144 10.7673 33.001C10.9624 32.8876 11.1438 32.7516 11.3071 32.5883C11.8332 32.0576 12.0917 31.3864 12.0917 30.5745C12.0917 29.7762 11.8241 29.1277 11.2844 28.6242C11.0848 28.4383 10.858 28.284 10.5995 28.1616C10.341 28.0391 10.1006 27.962 9.86929 27.9212C9.64251 27.8849 9.27513 27.8622 8.76261 27.8622Z" fill="white"/>
<path d="M40 16.0287C40 17.5299 38.7799 18.75 37.2787 18.75L23.9713 18.75C22.4701 18.75 21.25 17.5299 21.25 16.0287L21.25 2.72134C21.25 1.22007 22.4701 0 23.9713 0L37.2787 0C38.7799 0 40 1.22007 40 2.72134V16.0287Z" fill="black"/>
<path d="M30.6066 5.56445C31.7541 5.56445 32.7111 5.9273 33.4731 6.65299C34.235 7.37868 34.616 8.29032 34.616 9.38339C34.616 10.4765 34.2305 11.3836 33.4595 12.1047C32.6884 12.8213 31.7178 13.1797 30.5476 13.1797C29.4273 13.1797 28.4976 12.8213 27.7492 12.1047C27.0054 11.3881 26.6289 10.4855 26.6289 9.40607C26.6289 8.29486 27.0054 7.37868 27.7537 6.65299C28.5066 5.9273 29.4591 5.56445 30.6066 5.56445ZM30.6474 6.57588C29.7993 6.57588 29.1008 6.84348 28.552 7.37414C28.0032 7.9048 27.731 8.58514 27.731 9.41061C27.731 10.2134 28.0077 10.8756 28.5565 11.4108C29.1053 11.9414 29.7902 12.209 30.6157 12.209C31.4457 12.209 32.1351 11.9369 32.6884 11.3972C33.2418 10.8529 33.5184 10.1817 33.5184 9.36979C33.5184 8.58514 33.2418 7.92294 32.6884 7.38321C32.1351 6.84348 31.4547 6.57588 30.6474 6.57588Z" fill="white"/>
<path d="M18.75 16.0287C18.75 17.5299 17.5299 18.75 16.0287 18.75L2.72134 18.75C1.22007 18.75 0 17.5299 0 16.0287L0 2.72134C0 1.22007 1.22007 0 2.72134 0L16.0287 0C17.5299 0 18.75 1.22007 18.75 2.72134L18.75 16.0287Z" fill="black"/>
<path d="M12.0106 11.7192C11.9381 11.7192 11.8065 11.76 11.8065 11.76C11.1761 12.0503 10.532 12.1954 9.87893 12.1954C9.01717 12.1954 8.30962 11.9324 7.75629 11.4108C7.20295 10.8847 6.92628 10.2179 6.92628 9.40153C6.92628 8.59421 7.20748 7.92294 7.76989 7.38321C8.3323 6.84802 9.03985 6.57588 9.888 6.57588C10.4867 6.57588 11.0899 6.69834 11.7068 6.95687C11.7748 6.98862 11.8564 7.01583 11.9335 7.01583C12.2102 7.01583 12.437 6.78905 12.437 6.51238C12.437 6.29921 12.2556 6.09965 12.115 6.04522C11.2895 5.7232 10.5275 5.56445 9.83811 5.56445C8.70875 5.56445 7.75629 5.93183 6.98524 6.67113C6.2142 7.41043 5.82867 8.31754 5.82867 9.397C5.82867 10.0773 5.99649 10.7123 6.33212 11.2929C6.66775 11.8779 7.12584 12.336 7.70186 12.6717C8.27788 13.0028 8.98089 13.1706 9.81089 13.1706C10.6863 13.1706 11.4845 13.0073 12.183 12.6943C12.3871 12.6172 12.5141 12.4222 12.5141 12.2181C12.5186 11.946 12.2918 11.7192 12.0106 11.7192Z" fill="white"/>
</svg>
