<svg width="112" height="112" viewBox="0 0 112 112" fill="none" xmlns="http://www.w3.org/2000/svg">
<path d="M35.3535 69.3978H11.4899V86.8061H35.3535V69.3978Z" fill="#FE7F41"/>
<path d="M37.1799 90.1109L20.6816 75.948H37.1797L37.1799 90.1109Z" fill="#FE7F41"/>
<path d="M93.5099 62.2405C93.5099 82.2842 77.286 98.5328 57.2727 98.5328C37.2593 98.5328 21.0354 82.2842 21.0354 62.2405C21.0354 42.197 37.2593 25.9484 57.2727 25.9484C77.286 25.9484 93.5099 42.197 93.5099 62.2405Z" fill="#45D19D"/>
<path d="M57.2743 98.5328C77.2847 98.5328 93.5099 82.2796 93.5099 62.2358C93.5099 57.7278 92.6473 53.4302 91.1511 49.445C91.0715 49.5023 91.0238 49.582 90.9283 49.6268C87.0702 51.3898 81.8082 49.2793 81.1045 48.3387C80.401 47.4046 81.5726 45.4119 81.1045 43.5374C80.6398 41.6628 78.8826 42.7149 78.1823 42.7149C77.4788 42.7149 77.0109 46.5821 75.4892 47.0475C73.9708 47.5194 71.5133 44.1209 70.3354 42.8328C69.1608 41.5448 71.2809 38.972 72.2168 36.9794C73.1526 34.9868 69.6414 35.1047 70.4628 33.6987C71.0103 32.7583 75.1614 32.4842 77.8735 32.398C72.0225 28.3459 64.9302 25.9484 57.2743 25.9484C48.2909 25.9484 40.0876 29.2418 33.7527 34.6648C37.1461 36.0644 45.0186 39.7881 44.4677 43.9294C43.7674 49.2027 39.938 44.4014 38.8716 46.5055C37.8019 48.6161 42.7457 52.4833 38.8716 52.0115C34.9943 51.5429 33.4758 52.1294 34.0615 53.886C34.6473 55.6427 41.3099 54.4727 43.6529 57.4057C45.9895 60.3325 47.6894 65.4877 44.4996 70.2891C41.3131 75.0904 41.1954 76.4964 40.6096 78.253C40.0238 80.0097 34.5294 77.2009 35.112 71.695C35.6978 66.1827 32.5368 66.1827 32.0719 62.9086C31.6072 59.6279 31.3684 57.0488 29.85 56.1146C28.8982 55.528 25.4379 52.8371 23.1428 50.1305C21.8026 53.9212 21.0354 57.9892 21.0354 62.2358C21.0354 82.2796 37.2608 98.5328 57.2743 98.5328ZM57.08 58.5535C59.0537 55.0975 60.5022 55.4228 62.479 55.4228C64.4527 55.4228 66.6873 57.9254 66.9515 58.5535C67.2158 59.1879 70.6378 58.1868 73.0062 58.5535C75.3746 58.9201 77.4852 60.9573 78.402 62.7491C79.3252 64.5376 83.5366 65.44 84.8513 66.3613C86.1693 67.2889 80.9072 72.0329 80.0891 73.4836C79.2773 74.9342 82.3557 78.4954 81.2988 79.8088C80.2451 81.1287 76.0335 82.9714 74.0598 84.4285C72.0862 85.8727 69.7147 86.0033 68.6642 84.4285C67.6073 82.8407 67.5437 80.4241 67.8683 77.5103C68.228 74.3157 67.6105 72.2913 65.5032 71.1083C63.3958 69.9192 61.4222 71.239 59.7127 71.899C58 72.5527 54.9727 70.3114 54.317 67.9394C53.658 65.5738 55.1064 62.0094 57.08 58.5535Z" fill="#5B98F3"/>
<path d="M5.47978 0H54.1639V35.8584H5.47978V0Z" fill="#FE7F41"/>
<path d="M34.4209 45.1933L8.55212 22.8404H34.4209V45.1933Z" fill="#FE7F41"/>
<path d="M68.5858 41.2492H98.6362V63.3829H68.5858V41.2492Z" fill="white"/>
<path d="M73.7139 69.143L89.6815 55.3456H73.7139V69.143Z" fill="white"/>
<path d="M44.1918 68.5126H29.8736V78.9576H44.1918V68.5126Z" fill="white"/>
<path d="M42.0705 83.2066L32.1715 74.7088H42.0705V83.2066Z" fill="white"/>
<path d="M83.4342 17.8805H102.525V31.9419H83.4342V17.8805Z" fill="#5B98F3"/>
<path d="M86.692 35.6014L96.836 26.8359H86.692V35.6014Z" fill="#5B98F3"/>
<path d="M22.1235 25.0953C22.8632 24.3545 22.8642 23.1538 22.1257 22.4119L19.9972 20.2733C18.9508 19.2219 18.9521 17.5202 20.0002 16.4705L22.1224 14.3452C22.863 13.6034 22.8648 12.4015 22.1267 11.6574C21.3851 10.9099 20.1783 10.9079 19.4343 11.653L14.6271 16.4675C13.5778 17.5184 13.5778 19.2224 14.6271 20.2733L19.4418 25.0953C20.1825 25.8369 21.3829 25.8369 22.1235 25.0953Z" fill="white"/>
<path d="M38.424 25.0953C39.1645 25.8369 40.3651 25.8369 41.1056 25.0953L45.9203 20.2733C46.9696 19.2224 46.9696 17.5184 45.9203 16.4675L41.1131 11.653C40.3691 10.9079 39.1623 10.9099 38.4207 11.6574C37.6826 12.4015 37.6844 13.6034 38.425 14.3452L40.5471 16.4705C41.5953 17.5202 41.5968 19.2219 40.5503 20.2733L38.4218 22.4119C37.6834 23.1538 37.6844 24.3545 38.424 25.0953Z" fill="white"/>
<path d="M29.3059 10.8901L26.7238 25.7978C26.5458 26.8259 27.2335 27.8038 28.26 27.982C29.2863 28.1605 30.2627 27.4717 30.4409 26.4437L33.023 11.5359C33.201 10.5079 32.5133 9.53003 31.4868 9.35174C30.4604 9.17345 29.4839 9.86221 29.3059 10.8901Z" fill="white"/>
<path d="M78.818 56.8486C79.0372 56.629 79.1605 56.3313 79.1607 56.0207C79.161 55.7102 79.0382 55.4122 78.8193 55.1922L77.989 54.358C77.0759 53.4406 77.0771 51.9558 77.9917 51.04L78.8173 50.2131C79.0373 49.9927 79.1609 49.6939 79.1609 49.3822C79.1609 49.0706 79.0373 48.7717 78.8173 48.5513C78.5973 48.331 78.2988 48.2072 77.9877 48.2072C77.6765 48.2072 77.3781 48.331 77.158 48.5513L74.918 50.7947C73.8687 51.8456 73.8687 53.5496 74.918 54.6005L77.1627 56.8486C77.3823 57.0684 77.6799 57.1919 77.9904 57.1919C78.3008 57.1919 78.5985 57.0684 78.818 56.8486Z" fill="#5B98F3"/>
<path d="M88.8797 56.8486C89.0993 57.0684 89.3969 57.1918 89.7073 57.1918C90.0176 57.1918 90.3153 57.0684 90.5348 56.8486L92.7795 54.6005C93.829 53.5496 93.829 51.8456 92.7795 50.7947L90.5395 48.5513C90.4308 48.4411 90.3014 48.3535 90.1588 48.2935C90.0161 48.2336 89.8631 48.2024 89.7084 48.202C89.5537 48.2015 89.4004 48.2317 89.2574 48.2907C89.1144 48.3498 88.9845 48.4366 88.8751 48.5462C88.7657 48.6557 88.679 48.7859 88.6201 48.9291C88.5611 49.0723 88.531 49.2258 88.5315 49.3807C88.532 49.5357 88.5631 49.689 88.623 49.8318C88.6828 49.9747 88.7703 50.1043 88.8804 50.2131L89.706 51.04C90.6205 51.9558 90.6218 53.4406 89.7087 54.358L88.8784 55.1922C88.6595 55.4122 88.5367 55.7101 88.5369 56.0207C88.5372 56.3313 88.6605 56.629 88.8797 56.8486Z" fill="#5B98F3"/>
<path d="M83.251 48.0804L81.6572 57.2822C81.6044 57.587 81.6747 57.9002 81.8525 58.1531C82.0303 58.4059 82.3012 58.5777 82.6054 58.6305C82.9097 58.6834 83.2224 58.613 83.4749 58.4349C83.7274 58.2568 83.8989 57.9856 83.9516 57.6809L85.5454 48.479C85.5926 48.1767 85.5192 47.868 85.3413 47.6194C85.1633 47.3708 84.8949 47.2022 84.5939 47.1499C84.2929 47.0976 83.9835 47.1658 83.7323 47.3399C83.4811 47.5139 83.3082 47.7799 83.251 48.0804Z" fill="#5B98F3"/>
<path d="M111.01 47.0914C111.01 49.0468 109.427 50.6321 107.474 50.6321C105.522 50.6321 103.939 49.0468 103.939 47.0914C103.939 45.1359 105.522 43.5507 107.474 43.5507C109.427 43.5507 111.01 45.1359 111.01 47.0914Z" fill="#FE7F41"/>
<path d="M7.0707 57.5364C7.0707 59.4918 5.48785 61.0771 3.53535 61.0771C1.58286 61.0771 0 59.4918 0 57.5364C0 55.5809 1.58286 53.9957 3.53535 53.9957C5.48785 53.9957 7.07054 55.5809 7.07054 57.5364H7.0707Z" fill="#45D19D"/>
<path d="M108.889 83.9147C108.889 88.3144 105.327 91.8811 100.934 91.8811C96.5411 91.8811 92.9797 88.3144 92.9797 83.9147C92.9797 79.5148 96.5411 75.948 100.934 75.948C105.327 75.948 108.889 79.5148 108.889 83.9147Z" fill="#45D19D"/>
<path d="M58.7699 88.5364C57.014 87.1496 54.4586 88.5709 54.7063 90.7968L56.7183 108.884C56.9365 110.845 59.2166 111.808 60.7706 110.595L65.9944 106.517C66.2127 106.347 66.4575 106.214 66.7189 106.123L72.3161 104.182C74.1977 103.53 74.6154 101.052 73.052 99.8173L58.7699 88.5364Z" fill="#FE7F41"/>
<path d="M85.7322 97.1923H91.7423V103.211H85.7322V97.1923Z" fill="#5B98F3"/>
<path d="M9.89902 47.9764H15.9092V53.9957H9.89902V47.9764Z" fill="#5B98F3"/>
</svg>
