<svg width="215" height="36" viewBox="0 0 215 36" fill="none" xmlns="http://www.w3.org/2000/svg">
<path d="M25.9352 23.2554L25.9803 23.389C25.8321 27.1724 24.7106 30.0615 22.616 32.0562C20.5213 34.0509 17.4824 35.0482 13.5009 35.0482C9.51947 35.0482 6.255 33.8225 3.75268 31.3677C1.25036 28.9146 0 25.7295 0 21.8125V15.0724C0 11.1715 1.20202 7.98965 3.60766 5.52847C6.01331 3.06728 9.14081 1.83829 12.9902 1.83829C17.0764 1.83829 20.1991 2.8662 22.3614 4.92041C24.5221 6.97462 25.7435 9.89426 26.0255 13.6777L25.982 13.8112H18.6764C18.5717 11.712 18.1028 10.1532 17.2665 9.13338C16.4303 8.11352 15.0059 7.60359 12.9918 7.60359C11.2887 7.60359 9.94968 8.28725 8.97163 9.65458C7.99519 11.0219 7.50536 12.8139 7.50536 15.0306V21.8141C7.50536 24.0453 8.03869 25.8485 9.10375 27.2239C10.1688 28.5977 11.6351 29.2862 13.5009 29.2862C15.3668 29.2862 16.5882 28.8068 17.3422 27.8448C18.0963 26.8845 18.5265 25.3547 18.6297 23.2554H25.9352V23.2554Z" fill="#5B98F3"/>
<path d="M47.143 26.0277C47.143 24.8904 46.766 24.0105 46.0103 23.3896C45.2546 22.7687 43.9011 22.1107 41.9466 21.4158C37.8604 20.1305 34.8328 18.7519 32.8654 17.2817C30.8964 15.8114 29.9119 13.6864 29.9119 10.9083C29.9119 8.13023 31.0849 6.01651 33.431 4.34676C35.777 2.67701 38.7563 1.84214 42.3688 1.84214C45.9813 1.84214 48.8864 2.76227 51.1728 4.60253C53.4592 6.44279 54.5662 8.81067 54.4921 11.7078L54.4485 11.8413H47.1656C47.1656 10.556 46.7289 9.51043 45.8556 8.70451C44.9823 7.9002 43.7754 7.49643 42.2366 7.49643C40.6979 7.49643 39.5426 7.82942 38.6838 8.49378C37.8249 9.15814 37.3963 9.97853 37.3963 10.955C37.3963 11.9314 37.8298 12.6585 38.695 13.2279C39.5603 13.7974 41.1861 14.51 43.5692 15.3674C47.2397 16.4613 50.0046 17.8061 51.8624 19.4018C53.7203 20.9976 54.65 23.1933 54.65 25.9859C54.65 28.7785 53.543 31.045 51.3307 32.6472C49.1168 34.251 46.1827 35.0521 42.5267 35.0521C38.8707 35.0521 35.6803 34.1319 33.0008 32.2917C30.3212 30.4514 29.0177 27.802 29.0918 24.3435L29.1369 24.21H36.4425C36.4425 26.0728 36.9452 27.4015 37.9522 28.201C38.9593 28.9988 40.4836 29.3978 42.5267 29.3978C44.0816 29.3978 45.2401 29.0873 46.0022 28.4664C46.7643 27.8455 47.1462 27.0331 47.1462 26.0277H47.143Z" fill="#5B98F3"/>
<path d="M78.8965 20.7723H66.2173V28.8186H81.1619V34.5823H58.6894V2.30535H81.2054V8.06903H66.2173V15.0086H78.8965V20.7723V20.7723Z" fill="#FE7F41"/>
<path d="M82.7377 22.6349C82.7377 18.8964 83.5563 15.8803 85.1917 13.5896C86.8272 11.2989 89.1329 10.1536 92.109 10.1536C93.2191 10.1536 94.2214 10.4078 95.1188 10.9193C96.0147 11.4292 96.8171 12.1563 97.5277 13.1022V0H105.033V34.5837H98.5267L97.9934 31.6351C97.2538 32.7434 96.3901 33.5896 95.4057 34.1735C94.4212 34.7574 93.3078 35.0486 92.0638 35.0486C89.1023 35.0486 86.8078 33.9547 85.1804 31.767C83.5514 29.5809 82.7377 26.6902 82.7377 23.0998V22.6349V22.6349ZM90.2431 23.0998C90.2431 25.051 90.5283 26.5696 91.0971 27.6554C91.6675 28.7412 92.6262 29.2849 93.9732 29.2849C94.7579 29.2849 95.4492 29.1401 96.0502 28.8522C96.6496 28.5642 97.141 28.1396 97.5261 27.5766V17.8894C97.141 17.254 96.6528 16.7666 96.0598 16.4256C95.4669 16.0862 94.7869 15.9157 94.0167 15.9157C92.6842 15.9157 91.7223 16.5286 91.1309 17.7559C90.538 18.9833 90.2431 20.608 90.2431 22.6333V23.0982V23.0998Z" fill="#FE7F41"/>
<path d="M136.424 23.9602H136.548L140.478 4.3431H147.207L140.335 34.2505H133.791L128.75 15.8045H128.626L123.626 34.2505H117.082L110.189 4.3431H116.937L120.867 23.9602H120.991L126.28 4.3431H131.115L136.424 23.9602V23.9602Z" fill="#45D19D"/>
<path d="M158.913 34.6832C155.634 34.6832 153.019 33.6553 151.064 31.6027C149.11 29.5485 148.132 26.9747 148.132 23.8797V23.0995C148.132 19.7182 149.02 16.9546 150.797 14.8103C152.572 12.6676 155.113 11.6027 158.42 11.6156C161.438 11.6156 163.803 12.5196 165.519 14.3277C167.234 16.1358 168.091 18.5873 168.091 21.6823V25.3178H155.374L155.334 25.4417C155.486 26.579 155.951 27.5136 156.733 28.2455C157.514 28.9774 158.557 29.3442 159.86 29.3442C161.164 29.3442 162.23 29.2412 163.018 29.0353C163.806 28.831 164.805 28.4739 166.012 27.9672L167.659 32.1995C166.684 32.9121 165.427 33.5041 163.884 33.9754C162.34 34.4483 160.684 34.6848 158.914 34.6848L158.913 34.6832ZM158.418 16.9562C157.418 16.9562 156.665 17.3117 156.166 18.0243C155.665 18.737 155.36 19.6876 155.25 20.8796L155.312 20.9826H161.299V20.4485C161.299 19.3257 161.066 18.4635 160.6 17.8603C160.133 17.2586 159.406 16.9562 158.418 16.9562V16.9562Z" fill="#45D19D"/>
<path d="M181.195 34.6832C177.916 34.6832 175.301 33.6553 173.347 31.6027C171.392 29.5485 170.414 26.9747 170.414 23.8797V23.0995C170.414 19.7182 171.302 16.9546 173.079 14.8103C174.855 12.6676 177.396 11.6027 180.702 11.6156C183.72 11.6156 186.086 12.5196 187.802 14.3277C189.516 16.1358 190.373 18.5873 190.373 21.6823V25.3178H177.657L177.617 25.4417C177.768 26.579 178.234 27.5136 179.015 28.2455C179.797 28.9774 180.839 29.3442 182.143 29.3442C183.446 29.3442 184.513 29.2412 185.301 29.0353C186.089 28.831 187.088 28.4739 188.295 27.9672L189.941 32.1995C188.967 32.9121 187.71 33.5041 186.166 33.9754C184.622 34.4483 182.966 34.6848 181.197 34.6848L181.195 34.6832ZM180.701 16.9562C179.7 16.9562 178.948 17.3117 178.448 18.0243C177.947 18.737 177.642 19.6876 177.533 20.8796L177.594 20.9826H183.582V20.4485C183.582 19.3257 183.348 18.4635 182.882 17.8603C182.415 17.2586 181.688 16.9562 180.701 16.9562V16.9562Z" fill="#45D19D"/>
<path d="M201.443 25.4191H200.27V34.252H193.315V2.2067H200.27V20.1798H201.195L205.948 12.0257H213.911L206.997 22.0699L215 34.2504H207.079L201.441 25.4175L201.443 25.4191Z" fill="#45D19D"/>
</svg>
