<svg width="375" height="449" viewBox="0 0 375 449" fill="none" xmlns="http://www.w3.org/2000/svg">
<g clip-path="url(#clip0_1468_525)">
<rect width="375" height="449" fill="#121212"/>
<path d="M305.681 59.1972C265.733 55.3087 253 -13.8145 320.5 -36.3143C388 -58.8142 363.995 -39.5145 384.844 -30C445.086 -2.50915 384.844 139.561 384.844 139.561C357.464 142.154 337.744 140.815 323.38 115.323C309.017 89.8312 345.629 63.0858 305.681 59.1972Z" fill="#9D52BA"/>
<path d="M23.1303 36.1541C12.3414 36.1541 11.2253 48 0.06427 48C-40.8519 48 -79.2538 -20.3391 8.79289 -53.8258C43.4732 -67.0157 135.017 -71.5294 168.128 -50.5079C182.009 -41.6952 166.13 18.3226 121.764 18.3226C99.4421 18.3226 102.046 9.27017 82.7006 12.1398C66.7668 14.5034 63.7924 39.9581 47.8107 41.9563C31.829 43.9546 33.9193 36.1541 23.1303 36.1541Z" fill="#F35A5A"/>
<path d="M-10 26.074C-10 26.074 10.0109 49.7957 26.942 47.9875C55.1183 44.9784 58.4986 -16.4042 83.6343 -17.9328C106.849 -19.3445 112.981 22.1207 136.546 22.074C171.744 22.0043 198.906 -51 198.906 -51" stroke="white"/>
<path d="M381.51 187.31C363.721 187.829 325.273 143 331.312 127.725C335.173 117.959 345.491 116.361 348.329 106.903C353.627 89.2417 327.871 77.347 334.678 60.3772C349.939 22.3336 238.698 68.1855 238.698 -31.8042" stroke="white"/>
<g opacity="0.6">
<mask id="mask0_1468_525" style="mask-type:alpha" maskUnits="userSpaceOnUse" x="335" y="91" width="64" height="73">
<rect x="372.5" y="91.7897" width="1.30208" height="71.3542" fill="white"/>
<rect x="372.5" y="91.7897" width="1.30208" height="71.3542" fill="white"/>
<rect x="368.333" y="91.7897" width="1.30208" height="71.3542" fill="white"/>
<rect x="368.333" y="91.7897" width="1.30208" height="71.3542" fill="white"/>
<rect x="364.167" y="91.7897" width="1.30208" height="71.3542" fill="white"/>
<rect x="364.167" y="91.7897" width="1.30208" height="71.3542" fill="white"/>
<rect x="360" y="91.7897" width="1.30208" height="71.3542" fill="white"/>
<rect x="360" y="91.7897" width="1.30208" height="71.3542" fill="white"/>
<rect x="355.833" y="91.7897" width="1.30208" height="71.3542" fill="white"/>
<rect x="355.833" y="91.7897" width="1.30208" height="71.3542" fill="white"/>
<rect x="351.667" y="91.7897" width="1.30208" height="71.3542" fill="white"/>
<rect x="351.667" y="91.7897" width="1.30208" height="71.3542" fill="white"/>
<rect x="347.5" y="91.7897" width="1.30208" height="71.3542" fill="white"/>
<rect x="347.5" y="91.7897" width="1.30208" height="71.3542" fill="white"/>
<rect x="343.333" y="91.7897" width="1.30208" height="71.3542" fill="white"/>
<rect x="343.333" y="91.7897" width="1.30208" height="71.3542" fill="white"/>
<rect x="339.167" y="91.7897" width="1.30208" height="71.3542" fill="white"/>
<rect x="339.167" y="91.7897" width="1.30208" height="71.3542" fill="white"/>
<rect x="335" y="91.7896" width="1.30208" height="71.3542" fill="white"/>
<rect x="335" y="91.7896" width="1.30208" height="71.3542" fill="white"/>
</mask>
<g mask="url(#mask0_1468_525)">
<circle cx="367.161" cy="127.337" r="33.2031" fill="#00FFF5"/>
</g>
</g>
<path d="M99.8306 404.908C85.506 404.908 77.4224 418.537 65.0635 411.796C38.1629 397.121 54.5006 360.045 19.5278 354.579C-18.3617 348.657 -11.5451 389.595 -13.701 411.796C-17.1554 447.368 -49.4589 482.274 -15.8547 503.183C3.3162 515.112 20.5015 509.648 44.1417 510.335C86.9247 511.578 152.443 500.851 152.443 500.851C152.443 500.851 194.902 490.785 197.671 474.362C199.589 462.985 193.056 450.257 179.826 453.7C152.443 460.828 142 459 129.367 431.662C123.578 419.135 113.676 404.908 99.8306 404.908Z" fill="#00BDC7"/>
<g opacity="0.6">
<mask id="mask1_1468_525" style="mask-type:alpha" maskUnits="userSpaceOnUse" x="-28" y="320" width="64" height="72">
<rect x="34.5001" y="320" width="1.30208" height="71.3542" fill="white"/>
<rect x="34.5001" y="320" width="1.30208" height="71.3542" fill="white"/>
<rect x="30.3334" y="320" width="1.30208" height="71.3542" fill="white"/>
<rect x="30.3334" y="320" width="1.30208" height="71.3542" fill="white"/>
<rect x="26.1667" y="320" width="1.30208" height="71.3542" fill="white"/>
<rect x="26.1667" y="320" width="1.30208" height="71.3542" fill="white"/>
<rect x="22.0001" y="320" width="1.30208" height="71.3542" fill="white"/>
<rect x="22.0001" y="320" width="1.30208" height="71.3542" fill="white"/>
<rect x="17.8334" y="320" width="1.30208" height="71.3542" fill="white"/>
<rect x="17.8334" y="320" width="1.30208" height="71.3542" fill="white"/>
<rect x="13.6667" y="320" width="1.30208" height="71.3542" fill="white"/>
<rect x="13.6667" y="320" width="1.30208" height="71.3542" fill="white"/>
<rect x="9.50006" y="320" width="1.30208" height="71.3542" fill="white"/>
<rect x="9.50006" y="320" width="1.30208" height="71.3542" fill="white"/>
<rect x="5.33337" y="320" width="1.30208" height="71.3542" fill="white"/>
<rect x="5.33337" y="320" width="1.30208" height="71.3542" fill="white"/>
<rect x="1.16669" y="320" width="1.30208" height="71.3542" fill="white"/>
<rect x="1.16669" y="320" width="1.30208" height="71.3542" fill="white"/>
</mask>
<g mask="url(#mask1_1468_525)">
<circle cx="4.1615" cy="355.547" r="33.2031" fill="#00FFF5"/>
</g>
</g>
<g opacity="0.6">
<mask id="mask2_1468_525" style="mask-type:alpha" maskUnits="userSpaceOnUse" x="116" y="-47" width="64" height="72">
<rect x="178.5" y="-46.9998" width="1.30208" height="71.3542" fill="white"/>
<rect x="178.5" y="-46.9998" width="1.30208" height="71.3542" fill="white"/>
<rect x="174.333" y="-46.9998" width="1.30208" height="71.3542" fill="white"/>
<rect x="174.333" y="-46.9998" width="1.30208" height="71.3542" fill="white"/>
<rect x="170.167" y="-46.9998" width="1.30208" height="71.3542" fill="white"/>
<rect x="170.167" y="-46.9998" width="1.30208" height="71.3542" fill="white"/>
<rect x="166" y="-46.9998" width="1.30208" height="71.3542" fill="white"/>
<rect x="166" y="-46.9998" width="1.30208" height="71.3542" fill="white"/>
<rect x="161.833" y="-46.9998" width="1.30208" height="71.3542" fill="white"/>
<rect x="161.833" y="-46.9998" width="1.30208" height="71.3542" fill="white"/>
<rect x="157.667" y="-46.9998" width="1.30208" height="71.3542" fill="white"/>
<rect x="157.667" y="-46.9998" width="1.30208" height="71.3542" fill="white"/>
<rect x="153.5" y="-46.9998" width="1.30208" height="71.3542" fill="white"/>
<rect x="153.5" y="-46.9998" width="1.30208" height="71.3542" fill="white"/>
<rect x="149.333" y="-46.9998" width="1.30208" height="71.3542" fill="white"/>
<rect x="149.333" y="-46.9998" width="1.30208" height="71.3542" fill="white"/>
<rect x="145.167" y="-46.9998" width="1.30208" height="71.3542" fill="white"/>
<rect x="145.167" y="-46.9998" width="1.30208" height="71.3542" fill="white"/>
<rect x="141" y="-46.9998" width="1.30208" height="71.3542" fill="white"/>
<rect x="141" y="-46.9998" width="1.30208" height="71.3542" fill="white"/>
<rect x="136.833" y="-46.9998" width="1.30208" height="71.3542" fill="white"/>
<rect x="136.833" y="-46.9998" width="1.30208" height="71.3542" fill="white"/>
<rect x="132.667" y="-46.9998" width="1.30208" height="71.3542" fill="white"/>
<rect x="132.667" y="-46.9998" width="1.30208" height="71.3542" fill="white"/>
<rect x="128.5" y="-46.9998" width="1.30208" height="71.3542" fill="white"/>
<rect x="128.5" y="-46.9998" width="1.30208" height="71.3542" fill="white"/>
<rect x="124.333" y="-46.9998" width="1.30208" height="71.3542" fill="white"/>
<rect x="124.333" y="-46.9998" width="1.30208" height="71.3542" fill="white"/>
<rect x="120.167" y="-46.9998" width="1.30208" height="71.3542" fill="white"/>
<rect x="120.167" y="-46.9998" width="1.30208" height="71.3542" fill="white"/>
<rect x="116" y="-47" width="1.30208" height="71.3542" fill="white"/>
<rect x="116" y="-47" width="1.30208" height="71.3542" fill="white"/>
</mask>
<g mask="url(#mask2_1468_525)">
<circle cx="148.161" cy="-11.453" r="33.2031" fill="#00FFF5"/>
</g>
</g>
<path d="M-2 347.051C-2 347.051 20.5 339 32.3597 352.667C43.7762 365.824 27.7771 385.112 38.4588 399.35C50.8195 415.826 68.6209 405.037 86.9311 412.337C103.945 419.121 110.559 438.971 128.662 438.452C142.929 438.043 148.14 417.784 162.368 419.006C180.546 420.567 198 452 198 452" stroke="white"/>
<ellipse opacity="0.3" cx="343.647" cy="359.203" rx="7.42133" ry="6.85063" transform="rotate(11.5996 343.647 359.203)" fill="#00BDC7"/>
<ellipse opacity="0.3" cx="224" cy="430.5" rx="4" ry="3.5" fill="#9D52BA"/>
<ellipse opacity="0.3" cx="94.5" cy="388" rx="6.5" ry="6" fill="#F35A5A"/>
<ellipse opacity="0.3" cx="110.125" cy="393.269" rx="3.93732" ry="4.20886" transform="rotate(-60.1732 110.125 393.269)" fill="#F35A5A"/>
<ellipse opacity="0.3" cx="121.258" cy="401.008" rx="2.30808" ry="2.44385" transform="rotate(-15.9841 121.258 401.008)" fill="#F35A5A"/>
<ellipse opacity="0.3" cx="6.38714" cy="5.46147" rx="6.38714" ry="5.46147" transform="matrix(-0.951419 -0.307898 -0.307898 0.951419 90.5169 45.1204)" fill="#9D52BA"/>
<ellipse opacity="0.3" cx="94.3429" cy="39.4479" rx="3.05472" ry="2.68445" transform="rotate(-16.6682 94.3429 39.4479)" fill="#9D52BA"/>
<ellipse opacity="0.3" cx="219.516" cy="10.3012" rx="2.64238" ry="3.53176" transform="rotate(71.2023 219.516 10.3012)" fill="#00BDC7"/>
</g>
<defs>
<clipPath id="clip0_1468_525">
<rect width="375" height="449" fill="white"/>
</clipPath>
</defs>
</svg>
