<svg width="375" height="449" viewBox="0 0 375 449" fill="none" xmlns="http://www.w3.org/2000/svg">
<g clip-path="url(#clip0_1275_1039)">
<rect width="375" height="449" fill="white"/>
<rect y="-47" width="375" height="496" fill="#F6F6F6"/>
<path d="M341.681 59.1972C301.733 55.3087 289 -13.8145 356.5 -36.3143C424 -58.8142 398.384 -30.4926 398.384 -30.4926L414.844 139.561C387.464 142.154 367.744 140.815 353.38 115.323C339.017 89.8311 381.629 63.0858 341.681 59.1972Z" fill="#B3DDDB"/>
<path d="M23.1303 31.1541C12.3414 31.1541 11.2253 53 0.06427 53C-40.8519 53 -79.2538 -15.3391 8.79289 -48.8258C43.4732 -62.0157 135.017 -66.5294 168.128 -45.5079C182.009 -36.6952 166.13 23.3226 121.764 23.3226C99.4421 23.3226 102.046 14.2702 82.7006 17.1398C66.7668 19.5034 63.7924 34.9581 47.8107 36.9563C31.829 38.9546 33.9193 31.1541 23.1303 31.1541Z" fill="#F2BE6A"/>
<path d="M-10 31.074C-10 31.074 15.0109 44.7957 31.942 42.9875C60.1183 39.9784 58.4986 -6.40424 83.6343 -7.93278C106.849 -9.34453 112.981 31.1207 136.546 31.074C171.744 31.0043 198.906 -46 198.906 -46" stroke="#4D4761" stroke-width="0.520833"/>
<path d="M381.51 167.31C381.51 167.31 357.781 145.167 361.312 127.725C363.285 117.982 375.491 116.361 378.329 106.903C383.627 89.2417 357.871 77.347 364.678 60.3772C379.939 22.3336 268.698 68.1855 268.698 -31.8042" stroke="#4D4761" stroke-width="0.520833"/>
<g opacity="0.6">
<mask id="mask0_1275_1039" style="mask-type:alpha" maskUnits="userSpaceOnUse" x="351" y="91" width="65" height="73">
<rect x="372.344" y="91.7896" width="1.30208" height="71.3542" fill="white"/>
<rect x="372.344" y="91.7896" width="1.30208" height="71.3542" fill="white"/>
<rect x="368.177" y="91.7896" width="1.30208" height="71.3542" fill="white"/>
<rect x="368.177" y="91.7896" width="1.30208" height="71.3542" fill="white"/>
<rect x="364.01" y="91.7896" width="1.30208" height="71.3542" fill="white"/>
<rect x="364.01" y="91.7896" width="1.30208" height="71.3542" fill="white"/>
<rect x="359.844" y="91.7896" width="1.30208" height="71.3542" fill="white"/>
<rect x="359.844" y="91.7896" width="1.30208" height="71.3542" fill="white"/>
<rect x="355.677" y="91.7896" width="1.30208" height="71.3542" fill="white"/>
<rect x="355.677" y="91.7896" width="1.30208" height="71.3542" fill="white"/>
<rect x="351.51" y="91.7896" width="1.30208" height="71.3542" fill="white"/>
<rect x="351.51" y="91.7896" width="1.30208" height="71.3542" fill="white"/>
</mask>
<g mask="url(#mask0_1275_1039)">
<circle cx="383.672" cy="127.336" r="33.2031" fill="white"/>
<circle cx="383.672" cy="127.336" r="33.2031" fill="white"/>
</g>
</g>
<path d="M87.8306 404.908C73.506 404.908 65.4224 418.537 53.0635 411.796C26.1629 397.121 42.5006 360.045 7.52776 354.579C-30.3617 348.657 -23.5451 389.595 -25.701 411.796C-29.1554 447.368 -61.4589 482.274 -27.8547 503.183C-8.6838 515.112 8.50154 509.648 32.1417 510.335C74.9247 511.578 140.443 500.851 140.443 500.851C140.443 500.851 182.902 490.785 185.671 474.362C187.589 462.985 181.056 450.257 167.826 453.7C140.443 460.828 130 459 117.367 431.662C111.578 419.135 101.676 404.908 87.8306 404.908Z" fill="#F87269"/>
<g opacity="0.6">
<mask id="mask1_1275_1039" style="mask-type:alpha" maskUnits="userSpaceOnUse" x="-46" y="315" width="64" height="72">
<rect x="16.5" y="315" width="1.30208" height="71.3542" fill="white"/>
<rect x="16.5" y="315" width="1.30208" height="71.3542" fill="white"/>
<rect x="12.3335" y="315" width="1.30208" height="71.3542" fill="white"/>
<rect x="12.3335" y="315" width="1.30208" height="71.3542" fill="white"/>
<rect x="8.16675" y="315" width="1.30208" height="71.3542" fill="white"/>
<rect x="8.16675" y="315" width="1.30208" height="71.3542" fill="white"/>
<rect x="4" y="315" width="1.30208" height="71.3542" fill="white"/>
<rect x="4" y="315" width="1.30208" height="71.3542" fill="white"/>
<rect x="-0.166504" y="315" width="1.30208" height="71.3542" fill="white"/>
<rect x="-0.166504" y="315" width="1.30208" height="71.3542" fill="white"/>
</mask>
<g mask="url(#mask1_1275_1039)">
<circle cx="-13.8384" cy="350.547" r="33.2031" fill="white"/>
<circle cx="-13.8384" cy="350.547" r="33.2031" fill="white"/>
</g>
</g>
<g opacity="0.6">
<mask id="mask2_1275_1039" style="mask-type:alpha" maskUnits="userSpaceOnUse" x="-16" y="15" width="64" height="72">
<rect x="46.5" y="15" width="1.30208" height="71.3542" fill="white"/>
<rect x="46.5" y="15" width="1.30208" height="71.3542" fill="white"/>
<rect x="42.3335" y="15" width="1.30208" height="71.3542" fill="white"/>
<rect x="42.3335" y="15" width="1.30208" height="71.3542" fill="white"/>
<rect x="38.1667" y="15" width="1.30208" height="71.3542" fill="white"/>
<rect x="38.1667" y="15" width="1.30208" height="71.3542" fill="white"/>
<rect x="34" y="15" width="1.30208" height="71.3542" fill="white"/>
<rect x="34" y="15" width="1.30208" height="71.3542" fill="white"/>
<rect x="29.8335" y="15" width="1.30208" height="71.3542" fill="white"/>
<rect x="29.8335" y="15" width="1.30208" height="71.3542" fill="white"/>
<rect x="25.6667" y="15" width="1.30208" height="71.3542" fill="white"/>
<rect x="25.6667" y="15" width="1.30208" height="71.3542" fill="white"/>
<rect x="21.5" y="15" width="1.30208" height="71.3542" fill="white"/>
<rect x="21.5" y="15" width="1.30208" height="71.3542" fill="white"/>
<rect x="17.3335" y="15" width="1.30208" height="71.3542" fill="white"/>
<rect x="17.3335" y="15" width="1.30208" height="71.3542" fill="white"/>
<rect x="13.1667" y="15" width="1.30208" height="71.3542" fill="white"/>
<rect x="13.1667" y="15" width="1.30208" height="71.3542" fill="white"/>
<rect x="9" y="15" width="1.30208" height="71.3542" fill="white"/>
<rect x="9" y="15" width="1.30208" height="71.3542" fill="white"/>
<rect x="4.8335" y="15" width="1.30208" height="71.3542" fill="white"/>
<rect x="4.8335" y="15" width="1.30208" height="71.3542" fill="white"/>
<rect x="0.666748" y="15" width="1.30208" height="71.3542" fill="white"/>
<rect x="0.666748" y="15" width="1.30208" height="71.3542" fill="white"/>
</mask>
<g mask="url(#mask2_1275_1039)">
<circle cx="16.1616" cy="50.5469" r="33.2031" fill="white"/>
<circle cx="16.1616" cy="50.5469" r="33.2031" fill="white"/>
</g>
</g>
<path d="M-5 347.051C-5 347.051 12.253 346.072 20.3597 352.667C33.8717 363.661 15.7771 385.112 26.4588 399.35C38.8195 415.826 56.6209 405.037 74.9311 412.337C91.9451 419.121 98.5585 438.971 116.662 438.452C130.929 438.043 136.14 417.784 150.368 419.006C168.546 420.567 186 452 186 452" stroke="#4D4761" stroke-width="0.520833"/>
<g opacity="0.3">
<ellipse cx="24.6909" cy="439.752" rx="2.15794" ry="1.31975" transform="rotate(27.6882 24.6909 439.752)" fill="#F2BE6A"/>
<ellipse cx="16.1469" cy="432.039" rx="2.5176" ry="1.53971" transform="rotate(27.6882 16.1469 432.039)" fill="#F2BE6A"/>
<ellipse cx="23.251" cy="428.563" rx="2.15794" ry="1.31975" transform="rotate(27.6882 23.251 428.563)" fill="#F2BE6A"/>
<ellipse cx="-1.14548" cy="417.003" rx="1.79828" ry="1.09979" transform="rotate(27.6882 -1.14548 417.003)" fill="#F2BE6A"/>
<ellipse cx="4.27298" cy="426.802" rx="1.79828" ry="1.09979" transform="rotate(27.6882 4.27298 426.802)" fill="#F2BE6A"/>
<ellipse cx="13.5131" cy="438.606" rx="2.5176" ry="1.53971" transform="rotate(27.6882 13.5131 438.606)" fill="#F2BE6A"/>
<ellipse cx="11.7861" cy="422.547" rx="2.15794" ry="1.31975" transform="rotate(27.6882 11.7861 422.547)" fill="#F2BE6A"/>
<ellipse cx="0.972645" cy="404.453" rx="2.15794" ry="1.31975" transform="rotate(27.6882 0.972645 404.453)" fill="#F2BE6A"/>
<ellipse cx="1.01439" cy="433.786" rx="2.15794" ry="1.31975" transform="rotate(27.6882 1.01439 433.786)" fill="#F2BE6A"/>
<ellipse cx="1.70458" cy="410.798" rx="2.15794" ry="1.31975" transform="rotate(27.6882 1.70458 410.798)" fill="#F2BE6A"/>
<ellipse cx="13.3383" cy="414.17" rx="2.5176" ry="1.53971" transform="rotate(27.6882 13.3383 414.17)" fill="#F2BE6A"/>
<ellipse cx="9.39814" cy="404.651" rx="2.5176" ry="1.53971" transform="rotate(27.6882 9.39814 404.651)" fill="#F2BE6A"/>
<ellipse cx="23.1826" cy="410.891" rx="1.79828" ry="1.09979" transform="rotate(27.6882 23.1826 410.891)" fill="#F2BE6A"/>
<ellipse cx="32.1712" cy="420.078" rx="1.79828" ry="1.09979" transform="rotate(27.6882 32.1712 420.078)" fill="#F2BE6A"/>
<ellipse cx="34.1887" cy="427.844" rx="2.15794" ry="1.31975" transform="rotate(27.6882 34.1887 427.844)" fill="#F2BE6A"/>
<ellipse cx="21.2217" cy="420.046" rx="2.15794" ry="1.31975" transform="rotate(27.6882 21.2217 420.046)" fill="#F2BE6A"/>
<ellipse cx="30.9536" cy="436.331" rx="1.79828" ry="1.09979" transform="rotate(27.6882 30.9536 436.331)" fill="#F2BE6A"/>
</g>
<ellipse opacity="0.3" cx="328.647" cy="360.203" rx="7.42133" ry="6.85063" transform="rotate(11.5996 328.647 360.203)" fill="#F2BE6A"/>
<ellipse opacity="0.3" cx="207" cy="430.5" rx="4" ry="3.5" fill="#B3DDDB"/>
<ellipse opacity="0.3" cx="269.841" cy="394.469" rx="7.96213" ry="5.9103" transform="rotate(-16.7922 269.841 394.469)" fill="#B3DDDB"/>
<g opacity="0.5">
<path d="M256.405 386.115C236.807 413.163 229.874 439.104 249.983 433.309C262.953 429.572 277.762 409.658 291.288 389.801C300.424 376.388 306.983 352.943 297.851 351.357C289.024 349.824 275.108 360.304 256.405 386.115Z" stroke="#B3DDDB" stroke-width="2"/>
<path d="M230.454 374.214C244.151 359.668 322.381 399.739 307.134 421.056C296.194 436.352 217.5 387.969 230.454 374.214Z" stroke="#B3DDDB" stroke-width="2"/>
<path d="M313.661 386.485C307.18 399.394 241.684 417.378 229.251 406.974C220.801 399.904 252.464 386.485 264.781 382.867C290.746 375.241 319.977 373.904 313.661 386.485Z" stroke="#B3DDDB" stroke-width="2"/>
</g>
<ellipse opacity="0.3" rx="8.5" ry="7.5" transform="matrix(-1 0 0 1 29.5 140.5)" fill="#B3DDDB"/>
<g opacity="0.3">
<path d="M41.1875 100.127C41.8763 100.563 42.0819 101.474 41.6466 102.163L34.3196 113.757L46.2337 119.445C46.9691 119.796 47.2806 120.677 46.9295 121.412C46.5785 122.148 45.6978 122.459 44.9624 122.108L32.5153 116.166M41.1875 100.127L32.5153 116.166M41.1875 100.127C40.4987 99.6921 39.5874 99.8976 39.1521 100.586M41.1875 100.127L39.1521 100.586M32.5153 116.166C31.2038 115.54 30.7332 113.909 31.5096 112.68L39.1521 100.586M32.5153 116.166L39.9559 101.094L39.1521 100.586" fill="#F2BE6A" stroke="#F2BE6A" stroke-width="2" stroke-linecap="round" stroke-linejoin="round"/>
<path d="M60.9204 94.8402C60.5416 95.5616 60.8192 96.4535 61.5406 96.8324L73.6831 103.21L66.2092 114.093C65.7479 114.765 65.9185 115.683 66.5902 116.144C67.2619 116.606 68.1803 116.435 68.6416 115.763L76.4499 104.394M60.9204 94.8402L76.4499 104.394M60.9204 94.8402C61.2993 94.1188 62.1913 93.8411 62.9127 94.22M60.9204 94.8402L62.9127 94.22M76.4499 104.394C77.2727 103.196 76.8647 101.548 75.5781 100.872L62.9127 94.22M76.4499 104.394L62.4706 95.0618L62.9127 94.22" fill="#F2BE6A" stroke="#F2BE6A" stroke-width="2" stroke-linecap="round" stroke-linejoin="round"/>
<path d="M51.4547 121.872L53.8837 108.097L56.3127 94.3208" stroke="#F2BE6A" stroke-width="2" stroke-linecap="round"/>
</g>
<g opacity="0.3">
<path d="M231.11 34.7958C240.283 39.1204 243.312 43.7724 250.944 53.9735C247.576 41.4052 239.869 32.4488 230.721 28.7763C224.719 26.3669 213.726 24.7612 214.949 29.329C215.918 32.9449 222.395 30.6879 231.11 34.7958Z" fill="#B3DDDB"/>
<path d="M255.833 54.587C259.728 31.1385 272.15 33.4022 273.138 28.936C274.055 24.7898 257.007 30.2942 255.833 54.587Z" fill="#B3DDDB"/>
<path d="M231.117 64.3037C235.4 61.424 240.596 59.9072 251.046 58.0825C222.588 56.4802 217.734 71.8112 220.377 72.236C223.364 72.7161 226.056 67.707 231.117 64.3037Z" fill="#B3DDDB"/>
<path d="M233.934 51.6623C239.519 51.8357 242.493 52.9598 249.455 55.2888C243.554 51.5921 236.995 49.6852 231.651 49.724C228.144 49.7494 224.706 51.2027 224.851 52.0686C225.102 53.5662 228.629 51.4976 233.934 51.6623Z" fill="#B3DDDB"/>
<path d="M253.826 37.5171C252.745 42.9988 253.175 46.1493 253.887 53.4556C251.604 46.8771 251.214 40.0581 252.448 34.8579C253.258 31.4462 255.444 28.4199 256.255 28.7552C257.659 29.3352 254.853 32.3101 253.826 37.5171Z" fill="#B3DDDB"/>
<path d="M194.476 16.7789L198.368 25.1752L194.527 33.5947L202.923 29.7033L211.343 33.5441L207.451 25.1478L211.292 16.7283L202.896 20.6197L194.476 16.7789Z" fill="#F2BE6A"/>
<path d="M259.018 14.1278L257.581 18.526L253.306 20.2976L257.704 21.7351L259.476 26.0096L260.913 21.6115L265.188 19.8398L260.79 18.4023L259.018 14.1278Z" fill="#B3DDDB"/>
<path d="M214.839 72.964L214.472 76.913L211.235 79.2052L215.184 79.572L217.477 82.8086L217.843 78.8595L221.08 76.5674L217.131 76.2006L214.839 72.964Z" fill="#B3DDDB"/>
</g>
<ellipse opacity="0.3" cx="82.5" cy="388" rx="6.5" ry="6" fill="#F2BE6A"/>
<ellipse opacity="0.3" cx="98.1248" cy="393.269" rx="3.93732" ry="4.20886" transform="rotate(-60.1732 98.1248 393.269)" fill="#F2BE6A"/>
<ellipse opacity="0.3" cx="109.258" cy="401.008" rx="2.30808" ry="2.44385" transform="rotate(-15.9841 109.258 401.008)" fill="#F2BE6A"/>
<ellipse opacity="0.3" rx="6.38714" ry="5.46147" transform="matrix(-0.951419 -0.307898 -0.307898 0.951419 82.7584 48.3497)" fill="#B3DDDB"/>
<ellipse opacity="0.3" cx="94.3431" cy="39.4479" rx="3.05472" ry="2.68445" transform="rotate(-16.6682 94.3431 39.4479)" fill="#B3DDDB"/>
<ellipse rx="11.4367" ry="10.8129" transform="matrix(0.715701 0.698407 0.698407 -0.715701 272.737 69.7262)" fill="#F6D3D1"/>
<ellipse rx="7.27789" ry="7.90171" transform="matrix(0.715701 0.698407 0.698407 -0.715701 298.154 83.1987)" fill="#F6D3D1"/>
<ellipse rx="5.82231" ry="5.19849" transform="matrix(0.715701 0.698407 0.698407 -0.715701 315.889 89.669)" fill="#F6D3D1"/>
<ellipse rx="2.47032" ry="3.30178" transform="matrix(0.715701 0.698407 0.698407 -0.715701 329.827 91.5394)" fill="#F6D3D1"/>
</g>
<defs>
<clipPath id="clip0_1275_1039">
<rect width="375" height="449" fill="white"/>
</clipPath>
</defs>
</svg>
