<svg width="1440" height="600" viewBox="0 0 1440 600" fill="none" xmlns="http://www.w3.org/2000/svg">
<g clip-path="url(#clip0_1149_968)">
<rect width="1440" height="600" fill="white"/>
<rect width="1440" height="600" fill="#F6F6F6"/>
<path d="M1266.85 197.735C1088.76 180.396 980.71 -18.0419 1252.84 -56.5736C1524.97 -95.1053 1519.62 -23.832 1519.62 -23.832L1593 556.079C1470.94 567.639 1383.03 561.668 1319 448C1254.97 334.332 1444.93 215.074 1266.85 197.735Z" fill="#B3DDDB"/>
<path d="M313.474 495.403C260.867 495.403 231.18 546.865 185.792 521.409C87 466 147 326 18.5627 305.362C-120.586 283.002 -95.5521 437.58 -103.47 521.409C-116.156 655.728 -234.79 787.531 -111.379 866.484C-40.9741 911.526 22.1388 890.896 108.957 893.49C266.077 898.183 506.692 838.478 506.692 838.478C506.692 838.478 662.622 800.469 672.791 738.456C679.836 695.499 655.842 647.436 607.255 660.439C515.761 684.925 396.181 790.526 368.841 709.45C352.058 659.682 421.947 646.436 421.947 596.425C421.947 544.316 364.321 495.403 313.474 495.403Z" fill="#F87269"/>
<ellipse opacity="0.3" rx="34.5" ry="29.5" transform="matrix(-0.951419 -0.307898 -0.307898 0.951419 466.5 197.5)" fill="#B3DDDB"/>
<ellipse opacity="0.3" cx="318.5" cy="458.5" rx="23.5" ry="22.5" fill="#F2BE6A"/>
<ellipse opacity="0.3" cx="375.5" cy="477.5" rx="14.5" ry="15.5" transform="rotate(-60.1732 375.5 477.5)" fill="#F2BE6A"/>
<ellipse opacity="0.3" cx="416.5" cy="506" rx="8.5" ry="9" transform="rotate(-15.9841 416.5 506)" fill="#F2BE6A"/>
<ellipse rx="27.5" ry="26" transform="matrix(0.800186 0.599752 0.599752 -0.800186 1109.6 210.699)" fill="#F6D3D1"/>
<ellipse opacity="0.3" cx="1105.04" cy="405.165" rx="14.6246" ry="13.5" transform="rotate(11.5996 1105.04 405.165)" fill="#F2BE6A"/>
<circle opacity="0.3" cx="932.5" cy="551.5" r="7.5" fill="#F2BE6A"/>
<ellipse opacity="0.3" rx="17.5" ry="16" transform="matrix(-1 0 0 1 192.5 389)" fill="#B3DDDB"/>
<ellipse opacity="0.3" cx="529.074" cy="149.416" rx="16.5" ry="14.5" transform="rotate(-16.6682 529.074 149.416)" fill="#B3DDDB"/>
<ellipse rx="17.5" ry="19" transform="matrix(0.800186 0.599752 0.599752 -0.800186 1174.4 234.899)" fill="#F6D3D1"/>
<ellipse opacity="0.3" cx="1021.29" cy="497.61" rx="15.5" ry="11.5057" transform="rotate(-16.7922 1021.29 497.61)" fill="#B3DDDB"/>
<ellipse rx="14" ry="12.5" transform="matrix(0.800186 0.599752 0.599752 -0.800186 1218.7 244.799)" fill="#F6D3D1"/>
<ellipse rx="5.94" ry="7.93928" transform="matrix(0.800186 0.599752 0.599752 -0.800186 1252.51 244.915)" fill="#F6D3D1"/>
<path d="M1153.48 535.295C1156.25 538.463 1173.71 530.225 1174.89 525.084C1176.27 519.098 1163.8 516.282 1158.32 519.098C1151.54 522.586 1150.72 532.126 1153.48 535.295Z" fill="#E8E8E8"/>
<path d="M546.739 550.774C548.903 548.713 560.316 555.972 560.724 559.754C561.2 564.157 552.347 565.216 548.785 562.772C544.376 559.746 544.576 552.835 546.739 550.774Z" fill="#E8E8E8"/>
<path d="M824.829 142.847C823.982 139.981 835.651 133.14 839.202 134.503C843.337 136.089 840.239 144.45 836.438 146.503C831.733 149.045 825.675 145.713 824.829 142.847Z" fill="#E8E8E8"/>
<path d="M143 125C85.0001 125 79 231 19 231C-200.96 231 -330.327 13.4833 143 -149C329.437 -213 729 -173 907 -71.0002C981.622 -28.2395 833.685 86.9998 727 86.9998C607 86.9998 621 43.0756 517 56.9998C431.342 68.4682 415.352 143.457 329.437 153.153C243.521 162.849 201 125 143 125Z" fill="#F2BE6A"/>
<path d="M-17 115.991C-17 115.991 83.5051 179.02 154.472 179.988C289.615 181.832 297.033 -31.6167 431.967 -39.8278C556.591 -47.4114 592.038 136.517 716.008 120.991C830.348 106.671 949 -76 949 -76" stroke="#4D4761" stroke-width="2"/>
<path d="M1450.5 541C1450.5 541 1318.26 456.372 1334 394.435C1342.79 359.841 1379.36 354.085 1392 320.501C1415.61 257.786 1318.67 215.549 1349 155.291C1417 20.2019 1097 143.425 1055 -30" stroke="#4D4761" stroke-width="2"/>
<path d="M-18 284.197C-18 284.197 54.2641 280.437 88.2185 305.752C144.814 347.947 69.0245 430.277 113.765 484.925C165.537 548.162 240.098 506.75 316.79 534.77C388.053 560.807 415.753 621.635 491.58 619.642C551.337 618.071 573.162 555.677 632.756 560.366C708.896 566.357 782 687 782 687" stroke="#4D4761" stroke-width="2"/>
<g opacity="0.5">
<path d="M995.138 481.347C956.985 534.002 943.489 584.501 982.635 573.22C1007.88 565.945 1036.71 527.178 1063.04 488.523C1080.83 462.412 1093.6 416.772 1075.82 413.684C1058.64 410.7 1031.55 431.1 995.138 481.347Z" stroke="#B3DDDB" stroke-width="2"/>
<path d="M944.617 458.179C971.281 429.864 1123.57 507.87 1093.89 549.369C1072.59 579.144 919.4 484.957 944.617 458.179Z" stroke="#B3DDDB" stroke-width="2"/>
<path d="M1106.6 482.068C1093.98 507.198 966.48 542.207 942.275 521.954C925.826 508.19 987.464 482.068 1011.44 475.025C1061.99 460.18 1118.89 457.577 1106.6 482.068Z" stroke="#B3DDDB" stroke-width="2"/>
</g>
<g opacity="0.6">
<mask id="mask0_1149_968" style="mask-type:alpha" maskUnits="userSpaceOnUse" x="-96" y="133" width="245" height="274">
<rect x="144" y="133" width="5" height="274" fill="white"/>
<rect x="144" y="133" width="5" height="274" fill="white"/>
<rect x="128" y="133" width="5" height="274" fill="white"/>
<rect x="128" y="133" width="5" height="274" fill="white"/>
<rect x="112" y="133" width="5" height="274" fill="white"/>
<rect x="112" y="133" width="5" height="274" fill="white"/>
<rect x="96" y="133" width="5" height="274" fill="white"/>
<rect x="96" y="133" width="5" height="274" fill="white"/>
<rect x="80" y="133" width="5" height="274" fill="white"/>
<rect x="80" y="133" width="5" height="274" fill="white"/>
<rect x="64" y="133" width="5" height="274" fill="white"/>
<rect x="64" y="133" width="5" height="274" fill="white"/>
<rect x="48" y="133" width="5" height="274" fill="white"/>
<rect x="48" y="133" width="5" height="274" fill="white"/>
<rect x="32" y="133" width="5" height="274" fill="white"/>
<rect x="32" y="133" width="5" height="274" fill="white"/>
<rect x="16" y="133" width="5" height="274" fill="white"/>
<rect x="16" y="133" width="5" height="274" fill="white"/>
<rect y="133" width="5" height="274" fill="white"/>
<rect y="133" width="5" height="274" fill="white"/>
</mask>
<g mask="url(#mask0_1149_968)">
<circle cx="27.5" cy="269.5" r="127.5" fill="white"/>
<circle cx="27.5" cy="269.5" r="127.5" fill="white"/>
</g>
</g>
<g opacity="0.6">
<mask id="mask1_1149_968" style="mask-type:alpha" maskUnits="userSpaceOnUse" x="1237" y="432" width="245" height="274">
<rect x="1429" y="432" width="5" height="274" fill="white"/>
<rect x="1429" y="432" width="5" height="274" fill="white"/>
<rect x="1413" y="432" width="5" height="274" fill="white"/>
<rect x="1413" y="432" width="5" height="274" fill="white"/>
<rect x="1397" y="432" width="5" height="274" fill="white"/>
<rect x="1397" y="432" width="5" height="274" fill="white"/>
<rect x="1381" y="432" width="5" height="274" fill="white"/>
<rect x="1381" y="432" width="5" height="274" fill="white"/>
<rect x="1365" y="432" width="5" height="274" fill="white"/>
<rect x="1365" y="432" width="5" height="274" fill="white"/>
<rect x="1349" y="432" width="5" height="274" fill="white"/>
<rect x="1349" y="432" width="5" height="274" fill="white"/>
<rect x="1333" y="432" width="5" height="274" fill="white"/>
<rect x="1333" y="432" width="5" height="274" fill="white"/>
<rect x="1317" y="432" width="5" height="274" fill="white"/>
<rect x="1317" y="432" width="5" height="274" fill="white"/>
<rect x="1301" y="432" width="5" height="274" fill="white"/>
<rect x="1301" y="432" width="5" height="274" fill="white"/>
<rect x="1285" y="432" width="5" height="274" fill="white"/>
<rect x="1285" y="432" width="5" height="274" fill="white"/>
<rect x="1269" y="432" width="5" height="274" fill="white"/>
<rect x="1269" y="432" width="5" height="274" fill="white"/>
<rect x="1253" y="432" width="5" height="274" fill="white"/>
<rect x="1253" y="432" width="5" height="274" fill="white"/>
<rect x="1237" y="432" width="5" height="274" fill="white"/>
<rect x="1237" y="432" width="5" height="274" fill="white"/>
</mask>
<g mask="url(#mask1_1149_968)">
<circle cx="1360.5" cy="568.5" r="127.5" fill="white"/>
<circle cx="1360.5" cy="568.5" r="127.5" fill="white"/>
</g>
</g>
<g opacity="0.3">
<ellipse cx="62.0046" cy="602.87" rx="9.66757" ry="5.91249" transform="rotate(27.6882 62.0046 602.87)" fill="#F2BE6A"/>
<ellipse cx="89.2842" cy="589.523" rx="8.28649" ry="5.06785" transform="rotate(27.6882 89.2842 589.523)" fill="#F2BE6A"/>
<ellipse cx="-4.39793" cy="545.132" rx="6.90541" ry="4.22321" transform="rotate(27.6882 -4.39793 545.132)" fill="#F2BE6A"/>
<ellipse cx="16.4091" cy="582.76" rx="6.90541" ry="4.22321" transform="rotate(27.6882 16.4091 582.76)" fill="#F2BE6A"/>
<ellipse cx="45.2588" cy="566.421" rx="8.28649" ry="5.06785" transform="rotate(27.6882 45.2588 566.421)" fill="#F2BE6A"/>
<ellipse cx="3.73551" cy="496.938" rx="8.28649" ry="5.06785" transform="rotate(27.6882 3.73551 496.938)" fill="#F2BE6A"/>
<ellipse cx="6.54557" cy="521.306" rx="8.28649" ry="5.06785" transform="rotate(27.6882 6.54557 521.306)" fill="#F2BE6A"/>
<ellipse cx="51.2197" cy="534.255" rx="9.66757" ry="5.91249" transform="rotate(27.6882 51.2197 534.255)" fill="#F2BE6A"/>
<ellipse cx="36.0892" cy="497.7" rx="9.66757" ry="5.91249" transform="rotate(27.6882 36.0892 497.7)" fill="#F2BE6A"/>
<ellipse cx="89.0223" cy="521.661" rx="6.90541" ry="4.22321" transform="rotate(27.6882 89.0223 521.661)" fill="#F2BE6A"/>
<ellipse cx="123.537" cy="556.942" rx="6.90541" ry="4.22321" transform="rotate(27.6882 123.537 556.942)" fill="#F2BE6A"/>
<ellipse cx="131.285" cy="586.762" rx="8.28649" ry="5.06785" transform="rotate(27.6882 131.285 586.762)" fill="#F2BE6A"/>
<ellipse cx="81.4917" cy="556.818" rx="8.28649" ry="5.06785" transform="rotate(27.6882 81.4917 556.818)" fill="#F2BE6A"/>
</g>
<g opacity="0.3">
<path d="M217.496 307.995C218.086 307.061 217.808 305.826 216.874 305.236C215.94 304.646 214.705 304.924 214.115 305.858L198.039 331.296C196.759 333.322 197.535 336.011 199.697 337.043L225.879 349.543C226.876 350.018 228.07 349.596 228.546 348.599C229.022 347.603 228.599 346.409 227.603 345.933L201.421 333.433L217.496 307.995Z" fill="#F2BE6A" stroke="#F2BE6A" stroke-width="2" stroke-linecap="round" stroke-linejoin="round"/>
<path d="M260.788 296.395C259.81 295.881 259.434 294.672 259.947 293.694C260.461 292.717 261.67 292.34 262.648 292.854L289.289 306.846C291.41 307.96 292.082 310.677 290.726 312.652L274.302 336.568C273.676 337.478 272.431 337.709 271.521 337.084C270.61 336.459 270.379 335.214 271.004 334.303L287.429 310.387L260.788 296.395Z" fill="#F2BE6A" stroke="#F2BE6A" stroke-width="2" stroke-linecap="round" stroke-linejoin="round"/>
<path d="M239.06 350.041L244.169 321.065L249.278 292.088" stroke="#F2BE6A" stroke-width="2" stroke-linecap="round"/>
</g>
<g opacity="0.3">
<path d="M1038.54 160.301C1051.04 166.193 1055.16 172.53 1065.56 186.427C1060.97 169.305 1050.47 157.104 1038.01 152.101C1029.83 148.819 1014.86 146.631 1016.52 152.854C1017.84 157.78 1026.67 154.705 1038.54 160.301Z" fill="#B3DDDB"/>
<path d="M1072.22 187.263C1077.53 155.319 1094.45 158.403 1095.8 152.318C1097.05 146.67 1073.82 154.169 1072.22 187.263Z" fill="#B3DDDB"/>
<path d="M1038.55 200.501C1044.39 196.578 1051.46 194.511 1065.7 192.025C1026.93 189.842 1020.32 210.728 1023.92 211.307C1027.99 211.961 1031.66 205.137 1038.55 200.501Z" fill="#B3DDDB"/>
<path d="M1042.39 183.279C1050 183.515 1054.05 185.046 1063.53 188.219C1055.49 183.183 1046.56 180.585 1039.28 180.638C1034.5 180.673 1029.82 182.653 1030.01 183.832C1030.36 185.873 1035.16 183.054 1042.39 183.279Z" fill="#B3DDDB"/>
<path d="M1069.49 164.009C1068.02 171.476 1068.6 175.769 1069.57 185.722C1066.46 176.76 1065.93 167.47 1067.61 160.386C1068.71 155.738 1071.69 151.615 1072.8 152.072C1074.71 152.862 1070.89 156.915 1069.49 164.009Z" fill="#B3DDDB"/>
<path d="M988.634 135.757L993.936 147.195L988.703 158.665L1000.14 153.364L1011.61 158.596L1006.31 147.158L1011.54 135.688L1000.1 140.989L988.634 135.757Z" fill="#F2BE6A"/>
<path d="M1076.56 132.146L1074.6 138.137L1068.78 140.551L1074.77 142.509L1077.18 148.332L1079.14 142.341L1084.97 139.927L1078.97 137.969L1076.56 132.146Z" fill="#B3DDDB"/>
<path d="M1016.37 212.299L1015.87 217.679L1011.47 220.801L1016.85 221.301L1019.97 225.71L1020.47 220.33L1024.88 217.208L1019.5 216.708L1016.37 212.299Z" fill="#B3DDDB"/>
</g>
<path d="M203.543 237.177C205.849 234.87 209.59 234.87 211.896 237.177L214.533 239.814C217.708 242.988 215.492 245.373 211.564 245.928C209.89 246.165 208.222 246.674 206.978 247.819V247.819C205.734 248.963 203.99 249.712 202.507 248.9C199.267 247.127 198.243 242.477 201.185 239.534L203.543 237.177Z" fill="#E8E8E8"/>
</g>
<defs>
<clipPath id="clip0_1149_968">
<rect width="1440" height="600" fill="white"/>
</clipPath>
</defs>
</svg>
