<svg width="375" height="449" viewBox="0 0 375 449" fill="none" xmlns="http://www.w3.org/2000/svg">
<g clip-path="url(#clip0_1325_1039)">
<rect width="375" height="449" fill="white"/>
<rect y="-47" width="375" height="496" fill="#F6F6F6"/>
<path d="M305.681 59.1972C265.733 55.3087 253 -13.8145 320.5 -36.3143C388 -58.8142 363.995 -39.5145 384.844 -30C445.086 -2.50915 384.844 139.561 384.844 139.561C357.464 142.154 337.744 140.815 323.38 115.323C309.017 89.8312 345.629 63.0858 305.681 59.1972Z" fill="#B3DDDB"/>
<path d="M23.1303 36.1541C12.3414 36.1541 11.2253 48 0.06427 48C-40.8519 48 -79.2538 -20.3391 8.79289 -53.8258C43.4732 -67.0157 135.017 -71.5294 168.128 -50.5079C182.009 -41.6952 166.13 18.3226 121.764 18.3226C99.4421 18.3226 102.046 9.27017 82.7006 12.1398C66.7668 14.5034 63.7924 39.9581 47.8107 41.9563C31.829 43.9546 33.9193 36.1541 23.1303 36.1541Z" fill="#F2BE6A"/>
<path d="M-10 26.074C-10 26.074 10.0109 49.7957 26.942 47.9875C55.1183 44.9784 58.4986 -16.4042 83.6343 -17.9328C106.849 -19.3445 112.981 22.1207 136.546 22.074C171.744 22.0043 198.906 -51 198.906 -51" stroke="#4D4761" stroke-width="0.520833"/>
<path d="M381.51 187.31C363.721 187.829 325.273 143 331.312 127.725C335.173 117.959 345.491 116.361 348.329 106.903C353.627 89.2417 327.871 77.347 334.678 60.3772C349.939 22.3336 238.698 68.1855 238.698 -31.8042" stroke="#4D4761" stroke-width="0.520833"/>
<g opacity="0.6">
<mask id="mask0_1325_1039" style="mask-type:alpha" maskUnits="userSpaceOnUse" x="335" y="91" width="64" height="73">
<rect x="372.5" y="91.7897" width="1.30208" height="71.3542" fill="white"/>
<rect x="372.5" y="91.7897" width="1.30208" height="71.3542" fill="white"/>
<rect x="368.333" y="91.7897" width="1.30208" height="71.3542" fill="white"/>
<rect x="368.333" y="91.7897" width="1.30208" height="71.3542" fill="white"/>
<rect x="364.167" y="91.7897" width="1.30208" height="71.3542" fill="white"/>
<rect x="364.167" y="91.7897" width="1.30208" height="71.3542" fill="white"/>
<rect x="360" y="91.7897" width="1.30208" height="71.3542" fill="white"/>
<rect x="360" y="91.7897" width="1.30208" height="71.3542" fill="white"/>
<rect x="355.833" y="91.7897" width="1.30208" height="71.3542" fill="white"/>
<rect x="355.833" y="91.7897" width="1.30208" height="71.3542" fill="white"/>
<rect x="351.667" y="91.7897" width="1.30208" height="71.3542" fill="white"/>
<rect x="351.667" y="91.7897" width="1.30208" height="71.3542" fill="white"/>
<rect x="347.5" y="91.7897" width="1.30208" height="71.3542" fill="white"/>
<rect x="347.5" y="91.7897" width="1.30208" height="71.3542" fill="white"/>
<rect x="343.333" y="91.7897" width="1.30208" height="71.3542" fill="white"/>
<rect x="343.333" y="91.7897" width="1.30208" height="71.3542" fill="white"/>
<rect x="339.167" y="91.7897" width="1.30208" height="71.3542" fill="white"/>
<rect x="339.167" y="91.7897" width="1.30208" height="71.3542" fill="white"/>
<rect x="335" y="91.7896" width="1.30208" height="71.3542" fill="white"/>
<rect x="335" y="91.7896" width="1.30208" height="71.3542" fill="white"/>
</mask>
<g mask="url(#mask0_1325_1039)">
<circle cx="367.161" cy="127.337" r="33.2031" fill="white"/>
<circle cx="367.161" cy="127.337" r="33.2031" fill="white"/>
</g>
</g>
<path d="M99.8306 404.908C85.506 404.908 77.4224 418.537 65.0635 411.796C38.1629 397.121 54.5006 360.045 19.5278 354.579C-18.3617 348.657 -11.5451 389.595 -13.701 411.796C-17.1554 447.368 -49.4589 482.274 -15.8547 503.183C3.3162 515.112 20.5015 509.648 44.1417 510.335C86.9247 511.578 152.443 500.851 152.443 500.851C152.443 500.851 194.902 490.785 197.671 474.362C199.589 462.985 193.056 450.257 179.826 453.7C152.443 460.828 142 459 129.367 431.662C123.578 419.135 113.676 404.908 99.8306 404.908Z" fill="#F87269"/>
<g opacity="0.6">
<mask id="mask1_1325_1039" style="mask-type:alpha" maskUnits="userSpaceOnUse" x="-28" y="320" width="64" height="72">
<rect x="34.5" y="320" width="1.30208" height="71.3542" fill="white"/>
<rect x="34.5" y="320" width="1.30208" height="71.3542" fill="white"/>
<rect x="30.3334" y="320" width="1.30208" height="71.3542" fill="white"/>
<rect x="30.3334" y="320" width="1.30208" height="71.3542" fill="white"/>
<rect x="26.1667" y="320" width="1.30208" height="71.3542" fill="white"/>
<rect x="26.1667" y="320" width="1.30208" height="71.3542" fill="white"/>
<rect x="22" y="320" width="1.30208" height="71.3542" fill="white"/>
<rect x="22" y="320" width="1.30208" height="71.3542" fill="white"/>
<rect x="17.8334" y="320" width="1.30208" height="71.3542" fill="white"/>
<rect x="17.8334" y="320" width="1.30208" height="71.3542" fill="white"/>
<rect x="13.6667" y="320" width="1.30208" height="71.3542" fill="white"/>
<rect x="13.6667" y="320" width="1.30208" height="71.3542" fill="white"/>
<rect x="9.50006" y="320" width="1.30208" height="71.3542" fill="white"/>
<rect x="9.50006" y="320" width="1.30208" height="71.3542" fill="white"/>
<rect x="5.33337" y="320" width="1.30208" height="71.3542" fill="white"/>
<rect x="5.33337" y="320" width="1.30208" height="71.3542" fill="white"/>
<rect x="1.16669" y="320" width="1.30208" height="71.3542" fill="white"/>
<rect x="1.16669" y="320" width="1.30208" height="71.3542" fill="white"/>
</mask>
<g mask="url(#mask1_1325_1039)">
<circle cx="4.1615" cy="355.547" r="33.2031" fill="white"/>
<circle cx="4.1615" cy="355.547" r="33.2031" fill="white"/>
</g>
</g>
<g opacity="0.6">
<mask id="mask2_1325_1039" style="mask-type:alpha" maskUnits="userSpaceOnUse" x="116" y="-47" width="64" height="72">
<rect x="178.5" y="-46.9998" width="1.30208" height="71.3542" fill="white"/>
<rect x="178.5" y="-46.9998" width="1.30208" height="71.3542" fill="white"/>
<rect x="174.333" y="-46.9998" width="1.30208" height="71.3542" fill="white"/>
<rect x="174.333" y="-46.9998" width="1.30208" height="71.3542" fill="white"/>
<rect x="170.167" y="-46.9998" width="1.30208" height="71.3542" fill="white"/>
<rect x="170.167" y="-46.9998" width="1.30208" height="71.3542" fill="white"/>
<rect x="166" y="-46.9998" width="1.30208" height="71.3542" fill="white"/>
<rect x="166" y="-46.9998" width="1.30208" height="71.3542" fill="white"/>
<rect x="161.833" y="-46.9998" width="1.30208" height="71.3542" fill="white"/>
<rect x="161.833" y="-46.9998" width="1.30208" height="71.3542" fill="white"/>
<rect x="157.667" y="-46.9998" width="1.30208" height="71.3542" fill="white"/>
<rect x="157.667" y="-46.9998" width="1.30208" height="71.3542" fill="white"/>
<rect x="153.5" y="-46.9998" width="1.30208" height="71.3542" fill="white"/>
<rect x="153.5" y="-46.9998" width="1.30208" height="71.3542" fill="white"/>
<rect x="149.333" y="-46.9998" width="1.30208" height="71.3542" fill="white"/>
<rect x="149.333" y="-46.9998" width="1.30208" height="71.3542" fill="white"/>
<rect x="145.167" y="-46.9998" width="1.30208" height="71.3542" fill="white"/>
<rect x="145.167" y="-46.9998" width="1.30208" height="71.3542" fill="white"/>
<rect x="141" y="-46.9998" width="1.30208" height="71.3542" fill="white"/>
<rect x="141" y="-46.9998" width="1.30208" height="71.3542" fill="white"/>
<rect x="136.833" y="-46.9998" width="1.30208" height="71.3542" fill="white"/>
<rect x="136.833" y="-46.9998" width="1.30208" height="71.3542" fill="white"/>
<rect x="132.667" y="-46.9998" width="1.30208" height="71.3542" fill="white"/>
<rect x="132.667" y="-46.9998" width="1.30208" height="71.3542" fill="white"/>
<rect x="128.5" y="-46.9998" width="1.30208" height="71.3542" fill="white"/>
<rect x="128.5" y="-46.9998" width="1.30208" height="71.3542" fill="white"/>
<rect x="124.333" y="-46.9998" width="1.30208" height="71.3542" fill="white"/>
<rect x="124.333" y="-46.9998" width="1.30208" height="71.3542" fill="white"/>
<rect x="120.167" y="-46.9998" width="1.30208" height="71.3542" fill="white"/>
<rect x="120.167" y="-46.9998" width="1.30208" height="71.3542" fill="white"/>
<rect x="116" y="-47" width="1.30208" height="71.3542" fill="white"/>
<rect x="116" y="-47" width="1.30208" height="71.3542" fill="white"/>
</mask>
<g mask="url(#mask2_1325_1039)">
<circle cx="148.161" cy="-11.453" r="33.2031" fill="white"/>
<circle cx="148.161" cy="-11.453" r="33.2031" fill="white"/>
</g>
</g>
<path d="M-2 347.051C-2 347.051 20.5 339 32.3597 352.667C43.7762 365.824 27.7771 385.112 38.4588 399.35C50.8195 415.826 68.6209 405.037 86.9311 412.337C103.945 419.121 110.559 438.971 128.662 438.452C142.929 438.043 148.14 417.784 162.368 419.006C180.546 420.567 198 452 198 452" stroke="#4D4761" stroke-width="0.520833"/>
<g opacity="0.3">
<ellipse cx="36.6908" cy="439.752" rx="2.15794" ry="1.31975" transform="rotate(27.6882 36.6908 439.752)" fill="#F2BE6A"/>
<ellipse cx="28.1469" cy="432.039" rx="2.5176" ry="1.53971" transform="rotate(27.6882 28.1469 432.039)" fill="#F2BE6A"/>
<ellipse cx="35.251" cy="428.563" rx="2.15794" ry="1.31975" transform="rotate(27.6882 35.251 428.563)" fill="#F2BE6A"/>
<ellipse cx="10.8546" cy="417.003" rx="1.79828" ry="1.09979" transform="rotate(27.6882 10.8546 417.003)" fill="#F2BE6A"/>
<ellipse cx="16.2731" cy="426.802" rx="1.79828" ry="1.09979" transform="rotate(27.6882 16.2731 426.802)" fill="#F2BE6A"/>
<ellipse cx="25.5132" cy="438.606" rx="2.5176" ry="1.53971" transform="rotate(27.6882 25.5132 438.606)" fill="#F2BE6A"/>
<ellipse cx="23.7861" cy="422.547" rx="2.15794" ry="1.31975" transform="rotate(27.6882 23.7861 422.547)" fill="#F2BE6A"/>
<ellipse cx="12.9726" cy="404.452" rx="2.15794" ry="1.31975" transform="rotate(27.6882 12.9726 404.452)" fill="#F2BE6A"/>
<ellipse cx="-1.60879" cy="414.437" rx="1.79828" ry="1.09979" transform="rotate(27.6882 -1.60879 414.437)" fill="#F2BE6A"/>
<ellipse cx="2.95647" cy="423.54" rx="2.15794" ry="1.31975" transform="rotate(27.6882 2.95647 423.54)" fill="#F2BE6A"/>
<ellipse cx="13.0143" cy="433.786" rx="2.15794" ry="1.31975" transform="rotate(27.6882 13.0143 433.786)" fill="#F2BE6A"/>
<ellipse cx="2.69573" cy="407.009" rx="2.15794" ry="1.31975" transform="rotate(27.6882 2.69573 407.009)" fill="#F2BE6A"/>
<ellipse cx="13.7045" cy="410.798" rx="2.15794" ry="1.31975" transform="rotate(27.6882 13.7045 410.798)" fill="#F2BE6A"/>
<ellipse cx="25.3384" cy="414.171" rx="2.5176" ry="1.53971" transform="rotate(27.6882 25.3384 414.171)" fill="#F2BE6A"/>
<ellipse cx="21.3981" cy="404.651" rx="2.5176" ry="1.53971" transform="rotate(27.6882 21.3981 404.651)" fill="#F2BE6A"/>
<ellipse cx="35.1828" cy="410.891" rx="1.79828" ry="1.09979" transform="rotate(27.6882 35.1828 410.891)" fill="#F2BE6A"/>
<ellipse cx="44.1711" cy="420.078" rx="1.79828" ry="1.09979" transform="rotate(27.6882 44.1711 420.078)" fill="#F2BE6A"/>
<ellipse cx="46.1886" cy="427.844" rx="2.15794" ry="1.31975" transform="rotate(27.6882 46.1886 427.844)" fill="#F2BE6A"/>
<ellipse cx="33.2217" cy="420.046" rx="2.15794" ry="1.31975" transform="rotate(27.6882 33.2217 420.046)" fill="#F2BE6A"/>
<ellipse cx="42.9536" cy="436.331" rx="1.79828" ry="1.09979" transform="rotate(27.6882 42.9536 436.331)" fill="#F2BE6A"/>
</g>
<ellipse opacity="0.3" cx="343.647" cy="359.203" rx="7.42133" ry="6.85063" transform="rotate(11.5996 343.647 359.203)" fill="#F2BE6A"/>
<ellipse opacity="0.3" cx="224" cy="430.5" rx="4" ry="3.5" fill="#B3DDDB"/>
<ellipse opacity="0.3" cx="288.841" cy="393.469" rx="7.96213" ry="5.9103" transform="rotate(-16.7922 288.841 393.469)" fill="#B3DDDB"/>
<g opacity="0.5">
<path d="M275.405 385.115C255.807 412.163 248.874 438.104 268.983 432.309C281.953 428.572 296.762 408.657 310.288 388.801C319.424 375.388 325.983 351.943 316.851 350.357C308.024 348.824 294.108 359.304 275.405 385.115Z" stroke="#B3DDDB" stroke-width="2"/>
<path d="M249.454 373.214C263.151 358.669 341.381 398.739 326.134 420.057C315.194 435.352 236.5 386.969 249.454 373.214Z" stroke="#B3DDDB" stroke-width="2"/>
<path d="M332.661 385.485C326.18 398.394 260.684 416.378 248.251 405.974C239.801 398.904 271.464 385.485 283.781 381.867C309.746 374.241 338.977 372.904 332.661 385.485Z" stroke="#B3DDDB" stroke-width="2"/>
</g>
<ellipse opacity="0.3" rx="8.5" ry="7.5" transform="matrix(-1 0 0 1 27.5 157.5)" fill="#B3DDDB"/>
<g opacity="0.3">
<path d="M39.1876 117.128C39.8764 117.563 40.0819 118.474 39.6466 119.163L32.3196 130.757L44.2338 136.445C44.9691 136.796 45.2807 137.677 44.9296 138.412C44.5785 139.148 43.6978 139.459 42.9625 139.108L30.5154 133.166L30.925 132.308L30.5154 133.166C29.2038 132.54 28.7333 130.909 29.5097 129.68L37.1521 117.587M39.1876 117.128L37.9559 118.095L37.1521 117.587M39.1876 117.128C38.4987 116.692 37.5874 116.898 37.1521 117.587M39.1876 117.128L37.1521 117.587" fill="#F2BE6A" stroke="#F2BE6A" stroke-width="2" stroke-linecap="round" stroke-linejoin="round"/>
<path d="M58.9204 111.84C58.5416 112.562 58.8192 113.454 59.5406 113.832L71.6831 120.21L64.2092 131.093C63.7479 131.765 63.9185 132.683 64.5902 133.144C65.2619 133.606 66.1803 133.435 66.6416 132.764L74.4499 121.394L73.6661 120.855L74.4499 121.394C75.2727 120.196 74.8647 118.548 73.5781 117.872L60.9127 111.22M58.9204 111.84L60.4706 112.062L60.9127 111.22M58.9204 111.84C59.2993 111.119 60.1913 110.841 60.9127 111.22M58.9204 111.84L60.9127 111.22" fill="#F2BE6A" stroke="#F2BE6A" stroke-width="2" stroke-linecap="round" stroke-linejoin="round"/>
<path d="M49.4546 138.872L51.8837 125.096L54.3127 111.321" stroke="#F2BE6A" stroke-width="2" stroke-linecap="round"/>
</g>
<g opacity="0.3">
<path d="M277.471 117.69C270.368 123.701 268.789 128.542 264.448 139.394C264.448 127.457 269.151 117.69 276.386 112.264C281.132 108.704 290.492 104.671 290.493 109.009C290.493 112.443 284.217 111.981 277.471 117.69Z" fill="#B3DDDB"/>
<path d="M260.261 141.099C251.242 121.245 240.772 126.2 238.836 122.477C237.038 119.021 253.452 119.85 260.261 141.099Z" fill="#B3DDDB"/>
<path d="M284.47 143.841C279.991 142.306 275.027 142.196 265.333 143.06C290.171 134.883 298.113 147.316 295.871 148.32C293.338 149.455 289.764 145.655 284.47 143.841Z" fill="#B3DDDB"/>
<path d="M278.972 133.308C274.065 134.787 271.696 136.49 266.08 140.206C270.431 135.529 275.79 132.282 280.536 131.048C283.649 130.238 287.041 130.709 287.118 131.511C287.251 132.898 283.634 131.902 278.972 133.308Z" fill="#B3DDDB"/>
<path d="M257.986 125.496C260.246 130.097 260.613 132.991 261.717 139.634C262.178 133.263 260.904 127.127 258.576 122.812C257.048 119.981 254.393 117.818 253.753 118.308C252.647 119.155 255.84 121.125 257.986 125.496Z" fill="#B3DDDB"/>
<path d="M305.655 93.0262L304.201 101.391L309.603 107.94L301.239 106.485L294.69 111.888L296.145 103.523L290.742 96.9742L299.106 98.4289L305.655 93.0262Z" fill="#F2BE6A"/>
<path d="M247.832 106.002L250.15 109.558L254.358 110.113L250.802 112.431L250.247 116.64L247.929 113.084L243.721 112.529L247.277 110.211L247.832 106.002Z" fill="#B3DDDB"/>
<path d="M300.952 147.65L302.215 151.062L305.627 152.325L302.215 153.588L300.952 157L299.689 153.588L296.277 152.325L299.689 151.062L300.952 147.65Z" fill="#B3DDDB"/>
</g>
<ellipse opacity="0.3" cx="94.5" cy="388" rx="6.5" ry="6" fill="#F2BE6A"/>
<ellipse opacity="0.3" cx="110.125" cy="393.269" rx="3.93732" ry="4.20886" transform="rotate(-60.1732 110.125 393.269)" fill="#F2BE6A"/>
<ellipse opacity="0.3" cx="121.258" cy="401.008" rx="2.30808" ry="2.44385" transform="rotate(-15.9841 121.258 401.008)" fill="#F2BE6A"/>
<ellipse opacity="0.3" rx="6.38714" ry="5.46147" transform="matrix(-0.951419 -0.307898 -0.307898 0.951419 82.7585 48.3499)" fill="#B3DDDB"/>
<ellipse opacity="0.3" cx="94.343" cy="39.4479" rx="3.05472" ry="2.68445" transform="rotate(-16.6682 94.343 39.4479)" fill="#B3DDDB"/>
<ellipse cx="265.778" cy="94.5134" rx="8.4623" ry="8.00072" transform="rotate(158.869 265.778 94.5134)" fill="#F6D3D1"/>
<ellipse cx="306.131" cy="132.395" rx="5.3851" ry="5.84668" transform="rotate(158.869 306.131 132.395)" fill="#F6D3D1"/>
<ellipse cx="219.516" cy="10.3012" rx="2.64238" ry="3.53176" transform="rotate(71.2023 219.516 10.3012)" fill="#F6D3D1"/>
</g>
<defs>
<clipPath id="clip0_1325_1039">
<rect width="375" height="449" fill="white"/>
</clipPath>
</defs>
</svg>
