<svg enable-background="new 0 0 128 128" viewBox="0 0 128 128" xmlns="http://www.w3.org/2000/svg" xmlns:xlink="http://www.w3.org/1999/xlink"><radialGradient id="a" cx="63.6" cy="68.2251" gradientUnits="userSpaceOnUse" r="51.5312"><stop offset="0" stop-color="#fc01fc"/><stop offset="0" stop-color="#f0f"/><stop offset=".86" stop-color="#df0be2"/><stop offset="1" stop-color="#8e2698"/><stop offset="1" stop-color="#792d85"/></radialGradient><path d="m119.07 7.63c-9.23 9.37-21.36 16.97-32.89 16.67-1.1-.03-2.02.84-2.05 1.94-.01.32.06.63.19.92 5.07 10.41 16.22 20.81 26.4 19.39.47-.07.91-.31 1.21-.68 6.63-7.94 11.29-23.81 10.55-37-.09-1.1-1.06-1.92-2.16-1.82-.47.04-.92.24-1.25.58z" fill="#792d85"/><path d="m8.88 7.38c9.23 9.39 21.36 17 32.89 16.67 1.1-.03 2.02.84 2.05 1.94.01.32-.06.63-.19.92-5.07 10.41-16.22 20.81-26.4 19.39-.48-.06-.92-.31-1.23-.68-6.64-7.94-11.3-23.81-10.55-37 .08-1.1 1.05-1.93 2.15-1.84.48.04.94.25 1.28.6z" fill="#792d85"/><path d="m63.6 118.8c-25.24 0-52.47-15.83-52.47-50.57s27.23-50.58 52.47-50.58c14 0 27 4.62 36.55 13 10.4 9.23 15.92 22.26 15.92 37.55s-5.52 28.22-15.92 37.45c-9.59 8.45-22.62 13.15-36.55 13.15z" fill="url(#a)"/><path d="m107.22 38.33c4.95 8.23 7.49 17.69 7.32 27.29 0 15.26-5.51 28.17-15.89 37.38-9.57 8.4-22.57 13.09-36.48 13.09-16.3 0-33.43-6.63-43.49-20.71 9.71 16 28 23.42 45.3 23.42 13.9 0 26.9-4.69 36.47-13.09 10.39-9.21 15.89-22.12 15.89-37.38 0-11.5-3.13-21.72-9.12-30z" fill="#792d85"/><g fill="#422b0d"><path d="m46.7 102.4c-1.21.02-2.33-.64-2.9-1.7-.67-1.51-.48-3.27.5-4.6 2.2-3.4 9.5-8.7 19.7-8.7s17.5 5.3 19.7 8.7c.99 1.33 1.18 3.09.5 4.6-.57 1.06-1.69 1.72-2.9 1.7-.41-.02-.81-.08-1.2-.2-5.22-1.56-10.65-2.34-16.1-2.3-5.42-.03-10.81.75-16 2.3-.43.11-.86.18-1.3.2z"/><path d="m58.14 68.82c-2.24-2.82-11.47-8.24-14.8-9.82-1.24-.57-2.53-1.03-3.85-1.37-.24-.07-.5-.1-.75-.1-1.33.03-2.47.98-2.74 2.29-.31 1.36.39 2.76 1.67 3.32 1.57.77 4.31 2.23 7.15 3.84-2.37 1.41-3.82 3.97-3.82 6.73v1.46c0 4.14 3.36 7.5 7.5 7.5s7.5-3.36 7.5-7.5v-1.46c0-.06 0-.11 0-.17 1.07-.07 2.03-.71 2.5-1.67.49-1 .35-2.19-.36-3.05z"/><path d="m93.52 59.82c-.28-1.32-1.44-2.26-2.79-2.27-.25 0-.51.03-.75.1-1.32.33-2.61.79-3.85 1.35-3.33 1.56-12.56 7-14.8 9.8-.71.87-.83 2.07-.33 3.07.48.97 1.43 1.6 2.51 1.67v.17 1.46c0 4.14 3.36 7.5 7.5 7.5s7.5-3.36 7.5-7.5v-1.46c0-2.75-1.45-5.3-3.81-6.71 2.84-1.61 5.58-3.07 7.15-3.84 1.29-.56 2-1.97 1.67-3.34z"/></g><path d="m48.12 68.45c-1.42-.68-3.13-.08-3.82 1.34-.53 1.11-.29 2.44.6 3.3 1.42.68 3.13.08 3.82-1.34.53-1.11.29-2.44-.6-3.3z" fill="#896024"/><path d="m80.63 68.45c-1.42-.68-3.13-.08-3.82 1.34-.53 1.11-.29 2.44.6 3.3 1.42.68 3.13.08 3.82-1.34.53-1.11.29-2.44-.6-3.3z" fill="#896024"/></svg>