<svg width="46" height="75" viewBox="0 0 46 75" fill="none" xmlns="http://www.w3.org/2000/svg">
<rect x="22" y="3" width="3" height="7" fill="#BFBFBF"/>
<circle cx="23.5" cy="3.5" r="3.5" fill="#BFBFBF"/>
<circle cx="43" cy="38.4937" r="3" fill="#BFBFBF"/>
<circle cx="3" cy="38.4937" r="3" fill="#BFBFBF"/>
<path d="M3 26.33C3 17.3112 10.3112 10 19.33 10H26.67C35.6888 10 43 17.3112 43 26.33V62C43 64.2091 41.2091 66 39 66H7C4.79086 66 3 64.2091 3 62V26.33Z" fill="white"/>
<path d="M20 10C20 9.44772 20.4477 9 21 9H26C26.5523 9 27 9.44772 27 10V13H20V10Z" fill="white"/>
<rect x="6" y="30" width="34" height="16" rx="8" fill="#2E2E2E"/>
<path d="M25.4012 39C25.128 39 24.8975 39.1904 24.77 39.4321C24.4349 40.0671 23.768 40.5 23 40.5C22.232 40.5 21.5651 40.0671 21.23 39.4321C21.1025 39.1904 20.872 39 20.5988 39V39C20.2681 39 19.9919 39.2734 20.0843 39.5909C20.4029 40.6864 21.5874 41.5 23 41.5C24.4126 41.5 25.5971 40.6864 25.9157 39.5909C26.0081 39.2734 25.7319 39 25.4012 39V39Z" fill="#3CFFF8"/>
<circle cx="15" cy="38" r="2" fill="#3CFFF8"/>
<circle cx="31" cy="38" r="2" fill="#3CFFF8"/>
<path d="M34 70H13C15.4679 73.0487 19.2545 75 23.5 75C27.7455 75 31.5321 73.0487 34 70Z" fill="#3CFFF8"/>
<path fill-rule="evenodd" clip-rule="evenodd" d="M13 70H34C33.7182 70.3481 33.4193 70.6818 33.1045 71H13.8955C13.5807 70.6818 13.2818 70.3481 13 70Z" fill="#586065"/>
<path d="M9 67H37V67C37 68.6569 35.6569 70 34 70H12C10.3431 70 9 68.6569 9 67V67Z" fill="white"/>
<rect x="9" y="66" width="28" height="1" fill="#BFBFBF"/>
<rect x="9" y="66" width="28" height="1" fill="#BFBFBF"/>
<rect x="9" y="66" width="28" height="1" fill="#BFBFBF"/>
<path d="M33.742 53.9999C33.5545 53.9999 33.3856 53.8864 33.3149 53.7128L33.1679 53.3519H31.3319L31.1842 53.7145C31.1139 53.8871 30.946 53.9999 30.7597 53.9999V53.9999C30.4341 53.9999 30.2123 53.67 30.3352 53.3686L31.5711 50.3363C31.684 50.0591 31.9536 49.8779 32.2529 49.8779V49.8779C32.5522 49.8779 32.8217 50.0591 32.9347 50.3363L34.169 53.3647C34.2926 53.668 34.0695 53.9999 33.742 53.9999V53.9999ZM31.6379 52.6019H32.8619L32.2499 51.0959L31.6379 52.6019Z" fill="#BFBFBF"/>
<path d="M35.2677 54.0719C34.9557 54.0719 34.7097 53.8199 34.7097 53.5139C34.7097 53.2319 34.9557 52.9799 35.2677 52.9799C35.5617 52.9799 35.8017 53.2319 35.8017 53.5139C35.8017 53.8199 35.5617 54.0719 35.2677 54.0719Z" fill="#BFBFBF"/>
<path d="M36.87 53.9999C36.6248 53.9999 36.426 53.8011 36.426 53.5559V50.3219C36.426 50.0767 36.6248 49.8779 36.87 49.8779V49.8779C37.1152 49.8779 37.314 50.0767 37.314 50.3219V53.5559C37.314 53.8011 37.1152 53.9999 36.87 53.9999V53.9999Z" fill="#BFBFBF"/>
<path d="M38.4906 54.0719C38.1786 54.0719 37.9326 53.8199 37.9326 53.5139C37.9326 53.2319 38.1786 52.9799 38.4906 52.9799C38.7846 52.9799 39.0246 53.2319 39.0246 53.5139C39.0246 53.8199 38.7846 54.0719 38.4906 54.0719Z" fill="#BFBFBF"/>
<rect x="3" y="26" width="40" height="1" fill="#BFBFBF"/>
</svg>
