<svg width="29" height="32" viewBox="0 0 29 32" fill="none" xmlns="http://www.w3.org/2000/svg">
<path d="M6.1001 18.1635C6.1001 16.1174 7.70347 14.4 9.7751 14.4H19.2251C21.2967 14.4 22.9001 16.1174 22.9001 18.1635C22.9001 18.1635 22.8973 18.2415 22.8984 18.281C22.8995 18.3206 22.9001 18.3602 22.9001 18.4C22.9001 20.6091 21.1372 22.4 18.9626 22.4H10.0376C7.86298 22.4 6.1001 20.6091 6.1001 18.4C6.1001 18.3602 6.10067 18.3206 6.10181 18.281C6.10067 18.2421 6.1001 18.2029 6.1001 18.1635Z" fill="#292F36"/>
<path d="M16.5 2C16.5 2.74028 16.0978 3.38663 15.5 3.73244V4.83482C19.9693 5.12246 24.1694 7.34419 24.4814 11.5H4.51856C4.8306 7.34419 9.03074 5.12246 13.5 4.83482V3.73244C12.9022 3.38663 12.5 2.74028 12.5 2C12.5 0.895431 13.3954 0 14.5 0C15.6046 0 16.5 0.895431 16.5 2Z" fill="white"/>
<path fill-rule="evenodd" clip-rule="evenodd" d="M4.5 26.0003V12.5H24.5V26.0003C24.5 27.6572 23.1569 29.0003 21.5 29.0003H7.5C5.84315 29.0003 4.5 27.6572 4.5 26.0003ZM6.5 18.0283C6.5 16.1101 8.02702 14.5 10 14.5H19C20.973 14.5 22.5 16.1101 22.5 18.0283C22.5 18.0652 22.4995 18.102 22.4984 18.1385C22.4995 18.1755 22.5 18.2127 22.5 18.25C22.5 20.3211 20.8211 22 18.75 22H10.25C8.17893 22 6.5 20.3211 6.5 18.25C6.5 18.2127 6.50055 18.1755 6.50163 18.1385C6.50055 18.102 6.5 18.0652 6.5 18.0283Z" fill="white"/>
<path d="M16.5 2C16.5 3.10457 15.6046 4 14.5 4C13.3954 4 12.5 3.10457 12.5 2C12.5 0.895431 13.3954 0 14.5 0C15.6046 0 16.5 0.895431 16.5 2Z" fill="#3CFFF8"/>
<path d="M9.5 30C9.5 31.5 13 32 14.5 32C16 32 19.5 31.5 19.5 30H9.5Z" fill="#3CFFF8"/>
<path d="M11 18.0189C11 17.4528 10.5556 17 10 17C9.44444 17 9 17.4528 9 18.0189C9 18.5849 9.44444 19 10 19C10.5556 19 11 18.5849 11 18.0189Z" fill="#3CFFF8"/>
<path d="M14.4902 20C15.4746 20 16.2402 19.2969 16.2402 18.5H12.7402C12.7402 19.2969 13.5605 20 14.4902 20Z" fill="#3CFFF8"/>
<path d="M19 17C19.5556 17 20 17.4528 20 18.0189C20 18.5849 19.5556 19 19 19C18.4444 19 18 18.5849 18 18.0189C18 17.4528 18.4444 17 19 17Z" fill="#3CFFF8"/>
<path d="M3.5 18C3.5 17.45 3.95 17 4.5 17V19C3.95 19 3.5 18.55 3.5 18Z" fill="#3CFFF8"/>
<path d="M24.5 17C25.05 17 25.5 17.45 25.5 18C25.5 18.55 25.05 19 24.5 19V17Z" fill="#3CFFF8"/>
</svg>
