<svg width="66" height="89" viewBox="0 0 66 89" fill="none" xmlns="http://www.w3.org/2000/svg">
<rect x="29.5054" y="3.93408" width="3.93403" height="7.86805" fill="#BFBFBF"/>
<circle cx="31.4726" cy="3.93403" r="3.93403" fill="#BFBFBF"/>
<circle cx="61.3051" cy="44.1596" r="3.93403" fill="#BFBFBF"/>
<circle cx="3.93403" cy="44.1596" r="3.93403" fill="#BFBFBF"/>
<ellipse cx="32.7836" cy="72.1317" rx="16.3915" ry="16.744" fill="#3CFFF8"/>
<path d="M3.93457 36.2204C3.93457 22.7346 14.8669 11.8022 28.3527 11.8022H37.2155C50.7013 11.8022 61.6336 22.7346 61.6336 36.2204V71.8527C61.6336 76.3479 57.9895 79.992 53.4943 79.992H12.0739C7.57869 79.992 3.93457 76.3479 3.93457 71.8527V36.2204Z" fill="white"/>
<rect x="10.4912" y="31.8535" width="44.5856" height="23.6042" rx="11.8021" fill="#2E2E2E"/>
<path fill-rule="evenodd" clip-rule="evenodd" d="M32.7841 49.8311C34.9568 49.8311 36.7182 48.3634 36.7182 46.5528H28.8501C28.8501 48.3634 30.6114 49.8311 32.7841 49.8311Z" fill="#3CFFF8"/>
<circle cx="20.3257" cy="43.9297" r="3.27836" fill="#3CFFF8"/>
<circle cx="45.2417" cy="43.9297" r="3.27836" fill="#3CFFF8"/>
<rect x="15.7363" y="79.9912" width="34.0949" height="2.62268" fill="#566065"/>
</svg>
