<?xml version="1.0" encoding="utf-8"?>
<!-- Generator: Adobe Illustrator 16.0.0, SVG Export Plug-In . SVG Version: 6.00 Build 0)  -->
<!DOCTYPE svg PUBLIC "-//W3C//DTD SVG 1.1 Tiny//EN" "http://www.w3.org/Graphics/SVG/1.1/DTD/svg11-tiny.dtd">
<svg version="1.1" baseProfile="tiny" id="Layer_1" xmlns="http://www.w3.org/2000/svg" xmlns:xlink="http://www.w3.org/1999/xlink"
	 x="0px" y="0px" width="1118px" height="500px" viewBox="0 0 1118 500" xml:space="preserve">
<path fill="#231F20" d="M135.412,402.212c41.374,0,68.124-12.537,77.731-36.355v30.505h51.407V295.64h26.75v-40.125H170.101v40.541
	h38.032c-2.93,42.218-25.916,64.791-64.782,64.791c-48.894,0-80.661-37.62-80.661-100.313c0-64.361,33.856-102.389,83.171-102.389
	c35.935-0.009,61.435,22.982,65.615,60.597H263.3v-95.287h-50.57v25.074c-17.976-22.152-43.462-30.926-80.661-30.926
	C50.986,117.602,0,171.097,0,258.028C0,348.3,51.82,402.212,135.412,402.212z"/>
<polygon fill="#231F20" points="723.111,162.698 678.814,162.698 678.814,217.022 630.324,217.022 630.324,123.832 873.985,123.832 
	873.985,217.022 825.087,217.022 825.087,162.698 781.199,162.698 781.199,356.197 819.661,356.197 819.661,396.739 
	684.245,396.739 684.245,356.197 723.111,356.197 "/>
<g>
	<path fill="none" d="M46.638,26.346c0-7.957-2.844-11.162-9.856-11.162H32.03v24.584h4.752
		C44.498,39.768,46.638,36.202,46.638,26.346z"/>
	<path fill="none" d="M115.295,26.226c0-7.596-2.965-11.042-9.615-11.042h-6.059v22.445h6.179
		C112.452,37.629,115.295,34.062,115.295,26.226z"/>
	<path fill="none" d="M168.168,27.295v31.231c0,9.031,2.965,13.543,8.67,13.543c5.698,0,8.67-4.512,8.67-13.543V27.295
		c0-9.027-2.972-13.538-8.67-13.538C171.133,13.757,168.168,18.269,168.168,27.295z"/>
	
		<line fill="none" stroke="#231F20" stroke-width="0" stroke-linecap="round" stroke-linejoin="round" x1="907.244" y1="303.541" x2="907.244" y2="303.531"/>
	<path fill="#231F20" d="M1017.16,229.98c-32.177-10.037-47.64-17.976-47.64-38.453c0-19.223,15.463-32.593,39.699-32.593
		c28.838,0,48.06,17.968,50.57,49.727h49.313v-84.829h-48.476v20.893c-12.958-17.138-35.949-26.745-65.616-26.745
		c-50.995,0-85.685,32.597-85.685,80.653c0,21.319,7.106,39.295,20.069,52.245c13.787,13.792,35.519,19.647,63.943,27.587
		c41.367,11.283,63.519,15.88,63.519,44.718c0,23.82-17.134,38.453-45.971,38.453c-35.102,0-53.913-17.555-53.913-50.569
		c0-2.509,0.422-5.018,0.422-7.526h-50.152v94.443h48.897v-24.239c15.879,20.484,36.778,28.837,66.449,28.837
		c59.771,0,94.453-32.602,94.453-84.416c0-22.565-7.099-40.542-20.472-53.495C1078.178,247.115,1050.6,240.842,1017.16,229.98z"/>
	<path fill="#231F20" d="M519.407,294.423c0,43.703-17.233,63.88-57.573,63.88c-40.348,0-57.577-20.177-57.577-63.88l0.189-175.248
		h-94.324v39.506h35.721v134.483c0,71.858,36.983,106.325,115.991,106.325c79.003,0,115.987-34.467,115.987-106.325V39.505h35.3V0
		h-93.667l-0.047,39.505V294.423z"/>
	<path fill="#231F20" d="M38.922,70.17H32.03V50.81h6.892c18.165,0,24.223-5.345,24.223-23.398c0-18.758-6.41-23.274-24.223-23.274
		H10.539v11.046h4.984V70.17h-4.984v11.515h28.383V70.17z M32.03,15.184h4.752c7.012,0,9.856,3.205,9.856,11.162
		c0,9.856-2.14,13.422-9.856,13.422H32.03V15.184z"/>
	<path fill="#231F20" d="M103.419,48.555c8.078,0,9.504,2.728,11.403,12.111l4.28,21.019h19.351V70.17h-5.345l-2.372-11.282
		c-2.139-10.454-5.104-15.562-12.468-16.868v-0.593c9.263-1.659,13.422-7.124,13.422-17.1c0-13.775-6.539-20.189-20.425-20.189
		H78.483v11.046h4.872V70.17h-4.872v11.515h26.011V70.17h-4.873V48.555H103.419z M99.622,15.184h6.059
		c6.65,0,9.615,3.446,9.615,11.042c0,7.837-2.844,11.403-9.495,11.403h-6.179V15.184z"/>
	<path fill="#231F20" d="M151.781,29.198v27.429c0,17.697,8.43,26.724,25.057,26.724c16.619,0,25.177-9.027,25.177-26.724V29.198
		c0-17.697-8.67-26.723-25.177-26.723C160.211,2.475,151.781,11.501,151.781,29.198z M185.508,27.295v31.231
		c0,9.031-2.972,13.543-8.67,13.543c-5.705,0-8.67-4.512-8.67-13.543V27.295c0-9.027,2.965-13.538,8.67-13.538
		C182.536,13.757,185.508,18.269,185.508,27.295z"/>
	<path fill="#231F20" d="M216.279,56.275v8.43c0,11.996,7.484,18.646,21.491,18.646c16.034,0,21.731-8.55,21.731-27.076V15.184
		h4.872V4.138h-28.262v11.046h6.883v47.501c0,6.295-1.899,9.264-5.697,9.264c-4.391,0-5.817-3.683-5.817-12.232
		c0-1.07,0.12-2.256,0.12-3.442H216.279z"/>
</g>
<polygon fill="#231F20" points="280.898,70.17 285.89,70.17 285.89,15.184 280.898,15.184 280.898,4.138 331.605,4.138 
	331.605,27.296 317.358,27.296 317.358,15.184 302.397,15.184 302.397,35.609 318.544,35.609 318.544,48.434 302.397,48.434 
	302.397,70.17 317.358,70.17 317.358,57.104 331.605,57.104 331.605,81.685 280.898,81.685 "/>
<path fill="#231F20" d="M381.152,58.647c0,9.142-1.9,13.301-7.837,13.301c-6.53,0-7.957-4.511-7.957-14.487v-27.91
	c0-10.092,0.945-14.96,7.837-14.96c6.41,0,7.836,4.868,7.836,16.146v2.852h15.201V4.137h-13.061v6.058
	c-3.798-5.108-8.67-7.72-14.848-7.72c-12.589,0-19.352,8.79-19.352,25.533v28.62c0,18.173,7.716,26.723,24.224,26.723
	c15.553,0,23.398-7.364,23.398-21.972v-7.008h-15.562C381.152,55.914,381.152,57.34,381.152,58.647z"/>
<polygon fill="#231F20" points="469.401,29.908 456.46,29.908 456.46,14.591 448.262,14.591 448.262,70.17 455.627,70.17 
	455.627,81.685 424.512,81.685 424.512,70.17 431.876,70.17 431.876,14.591 423.678,14.591 423.678,29.908 410.737,29.908 
	410.737,4.138 469.401,4.138 "/>
<g>
	<path fill="none" d="M98.763,472.334v-13.871c0-4.014-1.427-6.021-4.348-6.021c-2.844,0-4.425,2.007-4.425,6.021v13.871
		c0,4.014,1.581,6.017,4.425,6.017C97.335,478.351,98.763,476.348,98.763,472.334z"/>
	<path fill="#231F20" d="M42.918,448.765v-18.47h-9.195v5.516c-2.509-4.343-6.513-6.685-11.111-6.685
		c-9.112,0-13.125,6.685-13.125,20.142v16.215c0,6.767,0.253,11.785,3.175,15.712c2.088,2.845,5.937,4.765,10.028,4.765
		c4.846,0,8.859-2.341,11.033-6.518v5.431h9.702V464.48h3.007v-7.775H28.378v7.775h3.927v4.513c0,5.68-2.088,8.691-5.602,8.691
		c-4.426,0-5.68-3.262-5.68-9.946v-18.974c0-7.69,1.418-11.282,5.852-11.282c3.84,0,5.43,3.094,5.43,9.692v1.59H42.918z"/>
	<path fill="#231F20" d="M50.359,477.1v7.772h17.89V477.1h-3.677v-11.115c0-7.02,2.758-10.362,8.696-10.362
		c0.584,0,1.168,0,1.839,0.081v-10.448c-0.594-0.082-1.092-0.082-1.59-0.082c-5.104,0-8.361,2.591-10.286,8.609v-7.775H50.359v7.522
		h3.093v23.57H50.359z"/>
	<path fill="#231F20" d="M109.709,471.248v-11.699c0-9.361-5.602-14.543-15.381-14.543s-15.373,5.182-15.373,14.543v11.699
		c0,9.362,5.594,14.543,15.373,14.543S109.709,480.61,109.709,471.248z M89.99,472.334v-13.871c0-4.014,1.581-6.021,4.425-6.021
		c2.921,0,4.348,2.007,4.348,6.021v13.871c0,4.014-1.427,6.017-4.348,6.017C91.571,478.351,89.99,476.348,89.99,472.334z"/>
	<path fill="#231F20" d="M155.682,452.864h3.429l-2.681,14.96c-0.585,3.424-1.332,6.934-1.667,10.86h-0.507
		c-0.327-3.677-0.834-7.27-1.504-10.946l-3.841-21.731h-13.37l-3.266,16.97c-1.083,5.596-1.838,10.776-2.251,15.708h-0.336
		c-0.42-4.176-1.168-8.687-2.01-13.619l-2.166-12.201h3.343v-6.857H112.64v7.355h2.673l7.441,31.51h13.457l3.926-19.807
		c0.749-3.845,1.333-7.939,1.667-12.201h0.422c0.163,3.592,0.67,7.518,1.418,11.78l3.514,20.228h13.457l7.69-31.51h2.337v-7.355
		h-14.96V452.864z"/>
</g>
<path fill="#231F20" d="M176.581,429.375h11.033v10.697h-11.033V429.375z M173.323,477.1h3.257v-23.57h-2.922v-7.522h13.955V477.1
	h3.094v7.772h-17.384V477.1z"/>
<g>
	<path fill="none" d="M255.574,460.632c0-5.432-1.504-8.275-4.012-8.275c-2.759,0-3.42,2.428-3.42,7.528v8.858
		c0,5.096,0.498,7.687,3.591,7.687c2.836,0,3.841-2.504,3.841-7.605V460.632z"/>
	<path fill="none" d="M353.207,452.356c-2.509,0-4.013,2.93-4.013,8.275v9.112c0,5.264,1.255,7.94,4.099,7.94
		c2.758,0,3.343-2.591,3.343-7.687v-10.113C356.636,454.784,355.965,452.356,353.207,452.356z"/>
	<path fill="#231F20" d="M195.218,477.1v7.772h16.885V477.1h-2.673v-17.886c0-4.263,1.504-6.437,4.512-6.437
		c3.265,0,4.597,2.007,4.597,6.437V477.1h-2.673v7.772h16.8V477.1h-3.094v-19.14c0-8.774-3.342-12.954-10.698-12.954
		c-4.932,0-8.438,2.088-10.784,6.603v-5.602h-12.872v7.522h3.093v23.57H195.218z"/>
	<path fill="#231F20" d="M251.733,492.898c-2.844,0-3.764-1.676-3.764-5.771h-9.942v0.503c0,8.36,4.426,12.368,13.706,12.368
		c5.431,0,9.865-2.341,12.288-6.354c1.839-3.007,2.088-8.275,2.088-15.961v-24.237h3.094v-7.44H257v5.181
		c-2.173-4.012-5.267-5.933-9.614-5.933c-7.691,0-10.278,5.014-10.278,15.798v7.27c0,10.449,3.42,15.63,10.192,15.63
		c3.179,0,5.851-1.418,8.274-4.176v5.263C255.574,490.389,254.655,492.898,251.733,492.898z M251.733,476.43
		c-3.093,0-3.591-2.591-3.591-7.687v-8.858c0-5.101,0.661-7.528,3.42-7.528c2.508,0,4.012,2.844,4.012,8.275v8.192
		C255.574,473.926,254.569,476.43,251.733,476.43z"/>
	<path fill="#231F20" d="M309.659,438.066v-7.771h-17.642v7.771h3.094v28.584c0,13.289,4.932,19.391,16.636,19.391
		c11.618,0,16.464-6.519,16.464-20.559v-27.416h3.094v-7.771h-16.465v7.771h2.922v30.591c0,6.102-1.418,8.945-5.68,8.945
		c-4.099,0-5.353-2.759-5.353-8.523v-31.013H309.659z"/>
	<path fill="#231F20" d="M357.804,445.006c-4.099,0-7.441,2.256-9.615,6.518v-5.517h-12.615v7.522h3.094v37.693h-3.094v7.775h17.212
		v-7.775h-3.008v-10.363c1.754,3.094,4.349,4.683,7.777,4.683c7.106,0,10.114-5.181,10.114-16.052v-8.858
		C367.669,450.269,364.24,445.006,357.804,445.006z M356.636,469.998c0,5.096-0.585,7.687-3.343,7.687
		c-2.844,0-4.099-2.677-4.099-7.94v-9.112c0-5.346,1.504-8.275,4.013-8.275c2.758,0,3.429,2.428,3.429,7.528V469.998z"/>
</g>
<polygon fill="#231F20" points="431.695,448.43 422.587,448.43 422.587,437.649 416.82,437.649 416.82,476.765 422.002,476.765 
	422.002,484.872 400.107,484.872 400.107,476.765 405.289,476.765 405.289,437.649 399.523,437.649 399.523,448.43 390.406,448.43 
	390.406,430.295 431.695,430.295 "/>
<path fill="#231F20" d="M469.314,457.96c0-8.774-3.256-12.954-10.612-12.954c-4.184,0-7.192,1.422-9.529,4.597v-20.228h-14.127
	v7.522h3.094V477.1h-3.094v7.772h16.799V477.1h-2.672v-17.886c0-4.263,1.589-6.437,4.597-6.437c3.257,0,4.511,2.007,4.511,6.437
	V477.1h-2.672v7.772h16.799V477.1h-3.094V457.96z"/>
<path fill="#231F20" d="M479.85,429.375h11.033v10.697H479.85V429.375z M476.593,477.1h3.257v-23.57h-2.922v-7.522h13.955V477.1
	h3.094v7.772h-17.384V477.1z"/>
<path fill="#231F20" d="M532.851,457.96c0-8.774-3.342-12.954-10.698-12.954c-4.932,0-8.447,2.088-10.784,6.603v-5.602h-12.872
	v7.522h3.093v23.57h-3.093v7.772h16.885V477.1h-2.673v-17.886c0-4.263,1.504-6.437,4.512-6.437c3.257,0,4.597,2.007,4.597,6.437
	V477.1h-2.681v7.772h16.799V477.1h-3.085V457.96z"/>
<polygon fill="#231F20" points="539.373,477.1 542.293,477.1 542.293,436.897 539.373,436.897 539.373,429.375 553.328,429.375 
	553.328,463.141 562.109,452.609 558.346,452.609 558.346,446.007 575.308,446.007 575.308,453.276 572.052,453.276 
	564.695,461.221 573.805,477.1 577.232,477.1 577.232,484.872 559.85,484.872 559.85,477.1 562.607,477.1 557.513,467.239 
	553.328,472.001 553.328,477.1 555.923,477.1 555.923,484.872 539.373,484.872 "/>
<path fill="#231F20" d="M583.421,429.375h11.032v10.697h-11.032V429.375z M580.163,477.1h3.258v-23.57h-2.923v-7.522h13.955V477.1
	h3.094v7.772h-17.384V477.1z"/>
<g>
	<path fill="none" d="M662.414,460.632c0-5.432-1.504-8.275-4.012-8.275c-2.759,0-3.421,2.428-3.421,7.528v8.858
		c0,5.096,0.499,7.687,3.592,7.687c2.836,0,3.841-2.504,3.841-7.605V460.632z"/>
	<path fill="#231F20" d="M602.058,477.1v7.772h16.886V477.1h-2.673v-17.886c0-4.263,1.505-6.437,4.512-6.437
		c3.266,0,4.597,2.007,4.597,6.437V477.1h-2.672v7.772h16.799V477.1h-3.094v-19.14c0-8.774-3.343-12.954-10.698-12.954
		c-4.932,0-8.438,2.088-10.784,6.603v-5.602h-12.872v7.522h3.094v23.57H602.058z"/>
	<path fill="#231F20" d="M658.573,492.898c-2.844,0-3.763-1.676-3.763-5.771h-9.943v0.503c0,8.36,4.426,12.368,13.706,12.368
		c5.432,0,9.865-2.341,12.288-6.354c1.839-3.007,2.088-8.275,2.088-15.961v-24.237h3.094v-7.44h-12.202v5.181
		c-2.175-4.012-5.268-5.933-9.615-5.933c-7.69,0-10.277,5.014-10.277,15.798v7.27c0,10.449,3.42,15.63,10.191,15.63
		c3.18,0,5.852-1.418,8.274-4.176v5.263C662.414,490.389,661.495,492.898,658.573,492.898z M658.573,476.43
		c-3.093,0-3.592-2.591-3.592-7.687v-8.858c0-5.101,0.662-7.528,3.421-7.528c2.508,0,4.012,2.844,4.012,8.275v8.192
		C662.414,473.926,661.409,476.43,658.573,476.43z"/>
	<path fill="#231F20" d="M700.369,465.146v19.726h9.358v-4.933c2.259,3.679,5.852,5.604,10.449,5.604
		c9.022,0,13.869-5.517,13.869-15.798c0-8.942-3.679-12.791-11.111-17.135c-6.437-3.76-10.948-5.599-10.948-10.363
		c0-3.175,2.003-5.263,5.26-5.263c4.099,0,5.603,3.089,5.603,9.692v0.498h10.028v-16.881h-9.109v4.765
		c-2.672-4.176-5.766-5.933-10.277-5.933c-7.02,0-12.537,5.598-12.537,14.122c0,4.099,0.834,7.273,2.836,9.865
		c2.759,3.51,6.522,5.268,10.2,7.604c5.432,3.428,8.524,5.517,8.524,10.113c0,3.592-2.26,5.934-5.68,5.934
		c-4.435,0-6.273-3.596-6.273-11.114v-0.504H700.369z"/>
	<path fill="#231F20" d="M758.793,449.933c-2.088-3.424-4.426-4.928-8.026-4.928c-7.519,0-11.196,5.349-11.196,16.048v9.276
		c0,10.53,4.349,15.549,13.955,15.549c8.36,0,13.542-5.354,13.542-14.295v-1.254h-9.941v0.752c0,5.1-0.843,7.441-3.344,7.441
		c-2.681,0-3.179-2.011-3.179-6.604v-12.12c0-5.014,0.919-7.355,3.257-7.355c2.759,0,3.429,2.673,3.515,8.61h9.692v-15.047h-8.274
		V449.933z"/>
</g>
<path fill="#231F20" d="M775.85,429.375h11.033v10.697H775.85V429.375z M772.593,477.1h3.257v-23.57h-2.922v-7.522h13.955V477.1
	h3.094v7.772h-17.384V477.1z"/>
<g>
	<path fill="none" d="M812.378,456.872c0-3.511-1.254-5.264-3.592-5.264c-2.423,0-3.677,1.84-3.677,5.681v3.764h7.269V456.872z"/>
	<path fill="#231F20" d="M822.32,467.824v-9.28c0-8.86-4.762-13.538-13.619-13.538c-9.444,0-13.792,5.181-13.792,16.047v9.194
		c0,10.277,4.769,15.631,13.542,15.631c8.944,0,13.792-4.852,13.869-13.792h-9.693c0,4.597-1.005,6.685-3.677,6.685
		c-2.511,0-3.841-2.259-3.841-6.685v-4.262H822.32z M805.109,457.289c0-3.841,1.254-5.681,3.677-5.681
		c2.338,0,3.592,1.753,3.592,5.264v4.181h-7.269V457.289z"/>
	<path fill="#231F20" d="M827.253,477.1v7.772h16.885V477.1h-2.673v-17.886c0-4.263,1.504-6.437,4.512-6.437
		c3.266,0,4.598,2.007,4.598,6.437V477.1H847.9v7.772h16.801V477.1h-3.095v-19.14c0-8.774-3.343-12.954-10.697-12.954
		c-4.933,0-8.438,2.088-10.784,6.603v-5.602h-12.872v7.522h3.093v23.57H827.253z"/>
	<path fill="#231F20" d="M882.763,434.81l-11.119,3.841l-0.164,7.356h-4.511v7.522h4.348l-0.335,19.227v0.748
		c0,8.609,2.922,12.201,11.36,12.201c2.844,0,5.104-0.162,6.608-0.412v-7.943c-0.921,0.081-1.591,0.081-2.175,0.081
		c-3.515,0-4.683-1.417-4.683-5.594v-0.422l0.335-17.886h6.522v-7.522h-6.437L882.763,434.81z"/>
</g>
<path fill="#231F20" d="M896.555,429.375h11.033v10.697h-11.033V429.375z M893.298,477.1h3.257v-23.57h-2.922v-7.522h13.955V477.1
	h3.094v7.772h-17.384V477.1z"/>
<path fill="#231F20" d="M918.544,442.75c0,1.001,0,2.088,0.076,3.257h-4.176v7.354h4.176V477.1h-3.093v7.772h17.642V477.1h-3.515
	v-23.738h5.104v-7.354h-5.104v-4.598c0-3.927,0.833-5.345,3.926-5.345c0.672,0,1.342,0.082,2.176,0.163v-7.519
	c-2.002-0.171-3.928-0.253-5.681-0.253C921.629,428.456,918.544,432.636,918.544,442.75z"/>
<path fill="#231F20" d="M941.443,429.375h11.034v10.697h-11.034V429.375z M938.187,477.1h3.257v-23.57h-2.922v-7.522h13.955V477.1
	h3.095v7.772h-17.385V477.1z"/>
<g>
	<path fill="none" d="M1003.888,472.833c0,3.18,1.428,4.852,3.765,4.852c2.921,0,5.018-2.759,5.018-7.523v-3.008h-0.584
		C1006.148,467.153,1003.888,468.49,1003.888,472.833z"/>
	<path fill="#231F20" d="M974.802,452.442c2.758,0,3.428,2.673,3.506,8.61h9.701v-15.047h-8.275v3.927
		c-2.088-3.424-4.434-4.928-8.025-4.928c-7.519,0-11.196,5.349-11.196,16.048v9.276c0,10.53,4.339,15.549,13.955,15.549
		c8.36,0,13.542-5.354,13.542-14.295v-1.254h-9.951v0.752c0,5.1-0.833,7.441-3.342,7.441c-2.673,0-3.171-2.011-3.171-6.604v-12.12
		C971.545,454.784,972.464,452.442,974.802,452.442z"/>
	<path fill="#231F20" d="M1023.196,458.793c0-9.525-4.09-13.869-14.625-13.869c-9.443,0-13.791,3.592-13.791,11.617
		c0,0.499,0.086,1.001,0.086,1.585h10.114v-2.676c0-2.423,1.503-3.927,3.841-3.927c2.672,0,3.849,1.59,3.849,5.1v4.008h-3.429
		c-10.784,0-15.716,3.933-15.716,12.709c0,7.94,3.428,12.031,9.778,12.031c5.019,0,8.447-2.17,10.621-6.849v6.35h12.202v-7.771
		h-2.931V458.793z M1012.67,470.161c0,4.765-2.097,7.523-5.018,7.523c-2.337,0-3.765-1.672-3.765-4.852
		c0-4.343,2.261-5.68,8.198-5.68h0.584V470.161z"/>
</g>
<polygon fill="#231F20" points="1029.977,477.1 1033.654,477.1 1033.654,436.897 1030.725,436.897 1030.725,429.375 
	1044.679,429.375 1044.679,477.1 1048.193,477.1 1048.193,484.872 1029.977,484.872 "/>
<polygon fill="#231F20" points="1051.957,477.1 1055.635,477.1 1055.635,436.897 1052.713,436.897 1052.713,429.375 
	1066.668,429.375 1066.668,477.1 1070.174,477.1 1070.174,484.872 1051.957,484.872 "/>
<path fill="#231F20" d="M1095.257,486.711l10.784-33.181h2.509v-7.523h-15.544v6.771h3.007l-3.007,11.196
	c-0.842,3.012-1.59,7.275-2.174,13.044h-0.508c-0.162-4.262-0.834-8.445-1.916-12.623l-3.008-11.617h3.008v-6.771h-16.636v7.523
	h3.515l10.19,31.592v0.171c0,4.177-2.758,6.433-7.682,6.433c-0.756,0-1.513-0.082-2.509-0.25v8.107
	c1.917,0.336,3.755,0.417,5.766,0.417C1088.992,500,1092.164,496.322,1095.257,486.711z"/>
</svg>
