<svg width="200" height="119" viewBox="0 0 200 119" fill="none" xmlns="http://www.w3.org/2000/svg">
<path fill-rule="evenodd" clip-rule="evenodd" d="M5.73977 73.0705C4.98255 73.0705 4.60259 72.6972 4.60259 71.9481V51.6918H1.08598C0.362441 51.6918 0 51.3011 0 50.5196V49.0901C0 48.6131 0.0862313 48.2817 0.258694 48.0944C0.431156 47.9084 0.706019 47.798 1.08598 47.7629L4.60259 47.2523V43.7828C4.60259 37.6604 7.51829 34.5992 13.3443 34.5992C14.7927 34.5992 16.1711 34.7703 17.4807 35.1098C17.9994 35.2446 18.343 35.4238 18.5155 35.6447C18.6879 35.8671 18.7742 36.2322 18.7742 36.7415V38.6305C18.7742 39.3446 18.4818 39.7016 17.8957 39.7016C17.5508 39.7016 17.1196 39.6424 16.6022 39.5224C16.0848 39.4039 15.4125 39.3446 14.5852 39.3446C13.2055 39.3446 12.2139 39.6343 11.6116 40.2123C11.008 40.7917 10.7062 41.7254 10.7062 43.0175V47.1H17.3258C18.0843 47.1 18.4643 47.4571 18.4643 48.1712V50.5695C18.4643 51.3186 18.0843 51.6918 17.3258 51.6918H10.7062V71.9481C10.7062 72.6972 10.3262 73.0705 9.56898 73.0705H5.73977V73.0705ZM29.894 73.8358C27.4458 73.8358 25.5568 73.1634 24.231 71.8201C22.9025 70.4768 22.2396 68.546 22.2396 66.0291V48.2224C22.2396 47.4746 22.6182 47.1 23.3768 47.1H27.2033C27.9618 47.1 28.3418 47.4746 28.3418 48.2224V64.2425C28.3418 65.9106 28.6867 67.1353 29.3766 67.9168C30.0664 68.6996 31.1686 69.0904 32.687 69.0904C34.824 69.0904 36.9797 68.3938 39.1517 66.9992V48.221C39.1517 47.4732 39.5303 47.0987 40.2902 47.0987H44.1167C44.8753 47.0987 45.2553 47.4732 45.2553 48.221V71.9481C45.2553 72.6972 44.8753 73.0705 44.1167 73.0705H41.3775C40.8938 73.0705 40.5583 73.0031 40.3684 72.867C40.1797 72.7309 40.049 72.4763 39.9803 72.1017L39.5667 70.2127C36.3263 72.6285 33.102 73.8358 29.8953 73.8358H29.894ZM61.2889 73.4275C58.5645 73.4275 56.5462 72.7983 55.2365 71.5399C53.9269 70.2814 53.2721 68.3601 53.2721 65.7731V51.6932H49.9603C49.2017 51.6932 48.8217 51.3186 48.8217 50.5695V49.0901C48.8217 48.6481 48.908 48.3329 49.0804 48.1469C49.2529 47.9583 49.5291 47.8316 49.9091 47.7629L53.4769 47.2523L54.253 41.0787C54.2866 40.6704 54.4079 40.3821 54.6154 40.2123C54.8215 40.0425 55.1328 39.9563 55.5451 39.9563H58.2358C58.9943 39.9563 59.3729 40.3309 59.3729 41.0787V47.1H65.7352C66.4937 47.1 66.8724 47.4746 66.8724 48.2224V50.5695C66.8724 51.3186 66.4937 51.6918 65.7352 51.6918H59.3729V65.4686C59.3729 66.6247 59.6572 67.4493 60.2272 67.9424C60.7958 68.4369 61.7524 68.6834 63.0971 68.6834C63.8906 68.6834 64.5279 68.6322 65.0103 68.5298C65.494 68.4274 65.8901 68.3762 66.2 68.3762C66.7861 68.3762 67.0799 68.6996 67.0799 69.3463V71.1828C67.0799 71.7271 66.9842 72.1098 66.7956 72.3308C66.6056 72.5517 66.2526 72.7309 65.7352 72.867C64.2823 73.2414 62.7878 73.4297 61.2875 73.4275H61.2889ZM78.9771 73.8358C76.5276 73.8358 74.6386 73.1634 73.3128 71.8201C71.9856 70.4768 71.3214 68.546 71.3214 66.0291V48.2224C71.3214 47.4746 71.7013 47.1 72.4599 47.1H76.2864C77.045 47.1 77.4249 47.4746 77.4249 48.2224V64.2425C77.4249 65.9106 77.7685 67.1353 78.4597 67.9168C79.1482 68.6996 80.2517 69.0904 81.7688 69.0904C83.9071 69.0904 86.0615 68.3938 88.2348 66.9992V48.221C88.2348 47.4732 88.6134 47.0987 89.372 47.0987H93.1985C93.9571 47.0987 94.337 47.4732 94.337 48.221V71.9481C94.337 72.6972 93.9571 73.0705 93.1998 73.0705H90.458C89.9756 73.0705 89.6388 73.0031 89.4501 72.867C89.2602 72.7309 89.1308 72.4763 89.0621 72.1017L88.6485 70.2127C85.4067 72.6285 82.1825 73.8358 78.9771 73.8358V73.8358ZM102.303 73.0705C101.544 73.0705 101.164 72.6972 101.164 71.9481V48.2224C101.164 47.4746 101.544 47.1 102.303 47.1H105.043C105.526 47.1 105.862 47.1674 106.052 47.3035C106.241 47.4409 106.37 47.6942 106.44 48.0688L107.06 50.9777C108.44 49.4822 109.732 48.4258 110.941 47.8141C112.159 47.199 113.506 46.8839 114.871 46.8952H115.077C115.526 46.8952 115.896 46.9383 116.19 47.0232C116.482 47.1081 116.688 47.2523 116.81 47.4571C116.931 47.6605 116.99 48.0364 116.99 48.5794V51.3348C116.99 52.0489 116.68 52.4059 116.061 52.4059C115.853 52.4059 115.569 52.3898 115.206 52.3547C114.819 52.3198 114.431 52.3027 114.042 52.3035C111.49 52.3035 109.232 52.9503 107.268 54.2437V71.9481C107.268 72.6972 106.888 73.0705 106.13 73.0705H102.303V73.0705ZM136.747 57.5084V57.1002C136.747 55.0252 136.29 53.4448 135.376 52.3547C134.463 51.2674 133.126 50.7231 131.368 50.7231C129.506 50.7231 127.989 51.3348 126.817 52.5595C125.644 53.7843 124.972 55.4335 124.8 57.5084H136.747V57.5084ZM132.403 73.8358C128.059 73.8358 124.766 72.6797 122.524 70.3663C120.282 68.0542 119.162 64.6858 119.162 60.2638C119.162 55.8754 120.256 52.4571 122.447 50.0076C124.637 47.5595 127.696 46.3347 131.627 46.3347C135.006 46.3347 137.601 47.2455 139.412 49.0645C141.221 50.8834 142.127 53.4609 142.127 56.7943C142.127 57.9503 142.04 59.1589 141.868 60.4174C141.798 60.8593 141.669 61.1571 141.48 61.3093C141.291 61.4629 141.041 61.5384 140.729 61.5384H124.8C124.903 64.1253 125.635 66.0211 126.998 67.2283C128.359 68.4369 130.454 69.0392 133.283 69.0392C135.351 69.0392 137.523 68.7158 139.798 68.0704L140.42 67.9168C140.557 67.8831 140.678 67.8656 140.782 67.8656C141.299 67.8656 141.558 68.2065 141.558 68.8869V70.7234C141.558 71.234 141.48 71.5991 141.325 71.8201C141.17 72.0424 140.816 72.254 140.265 72.4588C137.954 73.3763 135.333 73.8358 132.403 73.8358V73.8358ZM19.0854 91.3879V90.9796C19.0854 88.9047 18.6273 87.3229 17.7138 86.2342C16.8003 85.1455 15.4637 84.6012 13.7054 84.6012C11.8447 84.6012 10.3262 85.2142 9.15399 86.439C7.98178 87.6638 7.30945 89.3129 7.13699 91.3879H19.0854ZM14.7402 107.715C10.3963 107.715 7.1033 106.559 4.86129 104.246C2.62062 101.932 1.49962 98.5653 1.49962 94.1432C1.49962 89.7549 2.59368 86.3366 4.78449 83.8871C6.97396 81.4389 10.0338 80.2142 13.9641 80.2142C17.3433 80.2142 19.9383 81.125 21.7491 82.9439C23.5587 84.7629 24.4641 87.3404 24.4641 90.6738C24.4641 91.8298 24.3779 93.0384 24.2054 94.2955C24.1353 94.7388 24.006 95.0365 23.8174 95.1888C23.6274 95.3424 23.3781 95.4178 23.0669 95.4178H7.13699C7.24073 98.0048 7.97235 99.9005 9.33588 101.108C10.6967 102.316 12.7919 102.919 15.62 102.919C17.6882 102.919 19.8601 102.595 22.1358 101.949L22.757 101.796C22.8944 101.763 23.0157 101.745 23.1194 101.745C23.6368 101.745 23.8955 102.086 23.8955 102.766V104.603C23.8955 105.113 23.8174 105.479 23.6624 105.7C23.5075 105.922 23.1531 106.133 22.602 106.337C20.2913 107.256 17.6707 107.715 14.7402 107.715V107.715ZM30.5151 106.95C29.7552 106.95 29.3766 106.577 29.3766 105.828V82.1018C29.3766 81.3541 29.7552 80.9795 30.5151 80.9795H33.2556C33.738 80.9795 34.0748 81.0469 34.2648 81.1829C34.4534 81.319 34.5828 81.5737 34.6529 81.9482L35.0665 83.8372C38.3069 81.4214 41.6861 80.2128 45.2027 80.2128C47.7196 80.2128 49.6342 80.869 50.9438 82.1786C52.2548 83.4883 52.911 85.3854 52.911 87.8672V105.828C52.911 106.577 52.5297 106.95 51.7725 106.95H47.9446C47.186 106.95 46.8061 106.577 46.8061 105.828V89.7549C46.8061 88.0895 46.4611 86.8715 45.7713 86.1076C45.0814 85.3423 43.9793 84.9596 42.4622 84.9596C40.1851 84.9596 37.8596 85.7074 35.4801 87.2043V105.828C35.4801 106.577 35.1002 106.95 34.3416 106.95H30.5151V106.95ZM70.1842 101.796C72.2187 101.796 74.1481 101.133 75.9778 99.8062V86.7449C74.1832 85.5188 72.2699 84.9084 70.2354 84.9084C68.1321 84.9084 66.5706 85.5888 65.5546 86.9483C64.5374 88.3091 64.0294 90.4016 64.0294 93.2243C64.0294 98.9385 66.0801 101.796 70.1842 101.796V101.796ZM68.9419 118.072C66.3213 118.072 63.7532 117.579 61.235 116.593C60.719 116.39 60.3727 116.175 60.2016 115.956C60.0291 115.733 59.9429 115.386 59.9429 114.91V112.818C59.9429 112.171 60.184 111.848 60.6678 111.848C60.8038 111.848 60.9507 111.875 61.107 111.924C61.2619 111.976 61.5799 112.069 62.0636 112.205C64.2693 112.919 66.4426 113.277 68.5808 113.277C71.1678 113.277 73.046 112.69 74.2182 111.516C75.3904 110.344 75.9765 108.431 75.9765 105.776V103.584C73.7345 105.489 71.2001 106.441 68.3733 106.441C65.1666 106.441 62.6066 105.259 60.6934 102.896C58.7801 100.531 57.8235 97.3769 57.8235 93.4305C57.8235 90.7438 58.2789 88.3967 59.1937 86.3892C60.1059 84.3816 61.3738 82.8523 62.9947 81.7973C64.6155 80.7423 66.4762 80.2155 68.5808 80.2155C71.5801 80.2155 74.1832 81.253 76.3901 83.3279L76.7 82.0008C76.8388 81.3204 77.2861 80.9808 78.0447 80.9808H80.8378C81.5964 80.9808 81.9763 81.3554 81.9763 82.1032V105.166C81.9763 109.281 80.8459 112.462 78.589 114.707C76.3295 116.951 73.1147 118.075 68.9419 118.075V118.072ZM89.7344 106.95C88.9745 106.95 88.5959 106.577 88.5959 105.828V82.1018C88.5959 81.3541 88.9745 80.9795 89.7344 80.9795H93.5609C94.3195 80.9795 94.6995 81.3541 94.6995 82.1018V105.828C94.6995 106.577 94.3195 106.95 93.5609 106.95H89.7344ZM102.456 106.95C101.698 106.95 101.319 106.577 101.319 105.828V82.1018C101.319 81.3541 101.698 80.9795 102.456 80.9795H105.198C105.68 80.9795 106.016 81.0469 106.206 81.1829C106.395 81.319 106.525 81.5737 106.594 81.9482L107.008 83.8372C110.248 81.4214 113.629 80.2128 117.145 80.2128C119.662 80.2128 121.575 80.869 122.885 82.1786C124.196 83.4883 124.852 85.3854 124.852 87.8672V105.828C124.852 106.577 124.472 106.95 123.714 106.95H119.887C119.127 106.95 118.749 106.577 118.749 105.828V89.7549C118.749 88.0895 118.404 86.8715 117.714 86.1076C117.024 85.3423 115.922 84.9596 114.405 84.9596C112.128 84.9596 109.801 85.7074 107.421 87.2043V105.828C107.421 106.577 107.043 106.95 106.284 106.95H102.458H102.456ZM147.349 91.3879V90.9796C147.349 88.9047 146.891 87.3229 145.979 86.2342C145.065 85.1455 143.729 84.6012 141.97 84.6012C140.108 84.6012 138.591 85.2142 137.419 86.439C136.247 87.6638 135.573 89.3129 135.402 91.3879H147.349V91.3879ZM143.005 107.715C138.661 107.715 135.367 106.559 133.126 104.246C130.884 101.932 129.765 98.5653 129.765 94.1432C129.765 89.7549 130.859 86.3366 133.049 83.8871C135.238 81.4389 138.299 80.2142 142.229 80.2142C145.608 80.2142 148.203 81.125 150.013 82.9439C151.824 84.7629 152.728 87.3404 152.728 90.6738C152.728 91.8298 152.642 93.0384 152.47 94.2955C152.4 94.7388 152.271 95.0365 152.082 95.1888C151.892 95.3424 151.642 95.4178 151.332 95.4178H135.402C135.506 98.0048 136.237 99.9005 137.601 101.108C138.962 102.316 141.057 102.919 143.884 102.919C145.953 102.919 148.125 102.595 150.401 101.949L151.022 101.796C151.159 101.763 151.281 101.745 151.383 101.745C151.9 101.745 152.159 102.086 152.159 102.766V104.603C152.159 105.113 152.082 105.479 151.927 105.7C151.771 105.922 151.418 106.133 150.867 106.337C148.556 107.256 145.936 107.715 143.005 107.715V107.715ZM173.881 91.3879V90.9796C173.881 88.9047 173.423 87.3229 172.511 86.2342C171.598 85.1455 170.261 84.6012 168.503 84.6012C166.641 84.6012 165.123 85.2142 163.951 86.439C162.779 87.6638 162.105 89.3129 161.934 91.3879H173.881ZM169.537 107.715C165.192 107.715 161.899 106.559 159.659 104.246C157.417 101.932 156.297 98.5653 156.297 94.1432C156.297 89.7549 157.391 86.3366 159.582 83.8871C161.77 81.4389 164.831 80.2142 168.761 80.2142C172.141 80.2142 174.736 81.125 176.545 82.9439C178.356 84.7629 179.26 87.3404 179.26 90.6738C179.26 91.8298 179.174 93.0384 179.003 94.2955C178.933 94.7388 178.803 95.0365 178.615 95.1888C178.425 95.3424 178.174 95.4178 177.864 95.4178H161.934C162.038 98.0048 162.77 99.9005 164.133 101.108C165.494 102.316 167.589 102.919 170.416 102.919C172.485 102.919 174.657 102.595 176.933 101.949L177.553 101.796C177.692 101.763 177.812 101.745 177.917 101.745C178.433 101.745 178.691 102.086 178.691 102.766V104.603C178.691 105.113 178.615 105.479 178.458 105.7C178.303 105.922 177.95 106.133 177.399 106.337C175.089 107.256 172.468 107.715 169.537 107.715V107.715ZM185.311 106.95C184.552 106.95 184.174 106.577 184.174 105.828V82.1018C184.174 81.3541 184.552 80.9795 185.311 80.9795H188.053C188.535 80.9795 188.871 81.0469 189.061 81.1829C189.249 81.319 189.379 81.5737 189.449 81.9482L190.069 84.8572C191.448 83.3603 192.742 82.3053 193.949 81.6936C195.167 81.0784 196.515 80.7633 197.879 80.7747H198.087C198.534 80.7747 198.905 80.8178 199.198 80.9027C199.491 80.9876 199.697 81.1317 199.818 81.3365C199.939 81.54 200 81.9159 200 82.4589V85.2143C200 85.9284 199.69 86.2854 199.069 86.2854C198.861 86.2854 198.577 86.2692 198.216 86.2342C197.829 86.1992 197.441 86.1822 197.052 86.183C194.5 86.183 192.242 86.8297 190.276 88.1232V105.828C190.276 106.577 189.896 106.95 189.139 106.95H185.312H185.311ZM166.339 64.0809C165.604 64.0809 164.87 63.7979 164.322 63.2334L155.594 54.2869C155.339 54.0272 155.138 53.7193 155.003 53.3811C154.869 53.0429 154.803 52.6812 154.81 52.3173C154.817 51.9534 154.897 51.5946 155.044 51.2618C155.192 50.9291 155.404 50.6291 155.669 50.3795C156.207 49.8708 156.924 49.5937 157.664 49.6078C158.405 49.6219 159.11 49.9261 159.629 50.455L168.356 59.4028C168.611 59.6625 168.812 59.9704 168.946 60.3086C169.081 60.6468 169.146 61.0084 169.139 61.3723C169.132 61.7362 169.053 62.0951 168.905 62.4278C168.758 62.7606 168.545 63.0605 168.28 63.3102C167.756 63.8065 167.062 64.0824 166.34 64.0809" fill="#29458C"/>
<path fill-rule="evenodd" clip-rule="evenodd" d="M157.439 72.8926C156.705 72.8926 155.971 72.6096 155.422 72.0464C155.168 71.7867 154.967 71.4787 154.833 71.1405C154.698 70.8024 154.633 70.4408 154.64 70.0769C154.647 69.7131 154.726 69.3543 154.874 69.0215C155.021 68.6888 155.233 68.3888 155.498 68.1391L164.568 59.5294C165.107 59.021 165.823 58.7441 166.564 58.7582C167.304 58.7724 168.01 59.0763 168.528 59.6049C169.599 60.7043 169.566 62.4532 168.451 63.5109L159.381 72.1205C158.857 72.6175 158.163 72.8939 157.441 72.8926H157.439ZM183.957 64.0808C183.223 64.0808 182.488 63.7979 181.939 63.2333L173.21 54.2868C172.955 54.0271 172.755 53.7191 172.62 53.3808C172.486 53.0426 172.42 52.6809 172.428 52.317C172.435 51.9531 172.514 51.5943 172.662 51.2616C172.81 50.9289 173.022 50.629 173.287 50.3795C173.826 49.8715 174.542 49.5949 175.282 49.609C176.022 49.6231 176.727 49.9268 177.246 50.4549L185.974 59.4028C186.229 59.6624 186.43 59.9704 186.564 60.3086C186.699 60.6468 186.764 61.0084 186.757 61.3723C186.75 61.7362 186.671 62.095 186.523 62.4278C186.376 62.7606 186.163 63.0605 185.899 63.3101C185.375 63.8065 184.68 64.0824 183.958 64.0808" fill="#29458C"/>
<path fill-rule="evenodd" clip-rule="evenodd" d="M175.058 72.8925C174.323 72.8925 173.589 72.6096 173.039 72.0464C172.784 71.7867 172.584 71.4787 172.449 71.1404C172.315 70.8022 172.249 70.4405 172.256 70.0766C172.264 69.7127 172.343 69.3539 172.491 69.0212C172.639 68.6885 172.851 68.3886 173.116 68.139L182.186 59.5294C182.725 59.0214 183.441 58.7448 184.181 58.7589C184.921 58.773 185.626 59.0767 186.145 59.6048C186.4 59.8645 186.6 60.1723 186.735 60.5104C186.869 60.8485 186.935 61.21 186.928 61.5737C186.921 61.9374 186.841 62.2961 186.694 62.6288C186.547 62.9614 186.334 63.2613 186.07 63.5109L176.999 72.1205C176.475 72.6174 175.781 72.8938 175.059 72.8925" fill="#29458C"/>
<path fill-rule="evenodd" clip-rule="evenodd" d="M51.9046 19.7266C47.0464 23.3755 40.0051 25.3165 33.9409 25.3165C25.4422 25.3165 17.789 22.1182 11.9975 16.7941C11.5426 16.3764 11.9485 15.8051 12.4954 16.1291C18.7435 19.8304 26.47 22.0599 34.4515 22.0599C39.8354 22.0599 45.7527 20.9224 51.1983 18.5713C52.0194 18.2169 52.708 19.1215 51.9046 19.7266" fill="#29458C"/>
<path fill-rule="evenodd" clip-rule="evenodd" d="M54.2034 17.4489C53.5738 16.6304 50.0422 17.0608 48.4549 17.2549C47.9738 17.3131 47.8996 16.8861 48.3333 16.5764C51.1511 14.5646 55.7679 15.146 56.3046 15.8194C56.8447 16.4987 56.1629 21.2034 53.5224 23.4498C53.1156 23.7949 52.7291 23.6101 52.9097 23.1544C53.5038 21.6464 54.8338 18.2684 54.2034 17.4498V17.4489ZM48.5274 3.15612V1.31139C48.5266 1.24909 48.5384 1.18727 48.5621 1.12966C48.5859 1.07205 48.6211 1.01986 48.6656 0.976235C48.7101 0.932612 48.7629 0.898466 48.821 0.875862C48.8791 0.853258 48.9411 0.842666 49.0034 0.844726L57.4236 0.843882C57.6928 0.843882 57.9089 1.03629 57.9089 1.30886V2.89114C57.9063 3.15696 57.6785 3.50211 57.2751 4.05232L52.9131 10.1662C54.5325 10.1291 56.2447 10.3679 57.7156 11.1789C58.0473 11.362 58.1367 11.6329 58.1629 11.8996V13.8675C58.1629 14.1376 57.8599 14.4523 57.5426 14.2895C54.9511 12.9561 51.5122 12.811 48.6464 14.3055C48.3536 14.4582 48.0473 14.1485 48.0473 13.8776V12.0067C48.0473 11.7072 48.0532 11.1949 48.3603 10.7392L53.4135 3.6211H49.0135C48.7451 3.6211 48.5291 3.43291 48.5274 3.15612V3.15612ZM64.8819 2.79072C62.9629 2.79072 62.8422 5.46582 62.8422 7.13418C62.8422 8.80253 62.8177 12.3705 64.8582 12.3705C66.8734 12.3705 66.9705 9.49283 66.9705 7.73924C66.9705 6.58818 66.9215 5.20759 66.5814 4.11392C66.2903 3.16456 65.7072 2.79072 64.8819 2.79072V2.79072ZM64.8582 0C68.719 0 70.8067 3.39494 70.8067 7.7097C70.8067 11.881 68.5004 15.1899 64.8574 15.1899C61.07 15.1899 59.0051 11.7941 59.0051 7.56624C59.0051 3.30802 61.0937 0 64.8582 0ZM44.1781 14.9671C44.0034 15.1249 43.6844 15.13 43.5536 15.0287C42.6498 14.3266 42.0371 13.2582 42.0371 13.2582C40.5857 14.7435 39.5561 15.1899 37.6768 15.1899C35.4489 15.1899 33.7173 13.8084 33.7173 11.0473C33.7173 8.88945 34.8802 7.42278 36.5384 6.7038C37.973 6.07089 39.9781 5.95527 41.5114 5.78228C41.5114 5.78228 41.6397 4.1173 41.1907 3.5097C40.8422 3.03882 40.2498 2.81941 39.7055 2.81941C38.724 2.81519 37.7764 3.35105 37.5882 4.38312C37.5342 4.67848 37.3181 4.92574 37.0895 4.90127L34.5561 4.62532C34.4928 4.61655 34.432 4.59493 34.3774 4.56178C34.3228 4.52864 34.2755 4.48466 34.2385 4.43257C34.2015 4.38048 34.1756 4.32137 34.1623 4.25888C34.149 4.19639 34.1486 4.13184 34.1612 4.0692C34.7511 0.945148 37.5587 0 40.0768 0C41.3629 0 43.0456 0.345148 44.0599 1.32321C45.3477 2.53165 45.2236 4.14346 45.2236 5.89873V10.038C45.2236 11.2844 45.7384 11.8304 46.2211 12.5021C46.3899 12.7443 46.4287 13.0312 46.2127 13.2076C45.6726 13.6633 44.1789 14.9671 44.1789 14.9671H44.1781ZM41.5114 8.48692C41.5114 9.52321 41.5367 10.3857 41.0169 11.3063C40.5966 12.054 39.9283 12.5148 39.1857 12.5148C38.1713 12.5148 37.5772 11.7376 37.5772 10.5865C37.5772 8.32321 39.5983 7.91139 41.5114 7.91139V8.48692ZM10.4608 14.9671C10.2861 15.1249 9.96624 15.13 9.83629 15.0287C8.93249 14.3266 8.31983 13.2582 8.31983 13.2582C6.86751 14.7426 5.83966 15.1899 3.95865 15.1899C1.73165 15.1899 0 13.8084 0 11.0473C0 8.88945 1.16287 7.42278 2.8211 6.7038C4.2557 6.07089 6.26076 5.95527 7.79409 5.78228C7.79409 5.78228 7.92152 4.1173 7.47342 3.5097C7.12405 3.03882 6.53249 2.81941 5.98819 2.81941C5.00675 2.81519 4.05907 3.35105 3.87089 4.38312C3.81688 4.67848 3.60084 4.92574 3.37215 4.90127L0.838819 4.62447C0.775532 4.61571 0.714708 4.59409 0.660088 4.56094C0.605469 4.52779 0.558208 4.48382 0.521215 4.43173C0.484221 4.37964 0.458277 4.32053 0.444978 4.25804C0.431678 4.19555 0.431305 4.13099 0.443882 4.06835C1.03291 0.945148 3.84135 0 6.35949 0C7.64557 0 9.32827 0.345148 10.3426 1.32321C11.6287 2.53165 11.5055 4.14346 11.5055 5.89873V10.038C11.5055 11.2844 12.0203 11.8304 12.5038 12.5021C12.6726 12.7443 12.7114 13.0312 12.4954 13.2076C11.9553 13.6633 10.4608 14.9671 10.4608 14.9671ZM7.79409 8.48692C7.79409 9.52321 7.81941 10.3857 7.29958 11.3063C6.87932 12.054 6.21097 12.5148 5.46835 12.5148C4.45401 12.5148 3.85992 11.7376 3.85992 10.5865C3.85992 8.32321 5.88101 7.91139 7.79409 7.91139V8.48692ZM17.9359 6.8962C17.9359 5.373 17.8616 3.26835 19.7511 3.26835C21.616 3.26835 21.3696 5.42869 21.3696 6.8962L21.373 13.8734C21.373 14.1266 21.5806 14.3291 21.8447 14.346H24.4692C24.7494 14.346 24.9755 14.135 24.9755 13.8734V6.89536C24.9755 6.14683 24.9519 5.03966 25.2211 4.37468C25.4911 3.7097 26.1536 3.29451 26.7916 3.29451C27.5519 3.29451 28.1409 3.5443 28.3367 4.43038C28.4599 4.95696 28.411 6.34177 28.411 6.89451V13.8734C28.411 14.1249 28.6186 14.3291 28.8835 14.3451H31.508C31.7882 14.3451 32.0143 14.1342 32.0143 13.8726L32.0169 5.56624C32.0169 4.15359 32.1882 2.54768 31.3544 1.43966C30.6186 0.443038 29.4169 0 28.3122 0C26.7679 0 25.3198 0.776371 24.6819 2.43713C23.946 0.776371 22.9156 0 21.2726 0C19.6523 0 18.4506 0.776371 17.8135 2.43713H17.7637V0.756962C17.7629 0.693239 17.7496 0.630292 17.7245 0.571716C17.6994 0.513139 17.663 0.460081 17.6174 0.415571C17.5718 0.37106 17.5179 0.33597 17.4587 0.312303C17.3995 0.288636 17.3363 0.276857 17.2726 0.277637H14.8211C14.7574 0.276857 14.6941 0.288636 14.635 0.312303C14.5758 0.33597 14.5219 0.37106 14.4762 0.415571C14.4306 0.460081 14.3942 0.513139 14.3691 0.571716C14.344 0.630292 14.3307 0.693239 14.33 0.756962V13.8667C14.33 14.1316 14.5494 14.346 14.8211 14.346H17.4456C17.574 14.3471 17.6976 14.2973 17.7893 14.2075C17.8811 14.1176 17.9335 13.9951 17.935 13.8667V6.8962H17.9359ZM76.2346 13.8667C76.2319 13.9962 76.178 14.1194 76.0847 14.2092C75.9914 14.2991 75.8662 14.3483 75.7367 14.346H73.0717C72.9421 14.3485 72.8167 14.2994 72.7232 14.2095C72.6297 14.1196 72.5757 13.9963 72.573 13.8667V0.756962C72.5757 0.62744 72.6296 0.504256 72.7229 0.414408C72.8162 0.32456 72.9414 0.275376 73.0709 0.277637H75.535C75.8236 0.277637 76.0329 0.500422 76.0329 0.651477V2.65823H76.0844C76.8329 0.858228 77.8785 0 79.7215 0C80.9173 0 82.0878 0.41519 82.8354 1.55105C83.5316 2.60338 83.5316 4.37553 83.5316 5.64979V13.9316C83.5021 14.1654 83.2844 14.346 83.0203 14.346H80.346C80.0987 14.3308 79.8996 14.1561 79.8709 13.9325L79.8759 5.97975C79.8759 3.31899 78.8152 3.24051 78.2025 3.24051C77.4911 3.24051 76.9181 3.77468 76.6675 4.27342C76.2945 5.07679 76.2346 5.89873 76.2346 6.78565V13.8667" fill="#29458C"/>
</svg>
