<svg width="142" height="40" viewBox="0 0 142 40" fill="none" xmlns="http://www.w3.org/2000/svg">
<path d="M32.4117 9C32.4117 8.44772 31.964 8 31.4117 8H1.74839C0.974977 8 0.494322 8.84039 0.88646 9.50702L9.1135 23.493C9.29758 23.8059 9.29758 24.1941 9.1135 24.507L0.886458 38.493C0.494321 39.1596 0.974978 40 1.74839 40H31.4117C31.964 40 32.4117 39.5523 32.4117 39V9Z" fill="#8E9310"/>
<path d="M109.412 9C109.412 8.44772 109.859 8 110.412 8H140.075C140.849 8 141.329 8.84039 140.937 9.50702L132.71 23.493C132.526 23.8059 132.526 24.1941 132.71 24.507L140.937 38.493C141.329 39.1596 140.849 40 140.075 40H110.412C109.859 40 109.412 39.5523 109.412 39V9Z" fill="#8E9310"/>
<path d="M109.412 40L120.412 34H109.412V40Z" fill="#62650B"/>
<path d="M32.4117 40L21.4117 34H32.4117V40Z" fill="#62650B"/>
<rect x="21.4117" width="99" height="34" rx="2" fill="#B9BF15"/>
<g filter="url(#filter0_d_518_1134)">
<path d="M40.4355 22.7872C43.4435 22.7872 45.3475 21.1232 45.3475 17.7312V11.4112H42.8835V17.8272C42.8835 19.6032 41.9715 20.5152 40.4675 20.5152C38.9635 20.5152 38.0515 19.5712 38.0515 17.7472V11.4112H35.5875V17.8112C35.5875 21.1072 37.4275 22.7872 40.4355 22.7872Z" fill="white"/>
<path d="M47.8573 22.6112H50.3213V19.2512H52.1933C54.7053 19.2512 56.7213 17.9072 56.7213 15.3152V15.2832C56.7213 12.9952 55.1053 11.4112 52.4333 11.4112H47.8573V22.6112ZM50.3213 17.0592V13.6352H52.2253C53.4573 13.6352 54.2253 14.2272 54.2253 15.3312V15.3632C54.2253 16.3232 53.5053 17.0592 52.2733 17.0592H50.3213Z" fill="white"/>
<path d="M58.5448 22.6112H62.9128C66.4328 22.6112 68.8648 20.1632 68.8648 17.0112V16.9792C68.8648 13.8272 66.4328 11.4112 62.9128 11.4112H58.5448V22.6112ZM62.9128 13.6352C64.9288 13.6352 66.2888 15.0272 66.2888 17.0112V17.0432C66.2888 19.0272 64.9288 20.3872 62.9128 20.3872H61.0088V13.6352H62.9128Z" fill="white"/>
<path d="M69.3035 22.6112H71.8155L72.8395 20.0992H77.5755L78.5995 22.6112H81.1755L76.3755 11.3312H74.1035L69.3035 22.6112ZM73.7195 17.9232L75.2075 14.2912L76.6955 17.9232H73.7195Z" fill="white"/>
<path d="M84.0746 22.6112H86.5387V13.6832H89.9467V11.4112H80.6666V13.6832H84.0746V22.6112Z" fill="white"/>
<path d="M91.8416 22.6112H100.37V20.4192H94.2896V18.0672H99.5696V15.8752H94.2896V13.6032H100.29V11.4112H91.8416V22.6112Z" fill="white"/>
<path d="M103.136 18.8032H104.48L105.232 11.7312V11.4112H102.384V11.7312L103.136 18.8032ZM102.512 22.6112H105.104V20.0512H102.512V22.6112Z" fill="white"/>
</g>
<defs>
<filter id="filter0_d_518_1134" x="35.5875" y="11.3312" width="69.6449" height="12.456" filterUnits="userSpaceOnUse" color-interpolation-filters="sRGB">
<feFlood flood-opacity="0" result="BackgroundImageFix"/>
<feColorMatrix in="SourceAlpha" type="matrix" values="0 0 0 0 0 0 0 0 0 0 0 0 0 0 0 0 0 0 127 0" result="hardAlpha"/>
<feOffset dy="1"/>
<feComposite in2="hardAlpha" operator="out"/>
<feColorMatrix type="matrix" values="0 0 0 0 0.418868 0 0 0 0 0.432453 0 0 0 0 0.0475472 0 0 0 0.5 0"/>
<feBlend mode="normal" in2="BackgroundImageFix" result="effect1_dropShadow_518_1134"/>
<feBlend mode="normal" in="SourceGraphic" in2="effect1_dropShadow_518_1134" result="shape"/>
</filter>
</defs>
</svg>
