<svg xmlns="http://www.w3.org/2000/svg" width="130" height="110" version="1"><g><g fill-rule="evenodd" stroke="#000"><path d="M101.12 24.95c1.375-2.963.82-3.077 4.934-8.712 3.16-5.54 8.268-11.43 11.1-9.86 3.732 1.57 2.696 21.11-.063 24.886-2.497 4.046-4.63 4.217-9.088 7.615l-6.88-13.93z" fill="#666" stroke-width="2.242" transform="matrix(-.675 0 0 .701 106.087 20.233)"/><path d="M28.02 26.826c1.355-.103 1.815 1.21 2.53 2.212 2.138 2.37 3.72 7.747 5.858 9.584l-2.386 5.49c-4.415-1.658-6.017-3.14-6.426-10.24-.413-3.014-1.124-6.38.423-7.046z" fill="#de8787"/></g><g fill-rule="evenodd" stroke="#000"><path d="M101.12 24.95c1.375-2.963.82-3.077 4.934-8.712 3.16-5.54 8.268-11.43 11.1-9.86 3.732 1.57 2.696 21.11-.063 24.886-2.497 4.046-4.63 4.217-9.088 7.615l-6.88-13.93z" fill="#666" stroke-width="2.242" transform="matrix(.675 0 0 .701 26.933 20.233)"/><path d="M105 26.826c-1.355-.103-1.815 1.21-2.53 2.212-2.138 2.37-3.72 7.747-5.858 9.584l2.386 5.49c4.415-1.658 6.017-3.14 6.426-10.24.413-3.014 1.124-6.38-.423-7.046z" fill="#de8787"/></g><path transform="matrix(.686 0 0 .682 25.433 21.115)" d="M109.602 49.997c0 27.616-22.274 50.003-49.75 50.003-27.477 0-49.75-22.387-49.75-50.003 0-27.615 22.273-50.002 49.75-50.002 27.476 0 49.75 22.387 49.75 50.002z" fill="#f9f9f9" stroke="#000" stroke-width="2.519" stroke-linecap="round"/><path d="M40.636 40.433c.254.89.15.906 1.348.705.655-.11 1.768.37 2.635 1.595.406.575.514 2.6.387 3.136-.24 1.022-.067 1.12-.537 1.954-.383.68-.85 2.267-1.658 2.643-1.777.827-2.01-1.49-3.215.21-.687.973.935 2.345.12 2.858-.87.546-2.864-.242-3.422-.976-.747-.98-.79-2.413-.79-3.625 0-1.422 1.4-1.197 2.37-1.812.653-.416.4-1.928.262-2.51-.21-.882-1.8-1.395-2.5-1.95-.79-.628.278-2.385.526-2.648.228-.24 1.316.355 1.974-.42.393-.46-.54-1.17.394-1.532.97-.373 1.908 1.674 2.106 2.37z" fill="#666" fill-rule="evenodd" stroke="#000" stroke-width="0.5362"/><path d="M93.138 48.854c-1.817.872-1.02 2.575-2.16 4.085-.98 1.297-3.062 1.787-4.42 2.465-1.215.608-1.34 3.64-1.074 4.956.82 4.06 5.284 2.328 6.016 4.618.83 2.6-3.064 5.39-3.18 7.594-.126 2.36.43 2.313 1.414 3.006 1.34.943 2.714-3.08 3.005-4.243.445-1.784 2.63-2.883 3.888-3.89.858-.686 1.312-1.11 1.944-2.374.876-1.75-.4-3.124-1.414-4.342-1.03-1.235-1.038-1.53-1.246-3.02-.134-.962.963-2.878 1.586-3.708.745-.994-.315-3.22-.715-3.887-.52-.87-1.696-1.287-3.645-1.26z" fill="#666" fill-rule="evenodd" stroke="#000" stroke-width="0.7"/><path d="M72.88 23.23c.274.932-3.17 1.154-3.278 3.032-.074 1.318 3.544 2.16 3.1 4.248-.835 3.93 2.932 2.608 3.462 2.527.83-.127 4.27-1.717 5.47.438 1.485 2.664 5.276 1.282 3.944-.61-1.006-1.426.34-2.65-.684-4.117-1.204-1.726-5.32-2.273-7.11-3.235-.665-.357-.95-.734-1.504-1.47-.51-.68-.686.198-1.18-.87-.29-.632-2.708-1.313-2.22.056z" fill="#666" fill-rule="evenodd" stroke="#000" stroke-width="0.5614"/><path d="M35.66 64.89c1.006 2.11 4.45-.404 4.94 1.565.35 1.396-1.142 4.01-1.59 5.127l-.353.884c-.935 2.338 1.74 3.947 2.81 4.092 1.247.17 2.847-.487 4.137.318 1.428.892.308 1.502 1.75 2.095 1.987.82 3.31-3.86 2.88-5.17-.68-2.07-3.917-1.37-4.815-2.42-.766-.897-.62-1.7-.576-2.45.07-1.163 1.867-1.9 2.298-2.475.923-1.23-1.358-4.103-2.298-4.596-.753-.395-3.355-.612-4.304-.443-1.142.204-2.143.767-3.015 1.052-1.22.4-2.274.752-1.865 2.42z" fill="#666" fill-rule="evenodd" stroke="#000" stroke-width="0.7"/><path d="M85.297 31.847c2.812-2.104 6.265-1.77 8.562-4.625 2.237-2.134 5.196-7.018 6.713-6.403 1.413.818-1.05 7.255-3.47 9.814-2.39 2.803-3.09 4.355-6.344 5.97-.766.507-3.646 1.035-5.094.167-1.072-1.25-1.756-3.86-.37-4.923z" fill="#f4eed7" fill-rule="evenodd" stroke="#000" stroke-width="1.0325"/><path d="M47.708 31.847c-2.812-2.104-6.264-1.77-8.56-4.625-2.24-2.134-5.198-7.018-6.715-6.403-1.413.818 1.05 7.255 3.47 9.814 2.39 2.803 3.09 4.355 6.344 5.97.764.507 3.645 1.035 5.093.167 1.072-1.25 1.756-3.86.368-4.923z" fill="#f4eed7" fill-rule="evenodd" stroke="#000" stroke-width="1.0325"/><path d="M54.275 56.432c-1.328.946-.985 5.58.29 8.358 1.387 3.022 4.834 6.953 11.81 7.015 6.854.06 10.22-3.95 11.613-6.996 1.777-3.88 1.94-7.515 1.02-8.39-.814-.76-6.653.638-12.46.653-5.81.014-11.586-1.353-12.273-.64z" fill="#de8787" stroke="#000" stroke-width="1.8885999999999998" stroke-linecap="round"/><path d="M60.91 62.944c0 .96-.783 1.74-1.75 1.74-.966 0-1.75-.78-1.75-1.74s.784-1.74 1.75-1.74c.967 0 1.75.78 1.75 1.74z"/><path d="M75.61 62.966c0 .96-.783 1.74-1.75 1.74-.966 0-1.75-.78-1.75-1.74s.784-1.74 1.75-1.74c.967 0 1.75.78 1.75 1.74z"/><path d="M53.308 73.564c4.07 2.77 7.96 5.23 13.268 5.39 5.208-.167 9.003-2.59 13.106-5.408" stroke="#000" stroke-width="1.6099999999999999" stroke-linecap="round" fill="none"/><path transform="matrix(.703 .102 0 .569 22.791 18.791)" d="M58.25 34.75c0 6.49-5.15 11.75-11.5 11.75s-11.5-5.26-11.5-11.75S40.4 23 46.75 23s11.5 5.26 11.5 11.75z" fill="#666" stroke="#000" stroke-linecap="round"/><g><path d="M42.048 35.003c0 3.853-3.152 6.976-7.04 6.976s-7.04-3.124-7.04-6.977 3.152-6.976 7.04-6.976 7.04 3.123 7.04 6.976z" transform="matrix(.696 0 0 .702 31.319 18.415)" fill="#fff" stroke="#000" stroke-width="1.001" stroke-linecap="round"/><path d="M59.174 43.01c0 1.933-1.566 3.5-3.498 3.5-1.932 0-3.5-1.567-3.5-3.5 0-1.934 1.568-3.502 3.5-3.502s3.498 1.568 3.498 3.502z"/></g><path transform="matrix(-.703 .104 0 .575 110.235 18.54)" d="M58.25 34.75c0 6.49-5.15 11.75-11.5 11.75s-11.5-5.26-11.5-11.75S40.4 23 46.75 23s11.5 5.26 11.5 11.75z" fill="#666" stroke="#000" stroke-linecap="round"/><path transform="matrix(.696 0 0 .702 52.849 18.415)" d="M42.048 35.003c0 3.853-3.152 6.976-7.04 6.976s-7.04-3.124-7.04-6.977 3.152-6.976 7.04-6.976 7.04 3.123 7.04 6.976z" fill="#fff" stroke="#000" stroke-width="1.001" stroke-linecap="round"/><path d="M80.705 43.01c0 1.933-1.566 3.5-3.498 3.5-1.932 0-3.5-1.567-3.5-3.5 0-1.934 1.568-3.502 3.5-3.502s3.498 1.568 3.498 3.502z"/></g></svg>