<svg xmlns="http://www.w3.org/2000/svg" xmlns:xlink="http://www.w3.org/1999/xlink" width="140" height="120" version="1"><defs><linearGradient id="a"><stop offset="0"/><stop offset="1" stop-opacity="0"/></linearGradient><linearGradient xlink:href="#a" id="d" gradientUnits="userSpaceOnUse" x1="65.418" y1="125" x2="65.387" y2="50.54"/><linearGradient id="b"><stop offset="0" stop-color="#917c6f"/><stop offset="1" stop-color="#917c6f" stop-opacity="0"/></linearGradient><linearGradient xlink:href="#b" id="c" gradientUnits="userSpaceOnUse" gradientTransform="matrix(1 0 0 1.001 -.017 -.062)" x1="65.108" y1="85.035" x2="65.076" y2="65"/></defs><g><path d="M25.954 59.637c-12.394 6.36-12.57-1.22-16.96-5.392-1.56-2.027-4.758-6.24.13-22.248.198-5.53-4.684-11.884-1.6-17.72.677-6.727 3.84-11.013 15.023-9.662 6.04.73 9.94 4.664 16.427 3.404 4.067-.135 5.885.577 10.24 4.97-8.1 15.186-15.16 31.462-23.26 46.647z" fill="#9f8c81" fill-rule="evenodd" stroke="#000" stroke-width="2.285"/><path d="M114.76 59.637c12.394 6.36 12.57-1.22 16.96-5.392 1.56-2.027 4.76-6.24-.13-22.248-.198-5.53 4.685-11.884 1.6-17.72-.677-6.727-3.84-11.013-15.023-9.662-6.04.73-9.94 4.664-16.426 3.404-4.067-.135-5.885.577-10.24 4.97 8.1 15.186 15.16 31.462 23.26 46.647z" fill="#9f8c81" fill-rule="evenodd" stroke="#000" stroke-width="2.285"/><g fill="#c8beb7" stroke="#000" stroke-linecap="round"><path d="M114.286 64.82c0 27.11-22.16 49.11-49.465 49.11-27.303 0-49.463-22-49.463-49.11 0-27.106 22.16-49.106 49.464-49.106 27.306 0 49.466 22 49.466 49.107z" stroke-width="2.525" transform="matrix(.986 0 0 .995 6.456 -11.171)"/></g><path d="M80.92 79.968c3.953 5.153 4.78 11.48 5.565 15.398.55 3.163.76 6.846-1.025 11.442-1.992 4.407-2.02 8.44-.046 9.45 2.67.294 5.096-3.496 6.24-6.445 1.418-2.82 2.292-6.727 2.96-11.59 1.274-8.296-3.066-23.74-6.077-24.484-2.484 1.135-8.246 5.407-7.617 6.228z" fill="#f4eed7" fill-rule="evenodd" stroke="#000" stroke-width="1.031"/><path d="M71.48 82.102c7.055-.24 12.196-3.713 17.755-7.756" stroke="#000" stroke-width="2.244" stroke-linecap="round" fill="none"/><g><path d="M50.144 65.706c1.636 12.484 7.024 26.4 5.087 39.24-.64 5.194-1.818 8.42-5.05 8.968-8.222.02-24.304-4.878-24.667-3.34.154 1.987 4.416 2.634 4.39 4.98.275 2.082-3.737.68-4.176 3.12.11 1.68 21.925 7.202 29.628 5.487 7.807-1.336 15.615-12.235 19.58-21.346 4.108-8.323 3.035-24.868 4.552-37.3" fill="url(#c)" fill-rule="evenodd" stroke="url(#d)" stroke-width="1.026" transform="matrix(1 0 0 1.049 5.357 -14.472)"/><path d="M50.035 65.816C49.82 60.324 56.24 55.75 64.365 55.6h.014c8.13-.145 14.904 4.197 15.118 9.692 0 .015 0 .03.002.045.006.197.005.37-.006.57" stroke="#9d958f" stroke-width=".993" stroke-linecap="round" fill="none" transform="matrix(1 0 0 1.049 5.357 -14.472)"/><path d="M50.987 70.63c-.203-5.438 5.874-9.967 13.567-10.115h.014c7.7-.144 14.11 4.155 14.315 9.594 0 .014 0 .03.002.044.006.195.004.366-.006.566" stroke="#908984" stroke-width="1.043" stroke-linecap="round" fill="none" transform="matrix(1 0 0 1.049 5.357 -14.472)"/><path d="M51.647 73.577c-.195-5.33 5.673-9.773 13.102-9.918l.013-.002c7.433-.14 13.625 4.075 13.823 9.408v.044c.007.193.006.36-.004.557" stroke="#88827d" stroke-width="1.036" stroke-linecap="round" fill="none" transform="matrix(1 0 0 1.049 5.357 -14.472)"/><path d="M52.333 76.675c-.19-5.168 5.532-9.474 12.776-9.614h.012c7.247-.135 13.283 3.95 13.477 9.118v.042c.007.188.005.35-.004.54" stroke="#807975" stroke-width="1.032" stroke-linecap="round" fill="none" transform="matrix(1 0 0 1.049 5.357 -14.472)"/><path d="M53.464 82.457c-.18-4.945 5.234-9.065 12.087-9.2h.014c6.853-.13 12.562 3.777 12.748 8.722 0 .012 0 .026.002.04.006.18.004.337-.005.52" stroke="#706b67" stroke-width="1.015" stroke-linecap="round" fill="none" transform="matrix(1 0 0 1.049 5.357 -14.472)"/><path d="M55.037 91.815c-.16-4.677 4.64-7.972 10.72-7.357h.01c6.075.62 11.135 4.914 11.303 9.588v.04c.006.17.005.32-.003.492" stroke="#4e4a47" stroke-width="1.024" stroke-linecap="round" fill="none" transform="matrix(1 0 0 1.049 5.357 -14.472)"/><path d="M55.503 100.784c-.133-3.758 3.876-6.07 8.95-5.162.004 0 .007 0 .01.002 5.07.91 9.292 4.69 9.436 8.445v.03c.004.14.003.26-.003.4" stroke="#32302e" stroke-linecap="round" fill="none" transform="matrix(1 0 0 1.049 5.357 -14.472)"/><path d="M54.742 107.713c1.014-1.854 3.55-2.12 5.81-.863.003 0 .005.002.007.004 3.418 1.953 6.267 5.54 6.367 8.013v.02c.004.095.004.174 0 .264" stroke="#1d1d1d" stroke-width="1.017" stroke-linecap="round" fill="none" transform="matrix(1 0 0 1.049 5.357 -14.472)"/><path d="M44.893 113.685c.642.22.928-.85 1.507 1.943v.005c.577 2.786.84 6.434.59 8.16 0 .006 0 .01-.002.016-.01.067-.02.12-.03.182" stroke="#000" stroke-width=".722" stroke-linecap="round" fill="none" transform="matrix(1 0 0 1.049 5.357 -14.472)"/></g><path d="M59.794 79.968c-3.953 5.153-4.78 11.48-5.565 15.398-.55 3.163-.76 6.846 1.024 11.442 1.993 4.407 2.02 8.44.046 9.45-2.67.294-5.096-3.496-6.24-6.445-1.417-2.82-2.29-6.727-2.96-11.59-1.274-8.296 3.067-23.74 6.077-24.484 2.484 1.135 8.246 5.407 7.617 6.228z" fill="#f4eed7" fill-rule="evenodd" stroke="#000" stroke-width="1.031"/><path d="M58.902 79.134l-6.873-4.678" stroke="#000" stroke-width="2.244" stroke-linecap="round" fill="none"/><g><path transform="matrix(.994 0 0 1.003 53.045 .658)" d="M42.048 35.003a7.04 6.976 0 1 1-14.08 0 7.04 6.976 0 1 1 14.08 0z" fill="#fff" stroke="#000" stroke-width="1.001" stroke-linecap="round"/><path transform="matrix(.996 0 0 1.002 52.983 .595)" d="M40.027 35.098a5.02 4.988 0 1 1-10.038 0 5.02 4.988 0 1 1 10.037 0z"/></g><g><path transform="matrix(.994 0 0 1.003 18.045 .602)" d="M42.048 35.003a7.04 6.976 0 1 1-14.08 0 7.04 6.976 0 1 1 14.08 0z" fill="#fff" stroke="#000" stroke-width="1.001" stroke-linecap="round"/><path transform="matrix(.996 0 0 1.002 17.983 .539)" d="M40.027 35.098a5.02 4.988 0 1 1-10.038 0 5.02 4.988 0 1 1 10.037 0z"/></g></g></svg>