<?xml version="1.0" encoding="UTF-8" standalone="no"?>
<!-- Created with Inkscape (http://www.inkscape.org/) -->

<svg
   xmlns:dc="http://purl.org/dc/elements/1.1/"
   xmlns:cc="http://creativecommons.org/ns#"
   xmlns:rdf="http://www.w3.org/1999/02/22-rdf-syntax-ns#"
   xmlns:svg="http://www.w3.org/2000/svg"
   xmlns="http://www.w3.org/2000/svg"
   xmlns:sodipodi="http://sodipodi.sourceforge.net/DTD/sodipodi-0.dtd"
   xmlns:inkscape="http://www.inkscape.org/namespaces/inkscape"
   width="110"
   height="110"
   id="svg9098"
   sodipodi:version="0.32"
   inkscape:version="0.48.3.1 r9886"
   version="1.0"
   sodipodi:docname="Linuxien_Lion.svg"
   inkscape:output_extension="org.inkscape.output.svg.inkscape">
  <defs
     id="defs9100" />
  <sodipodi:namedview
     id="base"
     pagecolor="#ffffff"
     bordercolor="#666666"
     borderopacity="1.0"
     inkscape:pageopacity="0.0"
     inkscape:pageshadow="2"
     inkscape:zoom="3.2163554"
     inkscape:cx="4.1563511"
     inkscape:cy="51.215765"
     inkscape:document-units="px"
     inkscape:current-layer="layer1"
     width="110px"
     height="110px"
     inkscape:showpageshadow="true"
     showguides="false"
     inkscape:guide-bbox="true"
     inkscape:window-width="1018"
     inkscape:window-height="684"
     inkscape:window-x="65"
     inkscape:window-y="30"
     showgrid="false"
     inkscape:window-maximized="0">
    <sodipodi:guide
       orientation="vertical"
       position="0"
       id="guide9106" />
    <sodipodi:guide
       orientation="horizontal"
       position="100"
       id="guide9108" />
    <sodipodi:guide
       orientation="vertical"
       position="100"
       id="guide9110" />
    <sodipodi:guide
       orientation="horizontal"
       position="0"
       id="guide9112" />
    <sodipodi:guide
       orientation="horizontal"
       position="75"
       id="guide11077" />
    <sodipodi:guide
       orientation="vertical"
       position="25"
       id="guide11079" />
    <sodipodi:guide
       orientation="vertical"
       position="75.003827"
       id="guide11081" />
    <sodipodi:guide
       orientation="vertical"
       position="50.002551"
       id="guide11083" />
    <sodipodi:guide
       orientation="vertical"
       position="37.5"
       id="guide11085" />
    <sodipodi:guide
       orientation="vertical"
       position="62.5"
       id="guide11087" />
    <sodipodi:guide
       orientation="horizontal"
       position="95"
       id="guide11089" />
    <sodipodi:guide
       orientation="vertical"
       position="43.75"
       id="guide11091" />
    <sodipodi:guide
       orientation="vertical"
       position="56.25"
       id="guide11093" />
    <sodipodi:guide
       orientation="horizontal"
       position="97.5"
       id="guide11095" />
    <sodipodi:guide
       orientation="vertical"
       position="2.5"
       id="guide12068" />
    <sodipodi:guide
       orientation="vertical"
       position="97.5"
       id="guide12070" />
    <sodipodi:guide
       orientation="vertical"
       position="92"
       id="guide12074" />
    <sodipodi:guide
       orientation="horizontal"
       position="92"
       id="guide12076" />
    <sodipodi:guide
       orientation="vertical"
       position="30"
       id="guide14036" />
    <sodipodi:guide
       orientation="vertical"
       position="45"
       id="guide14038" />
    <sodipodi:guide
       orientation="horizontal"
       position="70"
       id="guide14040" />
    <sodipodi:guide
       orientation="horizontal"
       position="55"
       id="guide14042" />
    <sodipodi:guide
       orientation="vertical"
       position="70"
       id="guide14045" />
    <sodipodi:guide
       orientation="horizontal"
       position="51"
       id="guide14063" />
    <sodipodi:guide
       orientation="vertical"
       position="60"
       id="guide14067" />
    <sodipodi:guide
       orientation="vertical"
       position="40"
       id="guide14069" />
    <sodipodi:guide
       orientation="horizontal"
       position="40"
       id="guide14071" />
    <sodipodi:guide
       orientation="vertical"
       position="8"
       id="guide2266" />
  </sodipodi:namedview>
  <g
     inkscape:label="Calque 1"
     inkscape:groupmode="layer"
     id="layer1">
    <g
       id="g4255"
       transform="matrix(0.7,0,0,0.7,20.285486,19.974574)"
       inkscape:export-filename="/home/eric/graphique/svg/publication/linuxien_lion.png"
       inkscape:export-xdpi="90"
       inkscape:export-ydpi="90">
      <g
         inkscape:export-ydpi="18.9"
         inkscape:export-xdpi="18.9"
         inkscape:export-filename="/home/eric/graphique/png/tigre.png"
         transform="matrix(-1,0,0,1,100.00383,-7.4561783e-8)"
         id="g14030">
        <path
           style="fill:#ffa72a;fill-opacity:1;fill-rule:evenodd;stroke:#000000;stroke-width:2.33661318;stroke-linecap:butt;stroke-linejoin:miter;stroke-miterlimit:4;stroke-opacity:1;stroke-dasharray:none"
           d="m 76.172134,9.3389133 c 6.391462,-3.4972092 12.449698,-5.99474 20.548944,-7.9924319 0.636205,-0.1971917 1.644214,-0.2701373 1.908613,-0.01176 0.348051,0.2690111 0.179705,1.4077449 -0.0093,1.8631251 C 96.873538,10.707497 94.304589,17.241375 91.130547,23.831693 L 76.172134,9.3389133 z"
           id="path14032"
           sodipodi:nodetypes="cccccc"
           inkscape:connector-curvature="0" />
        <path
           style="fill:#ffd5d5;fill-rule:evenodd;stroke:#000000;stroke-width:1px;stroke-linecap:butt;stroke-linejoin:miter;stroke-opacity:1"
           d="M 79.700634,10.933216 C 84.11863,8.2627832 93.720406,4.7087514 94.427285,5.5138082 95.448333,6.2206875 90.93216,17.412942 89.243504,20.240459 l -9.54287,-9.307243 z"
           id="path14034"
           sodipodi:nodetypes="cccc"
           inkscape:connector-curvature="0" />
      </g>
      <g
         inkscape:export-ydpi="18.9"
         inkscape:export-xdpi="18.9"
         inkscape:export-filename="/home/eric/graphique/png/tigre.png"
         id="g14026">
        <path
           style="fill:#ffa72a;fill-opacity:1;fill-rule:evenodd;stroke:#000000;stroke-width:2.33661318;stroke-linecap:butt;stroke-linejoin:miter;stroke-miterlimit:4;stroke-opacity:1;stroke-dasharray:none"
           d="m 76.172134,9.3389133 c 6.391462,-3.4972092 12.449698,-5.99474 20.548944,-7.9924319 0.636205,-0.1971917 1.644214,-0.2701373 1.908613,-0.01176 0.348051,0.2690111 0.179705,1.4077449 -0.0093,1.8631251 C 96.873538,10.707497 94.304589,17.241375 91.130547,23.831693 L 76.172134,9.3389133 z"
           id="path12078"
           sodipodi:nodetypes="cccccc"
           inkscape:connector-curvature="0" />
        <path
           style="fill:#ffd5d5;fill-rule:evenodd;stroke:#000000;stroke-width:1px;stroke-linecap:butt;stroke-linejoin:miter;stroke-opacity:1"
           d="M 79.700634,10.933216 C 84.11863,8.2627832 93.720406,4.7087514 94.427285,5.5138082 95.448333,6.2206875 90.93216,17.412942 89.243504,20.240459 l -9.54287,-9.307243 z"
           id="path13055"
           sodipodi:nodetypes="cccc"
           inkscape:connector-curvature="0" />
      </g>
      <path
         inkscape:export-ydpi="18.9"
         inkscape:export-xdpi="18.9"
         inkscape:export-filename="/home/eric/graphique/png/tigre.png"
         transform="matrix(0.9730737,0,0,0.9804829,1.2209641,0.9783567)"
         d="m 100.25764,49.997448 c 0,27.476173 -22.443439,49.750011 -50.128821,49.750011 C 22.443437,99.747459 0,77.473621 0,49.997448 0,22.521275 22.443437,0.24743652 50.128819,0.24743652 c 27.685382,0 50.128821,22.27383848 50.128821,49.75001148 z"
         sodipodi:ry="49.750011"
         sodipodi:rx="50.128819"
         sodipodi:cy="49.997448"
         sodipodi:cx="50.128819"
         id="path9114"
         style="fill:#ffa72a;fill-opacity:1;fill-rule:nonzero;stroke:#000000;stroke-width:2.5;stroke-linecap:round;stroke-linejoin:miter;stroke-miterlimit:4;stroke-opacity:1;stroke-dasharray:none;stroke-dashoffset:0"
         sodipodi:type="arc" />
      <path
         transform="matrix(1.8076521,0,0,1.807652,119.12831,24.913989)"
         d="m -24.25105,37.195996 c -2.099489,1.259693 -10.590021,-21.968137 -12.784065,-20.881468 -2.194044,1.08667 11.136734,21.917216 8.862364,22.823815 -2.27437,0.906599 -6.928946,-23.382415 -9.268892,-22.661766 -2.339945,0.720648 7.476747,23.419851 5.086401,23.949875 -2.390346,0.530024 -3.088414,-24.1911 -5.513658,-23.855137 -2.425244,0.335962 3.623116,24.315924 1.178703,24.455646 -2.444414,0.139722 0.832105,-24.373247 -1.615625,-24.430672 -2.44773,-0.05742 -0.324351,24.582229 -2.759523,24.32803 -2.435172,-0.254199 4.731074,-23.924142 2.324253,-24.373466 -2.406821,-0.449325 -4.263417,24.211866 -6.626278,23.570329 -2.362861,-0.641536 8.507509,-22.855412 6.203933,-23.684999 -2.303577,-0.829588 -8.092064,23.214428 -10.321416,22.20217 -2.229353,-1.012258 12.063605,-21.194741 9.922934,-22.383105 -2.14067,-1.188363 -11.711129,21.61575 -13.749235,20.258987 -2.038105,-1.356763 15.307261,-18.985136 13.384938,-20.501499 -1.922323,-1.516362 -15.026883,19.457234 -16.820956,17.791106 -1.794072,-1.666128 18.154465,-16.283826 16.500278,-18.088914 -1.654187,-1.805089 -17.953449,16.794786 -19.457023,14.862444 -1.503574,-1.932342 20.531479,-13.160774 19.18827,-15.207837 -1.34321,-2.047063 -20.41503,13.697362 -21.589164,11.548853 -1.174133,-2.148508 22.376739,-9.696864 21.379295,-11.932884 -0.997443,-2.23602 -22.347872,10.245184 -23.162155,7.936153 -0.814284,-2.30903 23.642451,-5.981811 23.016608,-8.348876 -0.625844,-2.367066 -23.701916,6.527661 -24.135261,4.117911 -0.433344,-2.409749 24.295839,-2.111832 24.057803,-4.548637 -0.238035,-2.436805 -24.442092,2.641074 -24.483274,0.193017 -0.04118,-2.448057 24.319975,1.812842 24.475913,-0.630591 0.155939,-2.443432 -24.549232,-1.313914 -24.197184,-3.736875 0.352047,-2.4229616 23.714237,5.690564 24.26011,3.303788 0.545873,-2.386777 -24.020559,-5.234873 -23.2844,-7.5699855 0.736158,-2.3351124 22.494314,9.4209045 23.415984,7.1526005 0.92167,-2.268305 -22.869767,-9.0202517 -21.768563,-11.2070368 1.101204,-2.18678523 20.691799,12.9072478 21.965395,10.8161638 1.273596,-2.091084 -21.126659,-12.57201005 -19.68893,-14.5538314 1.437729,-1.9818213 18.353377,16.0593004 19.945914,14.1995944 1.592537,-1.859706 -18.836382,-15.7981601 -17.099365,-17.5236895 1.737017,-1.7255293 15.539613,18.7954255 17.409845,17.2152635 1.870232,-1.580162 -16.058253,-18.6151467 -14.066935,-20.0396938 1.991317,-1.424547 12.323381,21.0447588 14.422869,19.7850658 2.099489,-1.259693 -12.864223,-20.9500103 -10.670179,-22.03668 2.194044,-1.08667 8.78798,22.749044 11.062349,21.842445 2.27437,-0.906599 -9.337017,-22.742279 -6.997071,-23.462928 2.339946,-0.720648 5.024974,23.864141 7.41532,23.334117 2.390347,-0.530024 -5.567987,-23.945536 -3.142742,-24.281498 2.425244,-0.335962 1.131824,24.361169 3.576238,24.221447 2.444414,-0.139722 -1.654749,-24.528615 0.792981,-24.47119 2.44773,0.05742 -2.790638,24.227256 -0.355466,24.481455 2.435172,0.254199 2.301346,-24.476417 4.708167,-24.027092 2.406821,0.449324 -6.640825,23.465869 -4.277965,24.107405 2.362861,0.641536 6.197838,-23.790291 8.501415,-22.960704 2.303576,0.829587 -10.319019,22.096729 -8.089666,23.108987 2.229352,1.012258 9.933808,-22.48801 12.074479,-21.2996462 2.140671,1.1883639 -13.729955,20.1552952 -11.691849,21.5120582 2.038105,1.356763 13.412499,-20.6033016 15.334821,-19.0869389 1.922323,1.5163627 -16.785292,17.6918499 -14.991219,19.3579779 1.794072,1.666129 16.543812,-18.1849778 18.198,-16.3798894 1.654187,1.8050885 -19.4059,14.7701954 -17.902326,16.7025364 1.503574,1.932342 19.24665,-15.2956729 20.58986,-13.2486096 1.343209,2.0470633 -21.523904,11.4659996 -20.349771,13.6145086 1.174134,2.148509 21.45101,-12.01021877 22.448453,-9.7741984 0.997444,2.2360203 -23.084451,7.8648414 -22.270166,10.1738714 0.814284,2.30903 23.099799,-8.4137055 23.725643,-6.0466399 0.625843,2.3670656 -24.047123,4.0599869 -23.613778,6.4697369 0.433344,2.409749 24.150316,-4.5992823 24.388351,-2.162477 0.238035,2.436805 -24.386986,0.149981 -24.345804,2.598039 0.04118,2.448057 24.575353,-0.66574 24.419414,1.777693 -0.155938,2.443433 -24.09524,-3.763908 -24.447287,-1.340947 -0.352047,2.422962 24.3639,3.285046 23.818027,5.671823 -0.545873,2.386776 -23.179439,-7.580316 -23.915598,-5.245203 -0.736159,2.335112 23.521436,7.15075 22.599766,9.419054 -0.92167,2.268304 -21.663304,-11.200396 -22.764508,-9.01361 -1.101204,2.186785 22.069778,10.831253 20.796182,12.922337 -1.273596,2.091084 -19.5861,-14.530392 -21.023829,-12.548571 -1.437728,1.981822 20.046526,14.231233 18.453989,16.090939 -1.592537,1.859706 -17.001627,-17.484059 -18.738644,-15.758529 -1.737017,1.725529 17.504078,17.262631 15.633846,18.842793 -1.870231,1.580162 -13.976819,-19.984897 -15.968137,-18.56035 -1.991317,1.424547 14.508284,19.846936 12.408796,21.106629 z"
         inkscape:randomized="0"
         inkscape:rounded="0.1"
         inkscape:flatsided="false"
         sodipodi:arg2="1.1109305"
         sodipodi:arg1="1.0303768"
         sodipodi:r2="2.7193601"
         sodipodi:r1="27.1936"
         sodipodi:cy="13.877677"
         sodipodi:cx="-38.242043"
         sodipodi:sides="39"
         id="path3239"
         style="fill:#ffca7d;fill-opacity:1;fill-rule:nonzero;stroke:#000000;stroke-width:0.55320382;stroke-linecap:round;stroke-linejoin:miter;stroke-miterlimit:4;stroke-opacity:1;stroke-dasharray:none;stroke-dashoffset:0"
         sodipodi:type="star" />
      <path
         inkscape:export-ydpi="18.9"
         inkscape:export-xdpi="18.9"
         inkscape:export-filename="/home/eric/graphique/png/singe.png"
         sodipodi:nodetypes="ccccccccc"
         id="path24407"
         d="M 29.851928,9.9785072 C 40.160383,5.115416 59.680091,5.2070758 70.235863,9.9315823 89.958793,25.184979 91.843771,40.159548 89.892187,46.525017 86.621839,55.621767 80.938995,58.370808 79.058261,63.379743 76.823864,72.173662 75.148239,79.98862 70.213201,88.199752 65.009919,97.616735 35.095556,97.644743 29.883144,88.183342 24.828472,80.161853 23.424456,72.384983 21.309226,63.65431 19.069737,58.20392 13.353441,55.720131 10.16296,46.499253 8.1924451,40.170403 10.108607,25.019298 29.851928,9.9785072 z"
         style="fill:#ffca7d;fill-opacity:1;fill-rule:evenodd;stroke:#000000;stroke-width:1.1462692px;stroke-linecap:butt;stroke-linejoin:miter;stroke-opacity:1"
         inkscape:connector-curvature="0" />
      <g
         inkscape:export-ydpi="18.9"
         inkscape:export-xdpi="18.9"
         inkscape:export-filename="/home/eric/graphique/png/tigre.png"
         transform="translate(-86.553455,-1.2505499)"
         id="g14051">
        <path
           sodipodi:type="arc"
           style="fill:#ffffff;fill-opacity:1;fill-rule:nonzero;stroke:#000000;stroke-width:1.00112331;stroke-linecap:round;stroke-linejoin:miter;stroke-miterlimit:4;stroke-opacity:1;stroke-dasharray:none;stroke-dashoffset:0"
           id="path8062"
           sodipodi:cx="35.008099"
           sodipodi:cy="35.002998"
           sodipodi:rx="7.0395007"
           sodipodi:ry="6.976366"
           d="m 42.047599,35.002998 c 0,3.852941 -3.151692,6.976366 -7.0395,6.976366 -3.887809,0 -7.039501,-3.123425 -7.039501,-6.976366 0,-3.85294 3.151692,-6.976366 7.039501,-6.976366 3.887808,0 7.0395,3.123426 7.0395,6.976366 z"
           transform="matrix(0.9943886,0,0,1.0033876,89.241802,3.6289746)"
           inkscape:export-filename="/home/eric/graphique/png/cochon.png"
           inkscape:export-xdpi="18.9"
           inkscape:export-ydpi="18.9" />
        <path
           sodipodi:type="arc"
           style="fill:#000000;fill-opacity:1;fill-rule:nonzero;stroke:none"
           id="path8408"
           sodipodi:cx="35.008099"
           sodipodi:cy="35.097698"
           sodipodi:rx="5.0191956"
           sodipodi:ry="4.987628"
           d="m 40.027294,35.097698 c 0,2.754591 -2.24717,4.987628 -5.019195,4.987628 -2.772026,0 -5.019196,-2.233037 -5.019196,-4.987628 0,-2.754591 2.24717,-4.987628 5.019196,-4.987628 2.772025,0 5.019195,2.233037 5.019195,4.987628 z"
           transform="matrix(0.9961755,0,0,1.0024806,89.179247,3.5657866)"
           inkscape:export-filename="/home/eric/graphique/png/cochon.png"
           inkscape:export-xdpi="18.9"
           inkscape:export-ydpi="18.9" />
      </g>
      <path
         inkscape:export-ydpi="18.9"
         inkscape:export-xdpi="18.9"
         inkscape:export-filename="/home/eric/graphique/png/tigre.png"
         transform="matrix(0.9943886,0,0,1.0033876,27.688347,2.3784247)"
         d="m 42.047599,35.002998 c 0,3.852941 -3.151692,6.976366 -7.0395,6.976366 -3.887809,0 -7.039501,-3.123425 -7.039501,-6.976366 0,-3.85294 3.151692,-6.976366 7.039501,-6.976366 3.887808,0 7.0395,3.123426 7.0395,6.976366 z"
         sodipodi:ry="6.976366"
         sodipodi:rx="7.0395007"
         sodipodi:cy="35.002998"
         sodipodi:cx="35.008099"
         id="path14055"
         style="fill:#ffffff;fill-opacity:1;fill-rule:nonzero;stroke:#000000;stroke-width:1.00112331;stroke-linecap:round;stroke-linejoin:miter;stroke-miterlimit:4;stroke-opacity:1;stroke-dasharray:none;stroke-dashoffset:0"
         sodipodi:type="arc" />
      <path
         inkscape:export-ydpi="18.9"
         inkscape:export-xdpi="18.9"
         inkscape:export-filename="/home/eric/graphique/png/tigre.png"
         transform="matrix(0.9961755,0,0,1.0024806,27.625793,2.3152365)"
         d="m 40.027294,35.097698 c 0,2.754591 -2.24717,4.987628 -5.019195,4.987628 -2.772026,0 -5.019196,-2.233037 -5.019196,-4.987628 0,-2.754591 2.24717,-4.987628 5.019196,-4.987628 2.772025,0 5.019195,2.233037 5.019195,4.987628 z"
         sodipodi:ry="4.987628"
         sodipodi:rx="5.0191956"
         sodipodi:cy="35.097698"
         sodipodi:cx="35.008099"
         id="path14057"
         style="fill:#000000;fill-opacity:1;fill-rule:nonzero;stroke:none"
         sodipodi:type="arc" />
      <path
         inkscape:export-ydpi="18.9"
         inkscape:export-xdpi="18.9"
         inkscape:export-filename="/home/eric/graphique/png/tigre.png"
         sodipodi:nodetypes="ccccc"
         id="path14065"
         d="m 40.386852,50.365275 c -0.08105,-1.285356 19.229873,-1.324305 19.226549,0 -1.534279,3.49607 -3.379454,9.173347 -6.701369,9.202852 L 47.168,59.613402 c -3.38737,-0.0056 -5.297998,-5.698016 -6.781148,-9.248127 z"
         style="fill:#4d4d4d;fill-rule:evenodd;stroke:#000000;stroke-width:0.77319598px;stroke-linecap:butt;stroke-linejoin:miter;stroke-opacity:1"
         inkscape:connector-curvature="0" />
      <path
         inkscape:export-ydpi="18.9"
         inkscape:export-xdpi="18.9"
         inkscape:export-filename="/home/eric/graphique/png/tigre.png"
         id="path14073"
         d="m 50.002551,60 0,15.282582"
         style="fill:none;stroke:#000000;stroke-width:2.5;stroke-linecap:butt;stroke-linejoin:miter;stroke-miterlimit:4;stroke-opacity:1;stroke-dasharray:none"
         inkscape:connector-curvature="0" />
      <path
         inkscape:export-ydpi="18.9"
         inkscape:export-xdpi="18.9"
         inkscape:export-filename="/home/eric/graphique/png/tigre.png"
         sodipodi:nodetypes="ccc"
         id="path6430"
         d="m 31.149954,68.33675 c 5.813047,3.955657 11.373555,7.469373 18.954369,7.700092 7.440715,-0.239601 12.861125,-3.699065 18.723477,-7.726738"
         style="fill:none;stroke:#000000;stroke-width:2.29990888;stroke-linecap:round;stroke-linejoin:miter;stroke-miterlimit:4;stroke-opacity:1;stroke-dasharray:none"
         inkscape:connector-curvature="0" />
    </g>
  </g>
  <metadata
     id="metadata3317">
    <rdf:RDF>
      <cc:Work>
        <dc:format>image/svg+xml</dc:format>
        <dc:type
           rdf:resource="http://purl.org/dc/dcmitype/StillImage" />
        <cc:license
           rdf:resource="http://creativecommons.org/licenses/publicdomain/" />
        <dc:publisher>
          <cc:Agent
             rdf:about="http://openclipart.org/">
            <dc:title>Open Clip Art Library</dc:title>
          </cc:Agent>
        </dc:publisher>
        <dc:title></dc:title>
        <dc:date>2008-04-10T21:09:07</dc:date>
        <dc:description>Little lion of savanna</dc:description>
        <dc:source>http://openclipart.org/detail/16303/lion-by-linuxien</dc:source>
        <dc:creator>
          <cc:Agent>
            <dc:title>Linuxien</dc:title>
          </cc:Agent>
        </dc:creator>
        <dc:subject>
          <rdf:Bag>
            <rdf:li>animal</rdf:li>
            <rdf:li>animal</rdf:li>
            <rdf:li>cartoon</rdf:li>
            <rdf:li>cartoon</rdf:li>
            <rdf:li>clip art</rdf:li>
            <rdf:li>clipart</rdf:li>
            <rdf:li>face</rdf:li>
            <rdf:li>face</rdf:li>
            <rdf:li>image</rdf:li>
            <rdf:li>lion</rdf:li>
            <rdf:li>lion</rdf:li>
            <rdf:li>media</rdf:li>
            <rdf:li>png</rdf:li>
            <rdf:li>public domain</rdf:li>
            <rdf:li>smiley</rdf:li>
            <rdf:li>smiley</rdf:li>
            <rdf:li>svg</rdf:li>
          </rdf:Bag>
        </dc:subject>
      </cc:Work>
      <cc:License
         rdf:about="http://creativecommons.org/licenses/publicdomain/">
        <cc:permits
           rdf:resource="http://creativecommons.org/ns#Reproduction" />
        <cc:permits
           rdf:resource="http://creativecommons.org/ns#Distribution" />
        <cc:permits
           rdf:resource="http://creativecommons.org/ns#DerivativeWorks" />
      </cc:License>
    </rdf:RDF>
  </metadata>
</svg>
