<svg width="56" height="56" viewBox="0 0 56 56" fill="none" xmlns="http://www.w3.org/2000/svg">
<rect width="56" height="56" fill="#292F36"/>
<path d="M31.2084 5.54165C31.2084 6.72918 30.5632 7.76603 29.6042 8.32076V10.0892C36.7736 10.5506 43.5114 14.1146 44.0119 20.7812H11.9881C12.4887 14.1146 19.2264 10.5506 26.3959 10.0892V8.32076C25.4369 7.76603 24.7917 6.72918 24.7917 5.54165C24.7917 3.76973 26.2281 2.33331 28 2.33331C29.772 2.33331 31.2084 3.76973 31.2084 5.54165Z" fill="white"/>
<path fill-rule="evenodd" clip-rule="evenodd" d="M11.9584 44.0421V22.3854H44.0417V44.0421C44.0417 46.7 41.8871 48.8546 39.2292 48.8546H16.7709C14.113 48.8546 11.9584 46.7 11.9584 44.0421ZM15.1667 31.2537C15.1667 28.1766 17.6163 25.5937 20.7813 25.5937H35.2188C38.3838 25.5937 40.8334 28.1766 40.8334 31.2537C40.8334 31.3129 40.8325 31.3719 40.8308 31.4305C40.8325 31.4899 40.8334 31.5495 40.8334 31.6094C40.8334 34.9317 38.1401 37.625 34.8178 37.625H21.1823C17.86 37.625 15.1667 34.9317 15.1667 31.6094C15.1667 31.5495 15.1676 31.4899 15.1693 31.4305C15.1676 31.3719 15.1667 31.3129 15.1667 31.2537Z" fill="white"/>
<path d="M31.2084 5.54165C31.2084 7.31356 29.7719 8.74998 28 8.74998C26.2281 8.74998 24.7917 7.31356 24.7917 5.54165C24.7917 3.76973 26.2281 2.33331 28 2.33331C29.7719 2.33331 31.2084 3.76973 31.2084 5.54165Z" fill="#3CFFF8"/>
<path d="M19.9792 50.4583C19.9792 52.8646 25.5938 53.6667 28 53.6667C30.4063 53.6667 36.0209 52.8646 36.0209 50.4583H19.9792Z" fill="#3CFFF8"/>
<path d="M22.3854 31.2386C22.3854 30.3306 21.6725 29.6042 20.7813 29.6042C19.8901 29.6042 19.1771 30.3306 19.1771 31.2386C19.1771 32.1466 19.8901 32.8125 20.7813 32.8125C21.6725 32.8125 22.3854 32.1466 22.3854 31.2386Z" fill="#3CFFF8"/>
<path d="M27.9844 34.4167C29.5635 34.4167 30.7917 33.2887 30.7917 32.0104H25.1771C25.1771 33.2887 26.493 34.4167 27.9844 34.4167Z" fill="#3CFFF8"/>
<path d="M35.2188 29.6042C36.11 29.6042 36.8229 30.3306 36.8229 31.2386C36.8229 32.1466 36.11 32.8125 35.2188 32.8125C34.3276 32.8125 33.6146 32.1466 33.6146 31.2386C33.6146 30.3306 34.3276 29.6042 35.2188 29.6042Z" fill="#3CFFF8"/>
<path d="M10.3542 31.2083C10.3542 30.326 11.0761 29.6042 11.9584 29.6042V32.8125C11.0761 32.8125 10.3542 32.0906 10.3542 31.2083Z" fill="#3CFFF8"/>
<path d="M44.0417 29.6042C44.924 29.6042 45.6459 30.326 45.6459 31.2083C45.6459 32.0906 44.924 32.8125 44.0417 32.8125V29.6042Z" fill="#3CFFF8"/>
</svg>

