<?xml version="1.0" encoding="utf-8"?>
<!-- Generator: Adobe Illustrator 18.1.1, SVG Export Plug-In . SVG Version: 6.00 Build 0)  -->
<svg version="1.1" id="Layer_1" xmlns="http://www.w3.org/2000/svg" xmlns:xlink="http://www.w3.org/1999/xlink" x="0px" y="0px"
         height="400" width="400" viewBox="0 0 400 400" enable-background="new 0 0 400 400" xml:space="preserve">
<linearGradient id="SVGID_1_" gradientUnits="userSpaceOnUse" x1="1" y1="199" x2="401" y2="199" gradientTransform="matrix(1 0 0 -1 0 400)">
        <stop  offset="0.1843" style="stop-color:#212528"/>
        <stop  offset="0.5236" style="stop-color:#202A30"/>
        <stop  offset="0.7035" style="stop-color:#111619"/>
        <stop  offset="0.8707" style="stop-color:#000000"/>
</linearGradient>
<rect x="1" y="1" fill="url(#SVGID_1_)" width="400" height="400"/>
<g>
        <line fill="none" stroke="#FFFFFF" stroke-miterlimit="10" x1="401" y1="0.4" x2="1" y2="0.4"/>
        <line fill="none" stroke="#FFFFFF" stroke-miterlimit="10" x1="401" y1="50.4" x2="1" y2="50.4"/>
        <line fill="none" stroke="#FFFFFF" stroke-miterlimit="10" x1="401" y1="100.4" x2="1" y2="100.4"/>
        <line fill="none" stroke="#FFFFFF" stroke-miterlimit="10" x1="401" y1="150.4" x2="1" y2="150.4"/>
        <line fill="none" stroke="#FFFFFF" stroke-miterlimit="10" x1="401" y1="200.4" x2="1" y2="200.4"/>
        <line fill="none" stroke="#FFFFFF" stroke-miterlimit="10" x1="401" y1="250.4" x2="1" y2="250.4"/>
        <line fill="none" stroke="#FFFFFF" stroke-miterlimit="10" x1="401" y1="300.4" x2="1" y2="300.4"/>
        <line fill="none" stroke="#FFFFFF" stroke-miterlimit="10" x1="401" y1="350.4" x2="1" y2="350.4"/>
        <line fill="none" stroke="#FFFFFF" stroke-miterlimit="10" x1="401" y1="400.4" x2="1" y2="400.4"/>
</g>
<g>
        <line fill="none" stroke="#FFFFFF" stroke-miterlimit="10" x1="0.2" y1="0" x2="0.2" y2="400"/>
        <line fill="none" stroke="#FFFFFF" stroke-miterlimit="10" x1="50.2" y1="0" x2="50.2" y2="400"/>
        <line fill="none" stroke="#FFFFFF" stroke-miterlimit="10" x1="100.2" y1="0" x2="100.2" y2="400"/>
        <line fill="none" stroke="#FFFFFF" stroke-miterlimit="10" x1="150.2" y1="0" x2="150.2" y2="400"/>
        <line fill="none" stroke="#FFFFFF" stroke-miterlimit="10" x1="200.2" y1="0" x2="200.2" y2="400"/>
        <line fill="none" stroke="#FFFFFF" stroke-miterlimit="10" x1="250.2" y1="0" x2="250.2" y2="400"/>
        <line fill="none" stroke="#FFFFFF" stroke-miterlimit="10" x1="300.2" y1="0" x2="300.2" y2="400"/>
        <line fill="none" stroke="#FFFFFF" stroke-miterlimit="10" x1="350.2" y1="0" x2="350.2" y2="400"/>
        <line fill="none" stroke="#FFFFFF" stroke-miterlimit="10" x1="400.2" y1="0" x2="400.2" y2="400"/>
</g>
</svg>
