<svg xmlns="http://www.w3.org/2000/svg" width="110" height="110" version="1"><g><g fill-rule="evenodd" stroke="#000"><path d="M44.333 38.683c-2.556-1.4-4.98-2.398-8.22-3.197-.254-.08-.657-.108-.763-.005-.14.108-.072.564.004.746.7 3.004 1.726 5.618 2.996 8.254l5.983-5.797z" fill="#ffa72a" stroke-width="0.9348000000000001"/><path d="M42.922 39.32c-1.767-1.068-5.608-2.49-5.89-2.167-.41.282 1.397 4.76 2.073 5.89l3.817-3.723z" fill="#ffd5d5"/></g><g fill-rule="evenodd" stroke="#000"><path d="M65.27 38.683c2.556-1.4 4.98-2.398 8.22-3.197.254-.08.657-.108.763-.005.14.108.072.564-.004.746-.7 3.004-1.727 5.618-2.997 8.254l-5.983-5.797z" fill="#ffa72a" stroke-width="0.9348000000000001"/><path d="M66.68 39.32c1.768-1.068 5.61-2.49 5.892-2.167.408.282-1.398 4.76-2.074 5.89L66.68 39.32z" fill="#ffd5d5"/></g><path transform="matrix(.389 0 0 .392 35.29 35.338)" d="M100.258 49.997c0 27.477-22.444 49.75-50.13 49.75C22.444 99.747 0 77.474 0 49.997 0 22.52 22.443.247 50.13.247c27.684 0 50.128 22.274 50.128 49.75z" fill="#ffa72a" stroke="#000" stroke-width="2.5" stroke-linecap="round"/><path d="M54.8 36.126c-4.393.008-7.11.947-9.82 2.757l4.793 5.695 2.536-7.045 2.528 6.96 2.476-6.973s2.504 7.148 2.54 7.047l4.77-5.713c-1.6-1.25-5.198-2.713-9.825-2.728z" fill="#a40" fill-rule="evenodd" stroke="#000" stroke-width="0.3592"/><path d="M35.956 54.95c.007 4.392.947 7.108 2.757 9.82l5.694-4.794-7.045-2.536 6.96-2.53-6.973-2.475s7.147-2.504 7.046-2.54l-5.713-4.77c-1.25 1.6-2.712 5.198-2.727 9.825z" fill="#a40" fill-rule="evenodd" stroke="#000" stroke-width="0.3592"/><path d="M73.798 54.945c-.008-4.39-.967-7.107-2.814-9.817l-5.812 4.79 7.19 2.538-7.103 2.528 7.115 2.476S65.08 59.963 65.183 60l5.83 4.767c1.278-1.6 2.77-5.196 2.785-9.822z" fill="#a40" fill-rule="evenodd" stroke="#000" stroke-width="0.3628"/><g><path d="M42.048 35.003c0 3.853-3.152 6.976-7.04 6.976s-7.04-3.124-7.04-6.977 3.152-6.976 7.04-6.976 7.04 3.123 7.04 6.976z" transform="matrix(.398 0 0 .401 35.877 35.898)" fill="#fff" stroke="#000" stroke-width="1.001" stroke-linecap="round"/><path d="M51.782 49.946c0 1.105-.895 2-1.998 2s-1.997-.895-1.997-2c0-1.104.894-2 1.997-2 1.103 0 1.998.896 1.998 2z"/></g><path transform="matrix(.398 0 0 .401 45.876 35.898)" d="M42.048 35.003c0 3.853-3.152 6.976-7.04 6.976s-7.04-3.124-7.04-6.977 3.152-6.976 7.04-6.976 7.04 3.123 7.04 6.976z" fill="#fff" stroke="#000" stroke-width="1.001" stroke-linecap="round"/><path d="M61.782 49.947c0 1.105-.895 2-1.998 2s-1.997-.895-1.997-2c0-1.104.894-2 1.997-2 1.103 0 1.998.896 1.998 2z"/><path d="M50.956 55.093c-.033-.514 7.69-.53 7.69 0-.614 1.398-1.352 3.67-2.68 3.68l-2.298.02c-1.355-.003-2.12-2.28-2.712-3.7z" fill="#4d4d4d" fill-rule="evenodd" stroke="#000" stroke-width="0.30920000000000003"/><path d="M54.802 58.947v6.113" stroke="#000" stroke-width="1" fill="none"/><path d="M47.26 62.28c2.326 1.584 4.55 2.99 7.583 3.08 2.976-.094 5.144-1.478 7.49-3.09" stroke="#000" stroke-width="0.9199999999999999" stroke-linecap="round" fill="none"/></g></svg>