<?xml version="1.0" encoding="UTF-8" standalone="no"?>
<!-- Created with Inkscape (http://www.inkscape.org/) -->

<svg
   xmlns:dc="http://purl.org/dc/elements/1.1/"
   xmlns:cc="http://creativecommons.org/ns#"
   xmlns:rdf="http://www.w3.org/1999/02/22-rdf-syntax-ns#"
   xmlns:svg="http://www.w3.org/2000/svg"
   xmlns="http://www.w3.org/2000/svg"
   xmlns:sodipodi="http://sodipodi.sourceforge.net/DTD/sodipodi-0.dtd"
   xmlns:inkscape="http://www.inkscape.org/namespaces/inkscape"
   width="130"
   height="110"
   id="svg2"
   sodipodi:version="0.32"
   inkscape:version="0.48.3.1 r9886"
   version="1.0"
   sodipodi:docname="Linuxien_Vache.svg"
   inkscape:output_extension="org.inkscape.output.svg.inkscape">
  <defs
     id="defs4" />
  <sodipodi:namedview
     id="base"
     pagecolor="#ffffff"
     bordercolor="#666666"
     borderopacity="1.0"
     inkscape:pageopacity="0.0"
     inkscape:pageshadow="2"
     inkscape:zoom="4"
     inkscape:cx="18.287879"
     inkscape:cy="62.606638"
     inkscape:document-units="px"
     inkscape:current-layer="layer1"
     width="130px"
     height="110px"
     inkscape:showpageshadow="true"
     showguides="true"
     inkscape:guide-bbox="true"
     inkscape:window-width="1018"
     inkscape:window-height="684"
     inkscape:window-x="65"
     inkscape:window-y="30"
     showgrid="false"
     inkscape:window-maximized="0" />
  <g
     inkscape:label="Calque 1"
     inkscape:groupmode="layer"
     id="layer1">
    <g
       id="g13098"
       transform="matrix(0.7,0,0,0.7,24.50297,20.25)"
       inkscape:export-filename="/home/eric/graphique/svg/publication/linuxien_cow.png"
       inkscape:export-xdpi="89.985153"
       inkscape:export-ydpi="89.985153">
      <g
         inkscape:export-ydpi="18.9"
         inkscape:export-xdpi="18.9"
         inkscape:export-filename="/home/eric/graphique/png/vache.png"
         transform="matrix(-0.9654864,0,0,1.0010944,116.54919,-0.02363944)"
         id="g10012">
        <path
           style="fill:#666666;fill-opacity:1;fill-rule:evenodd;stroke:#000000;stroke-width:2.24182367;stroke-linecap:butt;stroke-linejoin:miter;stroke-miterlimit:4;stroke-opacity:1;stroke-dasharray:none"
           d="m 101.12091,24.950379 c 1.37397,-2.963532 0.8179,-3.077354 4.93327,-8.712805 3.159,-5.538277 8.26831,-11.4292365 11.09975,-9.8588052 3.73232,1.567993 2.69653,21.1103202 -0.0626,24.8850642 -2.49828,4.046508 -4.63262,4.216884 -9.08981,7.615256 l -6.88058,-13.92871 z"
           id="path10014"
           sodipodi:nodetypes="cccccc"
           inkscape:connector-curvature="0" />
        <path
           style="fill:#de8787;fill-rule:evenodd;stroke:#000000;stroke-width:1px;stroke-linecap:butt;stroke-linejoin:miter;stroke-opacity:1"
           d="m 115.65562,9.4049809 c -2.00762,-0.1474731 -2.68941,1.7253601 -3.75,3.1562501 -3.16628,3.378727 -5.5118,11.050603 -8.67807,13.671716 l 3.5357,7.832408 c 6.54026,-2.365958 8.91365,-4.479375 9.51926,-14.610881 0.61179,-4.296848 1.66551,-9.098775 -0.62689,-10.0494931 z"
           id="path10016"
           sodipodi:nodetypes="cccccc"
           inkscape:connector-curvature="0" />
      </g>
      <g
         inkscape:export-ydpi="18.9"
         inkscape:export-xdpi="18.9"
         inkscape:export-filename="/home/eric/graphique/png/vache.png"
         transform="matrix(0.9654864,0,0,1.0010944,3.4706112,-0.02477556)"
         id="g10002">
        <path
           style="fill:#666666;fill-opacity:1;fill-rule:evenodd;stroke:#000000;stroke-width:2.24182367;stroke-linecap:butt;stroke-linejoin:miter;stroke-miterlimit:4;stroke-opacity:1;stroke-dasharray:none"
           d="m 101.12091,24.950379 c 1.37397,-2.963532 0.8179,-3.077354 4.93327,-8.712805 3.159,-5.538277 8.26831,-11.4292365 11.09975,-9.8588052 3.73232,1.567993 2.69653,21.1103202 -0.0626,24.8850642 -2.49828,4.046508 -4.63262,4.216884 -9.08981,7.615256 l -6.88058,-13.92871 z"
           id="path9014"
           sodipodi:nodetypes="cccccc"
           inkscape:connector-curvature="0" />
        <path
           style="fill:#de8787;fill-rule:evenodd;stroke:#000000;stroke-width:1px;stroke-linecap:butt;stroke-linejoin:miter;stroke-opacity:1"
           d="m 115.65562,9.4049809 c -2.00762,-0.1474731 -2.68941,1.7253601 -3.75,3.1562501 -3.16628,3.378727 -5.5118,11.050603 -8.67807,13.671716 l 3.5357,7.832408 c 6.54026,-2.365958 8.91365,-4.479375 9.51926,-14.610881 0.61179,-4.296848 1.66551,-9.098775 -0.62689,-10.0494931 z"
           id="path9985"
           sodipodi:nodetypes="cccccc"
           inkscape:connector-curvature="0" />
      </g>
      <path
         inkscape:export-ydpi="18.9"
         inkscape:export-xdpi="18.9"
         inkscape:export-filename="/home/eric/graphique/png/vache.png"
         transform="matrix(0.9802724,0,0,0.9753215,1.3291873,1.2364147)"
         d="M 109.60155,49.997448 C 109.60155,77.613095 87.327712,100 59.85154,100 32.375367,100 10.101528,77.613095 10.101528,49.997448 c 0,-27.615647 22.273839,-50.00255206 49.750012,-50.00255206 27.476172,0 49.75001,22.38690506 49.75001,50.00255206 z"
         sodipodi:ry="50.002552"
         sodipodi:rx="49.750011"
         sodipodi:cy="49.997448"
         sodipodi:cx="59.85154"
         id="path2172"
         style="fill:#f9f9f9;fill-opacity:1;fill-rule:nonzero;stroke:#000000;stroke-width:2.51880622;stroke-linecap:round;stroke-linejoin:miter;stroke-miterlimit:4;stroke-opacity:1;stroke-dasharray:none;stroke-dashoffset:0"
         sodipodi:type="arc" />
      <path
         inkscape:export-ydpi="18.9"
         inkscape:export-xdpi="18.9"
         inkscape:export-filename="/home/eric/graphique/png/vache.png"
         sodipodi:nodetypes="cssssssssssssssss"
         id="path3146"
         d="m 23.047818,28.832518 c 0.362664,1.271284 0.213027,1.293967 1.924755,1.007621 0.935741,-0.156535 2.526086,0.529443 3.764508,2.278903 0.581305,0.821181 0.735407,3.712081 0.554382,4.479261 -0.344929,1.461794 -0.0958,1.601489 -0.76688,2.793723 -0.546989,0.97177 -1.215633,3.23747 -2.36848,3.774563 -2.538278,1.182544 -2.873544,-2.12645 -4.592933,0.302448 -0.982242,1.387569 1.335692,3.347615 0.169054,4.081015 -1.239777,0.77938 -4.088632,-0.346361 -4.886493,-1.393859 -1.066661,-1.400401 -1.127653,-3.445496 -1.127653,-5.17719 0,-2.031388 2.000968,-1.710074 3.382957,-2.588595 0.934563,-0.594096 0.571698,-2.754358 0.375884,-3.58421 -0.2976,-1.261214 -2.572364,-1.994264 -3.570899,-2.787718 -1.129453,-0.897482 0.396773,-3.407218 0.751768,-3.78333 0.324776,-0.344098 1.879388,0.508096 2.819131,-0.597368 0.562193,-0.661335 -0.772453,-1.675197 0.563826,-2.19035 1.383429,-0.533331 2.723586,2.391349 3.007073,3.385086 z"
         style="fill:#666666;fill-rule:evenodd;stroke:#000000;stroke-width:0.76602942px;stroke-linecap:butt;stroke-linejoin:miter;stroke-opacity:1"
         inkscape:connector-curvature="0" />
      <path
         inkscape:export-ydpi="18.9"
         inkscape:export-xdpi="18.9"
         inkscape:export-filename="/home/eric/graphique/png/vache.png"
         sodipodi:nodetypes="csssssssssssssc"
         id="path3148"
         d="m 98.050714,40.863232 c -2.595873,1.244671 -1.455709,3.678757 -3.086222,5.835992 -1.400767,1.853271 -4.374823,2.553528 -6.313453,3.522843 -1.736436,0.868218 -1.915426,5.19904 -1.535534,7.078683 1.172389,5.800792 7.548661,3.325072 8.593911,6.596449 1.187105,3.715348 -4.3761,7.701515 -4.543148,10.848987 -0.178878,3.370367 0.614357,3.303837 2.020305,4.293149 1.915613,1.347945 3.877486,-4.398267 4.293148,-6.060916 0.637052,-2.548207 3.758989,-4.118356 5.555839,-5.555839 1.22657,-0.981252 1.87413,-1.585348 2.77792,-3.392919 1.25046,-2.500925 -0.57067,-4.463962 -2.02031,-6.20353 -1.47002,-1.764028 -1.4833,-2.188167 -1.78045,-4.315991 -0.1917,-1.372706 1.37579,-4.109774 2.26523,-5.295687 1.06511,-1.42015 -0.44866,-4.600548 -1.02031,-5.553301 -0.74447,-1.240787 -2.42396,-1.838098 -5.206926,-1.79792 z"
         style="fill:#666666;fill-rule:evenodd;stroke:#000000;stroke-width:1px;stroke-linecap:butt;stroke-linejoin:miter;stroke-opacity:1"
         inkscape:connector-curvature="0" />
      <path
         inkscape:export-ydpi="18.9"
         inkscape:export-xdpi="18.9"
         inkscape:export-filename="/home/eric/graphique/png/vache.png"
         sodipodi:nodetypes="csssssssssc"
         id="path3150"
         d="m 69.108922,4.2554262 c 0.392047,1.3329664 -4.52869,1.6501582 -4.681076,4.3327081 -0.106986,1.8833467 5.061641,3.0858407 4.427673,6.0693927 -1.193207,5.615412 4.188806,3.72505 4.945924,3.609544 1.186956,-0.181082 6.098712,-2.453038 7.81493,0.626048 2.121471,3.806153 7.536823,1.831077 5.632992,-0.869922 -1.436968,-2.038656 0.485347,-3.78588 -0.97662,-5.882531 C 84.553019,9.6743557 78.672356,8.8935449 76.115887,7.5186785 75.166319,7.0080014 74.758218,6.4702118 73.96732,5.4177746 73.239406,4.4491479 72.987773,5.7020335 72.282746,4.1765383 71.865297,3.2732837 68.412876,2.2994546 69.108922,4.2554262 z"
         style="fill:#666666;fill-rule:evenodd;stroke:#000000;stroke-width:0.80214721px;stroke-linecap:butt;stroke-linejoin:miter;stroke-opacity:1"
         inkscape:connector-curvature="0" />
      <path
         inkscape:export-ydpi="18.9"
         inkscape:export-xdpi="18.9"
         inkscape:export-filename="/home/eric/graphique/png/vache.png"
         sodipodi:nodetypes="csssssssssssssc"
         id="path3152"
         d="m 15.939307,63.772785 c 1.436597,3.0108 6.355153,-0.578191 7.058441,2.234963 0.498349,1.993395 -1.633869,5.726169 -2.272843,7.323606 -0.168359,0.420897 -0.336718,0.841793 -0.505076,1.26269 -1.336176,3.340439 2.487887,5.638507 4.015356,5.846258 1.781086,0.242246 4.066053,-0.696101 5.909392,0.454569 2.039311,1.273001 0.439254,2.144603 2.500128,2.992577 2.837708,1.167612 4.728637,-5.515665 4.11396,-7.386613 -0.972271,-2.959395 -5.595455,-1.955854 -6.879253,-3.4599 -1.092461,-1.279884 -0.883963,-2.424687 -0.820749,-3.497653 0.09793,-1.662202 2.666485,-2.713519 3.282996,-3.535534 1.318014,-1.757353 -1.940089,-5.862338 -3.282996,-6.565992 -1.075417,-0.563495 -4.793221,-0.873158 -6.149303,-0.631345 -1.630521,0.290749 -3.060127,1.095192 -4.305775,1.502601 -1.74489,0.570695 -3.249246,1.075963 -2.664278,3.459773 z"
         style="fill:#666666;fill-rule:evenodd;stroke:#000000;stroke-width:1px;stroke-linecap:butt;stroke-linejoin:miter;stroke-opacity:1"
         inkscape:connector-curvature="0" />
      <path
         inkscape:export-ydpi="18.9"
         inkscape:export-xdpi="18.9"
         inkscape:export-filename="/home/eric/graphique/png/vache.png"
         sodipodi:nodetypes="ccccccc"
         id="path7060"
         d="m 86.849279,16.567174 c 4.017138,-3.005197 8.949139,-2.530264 12.230108,-6.6072987 3.197173,-3.0488189 7.424473,-10.02570583 9.591503,-9.14645699 2.0187,1.16937559 -1.49965,10.36461269 -4.95518,14.02136769 -3.41383,4.003279 -4.414127,6.220676 -9.064231,8.526802 -1.092155,0.725482 -5.207493,1.480473 -7.275212,0.240094 -1.532022,-1.788347 -2.508813,-5.516186 -0.526988,-7.034508 z"
         style="fill:#f4eed7;fill-rule:evenodd;stroke:#000000;stroke-width:1.47481573;stroke-linecap:butt;stroke-linejoin:miter;stroke-miterlimit:4;stroke-opacity:1;stroke-dasharray:none"
         inkscape:connector-curvature="0" />
      <path
         inkscape:export-ydpi="18.9"
         inkscape:export-xdpi="18.9"
         inkscape:export-filename="/home/eric/graphique/png/vache.png"
         sodipodi:nodetypes="ccccccc"
         id="path9004"
         d="m 33.150717,16.567174 c -4.01713,-3.005197 -8.94913,-2.530264 -12.230104,-6.6072988 -3.19717,-3.048819 -7.42447,-10.02570589 -9.5915,-9.14645705 -2.0187001,1.16937555 1.49965,10.36461285 4.95518,14.02136785 3.41383,4.003279 4.41412,6.220676 9.064224,8.526802 1.09216,0.725482 5.2075,1.480473 7.27522,0.240094 1.53202,-1.788347 2.50881,-5.516186 0.52698,-7.034508 z"
         style="fill:#f4eed7;fill-rule:evenodd;stroke:#000000;stroke-width:1.47481573;stroke-linecap:butt;stroke-linejoin:miter;stroke-miterlimit:4;stroke-opacity:1;stroke-dasharray:none"
         inkscape:connector-curvature="0" />
      <path
         inkscape:export-ydpi="18.9"
         inkscape:export-xdpi="18.9"
         inkscape:export-filename="/home/eric/graphique/png/vache.png"
         sodipodi:nodetypes="cssscsc"
         id="path10087"
         d="m 42.531018,51.688063 c -1.897403,1.352231 -1.406644,7.971817 0.414197,11.939984 1.98152,4.318337 6.906807,9.933078 16.872867,10.022014 9.790142,0.08775 14.597284,-5.644851 16.589518,-9.994491 2.538538,-5.542387 2.771189,-10.734689 1.454592,-11.983146 -1.160149,-1.085791 -9.501869,0.910084 -17.799089,0.931263 -8.297219,0.02118 -16.549938,-1.932336 -17.532085,-0.915624 z"
         style="fill:#de8787;fill-opacity:1;fill-rule:nonzero;stroke:#000000;stroke-width:2.69834971;stroke-linecap:round;stroke-linejoin:miter;stroke-miterlimit:4;stroke-opacity:1;stroke-dashoffset:0"
         inkscape:connector-curvature="0" />
      <path
         inkscape:export-ydpi="18.9"
         inkscape:export-xdpi="18.9"
         inkscape:export-filename="/home/eric/graphique/png/vache.png"
         transform="matrix(1.0526318,0,0,1.1041667,-2.4736951,-6.3697917)"
         d="m 51.75,61 c 0,1.242641 -1.063324,2.25 -2.375,2.25 C 48.063324,63.25 47,62.242641 47,61 c 0,-1.242641 1.063324,-2.25 2.375,-2.25 1.311676,0 2.375,1.007359 2.375,2.25 z"
         sodipodi:ry="2.25"
         sodipodi:rx="2.375"
         sodipodi:cy="61"
         sodipodi:cx="49.375"
         id="path10113"
         style="fill:#000000;fill-opacity:1;fill-rule:nonzero;stroke:none"
         sodipodi:type="arc" />
      <path
         inkscape:export-ydpi="18.9"
         inkscape:export-xdpi="18.9"
         inkscape:export-filename="/home/eric/graphique/png/vache.png"
         transform="matrix(1.0526318,0,0,1.1041667,18.526305,-6.3385438)"
         d="m 51.75,61 c 0,1.242641 -1.063324,2.25 -2.375,2.25 C 48.063324,63.25 47,62.242641 47,61 c 0,-1.242641 1.063324,-2.25 2.375,-2.25 1.311676,0 2.375,1.007359 2.375,2.25 z"
         sodipodi:ry="2.25"
         sodipodi:rx="2.375"
         sodipodi:cy="61"
         sodipodi:cx="49.375"
         id="path11084"
         style="fill:#000000;fill-opacity:1;fill-rule:nonzero;stroke:none"
         sodipodi:type="arc" />
      <path
         inkscape:export-ydpi="18.9"
         inkscape:export-xdpi="18.9"
         inkscape:export-filename="/home/eric/graphique/png/vache.png"
         sodipodi:nodetypes="ccc"
         id="path6430"
         d="m 41.149954,76.163277 c 5.813047,3.955657 11.373555,7.469373 18.954369,7.700092 7.440715,-0.239601 12.861125,-3.699065 18.723477,-7.726738"
         style="fill:none;stroke:#000000;stroke-width:2.29990888;stroke-linecap:round;stroke-linejoin:miter;stroke-miterlimit:4;stroke-opacity:1;stroke-dasharray:none"
         inkscape:connector-curvature="0" />
      <path
         inkscape:export-ydpi="18.9"
         inkscape:export-xdpi="18.9"
         inkscape:export-filename="/home/eric/graphique/png/vache.png"
         transform="matrix(1.0042023,0.1464462,0,0.8126235,-2.4464549,-2.0850237)"
         d="m 58.25,34.75 c 0,6.489346 -5.148725,11.75 -11.5,11.75 -6.351275,0 -11.5,-5.260654 -11.5,-11.75 0,-6.489346 5.148725,-11.75 11.5,-11.75 6.351275,0 11.5,5.260654 11.5,11.75 z"
         sodipodi:ry="11.75"
         sodipodi:rx="11.5"
         sodipodi:cy="34.75"
         sodipodi:cx="46.75"
         id="path11097"
         style="fill:#666666;fill-opacity:1;fill-rule:nonzero;stroke:#000000;stroke-width:1;stroke-linecap:round;stroke-linejoin:miter;stroke-miterlimit:4;stroke-opacity:1;stroke-dasharray:none;stroke-dashoffset:0"
         sodipodi:type="arc" />
      <g
         inkscape:export-ydpi="18.9"
         inkscape:export-xdpi="18.9"
         inkscape:export-filename="/home/eric/graphique/png/vache.png"
         transform="translate(-85.913474,-45.933243)"
         id="g11089">
        <path
           sodipodi:type="arc"
           style="fill:#ffffff;fill-opacity:1;fill-rule:nonzero;stroke:#000000;stroke-width:1.00112331;stroke-linecap:round;stroke-linejoin:miter;stroke-miterlimit:4;stroke-opacity:1;stroke-dasharray:none;stroke-dashoffset:0"
           id="path8062"
           sodipodi:cx="35.008099"
           sodipodi:cy="35.002998"
           sodipodi:rx="7.0395007"
           sodipodi:ry="6.976366"
           d="m 42.047599,35.002998 c 0,3.852941 -3.151692,6.976366 -7.0395,6.976366 -3.887809,0 -7.039501,-3.123425 -7.039501,-6.976366 0,-3.85294 3.151692,-6.976366 7.039501,-6.976366 3.887808,0 7.0395,3.123426 7.0395,6.976366 z"
           transform="matrix(0.9943886,0,0,1.0033876,95.649547,43.311669)"
           inkscape:export-filename="/home/eric/graphique/png/cochon.png"
           inkscape:export-xdpi="18.9"
           inkscape:export-ydpi="18.9" />
        <path
           sodipodi:type="arc"
           style="fill:#000000;fill-opacity:1;fill-rule:nonzero;stroke:none"
           id="path8408"
           sodipodi:cx="35.008099"
           sodipodi:cy="35.097698"
           sodipodi:rx="5.0191956"
           sodipodi:ry="4.987628"
           d="m 40.027294,35.097698 c 0,2.754591 -2.24717,4.987628 -5.019195,4.987628 -2.772026,0 -5.019196,-2.233037 -5.019196,-4.987628 0,-2.754591 2.24717,-4.987628 5.019196,-4.987628 2.772025,0 5.019195,2.233037 5.019195,4.987628 z"
           transform="matrix(0.9961755,0,0,1.0024806,95.586992,43.248481)"
           inkscape:export-filename="/home/eric/graphique/png/cochon.png"
           inkscape:export-xdpi="18.9"
           inkscape:export-ydpi="18.9" />
      </g>
      <path
         inkscape:export-ydpi="18.9"
         inkscape:export-xdpi="18.9"
         inkscape:export-filename="/home/eric/graphique/png/vache.png"
         transform="matrix(-1.0040063,0.1479405,0,0.8209152,122.47518,-2.4430227)"
         d="m 58.25,34.75 c 0,6.489346 -5.148725,11.75 -11.5,11.75 -6.351275,0 -11.5,-5.260654 -11.5,-11.75 0,-6.489346 5.148725,-11.75 11.5,-11.75 6.351275,0 11.5,5.260654 11.5,11.75 z"
         sodipodi:ry="11.75"
         sodipodi:rx="11.5"
         sodipodi:cy="34.75"
         sodipodi:cx="46.75"
         id="path13053"
         style="fill:#666666;fill-opacity:1;fill-rule:nonzero;stroke:#000000;stroke-width:1;stroke-linecap:round;stroke-linejoin:miter;stroke-miterlimit:4;stroke-opacity:1;stroke-dasharray:none;stroke-dashoffset:0"
         sodipodi:type="arc" />
      <path
         inkscape:export-ydpi="18.9"
         inkscape:export-xdpi="18.9"
         inkscape:export-filename="/home/eric/graphique/png/vache.png"
         transform="matrix(0.9943886,0,0,1.0033876,40.495217,-2.6215737)"
         d="m 42.047599,35.002998 c 0,3.852941 -3.151692,6.976366 -7.0395,6.976366 -3.887809,0 -7.039501,-3.123425 -7.039501,-6.976366 0,-3.85294 3.151692,-6.976366 7.039501,-6.976366 3.887808,0 7.0395,3.123426 7.0395,6.976366 z"
         sodipodi:ry="6.976366"
         sodipodi:rx="7.0395007"
         sodipodi:cy="35.002998"
         sodipodi:cx="35.008099"
         id="path11093"
         style="fill:#ffffff;fill-opacity:1;fill-rule:nonzero;stroke:#000000;stroke-width:1.00112331;stroke-linecap:round;stroke-linejoin:miter;stroke-miterlimit:4;stroke-opacity:1;stroke-dasharray:none;stroke-dashoffset:0"
         sodipodi:type="arc" />
      <path
         inkscape:export-ydpi="18.9"
         inkscape:export-xdpi="18.9"
         inkscape:export-filename="/home/eric/graphique/png/vache.png"
         transform="matrix(0.9961755,0,0,1.0024806,40.432667,-2.6847617)"
         d="m 40.027294,35.097698 c 0,2.754591 -2.24717,4.987628 -5.019195,4.987628 -2.772026,0 -5.019196,-2.233037 -5.019196,-4.987628 0,-2.754591 2.24717,-4.987628 5.019196,-4.987628 2.772025,0 5.019195,2.233037 5.019195,4.987628 z"
         sodipodi:ry="4.987628"
         sodipodi:rx="5.0191956"
         sodipodi:cy="35.097698"
         sodipodi:cx="35.008099"
         id="path11095"
         style="fill:#000000;fill-opacity:1;fill-rule:nonzero;stroke:none"
         sodipodi:type="arc" />
    </g>
  </g>
  <metadata
     id="metadata3107">
    <rdf:RDF>
      <cc:Work>
        <dc:format>image/svg+xml</dc:format>
        <dc:type
           rdf:resource="http://purl.org/dc/dcmitype/StillImage" />
        <cc:license
           rdf:resource="http://creativecommons.org/licenses/publicdomain/" />
        <dc:publisher>
          <cc:Agent
             rdf:about="http://openclipart.org/">
            <dc:title>Open Clip Art Library</dc:title>
          </cc:Agent>
        </dc:publisher>
        <dc:title></dc:title>
        <dc:date>2008-04-11T11:43:44</dc:date>
        <dc:description>Little cow of the meadow</dc:description>
        <dc:source>http://openclipart.org/detail/16315/vache-by-linuxien</dc:source>
        <dc:creator>
          <cc:Agent>
            <dc:title>Linuxien</dc:title>
          </cc:Agent>
        </dc:creator>
        <dc:subject>
          <rdf:Bag>
            <rdf:li>animal</rdf:li>
            <rdf:li>animal</rdf:li>
            <rdf:li>cartoon</rdf:li>
            <rdf:li>cartoon</rdf:li>
            <rdf:li>clip art</rdf:li>
            <rdf:li>clipart</rdf:li>
            <rdf:li>face</rdf:li>
            <rdf:li>face</rdf:li>
            <rdf:li>image</rdf:li>
            <rdf:li>media</rdf:li>
            <rdf:li>png</rdf:li>
            <rdf:li>public domain</rdf:li>
            <rdf:li>smiley</rdf:li>
            <rdf:li>smiley</rdf:li>
            <rdf:li>svg</rdf:li>
          </rdf:Bag>
        </dc:subject>
      </cc:Work>
      <cc:License
         rdf:about="http://creativecommons.org/licenses/publicdomain/">
        <cc:permits
           rdf:resource="http://creativecommons.org/ns#Reproduction" />
        <cc:permits
           rdf:resource="http://creativecommons.org/ns#Distribution" />
        <cc:permits
           rdf:resource="http://creativecommons.org/ns#DerivativeWorks" />
      </cc:License>
    </rdf:RDF>
  </metadata>
</svg>
