<svg width="211" height="154" viewBox="0 0 211 154" fill="none" xmlns="http://www.w3.org/2000/svg">
<g id="_Layer_" clip-path="url(#clip0_3618_9312)">
<path id="Vector" d="M64.1878 87.1344V115.837C64.1878 116.82 63.3888 117.618 62.4016 117.618C61.4156 117.618 60.6155 116.821 60.6155 115.837V87.1665L59.8223 43.6966V34.7036L63.3934 33.8262V43.6657L64.1866 87.1356L64.1878 87.1344Z" fill="#292F36"/>
<path id="Vector_2" d="M106.844 126.711C105.86 126.776 105.01 126.035 104.943 125.055L103.972 110.628L103.73 107.037L101.888 79.7694L99.5076 43.3832L98.083 25.2908L101.599 24.4248L103.071 43.1304L105.451 79.5372L108.506 124.817C108.573 125.797 107.828 126.646 106.844 126.711Z" fill="#292F36"/>
<path id="Vector_3" d="M46.8423 109.731L46.0571 110.024L45.5371 94.3443L42.8027 36.7529C44.1515 36.9428 45.4257 37.1247 46.406 37.2632L49.1082 94.2013L49.5881 108.62L46.8423 109.731Z" fill="#292F36"/>
<path id="Vector_4" d="M49.3069 153.999C48.3208 154.032 47.4943 153.261 47.4622 152.279L46.8389 133.471L46.7161 129.774L46.1846 113.869L48.1487 113.141L49.7156 112.504L51.0334 152.162C51.0655 153.145 50.293 153.967 49.3069 154V153.999Z" fill="#292F36"/>
<path id="Vector_5" d="M16.1733 136.005C15.1872 136.02 14.3745 135.235 14.3596 134.253L12.8076 31.7695C14.0026 31.9835 15.1964 32.2043 16.3914 32.4296L17.7253 120.551L17.7574 122.651L17.8125 126.333L17.9319 134.199C17.9468 135.182 17.1605 135.991 16.1745 136.005H16.1733Z" fill="#292F36"/>
<path id="Vector_6" d="M111.409 18.9479L47.9184 34.766C40.2802 33.3578 32.6408 31.9507 25.006 30.5424C19.6051 29.5494 14.2053 28.553 8.80776 27.5611C6.94698 27.2168 5.08506 26.877 3.22888 26.5327C2.04193 26.3153 1.46683 25.876 1.05472 26.3782C1.02258 26.4137 0.991589 26.4572 0.962891 26.5086C1.08572 26.1254 2.20494 25.6941 2.52291 25.6232C3.48372 25.3932 4.487 25.4378 5.45928 25.2754L19.3479 22.1122L38.7914 17.7616L64.1879 12.2246L111.409 18.9479Z" fill="#A67D61"/>
<path id="Vector_7" d="M111.409 18.9484L111.294 19.8579L111.013 22.1116L101.6 24.4248L98.0838 25.2908L63.3937 33.825L59.8225 34.7025L48.3147 37.5339C48.3147 37.5339 47.5605 37.4275 46.4057 37.2605C45.4254 37.122 44.1523 36.9401 42.8024 36.7502C39.0131 36.208 34.6315 35.5834 34.434 35.5559C28.4029 34.6979 22.3947 33.5425 16.3911 32.4282C15.1972 32.2028 14.0023 31.9809 12.8073 31.7681C11.8981 31.5977 10.9936 31.4363 10.0856 31.2773C7.71626 30.8586 5.34811 30.4113 2.97422 30.0075C1.04572 29.6792 0.0298097 29.3703 0.712821 27.1166C0.792027 26.8638 0.867789 26.6739 0.955031 26.5274C0.955031 26.524 0.958475 26.524 0.958475 26.5194V26.516C0.958475 26.516 0.958475 26.508 0.961919 26.508C0.989469 26.4565 1.02161 26.413 1.05375 26.3776C1.467 25.8754 2.04211 26.3146 3.22791 26.532C5.08524 26.8764 6.94601 27.2161 8.80679 27.5605C14.2031 28.5535 19.6041 29.5499 25.005 30.5417C32.6398 31.95 40.2781 33.3571 47.9175 34.7654L111.408 18.9473L111.409 18.9484Z" fill="#7B4B2C"/>
<path id="Vector_8" d="M46.8383 133.471L17.8121 126.333L17.7559 122.651L20.6371 123.358H20.6406L46.7155 129.773L46.8383 133.471Z" fill="#292F36"/>
<path id="Vector_9" d="M60.6165 104.146V108.085L49.7159 112.502L48.1479 113.139L46.1838 113.867L20.6403 123.358H20.6369L17.7556 122.651L17.7246 120.55L46.0564 110.023L46.8427 109.73L49.5885 108.62L60.6165 104.146Z" fill="#292F36"/>
<path id="Vector_10" d="M103.972 110.628L64.1875 107.354V103.787L103.73 107.037L103.972 110.628Z" fill="#292F36"/>
<path id="Vector_11" d="M192.145 73.6802C192.11 73.6092 192.066 73.5337 192.014 73.4582C192.137 73.8735 189.197 74.8505 188.951 74.91C186.99 75.3527 184.995 75.5907 182.999 75.752C173.455 76.5116 163.916 77.2701 154.368 77.9393C151.817 78.1212 149.024 78.3305 146.475 79.1416C145.626 79.4151 144.805 79.7503 144.031 80.1781C143.762 80.3245 143.5 80.479 143.246 80.6483C142.865 80.8977 142.497 81.1745 142.116 81.4388C141.426 81.9296 140.71 82.3757 139.893 82.5542C139.719 82.5942 139.548 82.6171 139.378 82.6251C137.811 82.7441 136.267 81.8861 134.881 81.0636C128.576 77.3032 122.275 73.5463 115.973 69.7894C114.834 69.1087 113.691 68.4292 112.552 67.7485C112.298 67.5987 112.045 67.4442 111.79 67.2932C111.94 67.5151 112.1 67.7279 112.266 67.9373C112.111 67.8309 111.961 67.7199 111.809 67.6055C110.834 66.8779 111.425 65.3278 112.039 64.6437C112.845 63.7502 113.88 62.8922 114.995 62.4255C115.991 62.0068 117.117 61.7688 118.11 61.4679C118.674 61.2975 119.257 61.2071 119.84 61.1556C128.443 60.3445 137.229 60.1592 145.815 59.665C148.049 59.538 150.283 59.3881 152.521 59.2818C155.089 59.1548 157.664 59.1468 160.227 59.3653C161.763 59.4957 163.513 59.5117 165.14 59.7565C165.815 59.8549 166.47 59.9933 167.077 60.1992C167.589 60.3697 168.104 60.5035 168.624 60.6179C169.513 60.8239 170.411 60.9897 171.299 61.2506C172.677 61.6624 174.001 62.223 175.35 62.7103C177.39 63.4459 179.401 64.265 181.362 65.1859C184.886 66.839 189.342 68.785 191.54 72.1495C191.881 72.6712 192.115 73.194 192.143 73.6802H192.145Z" fill="#A67D61"/>
<path id="Vector_12" d="M200.502 67.7246C200.45 68.069 200.399 68.4122 200.347 68.7565C200.045 70.7574 199.736 72.7788 199.677 74.8071C199.475 75.0325 199.263 75.2544 199.042 75.4638C196.177 78.2128 192.478 78.7459 188.681 79.2756C186.177 79.628 183.672 79.9563 181.169 80.2961C177.963 80.7274 174.697 80.9173 171.45 81.1346C170.26 81.2135 169.07 81.2971 167.887 81.4035C167.789 81.4115 167.689 81.4195 167.59 81.4275C163.336 81.8027 159.09 82.218 154.84 82.6458C152.718 82.8598 150.594 83.0771 148.471 83.2979C147.409 83.4043 146.349 83.5153 145.285 83.6217C144.543 83.7006 143.746 84.0129 142.995 83.942C142.924 83.934 142.859 83.926 142.801 83.9145C142.841 83.8596 142.88 83.8082 142.924 83.7567C143.825 82.6138 145.07 81.7432 146.797 81.5144L146.765 81.265C149.756 80.2446 152.963 79.8854 156.121 79.7263C158.287 79.62 160.455 79.5994 162.625 79.525C164.328 79.4735 166.062 79.3031 167.768 79.1257C168.089 79.0937 168.411 79.0582 168.729 79.0274C168.919 79.0079 169.105 78.9919 169.296 78.9805C169.966 78.9336 170.649 78.921 171.331 78.921C172.505 78.9244 173.684 78.9679 174.847 78.9404C179.213 78.8375 183.566 78.4348 187.87 77.7381C189.211 77.5207 191.866 76.5037 192.299 74.9581C194.83 74.1036 198.906 72.0707 200.501 67.7246H200.502Z" fill="#292F36"/>
<path id="Vector_13" d="M210.012 140.322C208.375 140.645 206.807 139.506 206.623 137.853C206.483 136.6 206.377 135.341 206.232 134.103C205.652 129.168 205.088 124.228 204.526 119.289C203.843 113.29 203.164 107.291 202.491 101.292C201.88 95.8496 201.268 90.4042 200.657 84.9587C200.355 82.2463 199.892 79.5533 199.709 76.8283C199.666 76.1522 199.658 75.4795 199.677 74.808C199.737 72.7797 200.046 70.7582 200.347 68.7574C200.399 68.413 200.451 68.0687 200.502 67.7255C200.792 65.8116 201.082 63.8976 201.368 61.9837C202.027 57.5976 202.923 53.2241 203.19 48.7911C203.337 46.3589 203.484 43.9268 203.626 41.4992C203.808 38.4745 203.987 35.4486 204.17 32.4238C204.722 32.5302 205.23 32.5508 205.38 32.3094L205.475 32.163C206.154 31.5979 206.554 30.9137 206.701 30.0157C207.186 26.9784 207.641 23.941 208.232 20.9277C208.034 24.6926 207.832 28.461 207.633 32.2259C207.339 37.7309 207.046 43.2358 206.756 48.7407C206.462 54.2846 205.304 59.833 204.479 65.3231C204.154 67.4864 203.828 69.6497 203.498 71.813C203.054 74.7668 203.439 77.6737 203.765 80.6161C204.106 83.6489 204.443 86.6827 204.784 89.7155C205.558 96.6001 206.332 103.489 207.11 110.374C207.816 116.614 208.526 122.858 209.245 129.099C209.65 132.611 210.015 136.135 210.495 139.638V139.643C210.542 139.961 210.331 140.261 210.014 140.323L210.012 140.322Z" fill="#292F36"/>
<path id="Vector_14" d="M173.836 22.065L168.626 60.6191C168.106 60.5047 167.59 60.3697 167.078 60.2003C166.471 59.9944 165.817 59.856 165.142 59.7576L170.447 20.46C170.583 20.5709 170.725 20.6739 170.875 20.7723C171.701 21.3145 172.784 21.7298 173.836 22.065Z" fill="#292F36"/>
<path id="Vector_15" d="M171.45 81.1348L173.213 114.56C173.265 115.541 172.509 116.377 171.527 116.43C170.542 116.482 169.702 115.728 169.65 114.748L167.887 81.4036L171.45 81.1348Z" fill="#292F36"/>
<path id="Vector_16" d="M114.853 70.595C113.361 72.2595 113.742 75.2969 113.647 77.5311C113.595 78.7174 113.543 79.9003 113.492 81.0867C113.436 82.4629 113.377 83.8426 113.317 85.2188C113.277 86.1008 113.238 86.9863 113.202 87.8683C113.135 89.494 113.016 91.123 112.996 92.7486L112.619 125.743C112.608 126.726 111.8 127.513 110.813 127.502C109.827 127.491 109.036 126.686 109.048 125.703L109.424 92.6262C109.678 86.73 110.064 80.8213 110.171 74.9216C110.203 73.1736 110.163 71.3867 110.972 69.7771C111.313 69.0849 111.765 68.4843 112.298 67.9775C113.047 68.9419 113.916 69.8045 114.853 70.595Z" fill="#292F36"/>
<path id="Vector_17" d="M114.853 70.5955C113.916 69.805 113.047 68.9424 112.298 67.978C112.3 67.9727 112.303 67.97 112.306 67.97C112.385 67.891 112.469 67.8155 112.552 67.748" fill="#292F36"/>
<path id="Vector_18" d="M146.797 81.5152C145.07 81.744 143.825 82.6146 142.923 83.7574C142.88 83.8089 142.84 83.8604 142.801 83.9153C140.48 87.0281 140.57 91.9908 140.575 92.0618V92.1922L137.882 148.547C137.835 149.528 136.998 150.288 136.013 150.241C135.026 150.195 134.264 149.36 134.311 148.376L136.606 100.349L136.805 96.2202L137.004 92.0881C136.952 90.0437 137.301 87.1334 138.425 84.4827C138.607 84.5068 138.793 84.5182 138.98 84.5148C140.171 84.5033 141.254 83.9851 142.309 83.3959C142.789 83.1271 143.266 82.8422 143.742 82.5814C144.718 82.0517 145.73 81.617 146.766 81.2646L146.798 81.514L146.797 81.5152Z" fill="#292F36"/>
<path id="Vector_19" d="M208.235 20.8968C208.235 20.9048 208.231 20.9163 208.231 20.9243C207.64 23.9376 207.183 26.9749 206.7 30.0123C206.553 30.9103 206.152 31.5944 205.474 32.1595L205.379 32.306C205.228 32.5474 204.72 32.5279 204.169 32.4204C203.554 32.298 202.883 32.0646 202.617 31.9502C197.295 29.6679 191.875 27.6076 186.372 25.8046C183.233 24.7727 180.027 23.9536 176.884 22.9458C176.194 22.7238 175.035 22.4515 173.836 22.0637C172.785 21.7274 171.701 21.3121 170.876 20.771C170.725 20.6726 170.582 20.5697 170.448 20.4587C169.781 19.913 169.385 19.2529 169.495 18.4498C169.975 15.0842 170.288 11.6716 171.074 8.37687C172.518 2.35026 176.677 -1.18929 183.272 0.364269C185.375 0.858479 187.483 1.35726 189.589 1.85147C193.18 3.01836 196.919 3.68302 200.485 4.93571C202.779 5.74223 205.699 6.83018 207.049 9.02895C207.069 9.06098 207.085 9.08844 207.104 9.12047C207.743 10.2393 208.08 11.5686 208.338 12.8225C208.886 15.4834 208.758 18.2405 208.235 20.898V20.8968Z" fill="#A67D61"/>
<path id="Vector_20" d="M136.805 96.2219L136.606 100.351L113.317 85.22C113.377 83.8438 113.437 82.4641 113.492 81.0879L136.805 96.2219Z" fill="#292F36"/>
<path id="Vector_21" d="M192.3 74.9566C191.867 76.5033 189.213 77.5192 187.872 77.7366C183.566 78.4321 179.213 78.836 174.848 78.9389C173.686 78.9664 172.507 78.9229 171.332 78.9195C170.649 78.9195 169.967 78.9309 169.297 78.979C169.107 78.9904 168.921 79.0064 168.73 79.0259C168.412 79.0579 168.091 79.0934 167.769 79.1243C166.063 79.3027 164.329 79.472 162.627 79.5235C160.456 79.599 158.29 79.6185 156.122 79.7249C152.963 79.8827 149.757 80.2431 146.766 81.2635C145.73 81.6159 144.718 82.0506 143.742 82.5803C143.266 82.8411 142.789 83.126 142.31 83.3948C141.253 83.984 140.171 84.5022 138.981 84.5137C138.795 84.5171 138.608 84.5056 138.425 84.4816C137.128 84.3352 135.929 83.6396 134.794 82.9635C130.188 80.2156 125.58 77.4666 120.977 74.7176C118.869 73.4603 116.722 72.1664 114.854 70.5934C113.917 69.8029 113.048 68.9403 112.298 67.9759C112.287 67.9679 112.279 67.9565 112.279 67.9485C112.279 67.9485 112.276 67.9458 112.271 67.9405C112.271 67.9405 112.267 67.9405 112.267 67.937C112.101 67.7277 111.943 67.5138 111.791 67.293C112.045 67.4428 112.298 67.5973 112.553 67.7483C113.692 68.429 114.835 69.1085 115.974 69.7892C122.275 73.5461 128.577 77.303 134.883 81.0633C136.267 81.8859 137.811 82.7439 139.379 82.6249C139.55 82.6169 139.72 82.5929 139.894 82.554C140.712 82.3755 141.426 81.9293 142.117 81.4386C142.498 81.1732 142.866 80.8963 143.247 80.6481C143.501 80.4776 143.763 80.3243 144.033 80.1779C144.806 79.7512 145.628 79.4148 146.476 79.1414C149.024 78.3303 151.818 78.121 154.37 77.9391C163.917 77.271 173.456 76.5113 183 75.7517C184.996 75.5893 186.992 75.3525 188.952 74.9097C189.197 74.8503 192.138 73.8733 192.016 73.458C192.067 73.5335 192.111 73.6079 192.146 73.6799V73.6834C192.381 74.1387 192.413 74.5654 192.301 74.9566H192.3Z" fill="#7B4B2C"/>
</g>
<defs>
<clipPath id="clip0_3618_9312">
<rect width="210" height="154" fill="white" transform="translate(0.5)"/>
</clipPath>
</defs>
</svg>
