<svg width="189" height="154" viewBox="0 0 189 154" fill="none" xmlns="http://www.w3.org/2000/svg">
<path d="M116.954 151.292H72.0449L75.205 121.241H113.804L116.954 151.292Z" fill="#292F36"/>
<g style="mix-blend-mode:multiply">
<path d="M116.954 151.292L113.805 121.241H75.2054L74.8008 125.018L101.121 151.292H116.954Z" fill="#E6E7E8"/>
</g>
<path d="M181.797 0H7.2139C3.51797 0 0.5 3.02366 0.5 6.70226V117.89C0.5 121.579 3.51797 124.592 7.2139 124.592H181.786C185.471 124.592 188.5 121.579 188.5 117.89V6.70226C188.5 3.01274 185.482 0 181.786 0H181.797Z" fill="#54595E"/>
<path d="M102.193 116.865H86.819C85.7256 116.865 84.8398 115.98 84.8398 114.889C84.8398 113.797 85.7256 112.913 86.819 112.913H102.193C103.287 112.913 104.172 113.797 104.172 114.889C104.172 115.98 103.287 116.865 102.193 116.865Z" fill="white"/>
<path d="M121.142 154H67.8575C67.1248 154 66.5234 153.127 66.5234 152.035C66.5234 150.944 67.1248 150.06 67.8575 150.06H121.142C121.875 150.06 122.476 150.944 122.476 152.035C122.476 153.127 121.875 154 121.142 154Z" fill="#54595E"/>
<path d="M81.5594 7.12891H7.40039V103.515H94.5061V20.0422C94.5061 12.9033 88.7107 7.12891 81.5703 7.12891H81.5594Z" fill="white"/>
<path d="M7.40039 103.514H94.5061C94.5061 96.375 88.7107 90.6006 81.5703 90.6006H7.40039V103.514Z" fill="#D4D5D7"/>
<path d="M107.442 7.12891H181.612V103.515H94.5059V20.0422C94.5059 12.9033 100.301 7.12891 107.442 7.12891Z" fill="white"/>
<path d="M94.5059 103.515H181.601V90.6013L94.5059 20.042V103.515Z" fill="#F7F8FA"/>
<path d="M181.6 103.514H94.4941C94.4941 96.375 100.29 90.6006 107.43 90.6006H181.6V103.514Z" fill="#D4D5D7"/>
<path d="M125.676 50.4927C127.008 50.7487 127.958 52.1503 127.702 53.4828C127.431 54.8937 126.029 55.8435 124.697 55.5875C123.286 55.3164 122.415 53.9298 122.686 52.5189C122.942 51.1865 124.265 50.2216 125.676 50.4927ZM136.711 21.4033C141.414 22.3069 144.516 26.8856 143.613 31.5884C142.995 34.8021 140.635 37.3558 137.527 38.3029L131.312 40.197C130.187 40.5499 129.364 41.4484 129.138 42.6241L128.882 43.9566C128.672 45.0539 127.644 45.7504 126.625 45.5546C125.527 45.3438 124.909 44.331 125.12 43.2337L125.376 41.9012C125.873 39.3146 127.657 37.2192 130.235 36.4953L136.451 34.6011C138.169 34.1185 139.504 32.6683 139.85 30.8655C140.347 28.2789 138.574 25.6626 135.988 25.1656L127.601 23.5541C125.171 23.0872 122.82 24.7486 122.368 27.1001L122.127 28.3542C121.916 29.4515 120.904 30.0696 119.885 29.8739C118.787 29.663 118.154 28.7286 118.365 27.6312L118.606 26.3771C119.464 21.9094 123.778 18.9183 128.324 19.7918L136.711 21.4033Z" fill="#0093A4"/>
<path d="M147.517 67.8845C148.337 68.042 148.921 68.9046 148.764 69.7245C148.597 70.5928 147.735 71.1773 146.915 71.0197C146.046 70.8529 145.51 69.9996 145.677 69.1314C145.834 68.3114 146.649 67.7176 147.517 67.8845ZM154.308 49.9833C157.202 50.5394 159.111 53.357 158.555 56.2511C158.175 58.2287 156.723 59.8002 154.81 60.383L150.985 61.5487C150.293 61.7658 149.787 62.3187 149.648 63.0422L149.49 63.8622C149.36 64.5375 148.728 64.9661 148.101 64.8457C147.426 64.7159 147.045 64.0926 147.175 63.4174L147.332 62.5974C147.638 61.0056 148.736 59.7161 150.322 59.2707L154.148 58.105C155.205 57.8081 156.027 56.9156 156.24 55.8062C156.546 54.2145 155.455 52.6044 153.863 52.2985L148.702 51.3069C147.206 51.0195 145.76 52.0419 145.481 53.489L145.333 54.2607C145.203 54.936 144.58 55.3164 143.953 55.1959C143.278 55.0662 142.888 54.4912 143.018 53.8159L143.166 53.0441C143.695 50.2947 146.349 48.454 149.147 48.9916L154.308 49.9833Z" fill="#0093A4"/>
<path d="M160.368 40.7049C160.88 40.8034 161.246 41.3425 161.147 41.855C161.043 42.3976 160.504 42.7629 159.991 42.6644C159.449 42.5602 159.114 42.0269 159.218 41.4842C159.316 40.9717 159.825 40.6006 160.368 40.7049ZM164.612 29.5167C166.421 29.8642 167.614 31.6252 167.267 33.434C167.029 34.6701 166.122 35.6523 164.926 36.0165L162.536 36.745C162.103 36.8808 161.787 37.2263 161.7 37.6785L161.601 38.191C161.52 38.6131 161.125 38.881 160.733 38.8057C160.311 38.7246 160.073 38.335 160.154 37.913L160.253 37.4005C160.444 36.4056 161.13 35.5997 162.121 35.3213L164.512 34.5928C165.173 34.4072 165.686 33.8494 165.82 33.156C166.011 32.1612 165.329 31.1549 164.334 30.9637L161.108 30.3439C160.174 30.1643 159.27 30.8033 159.096 31.7077L159.003 32.1901C158.922 32.6121 158.532 32.8499 158.141 32.7746C157.719 32.6935 157.475 32.3341 157.556 31.912L157.649 31.4297C157.979 29.7113 159.638 28.5609 161.386 28.8969L164.612 29.5167Z" fill="#0093A4"/>
</svg>
