<svg width="190" height="278" viewBox="0 0 190 278" fill="none" xmlns="http://www.w3.org/2000/svg">
<path d="M57.3887 232.72C57.3887 211.868 74.2931 194.963 95.1458 194.963V194.963C115.998 194.963 132.903 211.868 132.903 232.72V232.72C132.903 253.573 115.998 270.478 95.1458 270.478V270.478C74.2931 270.478 57.3887 253.573 57.3887 232.72V232.72Z" fill="white"/>
<path d="M57.3887 232.72C57.3887 211.868 74.2931 194.963 95.1458 194.963V194.963C115.998 194.963 132.903 211.868 132.903 232.72V232.72C132.903 253.573 115.998 270.478 95.1458 270.478V270.478C74.2931 270.478 57.3887 253.573 57.3887 232.72V232.72Z" fill="#3CFFF8"/>
<path fill-rule="evenodd" clip-rule="evenodd" d="M55.8682 232.721C55.8682 211.027 73.4542 193.441 95.1477 193.441C116.841 193.441 134.427 211.027 134.427 232.721C134.427 254.414 116.841 272 95.1477 272C73.4542 272 55.8682 254.414 55.8682 232.721ZM95.1477 196.486C75.1358 196.486 58.913 212.709 58.913 232.721C58.913 252.732 75.1358 268.955 95.1477 268.955C115.16 268.955 131.382 252.732 131.382 232.721C131.382 212.709 115.16 196.486 95.1477 196.486Z" fill="black"/>
<path d="M54.0576 246.046H134.014V246.046C134.014 252.729 128.596 258.261 121.913 258.261H66.1586C59.4754 258.261 54.0576 252.729 54.0576 246.046V246.046Z" fill="white"/>
<path d="M54.0576 246.046H134.014V246.046C134.014 252.729 128.596 258.261 121.913 258.261H66.1586C59.4754 258.261 54.0576 252.729 54.0576 246.046V246.046Z" fill="#F2F2F2"/>
<path fill-rule="evenodd" clip-rule="evenodd" d="M51.0137 243.001H134.015V246.046H54.0585C54.0585 247.095 54.192 248.115 54.4428 249.091C55.7903 254.329 60.5252 258.261 66.1595 258.261H121.914C127.548 258.261 132.283 254.329 133.63 249.091C133.881 248.115 134.015 247.095 134.015 246.046H137.06C137.06 254.373 130.316 261.306 121.914 261.306H66.1595C57.7575 261.306 51.0137 254.373 51.0137 246.046V243.001Z" fill="black"/>
<path d="M42.9536 161.093C42.9536 165.693 38.9761 169.421 34.0696 169.421C29.1631 169.421 25.1855 165.693 25.1855 161.093C25.1855 156.493 29.1631 152.764 34.0696 152.764C38.9761 152.764 42.9536 156.493 42.9536 161.093Z" fill="#828282"/>
<path d="M162.888 161.093C162.888 165.693 158.911 169.422 154.004 169.422C149.098 169.422 145.12 165.693 145.12 161.093C145.12 156.493 149.098 152.764 154.004 152.764C158.911 152.764 162.888 156.493 162.888 161.093Z" fill="#828282"/>
<path d="M43.6245 161.437C43.6245 166.207 39.4654 170.074 34.3347 170.074C29.2041 170.074 25.0449 166.207 25.0449 161.437C25.0449 156.667 29.2041 152.8 34.3347 152.8C39.4654 152.8 43.6245 156.667 43.6245 161.437Z" fill="#828282"/>
<path fill-rule="evenodd" clip-rule="evenodd" d="M46.6693 161.437C46.6693 168.094 40.9341 173.119 34.3346 173.119C27.7351 173.119 22 168.094 22 161.437C22 154.78 27.7351 149.755 34.3346 149.755C40.9341 149.755 46.6693 154.78 46.6693 161.437ZM34.3346 170.074C39.4653 170.074 43.6244 166.207 43.6244 161.437C43.6244 156.667 39.4653 152.8 34.3346 152.8C29.204 152.8 25.0448 156.667 25.0448 161.437C25.0448 166.207 29.204 170.074 34.3346 170.074Z" fill="black"/>
<path d="M162.899 161.437C162.899 166.207 158.74 170.074 153.609 170.074C148.479 170.074 144.319 166.207 144.319 161.437C144.319 156.667 148.479 152.8 153.609 152.8C158.74 152.8 162.899 156.667 162.899 161.437Z" fill="#828282"/>
<path fill-rule="evenodd" clip-rule="evenodd" d="M165.943 161.437C165.943 168.094 160.208 173.119 153.608 173.119C147.009 173.119 141.273 168.094 141.273 161.437C141.273 154.78 147.009 149.755 153.608 149.755C160.208 149.755 165.943 154.78 165.943 161.437ZM153.608 170.074C158.739 170.074 162.898 166.207 162.898 161.437C162.898 156.667 158.739 152.8 153.608 152.8C148.477 152.8 144.318 156.667 144.318 161.437C144.318 166.207 148.477 170.074 153.608 170.074Z" fill="black"/>
<path d="M93.4814 45.0447C87.6549 45.0447 82.9316 49.768 82.9316 55.5945C82.9316 60.46 86.2255 64.5563 90.705 65.7751V79.4262H96.2575V65.7752C100.737 64.5565 104.031 60.4602 104.031 55.5945C104.031 49.768 99.3079 45.0447 93.4814 45.0447Z" fill="#7ECDCA"/>
<path d="M93.4814 45.0447C87.6549 45.0447 82.9316 49.768 82.9316 55.5945C82.9316 60.46 86.2255 64.5563 90.705 65.7751V79.4262H96.2575V65.7752C100.737 64.5565 104.031 60.4602 104.031 55.5945C104.031 49.768 99.3079 45.0447 93.4814 45.0447Z" fill="#7D8E9E"/>
<path d="M93.4814 45.0447C87.6549 45.0447 82.9316 49.768 82.9316 55.5945C82.9316 60.46 86.2255 64.5563 90.705 65.7751V79.4262H96.2575V65.7752C100.737 64.5565 104.031 60.4602 104.031 55.5945C104.031 49.768 99.3079 45.0447 93.4814 45.0447Z" fill="#828282"/>
<path fill-rule="evenodd" clip-rule="evenodd" d="M87.66 82.4711V67.8823C83.0658 65.702 79.8867 61.0225 79.8867 55.5946C79.8867 48.0865 85.9732 42 93.4813 42C100.989 42 107.076 48.0865 107.076 55.5946C107.076 61.0226 103.897 65.7023 99.3022 67.8825V82.4711H87.66ZM96.2574 65.7753C100.737 64.5567 104.031 60.4603 104.031 55.5946C104.031 49.7681 99.3078 45.0448 93.4813 45.0448C87.6548 45.0448 82.9315 49.7681 82.9315 55.5946C82.9315 60.4602 86.2254 64.5564 90.7049 65.7752V79.4263H96.2574V65.7753Z" fill="black"/>
<path d="M81.8203 78.9576C81.8203 74.9477 85.071 71.697 89.0809 71.697H97.8803C101.89 71.697 105.141 74.9477 105.141 78.9576V85.0231H81.8203V78.9576Z" fill="#D0E2EE"/>
<path d="M81.8203 78.9576C81.8203 74.9477 85.071 71.697 89.0809 71.697H97.8803C101.89 71.697 105.141 74.9477 105.141 78.9576V85.0231H81.8203V78.9576Z" fill="#F2F2F2"/>
<path fill-rule="evenodd" clip-rule="evenodd" d="M97.8803 74.7418H89.0809C86.7526 74.7418 84.8651 76.6293 84.8651 78.9576V81.9782H102.096V78.9576C102.096 76.6293 100.209 74.7418 97.8803 74.7418ZM89.0809 71.697C85.071 71.697 81.8203 74.9477 81.8203 78.9576V85.0231H105.141V78.9576C105.141 74.9477 101.89 71.697 97.8803 71.697H89.0809Z" fill="black"/>
<path d="M82.6585 80.5815H105.54C132.954 80.5815 155.177 102.841 155.177 130.299V233.888C155.177 239.99 150.238 244.936 144.146 244.936H44.0519C37.96 244.936 33.0215 239.99 33.0215 233.888V130.299C33.0215 102.841 55.2447 80.5815 82.6585 80.5815Z" fill="white"/>
<path fill-rule="evenodd" clip-rule="evenodd" d="M82.6574 77.5364H105.539C134.639 77.5364 158.221 101.163 158.221 130.298V233.887C158.221 241.666 151.923 247.98 144.145 247.98H44.0508C36.2726 247.98 29.9756 241.666 29.9756 233.887V130.298C29.9756 101.163 53.5574 77.5364 82.6574 77.5364ZM105.539 80.5812H82.6574C55.2436 80.5812 33.0204 102.84 33.0204 130.298V233.887C33.0204 239.989 37.9589 244.936 44.0508 244.936H144.145C150.237 244.936 155.176 239.989 155.176 233.887V130.298C155.176 102.84 132.952 80.5812 105.539 80.5812Z" fill="black"/>
<path d="M129.344 211.15C129.344 211.905 128.731 212.518 127.976 212.518V212.518C127.22 212.518 126.607 211.905 126.607 211.15V200.449C126.607 199.694 127.22 199.081 127.976 199.081V199.081C128.731 199.081 129.344 199.694 129.344 200.449V211.15Z" fill="white"/>
<path d="M129.344 211.15C129.344 211.905 128.731 212.518 127.976 212.518V212.518C127.22 212.518 126.607 211.905 126.607 211.15V200.449C126.607 199.694 127.22 199.081 127.976 199.081V199.081C128.731 199.081 129.344 199.694 129.344 200.449V211.15Z" fill="#7ECDCA"/>
<path d="M129.344 211.15C129.344 211.905 128.731 212.518 127.976 212.518V212.518C127.22 212.518 126.607 211.905 126.607 211.15V200.449C126.607 199.694 127.22 199.081 127.976 199.081V199.081C128.731 199.081 129.344 199.694 129.344 200.449V211.15Z" fill="#7ECDCA"/>
<path d="M129.344 211.15C129.344 211.905 128.731 212.518 127.976 212.518V212.518C127.22 212.518 126.607 211.905 126.607 211.15V200.449C126.607 199.694 127.22 199.081 127.976 199.081V199.081C128.731 199.081 129.344 199.694 129.344 200.449V211.15Z" fill="#828282"/>
<path d="M117.784 209.75H112.986L112.38 211.591C112.197 212.145 111.681 212.518 111.098 212.518V212.518C110.16 212.518 109.508 211.584 109.832 210.704L113.67 200.273C113.933 199.557 114.615 199.082 115.377 199.082V199.082C116.139 199.082 116.819 199.556 117.084 200.27L120.943 210.702C121.269 211.582 120.617 212.518 119.678 212.518V212.518C119.097 212.518 118.582 212.147 118.398 211.596L117.784 209.75ZM113.725 207.507H117.045L115.376 202.478L113.725 207.507Z" fill="white"/>
<path d="M117.784 209.75H112.986L112.38 211.591C112.197 212.145 111.681 212.518 111.098 212.518V212.518C110.16 212.518 109.508 211.584 109.832 210.704L113.67 200.273C113.933 199.557 114.615 199.082 115.377 199.082V199.082C116.139 199.082 116.819 199.556 117.084 200.27L120.943 210.702C121.269 211.582 120.617 212.518 119.678 212.518V212.518C119.097 212.518 118.582 212.147 118.398 211.596L117.784 209.75ZM113.725 207.507H117.045L115.376 202.478L113.725 207.507Z" fill="#7ECDCA"/>
<path d="M117.784 209.75H112.986L112.38 211.591C112.197 212.145 111.681 212.518 111.098 212.518V212.518C110.16 212.518 109.508 211.584 109.832 210.704L113.67 200.273C113.933 199.557 114.615 199.082 115.377 199.082V199.082C116.139 199.082 116.819 199.556 117.084 200.27L120.943 210.702C121.269 211.582 120.617 212.518 119.678 212.518V212.518C119.097 212.518 118.582 212.147 118.398 211.596L117.784 209.75ZM113.725 207.507H117.045L115.376 202.478L113.725 207.507Z" fill="#7ECDCA"/>
<path d="M117.784 209.75H112.986L112.38 211.591C112.197 212.145 111.681 212.518 111.098 212.518V212.518C110.16 212.518 109.508 211.584 109.832 210.704L113.67 200.273C113.933 199.557 114.615 199.082 115.377 199.082V199.082C116.139 199.082 116.819 199.556 117.084 200.27L120.943 210.702C121.269 211.582 120.617 212.518 119.678 212.518V212.518C119.097 212.518 118.582 212.147 118.398 211.596L117.784 209.75ZM113.725 207.507H117.045L115.376 202.478L113.725 207.507Z" fill="#828282"/>
<path d="M133.357 210.896C133.357 211.828 132.602 212.584 131.669 212.584V212.584C130.737 212.584 129.981 211.828 129.981 210.896V210.896C129.981 209.964 130.737 209.208 131.669 209.208V209.208C132.602 209.208 133.357 209.964 133.357 210.896V210.896Z" fill="white"/>
<path d="M133.357 210.896C133.357 211.828 132.602 212.584 131.669 212.584V212.584C130.737 212.584 129.981 211.828 129.981 210.896V210.896C129.981 209.964 130.737 209.208 131.669 209.208V209.208C132.602 209.208 133.357 209.964 133.357 210.896V210.896Z" fill="#7ECDCA"/>
<path d="M133.357 210.896C133.357 211.828 132.602 212.584 131.669 212.584V212.584C130.737 212.584 129.981 211.828 129.981 210.896V210.896C129.981 209.964 130.737 209.208 131.669 209.208V209.208C132.602 209.208 133.357 209.964 133.357 210.896V210.896Z" fill="#7ECDCA"/>
<path d="M133.357 210.896C133.357 211.828 132.602 212.584 131.669 212.584V212.584C130.737 212.584 129.981 211.828 129.981 210.896V210.896C129.981 209.964 130.737 209.208 131.669 209.208V209.208C132.602 209.208 133.357 209.964 133.357 210.896V210.896Z" fill="#828282"/>
<path d="M125.48 210.896C125.48 211.828 124.725 212.584 123.792 212.584V212.584C122.86 212.584 122.104 211.828 122.104 210.896V210.896C122.104 209.964 122.86 209.208 123.792 209.208V209.208C124.725 209.208 125.48 209.964 125.48 210.896V210.896Z" fill="white"/>
<path d="M125.48 210.896C125.48 211.828 124.725 212.584 123.792 212.584V212.584C122.86 212.584 122.104 211.828 122.104 210.896V210.896C122.104 209.964 122.86 209.208 123.792 209.208V209.208C124.725 209.208 125.48 209.964 125.48 210.896V210.896Z" fill="#7ECDCA"/>
<path d="M125.48 210.896C125.48 211.828 124.725 212.584 123.792 212.584V212.584C122.86 212.584 122.104 211.828 122.104 210.896V210.896C122.104 209.964 122.86 209.208 123.792 209.208V209.208C124.725 209.208 125.48 209.964 125.48 210.896V210.896Z" fill="#7ECDCA"/>
<path d="M125.48 210.896C125.48 211.828 124.725 212.584 123.792 212.584V212.584C122.86 212.584 122.104 211.828 122.104 210.896V210.896C122.104 209.964 122.86 209.208 123.792 209.208V209.208C124.725 209.208 125.48 209.964 125.48 210.896V210.896Z" fill="#828282"/>
<path d="M54.0576 244.936H134.014V248.268H54.0576V244.936Z" fill="#828282"/>
<path d="M32.96 127.223H155.115V130.268H32.96V127.223Z" fill="#828282"/>
<path d="M44.0654 159.982C44.0654 146.796 54.755 136.106 67.9412 136.106H120.135C133.321 136.106 144.011 146.796 144.011 159.982V159.982C144.011 173.168 133.321 183.858 120.135 183.858H67.9413C54.755 183.858 44.0654 173.168 44.0654 159.982V159.982Z" fill="#143441"/>
<path d="M44.0654 159.982C44.0654 146.796 54.755 136.106 67.9412 136.106H120.135C133.321 136.106 144.011 146.796 144.011 159.982V159.982C144.011 173.168 133.321 183.858 120.135 183.858H67.9413C54.755 183.858 44.0654 173.168 44.0654 159.982V159.982Z" fill="#0C1F26"/>
<g filter="url(#filter0_d_1649_3698)">
<path d="M74.4258 160.551C74.4258 163.376 72.1376 165.667 69.3149 165.667C66.4923 165.667 64.2041 163.376 64.2041 160.551C64.2041 157.725 66.4923 155.434 69.3149 155.434C72.1376 155.434 74.4258 157.725 74.4258 160.551Z" fill="#3CFFF8"/>
<path d="M94.1803 167.941C91.8414 167.941 89.8027 166.654 88.7323 164.749C88.5269 164.384 88.8121 163.962 89.2314 163.962V163.962C89.4577 163.962 89.6618 164.092 89.7768 164.287C90.6661 165.793 92.3053 166.804 94.1803 166.804C96.0554 166.804 97.6946 165.793 98.5838 164.287C98.6988 164.092 98.903 163.962 99.1293 163.962V163.962C99.5485 163.962 99.8338 164.384 99.6284 164.749C98.5579 166.654 96.5192 167.941 94.1803 167.941Z" fill="#3CFFF8"/>
<path fill-rule="evenodd" clip-rule="evenodd" d="M98.4882 164.442C97.5801 165.863 95.9901 166.804 94.1804 166.804C92.3706 166.804 90.7806 165.863 89.8725 164.442C89.8397 164.391 89.8078 164.339 89.7768 164.286C89.7583 164.255 89.7374 164.225 89.7144 164.197C89.5953 164.053 89.4211 163.962 89.2314 163.962C88.8122 163.962 88.5269 164.384 88.7323 164.749C88.7539 164.788 88.7759 164.826 88.7983 164.864C88.8457 164.944 88.8949 165.024 88.9458 165.102C90.0607 166.811 91.9887 167.941 94.1804 167.941C96.372 167.941 98.3 166.811 99.4149 165.102C99.4658 165.024 99.515 164.944 99.5624 164.864C99.5848 164.826 99.6068 164.788 99.6284 164.749C99.8338 164.384 99.5485 163.962 99.1293 163.962C98.9396 163.962 98.7654 164.053 98.6463 164.197C98.6233 164.225 98.6024 164.255 98.5839 164.286C98.5529 164.339 98.521 164.391 98.4882 164.442ZM94.1804 169.151C91.3861 169.151 88.9531 167.612 87.6773 165.342C86.9477 164.044 88.0356 162.752 89.2314 162.752C89.9333 162.752 90.5116 163.151 90.819 163.671C91.4999 164.825 92.7514 165.594 94.1804 165.594C95.6093 165.594 96.8608 164.825 97.5417 163.671C97.8491 163.151 98.4274 162.752 99.1293 162.752C100.325 162.752 101.413 164.044 100.683 165.342C99.4076 167.612 96.9746 169.151 94.1804 169.151Z" fill="#3CFFF8"/>
<path d="M123.296 160.55C123.296 163.376 121.008 165.667 118.185 165.667C115.362 165.667 113.074 163.376 113.074 160.55C113.074 157.725 115.362 155.434 118.185 155.434C121.008 155.434 123.296 157.725 123.296 160.55Z" fill="#3CFFF8"/>
</g>
<path opacity="0.8" d="M82.9648 55.4837C82.9648 49.6623 87.684 44.9431 93.5054 44.9431V44.9431C99.3268 44.9431 104.046 49.6623 104.046 55.4837V55.7412C104.046 61.5626 99.3268 66.2818 93.5054 66.2818V66.2818C87.684 66.2818 82.9648 61.5626 82.9648 55.7412V55.4837Z" fill="#828282"/>
<defs>
<filter id="filter0_d_1649_3698" x="23.0819" y="114.312" width="141.336" height="95.9615" filterUnits="userSpaceOnUse" color-interpolation-filters="sRGB">
<feFlood flood-opacity="0" result="BackgroundImageFix"/>
<feColorMatrix in="SourceAlpha" type="matrix" values="0 0 0 0 0 0 0 0 0 0 0 0 0 0 0 0 0 0 127 0" result="hardAlpha"/>
<feOffset/>
<feGaussianBlur stdDeviation="20.5611"/>
<feColorMatrix type="matrix" values="0 0 0 0 0.235294 0 0 0 0 1 0 0 0 0 0.972549 0 0 0 0.5 0"/>
<feBlend mode="normal" in2="BackgroundImageFix" result="effect1_dropShadow_1649_3698"/>
<feBlend mode="normal" in="SourceGraphic" in2="effect1_dropShadow_1649_3698" result="shape"/>
</filter>
</defs>
</svg>
