<svg width="51" height="52" viewBox="0 0 51 52" fill="none" xmlns="http://www.w3.org/2000/svg">
<g clip-path="url(#clip0_2663_965)">
<path d="M38.8556 9.12695C37.7731 9.12695 36.8816 9.47071 36.1811 10.1524C35.4806 10.834 35.1333 11.708 35.1333 12.7683C35.1333 13.7996 35.4864 14.6502 36.1869 15.3377C36.8873 16.0193 37.7615 16.3631 38.8151 16.3631C39.8745 16.3631 40.7543 16.0135 41.4606 15.3202C42.1668 14.6211 42.52 13.7588 42.52 12.7159C42.52 11.708 42.1668 10.8573 41.4606 10.1641C40.7543 9.47071 39.886 9.12695 38.8556 9.12695Z" fill="black"/>
<path fill-rule="evenodd" clip-rule="evenodd" d="M50.7924 21.2689C50.7924 23.1973 49.2352 24.7646 47.319 24.7646H30.3342C28.4181 24.7646 26.8608 23.1973 26.8608 21.2689V4.17491C26.8608 2.24644 28.4181 0.679199 30.3342 0.679199H47.319C49.2352 0.679199 50.7924 2.24644 50.7924 4.17491V21.2689ZM38.8035 7.82787C40.2681 7.82787 41.4896 8.294 42.4621 9.22618C43.4347 10.1584 43.921 11.3294 43.921 12.7336C43.921 14.1376 43.4289 15.3029 42.4448 16.2293C41.4606 17.1498 40.2218 17.6101 38.7283 17.6101C37.2984 17.6101 36.1116 17.1498 35.1564 16.2293C34.2071 15.3087 33.7266 14.1493 33.7266 12.7627C33.7266 11.3352 34.2071 10.1584 35.1622 9.22618C36.1232 8.294 37.3389 7.82787 38.8035 7.82787Z" fill="black"/>
<path d="M11.1845 35.8809H9.48828V42.9771H11.225C11.9023 42.9771 12.4291 42.9305 12.8053 42.8373C13.1817 42.7441 13.4942 42.6276 13.7432 42.4819C13.9921 42.3362 14.2237 42.1614 14.432 41.9517C15.1035 41.2701 15.4335 40.4078 15.4335 39.3649C15.4335 38.3395 15.092 37.5063 14.4031 36.8596C14.1484 36.6208 13.859 36.4227 13.529 36.2654C13.199 36.1081 12.8922 36.009 12.597 35.9566C12.3075 35.91 11.8386 35.8809 11.1845 35.8809Z" fill="black"/>
<path fill-rule="evenodd" clip-rule="evenodd" d="M23.9316 47.976C23.9316 49.9044 22.3744 51.4716 20.4582 51.4716H3.47338C1.55723 51.4716 0 49.9044 0 47.976V30.8819C0 28.9535 1.55723 27.3862 3.47338 27.3862H20.4582C22.3744 27.3862 23.9316 28.9535 23.9316 30.8819V47.976ZM8.13352 43.7577V35.0999C8.13352 34.832 8.32455 34.663 8.58505 34.663H11.3291C12.62 34.663 13.6389 34.8552 14.3914 35.2456C15.144 35.6359 15.7403 36.2069 16.1802 36.9643C16.626 37.7218 16.846 38.5433 16.846 39.4346C16.846 40.0697 16.7244 40.6814 16.4813 41.264C16.2381 41.8466 15.8908 42.3593 15.4334 42.8022C14.9703 43.2566 14.4378 43.6003 13.8241 43.8334C13.4652 43.9732 13.141 44.0664 12.84 44.1189C12.5389 44.1655 11.9716 44.1888 11.1322 44.1888C11.1322 44.1888 8.88613 44.183 8.57927 44.1888C8.29565 44.1946 8.13352 43.9558 8.13352 43.7577Z" fill="black"/>
<path fill-rule="evenodd" clip-rule="evenodd" d="M47.319 51.4716C49.2352 51.4716 50.7924 49.9044 50.7924 47.976V30.8819C50.7924 28.9535 49.2352 27.3862 47.319 27.3862H30.3342C28.4181 27.3862 26.8608 28.9535 26.8608 30.8819V47.976C26.8608 49.9044 28.4181 51.4716 30.3342 51.4716H47.319ZM37.4314 42.9769H40.9742C41.31 42.9769 41.5821 43.2508 41.5821 43.5887C41.5821 43.9266 41.31 44.2004 40.9742 44.2004L40.8907 44.2003C40.3729 44.1994 37.5867 44.1946 36.5052 44.1946C36.2794 44.1946 36.0768 44.0023 36.0768 43.7577V35.0941C36.0768 34.8669 36.2505 34.663 36.5052 34.663C37.5687 34.663 40.2747 34.6581 40.7645 34.6573L40.8411 34.6572C41.1769 34.6572 41.4489 34.931 41.4489 35.2689C41.4489 35.6068 41.1769 35.8807 40.8411 35.8807H37.4314V38.7879C37.4314 38.7879 40.7022 38.7821 40.7137 38.7821C41.0495 38.7821 41.3216 39.0559 41.3216 39.3938C41.3216 39.7259 41.0553 39.9998 40.7253 40.0056L37.4314 40.0114V42.9769Z" fill="black"/>
<path fill-rule="evenodd" clip-rule="evenodd" d="M23.9316 21.2689C23.9316 23.1973 22.3744 24.7646 20.4582 24.7646H3.47338C1.55723 24.7646 0 23.1973 0 21.2689V4.17491C0 2.24644 1.55723 0.679199 3.47338 0.679199H20.4582C22.3744 0.679199 23.9316 2.24644 23.9316 4.17491V21.2689ZM15.3291 15.734C15.2365 15.734 15.0686 15.7864 15.0686 15.7864C14.264 16.1593 13.4419 16.3458 12.6083 16.3458C11.5084 16.3458 10.6054 16.0079 9.89912 15.3378C9.19287 14.662 8.83972 13.8056 8.83972 12.7569C8.83972 11.7198 9.19865 10.8575 9.91646 10.1642C10.6343 9.4767 11.5374 9.12711 12.6199 9.12711C13.3841 9.12711 14.154 9.28445 14.9413 9.61653C15.0281 9.65734 15.1323 9.69225 15.2308 9.69225C15.5839 9.69225 15.8733 9.40098 15.8733 9.04555C15.8733 8.77174 15.6418 8.51538 15.4623 8.4455C14.4087 8.0318 13.4361 7.82787 12.5563 7.82787C11.1148 7.82787 9.89912 8.29983 8.91497 9.24948C7.93088 10.1991 7.43877 11.3644 7.43877 12.751C7.43877 13.6249 7.65298 14.4406 8.08139 15.1864C8.50974 15.9379 9.09444 16.5264 9.82964 16.9575C10.5649 17.3828 11.4621 17.5984 12.5215 17.5984C13.6388 17.5984 14.6576 17.3887 15.5491 16.9866C15.8096 16.8876 15.9717 16.6371 15.9717 16.3749C15.9775 16.0253 15.6881 15.734 15.3291 15.734Z" fill="black"/>
<path d="M15.0688 15.7862C15.0688 15.7862 15.2367 15.7338 15.3293 15.7338C15.6883 15.7338 15.9777 16.0251 15.9719 16.3747C15.9719 16.6368 15.8098 16.8873 15.5493 16.9864C14.6578 17.3884 13.639 17.5981 12.5217 17.5981C11.4623 17.5981 10.565 17.3826 9.82983 16.9573C9.09463 16.5261 8.50993 15.9377 8.08158 15.1861C7.65317 14.4404 7.43896 13.6247 7.43896 12.7508C7.43896 11.3641 7.93107 10.1989 8.91516 9.24924C9.89931 8.2996 11.115 7.82764 12.5565 7.82764C13.4363 7.82764 14.4089 8.03157 15.4625 8.44526C15.642 8.51515 15.8735 8.7715 15.8735 9.04532C15.8735 9.40075 15.584 9.69201 15.231 9.69201C15.1325 9.69201 15.0283 9.6571 14.9415 9.61629C14.1542 9.28422 13.3843 9.12688 12.6201 9.12688C11.5376 9.12688 10.6345 9.47647 9.91665 10.164C9.19884 10.8573 8.83991 11.7196 8.83991 12.7566C8.83991 13.8053 9.19306 14.6617 9.89931 15.3376C10.6056 16.0076 11.5086 16.3455 12.6085 16.3455C13.4421 16.3455 14.2642 16.1591 15.0688 15.7862Z" fill="white"/>
<path fill-rule="evenodd" clip-rule="evenodd" d="M42.4621 9.22595C41.4895 8.29376 40.2681 7.82764 38.8035 7.82764C37.3388 7.82764 36.1232 8.29376 35.1622 9.22595C34.207 10.1581 33.7266 11.335 33.7266 12.7625C33.7266 14.149 34.207 15.3084 35.1564 16.229C36.1116 17.1495 37.2983 17.6098 38.7282 17.6098C40.2218 17.6098 41.4606 17.1495 42.4447 16.229C43.4289 15.3027 43.9209 14.1374 43.9209 12.7333C43.9209 11.3292 43.4347 10.1581 42.4621 9.22595ZM38.8556 9.12688C37.773 9.12688 36.8815 9.47063 36.1811 10.1523C35.4806 10.834 35.1333 11.7079 35.1333 12.7682C35.1333 13.7995 35.4864 14.6501 36.1868 15.3376C36.8873 16.0192 37.7615 16.363 38.815 16.363C39.8744 16.363 40.7543 16.0134 41.4606 15.3201C42.1669 14.621 42.52 13.7587 42.52 12.7158C42.52 11.7079 42.1669 10.8573 41.4606 10.164C40.7543 9.47063 39.886 9.12688 38.8556 9.12688Z" fill="white"/>
<path d="M40.9741 42.977H37.4313V40.0115L40.7252 40.0057C41.0552 39.9998 41.3215 39.726 41.3215 39.3939C41.3215 39.056 41.0494 38.7822 40.7136 38.7822L37.4313 38.788V35.8807H40.841C41.1768 35.8807 41.4488 35.6069 41.4488 35.269C41.4488 34.931 41.1768 34.6572 40.841 34.6572L40.7644 34.6573C40.2746 34.6582 37.5686 34.6631 36.5051 34.6631C36.2503 34.6631 36.0767 34.867 36.0767 35.0942V43.7577C36.0767 44.0024 36.2793 44.1947 36.5051 44.1947C37.5735 44.1947 40.3058 44.1993 40.8709 44.2003H40.8906L40.9741 44.2005C41.3099 44.2005 41.582 43.9267 41.582 43.5888C41.582 43.2509 41.3099 42.977 40.9741 42.977Z" fill="white"/>
<path fill-rule="evenodd" clip-rule="evenodd" d="M8.1333 35.1V43.7578C8.1333 43.9558 8.29543 44.1947 8.57905 44.1889C8.88591 44.1831 11.132 44.1889 11.132 44.1889C11.9714 44.1889 12.5387 44.1656 12.8397 44.119C13.1407 44.0665 13.4649 43.9733 13.8239 43.8335C14.4375 43.6004 14.9701 43.2567 15.4332 42.8023C15.8905 42.3594 16.2379 41.8467 16.481 41.2641C16.7241 40.6815 16.8457 40.0697 16.8457 39.4347C16.8457 38.5433 16.6258 37.7218 16.18 36.9644C15.74 36.207 15.1438 35.636 14.3912 35.2457C13.6386 34.8553 12.6197 34.6631 11.3289 34.6631H8.58483C8.32433 34.6631 8.1333 34.832 8.1333 35.1ZM11.1841 35.8808H9.48794V42.977H11.2246C11.9019 42.977 12.4287 42.9304 12.805 42.8372C13.1813 42.744 13.4939 42.6275 13.7428 42.4818C13.9917 42.3361 14.2233 42.1613 14.4317 41.9516C15.1032 41.27 15.4332 40.4077 15.4332 39.3648C15.4332 38.3394 15.0916 37.5062 14.4028 36.8595C14.1481 36.6207 13.8586 36.4226 13.5286 36.2653C13.1987 36.108 12.8919 36.0089 12.5966 35.9565C12.3072 35.9099 11.8382 35.8808 11.1841 35.8808Z" fill="white"/>
</g>
<defs>
<clipPath id="clip0_2663_965">
<rect width="50.7926" height="50.7926" fill="white" transform="translate(0 0.679199)"/>
</clipPath>
</defs>
</svg>
