<svg width="261" height="130" viewBox="0 0 261 130" fill="none" xmlns="http://www.w3.org/2000/svg">
<g clip-path="url(#clip0_2876_625)">
<g clip-path="url(#clip1_2876_625)">
<path d="M199.461 59.4431C183.389 72.2356 162.825 77.1323 143.644 83.8669C131.018 88.3016 120.316 95.4783 108.759 102.097C79.3824 118.921 43.3947 130.861 18.6863 105.943C-1.90075 85.1793 -7.19682 42.4027 13.8616 14.4938C21.1471 4.84114 30.6389 -0.882364 40.9126 -4.47066C47.0789 -6.62897 54.792 -7.36977 59.8503 -12.8348C65.1821 -18.5951 66.4427 -28.1755 68.299 -35.5245C71.0595 -46.467 74.0125 -57.9591 80.3375 -67.4698C94.8419 -89.2777 113.021 -83.333 128.976 -66.9467C136.73 -58.9833 143.27 -49.9513 150.524 -41.5525C160.802 -29.6353 173.236 -23.3259 187.138 -16.398C199.519 -10.2278 212.252 -2.19104 217.276 10.7025C222.978 25.3273 216.729 42.4984 205.785 53.7404C203.773 55.809 201.664 57.6981 199.468 59.4439L199.461 59.4431Z" fill="#540096"/>
<path d="M223.778 69.1634L232.293 50.4468L233.987 46.7154C234.124 48.1548 234.15 49.5419 234.061 50.8693L233.919 51.1834L227.14 66.0827C226.113 67.1599 224.989 68.1799 223.779 69.157L223.778 69.1634Z" fill="#7C5A98"/>
<path d="M217.387 73.4873L228.631 48.7742L232.644 39.9516C232.928 40.8825 233.167 41.8016 233.357 42.6953L230.256 49.5172L220.11 71.8233C219.235 72.3928 218.322 72.9512 217.387 73.4873Z" fill="#7C5A98"/>
<path d="M211.61 76.4429L224.954 47.1058L230.652 34.5766C230.988 35.3449 231.298 36.1102 231.578 36.8523L226.58 47.8423L214.115 75.2332C213.291 75.6466 212.457 76.0455 211.603 76.4422L211.61 76.4429Z" fill="#7C5A98"/>
<path d="M206.124 78.766L221.285 45.4394L228.364 29.8815C228.73 30.5625 229.077 31.2348 229.411 31.9056L222.916 46.1832L208.528 77.7975C207.734 78.1299 206.935 78.4551 206.123 78.7724L206.124 78.766Z" fill="#7C5A98"/>
<path d="M200.809 80.7007L200.914 80.4731L217.616 43.7668L225.882 25.5983C226.063 25.8801 226.236 26.161 226.409 26.4484C226.609 26.7845 226.809 27.1141 227.003 27.4494L219.242 44.5033L203.15 79.8739C202.376 80.1503 201.602 80.4266 200.816 80.695L200.809 80.7007Z" fill="#7C5A98"/>
<path d="M195.622 82.3845L197.245 78.8069L213.946 42.1006L223.233 21.6846C223.639 22.2407 224.039 22.8024 224.423 23.3818L215.571 42.8435L198.87 79.5498L197.904 81.6675C197.148 81.907 196.385 82.1457 195.615 82.3837L195.622 82.3845Z" fill="#7C5A98"/>
<path d="M190.502 83.8878L193.576 77.134L210.277 40.4277L220.449 18.0727C220.874 18.5855 221.291 19.1104 221.701 19.6345L211.902 41.1706L195.201 77.8769L192.757 83.2389C192.009 83.46 191.255 83.6739 190.502 83.8878Z" fill="#7C5A98"/>
<path d="M185.441 85.2737L189.906 75.4663L206.607 38.76L217.549 14.7184C217.99 15.2008 218.418 15.688 218.846 16.1816L208.238 39.5038L191.537 76.21L187.683 84.6753C186.938 84.8772 186.192 85.079 185.447 85.2745L185.441 85.2737Z" fill="#7C5A98"/>
<path d="M180.417 86.5731L186.23 73.7978L202.931 37.0916L214.547 11.566C214.999 12.0171 215.449 12.4811 215.887 12.9435L204.563 37.8353L187.861 74.5416L182.65 86.0059C181.912 86.1958 181.168 86.3848 180.424 86.5738L180.417 86.5731Z" fill="#7C5A98"/>
<path d="M175.42 87.8181L182.562 72.1183L199.263 35.412L211.482 8.55635C211.942 8.98908 212.396 9.42744 212.849 9.87219L200.887 36.1614L184.186 72.8677L177.63 87.2742C176.886 87.4569 176.149 87.6403 175.412 87.8237L175.42 87.8181Z" fill="#7C5A98"/>
<path d="M170.423 89.0568L178.885 70.4572L195.586 33.7509L208.355 5.68219C208.818 6.09571 209.287 6.5164 209.748 6.94273L197.212 34.4875L180.511 71.1938L172.633 88.5129C171.89 88.6956 171.153 88.879 170.417 89.056L170.423 89.0568Z" fill="#7C5A98"/>
<path d="M165.425 90.3022L175.217 68.7781L191.918 32.0718L205.192 2.88845C205.663 3.28994 206.133 3.70424 206.603 4.11214L193.544 32.8083L176.842 69.5146L167.637 89.7391C166.893 89.9281 166.156 90.1116 165.42 90.295L165.425 90.3022Z" fill="#7C5A98"/>
<path d="M160.407 91.6101L171.552 67.1189L188.254 30.4126L202.005 0.189261C202.477 0.584352 202.954 0.986624 203.425 1.38812L189.879 31.1555L173.177 67.8619L162.634 91.0294C161.883 91.224 161.138 91.4195 160.406 91.6165L160.407 91.6101Z" fill="#7C5A98"/>
<path d="M155.331 93.0203L167.884 65.4386L184.586 28.7323L198.797 -2.50058C199.275 -2.10471 199.754 -1.71526 200.226 -1.32016L186.218 29.4697L169.516 66.176L157.599 92.373C156.832 92.5853 156.079 92.7992 155.338 93.0146L155.331 93.0203Z" fill="#7C5A98"/>
<path d="M150.165 94.6341L164.208 63.7705L180.91 27.0642L195.564 -5.14141C195.984 -4.80454 196.398 -4.46844 196.806 -4.13311C196.871 -4.07975 196.936 -4.02638 197.001 -3.97301L182.541 27.808L165.839 64.5143L152.477 93.8883C151.688 94.1303 150.923 94.3818 150.171 94.6349L150.165 94.6341Z" fill="#7C5A98"/>
<path d="M144.837 96.6132L160.538 62.1048L177.239 25.3985L192.301 -7.69976C192.794 -7.32155 193.275 -6.94488 193.755 -6.56822L178.871 26.1422L162.169 62.8485L147.231 95.6759C146.409 95.9789 145.611 96.2913 144.844 96.614L144.837 96.6132Z" fill="#7C5A98"/>
<path d="M139.112 99.4653L140.168 97.1376L156.869 60.4313L173.571 23.725L189.042 -10.285C189.521 -9.89555 190.007 -9.51171 190.481 -9.13583L175.19 24.4672L158.488 61.1735L141.787 97.8798L141.724 98.0216C140.784 98.4857 139.907 98.9641 139.106 99.4645L139.112 99.4653Z" fill="#7C5A98"/>
<path d="M132.714 103.789L136.498 95.4716L153.199 58.7653L169.901 22.059L185.832 -12.9606C186.303 -12.5528 186.774 -12.1513 187.246 -11.7562L171.527 22.7956L154.825 59.5018L138.124 96.2081L135.597 101.768C134.669 102.403 133.704 103.078 132.714 103.789Z" fill="#7C5A98"/>
<path d="M126.079 108.622L132.823 93.7963L149.524 57.09L166.226 20.3837L182.714 -15.8483C183.16 -15.4043 183.614 -14.9659 184.081 -14.5324L167.857 21.1274L151.156 57.8337L134.454 94.54L129.032 106.453C128.07 107.155 127.085 107.88 126.079 108.628L126.079 108.622Z" fill="#7C5A98"/>
<path d="M119.408 113.542L129.153 92.1295L145.854 55.4232L162.556 18.7169L179.257 -17.9894L179.762 -19.0976C180.174 -18.5863 180.602 -18.0926 181.043 -17.6038L180.883 -17.2529L164.182 19.4534L147.48 56.1597L130.779 92.866L122.361 111.367C121.391 112.081 120.407 112.806 119.408 113.536L119.408 113.542Z" fill="#7C5A98"/>
<path d="M112.839 118.261L125.483 90.4632L142.185 53.7569L158.886 17.0506L175.588 -19.6557L177.085 -22.9496C177.433 -22.3357 177.815 -21.7307 178.224 -21.1418L177.213 -18.9191L160.512 17.7872L143.81 54.4935L127.109 91.1998L115.733 116.202C114.779 116.885 113.819 117.568 112.833 118.254L112.839 118.261Z" fill="#7C5A98"/>
<path d="M106.407 122.646L121.808 88.7894L138.509 52.0831L155.211 15.3768L171.912 -21.3295L174.953 -28.0224C175.159 -27.2568 175.411 -26.4985 175.715 -25.7405C175.74 -25.6789 175.765 -25.611 175.796 -25.5488L173.537 -20.5866L156.836 16.1197L140.134 52.826L123.433 89.5323L109.228 120.76C108.294 121.393 107.353 122.026 106.406 122.652L106.407 122.646Z" fill="#7C5A98"/>
<path d="M100.186 126.587L101.444 123.823L118.145 87.1164L134.847 50.4101L151.548 13.7038L168.25 -23.0025L174.204 -36.0854C174.14 -34.7029 174.153 -33.311 174.277 -31.9251L169.881 -22.2588L153.18 14.4475L136.478 51.1538L119.777 87.8601L103.075 124.566L102.925 124.893C102.023 125.472 101.111 126.03 100.192 126.588L100.186 126.587Z" fill="#7C5A98"/>
<path d="M94.1802 130.036L97.7678 122.156L114.469 85.4493L131.171 48.743L147.872 12.0367L164.574 -24.6696L176.225 -50.2753C175.94 -48.088 175.51 -45.8338 175.122 -43.5421L166.199 -23.9266L149.497 12.7797L132.796 49.486L116.094 86.1923L99.3928 122.899L96.8068 128.575C95.9335 129.079 95.0561 129.564 94.173 130.042L94.1802 130.036Z" fill="#7C5A98"/>
<path d="M88.4276 132.95L94.0979 120.489L110.799 83.7824L127.501 47.0761L144.202 10.3698L160.904 -26.3365L176.871 -61.4363C176.884 -59.934 176.857 -58.43 176.786 -56.9314L162.53 -25.5999L145.828 11.1064L129.127 47.8127L112.425 84.519L95.7237 121.225L90.9471 131.729C90.1102 132.147 89.2677 132.558 88.4276 132.95Z" fill="#7C5A98"/>
<path d="M82.9156 135.327L90.429 118.815L107.13 82.1089L123.832 45.4026L140.533 8.69631L157.235 -28.01L173.936 -64.7163L176.32 -69.9557C176.469 -68.7747 176.585 -67.5912 176.669 -66.4116L175.561 -63.9733L158.86 -27.267L142.158 9.43926L125.457 46.1456L108.755 82.8519L92.054 119.558L85.328 134.347C84.5197 134.691 83.7129 135.021 82.9148 135.334L82.9156 135.327Z" fill="#7C5A98"/>
<path d="M77.6599 137.146L86.7599 117.142L103.461 80.4359L120.163 43.7296L136.864 7.02329L153.566 -29.683L170.267 -66.3893L175.071 -76.9546C175.302 -75.9715 175.508 -74.9915 175.693 -74.001L171.892 -65.6464L155.191 -28.9401L138.489 7.76624L121.788 44.4726L105.086 81.1788L88.3849 117.885L79.9587 136.405C79.1925 136.669 78.4286 136.914 77.6599 137.146Z" fill="#7C5A98"/>
<path d="M72.6449 138.428L83.0903 115.476L99.7918 78.7696L116.493 42.0633L133.195 5.35702L149.896 -31.3493L166.598 -68.0556L173.366 -82.9237C173.653 -82.0768 173.92 -81.2258 174.175 -80.3827L168.23 -67.3183L151.528 -30.612L134.827 6.09435L118.125 42.8006L101.424 79.5069L84.7224 116.213L74.8437 137.922C74.1068 138.105 73.3787 138.27 72.6521 138.422L72.6449 138.428Z" fill="#7C5A98"/>
<path d="M67.8783 139.161L79.4151 113.801L96.1165 77.0951L112.818 40.3888L129.519 3.68252L146.221 -33.0238L162.922 -69.7301L171.314 -88.1757C171.645 -87.4274 171.957 -86.6813 172.256 -85.9304L164.548 -68.9935L147.847 -32.2872L131.145 4.41907L114.444 41.1254L97.7423 77.8317L81.0408 114.538L69.9572 138.894C69.2625 138.998 68.5628 139.088 67.8727 139.154L67.8783 139.161Z" fill="#7C5A98"/>
<path d="M63.356 139.379L75.7516 112.135L92.4531 75.4291L109.155 38.7228L125.856 2.01649L142.558 -34.6898L159.259 -71.3961L169.024 -92.8649C169.151 -92.6286 169.284 -92.3851 169.405 -92.1495C169.632 -91.7192 169.852 -91.2832 170.066 -90.8479L160.878 -70.6603L144.177 -33.954L127.475 2.75228L110.774 39.4586L94.0724 76.1649L77.3709 112.871L65.3294 139.339C64.6631 139.369 64.0064 139.373 63.3504 139.372L63.356 139.379Z" fill="#7C5A98"/>
<path d="M59.0598 139.072L72.0761 110.462L88.7775 73.7553L105.479 37.049L122.181 0.34268L138.882 -36.3636L155.583 -73.0699L166.535 -97.1428C166.916 -96.5314 167.296 -95.9136 167.655 -95.2917L157.208 -72.327L140.507 -35.6207L123.805 1.08564L107.104 37.7919L90.4025 74.4982L73.701 111.205L60.9332 139.267C60.3083 139.224 59.6801 139.154 59.0534 139.071L59.0598 139.072Z" fill="#7C5A98"/>
<path d="M55 138.268L68.4067 108.795L85.1082 72.0889L101.81 35.3826L118.511 -1.32372L135.213 -38.03L151.92 -74.7355L163.915 -101.086C164.315 -100.524 164.713 -99.9494 165.098 -99.3764L153.552 -73.9918L136.85 -37.2855L120.149 -0.579219L103.447 36.1271L86.7459 72.8334L70.0444 109.54L56.7813 138.685C56.185 138.567 55.5981 138.425 55.0064 138.268L55 138.268Z" fill="#7C5A98"/>
<path d="M52.8326 137.601C52.2712 137.41 51.7057 137.198 51.1553 136.969L64.731 107.121L81.4325 70.4144L98.134 33.7081L114.835 -2.99815L131.537 -39.7045L148.238 -76.4108L161.139 -104.762C161.556 -104.237 161.972 -103.706 162.381 -103.169L149.87 -75.667L133.168 -38.9607L116.467 -2.25442L99.7654 34.4519L83.0639 71.1582L66.3624 107.864L52.8318 137.608L52.8326 137.601Z" fill="#7C5A98"/>
<path d="M49.1104 136.045C48.5775 135.779 48.0525 135.501 47.5299 135.203L61.0676 105.454L77.7691 68.7482L94.4706 32.0419L111.172 -4.66442L127.874 -41.3707L144.575 -78.077L158.263 -108.152C158.704 -107.663 159.132 -107.176 159.558 -106.676L146.206 -77.3333L129.505 -40.627L112.803 -3.92069L96.1019 32.7856L79.4005 69.4919L62.699 106.198L49.1168 136.046L49.1104 136.045Z" fill="#7C5A98"/>
<path d="M45.6011 134.022C45.1016 133.695 44.6051 133.342 44.1095 132.983L57.3916 103.788L74.0931 67.0817L90.7946 30.3754L107.496 -6.33086L124.198 -43.0372L140.899 -79.7435L155.269 -111.321C155.721 -110.863 156.165 -110.407 156.603 -109.944L142.524 -79.0005L125.823 -42.2942L109.121 -5.5879L92.4195 31.1184L75.7181 67.8247L59.0166 104.531L45.5939 134.028L45.6011 134.022Z" fill="#7C5A98"/>
<path d="M42.2957 131.547C41.8239 131.152 41.3608 130.739 40.8937 130.305L53.7226 102.114L70.4241 65.4074L87.1256 28.7011L103.833 -8.00439L120.535 -44.7107L137.236 -81.417L152.192 -114.281C152.654 -113.861 153.115 -113.429 153.569 -112.997L138.869 -80.6797L122.167 -43.9734L105.466 -7.26706L88.7577 29.4385L72.0562 66.1448L55.3548 102.851L42.3028 131.542L42.2957 131.547Z" fill="#7C5A98"/>
<path d="M39.1872 128.629C38.7424 128.172 38.3064 127.697 37.8726 127.203L50.0475 100.439L66.749 63.7329L83.4504 27.0266L100.152 -9.6797L116.853 -46.386L133.555 -83.0923L149.007 -117.053C149.485 -116.657 149.957 -116.262 150.427 -115.854L135.187 -82.355L118.486 -45.6487L101.784 -8.94238L85.0826 27.7639L68.3811 64.4702L51.6796 101.177L39.188 128.623L39.1872 128.629Z" fill="#7C5A98"/>
<path d="M36.2785 125.296C35.8606 124.777 35.4515 124.241 35.0448 123.684L46.3775 98.7742L63.079 62.0679L79.7805 25.3616L96.482 -11.3447L113.183 -48.051L129.885 -84.7573L145.753 -119.629C146.241 -119.258 146.728 -118.88 147.208 -118.504L131.516 -84.0136L114.815 -47.3073L98.1133 -10.601L81.4118 26.1053L64.7104 62.8116L48.0089 99.5179L36.2777 125.302L36.2785 125.296Z" fill="#7C5A98"/>
<path d="M33.5491 121.553C33.1582 120.973 32.7761 120.375 32.3956 119.763L42.7084 97.1004L59.4099 60.3941L76.1114 23.6878L92.8128 -13.0185L109.514 -49.7247L126.216 -86.431L142.42 -122.035C142.917 -121.689 143.414 -121.342 143.903 -120.984L127.841 -85.6881L111.139 -48.9818L94.4378 -12.2755L77.7363 24.4308L61.0348 61.1371L44.3333 97.8434L33.5427 121.553L33.5491 121.553Z" fill="#7C5A98"/>
<path d="M31.0059 117.404C30.6476 116.77 30.2917 116.116 29.9317 115.442L39.0389 95.4328L55.7468 58.7273L72.4483 22.021L89.1497 -14.6853L105.851 -51.3916L122.553 -88.0979L139.014 -124.275C139.528 -123.959 140.034 -123.631 140.54 -123.303L124.185 -87.3606L107.483 -50.6543L90.7819 -13.948L74.0804 22.7583L57.3789 59.4646L40.671 96.1702L31.013 117.399L31.0059 117.404Z" fill="#7C5A98"/>
<path d="M28.6393 112.868C28.296 112.164 27.9735 111.449 27.6517 110.728L35.3698 93.7595L52.0713 57.0532L68.7728 20.3469L85.4743 -16.3594L102.176 -53.0657L118.877 -89.772L135.526 -126.361C136.042 -126.065 136.557 -125.762 137.073 -125.459L120.503 -89.0355L103.802 -52.3292L87.1 -15.6229L70.3985 21.0834L53.6971 57.7897L36.9956 94.496L28.6401 112.862L28.6393 112.868Z" fill="#7C5A98"/>
<path d="M26.4501 107.945C26.133 107.185 25.8287 106.427 25.526 105.656L31.6939 92.0928L48.3954 55.3865L65.0969 18.6802L81.7984 -18.0262L98.4999 -54.7325L115.201 -91.4388L131.903 -128.145L131.966 -128.287C132.498 -128.014 133.023 -127.736 133.553 -127.451L133.535 -127.408L116.834 -90.7014L100.132 -53.9951L83.4305 -17.2888L66.7291 19.4175L50.0276 56.1238L33.3261 92.8301L26.4509 107.939L26.4501 107.945Z" fill="#7C5A98"/>
<path d="M24.3937 102.725C24.0925 101.941 23.7914 101.157 23.4966 100.374L28.0247 90.4189L44.7262 53.7126L61.4277 17.0063L78.1292 -19.7L94.8307 -56.4063L111.532 -93.1126L128.234 -129.819L128.348 -130.065C128.89 -129.817 129.43 -129.557 129.963 -129.297L129.865 -129.075L113.164 -92.3689L96.462 -55.6626L79.7605 -18.9563L63.0591 17.75L46.3576 54.4563L29.6561 91.1626L24.3937 102.725Z" fill="#7C5A98"/>
<path d="M22.3273 97.5361L21.3762 95.3092L24.3622 88.7461L41.0637 52.0398L57.7652 15.3335L74.4667 -21.3728L91.1681 -58.0791L107.87 -94.7854L124.571 -131.492L124.661 -131.695C125.211 -131.466 125.761 -131.23 126.303 -130.989L126.19 -130.75L109.488 -94.0432L92.7867 -57.3369L76.0852 -20.6306L59.3837 16.0757L42.6822 52.782L25.9808 89.4883L22.3209 97.5353L22.3273 97.5361Z" fill="#7C5A98"/>
<path d="M20.1833 92.5078C19.8749 91.7297 19.5666 90.9517 19.2759 90.1888L20.6855 87.0855L37.387 50.3792L54.0884 13.673L70.7899 -23.0333L87.4914 -59.7396L104.193 -96.4459L120.894 -133.152L120.897 -133.178C121.463 -132.966 122.022 -132.755 122.58 -132.538L122.52 -132.416L105.819 -95.7094L89.1171 -59.0031L72.4157 -22.2968L55.7142 14.4095L39.0127 51.1158L22.3112 87.8221L20.1833 92.5078Z" fill="#7C5A98"/>
<path d="M18.1541 87.2267C17.856 86.4174 17.5636 85.6153 17.2832 84.8212L33.718 48.7062L50.4195 11.9999L67.121 -24.7064L83.8224 -61.4127L100.524 -98.119L117.076 -134.506C117.645 -134.32 118.213 -134.127 118.78 -133.935L102.149 -97.3761L85.4474 -60.6698L68.7459 -23.9635L52.0444 12.7428L35.3429 49.4491L18.6415 86.1554L18.1533 87.2331L18.1541 87.2267Z" fill="#7C5A98"/>
<path d="M16.2376 81.7126C15.9593 80.8473 15.6923 79.9963 15.438 79.1469L30.0481 47.0398L46.7496 10.3335L63.4511 -26.3728L80.1525 -63.0791L96.854 -99.7854L113.186 -135.692C113.764 -135.531 114.341 -135.363 114.918 -135.189L98.4798 -99.0489L81.7783 -62.3426L65.0768 -25.6363L48.3753 11.07L31.6738 47.7763L16.2312 81.7119L16.2376 81.7126Z" fill="#7C5A98"/>
<path d="M14.5091 75.7729C14.2617 74.8139 14.0383 73.8707 13.8406 72.9307L26.3782 45.3731L43.0797 8.66682L59.7812 -28.0395L76.4826 -64.7458L93.1841 -101.452L109.224 -136.725C109.811 -136.582 110.398 -136.44 110.99 -136.283L94.8099 -100.716L78.1084 -64.0092L61.4069 -27.3029L44.7054 9.40337L28.0039 46.1097L14.5091 75.7729Z" fill="#7C5A98"/>
<path d="M13.1364 69.0442C12.9636 67.8993 12.8227 66.7583 12.7266 65.6227L22.7029 43.6988L39.4044 6.99247L56.1059 -29.7138L72.8074 -66.4201L89.5089 -103.126L105.185 -137.592C105.788 -137.48 106.39 -137.355 106.985 -137.224L91.1346 -102.39L74.4331 -65.6836L57.7316 -28.9773L41.0302 7.72901L24.3287 44.4353L13.13 69.0435L13.1364 69.0442Z" fill="#7C5A98"/>
<path d="M12.5512 60.5912C12.585 58.8671 12.7093 57.1476 12.9463 55.4092L19.0341 42.0243L35.7356 5.31799L52.4371 -31.3883L69.1385 -68.0946L85.84 -104.801L101.08 -138.3C101.693 -138.206 102.298 -138.113 102.909 -138.006L87.465 -104.058L70.7635 -67.3517L54.062 -30.6454L37.3605 6.06094L20.6591 42.7672L12.5512 60.5912Z" fill="#7C5A98"/>
<path d="M17.9376 39.014C19.2589 35.3543 20.2569 31.6814 20.9988 27.9774C20.9988 27.9774 20.9991 27.9752 20.9996 27.971L32.0657 3.65206L48.7671 -33.0542L65.4686 -69.7605L82.1701 -106.467L96.8881 -138.821C97.5106 -138.758 98.1325 -138.689 98.7591 -138.607L83.7951 -105.724L67.0936 -69.0176L50.3921 -32.3113L33.6906 4.39501L17.9369 39.0204L17.9376 39.014Z" fill="#7C5A98"/>
<path d="M22.2157 19.8809C22.4007 18.1427 22.5344 16.3984 22.6369 14.6437L28.397 1.97907L45.0984 -34.7272L61.7999 -71.4335L78.5014 -108.14L92.6154 -139.157C93.2482 -139.126 93.8867 -139.087 94.5237 -139.036L80.1264 -107.397L63.4249 -70.6906L46.7234 -33.9843L30.0219 2.72202L22.2157 19.8809Z" fill="#7C5A98"/>
<path d="M22.8114 8.8177C22.8272 7.40333 22.8181 5.97945 22.7898 4.55323L24.7209 0.311383L41.4224 -36.3949L58.1239 -73.1012L74.8254 -109.808L88.2464 -139.291C88.896 -139.29 89.5448 -139.283 90.1984 -139.262L76.4567 -109.064L59.7552 -72.3575L43.0538 -35.6512L26.3523 1.05511L22.8178 8.81848L22.8114 8.8177Z" fill="#7C5A98"/>
<path d="M22.6226 -0.495C22.5636 -1.77551 22.4918 -3.05759 22.4144 -4.34684L37.7531 -38.0676L54.4546 -74.7739L71.156 -111.48L83.7651 -139.198C84.4257 -139.235 85.0912 -139.258 85.7615 -139.268L72.781 -110.737L56.0795 -74.031L39.378 -37.3247L22.6765 -0.618393L22.6162 -0.495777L22.6226 -0.495Z" fill="#7C5A98"/>
<path d="M238.43 -12.7858C242.438 -25.295 241.585 -38.1264 232.744 -49.1286C224.839 -58.9671 212.033 -63.7769 199.492 -64.837C193.619 -65.3345 187.527 -65.071 182.136 -62.7009C177.299 -60.5733 173.34 -56.8953 168.99 -53.8947C160.377 -47.9513 149.991 -44.6227 139.527 -44.4489C131.193 -44.3105 122.937 -46.1159 114.606 -46.3027C106.274 -46.4896 97.3404 -44.7385 91.5079 -38.778C87.3182 -34.4978 85.2287 -28.4872 84.6708 -22.5061C83.3238 -8.0777 90.4281 6.24227 100.896 16.2501C111.365 26.2579 124.872 32.4656 138.585 37.0652C151.814 41.5062 166.017 44.6267 179.654 41.761C201.654 37.1379 230.232 12.8405 238.436 -12.7851L238.43 -12.7858Z" fill="#54098F"/>
<g clip-path="url(#clip2_2876_625)">
<path d="M168.03 123.314L167.618 122.068C167.514 121.757 167.174 121.592 166.866 121.702L164.225 122.653C163.609 121.614 162.81 120.678 161.841 119.907L163.094 117.332C163.235 117.044 163.113 116.691 162.825 116.551L159.874 115.115C159.585 114.975 159.233 115.096 159.093 115.385L157.84 117.959C156.635 117.673 155.405 117.622 154.208 117.778L153.326 115.113C153.223 114.802 152.883 114.637 152.575 114.747L149.433 115.875C149.132 115.983 148.974 116.308 149.078 116.606L149.97 119.302C148.934 119.951 148 120.783 147.217 121.777L144.719 120.562C144.431 120.421 144.079 120.543 143.938 120.831L142.452 123.885C142.312 124.174 142.433 124.526 142.722 124.666L145.219 125.882C144.913 127.115 144.841 128.36 144.97 129.576L142.298 130.537C141.997 130.645 141.839 130.969 141.942 131.268L142.993 134.436C143.096 134.747 143.436 134.912 143.745 134.802L146.386 133.851C147.002 134.89 147.801 135.826 148.769 136.597L147.516 139.172C147.376 139.46 147.498 139.813 147.786 139.953L150.737 141.389C151.025 141.529 151.377 141.408 151.518 141.119L152.771 138.544C153.975 138.831 155.205 138.882 156.403 138.726L157.284 141.391C157.387 141.702 157.727 141.867 158.036 141.756L161.177 140.629C161.478 140.521 161.636 140.196 161.533 139.898L160.641 137.202C161.676 136.553 162.61 135.721 163.394 134.727L165.891 135.942C166.18 136.082 166.532 135.961 166.672 135.672L168.158 132.619C168.299 132.33 168.177 131.978 167.889 131.838L165.391 130.622C165.698 129.389 165.769 128.144 165.641 126.928L168.313 125.967C168.614 125.859 168.772 125.534 168.668 125.236L168.443 124.547" stroke="#C1CD06" stroke-width="1.71822" stroke-miterlimit="10"/>
<path d="M157.985 122.737C160.952 124.18 162.161 127.82 160.68 130.864C159.199 133.907 155.591 135.209 152.619 133.763C149.648 132.317 148.443 128.679 149.927 125.631C151.037 123.349 153.347 122.046 155.679 122.149" stroke="#C1CD06" stroke-width="1.71822" stroke-miterlimit="10"/>
</g>
<g clip-path="url(#clip3_2876_625)">
<path d="M185.645 117.437L186.608 117.111C186.848 117.03 186.973 116.767 186.886 116.527L186.135 114.489C186.936 114.006 187.651 113.381 188.244 112.628L190.243 113.583C190.466 113.689 190.737 113.596 190.845 113.37L191.939 111.079C192.045 110.855 191.952 110.585 191.725 110.477L189.727 109.522C189.94 108.588 189.973 107.638 189.848 106.712L191.905 106.015C192.145 105.935 192.271 105.672 192.184 105.432L191.292 103.011C191.207 102.782 190.955 102.662 190.723 102.739L188.644 103.446C188.137 102.652 187.489 101.932 186.712 101.332L187.635 99.398C187.742 99.1744 187.649 98.9038 187.422 98.7957L185.053 97.6643C184.829 97.5575 184.559 97.6508 184.45 97.8773L183.526 99.8138C182.572 99.5842 181.605 99.533 180.667 99.6413L179.91 97.5796C179.824 97.3511 179.572 97.2308 179.341 97.3079L176.897 98.1368C176.657 98.217 176.531 98.4803 176.619 98.72L177.37 100.758C176.569 101.241 175.854 101.866 175.261 102.619L173.262 101.665C173.039 101.558 172.768 101.651 172.66 101.878L171.566 104.168C171.46 104.392 171.553 104.662 171.779 104.771L173.778 105.725C173.565 106.659 173.532 107.61 173.657 108.535L171.6 109.232C171.36 109.312 171.234 109.575 171.321 109.815L172.213 112.237C172.298 112.465 172.55 112.585 172.782 112.508L174.861 111.801C175.368 112.596 176.016 113.315 176.793 113.916L175.868 115.852C175.761 116.076 175.855 116.346 176.081 116.455L178.451 117.586C178.674 117.693 178.945 117.599 179.053 117.373L179.978 115.436C180.932 115.666 181.898 115.717 182.837 115.609L183.594 117.671C183.679 117.899 183.931 118.019 184.163 117.942L184.694 117.761" stroke="#7C5A98" stroke-width="0.941186" stroke-miterlimit="10"/>
<path d="M186.03 109.669C184.931 111.971 182.125 112.926 179.761 111.797C177.397 110.668 176.374 107.889 177.475 105.584C178.575 103.28 181.38 102.328 183.744 103.456C185.516 104.303 186.535 106.079 186.468 107.886" stroke="#7C5A98" stroke-width="0.941186" stroke-miterlimit="10"/>
</g>
</g>
<g clip-path="url(#clip4_2876_625)">
<path d="M238.889 119.87C240.287 114.452 237.028 108.926 231.61 107.528C226.192 106.129 220.666 109.388 219.268 114.806C217.869 120.224 221.128 125.75 226.546 127.149C231.964 128.547 237.49 125.288 238.889 119.87Z" stroke="#7C5A98" stroke-width="1.74682" stroke-miterlimit="10"/>
<path d="M241.809 93.9581C249.274 92.0716 255.33 92.7158 258.003 96.3204C263.01 103.069 254.26 117.63 238.46 128.85C230.418 134.554 222.109 138.289 215.216 139.701" stroke="#7C5A98" stroke-width="1.74682" stroke-miterlimit="10"/>
<path d="M205.657 139.913C203.548 139.4 201.876 138.422 200.779 136.939C197.7 132.791 199.827 125.694 205.581 118.236" stroke="#7C5A98" stroke-width="1.74682" stroke-miterlimit="10"/>
<path d="M218.896 136.556C218.586 135.404 217.895 134.363 216.895 133.61C216.873 133.595 216.852 133.579 216.831 133.563C215.084 132.24 212.729 132.05 210.843 133.166L208.507 134.544L204.069 127.018L206.405 125.64C208.296 124.525 209.269 122.378 208.955 120.209C208.952 120.183 208.949 120.156 208.945 120.13C208.645 117.97 207.109 116.19 204.998 115.645L202.361 114.965L204.545 106.504L207.172 107.182C209.283 107.726 211.49 106.908 212.797 105.167C212.812 105.146 212.828 105.124 212.844 105.103C214.167 103.357 214.357 101.002 213.241 99.1159L211.863 96.7798L219.389 92.3417L220.767 94.6777C221.882 96.5682 224.029 97.5412 226.198 97.228C226.224 97.2246 226.251 97.2212 226.277 97.2178C228.437 96.9177 230.217 95.3813 230.762 93.2708L231.44 90.6435L239.901 92.8272L239.223 95.4545C238.678 97.565 239.497 99.7721 241.237 101.079C241.259 101.095 241.28 101.11 241.301 101.126C243.048 102.45 245.403 102.639 247.289 101.523L249.625 100.145L254.063 107.671L251.727 109.049C249.836 110.164 248.863 112.312 249.177 114.48C249.18 114.506 249.183 114.533 249.187 114.559C249.258 115.073 249.402 115.564 249.606 116.02" stroke="#7C5A98" stroke-width="1.74682" stroke-miterlimit="10"/>
<path d="M252.726 118.903C252.866 118.955 253.013 118.998 253.161 119.036L255.789 119.714L253.605 128.175L250.978 127.497C248.867 126.952 246.66 127.771 245.353 129.512C245.338 129.533 245.322 129.554 245.306 129.576C243.983 131.322 243.793 133.677 244.909 135.563L246.287 137.899L238.761 142.337L237.383 140.001C236.269 138.111 234.121 137.138 231.952 137.451C231.926 137.454 231.899 137.458 231.873 137.461C229.713 137.761 227.933 139.298 227.388 141.408L226.71 144.035L218.249 141.852L218.446 141.091" stroke="#7C5A98" stroke-width="1.74682" stroke-miterlimit="10"/>
</g>
</g>
<defs>
<clipPath id="clip0_2876_625">
<rect width="261" height="130" fill="white"/>
</clipPath>
<clipPath id="clip1_2876_625">
<rect width="294.251" height="318.008" fill="white" transform="translate(13.3166 -142) rotate(6.92034)"/>
</clipPath>
<clipPath id="clip2_2876_625">
<rect width="28.6485" height="29.3472" fill="white" transform="translate(148.842 108.792) rotate(25.9505)"/>
</clipPath>
<clipPath id="clip3_2876_625">
<rect width="21.7634" height="22.303" fill="white" transform="translate(196.504 102.609) rotate(115.523)"/>
</clipPath>
<clipPath id="clip4_2876_625">
<rect width="60.9454" height="54.4016" fill="white" transform="translate(195 140.522) rotate(-75.5284)"/>
</clipPath>
</defs>
</svg>
