<svg width="223" height="160" viewBox="0 0 223 160" fill="none" xmlns="http://www.w3.org/2000/svg">
<g clip-path="url(#clip0_2876_908)">
<path d="M138.22 141.202C134.717 141.668 131.257 142.506 127.877 143.763C104.845 152.305 76.8761 169.669 64.7134 191.57C60.9855 198.283 58.9701 205.79 59.149 213.487C59.5524 230.919 62.9836 246.565 80.0137 254.854C91.0489 260.225 102.574 258.366 113.932 261.506C135.478 267.469 147.675 292.364 172.242 289.93C190.252 288.144 203.951 272.947 212.205 257.91C220.534 242.733 224.175 224.676 221.431 207.514C220.766 203.353 219.739 199.25 218.347 195.271C207.895 165.4 171.103 136.834 138.228 141.207L138.22 141.202Z" fill="#540096"/>
<path d="M212.595 116.086C212.633 115.364 212.683 114.648 212.728 113.929C196.019 118.857 99.433 147.302 54.447 160.557C55.03 161.096 55.6159 161.631 56.1992 162.156C58.388 161.514 210.406 116.728 212.595 116.086Z" fill="#7C5A98"/>
<path d="M218.272 185.912C218.553 185.144 218.756 184.376 218.907 183.615C176.729 196.037 191.34 191.735 150.729 203.698C152.441 203.931 154.148 204.134 155.858 204.304C191.274 193.872 176.998 198.07 218.269 185.918L218.272 185.912Z" fill="#7C5A98"/>
<path d="M219.233 180.867C219.269 180.164 219.263 179.461 219.224 178.754C173.998 192.078 191.052 187.051 140.389 201.981C141.853 202.272 143.314 202.541 144.784 202.794C148.228 201.78 216.23 181.75 219.233 180.867Z" fill="#7C5A98"/>
<path d="M218.967 176.181C218.871 175.514 218.754 174.85 218.623 174.171C201.853 179.11 148.407 194.85 131.247 199.904C131.445 199.953 134.983 200.838 135.188 200.862C135.603 200.738 218.543 176.307 218.967 176.181Z" fill="#7C5A98"/>
<path d="M218.082 171.67C217.934 171.024 217.772 170.364 217.604 169.701C185.061 179.285 163.509 185.636 122.928 197.594C124.125 197.954 125.324 198.309 126.532 198.647C138.656 195.074 123.805 199.445 218.088 171.673L218.082 171.67Z" fill="#7C5A98"/>
<path d="M217 167.219C216.838 166.572 216.678 165.907 216.525 165.244C182.679 175.211 148.679 185.23 115.215 195.083C116.328 195.469 117.433 195.844 118.554 196.213C199.179 172.462 151.954 186.374 216.994 167.216L217 167.219Z" fill="#7C5A98"/>
<path d="M215.987 162.751C215.847 162.089 215.71 161.421 215.587 160.754C138.785 183.382 184.925 169.786 108.026 192.44C109.066 192.843 110.109 193.241 111.158 193.628C180.404 173.221 176.609 174.344 215.981 162.749L215.987 162.751Z" fill="#7C5A98"/>
<path d="M215.117 158.243C214.994 157.575 214.879 156.905 214.767 156.229C168.683 169.799 156.731 173.323 101.247 189.672C102.231 190.088 103.208 190.507 104.204 190.915C153.579 176.369 176.608 169.581 215.117 158.243Z" fill="#7C5A98"/>
<path d="M214.363 153.697C214.262 153.027 214.156 152.355 214.066 151.677C110.068 182.307 148.58 170.964 94.8437 186.788C95.7697 187.222 96.7042 187.654 97.6469 188.083C182.488 163.089 134.859 177.116 214.363 153.697Z" fill="#7C5A98"/>
<path d="M213.721 149.112C213.631 148.434 213.553 147.762 213.474 147.076C210.17 148.052 132.844 170.824 129.224 171.893L88.7611 183.814C89.6424 184.267 90.524 184.705 91.4141 185.141C128.829 174.121 130.611 173.6 213.721 149.112Z" fill="#7C5A98"/>
<path d="M213.193 144.51C213.129 143.824 213.064 143.139 213 142.453C212.857 142.497 83.1084 180.716 82.969 180.755C83.8085 181.22 84.6483 181.671 85.502 182.123C162.887 159.334 106.521 175.931 213.199 144.513L213.193 144.51Z" fill="#7C5A98"/>
<path d="M212.788 139.864C212.734 139.17 212.692 138.482 212.65 137.794C199.698 141.608 90.4158 173.792 77.4661 177.614C78.2612 178.084 79.0617 178.556 79.8735 179.021L212.79 139.872L212.788 139.864Z" fill="#7C5A98"/>
<path d="M212.5 135.179C212.469 134.483 212.438 133.787 212.415 133.089C212.248 133.14 72.4212 174.334 72.2567 174.38C73.0424 174.894 73.8011 175.379 74.5193 175.823C98.8877 168.636 154.224 152.342 212.503 135.173L212.5 135.179Z" fill="#7C5A98"/>
<path d="M212.335 130.461C212.315 129.757 212.306 129.059 212.3 128.355C210.117 128.986 87.6151 165.08 67.3628 171.04C68.0903 171.558 68.8017 172.054 69.4941 172.532C102.735 162.742 108.903 160.921 212.335 130.461Z" fill="#7C5A98"/>
<path d="M212.298 125.7C212.295 124.991 212.303 124.287 212.319 123.581C211.92 123.7 87.0678 160.476 62.7859 167.631C63.4581 168.148 64.1247 168.662 64.7808 169.156C153.805 142.929 212.292 125.697 212.292 125.697L212.298 125.7Z" fill="#7C5A98"/>
<path d="M212.372 120.913C212.394 120.196 212.419 119.488 212.455 118.771C207.625 120.194 63.6692 162.6 58.4743 164.131C59.0962 164.663 59.7239 165.184 60.3436 165.694C99.3121 154.214 199.888 124.596 212.372 120.913Z" fill="#7C5A98"/>
<path d="M212.937 111.216C213.001 110.487 213.068 109.765 213.137 109.039C210.223 109.899 53.8138 155.969 50.7186 156.881C51.2459 157.433 51.7899 157.98 52.3343 158.514C122.776 137.765 116.368 139.656 212.937 111.216Z" fill="#7C5A98"/>
<path d="M213.424 106.299C213.507 105.572 213.593 104.84 213.685 104.111C183.511 113.003 89.365 140.728 47.3319 153.115C47.809 153.683 48.2945 154.248 48.7886 154.796C71.6009 148.075 189.856 113.243 213.424 106.299Z" fill="#7C5A98"/>
<path d="M214.053 101.35C214.156 100.613 214.264 99.8784 214.373 99.1442C209.819 100.482 55.1667 146.039 44.3196 149.236C44.7326 149.819 45.1624 150.397 45.6005 150.972C91.5096 137.442 204.28 104.226 214.048 101.347L214.053 101.35Z" fill="#7C5A98"/>
<path d="M214.834 96.3554C214.953 95.6132 215.087 94.8713 215.226 94.1322C132.278 118.566 113.15 124.189 41.7623 145.229C42.103 145.829 42.4603 146.425 42.837 147.023C43.0044 146.972 214.666 96.4069 214.831 96.3609L214.834 96.3554Z" fill="#7C5A98"/>
<path d="M215.765 91.3121C215.918 90.5596 216.068 89.8125 216.235 89.0603C159.044 105.908 215.22 89.3636 39.7349 141.05C39.9864 141.674 40.2601 142.295 40.5585 142.922C111.162 122.133 70.3754 134.136 215.765 91.3121Z" fill="#7C5A98"/>
<path d="M216.868 86.2244C217.04 85.4612 217.224 84.7038 217.413 83.9494C184.13 93.752 177.207 95.7966 38.3812 136.687C38.5184 137.341 38.6888 137.998 38.8897 138.651C62.8871 131.584 191.967 93.5563 216.873 86.2273L216.868 86.2244Z" fill="#7C5A98"/>
<path d="M218.142 81.0763C218.142 81.0763 218.154 81.0544 218.154 81.0406C218.351 80.2974 218.551 79.5487 218.749 78.7916C133.211 103.977 100.767 113.544 37.9213 132.05C37.9024 132.747 37.9334 133.443 37.9921 134.14C80.1421 121.731 183.844 91.1823 218.142 81.0763Z" fill="#7C5A98"/>
<path d="M219.476 75.9202C219.665 75.1657 219.843 74.4054 220.021 73.6452C179.564 85.5559 78.3574 115.373 38.7169 127.05C38.4779 127.806 38.2971 128.558 38.1743 129.32C66.3376 121.025 191.29 84.2176 219.479 75.9147L219.476 75.9202Z" fill="#7C5A98"/>
<path d="M220.641 70.8067C220.791 70.0597 220.933 69.3152 221.061 68.5704C220.356 68.7784 45.5929 120.252 41.8006 121.369C41.1062 122.178 40.4932 123.059 39.9697 124.022C59.6449 118.225 200.202 76.8292 220.641 70.8067Z" fill="#7C5A98"/>
<path d="M221.492 65.7866C221.586 65.0521 221.67 64.3256 221.731 63.6014C209.333 67.2534 115.895 94.7792 104.909 98.0151C104.598 98.271 96.1639 102.164 87.9672 105.118C101.725 101.066 208.737 69.5438 221.492 65.7866Z" fill="#7C5A98"/>
<path d="M67.229 111.227C62.7911 112.241 59.057 112.877 54.9168 114.069C52.1705 114.865 49.5114 115.839 47.1495 117.139C66.5152 111.438 62.9321 112.49 67.229 111.227Z" fill="#7C5A98"/>
<path d="M221.881 60.9073C221.9 60.196 221.902 59.4899 221.88 58.7914C158.323 77.5162 191.957 67.6054 123.481 87.7758C121.177 89.2181 118.852 90.6073 116.489 91.9486C205.309 65.7895 192.772 69.4797 221.881 60.9073Z" fill="#7C5A98"/>
<path d="M221.69 56.1988C221.609 55.5184 221.503 54.8457 221.366 54.1779C162.156 71.6238 168.201 69.8359 135.744 79.4027C134.095 80.6248 132.434 81.8188 130.745 82.9846C188.265 66.0452 175.904 69.6814 221.685 56.1959L221.69 56.1988Z" fill="#7C5A98"/>
<path d="M220.722 51.7146C220.51 51.07 220.27 50.4385 219.99 49.8145C209.403 52.9322 156.704 68.4514 145.307 71.8135C143.988 72.9296 142.659 74.026 141.31 75.1055C143.49 74.4662 218.352 52.4077 220.722 51.7146Z" fill="#7C5A98"/>
<path d="M218.759 47.5222C218.376 46.9207 217.955 46.3405 217.494 45.7815C179.349 57.0172 154.133 64.4416 153.268 64.6985C152.147 65.7445 151.021 66.7875 149.876 67.8134C198.359 53.5235 182.897 58.0823 218.759 47.5222Z" fill="#7C5A98"/>
<path d="M215.49 43.7189C214.855 43.1587 214.177 42.6528 213.47 42.2017C183.731 50.959 195.141 47.5972 160.754 57.726C159.628 58.7552 158.519 59.7792 157.407 60.8225C159.977 60.0677 212.983 44.4587 215.49 43.7189Z" fill="#7C5A98"/>
<path d="M210.236 40.5041C209.158 40.0389 208.037 39.6696 206.897 39.3747C182.387 46.591 191.008 44.051 169.309 50.4432C167.924 51.5107 166.572 52.6233 165.236 53.7584C165.442 53.6995 182.106 48.789 210.23 40.5012L210.236 40.5041Z" fill="#7C5A98"/>
<path d="M200.93 38.4723C196.794 38.266 192.662 38.8602 188.658 40.0334C184.186 41.3509 179.871 43.3893 175.884 45.8535C188.992 41.9964 183.449 43.6298 200.935 38.4752L200.93 38.4723Z" fill="#7C5A98"/>
<path d="M162.004 153.799C154.428 165.549 143.949 173.923 131.215 181.796C118.276 189.8 108.707 199.748 98.2105 210.625C78.1316 231.421 51.4666 249.789 25.2685 235.252C3.4341 223.13 -11.1032 189.321 -0.48328 161.416C3.19088 151.765 9.61029 144.815 17.1771 139.42C23.0339 135.247 28.9999 132.975 31.3849 125.77C36.3498 110.754 29.6033 93.9335 34.489 78.3635C38.7516 64.7714 48.2501 57.9884 62.663 62.0901C82.5213 67.7435 96.8687 86.6016 116.93 91.4125C134.962 95.733 162.771 96.9764 170.463 117.581C173.207 124.937 171.506 133.216 168.692 140.541C166.818 145.426 164.577 149.806 162.004 153.799Z" fill="#54098F"/>
<g clip-path="url(#clip1_2876_908)">
<path d="M124.197 37.8041C127.878 38.4479 131.174 40.2183 133.707 42.7515C136.926 45.9704 138.921 50.421 138.921 55.3334C138.921 60.2457 136.926 64.6963 133.707 67.9152C130.488 71.1342 126.038 73.1285 121.125 73.1285C116.213 73.1285 111.763 71.1342 108.544 67.9152C105.325 64.6963 103.33 60.2457 103.33 55.3334C103.33 51.5266 104.527 48.0068 106.556 45.1097" stroke="#14BF96" stroke-width="2.09931" stroke-miterlimit="10"/>
<path d="M156.583 58.419C155.841 67.0192 152.048 74.7376 146.289 80.5038C139.851 86.9416 130.95 90.9303 121.118 90.9303C111.287 90.9303 102.393 86.9486 95.9476 80.5038C89.5097 74.0659 85.5211 65.1648 85.5211 55.333C85.5211 45.5012 89.5028 36.6072 95.9476 30.1623C102.386 23.7244 111.287 19.7357 121.118 19.7357C129.838 19.7357 137.822 22.8707 144.015 28.077" stroke="#14BF96" stroke-width="2.09931" stroke-miterlimit="10"/>
<path d="M81.2525 90.8473C72.8412 81.4144 67.7329 68.9725 67.7329 55.334C67.7329 40.5898 73.7089 27.2452 83.3728 17.5814C93.0296 7.92456 106.381 1.94852 121.118 1.94852C135.856 1.94852 149.207 7.92456 158.871 17.5884C168.535 27.2522 174.511 40.5968 174.511 55.341C174.511 70.0852 168.535 83.4298 158.871 93.0936C149.886 102.079 137.724 107.873 124.204 108.642" stroke="#14BF96" stroke-width="2.09931" stroke-miterlimit="10"/>
<path d="M110.461 12.7041C120.377 10.2199 131.195 11.1646 141.027 16.1539C151.845 21.6471 159.41 31.0101 162.902 41.7025C166.386 52.395 165.799 64.4171 160.305 75.2356C154.812 86.054 145.449 93.6185 134.757 97.1104C124.064 100.595 112.042 100.007 101.224 94.5142C90.4054 89.021 82.8408 79.6581 79.349 68.9656C76.158 59.1898 76.382 48.3014 80.6436 38.2317" stroke="#14BF96" stroke-width="2.09931" stroke-miterlimit="10"/>
<path d="M122.854 82.8968C116.437 83.3097 110.286 81.4553 105.29 77.9564C99.5026 73.9048 95.262 67.6418 93.9324 60.1333C92.6099 52.6247 94.4503 45.2912 98.5089 39.5041C102.561 33.717 108.824 29.4763 116.332 28.1468C123.841 26.8242 131.174 28.6716 136.961 32.7233C142.748 36.7749 146.989 43.0379 148.319 50.5464C149.452 56.9633 148.27 63.2473 145.373 68.5515" stroke="#14BF96" stroke-width="2.09931" stroke-miterlimit="10"/>
<path d="M116.766 64.2343C115.345 63.5416 114.128 62.5199 113.197 61.2813C111.679 59.252 110.93 56.6488 111.315 53.9407C111.7 51.2326 113.148 48.9374 115.177 47.4189C117.207 45.9004 119.81 45.1516 122.518 45.5365C125.226 45.9213 127.521 47.3699 129.04 49.3992C129.992 50.6658 130.642 52.1633 130.894 53.7658" stroke="#14BF96" stroke-width="2.09931" stroke-miterlimit="10"/>
<path d="M107.494 16.6509C109.198 16.6509 110.58 15.2692 110.58 13.5649C110.58 11.8605 109.198 10.4789 107.494 10.4789C105.789 10.4789 104.408 11.8605 104.408 13.5649C104.408 15.2692 105.789 16.6509 107.494 16.6509Z" stroke="#14BF96" stroke-width="2.09931" stroke-miterlimit="10"/>
<path d="M85.0382 35.432C85.0382 37.1394 83.6526 38.518 81.9522 38.518C80.2518 38.518 78.8662 37.1324 78.8662 35.432C78.8662 33.7315 80.2518 32.346 81.9522 32.346C83.6526 32.346 85.0382 33.7315 85.0382 35.432Z" stroke="#14BF96" stroke-width="2.09931" stroke-miterlimit="10"/>
<path d="M86.4659 93.0931C86.4659 94.8005 85.0804 96.1791 83.3799 96.1791C81.6795 96.1791 80.2939 94.7935 80.2939 93.0931C80.2939 91.3927 81.6795 90.0071 83.3799 90.0071C85.0804 90.0071 86.4659 91.3927 86.4659 93.0931Z" stroke="#14BF96" stroke-width="2.09931" stroke-miterlimit="10"/>
<path d="M121.118 111.812C122.823 111.812 124.204 110.43 124.204 108.726C124.204 107.022 122.823 105.64 121.118 105.64C119.414 105.64 118.032 107.022 118.032 108.726C118.032 110.43 119.414 111.812 121.118 111.812Z" stroke="#14BF96" stroke-width="2.09931" stroke-miterlimit="10"/>
<path d="M159.802 55.3335C159.802 57.0409 158.416 58.4195 156.716 58.4195C155.015 58.4195 153.63 57.0339 153.63 55.3335C153.63 53.6331 155.015 52.2475 156.716 52.2475C158.416 52.2475 159.802 53.6331 159.802 55.3335Z" stroke="#14BF96" stroke-width="2.09931" stroke-miterlimit="10"/>
<path d="M149.382 30.1684C149.382 31.8758 147.997 33.2543 146.296 33.2543C144.596 33.2543 143.21 31.8688 143.21 30.1684C143.21 28.4679 144.596 27.0824 146.296 27.0824C147.997 27.0824 149.382 28.4679 149.382 30.1684Z" stroke="#14BF96" stroke-width="2.09931" stroke-miterlimit="10"/>
<path d="M124.211 37.5384C124.211 39.2459 122.826 40.6244 121.125 40.6244C119.425 40.6244 118.039 39.2389 118.039 37.5384C118.039 35.838 119.425 34.4524 121.125 34.4524C122.826 34.4524 124.211 35.838 124.211 37.5384Z" stroke="#14BF96" stroke-width="2.09931" stroke-miterlimit="10"/>
<path d="M108.544 45.8374C110.248 45.8374 111.629 44.4558 111.629 42.7514C111.629 41.0471 110.248 39.6654 108.544 39.6654C106.839 39.6654 105.458 41.0471 105.458 42.7514C105.458 44.4558 106.839 45.8374 108.544 45.8374Z" stroke="#14BF96" stroke-width="2.09931" stroke-miterlimit="10"/>
<path d="M122.812 65.136C122.812 66.8435 121.426 68.222 119.726 68.222C118.025 68.222 116.64 66.8365 116.64 65.136C116.64 63.4356 118.025 62.05 119.726 62.05C121.426 62.05 122.812 63.4356 122.812 65.136Z" stroke="#14BF96" stroke-width="2.09931" stroke-miterlimit="10"/>
<path d="M130.901 59.1186C132.606 59.1186 133.987 57.737 133.987 56.0326C133.987 54.3283 132.606 52.9466 130.901 52.9466C129.197 52.9466 127.815 54.3283 127.815 56.0326C127.815 57.737 129.197 59.1186 130.901 59.1186Z" stroke="#14BF96" stroke-width="2.09931" stroke-miterlimit="10"/>
<path d="M146.828 71.1761C146.828 72.8836 145.442 74.2621 143.742 74.2621C142.042 74.2621 140.656 72.8766 140.656 71.1761C140.656 69.4757 142.042 68.0901 143.742 68.0901C145.442 68.0901 146.828 69.4757 146.828 71.1761Z" stroke="#14BF96" stroke-width="2.09931" stroke-miterlimit="10"/>
<path d="M129.005 82.5267C129.005 84.2341 127.619 85.6127 125.919 85.6127C124.219 85.6127 122.833 84.2271 122.833 82.5267C122.833 80.8263 124.219 79.4407 125.919 79.4407C127.619 79.4407 129.005 80.8263 129.005 82.5267Z" stroke="#14BF96" stroke-width="2.09931" stroke-miterlimit="10"/>
</g>
</g>
<defs>
<clipPath id="clip0_2876_908">
<rect width="223" height="160" fill="white"/>
</clipPath>
<clipPath id="clip1_2876_908">
<rect width="108.877" height="111.963" fill="white" transform="translate(66.6833 0.897743)"/>
</clipPath>
</defs>
</svg>
