<svg xmlns="http://www.w3.org/2000/svg" width="911" height="314" viewBox="0 0 911 314" version="1.1"><title>DH</title><desc>Created with Sketch.</desc><g stroke="none" stroke-width="1" fill="none" fill-rule="evenodd"><g transform="translate(2.000000, 2.000000)"><g transform="translate(1.000000, 0.000000)"><g fill="#FFFFFF"><path d="M155.5 125.6C155.5 176.5 128.1 202 73.3 202L-0.3 202 -0.3 0.3 38 0.3 73.3 0.3C81.3 0.3 88.6 1.6 95.1 3.7L96 6 152 62C152 62 152 62 154.7 63 155.2 67.6 155.5 71.6 155.5 76.7L155.5 125.6 155.5 125.6ZM118.8 73.2C118.8 46.9 103.9 33.7 73.9 33.7L35.8 33.7 35.8 166.6 73.9 166.6C103.9 166.6 118.8 153.5 118.8 127.2L118.8 73.2 118.8 73.2Z"/></g><g fill="#000000"><path d="M155.5 125.6C155.5 176.5 128.1 202 73.3 202L-0.3 202 -0.3 0.3 38 0.3 73.3 0.3C81.3 0.3 88.6 1.6 95.1 3.7L96 6 152 62C152 62 152 62 154.7 63 155.2 67.6 155.5 71.6 155.5 76.7L155.5 125.6 155.5 125.6ZM118.8 73.2C118.8 46.9 103.9 33.7 73.9 33.7L35.8 33.7 35.8 166.6 73.9 166.6C103.9 166.6 118.8 153.5 118.8 127.2L118.8 73.2 118.8 73.2Z"/></g><path d="M95 3.7L95 63 154.7 63 95 3.7 95 3.7Z" fill="#32A4FA"/></g><path d="M207.2 140.1C207.2 135.1 207.7 130.2 208.6 125.4 209.6 120.6 211.2 116.4 213.6 112.7 215.9 109 219 106 222.8 103.7 226.6 101.4 231.4 100.2 237.2 100.2 243 100.2 247.8 101.4 251.7 103.7 255.6 106 258.8 109 261.1 112.7 263.4 116.4 265 120.6 266 125.4 267 130.2 267.4 135.1 267.4 140.1 267.4 145 267 149.9 266 154.6 265 159.3 263.4 163.6 261.1 167.3 258.8 171.1 255.6 174.1 251.7 176.3 247.8 178.6 243 179.7 237.2 179.7 231.4 179.7 226.6 178.6 222.8 176.3 219 174.1 215.9 171.1 213.6 167.3 211.2 163.6 209.6 159.3 208.6 154.6 207.7 149.9 207.2 145 207.2 140.1L207.2 140.1 207.2 140.1ZM173.1 140.1C173.1 150 174.6 159 177.7 167 180.7 175 185 181.8 190.6 187.5 196.2 193.2 203 197.5 210.8 200.6 218.6 203.6 227.4 205.1 237.2 205.1 247 205.1 255.8 203.6 263.7 200.6 271.6 197.5 278.4 193.2 284 187.5 289.6 181.8 293.9 175 297 167 300 159 301.5 150 301.5 140.1 301.5 130.2 300 121.2 297 113.1 293.9 105 289.6 98.1 284 92.4 278.4 86.8 271.6 82.4 263.7 79.2 255.8 76.1 247 74.6 237.2 74.6 227.4 74.6 218.6 76.1 210.8 79.2 203 82.4 196.2 86.8 190.6 92.4 185 98.1 180.7 105 177.7 113.1 174.6 121.2 173.1 130.2 173.1 140.1L173.1 140.1 173.1 140.1ZM408.1 121.6L441.4 121.6C441 113.6 439 106.7 435.7 100.8 432.3 95 428 90.1 422.6 86.2 417.2 82.3 411.2 79.4 404.4 77.4 397.6 75.5 390.5 74.6 383.1 74.6 373 74.6 364.1 76.2 356.2 79.6 348.4 83 341.8 87.6 336.3 93.6 330.9 99.6 326.8 106.8 324 115 321.2 123.2 319.8 132.2 319.8 141.8 319.8 151 321.3 159.6 324.3 167.3 327.4 175.1 331.6 181.8 337 187.4 342.5 193 349.1 197.3 356.8 200.4 364.6 203.6 373.1 205.1 382.4 205.1 398.9 205.1 412.4 200.8 423 192.2 433.5 183.5 439.9 171 442.2 154.5L409.3 154.5C408.2 162.2 405.4 168.3 401 172.8 396.6 177.4 390.3 179.7 382.2 179.7 376.9 179.7 372.4 178.5 368.7 176.1 365 173.7 362.1 170.6 360 166.8 357.8 163.1 356.2 158.9 355.3 154.2 354.3 149.6 353.8 145 353.8 140.6 353.8 135.9 354.3 131.2 355.3 126.5 356.2 121.8 357.9 117.5 360.2 113.6 362.5 109.6 365.5 106.4 369.2 104 372.9 101.5 377.4 100.2 382.9 100.2 397.4 100.2 405.8 107.4 408.1 121.6L408.1 121.6 408.1 121.6ZM465 30.6L465 202 502.6 202 502.6 128.1 572 128.1 572 202 609.7 202 609.7 30.6 572 30.6 572 96.4 502.6 96.4 502.6 30.6 465 30.6 465 30.6ZM755.6 202L755.6 77.9 721.5 77.9 721.5 143C721.5 155.6 719.4 164.7 715.3 170.2 711.1 175.7 704.4 178.5 695.1 178.5 687 178.5 681.3 176 678.1 170.9 674.9 165.9 673.3 158.2 673.3 148L673.3 77.9 639.2 77.9 639.2 154.2C639.2 161.9 639.9 168.9 641.2 175.2 642.6 181.6 645 186.9 648.3 191.3 651.7 195.7 656.3 199.1 662.1 201.5 668 203.9 675.4 205.1 684.6 205.1 691.8 205.1 698.8 203.5 705.7 200.3 712.6 197.1 718.2 191.9 722.5 184.7L723.2 184.7 723.2 202 755.6 202 755.6 202ZM872.5 140.1C872.5 145.2 871.9 150.2 870.8 155 869.7 159.8 867.9 164 865.5 167.7 863.1 171.4 860.1 174.3 856.5 176.4 852.9 178.6 848.6 179.7 843.4 179.7 838.5 179.7 834.2 178.6 830.5 176.4 826.8 174.3 823.8 171.4 821.4 167.7 819 164 817.2 159.8 816.1 155 815 150.2 814.4 145.2 814.4 140.1 814.4 134.8 815 129.8 816.1 125 817.2 120.2 819 115.9 821.4 112.2 823.8 108.6 826.8 105.6 830.5 103.5 834.2 101.3 838.5 100.2 843.4 100.2 848.6 100.2 852.9 101.3 856.5 103.5 860.1 105.6 863.1 108.6 865.5 112.2 867.9 115.9 869.7 120.2 870.8 125 871.9 129.8 872.5 134.8 872.5 140.1L872.5 140.1 872.5 140.1ZM781.5 30.6L781.5 202 813.9 202 813.9 186.2 814.4 186.2C818.1 193 823.5 197.9 830.7 200.8 837.9 203.7 846.1 205.1 855.2 205.1 861.4 205.1 867.6 203.8 873.7 201.3 879.8 198.7 885.2 194.8 890.1 189.5 895 184.2 899 177.5 902 169.2 905 161 906.6 151.2 906.6 139.8 906.6 128.5 905 118.7 902 110.4 899 102.2 895 95.4 890.1 90.2 885.2 84.9 879.8 81 873.7 78.4 867.6 75.8 861.4 74.6 855.2 74.6 847.5 74.6 840.1 76 833 79 825.9 82 820.2 86.6 816.1 93L815.6 93 815.6 30.6 781.5 30.6 781.5 30.6Z" fill="#000000"/><path d="M0.4 246L8.4 246 8.4 264.5 8.5 264.5C9.1 263.6 9.8 262.8 10.6 262.1 11.4 261.4 12.2 260.8 13.2 260.3 14.1 259.8 15.1 259.5 16.2 259.2 17.2 259 18.3 258.8 19.3 258.8 22.2 258.8 24.6 259.3 26.8 260.3 28.9 261.3 30.6 262.7 32.1 264.5 33.5 266.2 34.5 268.3 35.2 270.6 35.9 272.9 36.3 275.4 36.3 278.1 36.3 280.5 35.9 282.9 35.3 285.2 34.7 287.4 33.7 289.5 32.4 291.2 31.2 293 29.5 294.4 27.6 295.4 25.6 296.5 23.3 297 20.6 297 19.4 297 18.2 296.9 17 296.7 15.7 296.6 14.6 296.3 13.4 295.8 12.3 295.3 11.3 294.7 10.4 294 9.5 293.2 8.7 292.2 8.1 291L8 291 8 296 0.4 296 0.4 246ZM28.3 277.9C28.3 276.3 28.1 274.7 27.6 273.2 27.2 271.6 26.6 270.3 25.8 269.1 24.9 267.9 23.9 266.9 22.6 266.2 21.3 265.5 19.9 265.1 18.3 265.1 14.9 265.1 12.4 266.3 10.7 268.6 9 271 8.1 274.1 8.1 277.9 8.1 279.8 8.3 281.5 8.8 283 9.2 284.6 9.9 285.9 10.8 287 11.7 288.2 12.7 289 14 289.7 15.2 290.4 16.6 290.7 18.3 290.7 20.1 290.7 21.6 290.3 22.9 289.6 24.1 288.8 25.2 287.8 26 286.7 26.8 285.5 27.4 284.1 27.7 282.6 28.1 281.1 28.3 279.5 28.3 277.9L28.3 277.9ZM39 259.8L47.7 259.8 57.2 286.8 57.3 286.8 66.5 259.8 74.8 259.8 60.8 298C60.1 299.6 59.5 301.2 58.8 302.7 58.2 304.1 57.4 305.5 56.5 306.6 55.6 307.7 54.5 308.7 53.1 309.3 51.8 310 50 310.4 47.9 310.4 46.1 310.4 44.2 310.2 42.4 309.9L42.4 303.2C43.1 303.3 43.7 303.4 44.3 303.5 44.9 303.6 45.5 303.7 46.2 303.7 47.1 303.7 47.9 303.6 48.5 303.4 49.1 303.1 49.6 302.8 50 302.3 50.4 301.9 50.7 301.4 51 300.8 51.3 300.2 51.6 299.5 51.8 298.7L52.7 295.9 39 259.8ZM99.7 246L112.1 246 125.9 285.2 126 285.2 139.4 246 151.6 246 151.6 296 143.3 296 143.3 257.4 143.1 257.4 129.3 296 122.1 296 108.2 257.4 108.1 257.4 108.1 296 99.7 296 99.7 246ZM191.3 288C191.3 288.9 191.4 289.6 191.7 290.1 191.9 290.5 192.4 290.7 193.2 290.7L194 290.7C194.4 290.7 194.7 290.6 195.2 290.5L195.2 296.1C194.9 296.2 194.5 296.3 194.1 296.4 193.6 296.5 193.2 296.6 192.7 296.7 192.2 296.8 191.8 296.9 191.3 296.9 190.8 297 190.4 297 190.1 297 188.5 297 187.1 296.7 186.1 296 185 295.3 184.3 294.2 184 292.6 182.4 294.1 180.4 295.2 178.1 295.9 175.8 296.6 173.6 297 171.4 297 169.8 297 168.2 296.8 166.7 296.3 165.2 295.9 163.9 295.2 162.8 294.4 161.6 293.5 160.7 292.4 160 291.1 159.4 289.7 159 288.2 159 286.4 159 284.2 159.4 282.4 160.3 281 161.1 279.5 162.1 278.5 163.5 277.7 164.8 276.9 166.3 276.3 168 275.9 169.6 275.6 171.3 275.3 173 275.1 174.4 274.9 175.8 274.7 177.1 274.5 178.4 274.4 179.6 274.2 180.6 274 181.6 273.7 182.4 273.2 182.9 272.7 183.5 272.1 183.8 271.2 183.8 270 183.8 269 183.6 268.2 183.1 267.5 182.6 266.9 182 266.4 181.3 266 180.5 265.7 179.7 265.4 178.8 265.3 178 265.2 177.1 265.1 176.3 265.1 174.1 265.1 172.2 265.6 170.8 266.5 169.3 267.5 168.5 268.9 168.3 270.9L160.4 270.9C160.5 268.5 161.1 266.6 162 265.1 163 263.5 164.3 262.3 165.8 261.4 167.3 260.4 169 259.8 170.9 259.4 172.8 259 174.8 258.8 176.8 258.8 178.6 258.8 180.3 259 182.1 259.4 183.8 259.8 185.3 260.4 186.7 261.2 188.1 262.1 189.2 263.1 190 264.5 190.9 265.8 191.3 267.4 191.3 269.3L191.3 288ZM183.3 277.9C182.1 278.7 180.6 279.1 178.8 279.3 177.1 279.5 175.3 279.7 173.5 280 172.7 280.2 171.9 280.4 171.1 280.6 170.3 280.9 169.6 281.2 169 281.7 168.4 282.1 167.9 282.7 167.5 283.4 167.2 284.2 167 285 167 286.1 167 286.9 167.3 287.7 167.8 288.3 168.3 288.9 168.9 289.4 169.6 289.7 170.4 290.1 171.2 290.3 172 290.5 172.9 290.6 173.7 290.7 174.4 290.7 175.2 290.7 176.2 290.6 177.2 290.3 178.3 290.1 179.2 289.7 180.1 289.1 181 288.6 181.8 287.9 182.4 287 183 286.1 183.3 285.1 183.3 283.8L183.3 277.9ZM224.3 271.9C224 269.7 223.1 268 221.6 266.8 220.2 265.7 218.3 265.1 216.1 265.1 215.1 265.1 214 265.3 212.8 265.7 211.6 266 210.6 266.7 209.6 267.6 208.6 268.6 207.8 269.9 207.1 271.6 206.5 273.3 206.1 275.5 206.1 278.3 206.1 279.8 206.3 281.3 206.7 282.8 207 284.3 207.6 285.6 208.3 286.8 209.1 287.9 210.1 288.9 211.3 289.6 212.5 290.3 214 290.7 215.7 290.7 218.1 290.7 220 290 221.5 288.5 223 287.1 224 285 224.3 282.4L232.3 282.4C231.6 287.1 229.8 290.7 227 293.2 224.1 295.7 220.4 297 215.7 297 212.9 297 210.4 296.5 208.2 295.5 206 294.6 204.2 293.3 202.7 291.6 201.2 290 200.1 288 199.3 285.7 198.5 283.4 198.2 281 198.2 278.3 198.2 275.6 198.5 273 199.3 270.7 200 268.3 201.1 266.2 202.6 264.5 204.1 262.7 206 261.3 208.2 260.3 210.4 259.3 213 258.8 216 258.8 218.1 258.8 220.1 259.1 222 259.6 223.9 260.2 225.6 261 227 262.1 228.5 263.1 229.7 264.5 230.6 266.1 231.6 267.7 232.1 269.7 232.3 271.9L224.3 271.9ZM238.8 259.8L246.3 259.8 246.3 266.8 246.5 266.8C246.7 265.8 247.1 264.9 247.8 263.9 248.5 263 249.3 262.2 250.3 261.4 251.2 260.6 252.3 260 253.5 259.5 254.6 259.1 255.8 258.8 257 258.8 258 258.8 258.6 258.9 259 258.9 259.3 258.9 259.7 259 260 259L260 266.7C259.5 266.6 258.9 266.6 258.3 266.5 257.7 266.4 257.2 266.4 256.6 266.4 255.3 266.4 254 266.7 252.8 267.2 251.6 267.7 250.6 268.5 249.7 269.6 248.8 270.6 248.1 271.9 247.6 273.5 247.1 275 246.8 276.8 246.8 278.8L246.8 296 238.8 296 238.8 259.8ZM278.8 297C275.9 297 273.3 296.5 271.1 295.5 268.8 294.6 266.9 293.3 265.3 291.6 263.8 289.9 262.6 287.9 261.8 285.6 260.9 283.2 260.5 280.7 260.5 277.9 260.5 275.1 260.9 272.6 261.8 270.2 262.6 267.9 263.8 265.9 265.3 264.2 266.9 262.5 268.8 261.2 271.1 260.3 273.3 259.3 275.9 258.8 278.8 258.8 281.7 258.8 284.3 259.3 286.5 260.3 288.8 261.2 290.7 262.5 292.3 264.2 293.8 265.9 295 267.9 295.8 270.2 296.7 272.6 297.1 275.1 297.1 277.9 297.1 280.7 296.7 283.2 295.8 285.6 295 287.9 293.8 289.9 292.3 291.6 290.7 293.3 288.8 294.6 286.5 295.5 284.3 296.5 281.7 297 278.8 297L278.8 297ZM278.8 290.7C280.6 290.7 282.1 290.3 283.4 289.6 284.7 288.8 285.8 287.8 286.6 286.6 287.5 285.4 288.1 284 288.5 282.5 288.9 281 289.1 279.5 289.1 277.9 289.1 276.3 288.9 274.8 288.5 273.3 288.1 271.7 287.5 270.3 286.6 269.2 285.8 268 284.7 267 283.4 266.3 282.1 265.5 280.6 265.1 278.8 265.1 277 265.1 275.5 265.5 274.2 266.3 272.9 267 271.8 268 271 269.2 270.1 270.3 269.5 271.7 269.1 273.3 268.7 274.8 268.5 276.3 268.5 277.9 268.5 279.5 268.7 281 269.1 282.5 269.5 284 270.1 285.4 271 286.6 271.8 287.8 272.9 288.8 274.2 289.6 275.5 290.3 277 290.7 278.8 290.7L278.8 290.7ZM303.9 259.8L311.5 259.8 311.5 264.7 311.6 264.7C312.8 262.6 314.3 261.1 316.3 260.2 318.3 259.3 320.5 258.8 322.8 258.8 325.7 258.8 328.2 259.3 330.3 260.3 332.4 261.3 334.2 262.7 335.6 264.5 337 266.2 338 268.3 338.7 270.6 339.4 272.9 339.8 275.4 339.8 278.1 339.8 280.5 339.5 282.9 338.8 285.2 338.2 287.4 337.2 289.5 336 291.2 334.7 293 333.1 294.4 331.1 295.4 329.1 296.5 326.8 297 324.2 297 323 297 321.8 296.9 320.7 296.7 319.5 296.5 318.4 296.1 317.3 295.7 316.2 295.2 315.2 294.6 314.3 293.9 313.4 293.1 312.7 292.3 312.1 291.3L311.9 291.3 311.9 309.4 303.9 309.4 303.9 259.8ZM331.8 277.9C331.8 276.3 331.6 274.7 331.2 273.2 330.7 271.6 330.1 270.3 329.3 269.1 328.4 267.9 327.4 266.9 326.1 266.2 324.9 265.5 323.4 265.1 321.8 265.1 318.4 265.1 315.9 266.3 314.2 268.6 312.5 271 311.6 274.1 311.6 277.9 311.6 279.8 311.9 281.5 312.3 283 312.7 284.6 313.4 285.9 314.3 287 315.2 288.2 316.2 289 317.5 289.7 318.7 290.4 320.1 290.7 321.8 290.7 323.6 290.7 325.1 290.3 326.4 289.6 327.7 288.8 328.7 287.8 329.5 286.7 330.3 285.5 330.9 284.1 331.3 282.6 331.6 281.1 331.8 279.5 331.8 277.9L331.8 277.9ZM346.7 246L354.7 246 354.7 296 346.7 296 346.7 246ZM393.7 288C393.7 288.9 393.8 289.6 394.1 290.1 394.3 290.5 394.8 290.7 395.6 290.7L396.4 290.7C396.7 290.7 397.1 290.6 397.5 290.5L397.5 296.1C397.2 296.2 396.9 296.3 396.4 296.4 396 296.5 395.5 296.6 395.1 296.7 394.6 296.8 394.1 296.9 393.7 296.9 393.2 297 392.8 297 392.5 297 390.8 297 389.5 296.7 388.4 296 387.3 295.3 386.6 294.2 386.3 292.6 384.7 294.1 382.8 295.2 380.5 295.9 378.2 296.6 375.9 297 373.8 297 372.2 297 370.6 296.8 369.1 296.3 367.6 295.9 366.3 295.2 365.1 294.4 364 293.5 363.1 292.4 362.4 291.1 361.7 289.7 361.4 288.2 361.4 286.4 361.4 284.2 361.8 282.4 362.6 281 363.4 279.5 364.5 278.5 365.8 277.7 367.2 276.9 368.7 276.3 370.3 275.9 372 275.6 373.6 275.3 375.3 275.1 376.8 274.9 378.2 274.7 379.5 274.5 380.8 274.4 381.9 274.2 382.9 274 383.9 273.7 384.7 273.2 385.3 272.7 385.9 272.1 386.2 271.2 386.2 270 386.2 269 385.9 268.2 385.4 267.5 385 266.9 384.3 266.4 383.6 266 382.9 265.7 382.1 265.4 381.2 265.3 380.3 265.2 379.5 265.1 378.7 265.1 376.4 265.1 374.6 265.6 373.2 266.5 371.7 267.5 370.9 268.9 370.7 270.9L362.7 270.9C362.9 268.5 363.4 266.6 364.4 265.1 365.4 263.5 366.6 262.3 368.2 261.4 369.7 260.4 371.4 259.8 373.3 259.4 375.2 259 377.2 258.8 379.2 258.8 381 258.8 382.7 259 384.4 259.4 386.2 259.8 387.7 260.4 389.1 261.2 390.5 262.1 391.6 263.1 392.4 264.5 393.3 265.8 393.7 267.4 393.7 269.3L393.7 288ZM385.7 277.9C384.5 278.7 383 279.1 381.2 279.3 379.4 279.5 377.7 279.7 375.9 280 375 280.2 374.2 280.4 373.4 280.6 372.6 280.9 371.9 281.2 371.3 281.7 370.7 282.1 370.3 282.7 369.9 283.4 369.6 284.2 369.4 285 369.4 286.1 369.4 286.9 369.6 287.7 370.2 288.3 370.7 288.9 371.3 289.4 372 289.7 372.7 290.1 373.5 290.3 374.4 290.5 375.2 290.6 376 290.7 376.7 290.7 377.6 290.7 378.6 290.6 379.6 290.3 380.6 290.1 381.6 289.7 382.5 289.1 383.4 288.6 384.2 287.9 384.8 287 385.4 286.1 385.7 285.1 385.7 283.8L385.7 277.9ZM402.3 259.8L409.8 259.8 409.8 265.1 410 265.3C411.2 263.3 412.8 261.7 414.7 260.5 416.7 259.4 418.9 258.8 421.3 258.8 425.2 258.8 428.3 259.9 430.6 261.9 432.9 264 434.1 267 434.1 271.2L434.1 296 426.1 296 426.1 273.3C426 270.4 425.4 268.3 424.3 267.1 423.1 265.8 421.4 265.1 419 265.1 417.7 265.1 416.4 265.4 415.4 265.9 414.3 266.4 413.4 267 412.6 267.9 411.9 268.8 411.3 269.8 410.9 270.9 410.5 272.1 410.3 273.3 410.3 274.7L410.3 296 402.3 296 402.3 259.8ZM438.8 259.8L444.8 259.8 444.8 249 452.8 249 452.8 259.8 460 259.8 460 265.8 452.8 265.8 452.8 285.1C452.8 285.9 452.9 286.6 452.9 287.3 453 287.9 453.2 288.4 453.4 288.8 453.7 289.2 454.1 289.5 454.6 289.7 455.1 289.9 455.8 290.1 456.7 290.1 457.2 290.1 457.8 290 458.4 290 458.9 290 459.5 289.9 460 289.8L460 295.9C459.1 296 458.3 296.1 457.4 296.2 456.6 296.3 455.7 296.4 454.9 296.4 452.7 296.4 451.1 296.2 449.8 295.8 448.5 295.4 447.5 294.8 446.8 294 446 293.2 445.6 292.3 445.3 291.1 445 289.9 444.9 288.6 444.8 287.1L444.8 265.8 438.8 265.8 438.8 259.8Z" fill="#4B4B4B"/><path d="M738.6 255.3L738.6 266.4 751 266.4C753.2 266.4 755 266 756.4 265.2 757.7 264.3 758.4 262.9 758.4 260.7 758.4 258.4 757.5 256.8 755.7 256.1 754.1 255.6 752.1 255.3 749.7 255.3L738.6 255.3ZM738.6 274.8L738.6 288.2 751 288.2C753.2 288.2 754.9 287.9 756.1 287.3 758.4 286.2 759.5 284.1 759.5 281 759.5 278.4 758.4 276.6 756.2 275.6 755 275.1 753.3 274.8 751.1 274.8L738.6 274.8ZM766.1 251.9C767.7 254.1 768.5 256.6 768.5 259.6 768.5 262.7 767.7 265.2 766.1 267 765.3 268.1 764 269 762.3 269.9 764.9 270.8 766.8 272.3 768.1 274.3 769.5 276.4 770.1 278.8 770.1 281.7 770.1 284.7 769.4 287.4 767.9 289.8 766.9 291.3 765.7 292.7 764.3 293.7 762.6 295 760.7 295.8 758.5 296.3 756.3 296.7 754 296.9 751.4 296.9L728.5 296.9 728.5 246.6 753 246.6C759.2 246.6 763.6 248.4 766.1 251.9L766.1 251.9ZM816.1 255.5L789.4 255.5 789.4 266.2 813.9 266.2 813.9 274.9 789.4 274.9 789.4 287.9 817.3 287.9 817.3 296.9 779.1 296.9 779.1 246.6 816.1 246.6 816.1 255.5ZM862 246.6L862 255.5 846.9 255.5 846.9 296.9 836.3 296.9 836.3 255.5 821.2 255.5 821.2 246.6 862 246.6ZM876.7 277.9L889.4 277.9 883.2 258.1 876.7 277.9ZM877.3 246.6L889.2 246.6 907 296.9 895.6 296.9 892.4 286.6 873.8 286.6 870.3 296.9 859.3 296.9 877.3 246.6Z" fill="#4B4B4B"/></g></g></svg>