<?xml version="1.0" ?><svg width="16px" height="16px" version="1.1" viewBox="0 0 100 100" xmlns="http://www.w3.org/2000/svg"  xmlns:xlink="http://www.w3.org/1999/xlink"><title/><defs/>
	<g fill="#000000">
		<path fill="#000" d="M16.388,70.784l-8.699,8.699l1.726,1.727l-9.197,9.196l15.652,7.242l4.992-4.992l1.726,1.726l8.699-8.698  c1.844,0.674,3.996,0.274,5.473-1.203l61.503-61.503c2.029-2.029,2.029-5.33,0-7.359l-11.81-11.81c-2.029-2.029-5.331-2.029-7.359,0  L17.591,65.312C16.114,66.789,15.713,68.939,16.388,70.784z M22.587,86.206l-6.723-6.723l4.27-4.27l6.723,6.723L22.587,86.206z   M22.087,68.99l13.946-13.944l10.992,10.992L33.08,79.983L22.087,68.99z M14.635,90.707l-4.472-2.07l3.339-3.339l3.271,3.271  L14.635,90.707z M93.766,19.297L79.821,33.242L68.828,22.25L82.773,8.305L93.766,19.297z"/>
	</g>
</svg>