<svg viewBox="0 0 64 64" xmlns="http://www.w3.org/2000/svg"><path d="m18.7 13c-3.7.5-7.1 1.8-10 4.6l-3-8.1c2.9-2.8 6.3-4.1 10-4.6z" fill="#333"/><path d="m30.3 12.9c-4-.2-8-.4-11.7.1l-3-8.1c3.7-.5 7.7-.3 11.7-.1z" fill="#fff"/><path d="m42 12.8c-3.7.5-7.7.3-11.7.1l-3-8.1c4 .2 8 .4 11.7-.1 1 2.6 2 5.3 3 8.1" fill="#333"/><path d="m52 8.1c-2.9 2.8-6.3 4.1-10 4.6l-3-8.1c3.7-.5 7.1-1.8 10-4.6zm-30.3 13c-3.7.5-7.1 1.8-10 4.6l-3-8.1c2.9-2.8 6.3-4.1 10-4.6z" fill="#fff"/><path d="m33.3 21c-4-.2-8-.4-11.7.1l-3-8.1c3.7-.5 7.7-.3 11.7-.1z" fill="#333"/><path d="m45 20.9c-3.7.5-7.7.3-11.7.1l-3-8.1c4 .2 8 .4 11.7-.1z" fill="#fff"/><path d="m55 16.3c-2.9 2.8-6.3 4.1-10 4.6l-3-8.1c3.7-.5 7.1-1.8 10-4.6 1 2.6 2 5.3 3 8.1m-30.3 13c-3.7.5-7.1 1.8-10 4.6l-3-8.1c2.9-2.8 6.3-4.1 10-4.6z" fill="#333"/><path d="m36.4 29.1c-4-.2-8-.4-11.7.1l-3-8.1c3.7-.5 7.7-.3 11.7-.1.9 2.7 2 5.4 3 8.1" fill="#fff"/><path d="m48 29c-3.7.5-7.7.3-11.6.1l-3-8.1c4 .2 8 .4 11.7-.1.9 2.7 1.9 5.4 2.9 8.1" fill="#333"/><path d="m58 24.4c-2.9 2.8-6.3 4.1-10 4.6l-3-8.1c3.7-.5 7.1-1.8 10-4.6zm-30.3 13c-3.7.5-7.1 1.8-10 4.6l-3-8.1c2.9-2.8 6.3-4.1 10-4.6z" fill="#fff"/><path d="m39.4 37.3c-4-.2-8-.4-11.7.1l-3-8.1c3.7-.5 7.7-.3 11.7-.1z" fill="#333"/><path d="m51 37.1c-3.7.5-7.7.3-11.7.1l-3-8.1c4 .2 8 .4 11.6-.1 1.1 2.7 2.1 5.4 3.1 8.1" fill="#fff"/><path d="m61 32.5c-2.9 2.8-6.3 4.1-10 4.6l-3-8.1c3.7-.5 7.1-1.8 10-4.6zm-35.1 31.5h-1.9l-21-56.7 1.7-.6z" fill="#333"/></svg>