<svg enable-background="new 0 0 128 128" viewBox="0 0 128 128" xmlns="http://www.w3.org/2000/svg" xmlns:xlink="http://www.w3.org/1999/xlink"><linearGradient id="a" gradientUnits="userSpaceOnUse" x1="70.7586" x2="62.7649" y1="69.0636" y2="5.524"><stop offset=".0012001" stop-color="#504f4f"/><stop offset=".3896" stop-color="#212121" stop-opacity="0"/><stop offset=".6243" stop-color="#212121" stop-opacity="0"/><stop offset="1" stop-color="#bfbebe"/></linearGradient><linearGradient id="b" gradientUnits="userSpaceOnUse" x1="22.7184" x2="110.7647" y1="47.8366" y2="22.5809"><stop offset=".0012001" stop-color="#bfbebe"/><stop offset=".1974" stop-color="#212121" stop-opacity="0"/><stop offset=".7498" stop-color="#212121" stop-opacity="0"/><stop offset="1" stop-color="#636262"/></linearGradient><path d="m27.7 64c11.8 3 23.9 5.6 36.1 5.1 10.2-.4 20.1-3.1 30.2-4.9 8.9-1.6 18-2.5 26.7-.5 1.5.3 2.8-1.1 2.3-2.5-3.4-10.9-13.9-43.8-16.4-51.8-.4-1.2-1.3-2-2.5-2.3-9.1-2.4-18.8-1.4-28.1.3-10 1.8-20 4.5-30.2 4.9-12.2.5-24.3-2.1-36.1-5.1 0-.1 18 56.8 18 56.8z" fill="#fff"/><path d="m110.3 21.2c-7.6-2.4-15.7-2.3-23.7-1.3l13.7 43.4c6.8-.9 13.6-1 20.3.5 1.5.3 2.8-1.1 2.3-2.6z" fill="#424242"/><path d="m90.9 33.4 4.3 13.5c8-1 16.1-1.1 23.7 1.3l-4.3-13.5c-7.6-2.4-15.7-2.3-23.7-1.3z" fill="#fff"/><path d="m84.7 34.4c-10 1.8-20 4.5-30.2 4.9-12.1.5-24.3-2.1-36-5.1l4.3 13.5c11.8 3 23.9 5.6 36 5.1 10.2-.5 20.2-3.1 30.2-4.9 2.1-.4 4.1-.7 6.2-1l-4.3-13.5" fill="#424242"/><path d="m64.7 23.9c-4.8.9-9.6 1.6-14.4 1.8-2.8.1-5.5 0-8.3-.1l13.7 43.4c2 .1 4 .2 6 .2.7 0 1.4 0 2.1-.1 4.9-.2 9.8-.9 14.7-1.8" fill="#424242"/><path d="m110.3 21.2-3.7-11.8c-.4-1.1-1.3-2-2.5-2.3-7-1.8-14.4-1.6-21.8-.7l4.3 13.5c8-1 16.1-1.1 23.7 1.3z" fill="#fff"/><path d="m107.2 20.4c.1 0 .3.1.4.1-.1-.1-.2-.1-.4-.1z" fill="#424242"/><path d="m82.4 6.4c-2.1.3-4.1.6-6.1.9-10 1.8-20 4.5-30.2 4.9-12.2.5-24.3-2.1-36.1-5.1l.8 2.4 3.5 11.1c11.8 3 23.9 5.6 36 5.1 10.2-.4 20.1-3.1 30.2-4.9 2.1-.4 4.1-.7 6.2-1z" fill="#424242"/><path d="m68.9 37.5c-4.8.9-9.5 1.6-14.4 1.8-2.8.1-5.6 0-8.4-.1l4.3 13.5c2.8.2 5.6.2 8.3.1 4.8-.2 9.6-.9 14.4-1.8.1-.1-4.2-13.6-4.2-13.5z" fill="#fff"/><path d="m60.43 10.43c-3.82.59-11.57 2.31-22.75 1.65l4.32 13.62c2.8.2 5.5.2 8.3.1 4.8-.2 9.6-.9 14.4-1.8 0-.1-4.27-13.57-4.27-13.57z" fill="#fff"/><path d="m27.7 64c11.8 3 23.9 5.6 36.1 5.1 10.2-.4 20.1-3.1 30.2-4.9 8.9-1.6 18-2.5 26.7-.5 1.5.3 2.8-1.1 2.3-2.5-3.4-10.9-13.9-43.8-16.4-51.8-.4-1.2-1.3-2-2.5-2.3-9.1-2.4-18.8-1.4-28.1.3-10 1.8-20 4.5-30.2 4.9-12.2.5-24.3-2.1-36.1-5.1 0-.1 18 56.8 18 56.8z" fill="url(#a)" opacity=".2"/><path d="m27.7 64.08c11.8 3 23.9 5.6 36.1 5.1 10.2-.4 20.1-3.1 30.2-4.9 8.9-1.6 18-2.5 26.7-.5 1.5.3 2.8-1.1 2.3-2.5-3.4-10.9-13.9-43.8-16.4-51.8-.4-1.2-1.3-2-2.5-2.3-9.1-2.4-18.8-1.4-28.1.3-10 1.8-20 4.5-30.2 4.9-12.2.5-24.3-2.1-36.1-5.1 0-.1 18 56.8 18 56.8z" fill="url(#b)" opacity=".2"/><path d="m47.2 122.8-3.8 1.2c-1.2.4-2.5-.3-2.9-1.5l-35.2-112.9c-.7-2.3.6-4.7 2.9-5.4s4.7.6 5.4 2.8l35.2 112.9c.3 1.2-.4 2.5-1.6 2.9z" fill="#bfbebe"/></svg>