<svg enable-background="new 0 0 128 128" viewBox="0 0 128 128" xmlns="http://www.w3.org/2000/svg" xmlns:xlink="http://www.w3.org/1999/xlink"><radialGradient id="a" cx="63.6" cy="62.8999" gradientUnits="userSpaceOnUse" r="56.9597"><stop offset=".5" stop-color="#fde030"/><stop offset=".92" stop-color="#f7c02b"/><stop offset="1" stop-color="#f4a223"/></radialGradient><radialGradient id="b" cx="63.6" cy="62.8999" gradientUnits="userSpaceOnUse" r="56.9597"><stop offset=".16" stop-color="#40e3e7"/><stop offset=".51" stop-color="#3fe1e7"/><stop offset=".65" stop-color="#39dae7"/><stop offset=".77" stop-color="#30cde6"/><stop offset=".86" stop-color="#23bce5"/><stop offset=".94" stop-color="#13a5e4"/><stop offset="1" stop-color="#018ce3"/></radialGradient><linearGradient id="c" gradientTransform="matrix(1 0 0 -1 0 130)" gradientUnits="userSpaceOnUse" x1="38.0985" x2="44.5985" y1="122.7394" y2="106.4894"><stop offset="0" stop-color="#fff"/><stop offset=".21" stop-color="#f6fcff"/><stop offset=".56" stop-color="#def3ff"/><stop offset="1" stop-color="#b7e4ff"/></linearGradient><path d="m63.6 118.8c-27.9 0-58-17.5-58-55.9s30.1-55.9 58-55.9c15.5 0 29.8 5.1 40.4 14.4 11.5 10.2 17.6 24.6 17.6 41.5s-6.1 31.2-17.6 41.4c-10.6 9.3-25 14.5-40.4 14.5z" fill="url(#a)"/><path d="m63.6 118.8c-27.9 0-58-17.5-58-55.9s30.1-55.9 58-55.9c15.5 0 29.8 5.1 40.4 14.4 11.5 10.2 17.6 24.6 17.6 41.5s-6.1 31.2-17.6 41.4c-10.6 9.3-25 14.5-40.4 14.5z" fill="url(#b)"/><path d="m111.49 29.67c5.33 8.6 8.11 18.84 8.11 30.23 0 16.9-6.1 31.2-17.6 41.4-10.6 9.3-25 14.5-40.4 14.5-18.06 0-37-7.35-48.18-22.94 10.76 17.66 31 25.94 50.18 25.94 15.4 0 29.8-5.2 40.4-14.5 11.5-10.2 17.6-24.5 17.6-41.4 0-12.74-3.47-24.06-10.11-33.23z" fill="#018ce3"/><path d="m70.18 19.19c6.52.81 17.93 2.44 15.48-7.33s-18.73-6.52-25.25-7.33-17.11-3.26-23.63.81-11.4 13.85-16.29 15.48-7.33 1.63-10.18 6.11c-2.55 4.01-5.08 11.64-3.31 17.07s8.75.75 19.25-10.75" fill="url(#c)"/><path d="m30.94 66.3c-.12-.46-.6-.74-1.06-.62h-.01l-2.17.58c-.54.12-1.11.04-1.61-.21l-3.8-2.19c-.24-.09-.37-.36-.28-.6.05-.13.15-.23.28-.28l3.8-2.2c.5-.25 1.06-.32 1.61-.21l2.17.59c.47.15.97-.11 1.12-.58 0-.01.01-.03.01-.04l.34-1.26c.13-.47-.15-.95-.62-1.08l-1.32-.35c-.46-.12-.74-.6-.62-1.06v-.01l.35-1.31c.12-.47-.15-.95-.62-1.08l-1.32-.39c-.47-.13-.95.15-1.08.62l-.57 2.18c-.17.53-.53.99-1 1.29l-3.8 2.19c-.41.25-.75 0-.75-.43v-4.33c.03-.56.24-1.08.61-1.5l1.6-1.59c.34-.34.34-.9 0-1.24l-.94-.94c-.34-.34-.89-.34-1.23 0l-1 1c-.34.34-.9.34-1.24 0l-1-1c-.34-.34-.89-.34-1.23 0l-.94.93c-.34.34-.34.9 0 1.24l1.68 1.58c.37.41.59.94.62 1.5v4.39c0 .48-.34.68-.76.44l-3.79-2.2c-.48-.31-.83-.78-1-1.32l-.59-2.17c-.12-.47-.59-.75-1.06-.64l-1.27.34c-.47.13-.75.61-.62 1.08l.35 1.32c.12.47-.16.94-.62 1.07l-1.32.35c-.47.13-.75.61-.63 1.08l.39 1.31c.13.43.56.69 1 .61l2.19-.59c.55-.11 1.11-.03 1.61.22l3.85 2.21c.24.09.37.36.28.6-.05.13-.15.23-.28.28l-3.8 2.2c-.5.25-1.06.32-1.61.21l-2.19-.59c-.45-.11-.91.15-1.05.6l-.34 1.27c-.13.47.15.95.62 1.08l1.29.35c.46.11.74.58.63 1.04 0 .01 0 .02-.01.03l-.35 1.32c-.13.46.15.94.61 1.07h.01l1.27.34c.47.12.95-.15 1.08-.62l.57-2.18c.17-.53.53-.98 1-1.28l3.79-2.2c.42-.24.76 0 .76.44v4.39c-.03.56-.25 1.08-.62 1.5l-1.59 1.59c-.34.34-.34.9 0 1.24l.94.91c.34.34.89.34 1.23 0l1-1c.34-.34.9-.34 1.24 0l1 1c.34.34.89.34 1.23 0l.94-.94c.34-.34.34-.9 0-1.24l-1.6-1.59c-.37-.42-.58-.94-.61-1.5v-4.39c0-.48.34-.68.75-.43l3.8 2.19c.47.31.83.77 1 1.31l.58 2.17c.13.47.61.75 1.08.62l1.27-.34c.46-.11.74-.58.63-1.04 0-.01 0-.02-.01-.03l-.35-1.32c-.12-.43.1-.89.52-1.06l1.32-.35c.46-.11.74-.58.63-1.04 0-.01 0-.02-.01-.03z" fill="#b7e4ff"/><path d="m121.53 48.64c.16-.53-.13-1.09-.66-1.25-.01 0-.02-.01-.04-.01l-2.52-.7c-.62-.2-1.14-.61-1.49-1.16l-2.5-4.44c-.19-.22-.17-.55.05-.75 0 0 .01-.01.01-.01.13-.11.3-.15.46-.12h5.09c.65.04 1.26.3 1.74.73l1.83 1.87c.38.4 1.02.41 1.41.03.01-.01.02-.02.03-.03l1.06-1c.4-.38.42-1.01.04-1.41-.01-.01-.02-.02-.04-.04l-1.11-1.13c-.4-.38-.41-1.02-.03-1.41.01-.01.02-.02.03-.03l1.13-1.11c.4-.38.42-1.01.04-1.41-.01-.01-.02-.02-.04-.04l-1.02-1.09c-.38-.4-1.02-.41-1.41-.03-.01.01-.02.02-.03.03l-1.84 1.87c-.49.42-1.1.67-1.75.7l-5.1-.05c-.56 0-.78-.4-.5-.88l2.63-4.4c.36-.54.89-.94 1.5-1.13l2.54-.65c.54-.13.87-.67.74-1.21 0-.01-.01-.02-.01-.03l-.38-1.5c-.13-.54-.67-.87-1.21-.74-.01 0-.02.01-.03.01l-1.53.39c-.53.14-1.08-.17-1.22-.71 0-.01 0-.01-.01-.02l-.4-1.52c-.13-.54-.67-.87-1.21-.74-.01 0-.02.01-.03.01l-1.48.38c-.54.12-.87.66-.75 1.2 0 .01.01.03.01.04l.66 2.54c.12.64.03 1.29-.27 1.87l-2.64 4.44c-.29.48-.75.48-1 0l-2.51-4.44c-.29-.59-.36-1.26-.21-1.9l.7-2.52c.16-.53-.14-1.09-.67-1.25-.01 0-.03-.01-.04-.01l-1.47-.4c-.53-.16-1.09.13-1.25.66 0 .01-.01.02-.01.04l-.43 1.52c-.14.54-.68.86-1.22.72-.01 0-.03-.01-.04-.01l-1.52-.43c-.53-.16-1.09.14-1.25.67 0 .01-.01.03-.01.04l-.41 1.47c-.16.53.14 1.09.67 1.25.02.01.03.01.05.01l2.54.71c.62.21 1.14.62 1.49 1.17l2.5 4.44c.19.23.17.57-.06.76-.13.11-.3.15-.46.12h-5.09c-.65-.04-1.26-.3-1.74-.74l-1.84-1.99c-.38-.4-1.02-.41-1.41-.03-.01.01-.02.02-.03.03l-1.12 1.11c-.4.38-.41 1.02-.03 1.41.01.01.02.02.03.03l1.11 1.13c.4.38.41 1.02.03 1.41-.01.01-.02.02-.03.03l-1.15 1.07c-.4.38-.41 1.02-.03 1.41.01.01.02.02.03.03l1.07 1.09c.38.4 1.02.41 1.41.03.01-.01.02-.02.03-.03l1.86-1.85c.49-.42 1.1-.67 1.75-.7l5.1.05c.56 0 .78.4.5.88l-2.59 4.4c-.36.55-.9.95-1.53 1.15l-2.54.65c-.54.13-.87.67-.74 1.21 0 .01.01.02.01.03l.4 1.47c.13.54.67.87 1.21.74.01 0 .02-.01.03-.01l1.53-.4c.53-.14 1.08.18 1.22.71 0 .01.01.02.01.03l.4 1.52c.13.54.67.87 1.21.74.01 0 .02-.01.03-.01l1.48-.38c.54-.12.88-.65.76-1.19 0-.02-.01-.03-.01-.05l-.66-2.54c-.12-.63-.03-1.29.27-1.86l2.59-4.4c.29-.48.75-.48 1 0l2.5 4.44c.29.59.37 1.26.22 1.9l-.7 2.52c-.16.53.15 1.09.68 1.24.01 0 .02.01.03.01l1.47.4c.53.16 1.09-.13 1.25-.66 0-.01.01-.02.01-.04l.43-1.52c.14-.54.68-.86 1.22-.72.01 0 .03.01.04.01l1.52.43c.53.16 1.09-.14 1.25-.67 0-.01.01-.03.01-.04z" fill="#b7e4ff"/><path d="m56.89 116.1c-.18-.28-.56-.36-.84-.18l-1.29.86c-.33.2-.72.27-1.1.22l-3-.6c-.18-.01-.32-.15-.31-.33 0-.09.05-.18.12-.24l2-2.27c.27-.27.62-.45 1-.49l1.55-.1c.33-.02.58-.29.56-.62 0-.01 0-.02 0-.02v-.9c-.02-.33-.3-.59-.63-.57h-.01l-.94.06c-.33.02-.62-.23-.64-.56l-.06-.94c-.02-.33-.31-.58-.64-.56h-.9c-.33.02-.58.31-.56.64l.1 1.55c.01.38-.12.76-.36 1.06l-2 2.27c-.09.15-.29.2-.44.11-.08-.05-.14-.13-.15-.23l-1-2.85c-.1-.37-.07-.76.08-1.11l.69-1.39c.15-.3.03-.66-.26-.81 0 0 0 0-.01 0l-.82-.41c-.3-.14-.65-.02-.81.27l-.41.84c-.15.3-.51.42-.8.27 0 0 0 0-.01 0l-.83-.41c-.3-.15-.66-.03-.81.26v.01l-.41.81c-.14.3-.02.66.28.81l1.39.69c.33.19.59.49.73.85l1 2.86c.11.32-.07.52-.4.45l-3-.6c-.37-.1-.7-.33-.93-.64l-.86-1.29c-.19-.27-.55-.35-.83-.17l-.75.51c-.28.18-.35.55-.17.83l.52.79c.18.28.11.65-.17.84l-.78.51c-.28.18-.36.56-.18.84l.5.76c.19.27.56.34.84.16l1.31-.86c.33-.19.71-.27 1.09-.21l3 .6c.18 0 .32.14.32.32 0 .1-.05.19-.12.25l-2 2.27c-.27.27-.62.44-1 .49l-1.57.1c-.33.02-.58.31-.56.64v.9c.02.34.31.59.65.57l.93-.06c.33-.02.62.23.65.56l.06.94c.02.33.31.58.64.56h.9c.33-.02.59-.3.57-.63v-.01l-.11-1.55c0-.38.13-.76.36-1.06l2-2.27c.09-.15.29-.2.44-.11.08.05.14.13.15.23l1 2.87c.1.37.07.76-.08 1.11l-.69 1.41c-.15.3-.03.66.26.81h.01l.81.39c.3.14.65.02.81-.27l.41-.84c.15-.3.51-.42.8-.27h.01l.84.41c.29.15.65.03.79-.26 0 0 0-.01.01-.01l.41-.81c.15-.3.03-.66-.26-.81 0 0 0 0-.01 0l-1.39-.69c-.33-.19-.59-.49-.73-.84l-1-2.87c-.1-.31.08-.52.4-.45l3 .6c.38.09.71.32.93.64l.82 1.27c.18.28.56.36.84.18l.75-.51c.27-.18.36-.54.18-.81 0-.01-.01-.01-.01-.02l-.52-.78c-.18-.28-.1-.65.17-.84l.78-.52c.28-.18.35-.55.17-.83z" fill="#b7e4ff"/><path d="m44 45.94c-4.19 0-8 3.54-8 9.42s3.81 9.41 8 9.41c4.2 0 8-3.54 8-9.41s-3.76-9.42-8-9.42z" fill="#422b0d"/><path d="m43.65 49.87c-1.42-.68-3.13-.08-3.82 1.34-.53 1.11-.29 2.44.6 3.3 1.42.68 3.13.08 3.82-1.34.53-1.11.29-2.44-.6-3.3z" fill="#896024"/><path d="m82.4 45.94c-4.19 0-8 3.54-8 9.42s3.81 9.41 8 9.41c4.19 0 8-3.54 8-9.41s-3.81-9.42-8-9.42z" fill="#422b0d"/><path d="m82 49.87c-1.42-.68-3.13-.08-3.82 1.34-.53 1.11-.29 2.44.6 3.3 1.42.68 3.13.08 3.82-1.34.53-1.11.29-2.44-.6-3.3z" fill="#896024"/><path d="m39.37 74.1h50.09c6.32 0 11.44 5.12 11.44 11.44v.01c0 6.32-5.12 11.44-11.44 11.44h-50.09c-6.32 0-11.44-5.12-11.44-11.44v-.01c0-6.32 5.12-11.44 11.44-11.44z" fill="#fff"/><g fill="#b3b3b3"><path d="m100.74 83.67h-72.64c-.25 1.32-.25 2.68 0 4h72.6c.25-1.32.25-2.68 0-4z"/><path d="m89.46 74.1h-.55v22.9h.55c.89 0 1.78-.11 2.65-.32v-22.26c-.87-.21-1.76-.32-2.65-.32z"/><path d="m62.58 74.1h3.2v22.89h-3.2z"/><path d="m39.38 74.1c-1.06 0-2.12.15-3.14.45v22c1.02.3 2.08.45 3.14.45h.06v-22.9z"/><path d="m49.41 74.1h3.2v22.89h-3.2z"/><path d="m75.74 74.1h3.2v22.89h-3.2z"/></g><path d="m100.91 85.55c-.29-3.52-2.19-6.7-5.13-8.65-1.39-.92-2.98-1.49-4.64-1.67-1.74-.09-3.47-.09-5.21 0-3.59.14-7.17.17-10.75.25l-10.76.08-10.75-.08c-3.59-.08-7.17-.11-10.76-.25-1.74-.09-3.47-.09-5.21 0-1.66.17-3.25.75-4.63 1.68-2.95 1.94-4.84 5.12-5.14 8.64-.29-3.78 1.31-7.46 4.27-9.83 1.51-1.22 3.29-2.05 5.19-2.43l.72-.14.73-.06c.5 0 .94-.06 1.39-.07l2.68-.09c3.59-.14 7.17-.17 10.76-.25l10.75-.08 10.76.09c3.58.08 7.16.11 10.75.25l2.69.08c.45 0 .88 0 1.39.07l.72.07.72.14c1.9.37 3.68 1.2 5.19 2.42 2.96 2.37 4.56 6.05 4.27 9.83z" fill="#018ce3"/></svg>