<svg enable-background="new 0 0 128 128" viewBox="0 0 128 128" xmlns="http://www.w3.org/2000/svg" xmlns:xlink="http://www.w3.org/1999/xlink"><linearGradient id="a"><stop offset=".0577" stop-color="#fdd835"/><stop offset=".7565" stop-color="#f9a825"/></linearGradient><linearGradient id="b" gradientUnits="userSpaceOnUse" x1="33.2" x2="33.2" xlink:href="#a" y1="12.4999" y2="91.21"/><linearGradient id="c" gradientUnits="userSpaceOnUse" x1="95.9" x2="95.9" xlink:href="#a" y1="12.4999" y2="91.21"/><linearGradient id="d" gradientUnits="userSpaceOnUse" x1="64" x2="64" xlink:href="#a" y1="12.4999" y2="91.21"/><linearGradient id="e" gradientUnits="userSpaceOnUse" x1="99.7" x2="99.7" xlink:href="#a" y1="12.4999" y2="91.21"/><linearGradient id="f" gradientUnits="userSpaceOnUse" x1="29.2" x2="29.2" xlink:href="#a" y1="12.4999" y2="91.21"/><linearGradient id="g" gradientUnits="userSpaceOnUse" x1="64.4609" x2="64.4609" y1="-2.8235" y2="106.92"><stop offset=".2467" stop-color="#ffeb3b"/><stop offset=".4378" stop-color="#ffe639"/><stop offset=".6718" stop-color="#fdd734"/><stop offset=".9102" stop-color="#fbc02d"/></linearGradient><linearGradient id="h"><stop offset="0" stop-color="#ffeb3b"/><stop offset="1" stop-color="#fbc02d"/></linearGradient><linearGradient id="i" gradientUnits="userSpaceOnUse" x1="84.5" x2="84.5" xlink:href="#h" y1="20.2499" y2="106.4399"/><linearGradient id="j" gradientUnits="userSpaceOnUse" x1="44.6" x2="44.6" xlink:href="#h" y1="20.2499" y2="106.4399"/><linearGradient id="k" gradientUnits="userSpaceOnUse" x1="10.1" x2="10.1" xlink:href="#h" y1="20.2499" y2="106.4399"/><linearGradient id="l" gradientUnits="userSpaceOnUse" x1="117.9" x2="117.9" xlink:href="#h" y1="20.2499" y2="106.4399"/><linearGradient id="m"><stop offset="0" stop-color="#29b6f6"/><stop offset="1" stop-color="#039be5"/></linearGradient><linearGradient id="n" gradientUnits="userSpaceOnUse" x1="56.6105" x2="72.3795" xlink:href="#m" y1="73.511" y2="89.279"/><linearGradient id="o"><stop offset="0" stop-color="#f06292"/><stop offset="1" stop-color="#e91e63"/></linearGradient><linearGradient id="p" gradientUnits="userSpaceOnUse" x1="32.9507" x2="41.9593" xlink:href="#o" y1="76.8508" y2="85.8593"/><linearGradient id="q" gradientUnits="userSpaceOnUse" x1="87.0745" x2="96.0831" xlink:href="#o" y1="76.8745" y2="85.883"/><linearGradient id="r" gradientUnits="userSpaceOnUse" x1="7.8455" x2="17.1145" xlink:href="#m" y1="76.7458" y2="86.0142"/><linearGradient id="s" gradientUnits="userSpaceOnUse" x1="111.9302" x2="121.1998" xlink:href="#m" y1="76.7313" y2="85.9987"/><path d="m49.6 89.5h-32.9c-2.4 0-4.2-1.9-4.2-4.2v-3.4c0-.6.1-1.1.3-1.6l13.6-33.5c1.3-3.3 5.9-3.6 7.6-.5l19.3 33.7c.4.6.6 1.4.6 2.1v3.1c-.1 2.4-2 4.3-4.3 4.3z" fill="url(#b)"/><path d="m79.5 89.5h32.9c2.3 0 4.2-1.9 4.2-4.2v-3.4c0-.6-.1-1.1-.3-1.6l-13.6-33.5c-1.3-3.3-5.9-3.6-7.6-.5l-19.3 33.7c-.4.6-.6 1.4-.6 2.1v3.1c0 2.4 2 4.3 4.3 4.3z" fill="url(#c)"/><path d="m80.5 89.5h-33c-2.3 0-4.2-1.9-4.2-4.2v-3.3c0-.7.2-1.3.4-1.9l16.5-33.7c1.5-3.2 6.1-3.2 7.6 0l16.5 33.7c.3.6.4 1.2.4 1.9v3.3c0 2.3-1.9 4.2-4.2 4.2z" fill="url(#d)"/><circle cx="99.7" cy="42" fill="url(#e)" r="4.1"/><circle cx="64" cy="42" fill="url(#d)" r="4.1"/><circle cx="29.2" cy="42" fill="url(#f)" r="4"/><path d="m99.7 40c1.1 0 2.1.9 2.1 2 0 .7-.3 1.3-.9 1.7-.5.3-.8.8-.9 1.4s.1 1.2.5 1.6c.2.3.4.5.5.7l13.7 33.6.1.3c.1.2.2.5.2.6v3.4c0 1.3-1.4 2.7-2.6 2.7h-95.7c-1.2 0-2.6-1.5-2.6-2.7v-3.4c0-.1.1-.3.2-.5.1-.1.1-.3.2-.4l13.8-33.5c.1-.2.2-.5.4-.7.4-.4.6-1 .5-1.6s-.4-1.1-1-1.4c-.6-.4-1-1-1-1.8 0-1.1.9-2 2-2s2 .9 2 2c0 .6-.3 1-.5 1.3-.4.5-.5 1.1-.4 1.7s.5 1.1 1 1.4c.4.2.7.5.9.9l14.2 24.8c.4.6 1 1 1.7 1h.1c.7 0 1.4-.4 1.7-1.1l12-24.6c.2-.3.3-.5.6-.8.5-.4.7-.9.7-1.5s-.2-1.1-.6-1.5-.7-.9-.7-1.5c0-1.1.9-2 2-2s2 .9 2 2c0 .6-.2 1.1-.7 1.5-.4.4-.7 1-.7 1.5s.3 1.1.7 1.5c.2.2.4.5.6.8l12.7 25.6c.3.7 1 1.1 1.7 1.1h.1c.7 0 1.4-.4 1.7-1l14.8-25.8c.2-.3.5-.6.8-.8.5-.3.9-.8 1-1.4s-.1-1.2-.4-1.6c-.2-.3-.5-.7-.5-1.3 0-1.3.9-2.2 2-2.2m0-2c-2.2 0-4.1 1.8-4.1 4 0 1 .4 1.9 1 2.6-.6.4-1.2.9-1.6 1.6l-14.7 25.9-12.5-25.7c-.3-.6-.7-1-1.1-1.4.8-.7 1.3-1.8 1.3-3 0-2.2-1.8-4-4.1-4-2.2 0-4 1.8-4 4 0 1.2.5 2.3 1.3 3-.4.4-.8.8-1.1 1.4l-12 24.6-14.1-24.8c-.4-.7-1-1.3-1.7-1.6.6-.7.9-1.6.9-2.6 0-2.2-1.8-4-4-4s-4 1.8-4 4c0 1.5.8 2.8 2 3.5-.3.3-.6.8-.8 1.2l-13.9 33.5c-.2.5-.5 1.1-.5 1.6v3.4c0 2.3 2.3 4.7 4.6 4.7h95.8c2.3 0 4.6-2.4 4.6-4.7v-3.4c0-.6-.3-1.1-.5-1.6l-13.7-33.5c-.2-.5-.5-.9-.9-1.3 1.1-.7 1.9-2 1.9-3.4 0-2.2-1.8-4-4.1-4z" fill="#424242" opacity=".2"/><path d="m100.1 99.6h-72.3c-8.8 0-16-7.2-16-16v-16.1h104.3v16.1c0 8.8-7.2 16-16 16z" fill="#fdd835"/><path d="m112.3 49.1-8.1 14.5c-2 1.9-5.3 1.2-6.4-1.3l-10.4-28.2c-1.5-3-5.8-2.9-7.5 0l-12.3 26.7c-1.5 2.8-5.6 2.8-7.1-.1l-11.7-26.6c-1.5-3.2-6.1-3.2-7.6 0l-10 28.1c-1.1 2.6-4.4 3.3-6.4 1.4l-8-14.5c-2.6-3.2-7.8-1.1-7.5 3l3 41.7c0 7.2 5.6 13.2 12.5 13.2h4.4 1.4 32.9 1.5 33.2 1.4 4.4c6.9 0 12.6-6.1 12.6-13.2l3-41.7c.5-4.1-4.6-6.2-7.3-3z" fill="url(#g)"/><circle cx="84.5" cy="28.3" fill="url(#i)" r="7.1"/><circle cx="44.6" cy="28.3" fill="url(#j)" r="7.1"/><circle cx="10.1" cy="45.8" fill="url(#k)" r="6.1"/><circle cx="117.9" cy="45.8" fill="url(#l)" r="6.1"/><path d="m84.5 24.2c2.3 0 4.1 1.8 4.1 4.1 0 1.6-.9 3-2.3 3.7s-2 2.3-1.5 3.7l10.2 27.6.1.2c1.1 2.6 3.6 4.2 6.4 4.2 1.8 0 3.4-.7 4.8-1.9.2-.2.4-.5.6-.7l7.9-14.2c.9-1 1.1-2.4.5-3.6-.2-.5-.4-1-.4-1.5 0-1.7 1.4-3.1 3.1-3.1s3.1 1.4 3.1 3.1c0 1.3-.9 2.5-2.1 2.9-1.3.4-2.1 1.6-2.1 2.9v.2l-3 41.6v.2c0 2.8-1.1 5.5-3.1 7.4-1.8 1.8-4.1 2.8-6.5 2.8h-79.5c-2.4 0-4.7-1-6.5-2.8-2-1.9-3.1-4.7-3.1-7.4 0-.1 0-.2 0-.2l-3-41.6v-.2c0-1.5-1.1-2.7-2.6-2.9-1.5 0-2.6-1.3-2.6-2.9 0-1.7 1.4-3.1 3.1-3.1s3.1 1.4 3.1 3.1c0 .4-.1.8-.2 1.2-.6 1.4-.1 2.9 1.2 3.7.1 0 .1.1.2.1l7.8 14.2c.1.3.4.5.6.7 1.3 1.2 3 1.9 4.8 1.9 2.8 0 5.4-1.7 6.5-4.3 0 0 0-.1.1-.1l9.9-27.7c.5-1.4-.1-2.9-1.3-3.6-1.3-.7-2.1-2.1-2.1-3.5 0-2.3 1.8-4.1 4.1-4.1s4.1 1.8 4.1 4.1c0 1.3-.6 2.5-1.7 3.3-1.2.9-1.6 2.5-.9 3.8l11.5 26.5c0 .1 0 .1.1.2 1.2 2.3 3.6 3.8 6.2 3.8s4.9-1.4 6.2-3.7c0-.1.1-.1.1-.2l12.2-26.5c.9-1.3.6-3-.6-4-1-.8-1.6-2-1.6-3.2 0-2.3 1.8-4.2 4.1-4.2m0-3c-3.9 0-7.1 3.2-7.1 7.1 0 2.2 1.1 4.2 2.7 5.5-.1.2-.2.2-.2.3l-12.3 26.7c-.8 1.4-2.1 2.1-3.5 2.1s-2.8-.7-3.6-2.2l-11.7-26.6s0 0 0-.1c1.8-1.3 2.9-3.4 2.9-5.7 0-3.9-3.2-7.1-7.1-7.1s-7.1 3.2-7.1 7.1c0 2.6 1.4 4.9 3.6 6.2l-9.9 27.7c-.7 1.6-2.2 2.5-3.7 2.5-1 0-1.9-.3-2.7-1.1l-8-14.5c-.3-.4-.7-.7-1.1-.9.3-.7.5-1.5.5-2.3 0-3.4-2.7-6.1-6.1-6.1-3.3 0-6.1 2.7-6.1 6.1 0 3.1 2.3 5.6 5.3 6v.2l3 41.7c0 7.2 5.6 13.2 12.6 13.2h4.4 1.4 67.7 1.4 4.4c6.9 0 12.6-6.1 12.6-13.2l3-41.7c0-.2 0-.3 0-.4 2.4-.8 4.2-3.1 4.2-5.8 0-3.4-2.7-6.1-6.1-6.1s-6.1 2.7-6.1 6.1c0 1.1.3 2.1.8 2.9-.1.1-.2.2-.3.3l-8.1 14.5c-.8.7-1.8 1.1-2.7 1.1-1.5 0-3-.9-3.7-2.4l-10.2-27.6c2.3-1.2 4-3.6 4-6.4 0-3.9-3.2-7.1-7.1-7.1z" fill="#424242" opacity=".2"/><circle cx="64.5" cy="81.4" fill="url(#n)" r="11.2"/><circle cx="37.5" cy="81.4" fill="url(#p)" r="6.4"/><circle cx="91.6" cy="81.4" fill="url(#q)" r="6.4"/><ellipse cx="12.5" cy="81.4" fill="url(#r)" rx="5.6" ry="7.4"/><ellipse cx="116.6" cy="81.4" fill="url(#s)" rx="5.6" ry="7.4"/><g fill="#424242"><path d="m12.5 76c2 0 3.6 2.5 3.6 5.4s-1.7 5.4-3.6 5.4-3.6-2.5-3.6-5.4 1.6-5.4 3.6-5.4m0-2c-3.1 0-5.6 3.3-5.6 7.4s2.5 7.4 5.6 7.4 5.6-3.3 5.6-7.4-2.5-7.4-5.6-7.4z" opacity=".2"/><path d="m116.6 76c2 0 3.6 2.5 3.6 5.4s-1.7 5.4-3.6 5.4-3.6-2.5-3.6-5.4 1.6-5.4 3.6-5.4m0-2c-3.1 0-5.6 3.3-5.6 7.4s2.5 7.4 5.6 7.4 5.6-3.3 5.6-7.4-2.5-7.4-5.6-7.4z" opacity=".2"/><path d="m64.5 72.2c5.1 0 9.2 4.1 9.2 9.2s-4.1 9.2-9.2 9.2-9.2-4.1-9.2-9.2 4.2-9.2 9.2-9.2m0-2c-6.2 0-11.2 5-11.2 11.2s5 11.2 11.2 11.2 11.2-5 11.2-11.2-5-11.2-11.2-11.2z" opacity=".2"/><path d="m37.5 77c2.4 0 4.4 2 4.4 4.4s-2 4.4-4.4 4.4-4.4-2-4.4-4.4 1.9-4.4 4.4-4.4m0-2c-3.5 0-6.4 2.8-6.4 6.4s2.8 6.4 6.4 6.4 6.4-2.8 6.4-6.4-2.9-6.4-6.4-6.4z" opacity=".2"/><path d="m91.6 77c2.4 0 4.4 2 4.4 4.4s-2 4.4-4.4 4.4-4.4-2-4.4-4.4 2-4.4 4.4-4.4m0-2c-3.5 0-6.4 2.8-6.4 6.4s2.8 6.4 6.4 6.4 6.4-2.8 6.4-6.4-2.9-6.4-6.4-6.4z" opacity=".2"/></g></svg>