<svg fill="none" height="32" viewBox="0 0 32 32" width="32" xmlns="http://www.w3.org/2000/svg"><path d="m11.0796 2.73553c.6983.85579.5707 2.11567-.2851 2.81402-2.92542 2.38719-4.7945 6.01765-4.7945 10.09045 0 5.5254 4.4746 10 10 10s10-4.4746 10-10c0-3.8654-3.1346-7-7-7s-7 3.1346-7 7c0 2.2154 1.7846 4 4 4s4-1.7846 4-4c0-.5554-.4446-1-1-1s-1 .4446-1 1c0 1.1046-.8954 2-2 2s-2-.8954-2-2c0-2.7646 2.2354-5 5-5s5 2.2354 5 5c0 4.4246-3.5754 8-8 8s-8-3.5754-8-8c0-6.07457 4.9254-11 11-11s11 4.92543 11 11c0 7.7346-6.2654 14-14 14-7.73457 0-14-6.2654-14-14 0-5.3272 2.45092-10.07674 6.26553-13.18955.85579-.69835 2.11567-.57071 2.81407.28508z" fill="#1345b7"/></svg>