<svg enable-background="new 0 0 512 512" viewBox="0 0 512 512" xmlns="http://www.w3.org/2000/svg"><path d="m76.174 368.081s1.381 1.33 4.057 3.906c1.338 1.288 3 2.888 4.974 4.789 1.711 1.478 3.692 3.191 5.936 5.13.557.489 1.131.993 1.72 1.51.657.517 1.332 1.048 2.025 1.593 1.392 1.093 2.855 2.243 4.388 3.448.767.602 1.551 1.218 2.353 1.848.833.587 1.684 1.186 2.553 1.798 1.735 1.23 3.541 2.51 5.418 3.84 7.693 5.027 16.689 10.636 27.409 15.713 10.703 5.077 22.98 9.873 36.804 13.605 13.814 3.709 29.163 6.463 45.735 7.254 2.072.063 4.161.126 6.266.19 1.053.032 2.11.064 3.171.096 1.061-.02 2.126-.04 3.196-.06 2.139-.034 4.295-.069 6.467-.103 2.17-.087 4.35-.275 6.551-.402 4.41-.175 8.838-.82 13.348-1.29 1.13-.1 2.252-.29 3.377-.48 1.126-.183 2.256-.367 3.39-.551 2.262-.396 4.568-.653 6.833-1.197 2.278-.481 4.57-.965 6.877-1.452 1.16-.217 2.302-.526 3.447-.834 1.147-.302 2.298-.605 3.452-.908 4.652-1.098 9.217-2.696 13.894-4.125 2.319-.773 4.603-1.687 6.93-2.524 1.161-.426 2.325-.854 3.493-1.282 1.152-.468 2.291-.976 3.443-1.462 2.295-.993 4.626-1.942 6.934-2.973 2.274-1.106 4.56-2.218 6.858-3.336 9.084-4.668 18.209-9.813 26.864-16.036 8.696-6.14 17.255-12.891 25.21-20.612 1.012-.945 2.027-1.893 3.043-2.842.923-.96 1.849-1.922 2.776-2.885 1.084-1.126 2.17-2.254 3.259-3.385l.817-.848c.267-.279.43-.495.65-.746l1.246-1.453c.838-.965 1.677-1.931 2.518-2.9l1.272-1.448 1.28-1.631c.857-1.091 1.716-2.184 2.576-3.279.848-1.104 1.767-2.161 2.541-3.326 6.651-8.99 12.541-18.753 17.481-29.158 9.907-20.782 16.089-44.148 17.378-68.43 1.29-24.262-2.312-49.373-11.094-73.084-8.743-23.717-22.693-45.962-41.066-64.636l-3.53-3.409c-1.304-1.239-2.775-2.729-3.798-3.538-2.256-1.916-4.34-3.865-6.998-5.854-1.271-.979-2.503-2.014-3.801-2.959l-3.938-2.783c-.659-.461-1.305-.943-1.973-1.391l-2.041-1.289-4.078-2.598c-5.594-3.202-11.258-6.358-17.249-8.863-2.933-1.394-6.013-2.443-9.034-3.65-1.52-.581-3.086-1.033-4.627-1.562-1.549-.504-3.082-1.065-4.667-1.46-25.049-7.398-52.322-8.074-78.154-2.066l-4.811 1.262-2.409.625-2.372.751-4.752 1.49-4.671 1.73-2.339.86-2.29.982-4.589 1.951-4.484 2.183-2.247 1.086-2.185 1.205-4.381 2.395-4.253 2.621-2.132 1.304-2.062 1.413-4.127 2.826c-5.336 4.001-10.615 8.12-15.428 12.787l-1.835 1.715-.46.428c.025-.04-.705.694-.06.019l-.997 1.036-3.989 4.143c-.372.372-.574.63-.82.916l-.725.847-1.46 1.685c-.491.579-.977 1.075-1.478 1.717l-1.506 1.923c-2.079 2.514-3.897 5.215-5.794 7.862-1.731 2.754-3.559 5.452-5.096 8.323-.805 1.413-1.633 2.816-2.327 4.288-.717 1.46-1.49 2.893-2.176 4.369l-1.977 4.463c-.665 1.486-1.184 3.031-1.792 4.541-.287.761-.606 1.511-.869 2.281l-.762 2.32c-.492 1.551-1.077 3.074-1.468 4.657l-1.303 4.708-1.076 4.765c-5.476 25.504-2.706 52.624 7.38 76.382 1.193 3.004 2.68 5.868 4.066 8.779 1.572 2.813 3.036 5.686 4.791 8.387 1.617 2.786 3.534 5.376 5.333 8.04 1.973 2.54 3.845 5.156 5.986 7.559 2.012 2.509 4.294 4.783 6.466 7.15l3.61 3.488c.325.307.696.681.982.934l.801.681 1.59 1.374.79.694c.251.23.528.465.849.706l1.831 1.435 1.825 1.443 1.894 1.344c2.495 1.836 5.121 3.47 7.758 5.07 21.252 12.584 46.792 17.244 70.663 13.414 5.963-.939 11.847-2.307 17.515-4.244 5.672-1.922 11.155-4.302 16.393-7.093 1.29-.733 2.625-1.385 3.882-2.169l3.784-2.322 3.656-2.506c.619-.403 1.211-.843 1.79-1.3l1.758-1.343c.583-.45 1.18-.882 1.754-1.343l1.683-1.431c1.112-.964 2.281-1.86 3.326-2.9l1.609-1.509.806-.752.403-.375c.45-.449-.165.201.069-.047 1.203-1.25 2.404-2.497 3.604-3.744l2.493-2.875c.847-1.017 1.728-2.194 2.598-3.274.866-1.107 1.63-2.285 2.458-3.416s1.513-2.353 2.285-3.518c2.931-4.754 5.391-9.762 7.353-14.931 3.931-10.339 5.852-21.322 5.784-32.157-.06-10.836-2.081-21.523-5.889-31.34-3.801-9.817-9.219-18.838-15.988-26.548-.798-1.004-1.739-1.884-2.593-2.835l-.654-.702-.326-.351c-.408-.411.199.171-.025-.041l-1.663-1.601-1.634-1.564-1.217-1.036-1.202-1.055-1.435-1.122c-3.811-3.001-7.88-5.589-12.127-7.74-8.492-4.308-17.692-6.843-26.867-7.626-9.18-.792-18.315.162-26.797 2.587-8.483 2.456-16.277 6.395-23.086 11.354-3.402 2.447-6.567 5.319-9.379 8.187l-1.326 1.377-.818.964-.826.94c-.285.336-.594.755-.891 1.126-.604.761-1.215 1.514-1.75 2.315-.553.789-1.135 1.556-1.624 2.378-4.161 6.421-6.973 13.447-8.421 20.544-1.45 7.1-1.573 14.233-.63 20.952.963 6.723 3.026 13.015 5.84 18.628 1.435 2.793 3.001 5.453 4.763 7.909 1.791 2.43 3.624 4.766 5.671 6.837l.37.399.184.199c-.568-.544-.014-.013-.077-.073l.993.956c.645.619 1.402 1.368 1.732 1.609.431.372.859.741 1.285 1.108.522.411 1.041.819 1.556 1.225 2.101 1.571 4.258 2.945 6.44 4.143 8.8 4.734 17.984 6.141 25.746 5.787 7.816-.389 14.258-2.478 19.087-4.792 4.871-2.296 8.169-4.862 10.33-6.619.53-.457 1.013-.837 1.405-1.194.386-.363.71-.668.97-.912.523-.485.789-.731.789-.731l.674-.624c6.681-6.188 17.114-5.787 23.301.894 6.104 6.592 5.783 16.848-.642 23.063 0 0-.429.414-1.273 1.23-.424.406-.953.912-1.584 1.516-.641.594-1.42 1.251-2.292 2.012-.862.773-1.884 1.576-3.02 2.458-1.118.905-2.408 1.813-3.814 2.794-1.39 1.002-2.984 1.949-4.665 3.001-1.724.983-3.56 2.044-5.59 3.018-8.04 3.98-18.774 7.629-31.823 8.442-6.507.403-13.563.027-20.925-1.369-3.678-.719-7.421-1.717-11.202-2.983-3.763-1.319-7.552-2.918-11.311-4.842-3.736-1.966-7.432-4.251-11.019-6.873-.881-.676-1.767-1.355-2.659-2.04-.913-.73-1.888-1.582-2.827-2.387-1.07-.909-1.605-1.444-2.292-2.083l-1.005-.943-.572-.555-.293-.302-.586-.607c-3.191-3.181-6.142-6.76-8.975-10.547-2.806-3.814-5.345-7.953-7.649-12.328-4.553-8.777-7.927-18.647-9.579-29.197-1.633-10.544-1.586-21.758.563-33.011 2.143-11.242 6.451-22.503 12.957-32.838.782-1.312 1.667-2.561 2.538-3.827.853-1.279 1.792-2.501 2.737-3.725.481-.618.921-1.215 1.442-1.852l1.647-1.94 1.666-1.924 1.308-1.393 1.313-1.398c.029-.039.847-.865.699-.706l.412-.398.826-.797c1.117-1.048 2.183-2.157 3.363-3.154 1.168-1.01 2.34-2.023 3.516-3.04 1.225-.96 2.454-1.923 3.687-2.89 10.024-7.526 21.633-13.574 34.267-17.4 12.632-3.799 26.246-5.406 40.005-4.402 13.75.992 27.652 4.613 40.595 10.965 6.469 3.17 12.691 7.014 18.512 11.475l2.183 1.68 2.279 1.929 2.27 1.957 1.713 1.599 1.683 1.58c.06.048.935.907.79.778l.47.487.941.975c1.236 1.32 2.548 2.573 3.718 3.967 9.729 10.812 17.7 23.617 23.306 37.612 5.621 13.995 8.724 29.237 9.014 44.755.3 15.514-2.24 31.327-7.728 46.347-2.74 7.508-6.21 14.812-10.371 21.759-1.079 1.712-2.086 3.477-3.248 5.142-1.162 1.664-2.273 3.371-3.498 4.995-1.253 1.627-2.428 3.218-3.768 4.868-1.406 1.664-2.869 3.384-4.27 4.978-1.184 1.261-2.37 2.524-3.557 3.789-.058.073-.994 1.015-.858.866l-.54.522-1.082 1.043-2.17 2.084c-1.421 1.418-2.983 2.692-4.494 4.025l-2.288 1.979c-.778.642-1.583 1.255-2.375 1.883l-2.391 1.871c-.792.632-1.599 1.244-2.437 1.817-1.661 1.167-3.323 2.335-4.988 3.504-1.72 1.089-3.442 2.179-5.166 3.271-1.725 1.091-3.538 2.041-5.311 3.063-7.171 3.946-14.702 7.328-22.499 10.074-7.794 2.762-15.88 4.777-24.095 6.176-16.434 2.764-33.494 2.851-50.207-.118-16.699-2.937-33.103-8.699-48.059-17.316-3.721-2.175-7.409-4.434-10.935-6.939-.887-.617-1.785-1.222-2.663-1.855l-2.58-1.969-2.577-1.979c-.424-.316-.862-.674-1.309-1.059l-1.327-1.124-2.645-2.263-1.318-1.138c-.412-.364-.699-.65-1.055-.979l-2.038-1.913-1.02-.957-.51-.479c.173.175-.803-.766-.91-.888-2.939-3.069-5.958-6.071-8.695-9.35-2.861-3.168-5.434-6.589-8.077-9.959-2.472-3.498-5.032-6.947-7.262-10.624-2.368-3.59-4.414-7.381-6.533-11.134-1.933-3.851-3.933-7.679-5.602-11.666-13.909-31.638-18.062-67.812-11.171-102.205l1.373-6.43 1.665-6.366c.522-2.133 1.25-4.207 1.895-6.306l1-3.14c.345-1.043.749-2.065 1.123-3.099.782-2.054 1.487-4.14 2.348-6.164l2.598-6.069c.903-2.007 1.905-3.969 2.86-5.953.933-1.997 2.009-3.919 3.074-5.848 2.056-3.902 4.442-7.612 6.771-11.356 2.493-3.635 4.948-7.303 7.695-10.754l2.015-2.622c.672-.873 1.489-1.787 2.23-2.676l2.286-2.678 1.148-1.334c.38-.439.788-.922 1.092-1.231l3.936-4.193.984-1.048c.991-1.006.609-.602.981-.972l.582-.562 2.333-2.247c24.764-24.149 56.295-41.402 89.814-49.822 33.572-8.29 69.138-7.856 102.159 1.415 2.082.511 4.112 1.197 6.156 1.835 2.036.663 4.095 1.256 6.105 1.986 4.005 1.506 8.057 2.885 11.955 4.642 7.918 3.229 15.468 7.238 22.883 11.408l5.432 3.345 2.709 1.679c.889.58 1.755 1.194 2.633 1.79l5.238 3.613c1.726 1.229 3.38 2.552 5.069 3.827l2.517 1.932c.421.33.834.627 1.261.985l1.283 1.083 5.107 4.357c1.848 1.546 2.986 2.697 4.385 3.991l2.025 1.901 1.012.95.506.475c-.226-.225.871.831.959.935 23.467 23.229 41.668 51.356 53.187 81.448 11.582 30.092 16.581 62.044 15.322 93.066-1.25 31.044-8.768 61.136-21.202 88.087-6.199 13.488-13.641 26.191-22.066 37.903-.996 1.506-2.139 2.898-3.215 4.336-1.092 1.426-2.183 2.849-3.271 4.27l-1.642 2.127-1.823 2.157c-1.22 1.432-2.438 2.861-3.654 4.288l-1.83 2.13c-.298.341-.627.739-.899 1.031l-.806.859c-1.074 1.144-2.146 2.286-3.216 3.426-1.228 1.3-2.454 2.598-3.677 3.893-1.24 1.196-2.477 2.389-3.712 3.58-9.747 9.663-20.26 18.23-31.009 26.01-10.708 7.866-21.992 14.485-33.287 20.444-2.857 1.431-5.7 2.855-8.527 4.271-2.867 1.332-5.76 2.569-8.618 3.84-1.434.625-2.856 1.269-4.29 1.87-1.451.56-2.899 1.117-4.342 1.674-2.894 1.092-5.748 2.251-8.636 3.257-5.815 1.895-11.523 3.916-17.316 5.395-1.44.396-2.876.792-4.308 1.186-1.431.398-2.857.795-4.302 1.096-2.879.647-5.741 1.29-8.584 1.929-2.833.693-5.705 1.088-8.532 1.614-1.417.247-2.829.492-4.237.737-1.407.249-2.81.496-4.221.652-5.633.69-11.179 1.516-16.694 1.837-2.753.201-5.485.452-8.202.595-2.72.082-5.42.163-8.1.244-1.34.037-2.676.075-4.006.112-1.33-.019-2.656-.038-3.976-.056-2.641-.049-5.261-.098-7.861-.147-20.796-.735-40.135-3.923-57.597-8.38-17.474-4.479-33.059-10.334-46.672-16.594-13.632-6.26-25.14-13.172-34.944-19.448-2.399-1.65-4.709-3.239-6.928-4.764-1.108-.766-2.192-1.516-3.254-2.25-1.028-.78-2.033-1.543-3.016-2.288-1.96-1.501-3.83-2.932-5.609-4.294-.889-.687-1.755-1.357-2.598-2.008-.853-.721-1.683-1.423-2.489-2.104-3.21-2.745-6.046-5.17-8.493-7.263-1.998-1.876-3.68-3.455-5.034-4.726-2.708-2.542-4.106-3.854-4.106-3.854-11.609-10.897-12.187-29.141-1.29-40.751 10.897-11.609 29.141-12.187 40.751-1.29.055.046.22.203.269.25z" fill="#59cafc"/></svg>