<svg enable-background="new 0 0 128 128" viewBox="0 0 128 128" xmlns="http://www.w3.org/2000/svg" xmlns:xlink="http://www.w3.org/1999/xlink"><radialGradient id="a" cx="63.667" cy="64" gradientUnits="userSpaceOnUse" r="51.3397"><stop offset=".2004" stop-color="#1565c0"/><stop offset=".7683" stop-color="#1e88e5"/></radialGradient><path d="m123.1 52.7c0-9.3-2.3-18.2-6.5-25.9.6 3 .9 6 .9 9.1 0 12-4.3 23-11.6 31.8.1-1 .1-1.9.1-2.9 0-.2 0-.4 0-.7 0 0 0-.5 0-.6 0-32.3-25.2-58.6-56.4-58.6-9.3 0-18.2 2.3-25.9 6.5 3-.6 6-.9 9.1-.9 11.2 0 21.5 3.8 30 10.2-1.4 0-2.8.1-4.1.3-30.1 2.3-53.7 26.5-53.7 56.1 0 9.3 2.4 18.2 6.6 25.9-.6-3-.9-6-.9-9.1 0-11.3 3.8-21.7 10.3-30.2v.3.5.1.1c0 .8 0 1.6.1 2.4 1.3 31.2 26 56 56.3 56 9.3 0 18.2-2.4 25.9-6.6-3 .6-6 .9-9.1.9-10.1 0-19.5-3.1-27.4-8.3 31.3-1.2 56.3-26 56.3-56.4zm-59.1 31.3c-10.7 0-19.3-9-19.3-20s8.6-20 19.3-20 19.3 9 19.3 20-8.7 20-19.3 20z" fill="url(#a)"/><path d="m49.6 7.9c29.5 0 53.4 25 53.4 55.7v.7.2.3.1c0 .9 0 1.5-.1 2.5-.1 1.3.7 2.5 1.9 3 .4.1.7.2 1.1.2.9 0 1.7-.4 2.3-1.1 5.9-7.2 9.8-15.4 11.4-24.2.3 2.4.5 4.8.5 7.3 0 13.9-5.5 27.1-15.6 37.1s-23.4 15.8-37.8 16.3c-1.3.1-2.4.9-2.8 2.2s.1 2.6 1.2 3.3c6 4 12.7 6.7 19.7 8-2.5.4-4.9.5-7.5.5-13.8 0-27-5.5-37-15.4s-15.8-23.3-16.4-37.7c0-.8-.1-1.4-.1-2.1 0-.1 0-.2 0-.3v-.3-.1c0-.1 0-.2 0-.3-.1-1.6-1.4-2.8-3-2.8-1 0-2.1.6-2.7 1.6-5 6.7-8.3 14.2-9.8 22.1-.4-2.5-.5-5-.5-7.5 0-13.5 5.2-26.3 14.7-36.2 9.7-10 22.5-16 36.4-17.1h.1c1.2-.1 2.4-.2 3.8-.2 1.3 0 2.4-.9 2.8-2.1s0-2.5-1-3.3c-6.6-5-14.1-8.3-22-9.8 2.3-.4 4.6-.6 7-.6m14.4 79.1c12.3 0 22.3-10.3 22.3-23s-10-23-22.3-23-22.3 10.3-22.3 23 10 23 22.3 23m-14.4-82.1c-9.3 0-18.2 2.3-25.9 6.4 3-.6 6-.9 9.1-.9 11.2 0 21.5 3.8 30 10.1-1.4 0-2.8.1-4.1.3-30.1 2.5-53.7 26.7-53.7 56.3 0 9.3 2.4 18.2 6.6 25.9-.6-3-.9-6-.9-9.1 0-11.3 3.8-21.5 10.3-29.9v-.1.1.5.2c0 .8 0 1.5.1 2.3 1.2 31.2 25.9 56 56.3 56 9.3 0 18.2-2.4 25.9-6.6-3 .6-6 .9-9.1.9-10.1 0-19.5-3.1-27.4-8.3 31.3-1.1 56.3-25.9 56.3-56.4 0-9.3-2.3-18.2-6.5-25.9.6 3 .9 6 .9 9.1 0 12-4.3 23-11.6 31.8.1-1 .1-1.7.1-2.7 0-.2 0-.4 0-.4s0-.7 0-.9c0-32.3-25.3-58.7-56.4-58.7zm14.4 79.1c-10.7 0-19.3-9-19.3-20s8.6-20 19.3-20 19.3 9 19.3 20-8.7 20-19.3 20z" fill="#424242" opacity=".2"/></svg>