<svg enable-background="new 0 0 128 128" viewBox="0 0 128 128" xmlns="http://www.w3.org/2000/svg" xmlns:xlink="http://www.w3.org/1999/xlink"><radialGradient id="a" cx="64" cy="-2088.8999" gradientTransform="matrix(1 0 0 -1 0 -2026)" gradientUnits="userSpaceOnUse" r="56.9597"><stop offset=".5" stop-color="#fde030"/><stop offset=".9188" stop-color="#f7c02b"/><stop offset="1" stop-color="#f4a223"/></radialGradient><path d="m64 118.8c-27.9 0-58-17.5-58-55.9s30.1-55.9 58-55.9c15.5 0 29.8 5.1 40.4 14.4 11.5 10.2 17.6 24.6 17.6 41.5s-6.1 31.2-17.6 41.4c-10.6 9.3-25 14.5-40.4 14.5z" fill="url(#a)"/><path d="m111.89 29.67c5.33 8.6 8.11 18.84 8.11 30.23 0 16.9-6.1 31.2-17.6 41.4-10.6 9.3-25 14.5-40.4 14.5-18.06 0-37.04-7.35-48.18-22.94 10.76 17.66 30.99 25.94 50.18 25.94 15.4 0 29.8-5.2 40.4-14.5 11.5-10.2 17.6-24.5 17.6-41.4 0-12.74-3.47-24.06-10.11-33.23z" fill="#eb8f00"/><path d="m64 118.8c-27.9 0-58-17.5-58-55.9s30.1-55.9 58-55.9c15.5 0 29.8 5.1 40.4 14.4 11.5 10.2 17.6 24.6 17.6 41.5s-6.1 31.2-17.6 41.4c-10.6 9.3-25 14.5-40.4 14.5z" fill="url(#a)"/><path d="m111.89 29.67c5.33 8.6 8.11 18.84 8.11 30.23 0 16.9-6.1 31.2-17.6 41.4-10.6 9.3-25 14.5-40.4 14.5-18.06 0-37.04-7.35-48.18-22.94 10.76 17.66 30.99 25.94 50.18 25.94 15.4 0 29.8-5.2 40.4-14.5 11.5-10.2 17.6-24.5 17.6-41.4 0-12.74-3.47-24.06-10.11-33.23z" fill="#eb8f00"/><g fill="#5f7aff"><path d="m38.53 48c.05 0 .02 0 0 0z"/><path d="m95.86 48c.04 0 .02 0 0 0z"/><path d="m36.53 48c.05 0 .02 0 0 0z"/><path d="m93.86 48c.04 0 .02 0 0 0z"/></g><path d="m82.1 34.68c-8.45 2.31-13.06 9.49-11.62 18.67.88 5.66 6.55 16.63 21.59 13.31 8.97-1.98 13.51-8.51 13.34-17.06-.01-.53-.35-.84-.45-.86 0 0-.21.2-.55 1.47-1.72 6.39-6.21 12.36-14.24 13.25-10.05 1.12-15.17-5.86-15.95-10.86-1.03-6.65 2.35-12.47 8.89-14.26 3.87-1.06 7.63.04 10.32 3.02 1.26 1.4 2.62 3.99 2.16 6.55-1.27 6.99-7.76 6.89-9.99 5.23-1.7-1.28-2.3-3.94 1.25-4.81 1.29-.31 2.4-.61 2.75-2.32.23-1.09-.67-2.2-1.64-2.69-2.14-1.09-4.85-.08-6.46 1.32-1.73 1.5-2.45 3.85-1.99 6.44.36 2.02 2 4.66 4.83 6.07 3.49 1.74 12.69 1.53 14.85-7.49.99-4.15-.82-8.44-2.76-10.65-5.47-6.19-12.95-4.71-14.33-4.33z" fill="#422b0d"/><path d="m45.9 66.85c8.45-2.31 13.06-9.49 11.62-18.67-.88-5.66-6.55-16.63-21.59-13.31-8.97 1.98-13.51 8.51-13.34 17.06.01.53.35.84.45.86 0 0 .21-.2.55-1.47 1.72-6.39 6.21-12.36 14.24-13.25 10.05-1.12 15.17 5.86 15.95 10.86 1.03 6.65-2.35 12.47-8.89 14.26-3.87 1.06-7.63-.04-10.32-3.02-1.26-1.4-2.62-3.99-2.16-6.55 1.27-6.99 7.76-6.89 9.99-5.23 1.7 1.28 2.3 3.94-1.25 4.81-1.29.31-2.4.61-2.75 2.32-.23 1.09.67 2.2 1.64 2.69 2.14 1.09 4.85.08 6.46-1.32 1.73-1.5 2.45-3.85 1.99-6.44-.36-2.02-2-4.66-4.83-6.07-3.49-1.74-12.69-1.53-14.85 7.49-.99 4.15.82 8.44 2.76 10.65 5.47 6.18 12.95 4.71 14.33 4.33z" fill="#422b0d"/><path d="m99.49 87.26c-1.49-1.72-6.05-4.81-14.33-.76-1.84.9-2.81 1.92-6.14 1.68-2.19-.15-3.83-1.21-5.71-2.42-2.39-1.54-5.1-3.26-9.3-3.43-4.2.17-6.91 1.89-9.3 3.43-1.89 1.22-3.52 2.27-5.71 2.42-3.33.24-4.39-.62-6.23-1.52-8.28-4.05-12.75-1.12-14.24.6-1.33 1.54-.43 3.18 2.02 1.43 1.51-1.08 4.22-2.45 10.35 1.01 1.97 1.11 3.83 2.79 8.38 2.47 3.22-.23 5.45-1.66 7.6-3.05 2.1-1.36 4.11-2.63 7.13-2.79 3.03.16 5.03 1.43 7.13 2.79 2.15 1.39 4.38 2.83 7.6 3.05 4.55.32 6.32-1.52 8.29-2.63 6.13-3.46 8.93-1.93 10.44-.85 2.44 1.75 3.35.11 2.02-1.43z" fill="#422b0d"/></svg>