<svg xmlns="http://www.w3.org/2000/svg" xmlns:xlink="http://www.w3.org/1999/xlink" fill="none" viewBox="9.52 9.52 60.95 60.95"><radialGradient id="a" cx="34.0039" cy="27.649" gradientUnits="userSpaceOnUse" r="36.7656"><stop offset="0" stop-color="#ffe030"/><stop offset="1" stop-color="#ffb92e"/></radialGradient><radialGradient id="b" cx="34.0039" cy="27.649" gradientUnits="userSpaceOnUse" r="28.9251"><stop offset="0" stop-color="#ffea5f"/><stop offset="1" stop-color="#ffbc47" stop-opacity="0"/></radialGradient><linearGradient id="c"><stop offset=".00132565" stop-color="#3c2200"/><stop offset="1" stop-color="#7a4400"/></linearGradient><linearGradient id="d" gradientUnits="userSpaceOnUse" x1="26.2959" x2="25.4298" xlink:href="#c" y1="27.4186" y2="24.3261"/><linearGradient id="e"><stop offset=".00132565" stop-color="#7a4400"/><stop offset="1" stop-color="#643800"/></linearGradient><radialGradient id="f" cx="0" cy="0" gradientTransform="matrix(-4.68712807 .37102518 -.2630877 -3.32356347 28.2569 35.8776)" gradientUnits="userSpaceOnUse" r="1" xlink:href="#e"/><linearGradient id="g"><stop offset=".00132565" stop-color="#3c2200"/><stop offset="1" stop-color="#512d00"/></linearGradient><linearGradient id="h" gradientUnits="userSpaceOnUse" x1="28.7444" x2="28.3711" xlink:href="#g" y1="29.9583" y2="35.0759"/><linearGradient id="i" gradientUnits="userSpaceOnUse" x1="53.7361" x2="54.6022" xlink:href="#c" y1="27.4243" y2="24.3318"/><radialGradient id="j" cx="0" cy="0" gradientTransform="matrix(4.68713079 .37099082 -.26306334 3.3235654 51.7055 35.877)" gradientUnits="userSpaceOnUse" r="1" xlink:href="#e"/><linearGradient id="k" gradientUnits="userSpaceOnUse" x1="51.2268" x2="51.6" xlink:href="#g" y1="29.9599" y2="35.0775"/><radialGradient id="l" cx="68.4466" cy="71.1771" gradientUnits="userSpaceOnUse" r="21.7262"><stop offset="0" stop-color="#ff4c00"/><stop offset="1" stop-color="#e74a3a" stop-opacity="0"/></radialGradient><radialGradient id="m" cx="54.9341" cy="59.6557" gradientUnits="userSpaceOnUse" r="6.65457"><stop offset="0" stop-color="#ff8000" stop-opacity=".5"/><stop offset=".995" stop-color="#ff8000" stop-opacity="0"/></radialGradient><radialGradient id="n" cx="40.0005" cy="54.0349" gradientUnits="userSpaceOnUse" r="15.0994" xlink:href="#e"/><linearGradient id="o" gradientUnits="userSpaceOnUse" x1="61.3006" x2="49.2923" y1="57.6827" y2="49.6414"><stop offset="0" stop-color="#ef708c"/><stop offset="1" stop-color="#d93e15"/></linearGradient><linearGradient id="p" gradientUnits="userSpaceOnUse" x1="64.7059" x2="52.5154" y1="59.3852" y2="52.2741"><stop offset="0" stop-color="#ef708c"/><stop offset="1" stop-color="#f00"/></linearGradient><radialGradient id="q" cx="42.6008" cy="43.148" gradientUnits="userSpaceOnUse" r="18.4017"><stop offset=".6822" stop-color="#860805"/><stop offset="1" stop-color="#860805" stop-opacity="0"/></radialGradient><linearGradient id="r" gradientUnits="userSpaceOnUse" x1="57.1506" x2="66.8389" y1="54.4725" y2="64.621"><stop offset="0" stop-color="#d93e15" stop-opacity="0"/><stop offset="1" stop-color="#d93e15"/></linearGradient><path d="m40.0001 70.4762c16.8315 0 30.4762-13.6447 30.4762-30.4762s-13.6447-30.4762-30.4762-30.4762-30.47617 13.6447-30.47617 30.4762 13.64467 30.4762 30.47617 30.4762z" fill="url(#a)"/><path d="m40.0001 70.4762c16.8315 0 30.4762-13.6447 30.4762-30.4762s-13.6447-30.4762-30.4762-30.4762-30.47617 13.6447-30.47617 30.4762 13.64467 30.4762 30.47617 30.4762z" fill="url(#b)" opacity=".5"/><path d="m31.9429 23.7142c-.3238-1.1809-1.8095-1.5619-4-.9524-1.8666.5143-5.6571 2.6857-7.4476 7.0857-.3238.8191.5714.9524.9524.381 1.3143-1.9429 5.4286-5.1429 9.1429-5.7524 1.5047-.2286 1.3523-.7619 1.3523-.7619z" fill="url(#d)"/><path d="m31.7524 33.181c-2.1143-1.3142-4.8381-1.1619-6.8191.3239-1.0095.7619-2 1.9238-2.5905 3.7333-.0952.3048-.1714.6286-.1904.9524-.0381.6476.419 1.2381 1.1428.5524 5.6381-5.3143 9.581.1523 9.581.1523.7619.5524 1.5428-.5904 1.3904-1.6571-.0381-.3048-.0761-.6286-.1714-.9143-.419-1.5429-1.3524-2.5143-2.3428-3.1429z" fill="url(#f)"/><path d="m34.1142 36.3238c-.2095-.6476-.4762-1.1809-.7619-1.6381-.4571-.6476-1.0095-1.1238-1.5809-1.4857-2.1143-1.3143-4.8381-1.1619-6.8191.3238-1.0095.7619-2 1.9239-2.5905 3.7334-.0571.1714-.0952.3619-.1333.5524v.019c2.4762-3.8667 6.0572-4.1333 6.0572-4.1333s3.5428-.3048 5.9428 3.1619c-.0381-.1905-.0762-.3619-.1143-.5334z" fill="url(#h)"/><path d="m48.0573 23.7142c.3238-1.1809 1.8095-1.5619 4-.9524 1.8667.5143 5.6572 2.6857 7.4476 7.0857.3238.8191-.5714.9524-.9524.381-1.3142-1.9429-5.4285-5.1429-9.1428-5.7524-1.5048-.2286-1.3524-.7619-1.3524-.7619z" fill="url(#i)"/><path d="m48.2479 33.181c2.1142-1.3142 4.8381-1.1619 6.819.3239 1.0095.7619 2 1.9238 2.5905 3.7333.0952.3048.1714.6286.1905.9524.0381.6476-.4191 1.2381-1.1429.5524-5.6381-5.3143-9.581.1523-9.581.1523-.7619.5524-1.5428-.5904-1.3904-1.6571.0381-.3048.0762-.6286.1714-.9143.419-1.5429 1.3524-2.5143 2.3429-3.1429z" fill="url(#j)"/><path d="m45.886 36.3238c.2095-.6476.4762-1.1809.7619-1.6381.4572-.6476 1.0095-1.1238 1.581-1.4857 2.1143-1.3143 4.8381-1.1619 6.819.3238 1.0095.7619 2 1.9239 2.5905 3.7334.0571.1714.0952.3619.1333.5524v.019c-2.4762-3.8667-6.0571-4.1333-6.0571-4.1333s-3.5429-.3048-5.9429 3.1619c.0381-.1905.0762-.3619.1143-.5334z" fill="url(#k)"/><path d="m40.0001 70.4762c16.8315 0 30.4762-13.6447 30.4762-30.4762s-13.6447-30.4762-30.4762-30.4762-30.47617 13.6447-30.47617 30.4762 13.64467 30.4762 30.47617 30.4762z" fill="url(#l)"/><path d="m58.0381 55.5236c-5.4667-.4381-5.4667-.4381-5.4667-.4381l-2.4381 4.2286c3.3524 2.1334 2.6095 6.6095 2.4 8.4572 4.1143-1.8667 7.7333-4.6096 10.6286-7.981-.8762-2-2.4191-4.0381-5.1238-4.2667z" fill="url(#m)"/><path d="m40.0004 61.6188c13.6381 0 18.3047-10 19.5809-12.4761 1.2762-2.4762-.9333-3.6-1.7333-1.8667-2.3048 4.9143-7.9238 11.7333-17.8476 11.7333s-15.5429-6.819-17.8476-11.7333c-.8-1.7143-3.0096-.6095-1.7334 1.8667 1.2762 2.4761 5.9429 12.4761 19.581 12.4761z" fill="url(#n)"/><path d="m57.848 47.276c-2.3048 4.9143-7.9238 11.7333-17.8476 11.7333s-15.5429-6.819-17.8476-11.7333c-.8-1.7143-3.0096-.6095-1.7334 1.8666 0 0 .4191-1.9047 1.1048-.9904 1.6762 2.2285 5.4666 11.7904 18.4762 11.7904 3.8666 0 6.7619-1.2 9.3333-2.1333 1.219-.4381 1.5048 1.1238 1.5048 1.1238s.7047-.3428 1.0666-.6667c.2286-.1904-.8571-1.4095-.6285-1.5809 4.3238-2.9905 6.1523-7.1619 7.1809-8.5333.6857-.9143 1.1048.9904 1.1048.9904 1.2762-2.4761-.9143-3.5809-1.7143-1.8666z" fill="#3c2200"/><path d="m64.2667 52.6477-4.3619-4.1524c-.2285-.2476-1.1428-.8381-2.2285-.8953-1.3715 2.8191-3.8286 6.1715-7.5048 8.5143-.1524.4381.3809.7619.4762.8572l4.3238 4.5333c2.6857 2.8 7.0476 3.2191 9.6.7619 2.5524-2.4571 2.3809-6.8-.3048-9.619z" fill="url(#o)"/><path d="m64.2667 52.6477-4.3619-4.1524c-.2286-.2476-1.1428-.8381-2.2286-.8953-1.3714 2.8191-3.8095 6.1715-7.4857 8.4953-.1524.4381.381.7619.4762.8571l4.3238 4.5334c2.6857 2.8 7.0476 3.219 9.6.7619 2.5524-2.4572 2.3619-6.781-.3238-9.6z" fill="url(#p)"/><path d="m64.2667 52.6477-4.3619-4.1524c-.2286-.2476-1.1428-.8381-2.2286-.8953-1.3714 2.8191-3.8095 6.1715-7.4857 8.4953-.1524.4381.381.7619.4762.8571l4.3238 4.5334c2.6857 2.8 7.0476 3.219 9.6.7619 2.5524-2.4572 2.3619-6.781-.3238-9.6z" fill="url(#q)"/><path d="m55.9429 54.1714.9714-.9143c6.2286 6.5143 6.0953 6.819 5.8286 7.0666-.2857.2667-.6095.3429-6.8-6.1523z" fill="url(#r)"/></svg>