<svg enable-background="new 0 0 128 128" viewBox="0 0 128 128" xmlns="http://www.w3.org/2000/svg" xmlns:xlink="http://www.w3.org/1999/xlink"><radialGradient id="a" cx="63.6" cy="62.9" gradientUnits="userSpaceOnUse" r="56.9597"><stop offset=".5" stop-color="#fde030"/><stop offset=".92" stop-color="#f7c02b"/><stop offset="1" stop-color="#f4a223"/></radialGradient><path d="m63.6 118.8c-27.9 0-58-17.5-58-55.9s30.1-55.9 58-55.9c15.5 0 29.8 5.1 40.4 14.4 11.5 10.2 17.6 24.6 17.6 41.5s-6.1 31.2-17.6 41.4c-10.6 9.3-25 14.5-40.4 14.5z" fill="url(#a)"/><path d="m111.49 29.67c5.33 8.6 8.11 18.84 8.11 30.23 0 16.9-6.1 31.2-17.6 41.4-10.6 9.3-25 14.5-40.4 14.5-18.06 0-37-7.35-48.18-22.94 10.76 17.66 31 25.94 50.18 25.94 15.4 0 29.8-5.2 40.4-14.5 11.5-10.2 17.6-24.5 17.6-41.4 0-12.74-3.47-24.06-10.11-33.23z" fill="#eb8f00"/><path d="m82.65 33.62c3.81 0 7.26 5.65 7.26 15s-3.45 15-7.26 15c-3.8 0-7.25-5.64-7.25-15s3.45-15 7.25-15z" fill="#422b0d"/><path d="m45.27 33.62c-4.05 0-7.74 5.65-7.74 15s3.69 15 7.74 15c4.06 0 7.75-5.64 7.75-15s-3.69-15-7.75-15z" fill="#422b0d"/><path d="m45.05 37.29c-1.21-.73-2.78-.33-3.51.88-.02.04-.05.08-.07.12-.92 1.07-.81 2.69.26 3.61.03.03.06.05.1.08 1.2.73 2.77.34 3.5-.86.03-.05.05-.09.08-.14.92-1.08.8-2.7-.28-3.62-.03-.03-.05-.05-.08-.07z" fill="#896024"/><path d="m83.21 37.29c-1.22-.72-2.8-.32-3.52.9-.02.03-.04.07-.06.1-.91 1.09-.76 2.7.33 3.61.01.01.03.02.04.03 1.2.73 2.77.34 3.5-.86.03-.05.05-.09.08-.14.91-1.09.76-2.7-.33-3.61-.01-.01-.03-.02-.04-.03z" fill="#896024"/><path d="m102.07 71.62c-1.4-2.53-4.44-3.64-7.14-2.62-10.26 2.99-20.9 4.48-31.59 4.43-10.69.05-21.33-1.44-31.59-4.43-2.69-1.02-5.73.08-7.13 2.6-1.36 2.51-.38 5.42.77 7.93 6.42 14.1 20.57 22.54 37.87 22.59h.16c17.3 0 31.45-8.49 37.88-22.59 1.14-2.53 2.13-5.4.77-7.91z" fill="#422b0d"/><path d="m79.35 98.14c-.37-.34-.75-.65-1.13-1-4.08-3.59-9.36-5.52-14.8-5.41-5.6-.09-11.05 1.77-15.42 5.27-.38.31-.78.61-1.15 1s-.57.67-.81 1c5.5 2.15 11.36 3.25 17.27 3.22h.16c5.66 0 11.27-1.01 16.57-3-.2-.38-.43-.74-.69-1.08z" fill="#ed7770"/><path d="m94.93 69c-10.26 2.99-20.9 4.48-31.59 4.43-10.69.05-21.33-1.44-31.59-4.43-2.69-1.02-5.73.08-7.13 2.6-.2.38-.36.78-.46 1.19.33.17.71.34 1.16.52 12.04 6.03 25.35 9.09 38.81 8.93 12.91.15 25.67-2.66 37.33-8.2.47-.2.86-.39 1.21-.57-.08-.65-.29-1.29-.6-1.87-1.4-2.52-4.44-3.63-7.14-2.6z" fill="#fff"/><path d="m102.11 71.63c-1.42-2.53-4.47-3.65-7.19-2.63-10.26 2.99-20.9 4.48-31.58 4.43-10.69.05-21.33-1.44-31.59-4.43-2.69-1.02-5.73.08-7.13 2.6-1.36 2.51-.38 5.42.77 7.93.51 1.13 1.08 2.24 1.71 3.31 0 0-2.1-7.78-.28-10.04.62-.96 1.66-1.56 2.8-1.62.47 0 .93.08 1.38.22 10.44 3.07 21.27 4.62 32.16 4.6h.35c10.89.02 21.72-1.53 32.16-4.6.45-.14.91-.22 1.38-.22 1.14.06 2.19.66 2.81 1.62 1.85 2.26-.28 10.07-.28 10.07.62-1.07 1.24-2.17 1.76-3.31 1.14-2.51 2.13-5.41.77-7.93z" fill="#eb8f00"/></svg>