<svg height="64" preserveAspectRatio="none" viewBox="0 0 64 64" width="64" xmlns="http://www.w3.org/2000/svg"><path d="m55.1542969 15.1655273.0039063-.0004883-.0351563-6.3276367-30.9589844 1.65625s-.4326172 21.4658203-1.7363281 32.7670898c-1.8251953-.5888672-4.1113281-.6484375-6.4560547-.03125-4.7944336 1.2626953-8.0029297 4.8574219-7.1669922 8.0322266.8354492 3.1738281 5.3984375 4.7236328 10.1923828 3.4609375 4.1435547-1.0908203 7.0961914-3.9238281 7.2832031-6.7226562l.015625-.0068359-.1445313-25.8554688 26.7109375-1.7607422c-.265625 6.7231445-.7089844 15.2216797-1.4013672 21.2275391-1.8251953-.5888672-4.1123047-.6484375-6.4570313-.03125-4.7939453 1.2626953-8.0029297 4.8574219-7.1669922 8.0322266.8359375 3.1738281 5.3984375 4.7236328 10.1923828 3.4609375 4.1435547-1.0908203 7.0966797-3.9238281 7.2841797-6.7226563l.0146484-.0068359zm-29.0175781 4.3530274-.0131836-2.3569336 26.918457-1.8510742c-.0244141.7841797-.0527344 1.6225586-.0839844 2.5175781z" fill="#010716"/><ellipse cx="14.716309" cy="45.736328" fill="#fff" rx="1.740638" ry="1.208977" transform="matrix(.9798511 -.1997292 .1997292 .9798511 -8.838362 3.860813)"/><ellipse cx="42.846191" cy="44.501953" fill="#fff" rx="1.74061" ry="1.209323" transform="matrix(.9232014 -.3843166 .3843166 .9232014 -13.812309 19.884192)"/><g fill="#d7f6ff"><path d="m21.2348633 52.4140625c-3.9550781 2.2802734-5.7182617.96875-1.9165039-1.9160156 4.8334961-3.6669922 5.555664-.1816406 1.9165039 1.9160156z" opacity=".24"/><path d="m50.9853516 50.4912109c-3.9550781 2.2802734-5.71875.96875-1.9169922-1.9160156 4.8330078-3.6669922 5.555664-.1816406 1.9169922 1.9160156z" opacity=".24"/></g></svg>