<svg enable-background="new 0 0 128 128" viewBox="0 0 128 128" xmlns="http://www.w3.org/2000/svg" xmlns:xlink="http://www.w3.org/1999/xlink"><radialGradient id="a" cx="67.25" cy="9.25" gradientUnits="userSpaceOnUse" r="98.804"><stop offset="0" stop-color="#40c4ff"/><stop offset="1" stop-color="#0091ea"/></radialGradient><path d="m30.93 15.01c-1.68.25-2.93 1.7-2.93 3.4v73.61c-4.54.15-9.55 2.34-13.6 6.38-7.07 7.07-8.5 17.1-3.2 22.4s15.33 3.87 22.4-3.2c4.04-4.04 6.23-9.06 6.38-13.6h.02v-60.08c0-.99.72-1.83 1.7-1.98l52-7.8c1.21-.18 2.3.76 2.3 1.98v47.9c-4.54.15-9.55 2.34-13.6 6.38-7.07 7.07-8.5 17.1-3.2 22.4s15.33 3.87 22.4-3.2c4.04-4.04 6.23-9.06 6.38-13.6h.02v-88.56c0-2.1-1.87-3.71-3.95-3.4l-73.12 10.97z" fill="url(#a)"/><path d="m104.57 7c.21 0 .43.18.43.45v87.96l-.02.49c-.13 3.99-2.14 8.21-5.51 11.58-3.46 3.46-7.93 5.52-11.97 5.52-1.76 0-4.27-.4-6.19-2.32-1.88-1.88-2.66-4.72-2.19-7.99.51-3.59 2.43-7.2 5.39-10.16 3.37-3.37 7.59-5.38 11.58-5.51l2.9-.09v-50.8c0-2.76-2.24-5-5-5-.25 0-.5.02-.75.06l-52 7.8c-2.45.36-4.24 2.44-4.24 4.93v59.49l-.02.49c-.13 3.99-2.14 8.21-5.51 11.58-3.46 3.46-7.93 5.52-11.97 5.52-1.76 0-4.27-.4-6.19-2.32-1.88-1.88-2.66-4.72-2.19-7.99.51-3.59 2.43-7.2 5.39-10.16 3.37-3.37 7.59-5.38 11.58-5.51l2.9-.09v-76.52c0-.22.16-.4.37-.44l73.12-10.97h.09m0-3c-.17 0-.34.01-.52.04l-73.12 10.97c-1.68.25-2.93 1.7-2.93 3.4v73.61c-4.54.15-9.55 2.34-13.6 6.38-7.07 7.07-8.5 17.1-3.2 22.4 2.16 2.16 5.1 3.2 8.31 3.2 4.67 0 9.9-2.21 14.09-6.4 4.04-4.04 6.23-9.06 6.38-13.6h.02v-60.08c0-.99.72-1.83 1.7-1.98l52-7.8c.1-.02.2-.02.3-.02 1.08 0 2 .88 2 2v47.9c-4.54.15-9.55 2.34-13.6 6.38-7.07 7.07-8.5 17.1-3.2 22.4 2.16 2.16 5.1 3.2 8.31 3.2 4.67 0 9.9-2.21 14.09-6.4 4.04-4.04 6.23-9.06 6.38-13.6h.02v-88.56c0-1.93-1.57-3.44-3.43-3.44z" fill="#424242" opacity=".2"/></svg>