<svg enable-background="new 0 0 128 128" viewBox="0 0 128 128" xmlns="http://www.w3.org/2000/svg"><path d="m118.89 75.13c-1.46-3.15-3.92-5.73-7-7.33-1.86-1.16-3.88-2.05-6-2.63 1.53-5.6-.64-10.06-3.69-13.39-4.51-4.88-9.2-5.59-9.2-5.59 1.62-3.07 2.11-6.61 1.36-10-.77-3.69-3.08-6.86-6.36-8.72-3.1-1.83-6.92-2.73-10.84-3.47-1.88-.34-9.81-1.45-13.1-6-2.65-3.69-2.73-10.33-3.45-12.32s-3.38-1.15-6.23.76c-3.33 2.26-10.23 9.39-12.89 16.56-1.76 4.41-2.2 9.23-1.28 13.89-2.14.35-4.23.97-6.21 1.85-.16 0-.32.1-.49.17-3 1.24-9.43 7-10 15.85-.21 3.13.19 6.26 1.17 9.24-2.19.57-4.3 1.43-6.26 2.57-2.29.98-4.38 2.38-6.15 4.13-1.95 2.41-3.37 5.2-4.15 8.2-1.81 6.61-1.1 13.66 2 19.77 1.8 3.47 4.06 6.67 6.74 9.52 8.55 8.79 23.31 12.11 35 14 14.19 2.34 29.05 1.52 42.33-4 19.92-8.22 25.22-21.44 26-25.17 1.73-8.25-.39-16.02-1.3-17.89z" fill="#885742"/><path d="m87.45 92.89c-1.57.8-3.17 1.52-4.78 2.16-1.08.43-2.17.82-3.27 1.17-1.1.36-2.21.67-3.33 1-2.24.56-4.52.97-6.82 1.21-1.74.19-3.5.28-5.25.28-4.62 0-9.22-.65-13.67-1.91l-1.46-.44c-2.45-.78-4.84-1.73-7.15-2.84l-1.39-.69c1.66 6.79 6.35 12.43 12.72 15.31 3.43 1.59 7.17 2.4 10.95 2.38 3.82.03 7.6-.75 11.09-2.31 6.43-2.83 11.11-8.57 12.58-15.44z" fill="#35220b"/><path d="m85.19 90c-7 1.23-14.09 1.82-21.19 1.77-7.1.04-14.19-.55-21.19-1.77-1.17-.23-2.3.54-2.53 1.71-.05.27-.05.56 0 .83v.25c7.32 3.83 15.46 5.84 23.72 5.87 1.75 0 3.51-.09 5.25-.28 2.3-.24 4.58-.65 6.82-1.21 1.12-.28 2.23-.59 3.33-1s2.19-.74 3.27-1.17c1.62-.67 3.21-1.39 4.78-2.16l.22-.12.06-.27c.17-1.19-.66-2.29-1.86-2.46-.22-.03-.45-.03-.68.01z" fill="#fff"/><circle cx="80.13" cy="69.49" fill="#fff" r="12.4"/><ellipse cx="80.13" cy="69.49" fill="#35220b" rx="5.73" ry="5.82"/><circle cx="47.87" cy="69.49" fill="#fff" r="12.4"/><ellipse cx="47.87" cy="69.49" fill="#35220b" rx="5.73" ry="5.82"/></svg>