<svg enable-background="new 0 0 128 128" viewBox="0 0 128 128" xmlns="http://www.w3.org/2000/svg"><path d="m93.7 123.9c.2-16.4 13.6-29.6 30-29.6h.2v-90c-.1 0-.1 0-.2 0-66.2 0-119.8 53.5-120 119.6z" fill="#f44336"/><path d="m93.7 123.9c.2-16.4 13.6-29.6 30-29.6h.2v-75c-.4 0-.8 0-1.2 0-57.9 0-104.8 46.8-105 104.6z" fill="#ff9800"/><path d="m93.7 123.9c.2-16.4 13.6-29.6 30-29.6h.2v-60c-.1 0-.1 0-.2 0-49.6 0-89.8 40.1-90 89.6z" fill="#ffeb3b"/><path d="m93.7 123.9c.2-16.4 13.6-29.6 30-29.6h.2v-45c-.1 0-.1 0-.2 0-41.3 0-74.8 33.4-75 74.6z" fill="#8bc34a"/><path d="m93.7 123.9c.2-16.4 13.6-29.6 30-29.6h.2v-30c-.1 0-.1 0-.2 0-33 0-59.8 26.6-60 59.6z" fill="#2196f3"/><path d="m93.7 123.9c.2-16.4 13.6-29.6 30-29.6h.2v-15c-.1 0-.1 0-.2 0-24.7 0-44.8 19.9-45 44.6z" fill="#673ab7"/><g fill="#424242"><path d="m7.7 123.9c.1-30.8 12.2-59.8 34-81.6 21.9-21.9 51-34 82-34h.2v-4c-.1 0-.1 0-.2 0-66.2 0-119.8 53.5-120 119.6z" opacity=".2"/><path d="m94.7 123.9c.2-15.8 13.1-28.6 28.9-28.6h.2v-4c-.1 0-.1 0-.2 0-18.1 0-32.7 14.5-33 32.6z" opacity=".2"/></g></svg>