<svg enable-background="new 0 0 128 128" viewBox="0 0 128 128" xmlns="http://www.w3.org/2000/svg" xmlns:xlink="http://www.w3.org/1999/xlink"><linearGradient id="a" gradientTransform="matrix(1 0 0 -1 0 130)" gradientUnits="userSpaceOnUse" x1="64.005" x2="64.005" y1="22.44" y2="35.55"><stop offset=".12" stop-color="#e0e0e0"/><stop offset=".52" stop-color="#fff"/><stop offset="1" stop-color="#eaeaea"/></linearGradient><linearGradient id="b"><stop offset="0" stop-color="#333"/><stop offset=".55" stop-color="#666"/><stop offset="1" stop-color="#333"/></linearGradient><linearGradient id="c" gradientTransform="matrix(1 0 0 -1 0 130)" gradientUnits="userSpaceOnUse" x1="54.85" x2="54.85" xlink:href="#b" y1="22.44" y2="35.53"/><linearGradient id="d" gradientTransform="matrix(1 0 0 -1 0 130)" gradientUnits="userSpaceOnUse" x1="64.06" x2="64.06" xlink:href="#b" y1="22.44" y2="35.53"/><linearGradient id="e" gradientTransform="matrix(1 0 0 -1 0 130)" gradientUnits="userSpaceOnUse" x1="73.15" x2="73.15" xlink:href="#b" y1="22.44" y2="35.53"/><linearGradient id="f" gradientTransform="matrix(1 0 0 -1 0 130)" gradientUnits="userSpaceOnUse" x1="82.8" x2="82.8" xlink:href="#b" y1="22.44" y2="35.53"/><linearGradient id="g" gradientTransform="matrix(1 0 0 -1 0 130)" gradientUnits="userSpaceOnUse" x1="45.2" x2="45.2" xlink:href="#b" y1="22.46" y2="35.55"/><linearGradient id="h"><stop offset=".48" stop-color="#fff"/><stop offset=".77" stop-color="#fdfdfd"/><stop offset=".88" stop-color="#f6f6f6"/><stop offset=".96" stop-color="#ebebeb"/><stop offset="1" stop-color="#e0e0e0"/></linearGradient><radialGradient id="i" cx="42.64" cy="63.19" gradientTransform="matrix(1 0 0 -1 0 130)" gradientUnits="userSpaceOnUse" r="11.5" xlink:href="#h"/><linearGradient id="j" gradientTransform="matrix(1 0 0 -1 0 130)" gradientUnits="userSpaceOnUse" x1="30.14" x2="55.14" xlink:href="#b" y1="63.19" y2="63.19"/><radialGradient id="k" cx="84.95" cy="63.22" gradientTransform="matrix(1 0 0 -1 0 130)" gradientUnits="userSpaceOnUse" r="11.5" xlink:href="#h"/><linearGradient id="l" gradientTransform="matrix(1 0 0 -1 0 130)" gradientUnits="userSpaceOnUse" x1="72.45" x2="97.45" xlink:href="#b" y1="63.22" y2="63.22"/><path d="m12.53 53.05c-4.57.01-8.28 3.72-8.28 8.29v38.38c.01 4.57 3.71 8.27 8.28 8.28h5.55v-55z" fill="#c62828"/><path d="m115.72 53.05c4.57.01 8.28 3.72 8.28 8.29v38.38c-.01 4.57-3.71 8.28-8.28 8.29h-5.55v-55z" fill="#c62828"/><path d="m113.17 54.41-.12-10c-.03-4.3-3.53-7.77-7.83-7.75h-38.17v-13.41c5.11-1.69 7.89-7.2 6.2-12.31s-7.2-7.89-12.31-6.2-7.89 7.2-6.2 12.31c.97 2.93 3.27 5.24 6.2 6.2v13.46h-38.16c-4.28.01-7.75 3.47-7.78 7.75v71.78c.03 4.28 3.5 7.74 7.78 7.76h82.44c4.3.01 7.8-3.46 7.83-7.76v-7.37h.12z" fill="#90a4ae"/><path d="m64 18c-2.21 0-4-1.79-4-4s1.79-4 4-4 4 1.79 4 4-1.79 4-4 4z" fill="#c62828"/><path d="m44.15 94.45h39.71c3.46 0 6.27 2.81 6.27 6.27v.57c0 3.46-2.81 6.27-6.27 6.27h-39.71c-3.46 0-6.27-2.81-6.27-6.27v-.57c0-3.46 2.81-6.27 6.27-6.27z" fill="url(#a)"/><path d="m53.67 94.47h2.36v13.09h-2.36z" fill="url(#c)"/><path d="m62.88 94.47h2.36v13.09h-2.36z" fill="url(#d)"/><path d="m71.97 94.47h2.36v13.09h-2.36z" fill="url(#e)"/><path d="m81.62 94.47h2.36v13.09h-2.36z" fill="url(#f)"/><path d="m44.02 94.45h2.36v13.09h-2.36z" fill="url(#g)"/><path d="m64 85.33h-5.33c-.55 0-1-.45-1-1 0-.16.04-.31.11-.45l2.74-5.41 2.59-4.78c.26-.49.87-.67 1.35-.41.17.09.31.23.41.41l2.61 5 2.71 5.19c.25.49.06 1.09-.43 1.35-.14.07-.29.11-.45.11z" fill="#c62828"/><circle cx="42.64" cy="66.81" fill="url(#i)" r="11.5"/><circle cx="42.64" cy="66.81" fill="none" r="11.5" stroke="url(#j)" stroke-miterlimit="10" stroke-width="2"/><path d="m85 55.28c-6.35 0-11.5 5.15-11.5 11.5s5.15 11.5 11.5 11.5 11.5-5.15 11.5-11.5c-.01-6.35-5.15-11.49-11.5-11.5z" fill="url(#k)"/><path d="m85 55.28c-6.35 0-11.5 5.15-11.5 11.5s5.15 11.5 11.5 11.5 11.5-5.15 11.5-11.5c-.01-6.35-5.15-11.49-11.5-11.5z" fill="none" stroke="url(#l)" stroke-miterlimit="10" stroke-width="2"/></svg>