<svg enable-background="new 0 0 128 128" viewBox="0 0 128 128" xmlns="http://www.w3.org/2000/svg" xmlns:xlink="http://www.w3.org/1999/xlink"><linearGradient id="a" gradientUnits="userSpaceOnUse" x1="55.927" x2="69.758" y1="29.759" y2="1.2441"><stop offset=".1454" stop-color="#b71c1c"/><stop offset=".2941" stop-color="#c82723"/><stop offset=".5563" stop-color="#e0362e"/><stop offset=".7985" stop-color="#ef4034"/><stop offset="1" stop-color="#f44336"/></linearGradient><linearGradient id="b" gradientUnits="userSpaceOnUse" x1="30.634" x2="80.591" y1="24.708" y2="24.708"><stop offset=".0003417" stop-color="#e53935"/><stop offset=".2376" stop-color="#e03632"/><stop offset=".5228" stop-color="#d12d2a"/><stop offset=".8317" stop-color="#b91d1d"/><stop offset=".8546" stop-color="#b71c1c"/></linearGradient><path d="m67.23 117.07.24-3.07-.77-6.5.17-3.1c.1-.04.19-.09.27-.17.7-.62 2.11-1.87 2.11-1.87s-1.59-2.68-2.08-3.51l-.01-.01.84-15.34-7.23.12-.11 17.72c-.11.06-2.99 3.74-2.99 3.74l2.96 1.79v.12l-.08 3.3c-.22-.01-3.25 3.62-3.25 3.62s1.96 1.7 3.1 2.35l-.02.6.75 7.12h5.57l.22-2.91c.76-.69 2.71-2.83 2.71-2.83s-2.04-1.06-2.4-1.17z" fill="#7cb342"/><path d="m65.89 85.54-.72 13.21c-.02.41.08.81.29 1.15.01.01.02.02.02.04.26.44.76 1.29 1.2 2.03l-.75.67c-.62.33-1.03.95-1.06 1.66l-.17 3.1c-.01.12 0 .23.01.34l.75 6.31-.22 2.87c-.06.82.38 1.58 1.1 1.94-.3.31-.58.59-.76.75-.38.34-.61.82-.65 1.33l-.09 1.06h-1.92l-.55-5.2.01-.47c.02-.73-.37-1.42-1-1.78-.32-.18-.78-.52-1.25-.88.66-.77 1.25-1.43 1.51-1.7.09-.06.17-.12.25-.2.4-.37.63-.88.64-1.42l.08-3.34v-.12c0-.7-.36-1.36-.96-1.72l-1.03-.62c.68-.86 1.24-1.56 1.43-1.77.37-.37.59-.87.6-1.41l.1-15.77zm2.11-2.04-7.23.12-.11 17.72c-.11.06-2.99 3.74-2.99 3.74l2.96 1.79v.12l-.08 3.3c-.23 0-3.25 3.62-3.25 3.62s1.96 1.7 3.1 2.35l-.02.6.75 7.12h5.57l.22-2.91c.76-.69 2.71-2.83 2.71-2.83s-2.04-1.08-2.4-1.19l.24-3.07-.77-6.5.17-3.1c.1-.04.19-.09.27-.17.7-.62 2.11-1.87 2.11-1.87s-1.59-2.68-2.08-3.51l-.01-.01z" fill="#424242" opacity=".2"/><path d="m65.29 91.65s2.16 9.7 12.06 11.98c7.13 1.64 18.54-5.39 18.54-5.39s-7.99-14.55-17.25-13.84c-8.35.63-11.59 5.04-13.35 7.25z" fill="#7cb342"/><path d="m79.29 87.37c3.49 0 7 3.17 9.34 5.83 1.22 1.39 2.26 2.8 3.04 3.95-3.25 1.66-8.19 3.73-11.96 3.73-.62 0-1.19-.06-1.68-.17-5.99-1.38-8.5-6.11-9.39-8.43 1.73-2.04 4.45-4.46 10.23-4.9.14 0 .28-.01.42-.01m0-3c-.22 0-.43.01-.65.02-8.35.63-11.59 5.04-13.35 7.25 0 0 2.16 9.7 12.06 11.98.74.17 1.54.25 2.36.25 7.03 0 16.18-5.64 16.18-5.64s-7.62-13.86-16.6-13.86z" fill="#424242" opacity=".2"/><path d="m63.51 89.02s.11 10.04-10.46 14.08c-7.6 2.9-20.88-3.25-20.88-3.25s7.06-17.48 17.27-18.08c9.2-.54 11.9 5.04 14.07 7.25z" fill="#7cb342"/><path d="m50.67 84.73c5.39 0 7.52 2.59 9.39 4.88.12.15.24.3.36.44-.31 2.27-1.76 7.69-8.44 10.24-1.01.39-2.28.58-3.77.58-4.2 0-9.03-1.52-12-2.62.78-1.55 1.9-3.58 3.29-5.61 2.38-3.46 6.07-7.64 10.11-7.88.37-.01.72-.03 1.06-.03m0-3c-.4 0-.81.01-1.23.04-10.21.6-17.27 18.08-17.27 18.08s8.7 4.03 16.04 4.03c1.73 0 3.39-.22 4.84-.78 10.57-4.04 10.46-14.08 10.46-14.08-2.07-2.11-4.62-7.29-12.84-7.29z" fill="#424242" opacity=".2"/><ellipse cx="63.41" cy="75.87" fill="#558b2f" rx="20.25" ry="16.13"/><path d="m63.41 62.74c9.51 0 17.25 5.89 17.25 13.13s-7.74 13.13-17.25 13.13-17.25-5.89-17.25-13.13 7.74-13.13 17.25-13.13m0-3c-11.18 0-20.25 7.22-20.25 16.13s9.06 16.13 20.25 16.13c11.18 0 20.25-7.22 20.25-16.13s-9.07-16.13-20.25-16.13z" fill="#424242" opacity=".2"/><path d="m65.95 17.6c1.71-3.94 5.04-7.15 9.03-8.72 3.33-1.31 7.19-1.59 9.9-3.93 2.15 2.69 4.32 5.41 5.77 8.52s2.16 6.71 1.23 10.03c-.77 2.75-2.62 5.12-4.9 6.84-2.28 1.71-4.98 2.81-7.74 3.53-1.51.4-3.09.69-4.64.46-1.44-.21-2.78-.87-4.09-1.51-1.31-.65-3.5-1.25-4.53-2.3-.78-.8-.97-2.55-1.15-3.6-.27-1.59-.31-3.22-.11-4.83.09-.77.24-1.54.45-2.29.18-.62.78-1.58.78-2.2z" fill="#c40e00"/><path d="m40.76 42.86c-1.41 4.36-4.6 8.75-5.36 13.27-1.03 6.06.8 13.35 4.38 18.36 2.48 3.47 6.24 6.22 10.3 7.52 8.78 2.82 23.37 3.12 32.13-4.05s12.79-19.63 9.87-30.57c-.76-2.84-1.94-5.6-2.11-8.54-.25-4.3.23-8.15 2.14-12.01-4.24.48-6.62 2.35-10.7 3.6-6.36 1.96-14.03 2.19-19.65-1.38-14.69-9.33-22.13-2.83-21.72-.49 1.42 8.2 1.62 11.49.72 14.29z" fill="#c90000"/><path d="m48.33 24.24s-8.14-10.69 4.47-20.03c0 0 1.84 1.6 4.47 1.76s5.98-1.84 9.82 1.44 8.86 3.51 10.61 3.19 7.02 3.99-.72 9.58c-8.46 6.1-10.77 6.22-10.77 6.22s-13.25-.72-15.32-1.12c-2.09-.4-2.56-1.04-2.56-1.04z" fill="url(#a)"/><path d="m54.95 19.55s9.32-5.46 15.04-1.72-8.05 5.46-10.48 5.25-4.56-3.53-4.56-3.53z" fill="#a62121"/><path d="m22.57 42.66c2.24-.06 4.27 1.42 5.62 3.21s2.19 3.9 3.31 5.84c3.44 5.98 9.44 10.21 15.94 12.5 6.51 2.29 13.51 2.8 20.41 2.64 2.03-.05 4.07-.15 6.07.16s4 1.09 5.41 2.55c-.01-2.77-1.7-5.33-3.88-7.05s-4.81-2.75-7.4-3.75c-4.77-1.85-9.54-3.69-14.32-5.54-2.53-.98-5.07-1.97-7.32-3.48-2.24-1.51-3.21-3.61-4.02-6.19-.9-2.85-1.32-5.93-1.22-8.92.08-2.39-.26-4.96-1.65-6.97-1.3-1.87-2.82-1.47-4.66-.54-3.91 1.97-7.23 5.06-9.52 8.79-.34.54-2.9 6.76-2.77 6.75z" fill="#e50500"/><path d="m53.51 19.18c2.1-.88 8.75 2.33 11.01 2.66 4.39.64 5.43.96 9.66-1.04 3.18-1.5 4.39-2.23 6.86-5.98-1.92 4.28 1.51 8.98-.48 12.77-4.39 8.38-21.19 3.2-23.56 2.05-1.87-.92-7.32-2.61-3.49-10.46z" fill="#ef5350"/><path d="m35.85 10.94c-16.68 12.42 11.44 26.34 17.61 28.25 5.79 1.79 12.73 1.42 18.27-1.04 1.54-.69 3.07-1.47 4.31-2.61s4.41-4.56 4.54-6.24c-8.64 3.01-26.04 1.47-32.66-8.64-2.98-4.55-.03-9.31-1.12-10.21-2.67-2.24-8.45-1.37-10.95.49z" fill="url(#b)"/><path d="m75.59 34.61c9.26-1.06 11.28-10.29 15.75-10.07 2.76 1.27 4.75 4.07 5.05 7.1s-1.14 6.12-3.56 7.95c-11.71 8.86-15.27.34-17.88 4.39-4.26 6.6-9.93 9.64-15.53 9.04-8.94-.96-15.02-11.82-12.77-11.17 13.41 3.83 14.92-5.63 28.94-7.24z" fill="#f41e0f"/><path d="m53.35 8.86c1.06.45 2.36.84 3.84.93.18.01.36.02.55.02.93 0 1.79-.13 2.61-.26.69-.11 1.35-.21 1.94-.21.79 0 1.51.17 2.46.98 1.93 1.65 4.24 2.85 6.86 3.55.33.09.66.13 1 .13.7 0 1.4-.19 2.01-.57.67-.42 1.31-.74 1.93-.98.91-.36 1.94-.64 3.03-.94 1.45-.4 3.02-.83 4.55-1.52 1.25 1.65 2.4 3.34 3.22 5.11 1.24 2.65 1.6 5.27 1.01 7.37-.06.22-.14.46-.26.74-.75 1.86.07 3.99 1.88 4.87 1.49.73 2.6 2.31 2.77 3.95.17 1.68-.64 3.48-2.01 4.47-.45.33-.99.61-1.71.89-1.74.67-2.74 2.5-2.37 4.32.31 1.53.75 2.95 1.18 4.32.26.82.5 1.59.7 2.35 2.52 9.47-1.01 20.41-8.6 26.62-3.97 3.25-10.04 5.04-17.08 5.04-4.03 0-8.09-.59-11.45-1.67-3.3-1.06-6.34-3.28-8.36-6.1-2.94-4.11-4.45-10.15-3.76-15.04.16-1.18-.23-2.37-1.06-3.22-1.36-1.38-2.42-2.75-3.25-4.2-.34-.59-.67-1.23-1.01-1.9-.73-1.43-1.48-2.9-2.56-4.34-1.05-1.4-2.29-2.52-3.63-3.32.45-1.07.87-2.07 1.06-2.44 1.86-2.99 4.47-5.44 7.56-7.08 1.05-.56 1.78-1.56 1.98-2.73s-.15-2.36-.95-3.24c-1.38-1.51-2.98-3.74-2.78-5.8.15-1.6 1.38-3.26 3.65-4.95.59-.44 2.27-1.07 4.13-1.07.84 0 1.42.13 1.76.26.63.78 1.56 1.3 2.61 1.4.12.01.25.02.37.02 1.46 0 2.8-.83 3.45-2.16.6-1.24 1.51-2.45 2.73-3.6m-.4-4.65c-2.93 2.17-4.74 4.42-5.79 6.59-.04-.15-.1-.28-.2-.36-1.12-.93-2.79-1.32-4.54-1.32-2.41 0-4.97.74-6.42 1.82-7.49 5.57-5.94 11.45-1.41 16.41-3.72 1.97-6.89 4.97-9.09 8.55-.34.56-2.9 6.77-2.77 6.77h.13c2.19 0 4.16 1.45 5.49 3.21 1.35 1.79 2.19 3.9 3.31 5.84 1.05 1.83 2.37 3.48 3.84 4.98-.83 5.95.97 12.95 4.44 17.8 2.48 3.47 6.24 6.22 10.3 7.52 3.52 1.13 7.98 1.86 12.62 1.86 6.93 0 14.26-1.61 19.51-5.9 8.76-7.16 12.79-19.63 9.87-30.57-.57-2.16-1.39-4.27-1.83-6.44.91-.35 1.78-.78 2.58-1.36 2.46-1.79 3.86-4.92 3.56-7.95-.29-2.97-2.22-5.71-4.9-7.01.15-.37.28-.75.39-1.13.93-3.31.23-6.91-1.23-10.03s-3.63-5.83-5.77-8.52c-2.7 2.34-6.57 2.62-9.9 3.93-.88.35-1.73.79-2.54 1.29-1.77-.48-3.68-1.33-5.37-2.77-1.76-1.5-3.42-1.89-4.95-1.89-1.67 0-3.2.47-4.55.47-.11 0-.21 0-.32-.01-2.62-.19-4.46-1.78-4.46-1.78z" fill="#424242" opacity=".2"/></svg>