<svg enable-background="new 0 0 128 128" viewBox="0 0 128 128" xmlns="http://www.w3.org/2000/svg" xmlns:xlink="http://www.w3.org/1999/xlink"><linearGradient id="a" gradientUnits="userSpaceOnUse" x1="63.352" x2="63.352" y1="124.29" y2="105.97"><stop offset=".0022754" stop-color="#5d4037"/><stop offset="1" stop-color="#8d6e63"/></linearGradient><linearGradient id="b" gradientUnits="userSpaceOnUse" x1="9.8166" x2="51.348" y1="34.963" y2="69.765"><stop offset="0" stop-color="#9ccc65"/><stop offset=".9952" stop-color="#689f38"/></linearGradient><linearGradient id="c" gradientUnits="userSpaceOnUse" x1="67.623" x2="114.11" y1="56.992" y2="14.04"><stop offset=".0048071" stop-color="#689f38"/><stop offset="1" stop-color="#9ccc65"/></linearGradient><path d="m74.81 47.29s-.17.21-.48.6c-.3.39-.8.97-1.34 1.71-.49.76-1.15 1.59-1.79 2.7-.32.55-.67 1.13-1.03 1.74-.34.62-.67 1.3-1.03 1.99-.37.68-.7 1.43-1.03 2.21-.32.78-.72 1.56-.99 2.41-.3.84-.62 1.71-.94 2.59-.27.9-.54 1.83-.81 2.77-.3.93-.48 1.92-.72 2.9-.23.98-.47 1.97-.62 3-.17 1.02-.36 2.04-.52 3.07l-.39 3.12c-.15 1.03-.2 2.09-.28 3.13-.06 1.04-.18 2.08-.2 3.11-.02 2.07-.15 4.1-.05 6.07.05 1.97.08 3.87.25 5.68.14 1.8.22 3.51.44 5.08.18 1.57.34 3.01.48 4.29.2 1.27.37 2.38.51 3.29.28 1.82.44 2.87.44 2.87l.02.11c.23 1.48-.79 2.87-2.27 3.09-1.48.23-2.87-.79-3.09-2.27 0-.02-.01-.06-.01-.08 0 0-.14-1.08-.37-2.98-.12-.95-.26-2.1-.43-3.42-.11-1.33-.23-2.83-.36-4.46-.16-1.63-.18-3.41-.25-5.29-.1-1.88-.05-3.87-.02-5.92-.02-2.05.2-4.18.3-6.33.06-1.08.22-2.16.33-3.25.13-1.09.22-2.18.42-3.26.18-1.08.36-2.17.53-3.25.22-1.07.48-2.14.71-3.2.22-1.06.51-2.1.81-3.12.31-1.02.55-2.04.92-3.01.34-.98.68-1.93 1.01-2.87.39-.92.76-1.82 1.13-2.69.34-.88.8-1.69 1.18-2.5.39-.8.78-1.57 1.21-2.29.42-.72.8-1.41 1.2-2.06.42-.63.83-1.22 1.21-1.78.74-1.12 1.56-2.04 2.14-2.82.62-.74 1.12-1.25 1.46-1.64.34-.37.52-.57.52-.57.44-.48 1.18-.52 1.66-.08.48.43.53 1.13.14 1.61z" fill="#558b2f"/><path d="m36.92 110.9c4.74-4.97 11.23-9.51 17.96-8.12 5.01 1.04 9.62 5.28 14.55 3.92 1.57-.43 2.95-1.41 4.54-1.76 3.72-.83 7.27 1.95 9.66 4.92s4.47 6.48 7.94 8.07c2.14.98 4.56 1.1 6.83 1.73s5.13 4.35 5.13 4.35l-80.36-.41s5.71-4.17 7.03-5.47c2.35-2.32 4.45-4.85 6.72-7.23z" fill="url(#a)"/><path d="m52.38 105.52c.64 0 1.27.06 1.89.19 1.53.32 3.12 1.04 4.8 1.82 2.61 1.2 5.31 2.43 8.36 2.43.95 0 1.89-.13 2.79-.37.97-.27 1.83-.67 2.59-1.02.66-.31 1.28-.59 1.81-.71.23-.05.46-.08.7-.08 1.75 0 3.98 1.48 5.97 3.95.45.56.9 1.15 1.36 1.77 1.97 2.61 4.21 5.56 7.66 7.15.23.1.45.2.68.29l-59.1-.3c.16-.14.3-.27.41-.38 1.45-1.42 2.8-2.92 4.1-4.37.87-.97 1.77-1.97 2.67-2.91 3.26-3.41 8.2-7.46 13.31-7.46m0-3c-5.82 0-11.31 4.03-15.46 8.38-2.27 2.38-4.37 4.91-6.71 7.22-1.32 1.3-7.03 5.47-7.03 5.47l80.36.41s-2.86-3.71-5.13-4.35c-2.27-.63-4.69-.75-6.83-1.73-3.47-1.59-5.55-5.1-7.94-8.07-2.1-2.61-5.09-5.07-8.31-5.07-.45 0-.9.05-1.35.15-1.59.35-2.97 1.33-4.54 1.76-.67.18-1.33.27-1.99.27-4.2 0-8.23-3.29-12.56-4.19-.85-.16-1.68-.25-2.51-.25z" fill="#424242" opacity=".2"/><path d="m4.2 32.24s-.82 25.92 20.04 37.82 36.16 3.92 36.16 3.92 4-45.98-56.2-41.74z" fill="url(#b)"/><path d="m11.79 34.7c16.53 0 28.87 4.31 36.69 12.8 8.31 9.02 9.2 20.47 9.22 24.64-1.9.69-5.59 1.72-10.54 1.72-7.13 0-14.39-2.08-21.57-6.18-15.49-8.83-18.13-26.37-18.57-32.86 1.62-.08 3.22-.12 4.77-.12m0-2.74c-2.41 0-4.93.09-7.59.28 0 0-.82 25.92 20.04 37.82 8.91 5.09 16.81 6.54 22.93 6.54 8.21 0 13.23-2.62 13.23-2.62s3.64-42.02-48.61-42.02z" fill="#424242" opacity=".2"/><path d="m123.92 7.86s-30.14-7.84-47.61 12.75-12.22 41.09-12.22 41.09 51.7 12.69 59.83-53.84z" fill="url(#c)"/><path d="m110.48 9.13c4.42 0 8.13.5 10.39.89-2.73 19.04-9.47 32.87-20.07 41.14-9.28 7.24-19.74 8.76-26.89 8.76-3.24 0-5.87-.31-7.47-.57-.73-5.07-1.62-20.99 11.95-36.99 9.3-10.93 22.58-13.23 32.09-13.23m0-2.74c-10.25 0-24.25 2.53-34.17 14.21-17.47 20.59-12.22 41.1-12.22 41.1s3.94.97 9.82.97c15.41 0 44.12-6.65 50-54.81.01 0-5.63-1.47-13.43-1.47z" fill="#424242" opacity=".2"/><g fill="#33691e"><path d="m67.56 55.35s.47-.81 1.3-2.22c.41-.71.91-1.56 1.55-2.54.63-.97 1.3-2.1 2.12-3.25.8-1.17 1.66-2.44 2.64-3.73.94-1.32 2.02-2.65 3.13-4.03.54-.7 1.16-1.36 1.74-2.05.59-.69 1.19-1.39 1.83-2.06.63-.68 1.27-1.36 1.92-2.04.67-.66 1.33-1.33 2-1.99.66-.67 1.38-1.29 2.06-1.93s1.38-1.27 2.09-1.86c1.39-1.22 2.82-2.35 4.2-3.44 1.4-1.06 2.76-2.08 4.09-3 1.33-.91 2.58-1.77 3.78-2.51 1.18-.77 2.28-1.43 3.27-2 .98-.59 1.84-1.09 2.56-1.47 1.43-.79 2.25-1.24 2.25-1.24s-.8.49-2.19 1.34c-.7.42-1.54.96-2.49 1.59-.96.62-2.03 1.33-3.16 2.14-1.16.79-2.37 1.7-3.64 2.67-1.28.97-2.58 2.04-3.92 3.16-1.32 1.14-2.68 2.32-4 3.59-.68.62-1.33 1.26-1.98 1.93-.64.67-1.32 1.3-1.94 1.99-.63.68-1.26 1.37-1.88 2.05-.6.7-1.2 1.4-1.79 2.1-.6.69-1.16 1.4-1.71 2.11-.54.71-1.12 1.38-1.62 2.09-1.02 1.4-2.02 2.75-2.89 4.09-.91 1.31-1.69 2.59-2.42 3.77-.75 1.17-1.35 2.28-1.91 3.25-.56.96-1.03 1.84-1.41 2.57-.76 1.45-1.2 2.28-1.2 2.28-.35.67-1.18.93-1.85.57s-.93-1.18-.57-1.85z" opacity=".2"/><path d="m54.46 68.86s-.43-.81-1.19-2.22c-.19-.35-.4-.74-.63-1.17-.25-.4-.52-.83-.8-1.29-.57-.93-1.2-1.98-2.01-3.07-.39-.55-.8-1.13-1.22-1.72-.46-.57-.93-1.16-1.41-1.76-.94-1.24-2.1-2.4-3.22-3.67-1.22-1.17-2.42-2.46-3.8-3.6-1.32-1.21-2.77-2.29-4.21-3.4-1.49-1.03-2.96-2.11-4.52-2.99-1.51-.96-3.09-1.75-4.6-2.55-.76-.39-1.54-.71-2.28-1.06-.75-.34-1.48-.68-2.22-.94-.73-.28-1.44-.56-2.13-.82-.69-.27-1.38-.45-2.03-.67-.65-.21-1.28-.41-1.88-.59-.61-.16-1.18-.3-1.72-.44-1.08-.29-2.02-.52-2.81-.65-1.57-.31-2.47-.48-2.47-.48s.91.14 2.49.38c.8.1 1.75.3 2.85.54.55.12 1.13.24 1.74.37.61.16 1.24.34 1.91.52.66.19 1.37.35 2.07.59.71.24 1.43.48 2.18.74.76.24 1.51.55 2.28.86.77.32 1.57.61 2.35.97 1.56.74 3.19 1.48 4.77 2.39 1.62.83 3.16 1.87 4.72 2.85 1.51 1.07 3.04 2.12 4.44 3.29 1.46 1.1 2.74 2.37 4.04 3.53 1.2 1.26 2.45 2.4 3.47 3.64.53.6 1.04 1.19 1.53 1.76.46.6.91 1.17 1.33 1.72.88 1.09 1.6 2.16 2.23 3.12.32.48.62.92.9 1.33.25.42.48.8.68 1.14.82 1.38 1.29 2.17 1.29 2.17.34.58.15 1.32-.43 1.67s-1.33.15-1.67-.43c0-.03-.01-.05-.02-.06z" opacity=".2"/></g></svg>