<svg enable-background="new 0 0 128 128" viewBox="0 0 128 128" xmlns="http://www.w3.org/2000/svg" xmlns:xlink="http://www.w3.org/1999/xlink"><radialGradient id="a" cx="63.6" cy="-2088.8999" gradientTransform="matrix(1 0 0 -1 0 -2026)" gradientUnits="userSpaceOnUse" r="56.9597"><stop offset=".5" stop-color="#fde030"/><stop offset=".9188" stop-color="#f7c02b"/><stop offset="1" stop-color="#f4a223"/></radialGradient><linearGradient id="b"><stop offset="0" stop-color="#ed7770"/><stop offset=".9" stop-color="#ed7770" stop-opacity="0"/></linearGradient><radialGradient id="c" cx="25.7006" cy="61.378" gradientTransform="matrix(.9791 0 0 .9301 2.0871 5.7411)" gradientUnits="userSpaceOnUse" r="19.4444" xlink:href="#b"/><radialGradient id="d" cx="100.7714" cy="61.378" gradientTransform="matrix(.9791 0 0 .9301 2.0871 5.7411)" gradientUnits="userSpaceOnUse" r="19.4444" xlink:href="#b"/><path d="m63.6 118.8c-27.9 0-58-17.5-58-55.9s30.1-55.9 58-55.9c15.5 0 29.8 5.1 40.4 14.4 11.5 10.2 17.6 24.6 17.6 41.5s-6.1 31.2-17.6 41.4c-10.6 9.3-25 14.5-40.4 14.5z" fill="url(#a)"/><path d="m111.49 29.67c5.33 8.6 8.11 18.84 8.11 30.23 0 16.9-6.1 31.2-17.6 41.4-10.6 9.3-25 14.5-40.4 14.5-18.06 0-37.04-7.35-48.18-22.94 10.76 17.66 30.99 25.94 50.18 25.94 15.4 0 29.8-5.2 40.4-14.5 11.5-10.2 17.6-24.5 17.6-41.4 0-12.74-3.47-24.06-10.11-33.23z" fill="#eb8f00"/><circle cx="27.25" cy="62.83" fill="url(#c)" opacity=".8" r="17.5"/><circle cx="100.75" cy="62.83" fill="url(#d)" opacity=".8" r="17.5"/><g fill="#422b0d"><path d="m100.69 65.04c-10.27 5.96-22.95 9.49-36.69 9.49s-26.42-3.53-36.69-9.49c-1.89-1.09-3.87 1.27-2.46 2.92 9.3 10.87 23.38 17.8 39.15 17.8s29.85-6.93 39.15-17.8c1.42-1.66-.57-4.02-2.46-2.92z"/><path d="m49.56 44.12s-.05-.07-.16-.2c-.1-.13-.24-.31-.42-.54-.15-.16-.33-.35-.54-.57-.21-.24-.47-.49-.73-.75-.27-.25-.55-.51-.84-.72-.28-.23-.59-.4-.84-.54-.26-.16-.5-.2-.65-.25-.08-.03-.15-.03-.21-.04-.03.01-.06-.01-.09 0l-.04.01h-.02-.01c.12 0-.27.01.27-.01l-.55.02c-.14 0-.05.01-.04.01.03 0 .05 0 .07-.01.08-.03 0 0-.02 0-.03 0-.07.01-.11.03-.16.05-.4.09-.65.25-.25.14-.56.31-.84.54-.28.22-.57.47-.84.72-.52.51-.98 1.02-1.3 1.39-.33.38-.51.6-.51.6l-.23.27c-1.37 1.6-3.89 1.87-5.62.61-1.18-.86-1.69-2.2-1.47-3.48 0 0 .07-.41.27-1.12.21-.71.56-1.72 1.25-2.91.69-1.18 1.69-2.57 3.38-3.84.83-.62 1.84-1.24 3.04-1.66.29-.11.6-.21.92-.29.33-.08.59-.17 1.04-.23l.62-.09c.19-.02.47-.05.51-.05l.55-.04.31-.01h.03.06l.13.01.26.01.51.03c.34.03.67.09 1 .14.65.12 1.3.29 1.89.51 1.2.42 2.21 1.03 3.04 1.66 1.69 1.27 2.69 2.66 3.38 3.84.35.59.61 1.15.8 1.64.21.47.36.97.48 1.34.11.36.11.55.16.72.03.16.04.25.04.25.37 2.02-1.12 3.93-3.31 4.26-1.59.25-3.1-.39-3.97-1.51z"/><path d="m87.06 44.12s-.05-.07-.16-.2c-.1-.13-.24-.31-.42-.54-.15-.16-.33-.35-.54-.57-.21-.24-.47-.49-.73-.75-.27-.25-.55-.51-.84-.72-.28-.23-.59-.4-.84-.54-.26-.16-.5-.2-.65-.25-.08-.03-.15-.03-.21-.04-.03.01-.06-.01-.09 0l-.04.01h-.02-.01-.01c.12 0-.27.01.27-.01l-.55.02c-.14 0-.05.01-.04.01.03 0 .05 0 .07-.01.08-.03 0 0-.02 0-.03 0-.07.01-.11.03-.16.05-.4.09-.65.25-.25.14-.56.31-.84.54-.28.22-.57.47-.84.72-.52.51-.98 1.02-1.3 1.39-.33.38-.51.6-.51.6l-.23.27c-1.37 1.6-3.89 1.87-5.62.61-1.18-.86-1.69-2.2-1.47-3.48 0 0 .07-.41.27-1.12.21-.71.56-1.72 1.25-2.91.69-1.18 1.69-2.57 3.38-3.84.83-.62 1.84-1.24 3.04-1.66.29-.11.6-.21.92-.29.33-.08.59-.17 1.04-.23l.62-.09c.19-.02.47-.05.51-.05l.55-.04.31-.01h.03.06l.13.01.26.01.51.03c.34.03.67.09 1 .14.65.12 1.3.29 1.89.51 1.2.42 2.21 1.03 3.04 1.66 1.69 1.27 2.69 2.66 3.38 3.84.35.59.61 1.15.8 1.64.21.47.36.97.48 1.34.11.36.11.55.16.72.03.16.04.25.04.25.37 2.02-1.12 3.93-3.31 4.26-1.59.25-3.1-.39-3.96-1.51z"/></g><path d="m110.78 1.22c-7.06 2.83-7.68 10.86-7.68 10.86s-4.63-5.01-10.9-2.9c-7.53 2.54-11.32 10.62-5.22 19.34 6.98 9.97 29.38 12.81 29.38 12.81s12.53-16.37 10.79-29.35c-1.41-10.55-11.03-12.9-16.37-10.76z" fill="#f44336"/><path d="m110.78 1.22s-1.73.71-2.41 1.38c0 0 4.76-.49 9.07 1.97 2.84 1.62 5.48 4.52 6.44 9.69 2.07 11.2-6.77 25.9-7.45 26.98.91-1.21 12.4-16.79 10.73-29.26-1.42-10.55-11.04-12.9-16.38-10.76z" fill="#c62828"/><path d="m103.77 12.96c-.69-.83-1.51-1.55-2.01-1.95-2.52-2.01-4.62-2.53-7.34-2.28-2.72.24-5.15 1.76-5.15 1.76s2.64-1 6.39.79c1.97.94 3.7 2.34 5.15 3.98.52.59 1.04 1.23 1.74 1.58s1.68.3 2.16-.33c.75-1.02.03-2.39-.94-3.55z" fill="#c62828"/><path d="m87.42 20.13c.06-2.65 1.03-5.89 4.22-6.04 1.7-.08 3.39 2.1 2.8 4.12-1 3.42-.26 4.6.19 5.71.53 1.34 1.34 2.8.77 4.12s-1.9 1.41-3.61.27c-.38-.24-4.49-2.76-4.37-8.18z" fill="#ff847a"/><path d="m116.31 96.26c-6.38-4.14-13.3-.02-13.3-.02s1.43-6.67-3.91-10.58c-6.41-4.7-15.2-3.13-18.81 6.88-4.13 11.45 6.46 31.39 6.46 31.39s20.6.81 30.2-8.09c7.81-7.23 4.18-16.45-.64-19.58z" fill="#f44336"/><path d="m116.31 96.26s-1.58-1-2.52-1.18c0 0 3.14 3.61 3.62 8.55.31 3.26-.54 7.09-4.21 10.85-7.96 8.15-25.07 9.4-26.34 9.46 1.51.05 20.87.46 30.1-8.09 7.8-7.24 4.17-16.46-.65-19.59z" fill="#c62828"/><path d="m102.67 97.3c.28-1.04.4-2.12.44-2.76.19-3.22-.6-5.24-2.36-7.32-1.77-2.08-4.41-3.2-4.41-3.2s2.33 1.58 3.03 5.68c.37 2.15.22 4.37-.29 6.5-.18.77-.41 1.55-.28 2.33s.72 1.55 1.51 1.57c1.27.04 1.97-1.34 2.36-2.8z" fill="#c62828"/><path d="m87.39 88.07c2.2-1.48 5.4-2.56 7.37-.04 1.04 1.34.24 3.97-1.75 4.66-3.37 1.15-3.91 2.44-4.56 3.44-.78 1.21-1.52 2.71-2.93 3s-2.24-.74-2.3-2.8c-.01-.42-.33-5.23 4.17-8.26z" fill="#ff847a"/><path d="m27.99 59.77c-7.12 2.67-7.92 10.68-7.92 10.68s-4.52-5.11-10.83-3.14c-7.59 2.37-11.55 10.37-5.64 19.22 6.76 10.12 29.09 13.45 29.09 13.45s12.89-16.09 11.44-29.1c-1.18-10.58-10.75-13.13-16.14-11.11z" fill="#f44336"/><path d="m27.99 59.77s-1.74.68-2.44 1.33c0 0 4.77-.38 9.03 2.17 2.8 1.68 5.38 4.64 6.22 9.83 1.82 11.25-7.34 25.75-8.04 26.81.93-1.19 12.77-16.52 11.37-29.02-1.18-10.59-10.75-13.14-16.14-11.12z" fill="#c62828"/><path d="m20.73 71.36c-.67-.84-1.47-1.58-1.97-1.99-2.48-2.07-4.57-2.63-7.29-2.45-2.73.18-5.19 1.65-5.19 1.65s2.66-.94 6.37.93c1.95.98 3.65 2.42 5.06 4.09.51.6 1.01 1.25 1.71 1.61s1.68.34 2.16-.28c.78-1 .09-2.39-.85-3.56z" fill="#c62828"/><path d="m4.22 78.16c.12-2.65 1.15-5.87 4.35-5.95 1.7-.04 3.34 2.17 2.7 4.18-1.07 3.4-.36 4.59.06 5.71.51 1.35 1.28 2.83.68 4.14s-1.93 1.37-3.62.19c-.35-.25-4.4-2.85-4.17-8.27z" fill="#ff847a"/></svg>