<svg enable-background="new 0 0 128 128" viewBox="0 0 128 128" xmlns="http://www.w3.org/2000/svg" xmlns:xlink="http://www.w3.org/1999/xlink"><radialGradient id="a" cx="-1134.5881" cy="698.673" gradientTransform="matrix(-.9989 -.0467 -.0467 .9989 -1035.676 -736.6554)" gradientUnits="userSpaceOnUse" r="17.496"><stop offset=".1692" stop-color="#fecc81"/><stop offset=".2255" stop-color="#ffd492"/><stop offset=".3652" stop-color="#ffe7bc"/><stop offset=".4717" stop-color="#fff2d7"/><stop offset=".5315" stop-color="#fef7e2"/></radialGradient><linearGradient id="b" gradientUnits="userSpaceOnUse" x1="63.95" x2="63.95" y1="86.2441" y2="124.3401"><stop offset="0" stop-color="#fcb316"/><stop offset=".0724" stop-color="#ffcb28"/><stop offset=".3217" stop-color="#ffc826"/><stop offset=".5653" stop-color="#febf1e"/><stop offset=".7841" stop-color="#fcb316"/></linearGradient><linearGradient id="c" gradientUnits="userSpaceOnUse" x1="30.7" x2="97.4" y1="72.45" y2="72.45"><stop offset=".2376" stop-color="#ffd54e"/><stop offset=".7544" stop-color="#fec111"/></linearGradient><linearGradient id="d"><stop offset=".4685" stop-color="#fef7e2"/><stop offset=".5283" stop-color="#fff2d7"/><stop offset=".6348" stop-color="#ffe7bc"/><stop offset=".7745" stop-color="#ffd492"/><stop offset=".8308" stop-color="#fecc81"/></linearGradient><radialGradient id="e" cx="176.5143" cy="796.8823" gradientTransform="matrix(.9782 .2304 -.1657 .649 34.7979 -550.325)" gradientUnits="userSpaceOnUse" r="86.93" xlink:href="#d"/><radialGradient id="f" cx="-55.9349" cy="1145.1023" gradientTransform="matrix(1.0264 -.159 .1026 .6636 -.3646 -762.6547)" gradientUnits="userSpaceOnUse" r="45.23" xlink:href="#d"/><radialGradient id="g" cx="-137.7035" cy="1135.0299" gradientTransform="matrix(1.1621 -.1662 .1359 .6641 65.7896 -763.2049)" gradientUnits="userSpaceOnUse" r="65.185" xlink:href="#d"/><radialGradient id="h" cx="-96.2867" cy="1449.6685" gradientTransform="matrix(.9738 -.2102 .1289 .5249 -32.9033 -751.361)" gradientUnits="userSpaceOnUse" r="96.963"><stop offset=".4465" stop-color="#fef7e2"/><stop offset=".4957" stop-color="#fff2d7"/><stop offset=".5833" stop-color="#ffe7bc"/><stop offset=".6984" stop-color="#ffd492"/><stop offset=".7447" stop-color="#fecc81"/></radialGradient><path d="m46.8 27.2s-2-11.8 11.1-19.2c3-1.7 3.6-3.5 5.5-4 1.8-.5 2.6 1 2.4 2.8-.4 3.8.4 9.5 8.3 9.9h.6c-5.5 7.8-27.9 10.5-27.9 10.5z" fill="url(#a)"/><path d="m75.2 124.2h-22.4c-4.5 0-8.2-3.3-8.9-7.7l-6.5-46h53.1l-6.5 46c-.6 4.4-4.4 7.7-8.8 7.7z" fill="url(#b)"/><path d="m90.6 70.4-1.7 11.6-.4 2.8-2 13.9-.3 2.3-.3 2.5-.4 2.8-1.1 8.1-.3 2.1v.2c-.7 4.3-4.4 7.5-8.8 7.5h-22.5c-.6 0-1.2-.1-1.8-.2-3.7-.7-6.6-3.7-7.1-7.6l-.3-2.3-.3-2.3-.1-.6-.4-2.8-1.6-11.1-.3-2.3-1-6.9-.4-2.8-2.1-15.1h53.2z" fill="none"/><path d="m88.9 82.1c-.3 0-.6.1-.9.3l-8.1 9-7.9-8.8 4.3-4.8c.4-.4.3-1-.1-1.4s-1-.3-1.4.1l-4.1 4.6-4.1-4.6c-.4-.4-1-.4-1.4-.1-.4.4-.4 1-.1 1.4l4.3 4.8-6.7 7.5-7.3-8.1 1.4-1.5c.4-.4.3-1-.1-1.4s-1-.3-1.4.1l-1.3 1.3-3.5-3.9c-.4-.4-1-.4-1.4-.1-.4.4-.4 1-.1 1.4l3.7 4.1-7.9 8.8-4.4-4.9c-.2-.3-.6-.4-.9-.3l.4 2.8 3.6 4-2.6 2.9.3 2.3c.2 0 .4-.1.6-.3l3-3.3 7.3 8.2-7.3 8.2-1.2-1.3c-.2-.3-.6-.4-.9-.3l.4 2.8.3.3-.2.2.3 2.3c.2 0 .4-.1.6-.3l.7-.7 7.9 8.8-1.4 1.6c-.1.2-.2.3-.2.5.6.1 1.2.2 1.8.2h.5l.7-.8.7.8h2.2c0-.3 0-.6-.2-.8l-1.4-1.5 7.3-8.2 6.7 7.5-2.1 2.3c-.2.2-.3.4-.3.7h2.3l1.3-1.5 1.3 1.5h2.3c0-.2-.1-.5-.2-.7l-2.1-2.3 7.9-8.8 3.5 3.9c.2.2.4.3.6.3 0-.1 0-.1 0-.2l.3-2.1-3-3.4 4.2-4.7.4-2.8c-.3 0-.7 0-.9.3l-5 5.6-6.7-7.5 6.7-7.5 5.7 6.3c.2.2.4.3.6.3l.3-2.3-5.2-5.9 7.2-8zm-42.7 10.1 7.9-8.8 7.3 8.2-7.8 8.8zm7.8 28.1-7.9-8.8 7.3-8.2 7.9 8.8zm.8-18.4 7.9-8.8 7.8 8.8-7.8 8.8zm23.8 9-7.8 8.8-6.7-7.5 7.9-8.8zm-6.7-10.5-7.9-8.8 6.7-7.5 7.9 8.8z" fill="#795649" opacity=".2"/><path d="m88.3 72.4-6.2 43.7c-.5 3.4-3.5 6-6.9 6h-22.4c-3.4 0-6.4-2.6-6.9-6l-6.2-43.7zm2.3-2h-53.2l6.5 46c.7 4.4 4.4 7.7 8.9 7.7h22.4c4.4 0 8.2-3.3 8.9-7.7 0 0 6.5-46 6.5-46z" fill="#434343" opacity=".2"/><path d="m91.4 83.9h-54.8c-2.2 0-4.1-1.9-4.1-4.3l-1.8-18.6h66.7l-1.9 18.6c-.1 2.4-1.9 4.3-4.1 4.3z" fill="url(#c)"/><path d="m95.1 63-1.7 16.4v.2c0 1.3-.9 2.3-2.1 2.3h-54.7c-1.1 0-2.1-1-2.1-2.3 0-.1 0-.1 0-.2l-1.6-16.4zm2.2-2h-66.6l1.9 18.6c0 2.4 1.8 4.3 4.1 4.3h54.8c2.2 0 4.1-1.9 4.1-4.3-.1 0 1.7-18.6 1.7-18.6z" fill="#434343" opacity=".2"/><path d="m88.7 66.5-49.5-2.3 2.7-17.7 50.8-5.3c7.4 1.7 11 10.7 9.9 15.9-2.4 11.1-13.9 9.4-13.9 9.4z" fill="url(#e)"/><path d="m74.2 29.7-22.2 4.9c-8.4 1.3-10.1-9-6-14.5 1.9-2.6 5.3-4.3 8.7-4.8l11.3-1.8c4.2-.7 8.5 1.2 10.7 4.7 3.2 5.4 4.5 9.1-2.5 11.5z" fill="url(#f)"/><path d="m82.7 46.5-37.8 6.4c-10.9 1.4-14.8-9.8-9.8-18.7 1.9-3.4 5.5-5.8 9.6-6.4l30.4-4.6c5.2-.8 10.6 1.4 13.6 5.4l.4.6c5.5 7.7 3.3 16-6.4 17.3z" fill="url(#g)"/><path d="m97.9 45.1-.2-.3c-2.7-4.2-7.8-6.4-13-5.7l-48.1 6.9c-4.1.6-7.8 2.9-9.7 6.4-3.5 6.5-.2 13.7 5.8 16.5 2.2 1 2.8.6 4.4 2.6 1.1 1.4 2 2.6 3.8 2.9 2.6.3 3.7-.6 4.3-2.1.4-1 .6-2.2.8-2.5 1.7-3.8 5.9-1.4 5.8 1.7l-.2 1.9c-.1 2.1 1.5 4.1 3.7 4.4 2.5.3 4.7-1.4 4.8-3.8l.3-4c.1-1.9 1.5-3.4 3.5-3.7 0 0 3.2-1.2 7.5-1.4 8-.5 11.2 1.1 12.3 3.2 1 1.8 2.7 3.1 4.8 3.4 4.1.7 7.8-2.2 8-6.1v-.1c.2-3.5 1.2-6.8 2.6-10 1.3-3 1.1-6.7-1.2-10.2z" fill="url(#h)"/><path d="m63.8 6c0 .2.1.4 0 .8-.3 2.9.1 5.5 1.2 7.5.3.6 1 1 1.8 1h.2.7c3 0 5.8 1.5 7.4 3.9.8 1.4 1.8 3.1 2.1 4.4.2.8.9 1.4 1.7 1.5 3.3.4 6.3 2.1 8.2 4.7l.4.6c2.2 3 3.1 6.3 2.3 8.9-.3 1 .2 2 1.2 2.4 1.3.5 2.5 1.3 3.5 2.2.1.1.2.2.3.3 4.7 2.8 6.6 9.1 5.8 12.4-.7 3.3-2.4 5.5-5.1 6.8-.7.3-1.1 1-1.2 1.7v.2.1c-.1 2.4-2.2 4.2-4.8 4.2-.3 0-.6 0-.9-.1-1.4-.2-2.7-1.1-3.4-2.4-.7-1.2-1.7-2.2-3.1-2.9-.2-.1-.5-.2-.8-.2l-13.9-.7h-.1c-.1 0-.2 0-.4 0-1.9.4-3.3.8-3.8 1-2.8.5-4.8 2.8-5 5.5l-.3 4c0 1.1-1 1.9-2.2 1.9-.1 0-.2 0-.3 0-1.1-.2-2-1.2-1.9-2.3l.2-1.8c0-.1 0-.1 0-.2 0-1.5-.6-3-1.7-4.1-1-1-2.3-1.6-3.6-1.6-1.9 0-3.5 1.1-4.4 3.1-.1.3-.2.6-.3 1.1s-.3 1.1-.5 1.5c-.2.6-.4.9-1.4.9-.2 0-.5 0-.8-.1-.9-.1-1.3-.6-2.4-1.9l-.1-.2c-1.3-1.7-2.3-2.1-3.7-2.6-.4-.2-.9-.3-1.4-.6-2.7-1.3-4.7-3.5-5.6-6.2-.6-1.8-.9-4.5.7-7.6 1.2-2.2 3.2-3.8 5.8-4.8.5-.2.9-.6 1.1-1 .2-.5.2-1 0-1.5-1.2-3.2-.8-7.3 1.2-10.9 1.5-2.7 4.2-4.6 7.5-5.2 1-.2 1.7-1.1 1.6-2.2-.2-2.3.4-4.8 1.7-6.5.4-.5.9-1 1.5-1.5.2-.2.4-.4.5-.7 1.8-3.7 4.8-6.7 9-9.1 1.7-1 2.8-1.9 3.6-2.7 1-.5 1.4-.8 1.9-1m.2-2c-.2 0-.4 0-.7.1-2 .5-2.6 2.4-5.8 4.2-5.2 3-8.2 6.6-9.8 10-.7.6-1.3 1.2-1.9 1.9-1.7 2.2-2.4 5.2-2.1 7.9-3.8.8-7 3-8.8 6.2-2.4 4.2-2.7 8.9-1.3 12.6-2.9 1.1-5.4 3-6.8 5.7-3.5 6.5-.2 13.7 5.8 16.5 2.2 1 2.8.6 4.4 2.6 1.1 1.4 2 2.6 3.8 2.9.4.1.7.1 1 .1 1.9 0 2.7-.8 3.2-2.1.4-1 .6-2.2.8-2.5.6-1.4 1.6-1.9 2.5-1.9 1.7 0 3.3 1.7 3.3 3.7l-.2 1.9c-.1 2.1 1.5 4.1 3.7 4.4h.6c2.3 0 4.1-1.7 4.2-3.8l.3-4c.1-1.9 1.5-3.4 3.5-3.7 0 0 1.4-.5 3.7-1l13.9.7c1.1.6 1.8 1.3 2.2 2.1 1 1.8 2.7 3.1 4.8 3.4.4.1.8.1 1.2.1 3.6 0 6.6-2.7 6.8-6.2v-.1c0-.1 0-.1 0-.2 2.6-1.2 5.2-3.6 6.2-8.2.9-4.3-1.5-11.4-6.8-14.6-1.2-1.1-2.6-2-4.2-2.6.9-3.1.1-7-2.6-10.6l-.4-.6c-2.2-3-5.7-5-9.5-5.5-.4-1.5-1.2-3.1-2.3-5-2-3.1-5.4-4.9-9-4.9-.3 0-.6 0-.9 0-1.1-2-1.2-4.4-1-6.3.2-1.8-.4-3.2-1.8-3.2z" fill="#434343" opacity=".2"/></svg>