<svg viewBox="0 0 64 64" xmlns="http://www.w3.org/2000/svg"><path d="m20.3 45.3 2.3 12.7c.1 2.8 3.9 4 10.9 4s10.8-1.2 10.9-4l2.3-12.8z" fill="#ffc861"/><path d="m20.4 45.6s3.2 2.3 13.2 2.3 13.1-2.3 13.1-2.3z" fill="#b17f4a"/><path d="m16.5 35 1 8.1c.1 2.8 6.8 4 16 4s15.9-1.2 16-4l1-8.1z" fill="#ffc861"/><path d="m17.1 39.9s3.7 3.6 16.4 3.6 16.5-4.3 16.5-4.3z" fill="#b17f4a"/><path d="m20.8 12c-8.1 0-16.2 13.1-6.3 23.3 0 6.7 9.2 6.7 19.1 6.7 13.6 0 18-3.9 18-3.9z" fill="#ffe0b5"/><path d="m50.5 28.5c.9-2 1.9-6.5-.2-9.7-2.8-4.1-6.4-5-9.6-7.2-1.8-1.3-4.8-4.6-.6-7.6 0 0-8.9-5.8-15.9 2.1-2 2.3-3.1 4.7-3.6 6.8-12.7 3.9-10.9 27.2 7.8 22.6-15.3-.5-13.3-15.5-8-21.7-.6 2.8-.2 4.8-.2 4.8-2.3 5.7-.1 12.7 5.1 15.5 1 .6 2.1 1 3.2 1.4 0 0-7.1 3.5-12.7.5 3.6 5.3 9.9 2.1 13.2 2.2 3.6.1 2.5 3.3 10.8 1.3 6.1-1.5 8-2.6 12-1.4-.1 0 5.8-5.5-1.3-9.6" fill="#8f6453"/><g fill="#ffe0b5"><path d="m40.1 4c-19.9-5-22.7 18.6-10 23.5 2.2.4 4.3.3 6.4 0-13-2.7-13.6-22-1.4-23-10.7 6.3-4.4 22.2 7.5 22.2-9.9-5.9-11.5-16.9-5.3-21.1-6.3 14 9.5 12 13.1 22.9 2.3-14.4-17-10.1-10.3-24.5"/><path d="m20.1 18.8c1.4 5.8 7 10.4 13.6 10.4 7.1 0 12.9-2.6 18.4 4.8-7.4-3.8-11.6-1.3-18.6-1.3-8.3 0-14.9-6.7-13.4-13.9"/></g><path d="m21.7 47.6 3 .8.1 1.5-2.8-.3 3.8.7-.2-1.9zm4.9.9 3 .5v1.5l-2.8-.1 3.8.4-.1-1.9zm4.9.4 3 .3v1.4l-2.9.2h3.8l.1-1.9zm5 0 3-.1-.1 1.5-3 .5 3.9-.4.1-1.9zm5-.5 2.9-.3-.3 1.4-2.8.8 3.7-.7.3-2zm-19.4 1.6 2.8.8.2 1.4-2.7-.3 3.6.7-.2-1.9zm4.7.8 2.9.5.1 1.5-2.8-.1 3.7.4-.1-1.9zm4.8.4 2.9.3v1.4l-2.8.2h3.7v-1.9zm4.8 0h2.9l-.1 1.4-2.9.5 3.7-.4.2-1.9zm4.8-.5 2.8-.3-.2 1.5-2.8.7 3.7-.7.3-1.9zm-18.8 1.6 2.8.8.2 1.5-2.7-.4 3.6.7-.2-1.9zm4.6.8 2.8.6.1 1.4h-2.7l3.6.3-.1-1.9zm4.7.4 2.8.3-.1 1.4-2.7.2h3.6l.1-1.9zm4.6 0h2.8l-.1 1.4-2.8.5 3.6-.3.2-2zm4.7-.5 2.7-.3-.2 1.5-2.7.7 3.5-.7.3-1.9zm-18.2 1.7 2.7.7.1 1.5-2.5-.3 3.4.6-.2-1.9zm4.4.8 2.7.5.1 1.4h-2.6l3.5.3-.1-1.9zm4.5.3 2.7.3v1.4l-2.6.2h3.4l.1-1.9zm4.5 0h2.7l-.1 1.4-2.6.5 3.4-.3.2-1.9zm4.5-.5 2.7-.2-.3 1.4-2.6.7 3.4-.6.3-1.9zm-17.6 1.7 2.6.8.2 1.4-2.5-.3 3.3.7-.2-1.9zm4.3.8 2.7.5v1.4h-2.5l3.4.3-.1-1.9zm4.4.4 2.6.2v1.4l-2.6.3h3.4v-1.9zm4.3-.1h2.6l-.1 1.5-2.5.4 3.3-.3.2-1.9zm4.4-.4 2.5-.3-.2 1.5-2.5.7 3.3-.7.3-1.9z" fill="#e3a93d"/></svg>