<svg fill="none" height="32" viewBox="0 0 32 32" width="32" xmlns="http://www.w3.org/2000/svg"><path d="m10.9209 22.9067.82 6.55c.05.43.42.75.85.75h7.61c.43 0 .79-.32.85-.75l.82-6.55z" fill="#d3883e"/><path d="m18.6854 22.9067-2.2172 2.2172-2.2172-2.2172h-1.4046l-1.7113 1.7114.33 2.6359 1.4315 1.4315-1.0649 1.0649c.1444.2741.4347.4563.7592.4563h.0786l.8692-.8691.8692.8691h1.2946l-1.4916-1.5212 2.2673-2.2674 2.2674 2.2674-1.5213 1.5212h1.2942l.8691-.8691.8675.8674c.3374-.0213.6243-.2399.7443-.5498l-.9697-.9697 1.2777-1.2777.1852-1.4794-2.115 2.115-2.2673-2.2674 2.2673-2.2673 2.1489 2.1489.144-1.1504-1.5806-1.6005zm-7.394 2.8593 2.2674-2.2673 2.2673 2.2673-2.2673 2.2674z" fill="#e19747"/><path d="m22.4409 22.9068h-11.97c-.47 0-.86003-.38-.86003-.86v-1.49l13.68003-1.05v2.54c.01.48-.38.86-.85.86z" fill="#f3ad61"/><path d="m19.9509 6.2868c1.11-.09 2.02.74 2.02 1.85 0 .56765-.2338 1.10191-.6089 1.50383l.1588-.01389c1.36-.12 2.56.88996 2.68 2.24996.0572.6473-.1417 1.2584-.5124 1.734 1.2263.2977 2.1826 1.3496 2.3025 2.676.14 1.66-1.09 3.12-2.75 3.27l-2.26.2c-.0854.0071-.5386.0471-1.0994.0966l-.0041.0004-.0014.0001c-1.0159.0896-2.3815.2101-2.5551.2229l-2.8329.2467c-.0315.0312-.0613.0686-.0871.1135-.12.2-.11.6-.11.6 0 .56-.46 1.02-1.02 1.02s-1.02-.45-1.02-1.02c0 0 .02-.32-.09-.45-.0175-.0208-.0365-.0394-.0568-.056l-2.82324.2458c-1.66.14-3.12-1.09-3.27-2.75-.13253-1.5714.96265-2.9636 2.48811-3.2349-.37082-.3918-.6171-.9068-.66813-1.4851-.12-1.36.89-2.56 2.24996-2.68l.4419-.0386c-.3768-.3355-.61183-.82722-.61183-1.3913-.06-.78.32003-1.5.93003-1.89.13-.08.27-.15.42-.2 0 0 3.07-1.15 4.02-1.85.46-.34.6-.88.66-1.21.06-.3.21-.97.96-1.04.89-.08 1.15.56 1.21 1.19v1.95c0 .17.15.3.32.29z" fill="#ffdea7"/></svg>