<svg enable-background="new 0 0 128 128" viewBox="0 0 128 128" xmlns="http://www.w3.org/2000/svg" xmlns:xlink="http://www.w3.org/1999/xlink"><radialGradient id="a" cx="63.6" cy="62.9" gradientUnits="userSpaceOnUse" r="56.9597"><stop offset=".5" stop-color="#fde030"/><stop offset=".92" stop-color="#f7c02b"/><stop offset="1" stop-color="#f4a223"/></radialGradient><path d="m63.6 118.8c-27.9 0-58-17.5-58-55.9s30.1-55.9 58-55.9c15.5 0 29.8 5.1 40.4 14.4 11.5 10.2 17.6 24.6 17.6 41.5s-6.1 31.2-17.6 41.4c-10.6 9.3-25 14.5-40.4 14.5z" fill="url(#a)"/><path d="m111.49 29.67c5.33 8.6 8.11 18.84 8.11 30.23 0 16.9-6.1 31.2-17.6 41.4-10.6 9.3-25 14.5-40.4 14.5-18.06 0-37-7.35-48.18-22.94 10.76 17.66 31 25.94 50.18 25.94 15.4 0 29.8-5.2 40.4-14.5 11.5-10.2 17.6-24.5 17.6-41.4 0-12.74-3.47-24.06-10.11-33.23z" fill="#eb8f00"/><g fill="#422b0d"><path d="m64 101c-8.54 0-14.63-6.29-16.47-9.78-.7-1.18-.83-2.62-.37-3.91.28-.77 1.02-1.29 1.84-1.31.28.01.55.06.81.16 4.3 1.69 8.07 4.14 14.24 4.14s10-2.45 14.24-4.14c.26-.1.53-.16.81-.16.81.04 1.51.55 1.79 1.31.46 1.29.33 2.73-.37 3.91-1.89 3.49-7.98 9.78-16.52 9.78z"/><path d="m49.51 54.37-.2.2c-.16.18-.33.35-.51.5l-.69.57c-.29.22-.62.46-1 .7s-.77.47-1.2.69c-.44.22-.9.41-1.37.57-.49.15-.99.27-1.5.37-.52.08-1.04.12-1.57.12h-.47c-.26 0-.31 0-.41 0l-.7-.09c-.51-.1-1.01-.22-1.5-.37-.48-.18-.94-.39-1.39-.63-.43-.22-.83-.46-1.2-.69-.59-.39-1.14-.83-1.66-1.31l-.63-.58-.25-.25c-1.28-1.17-3.21-1.24-4.57-.17-.99.76-1.32 2.12-.78 3.25l.15.3c.13.29.28.57.44.84 1.03 1.72 2.43 3.19 4.09 4.32.79.55 1.63 1.02 2.51 1.4.97.43 1.97.76 3 1 .55.1 1.06.2 1.73.26.31 0 .67.06.83.06h.78c1.12-.02 2.23-.13 3.33-.35 1.03-.24 2.03-.57 3-1 .88-.38 1.72-.85 2.51-1.4 1.24-.84 2.34-1.88 3.25-3.07l.48-.67.4-.63c.15-.24.28-.5.39-.77l.11-.25c.6-1.43-.08-3.08-1.51-3.68-.1-.04-.2-.08-.3-.1-1.26-.4-2.65-.07-3.59.86z"/><path d="m94.51 54.37-.2.2c-.16.18-.33.35-.51.5l-.69.57c-.29.22-.62.46-1 .7s-.77.47-1.2.69c-.44.22-.9.41-1.37.57-.49.15-.99.27-1.5.37-.52.08-1.04.12-1.57.12h-.47c-.26 0-.31 0-.41 0l-.7-.09c-.51-.1-1.01-.22-1.5-.37-.48-.18-.94-.39-1.39-.63-.43-.22-.83-.46-1.2-.69-.59-.39-1.14-.83-1.66-1.31l-.63-.58-.25-.25c-1.28-1.17-3.21-1.24-4.57-.17-.99.76-1.32 2.12-.78 3.25l.15.3c.13.29.28.57.44.84 1.03 1.72 2.43 3.19 4.09 4.32.79.55 1.63 1.02 2.51 1.4.98.43 2 .77 3.05 1 .55.1 1.06.2 1.73.26.31 0 .67.06.83.06h.78c1.12-.02 2.23-.13 3.33-.35 1.05-.23 2.07-.57 3.05-1 .88-.38 1.72-.85 2.51-1.4 1.24-.84 2.34-1.88 3.25-3.07l.48-.67.4-.63c.15-.24.28-.5.39-.77l.11-.25c.6-1.43-.08-3.08-1.51-3.68-.1-.04-.2-.08-.3-.1-1.29-.45-2.73-.11-3.69.86z"/><path d="m28.42 43.28c-.7.73-1.87.76-2.6.05-.66-.63-.75-1.66-.22-2.4 1.12-1.6 2.49-3.01 4.07-4.17 4.19-3.23 9.44-4.76 14.71-4.27 2.48.31 2 3.48-.21 3.69-5.92.47-11.48 2.98-15.75 7.1z"/><path d="m98.49 43.28c.7.73 1.87.76 2.6.05.66-.63.75-1.66.22-2.4-1.12-1.6-2.49-3.01-4.07-4.17-4.19-3.23-9.44-4.76-14.71-4.27-2.48.31-2 3.48.21 3.69 5.92.47 11.48 2.98 15.75 7.1z"/></g></svg>