<svg enable-background="new 0 0 128 128" viewBox="0 0 128 128" xmlns="http://www.w3.org/2000/svg" xmlns:xlink="http://www.w3.org/1999/xlink"><radialGradient id="a" cx="63.6" cy="62.8999" gradientUnits="userSpaceOnUse" r="56.9597"><stop offset=".5" stop-color="#fde030"/><stop offset=".92" stop-color="#f7c02b"/><stop offset="1" stop-color="#f4a223"/></radialGradient><path d="m63.6 118.8c-27.9 0-58-17.5-58-55.9s30.1-55.9 58-55.9c15.5 0 29.8 5.1 40.4 14.4 11.5 10.2 17.6 24.6 17.6 41.5s-6.1 31.2-17.6 41.4c-10.6 9.3-25 14.5-40.4 14.5z" fill="url(#a)"/><path d="m111.49 29.67c5.33 8.6 8.11 18.84 8.11 30.23 0 16.9-6.1 31.2-17.6 41.4-10.6 9.3-25 14.5-40.4 14.5-18.06 0-37-7.35-48.18-22.94 10.76 17.66 31 25.94 50.18 25.94 15.4 0 29.8-5.2 40.4-14.5 11.5-10.2 17.6-24.5 17.6-41.4 0-12.74-3.47-24.06-10.11-33.23z" fill="#eb8f00"/><path d="m64 0c-33 0-59.8 6.77-59.8 15.12s15.18 17.13 59.8 17.13c42.16 0 59.75-8.77 59.75-17.13s-26.75-15.12-59.75-15.12zm0 21.44c-25.52 0-46.22-2-46.22-6.92s20.7-10 46.22-10 46.22 5.12 46.22 10.05-20.74 6.87-46.22 6.87z" fill="#4fc3f7"/><g fill="#422b0d"><path d="m63 91.61c-9.07.07-17.73-3.74-23.8-10.48-.46-.53-.57-1.28-.28-1.92.29-.65.93-1.07 1.64-1.08.32 0 .64.09.92.25 4.82 2.77 12.88 6.21 21.52 6.21h.14c8.63 0 16.7-3.44 21.51-6.21.28-.16.6-.25.92-.25.71.01 1.35.43 1.64 1.08.3.64.19 1.39-.28 1.92-6.07 6.74-14.75 10.56-23.82 10.48"/><path d="m49 56.89-.15-.2-.43-.55-.53-.57c-.22-.25-.48-.49-.73-.75s-.56-.51-.84-.72c-.26-.2-.54-.39-.84-.54-.2-.11-.42-.2-.65-.25-.07-.01-.14-.01-.21 0 0 0-.06 0-.09 0h-.08.27-.55c-.15 0-.05 0 0 0h.08-.11c-.23.05-.45.13-.66.25-.29.16-.58.34-.84.54-.29.22-.57.46-.83.72-.53.51-1 1-1.3 1.39l-.52.6-.23.27c-1.44 1.61-3.87 1.87-5.62.61-1.12-.78-1.69-2.13-1.47-3.48 0 0 .07-.4.26-1.11.3-1.01.72-1.99 1.25-2.91.85-1.5 2-2.81 3.38-3.85.91-.7 1.92-1.26 3-1.65.3-.12.61-.21.92-.29.33-.1.66-.17 1-.23l.61-.09.51-.06h.55.79.51c.34 0 .67.09 1 .14.64.11 1.28.28 1.89.51 1.08.39 2.09.95 3 1.65 1.38 1.04 2.53 2.35 3.38 3.85.31.52.58 1.07.8 1.63.19.45.35.9.48 1.37.07.24.13.48.16.72v.25c.3 2.04-1.12 3.94-3.16 4.24-.05.01-.1.01-.15.02-1.46.21-2.92-.37-3.85-1.51z"/><path d="m88.46 56.89-.16-.2-.43-.55-.53-.57c-.22-.25-.48-.49-.73-.75s-.56-.51-.84-.72c-.26-.2-.54-.39-.84-.54-.2-.11-.42-.2-.65-.25-.07-.01-.14-.01-.21 0 0 0-.06 0-.09 0h-.08.27-.55c-.15 0-.05 0 0 0h.08-.11c-.23.05-.45.13-.66.25-.29.15-.57.34-.83.54-.3.22-.58.46-.84.72-.53.51-1 1-1.3 1.39l-.52.6-.22.27c-1.45 1.61-3.87 1.87-5.63.61-1.12-.78-1.69-2.13-1.47-3.48 0 0 .07-.4.27-1.11.3-1.02.71-2 1.25-2.91.85-1.5 1.99-2.81 3.37-3.85.91-.7 1.92-1.26 3-1.65.3-.12.61-.21.92-.29.33-.1.66-.17 1-.23l.62-.09.5-.06h.55.79.51c.34 0 .67.09 1 .14.65.11 1.28.28 1.89.51 1.08.39 2.09.95 3 1.65 1.38 1.04 2.53 2.35 3.38 3.85.31.52.58 1.07.8 1.63.19.44.35.89.48 1.35.07.24.13.48.16.72v.25c.32 2.04-1.08 3.95-3.12 4.27-.03 0-.06.01-.09.01-1.49.25-3-.33-3.94-1.51z"/></g></svg>