<?xml version="1.0" encoding="UTF-8"?>
<svg id="Layer_1" data-name="Layer 1" xmlns="http://www.w3.org/2000/svg" version="1.1" viewBox="0 0 640 512">
  <defs>
    <style>
      .cls-1 {
        fill: #292f36;
        stroke-width: 0px;
      }
    </style>
  </defs>
  <path class="cls-1" d="M5.1,9.2C13.3-1.2,28.4-3.1,38.8,5.1l176.6,138.4,6.1-79.5h-29.5c-17.7,0-32-14.3-32-32S174.3,0,192,0h256c17.7,0,32,14.3,32,32s-14.3,32-32,32h-29.5l11.4,148.2c36.7,19.9,65.7,53.2,79.5,94.7l1,3c3.3,9.8,1.6,20.5-4.4,28.8-5.7,7.9-14.9,12.9-24.6,13.3l149.4,117.1c10.4,8.2,12.3,23.3,4.1,33.7-8.2,10.4-23.3,12.3-33.7,4.1L9.2,42.9C-1.2,34.7-3.1,19.6,5.1,9.2ZM129.6,309.9l1-3c9.3-28.1,25.6-52.4,46.5-71.3l147.8,116.4h-164.9c-10.3,0-19.9-4.9-26-13.3s-7.7-19.1-4.4-28.8h0ZM288,384h64v96c0,17.7-14.3,32-32,32s-32-14.3-32-32v-96Z"/>
</svg>