<svg width="66" height="66" viewBox="0 0 66 66" fill="none" xmlns="http://www.w3.org/2000/svg">
<g filter="url(#filter0_d_2667_8558)">
<rect x="3" y="1" width="60" height="60" rx="5.84536" fill="#0093A4" shape-rendering="crispEdges"/>
<path d="M53.0411 48.3146C53.0411 49.819 51.8185 51.0416 50.3142 51.0416H36.9794C35.475 51.0416 34.2524 49.819 34.2524 48.3146V34.9799C34.2524 33.4755 35.475 32.2529 36.9794 32.2529H50.3142C51.8185 32.2529 53.0411 33.4755 53.0411 34.9799V48.3146Z" fill="white"/>
<path d="M45.3335 44.4149C45.329 44.4149 42.552 44.4149 42.552 44.4149V42.1016L45.1381 42.097C45.3971 42.0925 45.6062 41.8789 45.6062 41.6198C45.6062 41.3562 45.3926 41.1426 45.129 41.1426C45.1199 41.1426 42.552 41.1471 42.552 41.1471V38.8792H45.2199C45.2199 38.8792 45.2244 38.8792 45.229 38.8792C45.4926 38.8792 45.7062 38.6656 45.7062 38.402C45.7062 38.1384 45.4926 37.9248 45.229 37.9248C45.2199 37.9248 42.7429 37.9293 41.8248 37.9293C41.6249 37.9293 41.4885 38.0884 41.4885 38.2657C41.4885 38.4202 41.4885 43.6287 41.4885 45.024C41.4885 45.2148 41.6476 45.3648 41.8248 45.3648C42.7611 45.3648 45.3244 45.3694 45.3335 45.3694C45.5971 45.3694 45.8107 45.1558 45.8107 44.8921C45.8107 44.6285 45.5971 44.4149 45.3335 44.4149Z" fill="#0093A4"/>
<path d="M31.7474 48.3146C31.7474 49.819 30.5248 51.0416 29.0205 51.0416H15.6857C14.1813 51.0416 12.9587 49.819 12.9587 48.3146L12.9587 34.9799C12.9587 33.4755 14.1813 32.2529 15.6857 32.2529H29.0205C30.5248 32.2529 31.7474 33.4755 31.7474 34.9799L31.7474 48.3146Z" fill="white"/>
<path d="M19.3447 45.0233C19.3447 44.8915 19.3447 39.6694 19.3447 38.2696C19.3447 38.0605 19.4947 37.9287 19.6992 37.9287C19.9038 37.9287 21.8535 37.9287 21.8535 37.9287C22.867 37.9287 23.6669 38.0787 24.2578 38.3832C24.8486 38.6877 25.3167 39.1331 25.6622 39.724C26.0121 40.3148 26.1848 40.9556 26.1848 41.651C26.1848 42.1464 26.0894 42.6236 25.8985 43.0781C25.7076 43.5326 25.4349 43.9325 25.0759 44.278C24.7123 44.6325 24.2941 44.9006 23.8124 45.0824C23.5306 45.1915 23.2761 45.2642 23.0397 45.3051C22.8034 45.3415 22.358 45.3596 21.699 45.3596C21.699 45.3596 19.9356 45.3551 19.6947 45.3596C19.472 45.3642 19.3447 45.1778 19.3447 45.0233ZM21.7399 38.8786H20.4082V44.4143H21.7717C22.3035 44.4143 22.717 44.3779 23.0125 44.3052C23.3079 44.2325 23.5533 44.1416 23.7487 44.028C23.9442 43.9144 24.126 43.778 24.2896 43.6144C24.8168 43.0826 25.0759 42.41 25.0759 41.5965C25.0759 40.7965 24.8077 40.1466 24.2669 39.6421C24.0669 39.4558 23.8396 39.3013 23.5806 39.1786C23.3215 39.0558 23.0806 38.9786 22.8489 38.9377C22.6216 38.9013 22.2535 38.8786 21.7399 38.8786Z" fill="#0093A4"/>
<path d="M53.0411 27.0207C53.0411 28.5251 51.8185 29.7476 50.3142 29.7476L36.9794 29.7476C35.475 29.7476 34.2524 28.5251 34.2524 27.0207V13.6859C34.2524 12.1816 35.475 10.959 36.9794 10.959L50.3142 10.959C51.8185 10.959 53.0411 12.1816 53.0411 13.6859V27.0207Z" fill="white"/>
<path d="M43.6253 16.5352C44.7752 16.5352 45.7341 16.8987 46.4977 17.6259C47.2612 18.3531 47.643 19.2666 47.643 20.362C47.643 21.4573 47.2567 22.3663 46.484 23.0889C45.7114 23.807 44.7388 24.1661 43.5662 24.1661C42.4436 24.1661 41.5119 23.807 40.762 23.0889C40.0166 22.3708 39.6394 21.4664 39.6394 20.3847C39.6394 19.2712 40.0166 18.3531 40.7665 17.6259C41.521 16.8987 42.4754 16.5352 43.6253 16.5352ZM43.6662 17.5487C42.8163 17.5487 42.1164 17.8168 41.5664 18.3486C41.0165 18.8803 40.7438 19.5621 40.7438 20.3892C40.7438 21.1937 41.0211 21.8572 41.571 22.3935C42.1209 22.9253 42.8072 23.1935 43.6344 23.1935C44.4661 23.1935 45.1569 22.9208 45.7114 22.3799C46.2659 21.8345 46.5431 21.1619 46.5431 20.3483C46.5431 19.5621 46.2659 18.8985 45.7114 18.3577C45.1569 17.8168 44.4752 17.5487 43.6662 17.5487Z" fill="#0093A4"/>
<path d="M31.7474 27.0207C31.7474 28.5251 30.5248 29.7476 29.0205 29.7476L15.6857 29.7476C14.1813 29.7476 12.9587 28.5251 12.9587 27.0207L12.9587 13.6859C12.9587 12.1816 14.1813 10.959 15.6857 10.959L29.0205 10.959C30.5248 10.959 31.7474 12.1816 31.7474 13.6859L31.7474 27.0207Z" fill="white"/>
<path d="M24.9913 22.7026C24.9186 22.7026 24.7868 22.7435 24.7868 22.7435C24.1551 23.0344 23.5097 23.1798 22.8552 23.1798C21.9917 23.1798 21.2827 22.9162 20.7282 22.3935C20.1737 21.8663 19.8965 21.1982 19.8965 20.3801C19.8965 19.5712 20.1783 18.8985 20.7419 18.3577C21.3054 17.8214 22.0144 17.5487 22.8643 17.5487C23.4643 17.5487 24.0687 17.6714 24.6868 17.9304C24.755 17.9623 24.8368 17.9895 24.9141 17.9895C25.1913 17.9895 25.4186 17.7623 25.4186 17.485C25.4186 17.2714 25.2368 17.0715 25.0959 17.0169C24.2687 16.6942 23.5052 16.5352 22.8143 16.5352C21.6826 16.5352 20.7282 16.9033 19.9556 17.6441C19.1829 18.3849 18.7966 19.2939 18.7966 20.3756C18.7966 21.0573 18.9648 21.6936 19.3011 22.2754C19.6374 22.8617 20.0965 23.3207 20.6737 23.657C21.2509 23.9888 21.9553 24.157 22.7871 24.157C23.6642 24.157 24.4641 23.9934 25.164 23.6798C25.3686 23.6025 25.4958 23.4071 25.4958 23.2025C25.5004 22.9298 25.2731 22.7026 24.9913 22.7026Z" fill="#0093A4"/>
</g>
<defs>
<filter id="filter0_d_2667_8558" x="0.494845" y="0.164948" width="65.0103" height="65.0103" filterUnits="userSpaceOnUse" color-interpolation-filters="sRGB">
<feFlood flood-opacity="0" result="BackgroundImageFix"/>
<feColorMatrix in="SourceAlpha" type="matrix" values="0 0 0 0 0 0 0 0 0 0 0 0 0 0 0 0 0 0 127 0" result="hardAlpha"/>
<feOffset dy="1.6701"/>
<feGaussianBlur stdDeviation="1.25258"/>
<feComposite in2="hardAlpha" operator="out"/>
<feColorMatrix type="matrix" values="0 0 0 0 0 0 0 0 0 0 0 0 0 0 0 0 0 0 0.16 0"/>
<feBlend mode="normal" in2="BackgroundImageFix" result="effect1_dropShadow_2667_8558"/>
<feBlend mode="normal" in="SourceGraphic" in2="effect1_dropShadow_2667_8558" result="shape"/>
</filter>
</defs>
</svg>
