<svg width="190" height="278" viewBox="0 0 190 278" fill="none" xmlns="http://www.w3.org/2000/svg">
<path d="M57.3887 232.72C57.3887 211.868 74.2931 194.963 95.1458 194.963V194.963C115.998 194.963 132.903 211.868 132.903 232.72V232.72C132.903 253.573 115.998 270.478 95.1458 270.478V270.478C74.2931 270.478 57.3887 253.573 57.3887 232.72V232.72Z" fill="white"/>
<path d="M57.3887 232.72C57.3887 211.868 74.2931 194.963 95.1458 194.963V194.963C115.998 194.963 132.903 211.868 132.903 232.72V232.72C132.903 253.573 115.998 270.478 95.1458 270.478V270.478C74.2931 270.478 57.3887 253.573 57.3887 232.72V232.72Z" fill="#3CFFF8"/>
<path fill-rule="evenodd" clip-rule="evenodd" d="M55.8682 232.721C55.8682 211.027 73.4542 193.441 95.1477 193.441C116.841 193.441 134.427 211.027 134.427 232.721C134.427 254.414 116.841 272 95.1477 272C73.4542 272 55.8682 254.414 55.8682 232.721ZM95.1477 196.486C75.1358 196.486 58.913 212.709 58.913 232.721C58.913 252.732 75.1358 268.955 95.1477 268.955C115.16 268.955 131.382 252.732 131.382 232.721C131.382 212.709 115.16 196.486 95.1477 196.486Z" fill="black"/>
<path d="M54.0576 246.046H134.014V246.046C134.014 252.729 128.596 258.261 121.913 258.261H66.1586C59.4754 258.261 54.0576 252.729 54.0576 246.046V246.046Z" fill="white"/>
<path d="M54.0576 246.046H134.014V246.046C134.014 252.729 128.596 258.261 121.913 258.261H66.1586C59.4754 258.261 54.0576 252.729 54.0576 246.046V246.046Z" fill="#F2F2F2"/>
<path fill-rule="evenodd" clip-rule="evenodd" d="M51.0137 243.001H134.015V246.046H54.0585C54.0585 247.095 54.192 248.115 54.4428 249.091C55.7903 254.329 60.5252 258.261 66.1595 258.261H121.914C127.548 258.261 132.283 254.329 133.63 249.091C133.881 248.115 134.015 247.095 134.015 246.046H137.06C137.06 254.373 130.316 261.306 121.914 261.306H66.1595C57.7575 261.306 51.0137 254.373 51.0137 246.046V243.001Z" fill="black"/>
<path d="M42.9536 161.093C42.9536 165.693 38.9761 169.421 34.0696 169.421C29.1631 169.421 25.1855 165.693 25.1855 161.093C25.1855 156.493 29.1631 152.764 34.0696 152.764C38.9761 152.764 42.9536 156.493 42.9536 161.093Z" fill="#828282"/>
<path d="M162.888 161.093C162.888 165.693 158.911 169.422 154.004 169.422C149.098 169.422 145.12 165.693 145.12 161.093C145.12 156.493 149.098 152.764 154.004 152.764C158.911 152.764 162.888 156.493 162.888 161.093Z" fill="#828282"/>
<path d="M43.6245 161.437C43.6245 166.207 39.4654 170.074 34.3347 170.074C29.2041 170.074 25.0449 166.207 25.0449 161.437C25.0449 156.667 29.2041 152.8 34.3347 152.8C39.4654 152.8 43.6245 156.667 43.6245 161.437Z" fill="#828282"/>
<path fill-rule="evenodd" clip-rule="evenodd" d="M46.6693 161.437C46.6693 168.094 40.9341 173.119 34.3346 173.119C27.7351 173.119 22 168.094 22 161.437C22 154.78 27.7351 149.755 34.3346 149.755C40.9341 149.755 46.6693 154.78 46.6693 161.437ZM34.3346 170.074C39.4653 170.074 43.6244 166.207 43.6244 161.437C43.6244 156.667 39.4653 152.8 34.3346 152.8C29.204 152.8 25.0448 156.667 25.0448 161.437C25.0448 166.207 29.204 170.074 34.3346 170.074Z" fill="black"/>
<path d="M162.899 161.437C162.899 166.207 158.74 170.074 153.609 170.074C148.479 170.074 144.319 166.207 144.319 161.437C144.319 156.667 148.479 152.8 153.609 152.8C158.74 152.8 162.899 156.667 162.899 161.437Z" fill="#828282"/>
<path fill-rule="evenodd" clip-rule="evenodd" d="M165.943 161.437C165.943 168.094 160.208 173.119 153.608 173.119C147.009 173.119 141.273 168.094 141.273 161.437C141.273 154.78 147.009 149.755 153.608 149.755C160.208 149.755 165.943 154.78 165.943 161.437ZM153.608 170.074C158.739 170.074 162.898 166.207 162.898 161.437C162.898 156.667 158.739 152.8 153.608 152.8C148.477 152.8 144.318 156.667 144.318 161.437C144.318 166.207 148.477 170.074 153.608 170.074Z" fill="black"/>
<path d="M93.4814 45.0447C87.6549 45.0447 82.9316 49.768 82.9316 55.5945C82.9316 60.46 86.2255 64.5563 90.705 65.7751V79.4262H96.2575V65.7752C100.737 64.5565 104.031 60.4602 104.031 55.5945C104.031 49.768 99.3079 45.0447 93.4814 45.0447Z" fill="#7ECDCA"/>
<path d="M93.4814 45.0447C87.6549 45.0447 82.9316 49.768 82.9316 55.5945C82.9316 60.46 86.2255 64.5563 90.705 65.7751V79.4262H96.2575V65.7752C100.737 64.5565 104.031 60.4602 104.031 55.5945C104.031 49.768 99.3079 45.0447 93.4814 45.0447Z" fill="#7D8E9E"/>
<path d="M93.4814 45.0447C87.6549 45.0447 82.9316 49.768 82.9316 55.5945C82.9316 60.46 86.2255 64.5563 90.705 65.7751V79.4262H96.2575V65.7752C100.737 64.5565 104.031 60.4602 104.031 55.5945C104.031 49.768 99.3079 45.0447 93.4814 45.0447Z" fill="#828282"/>
<path fill-rule="evenodd" clip-rule="evenodd" d="M87.66 82.4711V67.8823C83.0658 65.702 79.8867 61.0225 79.8867 55.5946C79.8867 48.0865 85.9732 42 93.4813 42C100.989 42 107.076 48.0865 107.076 55.5946C107.076 61.0226 103.897 65.7023 99.3022 67.8825V82.4711H87.66ZM96.2574 65.7753C100.737 64.5567 104.031 60.4603 104.031 55.5946C104.031 49.7681 99.3078 45.0448 93.4813 45.0448C87.6548 45.0448 82.9315 49.7681 82.9315 55.5946C82.9315 60.4602 86.2254 64.5564 90.7049 65.7752V79.4263H96.2574V65.7753Z" fill="black"/>
<path d="M81.8203 78.9576C81.8203 74.9477 85.071 71.697 89.0809 71.697H97.8803C101.89 71.697 105.141 74.9477 105.141 78.9576V85.0231H81.8203V78.9576Z" fill="#D0E2EE"/>
<path d="M81.8203 78.9576C81.8203 74.9477 85.071 71.697 89.0809 71.697H97.8803C101.89 71.697 105.141 74.9477 105.141 78.9576V85.0231H81.8203V78.9576Z" fill="#F2F2F2"/>
<path fill-rule="evenodd" clip-rule="evenodd" d="M97.8803 74.7418H89.0809C86.7526 74.7418 84.8651 76.6293 84.8651 78.9576V81.9782H102.096V78.9576C102.096 76.6293 100.209 74.7418 97.8803 74.7418ZM89.0809 71.697C85.071 71.697 81.8203 74.9477 81.8203 78.9576V85.0231H105.141V78.9576C105.141 74.9477 101.89 71.697 97.8803 71.697H89.0809Z" fill="black"/>
<path d="M82.6585 80.5815H105.54C132.954 80.5815 155.177 102.841 155.177 130.299V233.888C155.177 239.99 150.238 244.936 144.146 244.936H44.0519C37.96 244.936 33.0215 239.99 33.0215 233.888V130.299C33.0215 102.841 55.2447 80.5815 82.6585 80.5815Z" fill="white"/>
<path fill-rule="evenodd" clip-rule="evenodd" d="M82.6574 77.5364H105.539C134.639 77.5364 158.221 101.163 158.221 130.298V233.887C158.221 241.666 151.923 247.98 144.145 247.98H44.0508C36.2726 247.98 29.9756 241.666 29.9756 233.887V130.298C29.9756 101.163 53.5574 77.5364 82.6574 77.5364ZM105.539 80.5812H82.6574C55.2436 80.5812 33.0204 102.84 33.0204 130.298V233.887C33.0204 239.989 37.9589 244.936 44.0508 244.936H144.145C150.237 244.936 155.176 239.989 155.176 233.887V130.298C155.176 102.84 132.952 80.5812 105.539 80.5812Z" fill="black"/>
<path d="M129.344 211.15C129.344 211.905 128.731 212.518 127.976 212.518V212.518C127.22 212.518 126.607 211.905 126.607 211.15V200.449C126.607 199.694 127.22 199.081 127.976 199.081V199.081C128.731 199.081 129.344 199.694 129.344 200.449V211.15Z" fill="white"/>
<path d="M129.344 211.15C129.344 211.905 128.731 212.518 127.976 212.518V212.518C127.22 212.518 126.607 211.905 126.607 211.15V200.449C126.607 199.694 127.22 199.081 127.976 199.081V199.081C128.731 199.081 129.344 199.694 129.344 200.449V211.15Z" fill="#7ECDCA"/>
<path d="M129.344 211.15C129.344 211.905 128.731 212.518 127.976 212.518V212.518C127.22 212.518 126.607 211.905 126.607 211.15V200.449C126.607 199.694 127.22 199.081 127.976 199.081V199.081C128.731 199.081 129.344 199.694 129.344 200.449V211.15Z" fill="#7ECDCA"/>
<path d="M129.344 211.15C129.344 211.905 128.731 212.518 127.976 212.518V212.518C127.22 212.518 126.607 211.905 126.607 211.15V200.449C126.607 199.694 127.22 199.081 127.976 199.081V199.081C128.731 199.081 129.344 199.694 129.344 200.449V211.15Z" fill="#828282"/>
<path d="M117.784 209.75H112.986L112.38 211.591C112.197 212.145 111.681 212.518 111.098 212.518V212.518C110.16 212.518 109.508 211.584 109.832 210.704L113.67 200.273C113.933 199.557 114.615 199.082 115.377 199.082V199.082C116.139 199.082 116.819 199.556 117.084 200.27L120.943 210.702C121.269 211.582 120.617 212.518 119.678 212.518V212.518C119.097 212.518 118.582 212.147 118.398 211.596L117.784 209.75ZM113.725 207.507H117.045L115.376 202.478L113.725 207.507Z" fill="white"/>
<path d="M117.784 209.75H112.986L112.38 211.591C112.197 212.145 111.681 212.518 111.098 212.518V212.518C110.16 212.518 109.508 211.584 109.832 210.704L113.67 200.273C113.933 199.557 114.615 199.082 115.377 199.082V199.082C116.139 199.082 116.819 199.556 117.084 200.27L120.943 210.702C121.269 211.582 120.617 212.518 119.678 212.518V212.518C119.097 212.518 118.582 212.147 118.398 211.596L117.784 209.75ZM113.725 207.507H117.045L115.376 202.478L113.725 207.507Z" fill="#7ECDCA"/>
<path d="M117.784 209.75H112.986L112.38 211.591C112.197 212.145 111.681 212.518 111.098 212.518V212.518C110.16 212.518 109.508 211.584 109.832 210.704L113.67 200.273C113.933 199.557 114.615 199.082 115.377 199.082V199.082C116.139 199.082 116.819 199.556 117.084 200.27L120.943 210.702C121.269 211.582 120.617 212.518 119.678 212.518V212.518C119.097 212.518 118.582 212.147 118.398 211.596L117.784 209.75ZM113.725 207.507H117.045L115.376 202.478L113.725 207.507Z" fill="#7ECDCA"/>
<path d="M117.784 209.75H112.986L112.38 211.591C112.197 212.145 111.681 212.518 111.098 212.518V212.518C110.16 212.518 109.508 211.584 109.832 210.704L113.67 200.273C113.933 199.557 114.615 199.082 115.377 199.082V199.082C116.139 199.082 116.819 199.556 117.084 200.27L120.943 210.702C121.269 211.582 120.617 212.518 119.678 212.518V212.518C119.097 212.518 118.582 212.147 118.398 211.596L117.784 209.75ZM113.725 207.507H117.045L115.376 202.478L113.725 207.507Z" fill="#828282"/>
<path d="M133.357 210.896C133.357 211.828 132.602 212.584 131.669 212.584V212.584C130.737 212.584 129.981 211.828 129.981 210.896V210.896C129.981 209.964 130.737 209.208 131.669 209.208V209.208C132.602 209.208 133.357 209.964 133.357 210.896V210.896Z" fill="white"/>
<path d="M133.357 210.896C133.357 211.828 132.602 212.584 131.669 212.584V212.584C130.737 212.584 129.981 211.828 129.981 210.896V210.896C129.981 209.964 130.737 209.208 131.669 209.208V209.208C132.602 209.208 133.357 209.964 133.357 210.896V210.896Z" fill="#7ECDCA"/>
<path d="M133.357 210.896C133.357 211.828 132.602 212.584 131.669 212.584V212.584C130.737 212.584 129.981 211.828 129.981 210.896V210.896C129.981 209.964 130.737 209.208 131.669 209.208V209.208C132.602 209.208 133.357 209.964 133.357 210.896V210.896Z" fill="#7ECDCA"/>
<path d="M133.357 210.896C133.357 211.828 132.602 212.584 131.669 212.584V212.584C130.737 212.584 129.981 211.828 129.981 210.896V210.896C129.981 209.964 130.737 209.208 131.669 209.208V209.208C132.602 209.208 133.357 209.964 133.357 210.896V210.896Z" fill="#828282"/>
<path d="M125.48 210.896C125.48 211.828 124.725 212.584 123.792 212.584V212.584C122.86 212.584 122.104 211.828 122.104 210.896V210.896C122.104 209.964 122.86 209.208 123.792 209.208V209.208C124.725 209.208 125.48 209.964 125.48 210.896V210.896Z" fill="white"/>
<path d="M125.48 210.896C125.48 211.828 124.725 212.584 123.792 212.584V212.584C122.86 212.584 122.104 211.828 122.104 210.896V210.896C122.104 209.964 122.86 209.208 123.792 209.208V209.208C124.725 209.208 125.48 209.964 125.48 210.896V210.896Z" fill="#7ECDCA"/>
<path d="M125.48 210.896C125.48 211.828 124.725 212.584 123.792 212.584V212.584C122.86 212.584 122.104 211.828 122.104 210.896V210.896C122.104 209.964 122.86 209.208 123.792 209.208V209.208C124.725 209.208 125.48 209.964 125.48 210.896V210.896Z" fill="#7ECDCA"/>
<path d="M125.48 210.896C125.48 211.828 124.725 212.584 123.792 212.584V212.584C122.86 212.584 122.104 211.828 122.104 210.896V210.896C122.104 209.964 122.86 209.208 123.792 209.208V209.208C124.725 209.208 125.48 209.964 125.48 210.896V210.896Z" fill="#828282"/>
<path d="M54.0576 244.936H134.014V248.268H54.0576V244.936Z" fill="#828282"/>
<path d="M32.96 127.223H155.115V130.268H32.96V127.223Z" fill="#828282"/>
<path d="M44.0654 159.982C44.0654 146.796 54.755 136.106 67.9412 136.106H120.135C133.321 136.106 144.011 146.796 144.011 159.982V159.982C144.011 173.168 133.321 183.858 120.135 183.858H67.9413C54.755 183.858 44.0654 173.168 44.0654 159.982V159.982Z" fill="#143441"/>
<path d="M44.0654 159.982C44.0654 146.796 54.755 136.106 67.9412 136.106H120.135C133.321 136.106 144.011 146.796 144.011 159.982V159.982C144.011 173.168 133.321 183.858 120.135 183.858H67.9413C54.755 183.858 44.0654 173.168 44.0654 159.982V159.982Z" fill="#0C1F26"/>
<g filter="url(#filter0_d_1649_3697)">
<path d="M74.4258 160.551C74.4258 163.376 72.1376 165.667 69.3149 165.667C66.4923 165.667 64.2041 163.376 64.2041 160.551C64.2041 157.725 66.4923 155.434 69.3149 155.434C72.1376 155.434 74.4258 157.725 74.4258 160.551Z" fill="#3CFFF8"/>
<path d="M94.1803 167.941C91.8414 167.941 89.8027 166.654 88.7323 164.749C88.5269 164.384 88.8121 163.962 89.2314 163.962V163.962C89.4577 163.962 89.6618 164.092 89.7768 164.287C90.6661 165.793 92.3053 166.804 94.1803 166.804C96.0554 166.804 97.6946 165.793 98.5838 164.287C98.6988 164.092 98.903 163.962 99.1293 163.962V163.962C99.5485 163.962 99.8338 164.384 99.6284 164.749C98.5579 166.654 96.5192 167.941 94.1803 167.941Z" fill="#3CFFF8"/>
<path fill-rule="evenodd" clip-rule="evenodd" d="M98.4882 164.442C97.5801 165.863 95.9901 166.804 94.1804 166.804C92.3706 166.804 90.7806 165.863 89.8725 164.442C89.8397 164.391 89.8078 164.339 89.7768 164.286C89.7583 164.255 89.7374 164.225 89.7144 164.197C89.5953 164.053 89.4211 163.962 89.2314 163.962C88.8122 163.962 88.5269 164.384 88.7323 164.749C88.7539 164.788 88.7759 164.826 88.7983 164.864C88.8457 164.944 88.8949 165.024 88.9458 165.102C90.0607 166.811 91.9887 167.941 94.1804 167.941C96.372 167.941 98.3 166.811 99.4149 165.102C99.4658 165.024 99.515 164.944 99.5624 164.864C99.5848 164.826 99.6068 164.788 99.6284 164.749C99.8338 164.384 99.5485 163.962 99.1293 163.962C98.9396 163.962 98.7654 164.053 98.6463 164.197C98.6233 164.225 98.6024 164.255 98.5839 164.286C98.5529 164.339 98.521 164.391 98.4882 164.442ZM94.1804 169.151C91.3861 169.151 88.9531 167.612 87.6773 165.342C86.9477 164.044 88.0356 162.752 89.2314 162.752C89.9333 162.752 90.5116 163.151 90.819 163.671C91.4999 164.825 92.7514 165.594 94.1804 165.594C95.6093 165.594 96.8608 164.825 97.5417 163.671C97.8491 163.151 98.4274 162.752 99.1293 162.752C100.325 162.752 101.413 164.044 100.683 165.342C99.4076 167.612 96.9746 169.151 94.1804 169.151Z" fill="#3CFFF8"/>
<path d="M123.296 160.55C123.296 163.376 121.008 165.667 118.185 165.667C115.362 165.667 113.074 163.376 113.074 160.55C113.074 157.725 115.362 155.434 118.185 155.434C121.008 155.434 123.296 157.725 123.296 160.55Z" fill="#3CFFF8"/>
</g>
<path opacity="0.8" d="M82.9648 55.4837C82.9648 49.6623 87.684 44.9431 93.5054 44.9431V44.9431C99.3268 44.9431 104.046 49.6623 104.046 55.4837V55.7412C104.046 61.5626 99.3268 66.2818 93.5054 66.2818V66.2818C87.684 66.2818 82.9648 61.5626 82.9648 55.7412V55.4837Z" fill="#828282"/>
<path d="M57.3887 232.72C57.3887 211.868 74.2931 194.963 95.1458 194.963V194.963C115.998 194.963 132.903 211.868 132.903 232.72V232.72C132.903 253.573 115.998 270.478 95.1458 270.478V270.478C74.2931 270.478 57.3887 253.573 57.3887 232.72V232.72Z" fill="white"/>
<path d="M57.3887 232.72C57.3887 211.868 74.2931 194.963 95.1458 194.963V194.963C115.998 194.963 132.903 211.868 132.903 232.72V232.72C132.903 253.573 115.998 270.478 95.1458 270.478V270.478C74.2931 270.478 57.3887 253.573 57.3887 232.72V232.72Z" fill="#3CFFF8"/>
<path fill-rule="evenodd" clip-rule="evenodd" d="M55.8682 232.721C55.8682 211.027 73.4542 193.441 95.1477 193.441C116.841 193.441 134.427 211.027 134.427 232.721C134.427 254.414 116.841 272 95.1477 272C73.4542 272 55.8682 254.414 55.8682 232.721ZM95.1477 196.486C75.1358 196.486 58.913 212.709 58.913 232.721C58.913 252.732 75.1358 268.955 95.1477 268.955C115.16 268.955 131.382 252.732 131.382 232.721C131.382 212.709 115.16 196.486 95.1477 196.486Z" fill="black"/>
<path d="M54.0576 246.046H134.014V246.046C134.014 252.729 128.596 258.261 121.913 258.261H66.1586C59.4754 258.261 54.0576 252.729 54.0576 246.046V246.046Z" fill="white"/>
<path d="M54.0576 246.046H134.014V246.046C134.014 252.729 128.596 258.261 121.913 258.261H66.1586C59.4754 258.261 54.0576 252.729 54.0576 246.046V246.046Z" fill="#F2F2F2"/>
<path fill-rule="evenodd" clip-rule="evenodd" d="M51.0137 243.001H134.015V246.046H54.0585C54.0585 247.095 54.192 248.115 54.4428 249.091C55.7903 254.329 60.5252 258.261 66.1595 258.261H121.914C127.548 258.261 132.283 254.329 133.63 249.091C133.881 248.115 134.015 247.095 134.015 246.046H137.06C137.06 254.373 130.316 261.306 121.914 261.306H66.1595C57.7575 261.306 51.0137 254.373 51.0137 246.046V243.001Z" fill="black"/>
<path d="M42.9536 161.093C42.9536 165.693 38.9761 169.421 34.0696 169.421C29.1631 169.421 25.1855 165.693 25.1855 161.093C25.1855 156.493 29.1631 152.764 34.0696 152.764C38.9761 152.764 42.9536 156.493 42.9536 161.093Z" fill="#828282"/>
<path d="M162.888 161.093C162.888 165.693 158.911 169.422 154.004 169.422C149.098 169.422 145.12 165.693 145.12 161.093C145.12 156.493 149.098 152.764 154.004 152.764C158.911 152.764 162.888 156.493 162.888 161.093Z" fill="#828282"/>
<path d="M43.6245 161.437C43.6245 166.207 39.4654 170.074 34.3347 170.074C29.2041 170.074 25.0449 166.207 25.0449 161.437C25.0449 156.667 29.2041 152.8 34.3347 152.8C39.4654 152.8 43.6245 156.667 43.6245 161.437Z" fill="#828282"/>
<path fill-rule="evenodd" clip-rule="evenodd" d="M46.6693 161.437C46.6693 168.094 40.9341 173.119 34.3346 173.119C27.7351 173.119 22 168.094 22 161.437C22 154.78 27.7351 149.755 34.3346 149.755C40.9341 149.755 46.6693 154.78 46.6693 161.437ZM34.3346 170.074C39.4653 170.074 43.6244 166.207 43.6244 161.437C43.6244 156.667 39.4653 152.8 34.3346 152.8C29.204 152.8 25.0448 156.667 25.0448 161.437C25.0448 166.207 29.204 170.074 34.3346 170.074Z" fill="black"/>
<path d="M162.899 161.437C162.899 166.207 158.74 170.074 153.609 170.074C148.479 170.074 144.319 166.207 144.319 161.437C144.319 156.667 148.479 152.8 153.609 152.8C158.74 152.8 162.899 156.667 162.899 161.437Z" fill="#828282"/>
<path fill-rule="evenodd" clip-rule="evenodd" d="M165.943 161.437C165.943 168.094 160.208 173.119 153.608 173.119C147.009 173.119 141.273 168.094 141.273 161.437C141.273 154.78 147.009 149.755 153.608 149.755C160.208 149.755 165.943 154.78 165.943 161.437ZM153.608 170.074C158.739 170.074 162.898 166.207 162.898 161.437C162.898 156.667 158.739 152.8 153.608 152.8C148.477 152.8 144.318 156.667 144.318 161.437C144.318 166.207 148.477 170.074 153.608 170.074Z" fill="black"/>
<path d="M93.4814 45.0447C87.6549 45.0447 82.9316 49.768 82.9316 55.5945C82.9316 60.46 86.2255 64.5563 90.705 65.7751V79.4262H96.2575V65.7752C100.737 64.5565 104.031 60.4602 104.031 55.5945C104.031 49.768 99.3079 45.0447 93.4814 45.0447Z" fill="#7ECDCA"/>
<path d="M93.4814 45.0447C87.6549 45.0447 82.9316 49.768 82.9316 55.5945C82.9316 60.46 86.2255 64.5563 90.705 65.7751V79.4262H96.2575V65.7752C100.737 64.5565 104.031 60.4602 104.031 55.5945C104.031 49.768 99.3079 45.0447 93.4814 45.0447Z" fill="#7D8E9E"/>
<path d="M93.4814 45.0447C87.6549 45.0447 82.9316 49.768 82.9316 55.5945C82.9316 60.46 86.2255 64.5563 90.705 65.7751V79.4262H96.2575V65.7752C100.737 64.5565 104.031 60.4602 104.031 55.5945C104.031 49.768 99.3079 45.0447 93.4814 45.0447Z" fill="#828282"/>
<path fill-rule="evenodd" clip-rule="evenodd" d="M87.66 82.4711V67.8823C83.0658 65.702 79.8867 61.0225 79.8867 55.5946C79.8867 48.0865 85.9732 42 93.4813 42C100.989 42 107.076 48.0865 107.076 55.5946C107.076 61.0226 103.897 65.7023 99.3022 67.8825V82.4711H87.66ZM96.2574 65.7753C100.737 64.5567 104.031 60.4603 104.031 55.5946C104.031 49.7681 99.3078 45.0448 93.4813 45.0448C87.6548 45.0448 82.9315 49.7681 82.9315 55.5946C82.9315 60.4602 86.2254 64.5564 90.7049 65.7752V79.4263H96.2574V65.7753Z" fill="black"/>
<path d="M81.8203 78.9576C81.8203 74.9477 85.071 71.697 89.0809 71.697H97.8803C101.89 71.697 105.141 74.9477 105.141 78.9576V85.0231H81.8203V78.9576Z" fill="#D0E2EE"/>
<path d="M81.8203 78.9576C81.8203 74.9477 85.071 71.697 89.0809 71.697H97.8803C101.89 71.697 105.141 74.9477 105.141 78.9576V85.0231H81.8203V78.9576Z" fill="#F2F2F2"/>
<path fill-rule="evenodd" clip-rule="evenodd" d="M97.8803 74.7418H89.0809C86.7526 74.7418 84.8651 76.6293 84.8651 78.9576V81.9782H102.096V78.9576C102.096 76.6293 100.209 74.7418 97.8803 74.7418ZM89.0809 71.697C85.071 71.697 81.8203 74.9477 81.8203 78.9576V85.0231H105.141V78.9576C105.141 74.9477 101.89 71.697 97.8803 71.697H89.0809Z" fill="black"/>
<path d="M82.6585 80.5815H105.54C132.954 80.5815 155.177 102.841 155.177 130.299V233.888C155.177 239.99 150.238 244.936 144.146 244.936H44.0519C37.96 244.936 33.0215 239.99 33.0215 233.888V130.299C33.0215 102.841 55.2447 80.5815 82.6585 80.5815Z" fill="white"/>
<path fill-rule="evenodd" clip-rule="evenodd" d="M82.6574 77.5364H105.539C134.639 77.5364 158.221 101.163 158.221 130.298V233.887C158.221 241.666 151.923 247.98 144.145 247.98H44.0508C36.2726 247.98 29.9756 241.666 29.9756 233.887V130.298C29.9756 101.163 53.5574 77.5364 82.6574 77.5364ZM105.539 80.5812H82.6574C55.2436 80.5812 33.0204 102.84 33.0204 130.298V233.887C33.0204 239.989 37.9589 244.936 44.0508 244.936H144.145C150.237 244.936 155.176 239.989 155.176 233.887V130.298C155.176 102.84 132.952 80.5812 105.539 80.5812Z" fill="black"/>
<path d="M129.344 211.15C129.344 211.905 128.731 212.518 127.976 212.518V212.518C127.22 212.518 126.607 211.905 126.607 211.15V200.449C126.607 199.694 127.22 199.081 127.976 199.081V199.081C128.731 199.081 129.344 199.694 129.344 200.449V211.15Z" fill="white"/>
<path d="M129.344 211.15C129.344 211.905 128.731 212.518 127.976 212.518V212.518C127.22 212.518 126.607 211.905 126.607 211.15V200.449C126.607 199.694 127.22 199.081 127.976 199.081V199.081C128.731 199.081 129.344 199.694 129.344 200.449V211.15Z" fill="#7ECDCA"/>
<path d="M129.344 211.15C129.344 211.905 128.731 212.518 127.976 212.518V212.518C127.22 212.518 126.607 211.905 126.607 211.15V200.449C126.607 199.694 127.22 199.081 127.976 199.081V199.081C128.731 199.081 129.344 199.694 129.344 200.449V211.15Z" fill="#7ECDCA"/>
<path d="M129.344 211.15C129.344 211.905 128.731 212.518 127.976 212.518V212.518C127.22 212.518 126.607 211.905 126.607 211.15V200.449C126.607 199.694 127.22 199.081 127.976 199.081V199.081C128.731 199.081 129.344 199.694 129.344 200.449V211.15Z" fill="#828282"/>
<path d="M117.784 209.75H112.986L112.38 211.591C112.197 212.145 111.681 212.518 111.098 212.518V212.518C110.16 212.518 109.508 211.584 109.832 210.704L113.67 200.273C113.933 199.557 114.615 199.082 115.377 199.082V199.082C116.139 199.082 116.819 199.556 117.084 200.27L120.943 210.702C121.269 211.582 120.617 212.518 119.678 212.518V212.518C119.097 212.518 118.582 212.147 118.398 211.596L117.784 209.75ZM113.725 207.507H117.045L115.376 202.478L113.725 207.507Z" fill="white"/>
<path d="M117.784 209.75H112.986L112.38 211.591C112.197 212.145 111.681 212.518 111.098 212.518V212.518C110.16 212.518 109.508 211.584 109.832 210.704L113.67 200.273C113.933 199.557 114.615 199.082 115.377 199.082V199.082C116.139 199.082 116.819 199.556 117.084 200.27L120.943 210.702C121.269 211.582 120.617 212.518 119.678 212.518V212.518C119.097 212.518 118.582 212.147 118.398 211.596L117.784 209.75ZM113.725 207.507H117.045L115.376 202.478L113.725 207.507Z" fill="#7ECDCA"/>
<path d="M117.784 209.75H112.986L112.38 211.591C112.197 212.145 111.681 212.518 111.098 212.518V212.518C110.16 212.518 109.508 211.584 109.832 210.704L113.67 200.273C113.933 199.557 114.615 199.082 115.377 199.082V199.082C116.139 199.082 116.819 199.556 117.084 200.27L120.943 210.702C121.269 211.582 120.617 212.518 119.678 212.518V212.518C119.097 212.518 118.582 212.147 118.398 211.596L117.784 209.75ZM113.725 207.507H117.045L115.376 202.478L113.725 207.507Z" fill="#7ECDCA"/>
<path d="M117.784 209.75H112.986L112.38 211.591C112.197 212.145 111.681 212.518 111.098 212.518V212.518C110.16 212.518 109.508 211.584 109.832 210.704L113.67 200.273C113.933 199.557 114.615 199.082 115.377 199.082V199.082C116.139 199.082 116.819 199.556 117.084 200.27L120.943 210.702C121.269 211.582 120.617 212.518 119.678 212.518V212.518C119.097 212.518 118.582 212.147 118.398 211.596L117.784 209.75ZM113.725 207.507H117.045L115.376 202.478L113.725 207.507Z" fill="#828282"/>
<path d="M133.357 210.896C133.357 211.828 132.602 212.584 131.669 212.584V212.584C130.737 212.584 129.981 211.828 129.981 210.896V210.896C129.981 209.964 130.737 209.208 131.669 209.208V209.208C132.602 209.208 133.357 209.964 133.357 210.896V210.896Z" fill="white"/>
<path d="M133.357 210.896C133.357 211.828 132.602 212.584 131.669 212.584V212.584C130.737 212.584 129.981 211.828 129.981 210.896V210.896C129.981 209.964 130.737 209.208 131.669 209.208V209.208C132.602 209.208 133.357 209.964 133.357 210.896V210.896Z" fill="#7ECDCA"/>
<path d="M133.357 210.896C133.357 211.828 132.602 212.584 131.669 212.584V212.584C130.737 212.584 129.981 211.828 129.981 210.896V210.896C129.981 209.964 130.737 209.208 131.669 209.208V209.208C132.602 209.208 133.357 209.964 133.357 210.896V210.896Z" fill="#7ECDCA"/>
<path d="M133.357 210.896C133.357 211.828 132.602 212.584 131.669 212.584V212.584C130.737 212.584 129.981 211.828 129.981 210.896V210.896C129.981 209.964 130.737 209.208 131.669 209.208V209.208C132.602 209.208 133.357 209.964 133.357 210.896V210.896Z" fill="#828282"/>
<path d="M125.48 210.896C125.48 211.828 124.725 212.584 123.792 212.584V212.584C122.86 212.584 122.104 211.828 122.104 210.896V210.896C122.104 209.964 122.86 209.208 123.792 209.208V209.208C124.725 209.208 125.48 209.964 125.48 210.896V210.896Z" fill="white"/>
<path d="M125.48 210.896C125.48 211.828 124.725 212.584 123.792 212.584V212.584C122.86 212.584 122.104 211.828 122.104 210.896V210.896C122.104 209.964 122.86 209.208 123.792 209.208V209.208C124.725 209.208 125.48 209.964 125.48 210.896V210.896Z" fill="#7ECDCA"/>
<path d="M125.48 210.896C125.48 211.828 124.725 212.584 123.792 212.584V212.584C122.86 212.584 122.104 211.828 122.104 210.896V210.896C122.104 209.964 122.86 209.208 123.792 209.208V209.208C124.725 209.208 125.48 209.964 125.48 210.896V210.896Z" fill="#7ECDCA"/>
<path d="M125.48 210.896C125.48 211.828 124.725 212.584 123.792 212.584V212.584C122.86 212.584 122.104 211.828 122.104 210.896V210.896C122.104 209.964 122.86 209.208 123.792 209.208V209.208C124.725 209.208 125.48 209.964 125.48 210.896V210.896Z" fill="#828282"/>
<path d="M54.0576 244.936H134.014V248.268H54.0576V244.936Z" fill="#828282"/>
<path d="M32.96 127.223H155.115V130.268H32.96V127.223Z" fill="#828282"/>
<path d="M44.0654 159.982C44.0654 146.796 54.755 136.106 67.9412 136.106H120.135C133.321 136.106 144.011 146.796 144.011 159.982V159.982C144.011 173.168 133.321 183.858 120.135 183.858H67.9413C54.755 183.858 44.0654 173.168 44.0654 159.982V159.982Z" fill="#143441"/>
<path d="M44.0654 159.982C44.0654 146.796 54.755 136.106 67.9412 136.106H120.135C133.321 136.106 144.011 146.796 144.011 159.982V159.982C144.011 173.168 133.321 183.858 120.135 183.858H67.9413C54.755 183.858 44.0654 173.168 44.0654 159.982V159.982Z" fill="#0C1F26"/>
<g filter="url(#filter1_d_1649_3697)">
<path d="M74.4258 160.551C74.4258 163.376 72.1376 165.667 69.3149 165.667C66.4923 165.667 64.2041 163.376 64.2041 160.551C64.2041 157.725 66.4923 155.434 69.3149 155.434C72.1376 155.434 74.4258 157.725 74.4258 160.551Z" fill="#3CFFF8"/>
<path d="M94.1803 167.941C91.8414 167.941 89.8027 166.654 88.7323 164.749C88.5269 164.384 88.8121 163.962 89.2314 163.962V163.962C89.4577 163.962 89.6618 164.092 89.7768 164.287C90.6661 165.793 92.3053 166.804 94.1803 166.804C96.0554 166.804 97.6946 165.793 98.5838 164.287C98.6988 164.092 98.903 163.962 99.1293 163.962V163.962C99.5485 163.962 99.8338 164.384 99.6284 164.749C98.5579 166.654 96.5192 167.941 94.1803 167.941Z" fill="#3CFFF8"/>
<path fill-rule="evenodd" clip-rule="evenodd" d="M98.4882 164.442C97.5801 165.863 95.9901 166.804 94.1804 166.804C92.3706 166.804 90.7806 165.863 89.8725 164.442C89.8397 164.391 89.8078 164.339 89.7768 164.286C89.7583 164.255 89.7374 164.225 89.7144 164.197C89.5953 164.053 89.4211 163.962 89.2314 163.962C88.8122 163.962 88.5269 164.384 88.7323 164.749C88.7539 164.788 88.7759 164.826 88.7983 164.864C88.8457 164.944 88.8949 165.024 88.9458 165.102C90.0607 166.811 91.9887 167.941 94.1804 167.941C96.372 167.941 98.3 166.811 99.4149 165.102C99.4658 165.024 99.515 164.944 99.5624 164.864C99.5848 164.826 99.6068 164.788 99.6284 164.749C99.8338 164.384 99.5485 163.962 99.1293 163.962C98.9396 163.962 98.7654 164.053 98.6463 164.197C98.6233 164.225 98.6024 164.255 98.5839 164.286C98.5529 164.339 98.521 164.391 98.4882 164.442ZM94.1804 169.151C91.3861 169.151 88.9531 167.612 87.6773 165.342C86.9477 164.044 88.0356 162.752 89.2314 162.752C89.9333 162.752 90.5116 163.151 90.819 163.671C91.4999 164.825 92.7514 165.594 94.1804 165.594C95.6093 165.594 96.8608 164.825 97.5417 163.671C97.8491 163.151 98.4274 162.752 99.1293 162.752C100.325 162.752 101.413 164.044 100.683 165.342C99.4076 167.612 96.9746 169.151 94.1804 169.151Z" fill="#3CFFF8"/>
<path d="M123.296 160.55C123.296 163.376 121.008 165.667 118.185 165.667C115.362 165.667 113.074 163.376 113.074 160.55C113.074 157.725 115.362 155.434 118.185 155.434C121.008 155.434 123.296 157.725 123.296 160.55Z" fill="#3CFFF8"/>
</g>
<path opacity="0.8" d="M82.9648 55.4837C82.9648 49.6623 87.684 44.9431 93.5054 44.9431V44.9431C99.3268 44.9431 104.046 49.6623 104.046 55.4837V55.7412C104.046 61.5626 99.3268 66.2818 93.5054 66.2818V66.2818C87.684 66.2818 82.9648 61.5626 82.9648 55.7412V55.4837Z" fill="#828282"/>
<path fill-rule="evenodd" clip-rule="evenodd" d="M158.687 156.064C157.458 171.945 129.179 184.646 94.4722 184.646C58.9846 184.646 30.2162 171.367 30.2162 154.987C30.2162 154.841 30.2185 154.696 30.223 154.551H30.2162C29.2682 178.29 24.6721 200.427 20.0652 222.617C18.7472 228.965 17.4283 235.318 16.1936 241.714C13.2998 256.704 27.237 268.775 41.9555 264.717C42.5398 264.556 43.165 264.648 43.6781 264.97L54.4515 271.744C64.65 278.157 77.2422 279.489 88.5563 275.351L93.1346 273.676C93.9983 273.361 94.946 273.361 95.8097 273.676L100.388 275.351C111.702 279.489 124.294 278.157 134.493 271.744L145.266 264.97C145.779 264.648 146.405 264.556 146.989 264.717C161.707 268.775 175.555 256.71 172.292 241.795C171.131 236.487 169.9 231.218 168.671 225.959C163.377 203.303 158.124 180.824 158.687 156.064ZM158.721 154.551C158.722 154.589 158.724 154.627 158.724 154.666C158.726 154.627 158.727 154.589 158.728 154.551H158.721Z" fill="#826FE0"/>
<mask id="mask0_1649_3697" style="mask-type:alpha" maskUnits="userSpaceOnUse" x="16" y="156" width="156" height="122">
<path d="M158.497 157.601C157.269 173.266 128.992 185.794 94.289 185.794C58.8047 185.794 30.039 172.696 30.039 156.539C30.039 156.395 30.0413 156.252 30.0458 156.108H30.039C29.0911 179.525 24.4955 201.361 19.8889 223.249C18.8101 228.375 17.7307 233.504 16.6975 238.656C13.3879 255.159 27.0013 268.795 41.8568 264.755C42.3949 264.608 42.9632 264.694 43.4464 264.993L55.5359 272.492C65.0338 278.384 76.3308 279.61 86.685 275.875L93.0803 273.568C93.8657 273.284 94.7123 273.284 95.4977 273.568L101.893 275.875C112.247 279.61 123.544 278.384 133.042 272.492L145.132 264.993C145.615 264.694 146.183 264.608 146.721 264.755C161.577 268.795 175.071 255.172 171.341 238.778C170.409 234.685 169.445 230.613 168.481 226.546C163.187 204.197 157.935 182.024 158.497 157.601Z" fill="#826FE0"/>
<path d="M158.532 156.108C158.533 156.146 158.534 156.184 158.535 156.222C158.537 156.184 158.538 156.146 158.539 156.108H158.532Z" fill="#826FE0"/>
</mask>
<g mask="url(#mask0_1649_3697)">
<path d="M129.346 211.149C129.346 211.905 128.733 212.518 127.978 212.518V212.518C127.222 212.518 126.609 211.905 126.609 211.149V200.448C126.609 199.693 127.222 199.08 127.978 199.08V199.08C128.733 199.08 129.346 199.693 129.346 200.448V211.149Z" fill="white"/>
<path d="M129.346 211.149C129.346 211.905 128.733 212.518 127.978 212.518V212.518C127.222 212.518 126.609 211.905 126.609 211.149V200.448C126.609 199.693 127.222 199.08 127.978 199.08V199.08C128.733 199.08 129.346 199.693 129.346 200.448V211.149Z" fill="#7ECDCA"/>
<path d="M129.346 211.149C129.346 211.905 128.733 212.518 127.978 212.518V212.518C127.222 212.518 126.609 211.905 126.609 211.149V200.448C126.609 199.693 127.222 199.08 127.978 199.08V199.08C128.733 199.08 129.346 199.693 129.346 200.448V211.149Z" fill="#7ECDCA"/>
<path d="M129.346 211.149C129.346 211.905 128.733 212.518 127.978 212.518V212.518C127.222 212.518 126.609 211.905 126.609 211.149V200.448C126.609 199.693 127.222 199.08 127.978 199.08V199.08C128.733 199.08 129.346 199.693 129.346 200.448V211.149Z" fill="#EEE69C"/>
<path d="M117.787 209.749H112.988L112.382 211.591C112.199 212.144 111.683 212.518 111.1 212.518V212.518C110.162 212.518 109.51 211.583 109.834 210.703L113.672 200.271C113.936 199.555 114.617 199.08 115.38 199.08V199.08C116.141 199.08 116.822 199.554 117.086 200.268L120.946 210.701C121.272 211.582 120.62 212.518 119.681 212.518V212.518C119.1 212.518 118.584 212.146 118.401 211.595L117.787 209.749ZM113.727 207.506H117.048L115.378 202.476L113.727 207.506Z" fill="white"/>
<path d="M117.787 209.749H112.988L112.382 211.591C112.199 212.144 111.683 212.518 111.1 212.518V212.518C110.162 212.518 109.51 211.583 109.834 210.703L113.672 200.271C113.936 199.555 114.617 199.08 115.38 199.08V199.08C116.141 199.08 116.822 199.554 117.086 200.268L120.946 210.701C121.272 211.582 120.62 212.518 119.681 212.518V212.518C119.1 212.518 118.584 212.146 118.401 211.595L117.787 209.749ZM113.727 207.506H117.048L115.378 202.476L113.727 207.506Z" fill="#7ECDCA"/>
<path d="M117.787 209.749H112.988L112.382 211.591C112.199 212.144 111.683 212.518 111.1 212.518V212.518C110.162 212.518 109.51 211.583 109.834 210.703L113.672 200.271C113.936 199.555 114.617 199.08 115.38 199.08V199.08C116.141 199.08 116.822 199.554 117.086 200.268L120.946 210.701C121.272 211.582 120.62 212.518 119.681 212.518V212.518C119.1 212.518 118.584 212.146 118.401 211.595L117.787 209.749ZM113.727 207.506H117.048L115.378 202.476L113.727 207.506Z" fill="#7ECDCA"/>
<path d="M117.787 209.749H112.988L112.382 211.591C112.199 212.144 111.683 212.518 111.1 212.518V212.518C110.162 212.518 109.51 211.583 109.834 210.703L113.672 200.271C113.936 199.555 114.617 199.08 115.38 199.08V199.08C116.141 199.08 116.822 199.554 117.086 200.268L120.946 210.701C121.272 211.582 120.62 212.518 119.681 212.518V212.518C119.1 212.518 118.584 212.146 118.401 211.595L117.787 209.749ZM113.727 207.506H117.048L115.378 202.476L113.727 207.506Z" fill="#EEE69C"/>
<path d="M133.36 210.896C133.36 211.828 132.605 212.584 131.672 212.584V212.584C130.74 212.584 129.984 211.828 129.984 210.896V210.896C129.984 209.964 130.74 209.208 131.672 209.208V209.208C132.605 209.208 133.36 209.964 133.36 210.896V210.896Z" fill="white"/>
<path d="M133.36 210.896C133.36 211.828 132.605 212.584 131.672 212.584V212.584C130.74 212.584 129.984 211.828 129.984 210.896V210.896C129.984 209.964 130.74 209.208 131.672 209.208V209.208C132.605 209.208 133.36 209.964 133.36 210.896V210.896Z" fill="#7ECDCA"/>
<path d="M133.36 210.896C133.36 211.828 132.605 212.584 131.672 212.584V212.584C130.74 212.584 129.984 211.828 129.984 210.896V210.896C129.984 209.964 130.74 209.208 131.672 209.208V209.208C132.605 209.208 133.36 209.964 133.36 210.896V210.896Z" fill="#7ECDCA"/>
<path d="M133.36 210.896C133.36 211.828 132.605 212.584 131.672 212.584V212.584C130.74 212.584 129.984 211.828 129.984 210.896V210.896C129.984 209.964 130.74 209.208 131.672 209.208V209.208C132.605 209.208 133.36 209.964 133.36 210.896V210.896Z" fill="#EEE69C"/>
<path d="M125.483 210.896C125.483 211.828 124.728 212.584 123.795 212.584V212.584C122.863 212.584 122.107 211.828 122.107 210.896V210.896C122.107 209.964 122.863 209.208 123.795 209.208V209.208C124.728 209.208 125.483 209.964 125.483 210.896V210.896Z" fill="white"/>
<path d="M125.483 210.896C125.483 211.828 124.728 212.584 123.795 212.584V212.584C122.863 212.584 122.107 211.828 122.107 210.896V210.896C122.107 209.964 122.863 209.208 123.795 209.208V209.208C124.728 209.208 125.483 209.964 125.483 210.896V210.896Z" fill="#7ECDCA"/>
<path d="M125.483 210.896C125.483 211.828 124.728 212.584 123.795 212.584V212.584C122.863 212.584 122.107 211.828 122.107 210.896V210.896C122.107 209.964 122.863 209.208 123.795 209.208V209.208C124.728 209.208 125.483 209.964 125.483 210.896V210.896Z" fill="#7ECDCA"/>
<path d="M125.483 210.896C125.483 211.828 124.728 212.584 123.795 212.584V212.584C122.863 212.584 122.107 211.828 122.107 210.896V210.896C122.107 209.964 122.863 209.208 123.795 209.208V209.208C124.728 209.208 125.483 209.964 125.483 210.896V210.896Z" fill="#EEE69C"/>
<g opacity="0.9">
<path d="M158.459 240.505L154.246 246.022L147.337 245.35L151.282 251.062L148.508 257.425L155.159 255.439L160.354 260.043L160.52 253.104L166.504 249.586L159.956 247.283L158.459 240.505Z" fill="#EEE69C"/>
<path d="M161.185 183.648L156.972 189.165L150.063 188.493L154.007 194.205L151.234 200.568L157.885 198.582L163.08 203.186L163.246 196.247L169.23 192.729L162.681 190.427L161.185 183.648Z" fill="#EEE69C"/>
<path d="M77.0474 250.973L75.6916 256.53L70.2554 258.307L75.121 261.314L75.1318 267.033L79.4947 263.335L84.9377 265.092L82.7685 259.8L86.1215 255.166L80.418 255.594L77.0474 250.973Z" fill="#EEE69C"/>
<path d="M156.944 219.29L155.588 224.846L150.152 226.624L155.017 229.631L155.028 235.35L159.391 231.652L164.834 233.409L162.665 228.117L166.018 223.483L160.314 223.911L156.944 219.29Z" fill="#EEE69C"/>
<path d="M54.1333 186.188L52.7775 191.745L47.3413 193.523L52.2069 196.529L52.2178 202.249L56.5807 198.55L62.0236 200.307L59.8544 195.015L63.2075 190.381L57.5039 190.809L54.1333 186.188Z" fill="#EEE69C"/>
<path d="M100.864 213.059L99.508 218.615L94.0718 220.393L98.9374 223.4L98.9482 229.119L103.311 225.421L108.754 227.178L106.585 221.886L109.938 217.252L104.234 217.68L100.864 213.059Z" fill="#EEE69C"/>
<path d="M30.4716 198.834L25.0562 205.556L16.4896 204.498L21.2086 211.725L17.5556 219.546L25.8876 217.291L32.1966 223.182L32.627 214.561L40.1791 210.381L32.1131 207.308L30.4716 198.834Z" fill="#EEE69C"/>
<path d="M72.4194 218.817L63.6686 224.964L53.831 220.77L56.9737 230.993L49.9449 239.053L60.638 239.223L66.1316 248.398L69.5976 238.281L80.0216 235.891L71.4706 229.469L72.4194 218.817Z" fill="#EEE69C"/>
<path d="M105.242 144.057L99.2173 148.29L92.4443 145.402L94.608 152.44L89.7688 157.989L97.1307 158.106L100.913 164.424L103.299 157.458L110.476 155.813L104.589 151.391L105.242 144.057Z" fill="#EEE69C"/>
<path d="M28.9983 238.698L26.9745 244.969L20.5785 246.556L25.9177 250.419L25.4507 256.993L30.7743 253.108L36.8816 255.584L34.8326 249.32L39.0741 244.277L32.4842 244.29L28.9983 238.698Z" fill="#EEE69C"/>
<path d="M78.0042 170.547L75.9804 176.819L69.5844 178.406L74.9236 182.269L74.4565 188.842L79.7801 184.958L85.8874 187.433L83.8384 181.17L88.08 176.127L81.4901 176.14L78.0042 170.547Z" fill="#EEE69C"/>
<path d="M120.025 231.731L118.811 242.666L108.881 247.4L118.905 251.933L120.339 262.841L127.748 254.708L138.565 256.715L133.119 247.155L138.37 237.488L127.596 239.713L120.025 231.731Z" fill="#EEE69C"/>
</g>
</g>
<g filter="url(#filter2_d_1649_3697)">
<path d="M79.6749 194.467C88.437 194.467 93.6943 182.395 93.6943 182.395C68.3814 182.395 49.494 176.553 34.501 165.844C40.1477 178.89 70.9127 194.467 79.6749 194.467Z" fill="#947FFE"/>
</g>
<g filter="url(#filter3_d_1649_3697)">
<path d="M108.881 194.467C100.119 194.467 94.8613 182.395 94.8613 182.395C120.174 182.395 139.062 176.553 154.055 165.844C148.408 178.89 117.643 194.467 108.881 194.467Z" fill="#947FFE"/>
</g>
<path d="M92.5244 182.395H96.0293V273.911H92.5244V182.395Z" fill="#564B91"/>
<path fill-rule="evenodd" clip-rule="evenodd" d="M158.193 141.126C144.063 143.358 123.776 145 94.6679 145C65.4868 145 45.1709 143.349 31.0361 141.109V131.238L158.193 131.238V141.126Z" fill="black" fill-opacity="0.2"/>
<path d="M91.2458 2.08017C92.6835 -0.693397 96.6507 -0.693389 98.0884 2.08018L147.013 96.4653L187.933 122.438C189.406 123.372 189.887 125.129 188.553 126.253C183.344 130.645 164.103 139.99 94.6671 139.99C25.2316 139.99 5.98975 130.644 0.780831 126.253C-0.552324 125.129 -0.0714898 123.372 1.40078 122.438L42.3211 96.4653L91.2458 2.08017Z" fill="#826FE0"/>
<mask id="mask1_1649_3697" style="mask-type:alpha" maskUnits="userSpaceOnUse" x="-1" y="0" width="191" height="140">
<path d="M91.2458 2.08017C92.6835 -0.693397 96.6507 -0.693389 98.0884 2.08018L147.013 96.4653L187.933 122.438C189.406 123.372 189.887 125.129 188.553 126.253C183.344 130.645 164.103 139.99 94.6671 139.99C25.2316 139.99 5.98975 130.644 0.780831 126.253C-0.552324 125.129 -0.0714898 123.372 1.40078 122.438L42.3211 96.4653L91.2458 2.08017Z" fill="#826FE0"/>
</mask>
<g mask="url(#mask1_1649_3697)">
<g opacity="0.9">
<path d="M30.0342 107.475L34.2036 112.934L41.0403 112.27L37.137 117.922L39.8816 124.219L33.2999 122.253L28.1595 126.809L27.995 119.942L22.0734 116.461L28.5535 114.183L30.0342 107.475Z" fill="#EEE69C"/>
<path d="M120.194 115.173L121.536 120.671L126.915 122.43L122.1 125.405L122.089 131.065L117.772 127.405L112.386 129.144L114.533 123.907L111.215 119.322L116.859 119.745L120.194 115.173Z" fill="#EEE69C"/>
<path d="M71.6988 47.7341L73.0404 53.2325L78.4199 54.9917L73.6051 57.9668L73.5944 63.6266L69.2771 59.9668L63.891 61.7055L66.0375 56.4686L62.7195 51.8834L68.3634 52.3066L71.6988 47.7341Z" fill="#EEE69C"/>
<path d="M100.533 58.476L105.593 66.6206L115.182 66.6147L109 73.9446L111.969 83.0623L103.087 79.4479L95.3333 85.0888L96.0263 75.525L88.2653 69.8936L97.5751 67.5973L100.533 58.476Z" fill="#EEE69C"/>
<path d="M129.674 91.8413L135.635 96.0296L142.338 93.1723L140.196 100.137L144.985 105.628L137.7 105.744L133.957 111.995L131.596 105.102L124.494 103.474L130.32 99.0985L129.674 91.8413Z" fill="#EEE69C"/>
<path d="M92.2927 9.37375L98.2545 13.5621L104.957 10.7048L102.816 17.669L107.604 23.1603L100.319 23.276L96.5765 29.5271L94.2152 22.6345L87.1134 21.0066L92.9391 16.6309L92.2927 9.37375Z" fill="#EEE69C"/>
<path d="M167.739 103.025L169.742 109.231L176.071 110.802L170.787 114.624L171.25 121.129L165.982 117.285L159.938 119.735L161.966 113.537L157.769 108.546L164.29 108.559L167.739 103.025Z" fill="#EEE69C"/>
<path d="M119.246 35.5873L121.249 41.7932L127.578 43.3638L122.294 47.1861L122.756 53.6908L117.488 49.8472L111.445 52.2968L113.473 46.099L109.275 41.1082L115.796 41.1213L119.246 35.5873Z" fill="#EEE69C"/>
<path d="M77.665 96.1319L78.8656 106.952L88.6926 111.637L78.7729 116.123L77.354 126.916L70.0227 118.868L59.3187 120.854L64.7074 111.395L59.511 101.828L70.1726 104.03L77.665 96.1319Z" fill="#EEE69C"/>
</g>
</g>
<path fill-rule="evenodd" clip-rule="evenodd" d="M135.393 74.0938L146.883 95.8483C146.883 95.8483 115.17 101.84 94.6666 101.84C74.1628 101.84 42.4502 95.8483 42.4502 95.8483L53.9407 74.0938C53.9407 74.0938 78.6656 79.0049 94.6666 79.0049C110.668 79.0049 135.393 74.0938 135.393 74.0938Z" fill="#7F0AC8"/>
<path fill-rule="evenodd" clip-rule="evenodd" d="M79.8319 74.0938C78.1293 74.0938 76.749 75.474 76.749 77.1766V104.923C76.749 106.625 78.1293 108.006 79.8319 108.006H112.202C113.905 108.006 115.285 106.625 115.285 104.923V77.1766C115.285 75.474 113.905 74.0938 112.202 74.0938H79.8319ZM87.1538 83.7278C86.3025 83.7278 85.6123 84.4179 85.6123 85.2692V98.7569C85.6123 99.6082 86.3025 100.298 87.1538 100.298H104.88C105.732 100.298 106.422 99.6082 106.422 98.7569V85.2692C106.422 84.4179 105.732 83.7278 104.88 83.7278H87.1538Z" fill="#DAB73A"/>
<defs>
<filter id="filter0_d_1649_3697" x="23.0819" y="114.312" width="141.336" height="95.9615" filterUnits="userSpaceOnUse" color-interpolation-filters="sRGB">
<feFlood flood-opacity="0" result="BackgroundImageFix"/>
<feColorMatrix in="SourceAlpha" type="matrix" values="0 0 0 0 0 0 0 0 0 0 0 0 0 0 0 0 0 0 127 0" result="hardAlpha"/>
<feOffset/>
<feGaussianBlur stdDeviation="20.5611"/>
<feColorMatrix type="matrix" values="0 0 0 0 0.235294 0 0 0 0 1 0 0 0 0 0.972549 0 0 0 0.5 0"/>
<feBlend mode="normal" in2="BackgroundImageFix" result="effect1_dropShadow_1649_3697"/>
<feBlend mode="normal" in="SourceGraphic" in2="effect1_dropShadow_1649_3697" result="shape"/>
</filter>
<filter id="filter1_d_1649_3697" x="23.0819" y="114.312" width="141.336" height="95.9615" filterUnits="userSpaceOnUse" color-interpolation-filters="sRGB">
<feFlood flood-opacity="0" result="BackgroundImageFix"/>
<feColorMatrix in="SourceAlpha" type="matrix" values="0 0 0 0 0 0 0 0 0 0 0 0 0 0 0 0 0 0 127 0" result="hardAlpha"/>
<feOffset/>
<feGaussianBlur stdDeviation="20.5611"/>
<feColorMatrix type="matrix" values="0 0 0 0 0.235294 0 0 0 0 1 0 0 0 0 0.972549 0 0 0 0.5 0"/>
<feBlend mode="normal" in2="BackgroundImageFix" result="effect1_dropShadow_1649_3697"/>
<feBlend mode="normal" in="SourceGraphic" in2="effect1_dropShadow_1649_3697" result="shape"/>
</filter>
<filter id="filter2_d_1649_3697" x="34.501" y="165.844" width="59.1934" height="32.623" filterUnits="userSpaceOnUse" color-interpolation-filters="sRGB">
<feFlood flood-opacity="0" result="BackgroundImageFix"/>
<feColorMatrix in="SourceAlpha" type="matrix" values="0 0 0 0 0 0 0 0 0 0 0 0 0 0 0 0 0 0 127 0" result="hardAlpha"/>
<feOffset dy="4"/>
<feColorMatrix type="matrix" values="0 0 0 0 0.471741 0 0 0 0 0.402865 0 0 0 0 0.8125 0 0 0 1 0"/>
<feBlend mode="normal" in2="BackgroundImageFix" result="effect1_dropShadow_1649_3697"/>
<feBlend mode="normal" in="SourceGraphic" in2="effect1_dropShadow_1649_3697" result="shape"/>
</filter>
<filter id="filter3_d_1649_3697" x="94.8613" y="165.844" width="59.1934" height="32.623" filterUnits="userSpaceOnUse" color-interpolation-filters="sRGB">
<feFlood flood-opacity="0" result="BackgroundImageFix"/>
<feColorMatrix in="SourceAlpha" type="matrix" values="0 0 0 0 0 0 0 0 0 0 0 0 0 0 0 0 0 0 127 0" result="hardAlpha"/>
<feOffset dy="4"/>
<feColorMatrix type="matrix" values="0 0 0 0 0.471741 0 0 0 0 0.402865 0 0 0 0 0.8125 0 0 0 1 0"/>
<feBlend mode="normal" in2="BackgroundImageFix" result="effect1_dropShadow_1649_3697"/>
<feBlend mode="normal" in="SourceGraphic" in2="effect1_dropShadow_1649_3697" result="shape"/>
</filter>
</defs>
</svg>
