<svg width="62" height="99" viewBox="0 0 62 99" fill="none" xmlns="http://www.w3.org/2000/svg">
<g clip-path="url(#clip0_1956_3734)">
<path d="M15.2432 82.1482C15.2432 73.1664 22.5243 65.8852 31.5061 65.8852V65.8852C40.4879 65.8852 47.7691 73.1664 47.7691 82.1482V82.1482C47.7691 91.13 40.4879 98.4111 31.5061 98.4111V98.4111C22.5243 98.4111 15.2432 91.13 15.2432 82.1482V82.1482Z" fill="white"/>
<path d="M15.2432 82.1482C15.2432 73.1664 22.5243 65.8852 31.5061 65.8852V65.8852C40.4879 65.8852 47.7691 73.1664 47.7691 82.1482V82.1482C47.7691 91.13 40.4879 98.4111 31.5061 98.4111V98.4111C22.5243 98.4111 15.2432 91.13 15.2432 82.1482V82.1482Z" fill="#3CFFF8"/>
<path fill-rule="evenodd" clip-rule="evenodd" d="M14.5874 82.1482C14.5874 72.8043 22.1622 65.2295 31.5061 65.2295C40.85 65.2295 48.4248 72.8043 48.4248 82.1482C48.4248 91.4921 40.85 99.0669 31.5061 99.0669C22.1622 99.0669 14.5874 91.4921 14.5874 82.1482ZM31.5061 66.541C22.8865 66.541 15.8989 73.5286 15.8989 82.1482C15.8989 90.7678 22.8865 97.7554 31.5061 97.7554C40.1257 97.7554 47.1133 90.7678 47.1133 82.1482C47.1133 73.5286 40.1257 66.541 31.5061 66.541Z" fill="black"/>
<path d="M13.8082 87.8878H48.2474V87.8878C48.2474 90.7664 45.9138 93.1493 43.0352 93.1493H19.0204C16.1418 93.1493 13.8082 90.7664 13.8082 87.8878V87.8878Z" fill="white"/>
<path d="M13.8082 87.8878H48.2474V87.8878C48.2474 90.7664 45.9138 93.1493 43.0352 93.1493H19.0204C16.1418 93.1493 13.8082 90.7664 13.8082 87.8878V87.8878Z" fill="#F2F2F2"/>
<path fill-rule="evenodd" clip-rule="evenodd" d="M12.4968 86.5763H48.2475V87.8878H13.8083C13.8083 88.3396 13.8658 88.7792 13.9738 89.1993C14.5543 91.4557 16.5937 93.1493 19.0205 93.1493H43.0353C45.4621 93.1493 47.5016 91.4557 48.082 89.1993C48.19 88.7792 48.2475 88.3396 48.2475 87.8878H49.559C49.559 91.4746 46.6542 94.4608 43.0353 94.4608H19.0205C15.4016 94.4608 12.4968 91.4746 12.4968 87.8878V86.5763Z" fill="black"/>
<path d="M9.02523 51.2963C9.02523 53.2776 7.31201 54.8838 5.19865 54.8838C3.08529 54.8838 1.37207 53.2776 1.37207 51.2963C1.37207 49.3151 3.08529 47.7089 5.19865 47.7089C7.31201 47.7089 9.02523 49.3151 9.02523 51.2963Z" fill="#828282"/>
<path d="M60.6844 51.2963C60.6844 53.2776 58.9712 54.8838 56.8578 54.8838C54.7445 54.8838 53.0312 53.2776 53.0312 51.2963C53.0312 49.3151 54.7445 47.7089 56.8578 47.7089C58.9712 47.7089 60.6844 49.3151 60.6844 51.2963Z" fill="#828282"/>
<path d="M9.31425 51.4444C9.31425 53.499 7.52278 55.1646 5.31289 55.1646C3.10299 55.1646 1.31152 53.499 1.31152 51.4444C1.31152 49.3898 3.10299 47.7242 5.31289 47.7242C7.52278 47.7242 9.31425 49.3898 9.31425 51.4444Z" fill="#828282"/>
<path fill-rule="evenodd" clip-rule="evenodd" d="M10.6257 51.4444C10.6257 54.3117 8.15543 56.4761 5.31285 56.4761C2.47026 56.4761 0 54.3117 0 51.4444C0 48.5771 2.47026 46.4127 5.31285 46.4127C8.15543 46.4127 10.6257 48.5771 10.6257 51.4444ZM5.31285 55.1646C7.52274 55.1646 9.31421 53.499 9.31421 51.4444C9.31421 49.3898 7.52274 47.7242 5.31285 47.7242C3.10295 47.7242 1.31148 49.3898 1.31148 51.4444C1.31148 53.499 3.10295 55.1646 5.31285 55.1646Z" fill="black"/>
<path d="M60.6885 51.4444C60.6885 53.499 58.897 55.1646 56.6872 55.1646C54.4773 55.1646 52.6858 53.499 52.6858 51.4444C52.6858 49.3898 54.4773 47.7242 56.6872 47.7242C58.897 47.7242 60.6885 49.3898 60.6885 51.4444Z" fill="#828282"/>
<path fill-rule="evenodd" clip-rule="evenodd" d="M62 51.4444C62 54.3117 59.5297 56.4761 56.6871 56.4761C53.8445 56.4761 51.3743 54.3117 51.3743 51.4444C51.3743 48.5772 53.8445 46.4127 56.6871 46.4127C59.5297 46.4127 62 48.5772 62 51.4444ZM56.6871 55.1646C58.897 55.1646 60.6885 53.4991 60.6885 51.4444C60.6885 49.3898 58.897 47.7242 56.6871 47.7242C54.4772 47.7242 52.6858 49.3898 52.6858 51.4444C52.6858 53.4991 54.4772 55.1646 56.6871 55.1646Z" fill="black"/>
<path d="M30.7889 1.31149C28.2793 1.31149 26.2449 3.34594 26.2449 5.85556C26.2449 7.95129 27.6636 9.71565 29.593 10.2406V16.1205H31.9847V10.2407C33.9142 9.71576 35.333 7.95135 35.333 5.85556C35.333 3.34594 33.2986 1.31149 30.7889 1.31149Z" fill="#7ECDCA"/>
<path d="M30.7889 1.31149C28.2793 1.31149 26.2449 3.34594 26.2449 5.85556C26.2449 7.95129 27.6636 9.71565 29.593 10.2406V16.1205H31.9847V10.2407C33.9142 9.71576 35.333 7.95135 35.333 5.85556C35.333 3.34594 33.2986 1.31149 30.7889 1.31149Z" fill="#7D8E9E"/>
<path d="M30.7889 1.31149C28.2793 1.31149 26.2449 3.34594 26.2449 5.85556C26.2449 7.95129 27.6636 9.71565 29.593 10.2406V16.1205H31.9847V10.2407C33.9142 9.71576 35.333 7.95135 35.333 5.85556C35.333 3.34594 33.2986 1.31149 30.7889 1.31149Z" fill="#828282"/>
<path fill-rule="evenodd" clip-rule="evenodd" d="M28.2816 17.432V11.1482C26.3028 10.2091 24.9335 8.19348 24.9335 5.85554C24.9335 2.62162 27.5551 0 30.789 0C34.0229 0 36.6446 2.62162 36.6446 5.85554C36.6446 8.19354 35.2752 10.2092 33.2962 11.1483V17.432H28.2816ZM31.9847 10.2406C33.9143 9.71574 35.3331 7.95134 35.3331 5.85554C35.3331 3.34593 33.2986 1.31148 30.789 1.31148C28.2794 1.31148 26.245 3.34593 26.245 5.85554C26.245 7.95128 27.6637 9.71564 29.5931 10.2406V16.1205H31.9847V10.2406Z" fill="black"/>
<path d="M25.7665 15.9186C25.7665 14.1914 27.1666 12.7912 28.8938 12.7912L32.6839 12.7912C34.4111 12.7912 35.8112 14.1914 35.8112 15.9186V18.5311L25.7665 18.5311V15.9186Z" fill="#D0E2EE"/>
<path d="M25.7665 15.9186C25.7665 14.1914 27.1666 12.7912 28.8938 12.7912L32.6839 12.7912C34.4111 12.7912 35.8112 14.1914 35.8112 15.9186V18.5311L25.7665 18.5311V15.9186Z" fill="#F2F2F2"/>
<path fill-rule="evenodd" clip-rule="evenodd" d="M32.6839 14.1027L28.8938 14.1027C27.8909 14.1027 27.078 14.9157 27.078 15.9186V17.2196H34.4998V15.9186C34.4998 14.9157 33.6868 14.1027 32.6839 14.1027ZM28.8938 12.7912C27.1666 12.7912 25.7665 14.1914 25.7665 15.9186V18.5311L35.8112 18.5311V15.9186C35.8112 14.1914 34.4111 12.7912 32.6839 12.7912L28.8938 12.7912Z" fill="black"/>
<path d="M26.127 16.618H35.9826C47.7904 16.618 57.3625 26.2056 57.3625 38.0325V82.6509C57.3625 85.2791 55.2354 87.4097 52.6114 87.4097H9.49816C6.8742 87.4097 4.74707 85.2791 4.74707 82.6509V38.0325C4.74707 26.2056 14.3192 16.618 26.127 16.618Z" fill="white"/>
<path fill-rule="evenodd" clip-rule="evenodd" d="M26.127 15.3065H35.9826C48.5167 15.3065 58.674 25.4833 58.674 38.0325V82.6509C58.674 86.0014 55.9617 88.7212 52.6114 88.7212H9.49812C6.14786 88.7212 3.43555 86.0014 3.43555 82.6509V38.0325C3.43555 25.4833 13.5928 15.3065 26.127 15.3065ZM35.9826 16.618H26.127C14.3192 16.618 4.74703 26.2056 4.74703 38.0325V82.6509C4.74703 85.2791 6.87416 87.4097 9.49812 87.4097H52.6114C55.2353 87.4097 57.3625 85.2791 57.3625 82.6509V38.0325C57.3625 26.2056 47.7904 16.618 35.9826 16.618Z" fill="black"/>
<path d="M46.2353 72.8571C46.2353 73.1825 45.9714 73.4464 45.646 73.4464V73.4464C45.3205 73.4464 45.0566 73.1825 45.0566 72.8571V68.2481C45.0566 67.9226 45.3205 67.6588 45.646 67.6588V67.6588C45.9714 67.6588 46.2353 67.9226 46.2353 68.2481V72.8571Z" fill="white"/>
<path d="M46.2353 72.8571C46.2353 73.1825 45.9714 73.4464 45.646 73.4464V73.4464C45.3205 73.4464 45.0566 73.1825 45.0566 72.8571V68.2481C45.0566 67.9226 45.3205 67.6588 45.646 67.6588V67.6588C45.9714 67.6588 46.2353 67.9226 46.2353 68.2481V72.8571Z" fill="#7ECDCA"/>
<path d="M46.2353 72.8571C46.2353 73.1825 45.9714 73.4464 45.646 73.4464V73.4464C45.3205 73.4464 45.0566 73.1825 45.0566 72.8571V68.2481C45.0566 67.9226 45.3205 67.6588 45.646 67.6588V67.6588C45.9714 67.6588 46.2353 67.9226 46.2353 68.2481V72.8571Z" fill="#7ECDCA"/>
<path d="M46.2353 72.8571C46.2353 73.1825 45.9714 73.4464 45.646 73.4464V73.4464C45.3205 73.4464 45.0566 73.1825 45.0566 72.8571V68.2481C45.0566 67.9226 45.3205 67.6588 45.646 67.6588V67.6588C45.9714 67.6588 46.2353 67.9226 46.2353 68.2481V72.8571Z" fill="#828282"/>
<path d="M41.2566 72.2541H39.19L38.9286 73.0473C38.8501 73.2856 38.6276 73.4466 38.3768 73.4466V73.4466C37.9726 73.4466 37.6919 73.0442 37.8314 72.6649L39.4845 68.172C39.5979 67.8638 39.8915 67.659 40.2199 67.659V67.659C40.5478 67.659 40.841 67.8631 40.9548 68.1707L42.6172 72.664C42.7576 73.0434 42.4769 73.4466 42.0723 73.4466V73.4466C41.8222 73.4466 41.6001 73.2864 41.5211 73.0491L41.2566 72.2541ZM39.5082 71.2881H40.9383L40.2194 69.1218L39.5082 71.2881Z" fill="white"/>
<path d="M41.2566 72.2541H39.19L38.9286 73.0473C38.8501 73.2856 38.6276 73.4466 38.3768 73.4466V73.4466C37.9726 73.4466 37.6919 73.0442 37.8314 72.6649L39.4845 68.172C39.5979 67.8638 39.8915 67.659 40.2199 67.659V67.659C40.5478 67.659 40.841 67.8631 40.9548 68.1707L42.6172 72.664C42.7576 73.0434 42.4769 73.4466 42.0723 73.4466V73.4466C41.8222 73.4466 41.6001 73.2864 41.5211 73.0491L41.2566 72.2541ZM39.5082 71.2881H40.9383L40.2194 69.1218L39.5082 71.2881Z" fill="#7ECDCA"/>
<path d="M41.2566 72.2541H39.19L38.9286 73.0473C38.8501 73.2856 38.6276 73.4466 38.3768 73.4466V73.4466C37.9726 73.4466 37.6919 73.0442 37.8314 72.6649L39.4845 68.172C39.5979 67.8638 39.8915 67.659 40.2199 67.659V67.659C40.5478 67.659 40.841 67.8631 40.9548 68.1707L42.6172 72.664C42.7576 73.0434 42.4769 73.4466 42.0723 73.4466V73.4466C41.8222 73.4466 41.6001 73.2864 41.5211 73.0491L41.2566 72.2541ZM39.5082 71.2881H40.9383L40.2194 69.1218L39.5082 71.2881Z" fill="#7ECDCA"/>
<path d="M41.2566 72.2541H39.19L38.9286 73.0473C38.8501 73.2856 38.6276 73.4466 38.3768 73.4466V73.4466C37.9726 73.4466 37.6919 73.0442 37.8314 72.6649L39.4845 68.172C39.5979 67.8638 39.8915 67.659 40.2199 67.659V67.659C40.5478 67.659 40.841 67.8631 40.9548 68.1707L42.6172 72.664C42.7576 73.0434 42.4769 73.4466 42.0723 73.4466V73.4466C41.8222 73.4466 41.6001 73.2864 41.5211 73.0491L41.2566 72.2541ZM39.5082 71.2881H40.9383L40.2194 69.1218L39.5082 71.2881Z" fill="#828282"/>
<path d="M47.9646 72.7478C47.9646 73.1493 47.6392 73.4748 47.2376 73.4748V73.4748C46.8361 73.4748 46.5106 73.1493 46.5106 72.7478V72.7478C46.5106 72.3463 46.8361 72.0208 47.2376 72.0208V72.0208C47.6392 72.0208 47.9646 72.3463 47.9646 72.7478V72.7478Z" fill="white"/>
<path d="M47.9646 72.7478C47.9646 73.1493 47.6392 73.4748 47.2376 73.4748V73.4748C46.8361 73.4748 46.5106 73.1493 46.5106 72.7478V72.7478C46.5106 72.3463 46.8361 72.0208 47.2376 72.0208V72.0208C47.6392 72.0208 47.9646 72.3463 47.9646 72.7478V72.7478Z" fill="#7ECDCA"/>
<path d="M47.9646 72.7478C47.9646 73.1493 47.6392 73.4748 47.2376 73.4748V73.4748C46.8361 73.4748 46.5106 73.1493 46.5106 72.7478V72.7478C46.5106 72.3463 46.8361 72.0208 47.2376 72.0208V72.0208C47.6392 72.0208 47.9646 72.3463 47.9646 72.7478V72.7478Z" fill="#7ECDCA"/>
<path d="M47.9646 72.7478C47.9646 73.1493 47.6392 73.4748 47.2376 73.4748V73.4748C46.8361 73.4748 46.5106 73.1493 46.5106 72.7478V72.7478C46.5106 72.3463 46.8361 72.0208 47.2376 72.0208V72.0208C47.6392 72.0208 47.9646 72.3463 47.9646 72.7478V72.7478Z" fill="#828282"/>
<path d="M44.5716 72.7478C44.5716 73.1493 44.2461 73.4748 43.8446 73.4748V73.4748C43.443 73.4748 43.1176 73.1493 43.1176 72.7478V72.7478C43.1176 72.3463 43.443 72.0208 43.8446 72.0208V72.0208C44.2461 72.0208 44.5716 72.3463 44.5716 72.7478V72.7478Z" fill="white"/>
<path d="M44.5716 72.7478C44.5716 73.1493 44.2461 73.4748 43.8446 73.4748V73.4748C43.443 73.4748 43.1176 73.1493 43.1176 72.7478V72.7478C43.1176 72.3463 43.443 72.0208 43.8446 72.0208V72.0208C44.2461 72.0208 44.5716 72.3463 44.5716 72.7478V72.7478Z" fill="#7ECDCA"/>
<path d="M44.5716 72.7478C44.5716 73.1493 44.2461 73.4748 43.8446 73.4748V73.4748C43.443 73.4748 43.1176 73.1493 43.1176 72.7478V72.7478C43.1176 72.3463 43.443 72.0208 43.8446 72.0208V72.0208C44.2461 72.0208 44.5716 72.3463 44.5716 72.7478V72.7478Z" fill="#7ECDCA"/>
<path d="M44.5716 72.7478C44.5716 73.1493 44.2461 73.4748 43.8446 73.4748V73.4748C43.443 73.4748 43.1176 73.1493 43.1176 72.7478V72.7478C43.1176 72.3463 43.443 72.0208 43.8446 72.0208V72.0208C44.2461 72.0208 44.5716 72.3463 44.5716 72.7478V72.7478Z" fill="#828282"/>
<path d="M13.8082 87.4098H48.2474V88.8448H13.8082V87.4098Z" fill="#828282"/>
<path d="M4.72034 36.7077H57.3358V38.0192H4.72034V36.7077Z" fill="#828282"/>
<path d="M9.50342 50.8178C9.50342 45.1382 14.1077 40.5339 19.7874 40.5339H42.2685C47.9481 40.5339 52.5524 45.1382 52.5524 50.8178V50.8178C52.5524 56.4975 47.9481 61.1018 42.2685 61.1018H19.7874C14.1077 61.1018 9.50342 56.4975 9.50342 50.8178V50.8178Z" fill="#143441"/>
<path d="M9.50342 50.8178C9.50342 45.1382 14.1077 40.5339 19.7874 40.5339H42.2685C47.9481 40.5339 52.5524 45.1382 52.5524 50.8178V50.8178C52.5524 56.4975 47.9481 61.1018 42.2685 61.1018H19.7874C14.1077 61.1018 9.50342 56.4975 9.50342 50.8178V50.8178Z" fill="#0C1F26"/>
<g filter="url(#filter0_d_1956_3734)">
<path d="M22.5801 51.063C22.5801 52.28 21.5945 53.2667 20.3787 53.2667C19.163 53.2667 18.1774 52.28 18.1774 51.063C18.1774 49.8459 19.163 48.8593 20.3787 48.8593C21.5945 48.8593 22.5801 49.8459 22.5801 51.063Z" fill="#3CFFF8"/>
<path d="M31.089 54.2461C30.0816 54.2461 29.2035 53.6919 28.7424 52.8713C28.6539 52.7139 28.7768 52.5321 28.9574 52.5321V52.5321C29.0548 52.5321 29.1428 52.588 29.1923 52.672C29.5753 53.321 30.2814 53.7564 31.089 53.7564C31.8966 53.7564 32.6027 53.321 32.9857 52.672C33.0352 52.588 33.1232 52.5321 33.2206 52.5321V52.5321C33.4012 52.5321 33.5241 52.7139 33.4356 52.8713C32.9746 53.6919 32.0964 54.2461 31.089 54.2461Z" fill="#3CFFF8"/>
<path fill-rule="evenodd" clip-rule="evenodd" d="M32.9446 52.739C32.5534 53.3508 31.8685 53.7564 31.089 53.7564C30.3095 53.7564 29.6247 53.3508 29.2335 52.739C29.2194 52.7169 29.2057 52.6946 29.1923 52.672C29.1843 52.6584 29.1753 52.6456 29.1655 52.6336C29.1142 52.5714 29.0391 52.5321 28.9574 52.5321C28.7768 52.5321 28.6539 52.7139 28.7424 52.8713C28.7517 52.8879 28.7612 52.9043 28.7708 52.9207C28.7913 52.9553 28.8125 52.9895 28.8344 53.0231C29.3146 53.7594 30.145 54.2461 31.089 54.2461C32.033 54.2461 32.8635 53.7594 33.3437 53.0231C33.3656 52.9895 33.3868 52.9553 33.4072 52.9207C33.4169 52.9043 33.4264 52.8879 33.4357 52.8713C33.5241 52.7139 33.4013 52.5321 33.2207 52.5321C33.139 52.5321 33.0639 52.5714 33.0126 52.6336C33.0027 52.6456 32.9937 52.6584 32.9857 52.672C32.9724 52.6946 32.9587 52.7169 32.9446 52.739ZM31.089 54.7673C29.8855 54.7673 28.8375 54.1046 28.288 53.1267C27.9738 52.5674 28.4424 52.0109 28.9574 52.0109C29.2597 52.0109 29.5088 52.1827 29.6412 52.4071C29.9345 52.904 30.4735 53.2352 31.089 53.2352C31.7045 53.2352 32.2436 52.904 32.5369 52.4071C32.6693 52.1827 32.9184 52.0109 33.2207 52.0109C33.7357 52.0109 34.2043 52.5674 33.8901 53.1267C33.3405 54.1046 32.2926 54.7673 31.089 54.7673Z" fill="#3CFFF8"/>
<path d="M43.63 51.0627C43.63 52.2798 42.6444 53.2664 41.4287 53.2664C40.2129 53.2664 39.2273 52.2798 39.2273 51.0627C39.2273 49.8456 40.2129 48.859 41.4287 48.859C42.6444 48.859 43.63 49.8456 43.63 51.0627Z" fill="#3CFFF8"/>
</g>
<path opacity="0.8" d="M26.2588 5.80773C26.2588 3.3003 28.2915 1.26762 30.7989 1.26762V1.26762C33.3063 1.26762 35.339 3.3003 35.339 5.80773V5.91864C35.339 8.42607 33.3063 10.4587 30.7989 10.4587V10.4587C28.2915 10.4587 26.2588 8.42607 26.2588 5.91863V5.80773Z" fill="#828282"/>
</g>
<defs>
<filter id="filter0_d_1956_3734" x="-30.4542" y="0.227463" width="122.716" height="103.171" filterUnits="userSpaceOnUse" color-interpolation-filters="sRGB">
<feFlood flood-opacity="0" result="BackgroundImageFix"/>
<feColorMatrix in="SourceAlpha" type="matrix" values="0 0 0 0 0 0 0 0 0 0 0 0 0 0 0 0 0 0 127 0" result="hardAlpha"/>
<feOffset/>
<feGaussianBlur stdDeviation="24.3158"/>
<feColorMatrix type="matrix" values="0 0 0 0 0.235294 0 0 0 0 1 0 0 0 0 0.972549 0 0 0 0.5 0"/>
<feBlend mode="normal" in2="BackgroundImageFix" result="effect1_dropShadow_1956_3734"/>
<feBlend mode="normal" in="SourceGraphic" in2="effect1_dropShadow_1956_3734" result="shape"/>
</filter>
<clipPath id="clip0_1956_3734">
<rect width="62" height="99" fill="white"/>
</clipPath>
</defs>
</svg>
