<svg width="192" height="277" viewBox="0 0 192 277" fill="none" xmlns="http://www.w3.org/2000/svg">
<g clip-path="url(#clip0_1649_3697)">
<path d="M58.3887 231.72C58.3887 210.868 75.2931 193.963 96.1458 193.963C116.998 193.963 133.903 210.868 133.903 231.72C133.903 252.573 116.998 269.478 96.1458 269.478C75.2931 269.478 58.3887 252.573 58.3887 231.72Z" fill="white"/>
<path d="M58.3887 231.72C58.3887 210.868 75.2931 193.963 96.1458 193.963C116.998 193.963 133.903 210.868 133.903 231.72C133.903 252.573 116.998 269.478 96.1458 269.478C75.2931 269.478 58.3887 252.573 58.3887 231.72Z" fill="#3CFFF8"/>
<path fill-rule="evenodd" clip-rule="evenodd" d="M56.8682 231.721C56.8682 210.027 74.4542 192.441 96.1477 192.441C117.841 192.441 135.427 210.027 135.427 231.721C135.427 253.414 117.841 271 96.1477 271C74.4542 271 56.8682 253.414 56.8682 231.721ZM96.1477 195.486C76.1358 195.486 59.913 211.709 59.913 231.721C59.913 251.732 76.1358 267.955 96.1477 267.955C116.16 267.955 132.382 251.732 132.382 231.721C132.382 211.709 116.16 195.486 96.1477 195.486Z" fill="black"/>
<path d="M55.0576 245.046H135.014C135.014 251.729 129.596 257.261 122.913 257.261H67.1586C60.4754 257.261 55.0576 251.729 55.0576 245.046Z" fill="white"/>
<path d="M55.0576 245.046H135.014C135.014 251.729 129.596 257.261 122.913 257.261H67.1586C60.4754 257.261 55.0576 251.729 55.0576 245.046Z" fill="#F2F2F2"/>
<path fill-rule="evenodd" clip-rule="evenodd" d="M52.0137 242.001H135.015V245.046H55.0585C55.0585 246.095 55.192 247.115 55.4428 248.091C56.7903 253.329 61.5252 257.261 67.1595 257.261H122.914C128.548 257.261 133.283 253.329 134.63 248.091C134.881 247.115 135.015 246.095 135.015 245.046H138.06C138.06 253.373 131.316 260.306 122.914 260.306H67.1595C58.7575 260.306 52.0137 253.373 52.0137 245.046V242.001Z" fill="black"/>
<path d="M43.9536 160.093C43.9536 164.693 39.9761 168.422 35.0696 168.422C30.1631 168.422 26.1855 164.693 26.1855 160.093C26.1855 155.493 30.1631 151.764 35.0696 151.764C39.9761 151.764 43.9536 155.493 43.9536 160.093Z" fill="#828282"/>
<path d="M163.888 160.093C163.888 164.693 159.911 168.422 155.004 168.422C150.098 168.422 146.12 164.693 146.12 160.093C146.12 155.493 150.098 151.764 155.004 151.764C159.911 151.764 163.888 155.493 163.888 160.093Z" fill="#828282"/>
<path d="M44.6245 160.437C44.6245 165.207 40.4654 169.074 35.3347 169.074C30.2041 169.074 26.0449 165.207 26.0449 160.437C26.0449 155.667 30.2041 151.8 35.3347 151.8C40.4654 151.8 44.6245 155.667 44.6245 160.437Z" fill="#828282"/>
<path fill-rule="evenodd" clip-rule="evenodd" d="M47.6693 160.437C47.6693 167.094 41.9341 172.119 35.3346 172.119C28.7351 172.119 23 167.094 23 160.437C23 153.78 28.7351 148.755 35.3346 148.755C41.9341 148.755 47.6693 153.78 47.6693 160.437ZM35.3346 169.074C40.4653 169.074 44.6244 165.207 44.6244 160.437C44.6244 155.667 40.4653 151.8 35.3346 151.8C30.204 151.8 26.0448 155.667 26.0448 160.437C26.0448 165.207 30.204 169.074 35.3346 169.074Z" fill="black"/>
<path d="M163.899 160.437C163.899 165.207 159.74 169.074 154.609 169.074C149.479 169.074 145.319 165.207 145.319 160.437C145.319 155.667 149.479 151.8 154.609 151.8C159.74 151.8 163.899 155.667 163.899 160.437Z" fill="#828282"/>
<path fill-rule="evenodd" clip-rule="evenodd" d="M166.943 160.437C166.943 167.094 161.208 172.119 154.608 172.119C148.009 172.119 142.273 167.094 142.273 160.437C142.273 153.78 148.009 148.755 154.608 148.755C161.208 148.755 166.943 153.78 166.943 160.437ZM154.608 169.074C159.739 169.074 163.898 165.207 163.898 160.437C163.898 155.667 159.739 151.8 154.608 151.8C149.477 151.8 145.318 155.667 145.318 160.437C145.318 165.207 149.477 169.074 154.608 169.074Z" fill="black"/>
<path d="M94.4814 44.0449C88.6549 44.0449 83.9316 48.7682 83.9316 54.5947C83.9316 59.4603 87.2255 63.5565 91.705 64.7753V78.4264H97.2575V64.7754C101.737 63.5568 105.031 59.4604 105.031 54.5947C105.031 48.7682 100.308 44.0449 94.4814 44.0449Z" fill="#7ECDCA"/>
<path d="M94.4814 44.0449C88.6549 44.0449 83.9316 48.7682 83.9316 54.5947C83.9316 59.4603 87.2255 63.5565 91.705 64.7753V78.4264H97.2575V64.7754C101.737 63.5568 105.031 59.4604 105.031 54.5947C105.031 48.7682 100.308 44.0449 94.4814 44.0449Z" fill="#7D8E9E"/>
<path d="M94.4814 44.0449C88.6549 44.0449 83.9316 48.7682 83.9316 54.5947C83.9316 59.4603 87.2255 63.5565 91.705 64.7753V78.4264H97.2575V64.7754C101.737 63.5568 105.031 59.4604 105.031 54.5947C105.031 48.7682 100.308 44.0449 94.4814 44.0449Z" fill="#828282"/>
<path fill-rule="evenodd" clip-rule="evenodd" d="M88.66 81.4713V66.8824C84.0658 64.7021 80.8867 60.0226 80.8867 54.5947C80.8867 47.0866 86.9732 41.0001 94.4813 41.0001C101.989 41.0001 108.076 47.0866 108.076 54.5947C108.076 60.0228 104.897 64.7024 100.302 66.8826V81.4713H88.66ZM97.2574 64.7754C101.737 63.5568 105.031 59.4604 105.031 54.5947C105.031 48.7682 100.308 44.0449 94.4813 44.0449C88.6548 44.0449 83.9315 48.7682 83.9315 54.5947C83.9315 59.4603 87.2254 63.5566 91.7049 64.7753V78.4264H97.2574V64.7754Z" fill="black"/>
<path d="M82.8203 77.9577C82.8203 73.9478 86.071 70.6971 90.0809 70.6971H98.8803C102.89 70.6971 106.141 73.9478 106.141 77.9577V84.0232H82.8203V77.9577Z" fill="#D0E2EE"/>
<path d="M82.8203 77.9577C82.8203 73.9478 86.071 70.6971 90.0809 70.6971H98.8803C102.89 70.6971 106.141 73.9478 106.141 77.9577V84.0232H82.8203V77.9577Z" fill="#F2F2F2"/>
<path fill-rule="evenodd" clip-rule="evenodd" d="M98.8803 73.742H90.0809C87.7526 73.742 85.8651 75.6294 85.8651 77.9577V80.9784H103.096V77.9577C103.096 75.6294 101.209 73.742 98.8803 73.742ZM90.0809 70.6971C86.071 70.6971 82.8203 73.9478 82.8203 77.9577V84.0232H106.141V77.9577C106.141 73.9478 102.89 70.6971 98.8803 70.6971H90.0809Z" fill="black"/>
<path d="M83.6585 79.5814H106.54C133.954 79.5814 156.177 101.841 156.177 129.299V232.888C156.177 238.989 151.238 243.936 145.146 243.936H45.0519C38.96 243.936 34.0215 238.989 34.0215 232.888V129.299C34.0215 101.841 56.2447 79.5814 83.6585 79.5814Z" fill="white"/>
<path fill-rule="evenodd" clip-rule="evenodd" d="M83.6574 76.5364H106.539C135.639 76.5364 159.221 100.163 159.221 129.298V232.887C159.221 240.666 152.923 246.98 145.145 246.98H45.0508C37.2726 246.98 30.9756 240.666 30.9756 232.887V129.298C30.9756 100.163 54.5574 76.5364 83.6574 76.5364ZM106.539 79.5812H83.6574C56.2436 79.5812 34.0204 101.84 34.0204 129.298V232.887C34.0204 238.989 38.9589 243.936 45.0508 243.936H145.145C151.237 243.936 156.176 238.989 156.176 232.887V129.298C156.176 101.84 133.952 79.5812 106.539 79.5812Z" fill="black"/>
<path d="M130.344 210.15C130.344 210.905 129.731 211.518 128.976 211.518C128.22 211.518 127.607 210.905 127.607 210.15V199.449C127.607 198.694 128.22 198.081 128.976 198.081C129.731 198.081 130.344 198.694 130.344 199.449V210.15Z" fill="white"/>
<path d="M130.344 210.15C130.344 210.905 129.731 211.518 128.976 211.518C128.22 211.518 127.607 210.905 127.607 210.15V199.449C127.607 198.694 128.22 198.081 128.976 198.081C129.731 198.081 130.344 198.694 130.344 199.449V210.15Z" fill="#7ECDCA"/>
<path d="M130.344 210.15C130.344 210.905 129.731 211.518 128.976 211.518C128.22 211.518 127.607 210.905 127.607 210.15V199.449C127.607 198.694 128.22 198.081 128.976 198.081C129.731 198.081 130.344 198.694 130.344 199.449V210.15Z" fill="#7ECDCA"/>
<path d="M130.344 210.15C130.344 210.905 129.731 211.518 128.976 211.518C128.22 211.518 127.607 210.905 127.607 210.15V199.449C127.607 198.694 128.22 198.081 128.976 198.081C129.731 198.081 130.344 198.694 130.344 199.449V210.15Z" fill="#828282"/>
<path d="M118.784 208.75H113.986L113.38 210.591C113.197 211.145 112.681 211.518 112.098 211.518C111.16 211.518 110.508 210.584 110.832 209.704L114.67 199.273C114.933 198.557 115.615 198.082 116.377 198.082C117.139 198.082 117.819 198.556 118.084 199.27L121.943 209.702C122.269 210.582 121.617 211.518 120.678 211.518C120.097 211.518 119.582 211.147 119.398 210.596L118.784 208.75ZM114.725 206.507H118.045L116.376 201.478L114.725 206.507Z" fill="white"/>
<path d="M118.784 208.75H113.986L113.38 210.591C113.197 211.145 112.681 211.518 112.098 211.518C111.16 211.518 110.508 210.584 110.832 209.704L114.67 199.273C114.933 198.557 115.615 198.082 116.377 198.082C117.139 198.082 117.819 198.556 118.084 199.27L121.943 209.702C122.269 210.582 121.617 211.518 120.678 211.518C120.097 211.518 119.582 211.147 119.398 210.596L118.784 208.75ZM114.725 206.507H118.045L116.376 201.478L114.725 206.507Z" fill="#7ECDCA"/>
<path d="M118.784 208.75H113.986L113.38 210.591C113.197 211.145 112.681 211.518 112.098 211.518C111.16 211.518 110.508 210.584 110.832 209.704L114.67 199.273C114.933 198.557 115.615 198.082 116.377 198.082C117.139 198.082 117.819 198.556 118.084 199.27L121.943 209.702C122.269 210.582 121.617 211.518 120.678 211.518C120.097 211.518 119.582 211.147 119.398 210.596L118.784 208.75ZM114.725 206.507H118.045L116.376 201.478L114.725 206.507Z" fill="#7ECDCA"/>
<path d="M118.784 208.75H113.986L113.38 210.591C113.197 211.145 112.681 211.518 112.098 211.518C111.16 211.518 110.508 210.584 110.832 209.704L114.67 199.273C114.933 198.557 115.615 198.082 116.377 198.082C117.139 198.082 117.819 198.556 118.084 199.27L121.943 209.702C122.269 210.582 121.617 211.518 120.678 211.518C120.097 211.518 119.582 211.147 119.398 210.596L118.784 208.75ZM114.725 206.507H118.045L116.376 201.478L114.725 206.507Z" fill="#828282"/>
<path d="M134.357 209.896C134.357 210.828 133.602 211.584 132.669 211.584C131.737 211.584 130.981 210.828 130.981 209.896C130.981 208.964 131.737 208.208 132.669 208.208C133.602 208.208 134.357 208.964 134.357 209.896Z" fill="white"/>
<path d="M134.357 209.896C134.357 210.828 133.602 211.584 132.669 211.584C131.737 211.584 130.981 210.828 130.981 209.896C130.981 208.964 131.737 208.208 132.669 208.208C133.602 208.208 134.357 208.964 134.357 209.896Z" fill="#7ECDCA"/>
<path d="M134.357 209.896C134.357 210.828 133.602 211.584 132.669 211.584C131.737 211.584 130.981 210.828 130.981 209.896C130.981 208.964 131.737 208.208 132.669 208.208C133.602 208.208 134.357 208.964 134.357 209.896Z" fill="#7ECDCA"/>
<path d="M134.357 209.896C134.357 210.828 133.602 211.584 132.669 211.584C131.737 211.584 130.981 210.828 130.981 209.896C130.981 208.964 131.737 208.208 132.669 208.208C133.602 208.208 134.357 208.964 134.357 209.896Z" fill="#828282"/>
<path d="M126.48 209.896C126.48 210.828 125.725 211.584 124.792 211.584C123.86 211.584 123.104 210.828 123.104 209.896C123.104 208.964 123.86 208.208 124.792 208.208C125.725 208.208 126.48 208.964 126.48 209.896Z" fill="white"/>
<path d="M126.48 209.896C126.48 210.828 125.725 211.584 124.792 211.584C123.86 211.584 123.104 210.828 123.104 209.896C123.104 208.964 123.86 208.208 124.792 208.208C125.725 208.208 126.48 208.964 126.48 209.896Z" fill="#7ECDCA"/>
<path d="M126.48 209.896C126.48 210.828 125.725 211.584 124.792 211.584C123.86 211.584 123.104 210.828 123.104 209.896C123.104 208.964 123.86 208.208 124.792 208.208C125.725 208.208 126.48 208.964 126.48 209.896Z" fill="#7ECDCA"/>
<path d="M126.48 209.896C126.48 210.828 125.725 211.584 124.792 211.584C123.86 211.584 123.104 210.828 123.104 209.896C123.104 208.964 123.86 208.208 124.792 208.208C125.725 208.208 126.48 208.964 126.48 209.896Z" fill="#828282"/>
<path d="M55.0576 243.936H135.014V247.268H55.0576V243.936Z" fill="#828282"/>
<path d="M33.96 126.223H156.115V129.268H33.96V126.223Z" fill="#828282"/>
<path d="M45.0654 158.982C45.0654 145.796 55.755 135.106 68.9412 135.106H121.135C134.321 135.106 145.011 145.796 145.011 158.982C145.011 172.168 134.321 182.858 121.135 182.858H68.9413C55.755 182.858 45.0654 172.168 45.0654 158.982Z" fill="#143441"/>
<path d="M45.0654 158.982C45.0654 145.796 55.755 135.106 68.9412 135.106H121.135C134.321 135.106 145.011 145.796 145.011 158.982C145.011 172.168 134.321 182.858 121.135 182.858H68.9413C55.755 182.858 45.0654 172.168 45.0654 158.982Z" fill="#0C1F26"/>
<g filter="url(#filter0_d_1649_3697)">
<path d="M75.4258 159.551C75.4258 162.376 73.1376 164.667 70.3149 164.667C67.4923 164.667 65.2041 162.376 65.2041 159.551C65.2041 156.725 67.4923 154.434 70.3149 154.434C73.1376 154.434 75.4258 156.725 75.4258 159.551Z" fill="#3CFFF8"/>
<path d="M95.1803 166.941C92.8414 166.941 90.8027 165.655 89.7323 163.75C89.5269 163.384 89.8121 162.962 90.2314 162.962C90.4577 162.962 90.6618 163.092 90.7768 163.287C91.6661 164.794 93.3053 165.804 95.1803 165.804C97.0554 165.804 98.6946 164.794 99.5838 163.287C99.6988 163.092 99.903 162.962 100.129 162.962C100.549 162.962 100.834 163.384 100.628 163.75C99.5579 165.655 97.5192 166.941 95.1803 166.941Z" fill="#3CFFF8"/>
<path fill-rule="evenodd" clip-rule="evenodd" d="M99.4882 163.442C98.5801 164.863 96.9901 165.804 95.1804 165.804C93.3706 165.804 91.7806 164.863 90.8725 163.442C90.8397 163.391 90.8078 163.339 90.7768 163.287C90.7583 163.255 90.7374 163.225 90.7144 163.198C90.5953 163.053 90.4211 162.962 90.2314 162.962C89.8122 162.962 89.5269 163.384 89.7323 163.749C89.7539 163.788 89.7759 163.826 89.7983 163.864C89.8457 163.944 89.8949 164.024 89.9458 164.102C91.0607 165.811 92.9887 166.941 95.1804 166.941C97.372 166.941 99.3 165.811 100.415 164.102C100.466 164.024 100.515 163.944 100.562 163.864C100.585 163.826 100.607 163.788 100.628 163.749C100.834 163.384 100.549 162.962 100.129 162.962C99.9396 162.962 99.7654 163.053 99.6463 163.198C99.6233 163.225 99.6024 163.255 99.5839 163.287C99.5529 163.339 99.521 163.391 99.4882 163.442ZM95.1804 168.151C92.3861 168.151 89.9531 166.613 88.6773 164.342C87.9477 163.044 89.0356 161.752 90.2314 161.752C90.9333 161.752 91.5116 162.151 91.819 162.672C92.4999 163.825 93.7514 164.594 95.1804 164.594C96.6093 164.594 97.8608 163.825 98.5417 162.672C98.8491 162.151 99.4274 161.752 100.129 161.752C101.325 161.752 102.413 163.044 101.683 164.342C100.408 166.613 97.9746 168.151 95.1804 168.151Z" fill="#3CFFF8"/>
<path d="M124.296 159.55C124.296 162.376 122.008 164.667 119.185 164.667C116.362 164.667 114.074 162.376 114.074 159.55C114.074 156.725 116.362 154.434 119.185 154.434C122.008 154.434 124.296 156.725 124.296 159.55Z" fill="#3CFFF8"/>
</g>
<path opacity="0.8" d="M83.9648 54.4837C83.9648 48.6623 88.684 43.9431 94.5054 43.9431C100.327 43.9431 105.046 48.6623 105.046 54.4837V54.7412C105.046 60.5626 100.327 65.2818 94.5054 65.2818C88.684 65.2818 83.9648 60.5626 83.9648 54.7412V54.4837Z" fill="#828282"/>
<path d="M58.3887 231.72C58.3887 210.868 75.2931 193.963 96.1458 193.963C116.998 193.963 133.903 210.868 133.903 231.72C133.903 252.573 116.998 269.478 96.1458 269.478C75.2931 269.478 58.3887 252.573 58.3887 231.72Z" fill="white"/>
<path d="M58.3887 231.72C58.3887 210.868 75.2931 193.963 96.1458 193.963C116.998 193.963 133.903 210.868 133.903 231.72C133.903 252.573 116.998 269.478 96.1458 269.478C75.2931 269.478 58.3887 252.573 58.3887 231.72Z" fill="#3CFFF8"/>
<path fill-rule="evenodd" clip-rule="evenodd" d="M56.8682 231.721C56.8682 210.027 74.4542 192.441 96.1477 192.441C117.841 192.441 135.427 210.027 135.427 231.721C135.427 253.414 117.841 271 96.1477 271C74.4542 271 56.8682 253.414 56.8682 231.721ZM96.1477 195.486C76.1358 195.486 59.913 211.709 59.913 231.721C59.913 251.732 76.1358 267.955 96.1477 267.955C116.16 267.955 132.382 251.732 132.382 231.721C132.382 211.709 116.16 195.486 96.1477 195.486Z" fill="black"/>
<path d="M55.0576 245.046H135.014C135.014 251.729 129.596 257.261 122.913 257.261H67.1586C60.4754 257.261 55.0576 251.729 55.0576 245.046Z" fill="white"/>
<path d="M55.0576 245.046H135.014C135.014 251.729 129.596 257.261 122.913 257.261H67.1586C60.4754 257.261 55.0576 251.729 55.0576 245.046Z" fill="#F2F2F2"/>
<path fill-rule="evenodd" clip-rule="evenodd" d="M52.0137 242.001H135.015V245.046H55.0585C55.0585 246.095 55.192 247.115 55.4428 248.091C56.7903 253.329 61.5252 257.261 67.1595 257.261H122.914C128.548 257.261 133.283 253.329 134.63 248.091C134.881 247.115 135.015 246.095 135.015 245.046H138.06C138.06 253.373 131.316 260.306 122.914 260.306H67.1595C58.7575 260.306 52.0137 253.373 52.0137 245.046V242.001Z" fill="black"/>
<path d="M43.9536 160.093C43.9536 164.693 39.9761 168.422 35.0696 168.422C30.1631 168.422 26.1855 164.693 26.1855 160.093C26.1855 155.493 30.1631 151.764 35.0696 151.764C39.9761 151.764 43.9536 155.493 43.9536 160.093Z" fill="#828282"/>
<path d="M163.888 160.093C163.888 164.693 159.911 168.422 155.004 168.422C150.098 168.422 146.12 164.693 146.12 160.093C146.12 155.493 150.098 151.764 155.004 151.764C159.911 151.764 163.888 155.493 163.888 160.093Z" fill="#828282"/>
<path d="M44.6245 160.437C44.6245 165.207 40.4654 169.074 35.3347 169.074C30.2041 169.074 26.0449 165.207 26.0449 160.437C26.0449 155.667 30.2041 151.8 35.3347 151.8C40.4654 151.8 44.6245 155.667 44.6245 160.437Z" fill="#828282"/>
<path fill-rule="evenodd" clip-rule="evenodd" d="M47.6693 160.437C47.6693 167.094 41.9341 172.119 35.3346 172.119C28.7351 172.119 23 167.094 23 160.437C23 153.78 28.7351 148.755 35.3346 148.755C41.9341 148.755 47.6693 153.78 47.6693 160.437ZM35.3346 169.074C40.4653 169.074 44.6244 165.207 44.6244 160.437C44.6244 155.667 40.4653 151.8 35.3346 151.8C30.204 151.8 26.0448 155.667 26.0448 160.437C26.0448 165.207 30.204 169.074 35.3346 169.074Z" fill="black"/>
<path d="M163.899 160.437C163.899 165.207 159.74 169.074 154.609 169.074C149.479 169.074 145.319 165.207 145.319 160.437C145.319 155.667 149.479 151.8 154.609 151.8C159.74 151.8 163.899 155.667 163.899 160.437Z" fill="#828282"/>
<path fill-rule="evenodd" clip-rule="evenodd" d="M166.943 160.437C166.943 167.094 161.208 172.119 154.608 172.119C148.009 172.119 142.273 167.094 142.273 160.437C142.273 153.78 148.009 148.755 154.608 148.755C161.208 148.755 166.943 153.78 166.943 160.437ZM154.608 169.074C159.739 169.074 163.898 165.207 163.898 160.437C163.898 155.667 159.739 151.8 154.608 151.8C149.477 151.8 145.318 155.667 145.318 160.437C145.318 165.207 149.477 169.074 154.608 169.074Z" fill="black"/>
<path d="M94.4814 44.0449C88.6549 44.0449 83.9316 48.7682 83.9316 54.5947C83.9316 59.4603 87.2255 63.5565 91.705 64.7753V78.4264H97.2575V64.7754C101.737 63.5568 105.031 59.4604 105.031 54.5947C105.031 48.7682 100.308 44.0449 94.4814 44.0449Z" fill="#7ECDCA"/>
<path d="M94.4814 44.0449C88.6549 44.0449 83.9316 48.7682 83.9316 54.5947C83.9316 59.4603 87.2255 63.5565 91.705 64.7753V78.4264H97.2575V64.7754C101.737 63.5568 105.031 59.4604 105.031 54.5947C105.031 48.7682 100.308 44.0449 94.4814 44.0449Z" fill="#7D8E9E"/>
<path d="M94.4814 44.0449C88.6549 44.0449 83.9316 48.7682 83.9316 54.5947C83.9316 59.4603 87.2255 63.5565 91.705 64.7753V78.4264H97.2575V64.7754C101.737 63.5568 105.031 59.4604 105.031 54.5947C105.031 48.7682 100.308 44.0449 94.4814 44.0449Z" fill="#828282"/>
<path fill-rule="evenodd" clip-rule="evenodd" d="M88.66 81.4713V66.8824C84.0658 64.7021 80.8867 60.0226 80.8867 54.5947C80.8867 47.0866 86.9732 41.0001 94.4813 41.0001C101.989 41.0001 108.076 47.0866 108.076 54.5947C108.076 60.0228 104.897 64.7024 100.302 66.8826V81.4713H88.66ZM97.2574 64.7754C101.737 63.5568 105.031 59.4604 105.031 54.5947C105.031 48.7682 100.308 44.0449 94.4813 44.0449C88.6548 44.0449 83.9315 48.7682 83.9315 54.5947C83.9315 59.4603 87.2254 63.5566 91.7049 64.7753V78.4264H97.2574V64.7754Z" fill="black"/>
<path d="M82.8203 77.9577C82.8203 73.9478 86.071 70.6971 90.0809 70.6971H98.8803C102.89 70.6971 106.141 73.9478 106.141 77.9577V84.0232H82.8203V77.9577Z" fill="#D0E2EE"/>
<path d="M82.8203 77.9577C82.8203 73.9478 86.071 70.6971 90.0809 70.6971H98.8803C102.89 70.6971 106.141 73.9478 106.141 77.9577V84.0232H82.8203V77.9577Z" fill="#F2F2F2"/>
<path fill-rule="evenodd" clip-rule="evenodd" d="M98.8803 73.742H90.0809C87.7526 73.742 85.8651 75.6294 85.8651 77.9577V80.9784H103.096V77.9577C103.096 75.6294 101.209 73.742 98.8803 73.742ZM90.0809 70.6971C86.071 70.6971 82.8203 73.9478 82.8203 77.9577V84.0232H106.141V77.9577C106.141 73.9478 102.89 70.6971 98.8803 70.6971H90.0809Z" fill="black"/>
<path d="M83.6585 79.5814H106.54C133.954 79.5814 156.177 101.841 156.177 129.299V232.888C156.177 238.989 151.238 243.936 145.146 243.936H45.0519C38.96 243.936 34.0215 238.989 34.0215 232.888V129.299C34.0215 101.841 56.2447 79.5814 83.6585 79.5814Z" fill="white"/>
<path fill-rule="evenodd" clip-rule="evenodd" d="M83.6574 76.5364H106.539C135.639 76.5364 159.221 100.163 159.221 129.298V232.887C159.221 240.666 152.923 246.98 145.145 246.98H45.0508C37.2726 246.98 30.9756 240.666 30.9756 232.887V129.298C30.9756 100.163 54.5574 76.5364 83.6574 76.5364ZM106.539 79.5812H83.6574C56.2436 79.5812 34.0204 101.84 34.0204 129.298V232.887C34.0204 238.989 38.9589 243.936 45.0508 243.936H145.145C151.237 243.936 156.176 238.989 156.176 232.887V129.298C156.176 101.84 133.952 79.5812 106.539 79.5812Z" fill="black"/>
<path d="M130.344 210.15C130.344 210.905 129.731 211.518 128.976 211.518C128.22 211.518 127.607 210.905 127.607 210.15V199.449C127.607 198.694 128.22 198.081 128.976 198.081C129.731 198.081 130.344 198.694 130.344 199.449V210.15Z" fill="white"/>
<path d="M130.344 210.15C130.344 210.905 129.731 211.518 128.976 211.518C128.22 211.518 127.607 210.905 127.607 210.15V199.449C127.607 198.694 128.22 198.081 128.976 198.081C129.731 198.081 130.344 198.694 130.344 199.449V210.15Z" fill="#7ECDCA"/>
<path d="M130.344 210.15C130.344 210.905 129.731 211.518 128.976 211.518C128.22 211.518 127.607 210.905 127.607 210.15V199.449C127.607 198.694 128.22 198.081 128.976 198.081C129.731 198.081 130.344 198.694 130.344 199.449V210.15Z" fill="#7ECDCA"/>
<path d="M130.344 210.15C130.344 210.905 129.731 211.518 128.976 211.518C128.22 211.518 127.607 210.905 127.607 210.15V199.449C127.607 198.694 128.22 198.081 128.976 198.081C129.731 198.081 130.344 198.694 130.344 199.449V210.15Z" fill="#828282"/>
<path d="M118.784 208.75H113.986L113.38 210.591C113.197 211.145 112.681 211.518 112.098 211.518C111.16 211.518 110.508 210.584 110.832 209.704L114.67 199.273C114.933 198.557 115.615 198.082 116.377 198.082C117.139 198.082 117.819 198.556 118.084 199.27L121.943 209.702C122.269 210.582 121.617 211.518 120.678 211.518C120.097 211.518 119.582 211.147 119.398 210.596L118.784 208.75ZM114.725 206.507H118.045L116.376 201.478L114.725 206.507Z" fill="white"/>
<path d="M118.784 208.75H113.986L113.38 210.591C113.197 211.145 112.681 211.518 112.098 211.518C111.16 211.518 110.508 210.584 110.832 209.704L114.67 199.273C114.933 198.557 115.615 198.082 116.377 198.082C117.139 198.082 117.819 198.556 118.084 199.27L121.943 209.702C122.269 210.582 121.617 211.518 120.678 211.518C120.097 211.518 119.582 211.147 119.398 210.596L118.784 208.75ZM114.725 206.507H118.045L116.376 201.478L114.725 206.507Z" fill="#7ECDCA"/>
<path d="M118.784 208.75H113.986L113.38 210.591C113.197 211.145 112.681 211.518 112.098 211.518C111.16 211.518 110.508 210.584 110.832 209.704L114.67 199.273C114.933 198.557 115.615 198.082 116.377 198.082C117.139 198.082 117.819 198.556 118.084 199.27L121.943 209.702C122.269 210.582 121.617 211.518 120.678 211.518C120.097 211.518 119.582 211.147 119.398 210.596L118.784 208.75ZM114.725 206.507H118.045L116.376 201.478L114.725 206.507Z" fill="#7ECDCA"/>
<path d="M118.784 208.75H113.986L113.38 210.591C113.197 211.145 112.681 211.518 112.098 211.518C111.16 211.518 110.508 210.584 110.832 209.704L114.67 199.273C114.933 198.557 115.615 198.082 116.377 198.082C117.139 198.082 117.819 198.556 118.084 199.27L121.943 209.702C122.269 210.582 121.617 211.518 120.678 211.518C120.097 211.518 119.582 211.147 119.398 210.596L118.784 208.75ZM114.725 206.507H118.045L116.376 201.478L114.725 206.507Z" fill="#828282"/>
<path d="M134.357 209.896C134.357 210.828 133.602 211.584 132.669 211.584C131.737 211.584 130.981 210.828 130.981 209.896C130.981 208.964 131.737 208.208 132.669 208.208C133.602 208.208 134.357 208.964 134.357 209.896Z" fill="white"/>
<path d="M134.357 209.896C134.357 210.828 133.602 211.584 132.669 211.584C131.737 211.584 130.981 210.828 130.981 209.896C130.981 208.964 131.737 208.208 132.669 208.208C133.602 208.208 134.357 208.964 134.357 209.896Z" fill="#7ECDCA"/>
<path d="M134.357 209.896C134.357 210.828 133.602 211.584 132.669 211.584C131.737 211.584 130.981 210.828 130.981 209.896C130.981 208.964 131.737 208.208 132.669 208.208C133.602 208.208 134.357 208.964 134.357 209.896Z" fill="#7ECDCA"/>
<path d="M134.357 209.896C134.357 210.828 133.602 211.584 132.669 211.584C131.737 211.584 130.981 210.828 130.981 209.896C130.981 208.964 131.737 208.208 132.669 208.208C133.602 208.208 134.357 208.964 134.357 209.896Z" fill="#828282"/>
<path d="M126.48 209.896C126.48 210.828 125.725 211.584 124.792 211.584C123.86 211.584 123.104 210.828 123.104 209.896C123.104 208.964 123.86 208.208 124.792 208.208C125.725 208.208 126.48 208.964 126.48 209.896Z" fill="white"/>
<path d="M126.48 209.896C126.48 210.828 125.725 211.584 124.792 211.584C123.86 211.584 123.104 210.828 123.104 209.896C123.104 208.964 123.86 208.208 124.792 208.208C125.725 208.208 126.48 208.964 126.48 209.896Z" fill="#7ECDCA"/>
<path d="M126.48 209.896C126.48 210.828 125.725 211.584 124.792 211.584C123.86 211.584 123.104 210.828 123.104 209.896C123.104 208.964 123.86 208.208 124.792 208.208C125.725 208.208 126.48 208.964 126.48 209.896Z" fill="#7ECDCA"/>
<path d="M126.48 209.896C126.48 210.828 125.725 211.584 124.792 211.584C123.86 211.584 123.104 210.828 123.104 209.896C123.104 208.964 123.86 208.208 124.792 208.208C125.725 208.208 126.48 208.964 126.48 209.896Z" fill="#828282"/>
<path d="M55.0576 243.936H135.014V247.268H55.0576V243.936Z" fill="#828282"/>
<path d="M33.96 126.223H156.115V129.268H33.96V126.223Z" fill="#828282"/>
<path d="M45.0654 158.982C45.0654 145.796 55.755 135.106 68.9412 135.106H121.135C134.321 135.106 145.011 145.796 145.011 158.982C145.011 172.168 134.321 182.858 121.135 182.858H68.9413C55.755 182.858 45.0654 172.168 45.0654 158.982Z" fill="#143441"/>
<path d="M45.0654 158.982C45.0654 145.796 55.755 135.106 68.9412 135.106H121.135C134.321 135.106 145.011 145.796 145.011 158.982C145.011 172.168 134.321 182.858 121.135 182.858H68.9413C55.755 182.858 45.0654 172.168 45.0654 158.982Z" fill="#0C1F26"/>
<g filter="url(#filter1_d_1649_3697)">
<path d="M75.4258 159.551C75.4258 162.376 73.1376 164.667 70.3149 164.667C67.4923 164.667 65.2041 162.376 65.2041 159.551C65.2041 156.725 67.4923 154.434 70.3149 154.434C73.1376 154.434 75.4258 156.725 75.4258 159.551Z" fill="#3CFFF8"/>
<path d="M95.1803 166.941C92.8414 166.941 90.8027 165.655 89.7323 163.75C89.5269 163.384 89.8121 162.962 90.2314 162.962C90.4577 162.962 90.6618 163.092 90.7768 163.287C91.6661 164.794 93.3053 165.804 95.1803 165.804C97.0554 165.804 98.6946 164.794 99.5838 163.287C99.6988 163.092 99.903 162.962 100.129 162.962C100.549 162.962 100.834 163.384 100.628 163.75C99.5579 165.655 97.5192 166.941 95.1803 166.941Z" fill="#3CFFF8"/>
<path fill-rule="evenodd" clip-rule="evenodd" d="M99.4882 163.442C98.5801 164.863 96.9901 165.804 95.1804 165.804C93.3706 165.804 91.7806 164.863 90.8725 163.442C90.8397 163.391 90.8078 163.339 90.7768 163.287C90.7583 163.255 90.7374 163.225 90.7144 163.198C90.5953 163.053 90.4211 162.962 90.2314 162.962C89.8122 162.962 89.5269 163.384 89.7323 163.749C89.7539 163.788 89.7759 163.826 89.7983 163.864C89.8457 163.944 89.8949 164.024 89.9458 164.102C91.0607 165.811 92.9887 166.941 95.1804 166.941C97.372 166.941 99.3 165.811 100.415 164.102C100.466 164.024 100.515 163.944 100.562 163.864C100.585 163.826 100.607 163.788 100.628 163.749C100.834 163.384 100.549 162.962 100.129 162.962C99.9396 162.962 99.7654 163.053 99.6463 163.198C99.6233 163.225 99.6024 163.255 99.5839 163.287C99.5529 163.339 99.521 163.391 99.4882 163.442ZM95.1804 168.151C92.3861 168.151 89.9531 166.613 88.6773 164.342C87.9477 163.044 89.0356 161.752 90.2314 161.752C90.9333 161.752 91.5116 162.151 91.819 162.672C92.4999 163.825 93.7514 164.594 95.1804 164.594C96.6093 164.594 97.8608 163.825 98.5417 162.672C98.8491 162.151 99.4274 161.752 100.129 161.752C101.325 161.752 102.413 163.044 101.683 164.342C100.408 166.613 97.9746 168.151 95.1804 168.151Z" fill="#3CFFF8"/>
<path d="M124.296 159.55C124.296 162.376 122.008 164.667 119.185 164.667C116.362 164.667 114.074 162.376 114.074 159.55C114.074 156.725 116.362 154.434 119.185 154.434C122.008 154.434 124.296 156.725 124.296 159.55Z" fill="#3CFFF8"/>
</g>
<path opacity="0.8" d="M83.9648 54.4837C83.9648 48.6623 88.684 43.9431 94.5054 43.9431C100.327 43.9431 105.046 48.6623 105.046 54.4837V54.7412C105.046 60.5626 100.327 65.2818 94.5054 65.2818C88.684 65.2818 83.9648 60.5626 83.9648 54.7412V54.4837Z" fill="#828282"/>
<path fill-rule="evenodd" clip-rule="evenodd" d="M159.687 155.064C158.458 170.945 130.179 183.646 95.4722 183.646C59.9846 183.646 31.2162 170.367 31.2162 153.987C31.2162 153.841 31.2185 153.696 31.223 153.551H31.2162C30.2682 177.29 25.6721 199.427 21.0652 221.617C19.7472 227.965 18.4283 234.318 17.1936 240.714C14.2998 255.704 28.237 267.775 42.9555 263.717C43.5398 263.556 44.165 263.648 44.6781 263.97L55.4515 270.744C65.65 277.157 78.2422 278.489 89.5563 274.351L94.1346 272.676C94.9983 272.361 95.946 272.361 96.8097 272.676L101.388 274.351C112.702 278.489 125.294 277.157 135.493 270.744L146.266 263.97C146.779 263.648 147.404 263.556 147.989 263.717C162.707 267.775 176.555 255.71 173.292 240.795C172.131 235.487 170.9 230.218 169.671 224.959C164.377 202.303 159.124 179.824 159.687 155.064ZM159.721 153.551C159.722 153.589 159.724 153.627 159.724 153.666C159.726 153.627 159.727 153.589 159.728 153.551H159.721Z" fill="#826FE0"/>
<mask id="mask0_1649_3697" style="mask-type:alpha" maskUnits="userSpaceOnUse" x="17" y="155" width="156" height="122">
<path d="M159.497 156.601C158.269 172.266 129.992 184.794 95.289 184.794C59.8047 184.794 31.039 171.696 31.039 155.539C31.039 155.395 31.0413 155.252 31.0458 155.108H31.039C30.0911 178.525 25.4955 200.361 20.8889 222.249C19.8101 227.375 18.7307 232.504 17.6975 237.656C14.3879 254.159 28.0013 267.795 42.8568 263.755C43.3949 263.608 43.9632 263.694 44.4464 263.993L56.5359 271.492C66.0338 277.384 77.3308 278.61 87.685 274.875L94.0803 272.568C94.8657 272.284 95.7123 272.284 96.4977 272.568L102.893 274.875C113.247 278.61 124.544 277.384 134.042 271.492L146.132 263.993C146.615 263.694 147.183 263.608 147.721 263.755C162.577 267.795 176.071 254.172 172.341 237.778C171.409 233.685 170.445 229.613 169.481 225.546C164.187 203.197 158.935 181.024 159.497 156.601Z" fill="#826FE0"/>
<path d="M159.532 155.108C159.533 155.146 159.534 155.184 159.535 155.222C159.536 155.184 159.538 155.146 159.539 155.108H159.532Z" fill="#826FE0"/>
</mask>
<g mask="url(#mask0_1649_3697)">
<path d="M130.346 210.149C130.346 210.905 129.733 211.518 128.978 211.518V211.518C128.222 211.518 127.609 210.905 127.609 210.149V199.448C127.609 198.693 128.222 198.08 128.978 198.08V198.08C129.733 198.08 130.346 198.693 130.346 199.448V210.149Z" fill="white"/>
<path d="M130.346 210.149C130.346 210.905 129.733 211.518 128.978 211.518V211.518C128.222 211.518 127.609 210.905 127.609 210.149V199.448C127.609 198.693 128.222 198.08 128.978 198.08V198.08C129.733 198.08 130.346 198.693 130.346 199.448V210.149Z" fill="#7ECDCA"/>
<path d="M130.346 210.149C130.346 210.905 129.733 211.518 128.978 211.518V211.518C128.222 211.518 127.609 210.905 127.609 210.149V199.448C127.609 198.693 128.222 198.08 128.978 198.08V198.08C129.733 198.08 130.346 198.693 130.346 199.448V210.149Z" fill="#7ECDCA"/>
<path d="M130.346 210.149C130.346 210.905 129.733 211.518 128.978 211.518V211.518C128.222 211.518 127.609 210.905 127.609 210.149V199.448C127.609 198.693 128.222 198.08 128.978 198.08V198.08C129.733 198.08 130.346 198.693 130.346 199.448V210.149Z" fill="#EEE69C"/>
<path d="M118.787 208.749H113.988L113.382 210.591C113.199 211.144 112.683 211.518 112.1 211.518V211.518C111.162 211.518 110.51 210.583 110.834 209.703L114.672 199.271C114.936 198.555 115.617 198.08 116.38 198.08V198.08C117.141 198.08 117.822 198.554 118.086 199.268L121.946 209.701C122.272 210.582 121.62 211.518 120.681 211.518V211.518C120.1 211.518 119.584 211.146 119.401 210.595L118.787 208.749ZM114.727 206.506H118.048L116.378 201.476L114.727 206.506Z" fill="white"/>
<path d="M118.787 208.749H113.988L113.382 210.591C113.199 211.144 112.683 211.518 112.1 211.518V211.518C111.162 211.518 110.51 210.583 110.834 209.703L114.672 199.271C114.936 198.555 115.617 198.08 116.38 198.08V198.08C117.141 198.08 117.822 198.554 118.086 199.268L121.946 209.701C122.272 210.582 121.62 211.518 120.681 211.518V211.518C120.1 211.518 119.584 211.146 119.401 210.595L118.787 208.749ZM114.727 206.506H118.048L116.378 201.476L114.727 206.506Z" fill="#7ECDCA"/>
<path d="M118.787 208.749H113.988L113.382 210.591C113.199 211.144 112.683 211.518 112.1 211.518V211.518C111.162 211.518 110.51 210.583 110.834 209.703L114.672 199.271C114.936 198.555 115.617 198.08 116.38 198.08V198.08C117.141 198.08 117.822 198.554 118.086 199.268L121.946 209.701C122.272 210.582 121.62 211.518 120.681 211.518V211.518C120.1 211.518 119.584 211.146 119.401 210.595L118.787 208.749ZM114.727 206.506H118.048L116.378 201.476L114.727 206.506Z" fill="#7ECDCA"/>
<path d="M118.787 208.749H113.988L113.382 210.591C113.199 211.144 112.683 211.518 112.1 211.518V211.518C111.162 211.518 110.51 210.583 110.834 209.703L114.672 199.271C114.936 198.555 115.617 198.08 116.38 198.08V198.08C117.141 198.08 117.822 198.554 118.086 199.268L121.946 209.701C122.272 210.582 121.62 211.518 120.681 211.518V211.518C120.1 211.518 119.584 211.146 119.401 210.595L118.787 208.749ZM114.727 206.506H118.048L116.378 201.476L114.727 206.506Z" fill="#EEE69C"/>
<path d="M134.36 209.896C134.36 210.828 133.605 211.584 132.672 211.584V211.584C131.74 211.584 130.984 210.828 130.984 209.896V209.896C130.984 208.964 131.74 208.208 132.672 208.208V208.208C133.605 208.208 134.36 208.964 134.36 209.896V209.896Z" fill="white"/>
<path d="M134.36 209.896C134.36 210.828 133.605 211.584 132.672 211.584V211.584C131.74 211.584 130.984 210.828 130.984 209.896V209.896C130.984 208.964 131.74 208.208 132.672 208.208V208.208C133.605 208.208 134.36 208.964 134.36 209.896V209.896Z" fill="#7ECDCA"/>
<path d="M134.36 209.896C134.36 210.828 133.605 211.584 132.672 211.584V211.584C131.74 211.584 130.984 210.828 130.984 209.896V209.896C130.984 208.964 131.74 208.208 132.672 208.208V208.208C133.605 208.208 134.36 208.964 134.36 209.896V209.896Z" fill="#7ECDCA"/>
<path d="M134.36 209.896C134.36 210.828 133.605 211.584 132.672 211.584V211.584C131.74 211.584 130.984 210.828 130.984 209.896V209.896C130.984 208.964 131.74 208.208 132.672 208.208V208.208C133.605 208.208 134.36 208.964 134.36 209.896V209.896Z" fill="#EEE69C"/>
<path d="M126.483 209.896C126.483 210.828 125.728 211.584 124.795 211.584V211.584C123.863 211.584 123.107 210.828 123.107 209.896V209.896C123.107 208.964 123.863 208.208 124.795 208.208V208.208C125.728 208.208 126.483 208.964 126.483 209.896V209.896Z" fill="white"/>
<path d="M126.483 209.896C126.483 210.828 125.728 211.584 124.795 211.584V211.584C123.863 211.584 123.107 210.828 123.107 209.896V209.896C123.107 208.964 123.863 208.208 124.795 208.208V208.208C125.728 208.208 126.483 208.964 126.483 209.896V209.896Z" fill="#7ECDCA"/>
<path d="M126.483 209.896C126.483 210.828 125.728 211.584 124.795 211.584V211.584C123.863 211.584 123.107 210.828 123.107 209.896V209.896C123.107 208.964 123.863 208.208 124.795 208.208V208.208C125.728 208.208 126.483 208.964 126.483 209.896V209.896Z" fill="#7ECDCA"/>
<path d="M126.483 209.896C126.483 210.828 125.728 211.584 124.795 211.584V211.584C123.863 211.584 123.107 210.828 123.107 209.896V209.896C123.107 208.964 123.863 208.208 124.795 208.208V208.208C125.728 208.208 126.483 208.964 126.483 209.896V209.896Z" fill="#EEE69C"/>
<g opacity="0.9">
<path d="M159.459 239.505L155.246 245.022L148.337 244.35L152.282 250.062L149.508 256.425L156.159 254.439L161.354 259.043L161.52 252.104L167.504 248.586L160.956 246.283L159.459 239.505Z" fill="#EEE69C"/>
<path d="M162.185 182.648L157.972 188.165L151.063 187.493L155.007 193.205L152.234 199.568L158.885 197.582L164.08 202.186L164.246 195.247L170.23 191.729L163.681 189.427L162.185 182.648Z" fill="#EEE69C"/>
<path d="M78.0474 249.973L76.6916 255.53L71.2554 257.307L76.121 260.314L76.1318 266.033L80.4947 262.335L85.9377 264.092L83.7685 258.8L87.1215 254.166L81.418 254.594L78.0474 249.973Z" fill="#EEE69C"/>
<path d="M157.944 218.29L156.588 223.846L151.152 225.624L156.017 228.631L156.028 234.35L160.391 230.652L165.834 232.409L163.665 227.117L167.018 222.483L161.314 222.911L157.944 218.29Z" fill="#EEE69C"/>
<path d="M55.1333 185.188L53.7775 190.745L48.3413 192.523L53.2069 195.529L53.2178 201.249L57.5807 197.55L63.0236 199.307L60.8544 194.015L64.2075 189.382L58.5039 189.809L55.1333 185.188Z" fill="#EEE69C"/>
<path d="M101.864 212.059L100.508 217.615L95.0718 219.393L99.9374 222.4L99.9482 228.119L104.311 224.421L109.754 226.178L107.585 220.886L110.938 216.252L105.234 216.68L101.864 212.059Z" fill="#EEE69C"/>
<path d="M31.4716 197.834L26.0562 204.556L17.4896 203.498L22.2086 210.725L18.5556 218.546L26.8876 216.291L33.1966 222.182L33.627 213.561L41.1791 209.381L33.1131 206.308L31.4716 197.834Z" fill="#EEE69C"/>
<path d="M73.4194 217.817L64.6686 223.964L54.831 219.77L57.9737 229.993L50.9449 238.053L61.638 238.223L67.1316 247.398L70.5976 237.281L81.0216 234.891L72.4706 228.469L73.4194 217.817Z" fill="#EEE69C"/>
<path d="M106.242 143.057L100.217 147.29L93.4443 144.402L95.608 151.44L90.7688 156.989L98.1307 157.106L101.913 163.424L104.299 156.458L111.476 154.813L105.589 150.391L106.242 143.057Z" fill="#EEE69C"/>
<path d="M29.9983 237.698L27.9745 243.969L21.5785 245.556L26.9177 249.419L26.4507 255.993L31.7743 252.108L37.8816 254.584L35.8326 248.32L40.0741 243.277L33.4842 243.29L29.9983 237.698Z" fill="#EEE69C"/>
<path d="M79.0042 169.547L76.9804 175.819L70.5844 177.406L75.9236 181.269L75.4565 187.842L80.7801 183.958L86.8874 186.433L84.8384 180.17L89.08 175.127L82.4901 175.14L79.0042 169.547Z" fill="#EEE69C"/>
<path d="M121.025 230.731L119.811 241.666L109.881 246.4L119.905 250.933L121.339 261.841L128.748 253.708L139.565 255.715L134.119 246.155L139.37 236.488L128.596 238.713L121.025 230.731Z" fill="#EEE69C"/>
</g>
</g>
<g filter="url(#filter2_d_1649_3697)">
<path d="M80.6749 193.467C89.437 193.467 94.6943 181.395 94.6943 181.395C69.3814 181.395 50.494 175.553 35.501 164.844C41.1477 177.89 71.9127 193.467 80.6749 193.467Z" fill="#947FFE"/>
</g>
<g filter="url(#filter3_d_1649_3697)">
<path d="M109.881 193.467C101.119 193.467 95.8613 181.395 95.8613 181.395C121.174 181.395 140.062 175.553 155.055 164.844C149.408 177.89 118.643 193.467 109.881 193.467Z" fill="#947FFE"/>
</g>
<path d="M93.5244 181.395H97.0293V272.911H93.5244V181.395Z" fill="#564B91"/>
<path fill-rule="evenodd" clip-rule="evenodd" d="M159.864 142.616C145.584 144.871 125.083 146.531 95.6679 146.531C66.1787 146.531 45.6483 144.863 31.3643 142.599V132.624L159.864 132.624V142.616Z" fill="black" fill-opacity="0.2"/>
<path d="M92.2103 2.10214C93.6631 -0.700718 97.6722 -0.70071 99.1251 2.10215L148.566 97.4839L189.919 123.731C191.407 124.675 191.893 126.45 190.545 127.586C185.281 132.024 165.836 141.468 95.6677 141.468C25.499 141.468 6.05398 132.024 0.790063 127.586C-0.557169 126.45 -0.0712578 124.675 1.41656 123.731L42.769 97.4839L92.2103 2.10214Z" fill="#826FE0"/>
<mask id="mask1_1649_3697" style="mask-type:alpha" maskUnits="userSpaceOnUse" x="0" y="0" width="192" height="142">
<path d="M92.2103 2.10214C93.6631 -0.700718 97.6722 -0.70071 99.1251 2.10215L148.566 97.4839L189.919 123.731C191.407 124.675 191.893 126.45 190.545 127.586C185.281 132.024 165.836 141.468 95.6677 141.468C25.499 141.468 6.05398 132.024 0.790063 127.586C-0.557169 126.45 -0.0712578 124.675 1.41656 123.731L42.769 97.4839L92.2103 2.10214Z" fill="#826FE0"/>
</mask>
<g mask="url(#mask1_1649_3697)">
<g opacity="0.9">
<path d="M30.3521 108.61L34.5655 114.126L41.4744 113.455L37.53 119.167L40.3035 125.53L33.6523 123.544L28.4576 128.148L28.2914 121.208L22.3073 117.691L28.8558 115.388L30.3521 108.61Z" fill="#EEE69C"/>
<path d="M121.463 116.389L122.819 121.945L128.255 123.723L123.39 126.729L123.379 132.449L119.016 128.75L113.573 130.508L115.742 125.215L112.389 120.582L118.093 121.009L121.463 116.389Z" fill="#EEE69C"/>
<path d="M72.4565 48.2382L73.8123 53.7947L79.2485 55.5724L74.3829 58.5789L74.3721 64.2984L70.0092 60.6L64.5662 62.3571L66.7354 57.0649L63.3824 52.4313L69.0859 52.859L72.4565 48.2382Z" fill="#EEE69C"/>
<path d="M101.595 59.0935L106.709 67.324L116.399 67.3181L110.152 74.7254L113.152 83.9394L104.176 80.2868L96.3404 85.9872L97.0407 76.3225L89.1978 70.6316L98.6059 68.3111L101.595 59.0935Z" fill="#EEE69C"/>
<path d="M131.043 92.8108L137.068 97.0434L143.841 94.1559L141.677 101.194L146.516 106.743L139.154 106.86L135.372 113.177L132.986 106.212L125.809 104.567L131.696 100.145L131.043 92.8108Z" fill="#EEE69C"/>
<path d="M93.2678 9.47268L99.2925 13.7053L106.066 10.8178L103.902 17.8555L108.741 23.4048L101.379 23.5218L97.5968 29.8389L95.2105 22.8734L88.0338 21.2284L93.921 16.8065L93.2678 9.47268Z" fill="#EEE69C"/>
<path d="M169.511 104.113L171.535 110.385L177.931 111.972L172.592 115.835L173.059 122.408L167.736 118.524L161.628 120.999L163.677 114.736L159.436 109.692L166.026 109.706L169.511 104.113Z" fill="#EEE69C"/>
<path d="M120.506 35.9629L122.529 42.2344L128.925 43.8216L123.586 47.6843L124.053 54.2577L118.73 50.3735L112.622 52.8489L114.671 46.5856L110.43 41.5422L117.02 41.5554L120.506 35.9629Z" fill="#EEE69C"/>
<path d="M78.4861 97.147L79.6993 108.081L89.6301 112.816L79.6057 117.349L78.1717 128.256L70.7631 120.123L59.9461 122.13L65.3916 112.571L60.1403 102.904L70.9146 105.129L78.4861 97.147Z" fill="#EEE69C"/>
</g>
</g>
<path fill-rule="evenodd" clip-rule="evenodd" d="M136.823 74.876L148.435 96.8602C148.435 96.8602 116.388 102.915 95.6672 102.915C74.9469 102.915 42.8994 96.8602 42.8994 96.8602L54.5113 74.876C54.5113 74.876 79.4972 79.839 95.6672 79.839C111.837 79.839 136.823 74.876 136.823 74.876Z" fill="#7F0AC8"/>
<path fill-rule="evenodd" clip-rule="evenodd" d="M80.675 74.876C78.9544 74.876 77.5596 76.2708 77.5596 77.9914V106.03C77.5596 107.751 78.9544 109.146 80.675 109.146H113.387C115.108 109.146 116.503 107.751 116.503 106.03V77.9914C116.503 76.2708 115.108 74.876 113.387 74.876H80.675ZM88.0742 84.6117C87.2139 84.6117 86.5165 85.3091 86.5165 86.1694V99.7995C86.5165 100.66 87.2139 101.357 88.0742 101.357H105.988C106.848 101.357 107.546 100.66 107.546 99.7995V86.1694C107.546 85.3091 106.848 84.6117 105.988 84.6117H88.0742Z" fill="#DAB73A"/>
</g>
<defs>
<filter id="filter0_d_1649_3697" x="24.0819" y="113.312" width="141.336" height="95.9616" filterUnits="userSpaceOnUse" color-interpolation-filters="sRGB">
<feFlood flood-opacity="0" result="BackgroundImageFix"/>
<feColorMatrix in="SourceAlpha" type="matrix" values="0 0 0 0 0 0 0 0 0 0 0 0 0 0 0 0 0 0 127 0" result="hardAlpha"/>
<feOffset/>
<feGaussianBlur stdDeviation="20.5611"/>
<feColorMatrix type="matrix" values="0 0 0 0 0.235294 0 0 0 0 1 0 0 0 0 0.972549 0 0 0 0.5 0"/>
<feBlend mode="normal" in2="BackgroundImageFix" result="effect1_dropShadow_1649_3697"/>
<feBlend mode="normal" in="SourceGraphic" in2="effect1_dropShadow_1649_3697" result="shape"/>
</filter>
<filter id="filter1_d_1649_3697" x="24.0819" y="113.312" width="141.336" height="95.9616" filterUnits="userSpaceOnUse" color-interpolation-filters="sRGB">
<feFlood flood-opacity="0" result="BackgroundImageFix"/>
<feColorMatrix in="SourceAlpha" type="matrix" values="0 0 0 0 0 0 0 0 0 0 0 0 0 0 0 0 0 0 127 0" result="hardAlpha"/>
<feOffset/>
<feGaussianBlur stdDeviation="20.5611"/>
<feColorMatrix type="matrix" values="0 0 0 0 0.235294 0 0 0 0 1 0 0 0 0 0.972549 0 0 0 0.5 0"/>
<feBlend mode="normal" in2="BackgroundImageFix" result="effect1_dropShadow_1649_3697"/>
<feBlend mode="normal" in="SourceGraphic" in2="effect1_dropShadow_1649_3697" result="shape"/>
</filter>
<filter id="filter2_d_1649_3697" x="35.501" y="164.844" width="59.1934" height="32.623" filterUnits="userSpaceOnUse" color-interpolation-filters="sRGB">
<feFlood flood-opacity="0" result="BackgroundImageFix"/>
<feColorMatrix in="SourceAlpha" type="matrix" values="0 0 0 0 0 0 0 0 0 0 0 0 0 0 0 0 0 0 127 0" result="hardAlpha"/>
<feOffset dy="4"/>
<feColorMatrix type="matrix" values="0 0 0 0 0.471741 0 0 0 0 0.402865 0 0 0 0 0.8125 0 0 0 1 0"/>
<feBlend mode="normal" in2="BackgroundImageFix" result="effect1_dropShadow_1649_3697"/>
<feBlend mode="normal" in="SourceGraphic" in2="effect1_dropShadow_1649_3697" result="shape"/>
</filter>
<filter id="filter3_d_1649_3697" x="95.8613" y="164.844" width="59.1934" height="32.623" filterUnits="userSpaceOnUse" color-interpolation-filters="sRGB">
<feFlood flood-opacity="0" result="BackgroundImageFix"/>
<feColorMatrix in="SourceAlpha" type="matrix" values="0 0 0 0 0 0 0 0 0 0 0 0 0 0 0 0 0 0 127 0" result="hardAlpha"/>
<feOffset dy="4"/>
<feColorMatrix type="matrix" values="0 0 0 0 0.471741 0 0 0 0 0.402865 0 0 0 0 0.8125 0 0 0 1 0"/>
<feBlend mode="normal" in2="BackgroundImageFix" result="effect1_dropShadow_1649_3697"/>
<feBlend mode="normal" in="SourceGraphic" in2="effect1_dropShadow_1649_3697" result="shape"/>
</filter>
<clipPath id="clip0_1649_3697">
<rect width="192" height="277" fill="white"/>
</clipPath>
</defs>
</svg>
