<svg width="192" height="277" viewBox="0 0 192 277" fill="none" xmlns="http://www.w3.org/2000/svg">
<path d="M58.3887 231.72C58.3887 210.868 75.2931 193.963 96.1458 193.963V193.963C116.998 193.963 133.903 210.868 133.903 231.72V231.72C133.903 252.573 116.998 269.478 96.1458 269.478V269.478C75.2931 269.478 58.3887 252.573 58.3887 231.72V231.72Z" fill="white"/>
<path d="M58.3887 231.72C58.3887 210.868 75.2931 193.963 96.1458 193.963V193.963C116.998 193.963 133.903 210.868 133.903 231.72V231.72C133.903 252.573 116.998 269.478 96.1458 269.478V269.478C75.2931 269.478 58.3887 252.573 58.3887 231.72V231.72Z" fill="#3CFFF8"/>
<path fill-rule="evenodd" clip-rule="evenodd" d="M56.8682 231.721C56.8682 210.027 74.4542 192.441 96.1477 192.441C117.841 192.441 135.427 210.027 135.427 231.721C135.427 253.414 117.841 271 96.1477 271C74.4542 271 56.8682 253.414 56.8682 231.721ZM96.1477 195.486C76.1358 195.486 59.913 211.709 59.913 231.721C59.913 251.732 76.1358 267.955 96.1477 267.955C116.16 267.955 132.382 251.732 132.382 231.721C132.382 211.709 116.16 195.486 96.1477 195.486Z" fill="black"/>
<path d="M55.0576 245.046H135.014V245.046C135.014 251.729 129.596 257.261 122.913 257.261H67.1586C60.4754 257.261 55.0576 251.729 55.0576 245.046V245.046Z" fill="white"/>
<path d="M55.0576 245.046H135.014V245.046C135.014 251.729 129.596 257.261 122.913 257.261H67.1586C60.4754 257.261 55.0576 251.729 55.0576 245.046V245.046Z" fill="#F2F2F2"/>
<path fill-rule="evenodd" clip-rule="evenodd" d="M52.0137 242.001H135.015V245.046H55.0585C55.0585 246.095 55.192 247.115 55.4428 248.091C56.7903 253.329 61.5252 257.261 67.1595 257.261H122.914C128.548 257.261 133.283 253.329 134.63 248.091C134.881 247.115 135.015 246.095 135.015 245.046H138.06C138.06 253.373 131.316 260.306 122.914 260.306H67.1595C58.7575 260.306 52.0137 253.373 52.0137 245.046V242.001Z" fill="black"/>
<path d="M43.9536 160.093C43.9536 164.693 39.9761 168.422 35.0696 168.422C30.1631 168.422 26.1855 164.693 26.1855 160.093C26.1855 155.493 30.1631 151.764 35.0696 151.764C39.9761 151.764 43.9536 155.493 43.9536 160.093Z" fill="#828282"/>
<path d="M163.888 160.093C163.888 164.693 159.911 168.422 155.004 168.422C150.098 168.422 146.12 164.693 146.12 160.093C146.12 155.493 150.098 151.764 155.004 151.764C159.911 151.764 163.888 155.493 163.888 160.093Z" fill="#828282"/>
<path d="M44.6245 160.437C44.6245 165.207 40.4654 169.074 35.3347 169.074C30.2041 169.074 26.0449 165.207 26.0449 160.437C26.0449 155.667 30.2041 151.8 35.3347 151.8C40.4654 151.8 44.6245 155.667 44.6245 160.437Z" fill="#828282"/>
<path fill-rule="evenodd" clip-rule="evenodd" d="M47.6693 160.437C47.6693 167.094 41.9341 172.119 35.3346 172.119C28.7351 172.119 23 167.094 23 160.437C23 153.78 28.7351 148.755 35.3346 148.755C41.9341 148.755 47.6693 153.78 47.6693 160.437ZM35.3346 169.074C40.4653 169.074 44.6244 165.207 44.6244 160.437C44.6244 155.667 40.4653 151.8 35.3346 151.8C30.204 151.8 26.0448 155.667 26.0448 160.437C26.0448 165.207 30.204 169.074 35.3346 169.074Z" fill="black"/>
<path d="M163.899 160.437C163.899 165.207 159.74 169.074 154.609 169.074C149.479 169.074 145.319 165.207 145.319 160.437C145.319 155.667 149.479 151.8 154.609 151.8C159.74 151.8 163.899 155.667 163.899 160.437Z" fill="#828282"/>
<path fill-rule="evenodd" clip-rule="evenodd" d="M166.943 160.437C166.943 167.094 161.208 172.119 154.608 172.119C148.009 172.119 142.273 167.094 142.273 160.437C142.273 153.78 148.009 148.755 154.608 148.755C161.208 148.755 166.943 153.78 166.943 160.437ZM154.608 169.074C159.739 169.074 163.898 165.207 163.898 160.437C163.898 155.667 159.739 151.8 154.608 151.8C149.477 151.8 145.318 155.667 145.318 160.437C145.318 165.207 149.477 169.074 154.608 169.074Z" fill="black"/>
<path d="M94.4814 44.0449C88.6549 44.0449 83.9316 48.7682 83.9316 54.5947C83.9316 59.4603 87.2255 63.5565 91.705 64.7753V78.4264H97.2575V64.7754C101.737 63.5568 105.031 59.4604 105.031 54.5947C105.031 48.7682 100.308 44.0449 94.4814 44.0449Z" fill="#7ECDCA"/>
<path d="M94.4814 44.0449C88.6549 44.0449 83.9316 48.7682 83.9316 54.5947C83.9316 59.4603 87.2255 63.5565 91.705 64.7753V78.4264H97.2575V64.7754C101.737 63.5568 105.031 59.4604 105.031 54.5947C105.031 48.7682 100.308 44.0449 94.4814 44.0449Z" fill="#7D8E9E"/>
<path d="M94.4814 44.0449C88.6549 44.0449 83.9316 48.7682 83.9316 54.5947C83.9316 59.4603 87.2255 63.5565 91.705 64.7753V78.4264H97.2575V64.7754C101.737 63.5568 105.031 59.4604 105.031 54.5947C105.031 48.7682 100.308 44.0449 94.4814 44.0449Z" fill="#828282"/>
<path fill-rule="evenodd" clip-rule="evenodd" d="M88.66 81.4713V66.8824C84.0658 64.7021 80.8867 60.0226 80.8867 54.5947C80.8867 47.0866 86.9732 41.0001 94.4813 41.0001C101.989 41.0001 108.076 47.0866 108.076 54.5947C108.076 60.0228 104.897 64.7024 100.302 66.8826V81.4713H88.66ZM97.2574 64.7754C101.737 63.5568 105.031 59.4604 105.031 54.5947C105.031 48.7682 100.308 44.0449 94.4813 44.0449C88.6548 44.0449 83.9315 48.7682 83.9315 54.5947C83.9315 59.4603 87.2254 63.5566 91.7049 64.7753V78.4264H97.2574V64.7754Z" fill="black"/>
<path d="M82.8203 77.9577C82.8203 73.9478 86.071 70.6971 90.0809 70.6971H98.8803C102.89 70.6971 106.141 73.9478 106.141 77.9577V84.0232H82.8203V77.9577Z" fill="#D0E2EE"/>
<path d="M82.8203 77.9577C82.8203 73.9478 86.071 70.6971 90.0809 70.6971H98.8803C102.89 70.6971 106.141 73.9478 106.141 77.9577V84.0232H82.8203V77.9577Z" fill="#F2F2F2"/>
<path fill-rule="evenodd" clip-rule="evenodd" d="M98.8803 73.742H90.0809C87.7526 73.742 85.8651 75.6294 85.8651 77.9577V80.9784H103.096V77.9577C103.096 75.6294 101.209 73.742 98.8803 73.742ZM90.0809 70.6971C86.071 70.6971 82.8203 73.9478 82.8203 77.9577V84.0232H106.141V77.9577C106.141 73.9478 102.89 70.6971 98.8803 70.6971H90.0809Z" fill="black"/>
<path d="M83.6585 79.5814H106.54C133.954 79.5814 156.177 101.841 156.177 129.299V232.888C156.177 238.989 151.238 243.936 145.146 243.936H45.0519C38.96 243.936 34.0215 238.989 34.0215 232.888V129.299C34.0215 101.841 56.2447 79.5814 83.6585 79.5814Z" fill="white"/>
<path fill-rule="evenodd" clip-rule="evenodd" d="M83.6574 76.5364H106.539C135.639 76.5364 159.221 100.163 159.221 129.298V232.887C159.221 240.666 152.923 246.98 145.145 246.98H45.0508C37.2726 246.98 30.9756 240.666 30.9756 232.887V129.298C30.9756 100.163 54.5574 76.5364 83.6574 76.5364ZM106.539 79.5812H83.6574C56.2436 79.5812 34.0204 101.84 34.0204 129.298V232.887C34.0204 238.989 38.9589 243.936 45.0508 243.936H145.145C151.237 243.936 156.176 238.989 156.176 232.887V129.298C156.176 101.84 133.952 79.5812 106.539 79.5812Z" fill="black"/>
<path d="M130.344 210.15C130.344 210.905 129.731 211.518 128.976 211.518V211.518C128.22 211.518 127.607 210.905 127.607 210.15V199.449C127.607 198.694 128.22 198.081 128.976 198.081V198.081C129.731 198.081 130.344 198.694 130.344 199.449V210.15Z" fill="white"/>
<path d="M130.344 210.15C130.344 210.905 129.731 211.518 128.976 211.518V211.518C128.22 211.518 127.607 210.905 127.607 210.15V199.449C127.607 198.694 128.22 198.081 128.976 198.081V198.081C129.731 198.081 130.344 198.694 130.344 199.449V210.15Z" fill="#7ECDCA"/>
<path d="M130.344 210.15C130.344 210.905 129.731 211.518 128.976 211.518V211.518C128.22 211.518 127.607 210.905 127.607 210.15V199.449C127.607 198.694 128.22 198.081 128.976 198.081V198.081C129.731 198.081 130.344 198.694 130.344 199.449V210.15Z" fill="#7ECDCA"/>
<path d="M130.344 210.15C130.344 210.905 129.731 211.518 128.976 211.518V211.518C128.22 211.518 127.607 210.905 127.607 210.15V199.449C127.607 198.694 128.22 198.081 128.976 198.081V198.081C129.731 198.081 130.344 198.694 130.344 199.449V210.15Z" fill="#828282"/>
<path d="M118.784 208.75H113.986L113.38 210.591C113.197 211.145 112.681 211.518 112.098 211.518V211.518C111.16 211.518 110.508 210.584 110.832 209.704L114.67 199.273C114.933 198.557 115.615 198.082 116.377 198.082V198.082C117.139 198.082 117.819 198.556 118.084 199.27L121.943 209.702C122.269 210.582 121.617 211.518 120.678 211.518V211.518C120.097 211.518 119.582 211.147 119.398 210.596L118.784 208.75ZM114.725 206.507H118.045L116.376 201.478L114.725 206.507Z" fill="white"/>
<path d="M118.784 208.75H113.986L113.38 210.591C113.197 211.145 112.681 211.518 112.098 211.518V211.518C111.16 211.518 110.508 210.584 110.832 209.704L114.67 199.273C114.933 198.557 115.615 198.082 116.377 198.082V198.082C117.139 198.082 117.819 198.556 118.084 199.27L121.943 209.702C122.269 210.582 121.617 211.518 120.678 211.518V211.518C120.097 211.518 119.582 211.147 119.398 210.596L118.784 208.75ZM114.725 206.507H118.045L116.376 201.478L114.725 206.507Z" fill="#7ECDCA"/>
<path d="M118.784 208.75H113.986L113.38 210.591C113.197 211.145 112.681 211.518 112.098 211.518V211.518C111.16 211.518 110.508 210.584 110.832 209.704L114.67 199.273C114.933 198.557 115.615 198.082 116.377 198.082V198.082C117.139 198.082 117.819 198.556 118.084 199.27L121.943 209.702C122.269 210.582 121.617 211.518 120.678 211.518V211.518C120.097 211.518 119.582 211.147 119.398 210.596L118.784 208.75ZM114.725 206.507H118.045L116.376 201.478L114.725 206.507Z" fill="#7ECDCA"/>
<path d="M118.784 208.75H113.986L113.38 210.591C113.197 211.145 112.681 211.518 112.098 211.518V211.518C111.16 211.518 110.508 210.584 110.832 209.704L114.67 199.273C114.933 198.557 115.615 198.082 116.377 198.082V198.082C117.139 198.082 117.819 198.556 118.084 199.27L121.943 209.702C122.269 210.582 121.617 211.518 120.678 211.518V211.518C120.097 211.518 119.582 211.147 119.398 210.596L118.784 208.75ZM114.725 206.507H118.045L116.376 201.478L114.725 206.507Z" fill="#828282"/>
<path d="M134.357 209.896C134.357 210.828 133.602 211.584 132.669 211.584V211.584C131.737 211.584 130.981 210.828 130.981 209.896V209.896C130.981 208.964 131.737 208.208 132.669 208.208V208.208C133.602 208.208 134.357 208.964 134.357 209.896V209.896Z" fill="white"/>
<path d="M134.357 209.896C134.357 210.828 133.602 211.584 132.669 211.584V211.584C131.737 211.584 130.981 210.828 130.981 209.896V209.896C130.981 208.964 131.737 208.208 132.669 208.208V208.208C133.602 208.208 134.357 208.964 134.357 209.896V209.896Z" fill="#7ECDCA"/>
<path d="M134.357 209.896C134.357 210.828 133.602 211.584 132.669 211.584V211.584C131.737 211.584 130.981 210.828 130.981 209.896V209.896C130.981 208.964 131.737 208.208 132.669 208.208V208.208C133.602 208.208 134.357 208.964 134.357 209.896V209.896Z" fill="#7ECDCA"/>
<path d="M134.357 209.896C134.357 210.828 133.602 211.584 132.669 211.584V211.584C131.737 211.584 130.981 210.828 130.981 209.896V209.896C130.981 208.964 131.737 208.208 132.669 208.208V208.208C133.602 208.208 134.357 208.964 134.357 209.896V209.896Z" fill="#828282"/>
<path d="M126.48 209.896C126.48 210.828 125.725 211.584 124.792 211.584V211.584C123.86 211.584 123.104 210.828 123.104 209.896V209.896C123.104 208.964 123.86 208.208 124.792 208.208V208.208C125.725 208.208 126.48 208.964 126.48 209.896V209.896Z" fill="white"/>
<path d="M126.48 209.896C126.48 210.828 125.725 211.584 124.792 211.584V211.584C123.86 211.584 123.104 210.828 123.104 209.896V209.896C123.104 208.964 123.86 208.208 124.792 208.208V208.208C125.725 208.208 126.48 208.964 126.48 209.896V209.896Z" fill="#7ECDCA"/>
<path d="M126.48 209.896C126.48 210.828 125.725 211.584 124.792 211.584V211.584C123.86 211.584 123.104 210.828 123.104 209.896V209.896C123.104 208.964 123.86 208.208 124.792 208.208V208.208C125.725 208.208 126.48 208.964 126.48 209.896V209.896Z" fill="#7ECDCA"/>
<path d="M126.48 209.896C126.48 210.828 125.725 211.584 124.792 211.584V211.584C123.86 211.584 123.104 210.828 123.104 209.896V209.896C123.104 208.964 123.86 208.208 124.792 208.208V208.208C125.725 208.208 126.48 208.964 126.48 209.896V209.896Z" fill="#828282"/>
<path d="M55.0576 243.936H135.014V247.268H55.0576V243.936Z" fill="#828282"/>
<path d="M33.96 126.223H156.115V129.268H33.96V126.223Z" fill="#828282"/>
<path d="M45.0654 158.982C45.0654 145.796 55.755 135.106 68.9412 135.106H121.135C134.321 135.106 145.011 145.796 145.011 158.982V158.982C145.011 172.168 134.321 182.858 121.135 182.858H68.9413C55.755 182.858 45.0654 172.168 45.0654 158.982V158.982Z" fill="#143441"/>
<path d="M45.0654 158.982C45.0654 145.796 55.755 135.106 68.9412 135.106H121.135C134.321 135.106 145.011 145.796 145.011 158.982V158.982C145.011 172.168 134.321 182.858 121.135 182.858H68.9413C55.755 182.858 45.0654 172.168 45.0654 158.982V158.982Z" fill="#0C1F26"/>
<g filter="url(#filter0_d_1649_3698)">
<path d="M75.4258 159.551C75.4258 162.376 73.1376 164.667 70.3149 164.667C67.4923 164.667 65.2041 162.376 65.2041 159.551C65.2041 156.725 67.4923 154.434 70.3149 154.434C73.1376 154.434 75.4258 156.725 75.4258 159.551Z" fill="#3CFFF8"/>
<path d="M95.1803 166.941C92.8414 166.941 90.8027 165.655 89.7323 163.75C89.5269 163.384 89.8121 162.962 90.2314 162.962V162.962C90.4577 162.962 90.6618 163.092 90.7768 163.287C91.6661 164.794 93.3053 165.804 95.1803 165.804C97.0554 165.804 98.6946 164.794 99.5838 163.287C99.6988 163.092 99.903 162.962 100.129 162.962V162.962C100.549 162.962 100.834 163.384 100.628 163.75C99.5579 165.655 97.5192 166.941 95.1803 166.941Z" fill="#3CFFF8"/>
<path fill-rule="evenodd" clip-rule="evenodd" d="M99.4882 163.442C98.5801 164.863 96.9901 165.804 95.1804 165.804C93.3706 165.804 91.7806 164.863 90.8725 163.442C90.8397 163.391 90.8078 163.339 90.7768 163.287C90.7583 163.255 90.7374 163.225 90.7144 163.198C90.5953 163.053 90.4211 162.962 90.2314 162.962C89.8122 162.962 89.5269 163.384 89.7323 163.749C89.7539 163.788 89.7759 163.826 89.7983 163.864C89.8457 163.944 89.8949 164.024 89.9458 164.102C91.0607 165.811 92.9887 166.941 95.1804 166.941C97.372 166.941 99.3 165.811 100.415 164.102C100.466 164.024 100.515 163.944 100.562 163.864C100.585 163.826 100.607 163.788 100.628 163.749C100.834 163.384 100.549 162.962 100.129 162.962C99.9396 162.962 99.7654 163.053 99.6463 163.198C99.6233 163.225 99.6024 163.255 99.5839 163.287C99.5529 163.339 99.521 163.391 99.4882 163.442ZM95.1804 168.151C92.3861 168.151 89.9531 166.613 88.6773 164.342C87.9477 163.044 89.0356 161.752 90.2314 161.752C90.9333 161.752 91.5116 162.151 91.819 162.672C92.4999 163.825 93.7514 164.594 95.1804 164.594C96.6093 164.594 97.8608 163.825 98.5417 162.672C98.8491 162.151 99.4274 161.752 100.129 161.752C101.325 161.752 102.413 163.044 101.683 164.342C100.408 166.613 97.9746 168.151 95.1804 168.151Z" fill="#3CFFF8"/>
<path d="M124.296 159.55C124.296 162.376 122.008 164.667 119.185 164.667C116.362 164.667 114.074 162.376 114.074 159.55C114.074 156.725 116.362 154.434 119.185 154.434C122.008 154.434 124.296 156.725 124.296 159.55Z" fill="#3CFFF8"/>
</g>
<path opacity="0.8" d="M83.9648 54.4837C83.9648 48.6623 88.684 43.9431 94.5054 43.9431V43.9431C100.327 43.9431 105.046 48.6623 105.046 54.4837V54.7412C105.046 60.5626 100.327 65.2818 94.5054 65.2818V65.2818C88.684 65.2818 83.9648 60.5626 83.9648 54.7412V54.4837Z" fill="#828282"/>
<defs>
<filter id="filter0_d_1649_3698" x="24.0819" y="113.312" width="141.336" height="95.9616" filterUnits="userSpaceOnUse" color-interpolation-filters="sRGB">
<feFlood flood-opacity="0" result="BackgroundImageFix"/>
<feColorMatrix in="SourceAlpha" type="matrix" values="0 0 0 0 0 0 0 0 0 0 0 0 0 0 0 0 0 0 127 0" result="hardAlpha"/>
<feOffset/>
<feGaussianBlur stdDeviation="20.5611"/>
<feColorMatrix type="matrix" values="0 0 0 0 0.235294 0 0 0 0 1 0 0 0 0 0.972549 0 0 0 0.5 0"/>
<feBlend mode="normal" in2="BackgroundImageFix" result="effect1_dropShadow_1649_3698"/>
<feBlend mode="normal" in="SourceGraphic" in2="effect1_dropShadow_1649_3698" result="shape"/>
</filter>
</defs>
</svg>
