<svg xmlns="http://www.w3.org/2000/svg" width="1444" height="436" viewBox="0 0 1444 436" fill="#5faaff" color="#5faaff">
<path d="M-459.223 310.535C-459.218 308.302 -459.832 306.21 -460.875 304.403L-619.805 396.161L-613.676 406.776C-612.044 405.834 -610.644 404.522 -609.587 402.959L-482.429 476.39C-485.279 482.136 -483.222 489.186 -477.585 492.442C-475.886 493.422 -474.062 493.933 -472.234 494.047L-472.233 640.893C-474.172 641.023 -475.987 641.585 -477.578 642.504L-465.321 663.735C-463.689 662.793 -462.289 661.481 -461.231 659.917L-344.698 727.217C-350.934 738.839 -346.872 753.382 -335.358 760.025C-331.723 762.117 -327.788 763.172 -323.866 763.3L-323.878 897.851C-325.817 897.981 -327.632 898.544 -329.223 899.463L-316.965 920.694C-315.334 919.752 -313.933 918.44 -312.876 916.876L-180.377 993.393C-181.548 996.191 -180.506 999.492 -177.81 1001.05C-177.08 1001.47 -176.304 1001.72 -175.531 1001.82L-175.523 1154.81C-177.462 1154.94 -179.277 1155.5 -180.868 1156.42L-168.61 1177.65C-166.979 1176.71 -165.578 1175.4 -164.521 1173.83L-42.6753 1244.2C-47.2118 1252.88 -44.1552 1263.69 -35.5836 1268.63C-32.9167 1270.17 -30.0371 1270.95 -27.1623 1271.07L-27.1679 1411.77C-29.1065 1411.9 -30.9216 1412.46 -32.5129 1413.38L-20.2551 1434.61C-18.6233 1433.67 -17.2231 1432.36 -16.1659 1430.79L110.992 1504.22C108.142 1509.97 110.198 1517.02 115.836 1520.28C117.535 1521.26 119.358 1521.77 121.186 1521.88L121.187 1668.73C119.249 1668.86 117.434 1669.42 115.842 1670.34L128.1 1691.57C129.732 1690.63 131.132 1689.32 132.189 1687.75L259.347 1761.18C256.497 1766.93 258.554 1773.98 264.191 1777.23C265.89 1778.21 267.714 1778.73 269.541 1778.84L269.556 1925.68C267.617 1925.81 265.802 1926.37 264.211 1927.29L276.469 1948.52C278.1 1947.58 279.501 1946.27 280.558 1944.7L413.057 2021.22C411.886 2024.02 412.929 2027.32 415.624 2028.87C416.354 2029.3 417.13 2029.55 417.903 2029.64L417.925 2182.63C415.986 2182.76 414.171 2183.32 412.579 2184.24L418.708 2194.86L577.638 2103.1C575.644 2099.64 572.019 2097.26 567.803 2097L567.8 1962.42C576.275 1962.15 583.648 1957.6 587.84 1950.85L704.373 2018.15C702.494 2021.93 702.747 2026.26 704.741 2029.71L1022.6 1846.2C1020.61 1842.75 1016.98 1840.36 1012.76 1840.1L1012.75 1693.26C1016.68 1693 1020.12 1690.91 1022.18 1687.82L1138.71 1755.12C1134.57 1762.83 1134.98 1771.82 1139.09 1778.94L1462.23 1592.38C1461.3 1590.76 1459.65 1589.62 1457.73 1589.37L1457.71 1436.36C1461.65 1436.1 1465.08 1434.01 1467.14 1430.92L1594.3 1504.35C1592.42 1508.13 1592.67 1512.46 1594.66 1515.92L1912.52 1332.4C1910.53 1328.95 1906.9 1326.56 1902.69 1326.3L1902.67 1179.46C1906.61 1179.21 1910.04 1177.12 1912.1 1174.02L2039.26 1247.45C2037.38 1251.23 2037.63 1255.57 2039.63 1259.02L2198.55 1167.26L2192.43 1156.65C2190.79 1157.59 2189.39 1158.9 2188.34 1160.46L2071.83 1093.18C2073.69 1089.74 2074.74 1085.79 2074.74 1081.59C2074.73 1068.31 2064.17 1057.52 2051 1057.1L2050.98 922.529C2052.92 922.399 2054.74 921.837 2056.33 920.918L2044.07 899.687C2042.44 900.629 2041.04 901.941 2039.98 903.504L1912.83 830.086C1913.65 828.447 1914.11 826.598 1914.12 824.65C1914.12 818.14 1909.04 812.834 1902.64 812.43L1902.62 665.592C1904.56 665.462 1906.38 664.899 1907.97 663.98L1895.71 642.749C1894.08 643.692 1892.68 645.003 1891.62 646.567L1764.47 573.149C1765.29 571.509 1765.75 569.674 1765.76 567.713C1765.75 561.203 1760.68 555.897 1754.28 555.492L1754.26 408.654C1756.2 408.524 1758.02 407.962 1759.61 407.043L1747.35 385.812C1745.72 386.754 1744.32 388.066 1743.26 389.63L1616.11 316.212C1616.92 314.572 1617.39 312.737 1617.39 310.776C1617.39 304.266 1612.32 298.96 1605.92 298.555L1605.9 151.717C1607.84 151.587 1609.65 151.025 1611.25 150.106L1598.99 128.875C1597.36 129.817 1595.96 131.129 1594.9 132.692L1462.43 56.1949C1462.73 55.4653 1462.91 54.6591 1462.91 53.8284C1462.91 50.7028 1460.58 48.1629 1457.57 47.778L1457.55 -105.242C1459.48 -105.372 1461.3 -105.934 1462.89 -106.853L1450.63 -128.084C1449 -127.142 1447.6 -125.83 1446.54 -124.266L1319.39 -197.684C1320.21 -199.324 1320.68 -201.159 1320.68 -203.12C1320.68 -209.63 1315.6 -214.936 1309.2 -215.341L1309.19 -362.179C1311.12 -362.309 1312.94 -362.871 1314.53 -363.79L1302.27 -385.021C1300.64 -384.079 1299.24 -382.767 1298.18 -381.204L1171.03 -454.622C1171.85 -456.262 1172.32 -458.097 1172.32 -460.058C1172.32 -466.568 1167.24 -471.874 1160.84 -472.278L1160.82 -619.116C1162.76 -619.246 1164.58 -619.809 1166.17 -620.728L1160 -631.411L1001.07 -539.653C1002.12 -537.845 1003.61 -536.281 1005.56 -535.156C1007.25 -534.176 1009.08 -533.664 1010.91 -533.551L1010.92 -395.902C1003.59 -395.644 997.198 -391.702 993.537 -385.866L874.344 -454.688C875.16 -456.328 875.621 -458.177 875.629 -460.124C875.635 -462.357 875.02 -464.449 873.977 -466.256L556.118 -282.74C557.162 -280.933 558.666 -279.355 560.603 -278.243C562.301 -277.264 564.125 -276.752 565.952 -276.638L565.967 -129.8C562.026 -129.557 558.593 -127.467 556.541 -124.358L424.095 -200.906C424.393 -201.635 424.575 -202.442 424.581 -203.272C424.583 -204.389 424.256 -205.423 423.735 -206.327L100.589 -19.7589C102.677 -16.1439 105.677 -13.0023 109.55 -10.7783C113.185 -8.6866 117.121 -7.63163 121.043 -7.50384L121.052 127.054C117.118 127.31 113.686 129.4 111.625 132.496L-15.5463 59.0722C-14.7309 57.4324 -14.27 55.5837 -14.2614 53.6363C-14.2562 51.4032 -14.8702 49.3118 -15.9138 47.5043L-333.772 231.02C-332.729 232.827 -331.225 234.405 -329.288 235.517C-327.59 236.497 -325.766 237.008 -323.938 237.122L-323.923 383.96C-327.865 384.203 -331.297 386.293 -333.35 389.403L-460.508 315.971C-459.693 314.331 -459.232 312.482 -459.223 310.535ZM-174.058 298.335L-174.059 151.489C-170.126 151.232 -166.693 149.143 -164.633 146.047L-34.8292 221.008C-36.8399 225.28 -35.2788 230.476 -31.1014 232.884C-29.8871 233.586 -28.5873 233.969 -27.283 234.079L-27.2717 383.994C-31.2052 384.251 -34.6456 386.327 -36.6982 389.436L-163.849 316.018C-163.033 314.378 -162.572 312.53 -162.564 310.582C-162.564 304.072 -167.641 298.766 -174.043 298.362L-174.058 298.335ZM280.337 -110.839L407.495 -37.407C404.645 -31.661 406.701 -24.6112 412.339 -21.3556C414.037 -20.3758 415.861 -19.8641 417.689 -19.7504L417.704 120.954C411.503 121.207 406.108 124.538 402.978 129.456L281.132 59.0905C281.948 57.4507 282.416 55.6155 282.417 53.6547C282.417 47.1445 277.339 41.8387 270.938 41.4339L270.924 -105.404C274.857 -105.661 278.29 -107.75 280.35 -110.846L280.337 -110.839ZM725.318 -196.443L852.476 -123.011C851.66 -121.371 851.192 -119.536 851.191 -117.575C851.19 -115.615 851.656 -113.779 852.481 -112.133L720.011 -35.6516C719.54 -36.2793 718.922 -36.8214 718.191 -37.2451C715.496 -38.8 712.115 -38.0531 710.271 -35.6399L577.772 -112.157C578.588 -113.796 579.056 -115.632 579.057 -117.593C579.058 -119.553 578.592 -121.388 577.767 -123.035L704.897 -196.433C707.091 -193.131 710.842 -190.963 715.105 -190.96C719.368 -190.958 723.11 -193.136 725.304 -196.435L725.318 -196.443ZM1021.97 -196.409L1143.81 -126.057C1142.47 -123.507 1141.71 -120.621 1141.71 -117.544C1141.71 -114.466 1142.47 -111.582 1143.81 -109.024L1016.66 -35.6177C1016.19 -36.2454 1015.57 -36.7874 1014.84 -37.2112C1012.15 -38.7661 1008.77 -38.0191 1006.92 -35.606L874.424 -112.123C875.239 -113.763 875.708 -115.598 875.709 -117.559C875.709 -119.519 875.243 -121.354 874.419 -123.001L1001.56 -196.407C1003.76 -193.105 1007.51 -190.937 1011.77 -190.934C1016.03 -190.932 1019.77 -193.109 1021.98 -196.395L1021.97 -196.409ZM862.664 -105.333L862.679 41.5046C856.277 41.9092 851.196 47.2168 851.197 53.7269C851.196 55.6877 851.662 57.5229 852.487 59.169L725.357 132.567C723.301 129.474 719.861 127.377 715.925 127.132L715.91 -25.8741C717.738 -26.1024 719.441 -27.1395 720.439 -28.867C721.438 -30.5945 721.479 -32.5786 720.762 -34.2871L853.246 -110.777C855.302 -107.683 858.742 -105.587 862.678 -105.341L862.664 -105.333ZM873.659 60.5236L1000.82 133.955C1000 135.595 999.533 137.43 999.533 139.391C999.532 141.352 999.998 143.187 1000.82 144.833L884.319 212.096C882.257 208.773 879.369 205.89 875.74 203.777C864.234 197.147 849.62 200.891 842.661 212.102L726.114 144.81C726.929 143.17 727.398 141.335 727.399 139.374C727.4 137.413 726.933 135.578 726.109 133.932L853.239 60.5335C855.433 63.835 859.184 66.0035 863.447 66.0061C867.71 66.0088 871.451 63.8308 873.646 60.5313L873.659 60.5236ZM1170.31 60.5575L1302.78 137.055C1302.48 137.784 1302.32 138.583 1302.31 139.414C1302.31 140.258 1302.48 141.057 1302.78 141.786L1170.31 218.268C1169.3 216.744 1167.94 215.409 1166.24 214.429C1160.6 211.174 1153.47 212.92 1149.92 218.262L1022.76 144.83C1023.57 143.19 1024.04 141.355 1024.04 139.394C1024.04 137.434 1023.58 135.598 1022.75 133.952L1149.9 60.546C1152.09 63.8475 1155.84 66.016 1160.1 66.0186C1164.37 66.0213 1168.11 63.8434 1170.31 60.5575ZM1011.01 151.633L1011.02 298.471C1004.62 298.876 999.538 304.183 999.539 310.693C999.538 312.654 1000 314.489 1000.83 316.135L873.699 389.534C871.643 386.44 868.203 384.344 864.267 384.098L864.25 249.527C872.439 249.26 880.306 244.916 884.704 237.305C889.095 229.68 888.925 220.696 885.058 213.468L1001.57 146.198C1003.63 149.291 1007.07 151.387 1011.01 151.633ZM1022 317.49L1149.16 390.922C1148.34 392.561 1147.88 394.397 1147.87 396.357C1147.87 398.318 1148.34 400.153 1149.16 401.8L1016.69 478.281C1016.22 477.654 1015.61 477.111 1014.87 476.688C1012.18 475.133 1008.8 475.88 1006.95 478.293L874.455 401.776C875.271 400.137 875.74 398.301 875.74 396.34C875.741 394.38 875.275 392.544 874.451 390.898L1001.58 317.5C1003.77 320.801 1007.53 322.97 1011.79 322.973C1016.05 322.975 1019.79 320.797 1021.99 317.498L1022 317.49ZM1318.65 317.524L1445.81 390.955C1445 392.595 1444.53 394.431 1444.53 396.391C1444.53 398.352 1444.99 400.187 1445.82 401.833L1318.67 475.24C1317.67 473.716 1316.3 472.381 1314.6 471.402C1308.97 468.146 1301.83 469.893 1298.28 475.234L1171.12 401.802C1171.94 400.163 1172.4 398.327 1172.41 396.367C1172.41 394.406 1171.94 392.571 1171.12 390.924L1298.26 317.518C1300.45 320.82 1304.2 322.988 1308.47 322.991C1312.73 322.993 1316.47 320.816 1318.67 317.53L1318.65 317.524ZM1159.35 408.6L1159.36 555.437C1152.96 555.842 1147.88 561.15 1147.88 567.66C1147.88 569.621 1148.35 571.456 1149.17 573.102L1016.69 649.591C1015.72 648.317 1014.27 647.461 1012.61 647.233L1012.59 488.059C1014.42 487.83 1016.12 486.793 1017.12 485.066C1018.12 483.338 1018.16 481.354 1017.45 479.646L1149.93 403.156C1151.99 406.25 1155.43 408.346 1159.36 408.592L1159.35 408.6ZM1170.34 574.456L1302.81 650.954C1302.52 651.683 1302.33 652.49 1302.33 653.321C1302.33 654.165 1302.5 654.964 1302.81 655.685L1170.34 732.167C1169.34 730.643 1167.97 729.308 1166.27 728.328C1160.64 725.073 1153.5 726.819 1149.95 732.161L1017.46 655.658C1017.75 654.928 1017.94 654.122 1017.94 653.291C1017.94 652.447 1017.77 651.648 1017.46 650.927L1149.91 574.453C1152.11 577.754 1155.86 579.923 1160.12 579.926C1164.39 579.928 1168.13 577.75 1170.32 574.451L1170.34 574.456ZM1477.61 580.608L1599.48 650.98C1599.18 651.71 1599.01 652.508 1599.01 653.339C1599.01 654.183 1599.18 654.982 1599.48 655.711L1467.01 732.193C1466 730.669 1464.64 729.334 1462.94 728.354C1457.3 725.099 1450.16 726.845 1446.61 732.187L1314.13 655.676C1314.43 654.946 1314.6 654.148 1314.61 653.317C1314.61 652.486 1314.43 651.674 1314.12 650.953L1435.97 580.606C1440.29 587.569 1447.99 592.208 1456.79 592.218C1465.58 592.228 1473.27 587.574 1477.6 580.616L1477.61 580.608ZM1307.69 659.376L1307.71 815.46C1302.99 815.861 1299.28 819.803 1299.29 824.617C1299.29 826.019 1299.61 827.347 1300.17 828.534L1178.33 898.881C1174.67 893.043 1168.28 889.107 1160.94 888.849L1160.93 751.214C1164.89 750.963 1168.63 748.799 1170.76 745.106C1172.89 741.413 1172.89 737.08 1171.13 733.529L1303.61 657.039C1304.58 658.314 1306.03 659.169 1307.69 659.398L1307.69 659.376ZM1316.02 829.866L1448.49 906.363C1447.94 907.548 1447.62 908.865 1447.62 910.267C1447.62 911.67 1447.94 912.976 1448.5 914.164L1313.38 992.179C1312.9 991.552 1312.29 991.01 1311.56 990.586C1308.86 989.031 1305.48 989.778 1303.64 992.191L1179.12 920.276C1180.71 917.271 1181.62 913.867 1181.62 910.231C1181.63 906.596 1180.72 903.182 1179.12 900.187L1300.93 829.856C1302.6 832.241 1305.35 833.799 1308.47 833.793C1311.6 833.787 1314.35 832.234 1316.02 829.852L1316.02 829.866ZM1615.34 831.435L1734.51 900.252C1732.92 903.257 1732.01 906.661 1732.01 910.297C1732 913.932 1732.91 917.346 1734.51 920.341L1615.35 989.138C1614.35 987.614 1612.98 986.279 1611.29 985.3C1605.65 982.044 1598.51 983.79 1594.96 989.132L1465.14 914.165C1465.69 912.98 1466.01 911.663 1466.01 910.261C1466.01 908.858 1465.69 907.552 1465.13 906.364L1594.93 831.424C1597.12 834.726 1600.87 836.894 1605.13 836.897C1609.4 836.899 1613.14 834.721 1615.34 831.435ZM1456.04 919.434L1456.05 1069.35C1449.65 1069.75 1444.57 1075.06 1444.57 1081.57C1444.57 1083.53 1445.03 1085.37 1445.86 1087.01L1318.73 1160.41C1316.67 1157.32 1313.23 1155.22 1309.3 1154.98L1309.28 1001.97C1311.11 1001.74 1312.81 1000.7 1313.81 998.977C1314.81 997.25 1314.85 995.266 1314.13 993.557L1449.28 915.534C1450.79 917.718 1453.24 919.197 1456.04 919.434ZM1467.05 1088.36L1599.52 1164.86C1599.22 1165.59 1599.04 1166.39 1599.03 1167.22C1599.03 1168.07 1599.21 1168.87 1599.51 1169.59L1477.68 1239.93C1475.62 1236.6 1472.73 1233.72 1469.1 1231.61C1457.6 1224.98 1442.98 1228.72 1436.03 1239.93L1319.48 1172.64C1320.29 1171 1320.76 1169.17 1320.76 1167.2C1320.76 1165.24 1320.3 1163.41 1319.47 1161.76L1446.6 1088.36C1448.8 1091.67 1452.55 1093.83 1456.81 1093.84C1461.07 1093.84 1464.82 1091.66 1467.02 1088.38L1467.05 1088.36ZM1763.7 1088.39L1890.85 1161.81C1890.03 1163.45 1889.56 1165.29 1889.56 1167.25C1889.56 1169.21 1890.03 1171.04 1890.85 1172.69L1763.71 1246.1C1762.7 1244.57 1761.34 1243.24 1759.64 1242.26C1754 1239 1746.87 1240.75 1743.32 1246.09L1610.84 1169.58C1611.13 1168.85 1611.3 1168.05 1611.31 1167.22C1611.31 1166.39 1611.13 1165.58 1610.83 1164.86L1743.28 1088.38C1745.48 1091.68 1749.23 1093.85 1753.49 1093.86C1757.75 1093.86 1761.49 1091.68 1763.7 1088.39ZM1604.38 1173.29L1604.4 1326.29C1598 1326.7 1592.92 1332.01 1592.92 1338.52C1592.92 1340.48 1593.38 1342.31 1594.21 1343.96L1467.08 1417.36C1465.02 1414.26 1461.58 1412.17 1457.65 1411.92L1457.63 1277.35C1465.82 1277.08 1473.68 1272.74 1478.08 1265.13C1482.47 1257.5 1482.3 1248.52 1478.44 1241.29L1600.31 1170.93C1601.28 1172.2 1602.72 1173.06 1604.38 1173.29ZM1298.35 1674.3L1165.88 1597.8C1166.17 1597.07 1166.36 1596.27 1166.35 1595.44C1166.34 1592.32 1164.01 1589.78 1160.99 1589.38L1160.98 1436.37C1164.91 1436.12 1168.35 1434.03 1170.41 1430.93L1297.56 1504.36C1294.71 1510.11 1296.77 1517.16 1302.41 1520.41C1304.11 1521.39 1305.93 1521.91 1307.76 1522.02L1307.77 1668.86C1303.84 1669.11 1300.41 1671.2 1298.35 1674.3ZM858.727 1762.99L726.228 1686.48C727.044 1684.84 727.512 1683 727.513 1681.04C727.514 1679.08 727.048 1677.25 726.223 1675.6L856.023 1600.66C857.687 1603.04 860.439 1604.6 863.565 1604.6C866.69 1604.59 869.443 1603.04 871.107 1600.66L1000.93 1675.62C1000.12 1677.26 999.648 1679.1 999.647 1681.06C999.646 1683.02 1000.11 1684.85 1000.94 1686.5L868.467 1762.98C867.996 1762.36 867.378 1761.81 866.648 1761.39C863.952 1759.83 860.571 1760.58 858.727 1762.99ZM556.721 1759.88L426.896 1684.92C427.453 1683.73 427.771 1682.41 427.771 1681.01C427.77 1679.61 427.448 1678.3 426.888 1677.12L556.688 1602.18C558.882 1605.48 562.633 1607.65 566.896 1607.65C571.159 1607.65 574.9 1605.47 577.103 1602.19L704.253 1675.6C703.438 1677.24 702.969 1679.08 702.968 1681.04C702.968 1683 703.434 1684.84 704.258 1686.48L577.115 1759.89C576.109 1758.37 574.745 1757.03 573.047 1756.05C567.409 1752.8 560.272 1754.54 556.721 1759.88ZM716.013 1668.82L715.997 1528.11C722.065 1527.84 727.883 1524.59 731.151 1518.95C734.411 1513.29 734.325 1506.63 731.517 1501.24L858.687 1427.82C859.657 1429.09 861.104 1429.95 862.764 1430.17L862.776 1586.26C858.063 1586.66 854.351 1590.6 854.361 1595.41C854.362 1596.82 854.692 1598.14 855.231 1599.32L725.431 1674.26C723.375 1671.17 719.935 1669.07 715.999 1668.82L716.013 1668.82ZM1030.03 1349.86L1149.22 1418.68C1148.41 1420.32 1147.94 1422.16 1147.94 1424.12C1147.93 1426.08 1148.4 1427.92 1149.23 1429.56L1022.08 1502.97C1021.08 1501.45 1019.71 1500.11 1018.01 1499.13C1012.38 1495.88 1005.24 1497.62 1001.69 1502.96L869.21 1426.45C869.508 1425.72 869.676 1424.92 869.682 1424.09C869.68 1423.25 869.507 1422.45 869.212 1421.72L993.712 1349.84C997.508 1355.89 1004.22 1359.91 1011.88 1359.91C1019.54 1359.91 1026.24 1355.88 1030.03 1349.84L1030.03 1349.86ZM864.331 1586.24L864.319 1430.16C865.981 1429.95 867.435 1429.08 868.392 1427.81L1000.89 1504.32C998.041 1510.07 1000.11 1517.13 1005.74 1520.37C1007.43 1521.35 1009.26 1521.87 1011.09 1521.98L1011.1 1668.82C1007.17 1669.07 1003.73 1671.15 1001.67 1674.26L871.869 1599.3C872.426 1598.11 872.745 1596.8 872.744 1595.39C872.747 1590.57 869.036 1586.64 864.331 1586.24ZM1012.67 1668.83L1012.66 1521.99C1016.61 1521.74 1020.36 1519.57 1022.49 1515.88C1024.62 1512.19 1024.62 1507.86 1022.85 1504.3L1149.98 1430.91C1152.04 1434 1155.48 1436.1 1159.41 1436.34L1159.43 1589.35C1156.42 1589.74 1154.07 1592.28 1154.08 1595.4C1154.08 1596.25 1154.26 1597.05 1154.55 1597.78L1022.09 1674.25C1020.04 1671.16 1016.6 1669.06 1012.66 1668.81L1012.67 1668.83ZM1318.73 1345.28L1445.88 1418.7C1445.06 1420.34 1444.6 1422.19 1444.59 1424.13C1444.59 1426.09 1445.06 1427.93 1445.88 1429.58L1318.74 1502.98C1317.73 1501.46 1316.37 1500.12 1314.67 1499.14C1309.03 1495.89 1301.9 1497.63 1298.35 1502.98L1171.19 1429.54C1172 1427.9 1172.46 1426.06 1172.47 1424.11C1172.47 1422.15 1172.01 1420.31 1171.18 1418.67L1298.33 1345.26C1300.52 1348.56 1304.27 1350.73 1308.53 1350.73C1312.8 1350.74 1316.54 1348.56 1318.73 1345.26L1318.73 1345.28ZM1444.58 1274.09C1448.22 1276.18 1452.15 1277.24 1456.07 1277.37L1456.08 1411.92C1452.15 1412.18 1448.71 1414.26 1446.66 1417.37L1319.51 1343.95C1320.32 1342.31 1320.78 1340.46 1320.79 1338.51C1320.79 1332 1315.71 1326.7 1309.31 1326.29L1309.3 1179.45C1313.23 1179.2 1316.66 1177.11 1318.72 1174.01L1435.26 1241.31C1429.02 1252.93 1433.09 1267.49 1444.6 1274.12L1444.58 1274.09ZM1307.72 1179.41L1307.74 1326.25C1301.34 1326.65 1296.26 1331.96 1296.26 1338.47C1296.26 1340.43 1296.72 1342.26 1297.55 1343.91L1170.4 1417.32C1168.35 1414.22 1164.91 1412.13 1160.97 1411.88L1160.96 1265.04C1164.91 1264.79 1168.66 1262.63 1170.79 1258.94C1172.92 1255.24 1172.92 1250.91 1171.16 1247.36L1298.29 1173.96C1300.34 1177.05 1303.78 1179.15 1307.72 1179.4L1307.72 1179.41ZM1154.04 1263.44C1155.74 1264.42 1157.57 1264.93 1159.4 1265.05L1159.41 1411.88C1155.48 1412.14 1152.04 1414.23 1149.98 1417.33L1030.81 1348.51C1032.4 1345.51 1033.32 1342.1 1033.31 1338.45C1033.31 1326.86 1024.12 1317.45 1012.64 1317.03L1012.62 1179.38C1016.56 1179.12 1019.99 1177.03 1022.05 1173.94L1149.21 1247.37C1146.36 1253.12 1148.41 1260.16 1154.05 1263.42L1154.04 1263.44ZM699.711 1499.87L577.865 1429.51C578.681 1427.87 579.149 1426.03 579.15 1424.07C579.151 1422.11 578.685 1420.27 577.86 1418.63L704.99 1345.23C707.184 1348.53 710.935 1350.7 715.198 1350.7C719.461 1350.7 723.203 1348.53 725.405 1345.24L857.875 1421.74C857.577 1422.47 857.396 1423.27 857.403 1424.1C857.411 1424.92 857.579 1425.74 857.874 1426.47L730.73 1499.88C729.19 1497.46 727.067 1495.34 724.4 1493.8C715.828 1488.86 704.948 1491.6 699.697 1499.88L699.711 1499.87ZM408.358 1502.91L281.2 1429.48C282.015 1427.84 282.484 1426 282.485 1424.04C282.486 1422.08 282.02 1420.25 281.195 1418.6L400.368 1349.8C404.164 1355.84 410.874 1359.86 418.534 1359.87C426.195 1359.87 432.895 1355.84 436.69 1349.8L555.882 1418.62C555.067 1420.26 554.598 1422.09 554.598 1424.06C554.597 1426.02 555.063 1427.85 555.887 1429.5L428.744 1502.9C427.738 1501.38 426.375 1500.04 424.676 1499.07C419.038 1495.81 411.901 1497.56 408.35 1502.9L408.358 1502.91ZM567.65 1411.84L567.639 1261.93C570.533 1261.68 573.255 1260.07 574.823 1257.37C576.39 1254.66 576.409 1251.49 575.176 1248.85L704.963 1173.92C707.018 1177.01 710.459 1179.11 714.394 1179.36L714.409 1326.19C708.007 1326.6 702.927 1331.91 702.927 1338.42C702.926 1340.38 703.392 1342.21 704.217 1343.86L577.087 1417.26C575.031 1414.16 571.591 1412.07 567.656 1411.82L567.65 1411.84ZM873.707 1088.29L1000.86 1161.71C1000.04 1163.35 999.573 1165.19 999.573 1167.15C999.572 1169.11 1000.04 1170.94 1000.86 1172.59L871.062 1247.53C870.314 1246.45 869.33 1245.53 868.116 1244.83C863.939 1242.42 858.683 1243.65 855.979 1247.53L726.167 1172.56C726.983 1170.92 727.452 1169.08 727.452 1167.12C727.453 1165.16 726.987 1163.33 726.162 1161.68L853.292 1088.28C855.486 1091.58 859.237 1093.75 863.501 1093.76C867.764 1093.76 871.505 1091.58 873.707 1088.29ZM715.979 1326.21L715.965 1179.37C719.898 1179.11 723.331 1177.02 725.391 1173.92L855.195 1248.89C853.184 1253.16 854.745 1258.35 858.915 1260.75C860.129 1261.45 861.429 1261.83 862.733 1261.94L862.746 1418.03C861.083 1418.23 859.642 1419.1 858.673 1420.38L726.173 1343.86C726.989 1342.22 727.45 1340.37 727.458 1338.43C727.458 1331.92 722.381 1326.61 715.979 1326.21ZM864.316 1418.04L864.304 1261.95C867.198 1261.7 869.92 1260.1 871.488 1257.39C873.056 1254.69 873.074 1251.51 871.849 1248.89L1001.64 1173.96C1003.69 1177.05 1007.13 1179.15 1011.07 1179.4L1011.08 1317.04C999.593 1317.45 990.399 1326.88 990.398 1338.46C990.393 1342.1 991.303 1345.51 992.906 1348.51L868.393 1420.4C867.423 1419.12 865.976 1418.27 864.316 1418.04ZM1170.37 1088.32L1297.52 1161.74C1296.71 1163.38 1296.25 1165.23 1296.24 1167.17C1296.24 1169.14 1296.7 1170.97 1297.53 1172.62L1170.38 1246.02C1169.38 1244.5 1168.01 1243.16 1166.32 1242.18C1160.68 1238.93 1153.54 1240.68 1149.99 1246.02L1022.83 1172.59C1023.65 1170.95 1024.11 1169.1 1024.12 1167.15C1024.12 1165.19 1023.65 1163.35 1022.83 1161.71L1149.97 1088.3C1152.16 1091.6 1155.92 1093.77 1160.18 1093.77C1164.44 1093.78 1168.18 1091.6 1170.38 1088.3L1170.37 1088.32ZM1305.42 1001.2C1306.15 1001.62 1306.93 1001.87 1307.7 1001.97L1307.71 1154.96C1303.77 1155.22 1300.33 1157.29 1298.28 1160.4L1171.13 1086.98C1171.94 1085.34 1172.41 1083.5 1172.41 1081.55C1172.41 1075.04 1167.34 1069.73 1160.94 1069.33L1160.92 931.679C1168.25 931.421 1174.64 927.48 1178.3 921.643L1302.85 993.564C1301.68 996.362 1302.7 999.671 1305.41 1001.22L1305.42 1001.2ZM1159.38 931.653L1159.39 1069.3C1152.99 1069.71 1147.91 1075.01 1147.91 1081.52C1147.91 1083.48 1148.38 1085.32 1149.2 1086.97L1022.06 1160.37C1020 1157.28 1016.56 1155.18 1012.62 1154.94L1012.61 1001.93C1014.44 1001.7 1016.14 1000.67 1017.14 998.938C1018.14 997.21 1018.18 995.226 1017.46 993.518L1141.98 921.63C1145.65 927.459 1152.02 931.403 1159.36 931.661L1159.38 931.653ZM1008.78 1001.18C1009.51 1001.6 1010.28 1001.85 1011.07 1001.94L1011.08 1154.93C1007.14 1155.19 1003.71 1157.28 1001.65 1160.37L874.499 1086.96C875.314 1085.32 875.783 1083.48 875.784 1081.52C875.783 1075.01 870.706 1069.7 864.305 1069.3L864.29 922.462C868.224 922.205 871.656 920.115 873.717 917.019L1006.22 993.536C1005.04 996.334 1006.09 999.635 1008.79 1001.2L1008.78 1001.18ZM559.335 1247.51L429.51 1172.55C430.325 1170.91 430.794 1169.07 430.795 1167.11C430.796 1165.15 430.329 1163.32 429.505 1161.67L546.035 1094.39C550.361 1101.35 558.056 1105.99 566.854 1106C575.653 1106.01 583.341 1101.36 587.667 1094.4L704.2 1161.7C703.385 1163.34 702.916 1165.18 702.915 1167.14C702.915 1169.1 703.381 1170.93 704.205 1172.58L574.405 1247.52C573.657 1246.44 572.673 1245.51 571.472 1244.81C567.295 1242.4 562.039 1243.63 559.335 1247.51ZM260.024 1245.96L132.866 1172.53C133.682 1170.89 134.15 1169.05 134.151 1167.09C134.152 1165.13 133.686 1163.29 132.861 1161.65L265.345 1085.16C266.458 1086.62 268.219 1087.58 270.2 1087.59C272.182 1087.6 273.945 1086.63 275.057 1085.16L407.556 1161.68C406.741 1163.32 406.272 1165.15 406.272 1167.12C406.271 1169.08 406.737 1170.91 407.561 1172.56L280.418 1245.96C279.412 1244.44 278.048 1243.11 276.35 1242.13C270.712 1238.87 263.575 1240.62 260.024 1245.96ZM419.316 1154.89L419.301 1008.05C423.256 1007.8 427.005 1005.64 429.134 1001.94C431.263 998.251 431.261 993.917 429.499 990.367L561.983 913.877C562.952 915.152 564.399 916.007 566.059 916.235L566.064 1056.98C552.875 1057.4 542.325 1068.19 542.314 1081.47C542.308 1085.66 543.375 1089.6 545.229 1093.06L428.726 1160.32C426.67 1157.23 423.23 1155.13 419.295 1154.88L419.316 1154.89ZM725.373 831.342L852.524 904.76C851.708 906.4 851.239 908.235 851.239 910.196C851.238 912.156 851.704 913.991 852.529 915.638L725.385 989.044C724.38 987.52 723.016 986.186 721.317 985.206C715.68 981.95 708.543 983.697 704.992 989.038L572.513 912.527C572.811 911.798 572.98 910.999 572.986 910.169C572.984 909.324 572.81 908.525 572.515 907.796L704.972 831.322C707.166 834.624 710.917 836.792 715.18 836.795C719.443 836.798 723.184 834.62 725.387 831.334L725.373 831.342ZM567.648 1056.99L567.643 916.238C569.298 916.02 570.76 915.158 571.716 913.887L704.215 990.404C701.365 996.15 703.43 1003.21 709.059 1006.46C710.758 1007.43 712.582 1007.95 714.409 1008.06L714.424 1154.9C710.491 1155.15 707.058 1157.24 704.998 1160.34L588.493 1093.06C590.351 1089.61 591.398 1085.66 591.404 1081.47C591.393 1068.18 580.831 1057.4 567.661 1056.98L567.648 1056.99ZM715.981 1154.92L715.966 1008.08C719.921 1007.83 723.67 1005.66 725.799 1001.97C727.929 998.276 727.926 993.944 726.164 990.393L853.294 916.994C855.35 920.088 858.79 922.184 862.726 922.43L862.74 1069.27C856.339 1069.67 851.258 1074.98 851.258 1081.49C851.258 1083.45 851.724 1085.29 852.548 1086.93L725.405 1160.34C723.349 1157.24 719.909 1155.15 715.973 1154.9L715.981 1154.92ZM1022.04 831.368L1141.21 900.184C1139.62 903.189 1138.71 906.593 1138.7 910.229C1138.7 913.865 1139.61 917.278 1141.21 920.273L1016.72 992.145C1016.25 991.518 1015.65 990.968 1014.92 990.544C1012.22 988.989 1008.84 989.736 1007 992.149L874.499 915.633C875.314 913.993 875.775 912.144 875.784 910.197C875.784 908.236 875.318 906.401 874.493 904.755L1001.64 831.348C1003.83 834.65 1007.58 836.818 1011.85 836.821C1016.11 836.824 1019.85 834.646 1022.04 831.346L1022.04 831.368ZM1154.02 749.556C1155.72 750.536 1157.54 751.048 1159.37 751.161L1159.38 888.81C1152.04 889.076 1145.66 893.009 1142 898.846L1022.81 830.024C1023.62 828.384 1024.09 826.535 1024.09 824.588C1024.09 818.078 1019.02 812.772 1012.61 812.367L1012.6 659.361C1014.25 659.143 1015.72 658.281 1016.67 657.01L1149.17 733.526C1146.32 739.272 1148.38 746.322 1154.02 749.591L1154.02 749.556ZM1011.03 659.329L1011.05 812.335C1004.65 812.74 999.568 818.047 999.568 824.558C999.567 826.518 1000.03 828.353 1000.86 830L873.715 903.406C871.659 900.312 868.219 898.216 864.283 897.97L864.267 757.266C870.335 757 876.154 753.748 879.422 748.103C882.689 742.457 882.582 735.793 879.774 730.4L1006.94 656.978C1007.91 658.253 1009.36 659.108 1011.02 659.337L1011.03 659.329ZM854.291 754.843C856.958 756.378 859.838 757.162 862.713 757.282L862.728 897.987C858.795 898.243 855.362 900.333 853.302 903.429L726.152 830.011C726.967 828.371 727.436 826.536 727.436 824.575C727.436 818.065 722.359 812.759 715.958 812.354L715.942 659.348C717.596 659.131 719.059 658.268 720.015 656.997L847.202 730.448C842.66 739.149 845.722 749.934 854.294 754.877L854.291 754.843ZM408.334 989.026L281.176 915.594C281.992 913.954 282.46 912.119 282.461 910.158C282.462 908.197 281.996 906.362 281.171 904.716L408.301 831.318C410.495 834.619 414.246 836.788 418.509 836.79C422.772 836.793 426.514 834.615 428.716 831.329L561.187 907.826C560.888 908.556 560.707 909.362 560.714 910.185C560.722 911.008 560.89 911.828 561.185 912.557L428.714 989.039C427.709 987.515 426.345 986.181 424.646 985.201C419.009 981.945 411.872 983.692 408.321 989.033L408.334 989.026ZM111.669 989L-15.489 915.568C-14.6736 913.928 -14.2049 912.093 -14.2041 910.132C-14.2034 908.171 -14.6695 906.336 -15.494 904.69L116.99 828.2C118.103 829.662 119.863 830.624 121.845 830.631C123.827 830.638 125.59 829.674 126.702 828.204L259.201 904.721C258.386 906.361 257.917 908.196 257.916 910.157C257.916 912.118 258.382 913.953 259.206 915.599L132.063 989.005C131.057 987.482 129.693 986.147 127.995 985.167C122.357 981.911 115.22 983.658 111.669 989ZM270.961 897.932L270.946 751.094C274.901 750.843 278.65 748.678 280.779 744.985C282.908 741.292 282.906 736.959 281.144 733.408L400.317 664.603C403.975 670.441 410.365 674.377 417.706 674.635L417.72 812.283C411.318 812.688 406.237 817.995 406.238 824.505C406.237 826.466 406.703 828.301 407.528 829.947L280.398 903.346C278.342 900.252 274.902 898.156 270.966 897.91L270.961 897.932ZM577.018 574.383L709.489 650.88C709.191 651.61 709.022 652.409 709.016 653.239C709.018 654.083 709.192 654.882 709.487 655.611L577.017 732.093C576.011 730.569 574.647 729.235 572.949 728.255C567.311 724.999 560.174 726.746 556.623 732.087L437.444 663.257C439.035 660.252 439.947 656.848 439.952 653.213C439.957 649.577 439.047 646.163 437.443 643.168L556.603 574.371C558.797 577.673 562.548 579.842 566.811 579.844C571.075 579.847 574.816 577.669 577.018 574.383ZM419.29 812.294L419.277 674.645C426.608 674.387 432.999 670.446 436.66 664.609L555.86 733.445C553.01 739.191 555.074 746.254 560.704 749.496C562.403 750.476 564.227 750.988 566.054 751.101L566.07 904.108C564.408 904.312 562.967 905.18 561.997 906.459L429.498 829.942C430.313 828.303 430.774 826.454 430.783 824.506C430.782 817.996 425.705 812.691 419.304 812.286L419.29 812.294ZM567.627 904.126L567.611 751.12C571.566 750.869 575.315 748.704 577.444 745.011C579.573 741.318 579.571 736.985 577.809 733.434L710.293 656.945C711.262 658.219 712.709 659.075 714.369 659.303L714.385 812.309C707.984 812.714 702.902 818.021 702.903 824.531C702.902 826.492 703.369 828.327 704.193 829.974L571.709 906.463C570.74 905.188 569.293 904.333 567.633 904.105L567.627 904.126ZM873.683 574.409L1006.15 650.907C1005.86 651.636 1005.69 652.435 1005.68 653.265C1005.68 654.11 1005.86 654.909 1006.15 655.637L879.009 729.044C877.468 726.624 875.345 724.505 872.678 722.969C864.106 718.026 853.227 720.764 847.976 729.048L720.81 655.603C721.108 654.873 721.276 654.074 721.282 653.244C721.288 652.413 721.114 651.614 720.812 650.872L853.268 574.398C855.462 577.699 859.214 579.868 863.477 579.87C867.74 579.873 871.481 577.695 873.675 574.396L873.683 574.409ZM1008.73 487.285C1009.46 487.709 1010.24 487.963 1011.01 488.056L1011.02 647.217C1009.36 647.421 1007.92 648.289 1006.95 649.568L874.446 573.052C875.261 571.412 875.722 569.563 875.731 567.616C875.73 561.105 870.653 555.8 864.252 555.395L864.237 408.557C868.171 408.3 871.603 406.211 873.664 403.115L1006.16 479.631C1004.99 482.43 1006.02 485.738 1008.73 487.285ZM862.68 408.539L862.695 555.377C856.294 555.781 851.212 561.089 851.213 567.599C851.212 569.56 851.679 571.395 852.503 573.041L720.019 649.53C719.05 648.256 717.603 647.401 715.943 647.172L715.928 503.356C723.056 503.089 729.896 499.302 733.739 492.659C737.568 486.024 737.44 478.202 734.102 471.892L853.276 403.088C855.331 406.181 858.771 408.278 862.707 408.523L862.68 408.539ZM704.407 500.529C707.558 502.343 710.969 503.269 714.368 503.393L714.388 647.189C712.733 647.406 711.271 648.269 710.315 649.54L577.816 573.023C578.631 571.384 579.1 569.548 579.1 567.587C579.1 561.077 574.023 555.772 567.622 555.367L567.607 408.529C571.54 408.272 574.973 406.182 577.033 403.086L696.226 471.909C690.837 482.07 694.41 494.737 704.442 500.527L704.407 500.529ZM259.971 732.053L143.446 664.767C145.304 661.32 146.35 657.371 146.356 653.177C146.362 648.983 145.295 645.049 143.441 641.587L259.944 574.324C262.138 577.626 265.889 579.794 270.152 579.797C274.415 579.8 278.156 577.622 280.359 574.336L399.53 643.152C397.939 646.157 397.027 649.561 397.022 653.197C397.017 656.833 397.927 660.246 399.531 663.241L280.371 732.038C279.365 730.514 278.001 729.18 276.303 728.2C270.665 724.944 263.528 726.691 259.977 732.032L259.971 732.053ZM-36.6939 732.027L-163.852 658.596C-163.037 656.956 -162.568 655.121 -162.567 653.16C-162.566 651.199 -163.032 649.364 -163.857 647.718L-34.0569 572.778C-32.3926 575.162 -29.6407 576.721 -26.5154 576.715C-23.3901 576.709 -20.6369 575.155 -18.9731 572.774L100.198 641.59C98.3402 645.037 97.2938 648.986 97.2878 653.18C97.2817 657.374 98.3485 661.309 100.203 664.77L-16.3002 732.033C-17.3057 730.509 -18.6697 729.175 -20.3681 728.195C-26.0058 724.939 -33.1428 726.686 -36.6939 732.027ZM122.6 628.693L122.583 494.122C126.538 493.871 130.287 491.706 132.416 488.013C134.545 484.32 134.543 479.987 132.781 476.436L259.911 403.037C261.967 406.131 265.407 408.227 269.342 408.473L269.357 555.311C262.955 555.716 257.875 561.023 257.875 567.533C257.874 569.494 258.34 571.329 259.165 572.975L142.635 640.254C138.434 633.507 131.058 628.953 122.592 628.679L122.6 628.693ZM423.306 314.312L555.806 390.829C554.99 392.469 554.521 394.304 554.521 396.265C554.52 398.226 554.986 400.061 555.811 401.707L428.667 475.113C427.662 473.59 426.298 472.255 424.599 471.275C418.961 468.02 411.824 469.766 408.273 475.107L281.115 401.676C281.931 400.036 282.4 398.201 282.4 396.24C282.401 394.279 281.935 392.444 281.11 390.798L413.594 314.308C414.715 315.783 416.468 316.732 418.45 316.739C420.445 316.738 422.187 315.768 423.306 314.312ZM270.92 555.308L270.905 408.47C274.838 408.213 278.271 406.124 280.331 403.028L407.49 476.459C404.64 482.205 406.704 489.269 412.334 492.511C414.032 493.49 415.856 494.002 417.684 494.116L417.697 631.764C410.366 632.022 403.975 635.964 400.314 641.8L281.121 572.978C281.937 571.338 282.398 569.49 282.406 567.542C282.406 561.032 277.329 555.726 270.927 555.321L270.92 555.308ZM419.254 631.783L419.248 494.148C423.203 493.897 426.952 491.732 429.081 488.039C431.211 484.346 431.208 480.013 429.446 476.462L556.576 403.064C558.632 406.157 562.072 408.254 566.007 408.499L566.022 555.337C559.621 555.742 554.54 561.049 554.54 567.559C554.539 569.52 555.006 571.355 555.83 573.001L436.657 641.806C432.985 635.977 426.609 632.033 419.267 631.775L419.254 631.783ZM725.299 317.431L852.449 390.849C851.634 392.489 851.173 394.338 851.165 396.285C851.164 398.246 851.63 400.081 852.455 401.727L733.295 470.524C731.489 467.646 728.988 465.151 725.85 463.33C715.819 457.54 703.058 460.788 696.959 470.532L577.759 401.696C578.575 400.056 579.036 398.208 579.044 396.26C579.045 394.3 578.579 392.464 577.754 390.818L704.898 317.412C707.092 320.714 710.843 322.882 715.106 322.885C719.369 322.887 723.11 320.709 725.305 317.41L725.299 317.431ZM851.153 246.244C854.788 248.336 858.723 249.391 862.645 249.519L862.654 384.076C858.713 384.32 855.28 386.409 853.228 389.519L726.077 316.101C726.893 314.461 727.354 312.612 727.362 310.665C727.362 304.155 722.285 298.849 715.883 298.444L715.869 151.606C719.802 151.349 723.235 149.26 725.295 146.164L841.829 213.464C835.592 225.086 839.663 239.641 851.168 246.271L851.153 246.244ZM714.296 151.561L714.311 298.399C707.909 298.803 702.828 304.111 702.829 310.621C702.828 312.582 703.294 314.417 704.119 316.063L576.975 389.469C574.92 386.376 571.48 384.279 567.544 384.034L567.529 237.196C571.484 236.945 575.233 234.78 577.362 231.087C579.491 227.394 579.489 223.061 577.727 219.51L704.857 146.112C706.912 149.205 710.352 151.302 714.288 151.547L714.296 151.561ZM560.616 235.594C562.315 236.574 564.139 237.085 565.967 237.199L565.981 384.037C562.048 384.294 558.615 386.383 556.555 389.479L424.084 312.982C424.382 312.252 424.564 311.446 424.557 310.623C424.55 307.497 422.221 304.958 419.211 304.573L419.208 157.692C425.409 157.439 430.812 154.122 433.935 149.19L555.78 219.556C552.93 225.302 554.987 232.352 560.624 235.607L560.616 235.594ZM111.595 475.089L-15.5632 401.658C-14.7478 400.018 -14.2791 398.182 -14.2783 396.222C-14.2776 394.261 -14.7438 392.426 -15.5683 390.78L116.916 314.29C118.029 315.751 119.789 316.714 121.771 316.72C123.753 316.727 125.516 315.763 126.628 314.294L259.127 390.811C258.312 392.45 257.843 394.286 257.842 396.247C257.841 398.207 258.307 400.042 259.132 401.689L131.989 475.095C130.983 473.571 129.619 472.237 127.921 471.257C122.283 468.001 115.146 469.748 111.595 475.089ZM-193.028 470.467L-312.228 401.631C-311.413 399.992 -310.944 398.156 -310.943 396.196C-310.943 394.235 -311.409 392.4 -312.233 390.754L-185.103 317.355C-182.91 320.657 -179.158 322.825 -174.895 322.828C-170.632 322.83 -166.891 320.652 -164.688 317.366L-37.5382 390.785C-38.3536 392.424 -38.8223 394.26 -38.8231 396.22C-38.8238 398.181 -38.3577 400.016 -37.5331 401.663L-156.693 470.46C-158.499 467.581 -161 465.087 -164.137 463.265C-174.169 457.475 -186.93 460.724 -193.028 470.467ZM-25.7573 384.001L-25.7686 234.086C-22.8742 233.835 -20.1522 232.228 -18.5845 229.524C-17.0167 226.821 -16.9983 223.645 -18.2311 221.011L111.556 146.079C113.611 149.172 117.051 151.269 120.987 151.514L121.003 304.521C117.991 304.91 115.646 307.451 115.653 310.577C115.655 311.421 115.828 312.22 116.123 312.949L-16.3335 389.423C-18.3893 386.329 -21.8293 384.233 -25.7651 383.987L-25.7573 384.001ZM280.3 60.4523L402.138 130.805C400.805 133.355 400.044 136.24 400.041 139.317C400.037 142.395 400.804 145.28 402.136 147.837L280.306 218.176C279.301 216.652 277.937 215.317 276.238 214.338C270.601 211.082 263.464 212.829 259.913 218.17L132.755 144.738C133.57 143.099 134.039 141.263 134.039 139.303C134.04 137.342 133.574 135.507 132.749 133.861L259.879 60.462C262.073 63.7635 265.825 65.932 270.088 65.9347C274.351 65.9374 278.092 63.7594 280.294 60.4735L280.3 60.4523ZM122.573 304.531L122.558 151.525C126.491 151.268 129.924 149.179 131.984 146.083L259.142 219.514C256.292 225.26 258.356 232.323 263.986 235.566C265.685 236.545 267.508 237.057 269.336 237.171L269.351 384.009C265.417 384.265 261.985 386.355 259.924 389.451L127.454 312.954C127.752 312.224 127.92 311.426 127.926 310.595C127.927 307.483 125.59 304.929 122.581 304.545L122.573 304.531ZM270.908 384.027L270.893 237.189C274.848 236.938 278.597 234.774 280.726 231.08C282.855 227.387 282.853 223.054 281.091 219.503L402.907 149.173C406.036 154.093 411.44 157.411 417.638 157.682L417.654 304.554C414.643 304.944 412.298 307.485 412.304 310.611C412.306 311.455 412.48 312.254 412.775 312.983L280.318 389.457C278.262 386.363 274.822 384.267 270.887 384.021L270.908 384.027ZM576.965 60.4783L704.116 133.896C703.3 135.536 702.839 137.385 702.831 139.332C702.83 141.293 703.296 143.128 704.121 144.774L576.977 218.181C575.972 216.657 574.608 215.322 572.909 214.342C567.272 211.087 560.134 212.833 556.583 218.175L434.738 147.809C436.07 145.259 436.832 142.374 436.835 139.296C436.839 136.219 436.072 133.334 434.739 130.776L556.556 60.4456C558.75 63.7471 562.501 65.9156 566.764 65.9183C571.027 65.9209 574.768 63.743 576.963 60.4435L576.965 60.4783ZM712.012 -26.6454C712.742 -26.2217 713.518 -25.9681 714.291 -25.875L714.299 127.118C710.358 127.361 706.925 129.451 704.872 132.56L577.722 59.142C578.538 57.5022 578.999 55.6534 579.007 53.7061C579.006 47.196 573.929 41.8902 567.528 41.4854L567.513 -105.352C571.447 -105.609 574.88 -107.699 576.94 -110.795L709.44 -34.2784C708.268 -31.4799 709.297 -28.1712 712.006 -26.624L712.012 -26.6454ZM565.962 -105.392L565.977 41.4459C559.575 41.8505 554.494 47.158 554.495 53.6682C554.494 55.629 554.96 57.464 555.785 59.1102L433.955 129.449C430.827 124.529 425.422 121.21 419.211 120.947L419.195 -19.757C423.15 -20.008 426.899 -22.1725 429.028 -25.8657C431.158 -29.5589 431.155 -33.8919 429.393 -37.4426L556.523 -110.841C558.579 -107.748 562.019 -105.651 565.955 -105.406L565.962 -105.392ZM-461.239 646.325C-463.295 643.232 -466.735 641.135 -470.671 640.89L-470.685 494.052C-466.731 493.801 -462.982 491.636 -460.852 487.943C-458.723 484.25 -458.725 479.917 -460.488 476.366L-333.358 402.968C-331.302 406.061 -327.862 408.158 -323.926 408.403L-323.912 555.241C-330.313 555.646 -335.394 560.953 -335.393 567.463C-335.394 569.424 -334.928 571.259 -334.103 572.905L-461.247 646.312L-461.239 646.325ZM-322.355 555.259L-322.369 408.422C-318.436 408.165 -315.003 406.075 -312.943 402.979L-193.75 471.801C-199.14 481.963 -195.566 494.63 -185.535 500.42C-182.384 502.234 -178.972 503.16 -175.574 503.284L-175.555 640.911C-179.496 641.154 -182.929 643.244 -184.981 646.353L-312.132 572.935C-311.316 571.295 -310.855 569.447 -310.847 567.499C-310.847 560.989 -315.924 555.683 -322.326 555.279L-322.355 555.259ZM-302.277 725.854C-304.339 722.531 -307.227 719.648 -310.856 717.535C-322.356 710.883 -336.977 714.648 -343.935 725.86L-460.469 658.56C-459.653 656.92 -459.192 655.071 -459.184 653.124C-459.175 651.177 -459.649 649.328 -460.474 647.682L-333.33 574.276C-331.137 577.577 -327.385 579.746 -323.122 579.748C-318.859 579.751 -315.118 577.573 -312.915 574.287L-185.765 647.705C-186.581 649.345 -187.049 651.18 -187.05 653.141C-187.051 655.102 -186.585 656.937 -185.76 658.583L-302.263 725.846L-302.277 725.854ZM-164.587 646.359C-166.643 643.266 -170.083 641.169 -174.019 640.924L-174.032 503.275C-166.904 503.008 -160.051 499.213 -156.222 492.578C-152.392 485.943 -152.528 478.109 -155.866 471.799L-36.6926 402.994C-34.6369 406.087 -31.1968 408.184 -27.2611 408.429L-27.2499 558.345C-31.9631 558.746 -35.675 562.687 -35.6647 567.501C-35.6641 568.904 -35.3336 570.224 -34.7952 571.406L-164.595 646.346L-164.587 646.359ZM-25.6929 558.363L-25.7042 408.448C-21.7707 408.191 -18.338 406.101 -16.2776 403.005L110.88 476.437C108.03 482.183 110.095 489.246 115.724 492.488C117.423 493.468 119.247 493.98 121.074 494.093L121.078 628.672C112.603 628.943 105.23 633.488 101.038 640.242L-18.1622 571.406C-17.6055 570.222 -17.287 568.905 -17.2876 567.502C-17.2844 562.68 -20.9955 558.744 -25.7007 558.349L-25.6929 558.363ZM-312.884 903.284C-314.94 900.19 -318.38 898.094 -322.316 897.848L-322.332 763.277C-314.144 763.01 -306.277 758.666 -301.878 751.055C-297.488 743.43 -297.658 734.446 -301.525 727.218L-185.008 659.948C-182.953 663.041 -179.513 665.137 -175.577 665.383L-175.562 812.221C-181.963 812.626 -187.045 817.933 -187.044 824.443C-187.045 826.404 -186.579 828.239 -185.754 829.885L-312.884 903.284ZM-173.999 812.218L-174.014 665.38C-170.081 665.123 -166.648 663.034 -164.588 659.938L-37.4295 733.369C-40.2795 739.115 -38.2232 746.165 -32.5855 749.421C-30.8871 750.401 -29.0632 750.912 -27.2354 751.026L-27.2208 897.864C-31.1621 898.107 -34.5947 900.197 -36.6474 903.306L-163.798 829.888C-162.982 828.248 -162.521 826.4 -162.513 824.452C-162.513 817.942 -167.591 812.636 -173.992 812.232L-173.999 812.218ZM-169.875 992.024C-170.346 991.396 -170.964 990.854 -171.694 990.43C-174.39 988.875 -177.771 989.622 -179.614 992.035L-312.114 915.518C-311.298 913.879 -310.837 912.03 -310.829 910.083C-310.82 908.135 -311.294 906.287 -312.119 904.641L-184.975 831.234C-182.781 834.536 -179.03 836.704 -174.767 836.707C-170.504 836.71 -166.763 834.532 -164.56 831.246L-37.41 904.664C-38.2254 906.304 -38.6941 908.139 -38.6948 910.1C-38.6956 912.06 -38.2294 913.896 -37.4049 915.542L-169.875 992.024ZM-16.2189 903.31C-18.2746 900.216 -21.7146 898.12 -25.6504 897.874L-25.665 751.037C-21.7103 750.786 -17.9612 748.621 -15.832 744.928C-13.7028 741.235 -13.7051 736.902 -15.4674 733.351L101.049 666.08C105.25 672.827 112.626 677.381 121.092 677.655L121.096 818.402C118.085 818.792 115.74 821.333 115.746 824.458C115.748 825.302 115.922 826.101 116.217 826.83L-16.2401 903.304L-16.2189 903.31ZM122.667 818.412L122.662 677.665C131.137 677.395 138.51 672.85 142.702 666.095L259.236 733.395C256.386 739.141 258.45 746.205 264.08 749.447C265.778 750.427 267.602 750.938 269.43 751.052L269.444 897.89C265.511 898.147 262.07 900.223 260.018 903.332L127.547 826.835C127.845 826.105 128.027 825.299 128.033 824.468C128.034 821.356 125.697 818.803 122.688 818.418L122.667 818.412ZM-164.529 1160.24C-166.585 1157.15 -170.025 1155.05 -173.96 1154.81L-173.976 1001.8C-172.148 1001.57 -170.445 1000.54 -169.446 998.808C-168.448 997.081 -168.407 995.096 -169.123 993.388L-36.6397 916.898C-34.5839 919.992 -31.1439 922.088 -27.2081 922.334L-27.1935 1069.17C-33.5948 1069.58 -38.676 1074.88 -38.6753 1081.39C-38.6761 1083.35 -38.2099 1085.19 -37.3854 1086.84L-164.529 1160.24ZM-25.6443 1069.18L-25.659 922.339C-21.7255 922.082 -18.2929 919.992 -16.2324 916.896L110.926 990.328C108.076 996.074 110.132 1003.12 115.77 1006.38C117.468 1007.36 119.292 1007.87 121.12 1007.98L121.134 1154.82C117.193 1155.07 113.76 1157.16 111.708 1160.26L-15.4425 1086.85C-14.6271 1085.21 -14.1661 1083.36 -14.1576 1081.41C-14.1582 1074.9 -19.2353 1069.6 -25.6365 1069.19L-25.6443 1069.18ZM-10.8799 1242.84C-12.4207 1240.42 -14.5434 1238.3 -17.2102 1236.76C-25.7819 1231.82 -36.6617 1234.56 -41.9127 1242.84L-163.759 1172.48C-162.943 1170.84 -162.482 1168.99 -162.474 1167.04C-162.465 1165.09 -162.939 1163.25 -163.764 1161.6L-36.6201 1088.19C-34.4263 1091.49 -30.6749 1093.66 -26.4119 1093.67C-22.1488 1093.67 -18.4076 1091.49 -16.2051 1088.2L110.945 1161.62C110.13 1163.26 109.661 1165.1 109.66 1167.06C109.66 1169.02 110.126 1170.85 110.95 1172.5L-10.8799 1242.84ZM132.123 1160.28C130.067 1157.18 126.627 1155.09 122.691 1154.84L122.677 1008C126.631 1007.75 130.38 1005.59 132.51 1001.89C134.639 998.201 134.637 993.868 132.874 990.317L260.004 916.919C262.06 920.012 265.5 922.109 269.436 922.354L269.451 1075.36C266.44 1075.75 264.095 1078.29 264.101 1081.42C264.103 1082.26 264.277 1083.06 264.572 1083.79L132.115 1160.26L132.123 1160.28ZM271.008 1075.38L270.993 922.373C274.926 922.116 278.359 920.026 280.419 916.93L407.577 990.362C404.727 996.108 406.791 1003.17 412.421 1006.41C414.12 1007.39 415.944 1007.9 417.771 1008.02L417.786 1154.86C413.852 1155.11 410.412 1157.19 408.359 1160.3L275.889 1083.8C276.187 1083.07 276.369 1082.27 276.375 1081.43C276.376 1078.32 274.039 1075.77 271.03 1075.38L271.008 1075.38ZM-16.1736 1417.2C-18.2294 1414.11 -21.6694 1412.01 -25.6052 1411.77L-25.6209 1271.06C-19.553 1270.8 -13.7267 1267.56 -10.4668 1261.9C-7.20688 1256.24 -7.29315 1249.58 -10.1011 1244.19L111.716 1173.86C113.771 1176.95 117.211 1179.05 121.147 1179.29L121.162 1326.13C114.76 1326.54 109.679 1331.84 109.68 1338.35C109.679 1340.31 110.145 1342.15 110.97 1343.79L-16.1736 1417.2ZM122.711 1326.14L122.696 1179.3C126.63 1179.04 130.062 1176.95 132.123 1173.86L259.281 1247.29C256.431 1253.03 258.487 1260.08 264.125 1263.34C265.823 1264.32 267.647 1264.83 269.475 1264.94L269.49 1411.78C265.548 1412.02 262.116 1414.11 260.063 1417.22L132.913 1343.81C133.728 1342.17 134.189 1340.32 134.198 1338.37C134.197 1331.86 129.12 1326.55 122.719 1326.15L122.711 1326.14ZM132.149 1502.87C131.143 1501.35 129.779 1500.01 128.08 1499.03C122.443 1495.78 115.306 1497.53 111.755 1502.87L-15.4034 1429.44C-14.588 1427.8 -14.127 1425.95 -14.1185 1424C-14.1099 1422.05 -14.5839 1420.2 -15.4084 1418.56L111.735 1345.15C113.929 1348.45 117.68 1350.62 121.943 1350.62C126.206 1350.63 129.948 1348.45 132.15 1345.16L259.3 1418.58C258.485 1420.22 258.016 1422.06 258.015 1424.02C258.015 1425.98 258.481 1427.81 259.305 1429.46L132.149 1502.87ZM280.478 1417.24C278.422 1414.14 274.982 1412.05 271.046 1411.8L271.032 1264.96C274.987 1264.71 278.736 1262.55 280.865 1258.85C282.994 1255.16 282.992 1250.83 281.229 1247.28L408.359 1173.88C410.415 1176.97 413.855 1179.07 417.791 1179.31L417.804 1316.96C406.317 1317.37 397.123 1326.8 397.122 1338.38C397.117 1342.02 398.027 1345.43 399.63 1348.42L280.47 1417.22L280.478 1417.24ZM419.375 1316.97L419.361 1179.32C423.295 1179.07 426.727 1176.98 428.788 1173.88L558.591 1248.84C556.581 1253.11 558.142 1258.31 562.319 1260.72C563.534 1261.42 564.833 1261.8 566.138 1261.91L566.149 1411.83C562.215 1412.09 558.775 1414.16 556.722 1417.27L437.551 1348.45C439.143 1345.45 440.054 1342.05 440.059 1338.41C440.06 1326.83 430.864 1317.41 419.382 1316.99L419.375 1316.97ZM132.174 1674.15C130.118 1671.05 126.678 1668.96 122.742 1668.71L122.728 1521.87C126.682 1521.62 130.431 1519.46 132.561 1515.76C134.69 1512.07 134.687 1507.74 132.925 1504.19L260.055 1430.79C262.111 1433.88 265.551 1435.98 269.487 1436.22L269.502 1589.23C266.491 1589.62 264.146 1592.16 264.152 1595.29C264.154 1596.13 264.328 1596.93 264.623 1597.66L132.166 1674.13L132.174 1674.15ZM271.059 1589.25L271.044 1436.24C274.977 1435.99 278.41 1433.9 280.47 1430.8L407.628 1504.23C404.778 1509.98 406.834 1517.03 412.472 1520.28C414.171 1521.26 415.994 1521.77 417.822 1521.89L417.834 1671.8C415.036 1672.03 412.585 1673.52 411.077 1675.7L275.94 1597.67C276.238 1596.94 276.42 1596.14 276.426 1595.3C276.427 1592.19 274.09 1589.64 271.073 1589.24L271.059 1589.25ZM280.496 1759.82C279.49 1758.29 278.126 1756.96 276.428 1755.98C270.79 1752.72 263.653 1754.47 260.102 1759.81L132.944 1686.38C133.759 1684.74 134.22 1682.89 134.229 1680.94C134.237 1679 133.764 1677.15 132.939 1675.5L265.423 1599.01C266.536 1600.47 268.296 1601.44 270.278 1601.44C272.26 1601.45 274.015 1600.47 275.135 1599.02L410.301 1677.07C409.744 1678.25 409.426 1679.57 409.426 1680.97C409.427 1682.38 409.75 1683.68 410.309 1684.87L280.496 1759.82ZM426.155 1675.72C424.629 1673.55 422.188 1672.06 419.39 1671.82L419.373 1521.93C423.328 1521.68 427.077 1519.51 429.206 1515.82C431.336 1512.13 431.333 1507.79 429.571 1504.24L556.701 1430.84C558.757 1433.94 562.197 1436.03 566.133 1436.28L566.147 1583.12C559.746 1583.52 554.665 1588.83 554.665 1595.34C554.665 1597.3 555.131 1599.14 555.955 1600.78L426.155 1675.72ZM567.71 1583.11L567.695 1436.28C571.629 1436.02 575.061 1433.93 577.122 1430.83L698.968 1501.2C694.418 1509.89 697.488 1520.69 706.059 1525.63C708.726 1527.17 711.606 1527.95 714.481 1528.07L714.496 1668.77C710.555 1669.02 707.122 1671.11 705.07 1674.22L577.919 1600.8C578.735 1599.16 579.196 1597.31 579.204 1595.36C579.204 1588.85 574.127 1583.55 567.725 1583.14L567.71 1583.11ZM280.529 1931.1C278.473 1928.01 275.033 1925.91 271.097 1925.67L271.083 1778.83C275.038 1778.58 278.787 1776.42 280.916 1772.72C283.045 1769.03 283.043 1764.7 281.28 1761.15L411.08 1686.21C412.607 1688.38 415.047 1689.87 417.845 1690.11L417.856 1840.02C411.455 1840.43 406.374 1845.73 406.375 1852.24C406.374 1854.2 406.84 1856.04 407.664 1857.69L280.521 1931.09L280.529 1931.1ZM419.413 1840.04L419.402 1690.12C422.2 1689.89 424.65 1688.41 426.158 1686.22L555.983 1761.19C553.133 1766.94 555.19 1773.99 560.827 1777.24C562.526 1778.22 564.35 1778.73 566.177 1778.85L566.194 1913.42C557.72 1913.69 550.346 1918.23 546.154 1924.99L429.621 1857.69C430.436 1856.05 430.897 1854.2 430.906 1852.25C430.905 1845.74 425.828 1840.44 419.427 1840.03L419.413 1840.04ZM423.538 2019.84C423.067 2019.22 422.449 2018.67 421.719 2018.25C419.023 2016.7 415.642 2017.44 413.799 2019.86L281.299 1943.34C282.115 1941.7 282.576 1939.85 282.584 1937.9C282.593 1935.96 282.119 1934.11 281.294 1932.46L408.438 1859.06C410.631 1862.36 414.383 1864.53 418.646 1864.53C422.909 1864.53 426.65 1862.35 428.853 1859.07L545.357 1926.35C543.499 1929.79 542.453 1933.74 542.46 1937.93C542.454 1942.12 543.521 1946.06 545.376 1949.52L423.545 2019.86L423.538 2019.84ZM587.807 1925C583.606 1918.26 576.23 1913.7 567.765 1913.43L567.748 1778.86C571.703 1778.61 575.452 1776.44 577.581 1772.75C579.71 1769.06 579.708 1764.72 577.945 1761.17L705.075 1687.77C707.131 1690.87 710.571 1692.96 714.507 1693.21L714.522 1840.05C708.12 1840.45 703.039 1845.76 703.04 1852.27C703.039 1854.23 703.505 1856.06 704.33 1857.71L587.799 1924.99L587.807 1925ZM716.092 1840.06L716.077 1693.22C720.011 1692.96 723.443 1690.87 725.504 1687.78L858.003 1764.29C856.832 1767.09 857.861 1770.4 860.57 1771.95C861.3 1772.37 862.076 1772.63 862.849 1772.72L862.857 1925.71C858.916 1925.95 855.483 1928.04 853.431 1931.15L726.28 1857.74C727.096 1856.1 727.557 1854.25 727.565 1852.3C727.565 1845.79 722.487 1840.48 716.086 1840.08L716.092 1840.06ZM566.233 2096.98C559.831 2097.39 554.75 2102.7 554.751 2109.21C554.75 2111.17 555.216 2113 556.041 2114.65L428.884 2188.06C426.828 2184.97 423.388 2182.87 419.452 2182.63L419.437 2029.62C421.265 2029.39 422.968 2028.36 423.966 2026.63C424.965 2024.9 425.006 2022.92 424.289 2021.21L546.16 1950.85C550.361 1957.59 557.737 1962.15 566.203 1962.42L566.206 2097L566.233 2096.98ZM725.53 2016.8C724.524 2015.27 723.16 2013.94 721.462 2012.96C715.824 2009.7 708.687 2011.45 705.136 2016.79L588.61 1949.5C590.468 1946.06 591.514 1942.11 591.52 1937.91C591.513 1933.73 590.46 1929.78 588.613 1926.34L705.116 1859.07C707.31 1862.38 711.061 1864.54 715.324 1864.55C719.587 1864.55 723.329 1862.37 725.531 1859.09L852.681 1932.5C851.866 1934.14 851.397 1935.98 851.397 1937.94C851.396 1939.9 851.862 1941.74 852.687 1943.38L725.543 2016.79L725.53 2016.8ZM1011.19 1840.09C1004.79 1840.49 999.712 1845.8 999.713 1852.31C999.712 1854.27 1000.18 1856.1 1001 1857.75L873.873 1931.15C871.817 1928.06 868.377 1925.96 864.441 1925.71L864.425 1772.71C866.254 1772.48 867.956 1771.44 868.955 1769.71C869.953 1767.99 869.995 1766 869.278 1764.29L1001.76 1687.81C1003.82 1690.9 1007.26 1693 1011.19 1693.24L1011.21 1840.08L1011.19 1840.09ZM1181.13 1753.75C1179.07 1750.43 1176.18 1747.55 1172.56 1745.45C1161.06 1738.8 1146.43 1742.55 1139.48 1753.77L1022.95 1686.47C1023.76 1684.83 1024.23 1683 1024.23 1681.04C1024.23 1679.08 1023.77 1677.24 1022.94 1675.59L1155.43 1599.11C1156.55 1600.58 1158.3 1601.53 1160.28 1601.54C1162.28 1601.53 1164.02 1600.56 1165.14 1599.11L1297.64 1675.63C1296.82 1677.27 1296.35 1679.1 1296.35 1681.06C1296.35 1683.02 1296.82 1684.86 1297.64 1686.5L1181.14 1753.77L1181.13 1753.75ZM1456.16 1589.36C1453.15 1589.75 1450.8 1592.29 1450.81 1595.41C1450.81 1596.26 1450.98 1597.06 1451.28 1597.78L1318.82 1674.26C1316.77 1671.16 1313.32 1669.07 1309.39 1668.82L1309.37 1521.99C1313.33 1521.73 1317.08 1519.57 1319.21 1515.88C1321.34 1512.18 1321.33 1507.85 1319.57 1504.3L1446.7 1430.9C1448.76 1433.99 1452.2 1436.09 1456.13 1436.34L1456.15 1589.34L1456.16 1589.36ZM1615.45 1503C1614.45 1501.47 1613.08 1500.14 1611.38 1499.16C1605.75 1495.9 1598.61 1497.65 1595.06 1502.99L1467.9 1429.56C1468.72 1427.92 1469.19 1426.09 1469.19 1424.12C1469.19 1422.16 1468.72 1420.33 1467.9 1418.68L1595.03 1345.28C1597.22 1348.59 1600.97 1350.75 1605.23 1350.76C1609.5 1350.76 1613.24 1348.58 1615.44 1345.3L1737.28 1415.65C1735.95 1418.2 1735.18 1421.08 1735.18 1424.16C1735.18 1427.24 1735.94 1430.12 1737.28 1432.68L1615.45 1503.02L1615.45 1503ZM2029.39 1094.51C2033.71 1101.47 2041.41 1106.11 2050.21 1106.12C2059.01 1106.13 2066.69 1101.47 2071.02 1094.51L2187.55 1161.81C2186.74 1163.45 2186.27 1165.29 2186.27 1167.25C2186.27 1169.21 2186.73 1171.05 2187.56 1172.69L2060.41 1246.1C2059.41 1244.58 2058.04 1243.24 2056.35 1242.26C2050.71 1239.01 2043.57 1240.75 2040.02 1246.09L1912.86 1172.66C1913.68 1171.02 1914.15 1169.19 1914.15 1167.23C1914.15 1165.27 1913.68 1163.43 1912.86 1161.78L2029.39 1094.51ZM1891.67 1174.02C1893.73 1177.11 1897.17 1179.21 1901.1 1179.45L1901.12 1326.29C1894.72 1326.69 1889.64 1332 1889.64 1338.51C1889.64 1340.47 1890.1 1342.31 1890.93 1343.95L1769.1 1414.29C1765.97 1409.37 1760.56 1406.05 1754.37 1405.78L1754.35 1265.08C1758.3 1264.83 1762.05 1262.66 1764.18 1258.97C1766.31 1255.28 1766.31 1250.94 1764.55 1247.39L1891.68 1173.99L1891.67 1174.02ZM1747.42 1263.48C1749.12 1264.46 1750.95 1264.98 1752.77 1265.09L1752.79 1405.79C1746.59 1406.05 1741.18 1409.36 1738.06 1414.3L1616.22 1343.93C1617.03 1342.29 1617.49 1340.44 1617.5 1338.49C1617.5 1331.98 1612.42 1326.68 1606.02 1326.27L1606.01 1173.27C1607.66 1173.05 1609.12 1172.19 1610.08 1170.92L1742.58 1247.43C1739.73 1253.18 1741.79 1260.24 1747.42 1263.48ZM2039.97 917.091C2042.02 920.184 2045.46 922.281 2049.4 922.526L2049.4 1057.11C2036.23 1057.52 2025.66 1068.31 2025.65 1081.59C2025.65 1085.78 2026.7 1089.73 2028.57 1093.18L1912.07 1160.44C1910.01 1157.35 1906.57 1155.25 1902.63 1155.01L1902.62 1002C1904.45 1001.77 1906.16 1000.73 1907.15 999.008C1908.15 997.281 1908.19 995.297 1907.47 993.588L2039.95 917.099L2039.97 917.091ZM1898.78 1001.25C1899.51 1001.67 1900.29 1001.92 1901.08 1002.01L1901.08 1155C1897.15 1155.26 1893.72 1157.35 1891.66 1160.44L1764.51 1087.03C1765.32 1085.39 1765.78 1083.54 1765.79 1081.59C1765.79 1075.08 1760.71 1069.77 1754.31 1069.37L1754.3 931.722C1761.65 931.456 1768.02 927.522 1771.68 921.686L1896.23 993.606C1895.05 996.405 1896.08 999.713 1898.79 1001.26L1898.78 1001.25ZM1891.62 831.434C1893.81 834.736 1897.56 836.905 1901.83 836.907C1906.09 836.91 1909.83 834.732 1912.03 831.446L2039.18 904.864C2038.37 906.504 2037.9 908.339 2037.9 910.3C2037.9 912.261 2038.36 914.096 2039.19 915.742L1906.72 992.224C1906.25 991.596 1905.64 991.046 1904.91 990.622C1902.21 989.054 1898.84 989.814 1896.99 992.227L1772.47 920.313C1774.06 917.307 1774.98 913.903 1774.98 910.268C1774.99 906.632 1774.08 903.219 1772.47 900.224L1891.63 831.427L1891.62 831.434ZM1735.35 921.659C1739 927.496 1745.39 931.432 1752.74 931.69L1752.75 1069.34C1746.35 1069.74 1741.27 1075.05 1741.27 1081.56C1741.27 1083.52 1741.73 1085.36 1742.56 1087L1610.07 1163.49C1609.1 1162.22 1607.66 1161.36 1606 1161.13L1605.98 1008.13C1609.94 1007.88 1613.68 1005.71 1615.81 1002.02C1617.94 998.326 1617.94 993.993 1616.18 990.442L1735.35 921.637L1735.35 921.659ZM1599.07 1006.53C1600.77 1007.51 1602.59 1008.02 1604.42 1008.13L1604.43 1161.14C1602.77 1161.34 1601.32 1162.22 1600.36 1163.49L1467.86 1086.97C1468.68 1085.33 1469.14 1083.48 1469.15 1081.54C1469.15 1075.03 1464.07 1069.72 1457.67 1069.31L1457.66 919.4C1460.45 919.169 1462.9 917.669 1464.41 915.499L1594.24 990.466C1591.39 996.212 1593.45 1003.28 1599.08 1006.52L1599.07 1006.53ZM1891.61 660.132C1893.67 663.226 1897.11 665.322 1901.04 665.568L1901.06 812.406C1894.66 812.81 1889.58 818.118 1889.58 824.628C1889.58 826.589 1890.04 828.424 1890.87 830.07L1771.69 898.875C1768.02 893.045 1761.63 889.109 1754.3 888.843L1754.3 751.209C1758.25 750.958 1762 748.793 1764.13 745.1C1766.26 741.407 1766.26 737.074 1764.5 733.523L1891.63 660.124L1891.61 660.132ZM1747.36 749.601C1749.06 750.58 1750.89 751.092 1752.71 751.206L1752.73 888.854C1745.4 889.112 1739.01 893.054 1735.35 898.89L1616.15 830.068C1616.97 828.428 1617.43 826.579 1617.44 824.632C1617.44 818.122 1612.36 812.816 1605.96 812.412L1605.94 659.405C1607.61 659.201 1609.06 658.325 1610.02 657.054L1742.52 733.571C1739.66 739.316 1741.73 746.38 1747.36 749.622L1747.36 749.601ZM1743.28 574.482C1745.48 577.783 1749.23 579.952 1753.49 579.954C1757.76 579.957 1761.5 577.779 1763.7 574.493L1890.85 647.911C1890.03 649.551 1889.57 651.386 1889.57 653.347C1889.56 655.308 1890.03 657.143 1890.86 658.789L1763.71 732.195C1762.71 730.672 1761.34 729.337 1759.64 728.357C1754.01 725.102 1746.87 726.848 1743.32 732.19L1610.84 655.679C1611.14 654.949 1611.31 654.151 1611.31 653.32C1611.32 652.489 1611.14 651.677 1610.84 650.948L1743.3 574.474L1743.28 574.482ZM1600.31 657.029C1601.28 658.303 1602.73 659.159 1604.39 659.387L1604.4 812.393C1598 812.798 1592.92 818.105 1592.92 824.615C1592.92 826.576 1593.39 828.411 1594.21 830.058L1464.41 904.998C1462.88 902.821 1460.44 901.335 1457.64 901.098L1457.63 751.204C1461.58 750.953 1465.33 748.788 1467.46 745.095C1469.59 741.402 1469.59 737.069 1467.83 733.518L1600.3 657.036L1600.31 657.029ZM1450.72 749.58C1452.42 750.56 1454.24 751.072 1456.07 751.186L1456.08 901.101C1453.28 901.331 1450.83 902.818 1449.31 905.009L1316.84 828.512C1317.4 827.327 1317.72 826.01 1317.72 824.608C1317.71 819.794 1314.01 815.85 1309.3 815.455L1309.29 659.371C1310.95 659.153 1312.41 658.291 1313.36 657.02L1445.86 733.537C1443.01 739.283 1445.08 746.346 1450.71 749.588L1450.72 749.58ZM1743.27 403.187C1745.32 406.281 1748.76 408.377 1752.7 408.623L1752.71 555.461C1746.31 555.865 1741.23 561.173 1741.23 567.683C1741.23 569.644 1741.7 571.479 1742.52 573.125L1610.04 649.615C1609.07 648.34 1607.62 647.485 1605.96 647.256L1605.94 494.25C1609.9 493.999 1613.65 491.834 1615.78 488.141C1617.91 484.448 1617.9 480.115 1616.14 476.564L1743.27 403.166L1743.27 403.187ZM1599.02 492.656C1600.72 493.635 1602.54 494.147 1604.37 494.261L1604.38 647.267C1602.72 647.471 1601.28 648.339 1600.31 649.618L1478.44 579.247C1480.3 575.8 1481.35 571.851 1481.35 567.657C1481.35 554.385 1470.78 543.582 1457.61 543.165L1457.61 408.586C1461.54 408.329 1464.97 406.239 1467.03 403.143L1594.19 476.575C1591.34 482.321 1593.41 489.384 1599.04 492.627L1599.02 492.656ZM1594.94 317.537C1597.13 320.838 1600.88 323.006 1605.15 323.009C1609.41 323.012 1613.15 320.834 1615.35 317.548L1742.5 390.966C1741.69 392.606 1741.22 394.441 1741.22 396.402C1741.22 398.363 1741.68 400.198 1742.51 401.844L1615.36 475.25C1614.36 473.727 1612.99 472.392 1611.3 471.412C1605.66 468.157 1598.52 469.903 1594.97 475.245L1467.81 401.813C1468.63 400.173 1469.1 398.338 1469.1 396.377C1469.1 394.416 1468.63 392.581 1467.81 390.935L1594.95 317.529L1594.94 317.537ZM1446.62 403.167C1448.68 406.26 1452.12 408.357 1456.05 408.602L1456.06 543.181C1442.88 543.594 1432.31 554.373 1432.31 567.666C1432.3 571.86 1433.35 575.802 1435.22 579.255L1313.38 649.602C1312.41 648.327 1310.96 647.472 1309.3 647.244L1309.29 494.237C1313.24 493.986 1316.99 491.822 1319.12 488.129C1321.25 484.435 1321.25 480.102 1319.48 476.552L1446.61 403.153L1446.62 403.167ZM1302.37 492.635C1304.07 493.615 1305.9 494.127 1307.72 494.24L1307.74 647.247C1306.08 647.451 1304.62 648.326 1303.67 649.598L1171.17 573.081C1171.98 571.441 1172.44 569.593 1172.45 567.645C1172.45 561.135 1167.37 555.829 1160.97 555.425L1160.96 408.587C1164.89 408.33 1168.32 406.24 1170.38 403.144L1297.54 476.576C1294.69 482.322 1296.76 489.385 1302.39 492.627L1302.37 492.635ZM1594.92 146.242C1596.97 149.336 1600.41 151.432 1604.35 151.678L1604.36 298.515C1597.96 298.92 1592.88 304.228 1592.88 310.738C1592.88 312.699 1593.35 314.534 1594.17 316.18L1467.03 389.586C1464.97 386.493 1461.53 384.396 1457.6 384.151L1457.58 243.446C1463.65 243.18 1469.47 239.929 1472.74 234.283C1476 228.624 1475.9 221.974 1473.09 216.581L1594.92 146.242ZM1447.6 241.009C1450.26 242.545 1453.14 243.328 1456.02 243.449L1456.03 384.154C1452.1 384.41 1448.67 386.5 1446.61 389.596L1319.46 316.178C1320.27 314.538 1320.73 312.689 1320.74 310.742C1320.74 304.232 1315.66 298.926 1309.26 298.521L1309.25 145.515C1310.9 145.297 1312.36 144.435 1313.32 143.164L1440.51 216.614C1435.96 225.302 1439.03 236.101 1447.6 241.044L1447.6 241.009ZM1451.92 57.4945C1453.04 58.9559 1454.8 59.918 1456.78 59.9249C1458.77 59.9239 1460.52 58.9543 1461.63 57.4987L1594.13 134.015C1593.32 135.655 1592.85 137.49 1592.85 139.451C1592.85 141.412 1593.31 143.247 1594.14 144.893L1472.31 215.232C1470.77 212.812 1468.65 210.692 1465.99 209.149C1457.42 204.206 1446.54 206.945 1441.29 215.228L1314.12 141.783C1314.42 141.053 1314.59 140.255 1314.6 139.424C1314.6 138.593 1314.42 137.781 1314.13 137.052L1451.94 57.4867L1451.92 57.4945ZM1303.61 143.125C1304.58 144.4 1306.02 145.255 1307.68 145.483L1307.7 298.489C1301.3 298.894 1296.22 304.201 1296.22 310.712C1296.22 312.672 1296.68 314.508 1297.51 316.154L1170.36 389.56C1168.31 386.466 1164.87 384.37 1160.93 384.124L1160.92 237.287C1164.87 237.036 1168.62 234.871 1170.75 231.178C1172.88 227.484 1172.88 223.152 1171.12 219.601L1303.59 143.119L1303.61 143.125ZM1154.02 235.677C1155.72 236.656 1157.54 237.168 1159.37 237.282L1159.38 384.12C1155.44 384.363 1152.01 386.452 1149.96 389.562L1022.81 316.144C1023.62 314.504 1024.08 312.655 1024.09 310.708C1024.09 304.198 1019.01 298.892 1012.61 298.487L1012.6 151.649C1016.53 151.393 1019.96 149.303 1022.02 146.207L1149.18 219.639C1146.33 225.385 1148.4 232.448 1154.03 235.69L1154.02 235.677ZM1446.56 -110.717C1448.62 -107.623 1452.06 -105.527 1455.99 -105.281L1456.02 47.7385C1453.01 48.1283 1450.66 50.6691 1450.67 53.7948C1450.67 54.639 1450.84 55.438 1451.14 56.1669L1313.33 135.732C1312.36 134.457 1310.91 133.602 1309.25 133.374L1309.24 -22.7099C1312.13 -22.9601 1314.86 -24.5677 1316.42 -27.2713C1317.99 -29.975 1318.01 -33.1508 1316.78 -35.7708L1446.58 -110.711L1446.56 -110.717ZM1303.85 -23.915C1305.06 -23.2133 1306.36 -22.8306 1307.67 -22.7204L1307.68 133.363C1306.02 133.567 1304.58 134.435 1303.61 135.715L1171.11 59.1979C1171.92 57.558 1172.38 55.7092 1172.39 53.7619C1172.39 47.2518 1167.32 41.946 1160.91 41.5413L1160.9 -99.1632C1167.1 -99.4162 1172.5 -102.734 1175.63 -107.666L1300.13 -35.7773C1298.12 -31.5052 1299.68 -26.3097 1303.85 -23.915ZM1298.23 -196.381C1300.42 -193.079 1304.17 -190.911 1308.44 -190.908C1312.7 -190.905 1316.44 -193.084 1318.64 -196.369L1445.79 -122.951C1444.98 -121.312 1444.51 -119.476 1444.51 -117.515C1444.51 -115.555 1444.97 -113.72 1445.8 -112.073L1316 -37.1332C1315.25 -38.2117 1314.27 -39.1366 1313.06 -39.8462C1308.89 -42.2543 1303.63 -41.0181 1300.93 -37.137L1176.44 -109.033C1177.77 -111.583 1178.53 -114.468 1178.53 -117.546C1178.54 -120.623 1177.77 -123.508 1176.44 -126.066L1298.25 -196.396L1298.23 -196.381ZM1144.6 -107.683C1147.73 -102.763 1153.13 -99.4443 1159.33 -99.1738L1159.34 41.5307C1152.94 41.9354 1147.86 47.2429 1147.86 53.753C1147.86 55.7138 1148.33 57.5488 1149.15 59.195L1022.01 132.601C1019.95 129.508 1016.51 127.411 1012.58 127.166L1012.56 -25.8403C1014.39 -26.0685 1016.11 -27.1134 1017.09 -28.8331C1018.09 -30.5606 1018.13 -32.5447 1017.41 -34.2531L1144.58 -107.675L1144.6 -107.683ZM1008.73 -26.5943C1009.46 -26.1706 1010.23 -25.9171 1011.02 -25.8316L1011.03 127.161C1007.09 127.404 1003.65 129.494 1001.6 132.603L874.451 59.1853C875.266 57.5455 875.727 55.6966 875.736 53.7493C875.735 47.2392 870.658 41.9335 864.257 41.5286L864.243 -105.309C868.176 -105.566 871.608 -107.656 873.669 -110.752L1006.17 -34.2351C1005 -31.4366 1006.03 -28.1279 1008.74 -26.5673L1008.73 -26.5943ZM1298.21 -367.675C1300.26 -364.582 1303.7 -362.485 1307.64 -362.24L1307.65 -215.402C1301.25 -214.997 1296.17 -209.69 1296.17 -203.18C1296.17 -201.219 1296.64 -199.384 1297.46 -197.738L1175.63 -127.399C1172.5 -132.319 1167.1 -135.638 1160.89 -135.9L1160.87 -276.605C1164.83 -276.856 1168.58 -279.02 1170.71 -282.713C1172.83 -286.407 1172.83 -290.74 1171.07 -294.29L1298.2 -367.689L1298.21 -367.675ZM1153.96 -278.207C1155.66 -277.227 1157.48 -276.715 1159.31 -276.602L1159.33 -135.897C1153.12 -135.644 1147.72 -132.327 1144.6 -127.395L1022.75 -197.761C1023.57 -199.401 1024.03 -201.249 1024.04 -203.197C1024.04 -209.707 1018.96 -215.013 1012.56 -215.417L1012.55 -353.066C1019.89 -353.332 1026.27 -357.265 1029.93 -363.102L1149.13 -294.266C1146.28 -288.52 1148.34 -281.457 1153.97 -278.215L1153.96 -278.207ZM1149.88 -453.326C1152.07 -450.024 1155.83 -447.856 1160.09 -447.853C1164.35 -447.851 1168.09 -450.029 1170.3 -453.315L1297.45 -379.896C1296.63 -378.257 1296.16 -376.421 1296.16 -374.46C1296.16 -372.5 1296.63 -370.665 1297.45 -369.018L1170.31 -295.612C1169.3 -297.136 1167.94 -298.471 1166.24 -299.45C1160.6 -302.706 1153.46 -300.959 1149.91 -295.618L1030.73 -364.448C1032.33 -367.453 1033.24 -370.857 1033.24 -374.493C1033.25 -378.128 1032.34 -381.542 1030.73 -384.537L1149.89 -453.334L1149.88 -453.326ZM993.607 -363.102C997.265 -357.265 1003.66 -353.328 1011 -353.071L1011.01 -215.422C1004.61 -215.018 999.528 -209.71 999.528 -203.2C999.528 -201.239 999.994 -199.404 1000.82 -197.758L873.675 -124.352C871.619 -127.445 868.179 -129.542 864.243 -129.787L864.232 -279.702C867.126 -279.953 869.848 -281.56 871.416 -284.264C872.984 -286.967 873.002 -290.143 871.77 -292.777L993.599 -363.115L993.607 -363.102ZM858.851 -280.894C860.065 -280.192 861.365 -279.81 862.669 -279.699L862.681 -129.784C858.739 -129.541 855.307 -127.451 853.254 -124.342L726.104 -197.76C726.919 -199.4 727.38 -201.249 727.389 -203.196C727.388 -209.706 722.311 -215.012 715.91 -215.417L715.894 -356.121C722.095 -356.374 727.498 -359.691 730.62 -364.623L855.125 -292.735C853.114 -288.463 854.676 -283.267 858.845 -280.873L858.851 -280.894ZM1012.51 -533.577C1016.46 -533.828 1020.21 -535.992 1022.34 -539.686C1024.47 -543.379 1024.47 -547.712 1022.71 -551.262L1149.84 -624.661C1151.89 -621.567 1155.33 -619.471 1159.27 -619.225L1159.28 -472.388C1152.88 -471.983 1147.8 -466.675 1147.8 -460.165C1147.8 -458.204 1148.27 -456.369 1149.09 -454.723L1029.92 -385.918C1026.25 -391.748 1019.86 -395.684 1012.53 -395.95L1012.52 -533.585L1012.51 -533.577ZM853.199 -453.379C855.393 -450.078 859.144 -447.909 863.407 -447.906C867.671 -447.904 871.412 -450.082 873.614 -453.368L992.785 -384.551C991.194 -381.546 990.282 -378.142 990.277 -374.506C990.273 -370.871 991.183 -367.457 992.786 -364.462L870.956 -294.124C870.207 -295.202 869.216 -296.14 868.009 -296.829C863.846 -299.245 858.576 -298.001 855.872 -294.12L731.381 -366.016C732.714 -368.566 733.475 -371.451 733.479 -374.528C733.482 -377.606 732.716 -380.491 731.383 -383.048L853.199 -453.379ZM567.542 -276.657C571.497 -276.908 575.246 -279.072 577.375 -282.766C579.504 -286.459 579.502 -290.792 577.74 -294.342L699.57 -364.681C702.698 -359.761 708.103 -356.443 714.3 -356.172L714.316 -215.468C707.914 -215.063 702.833 -209.755 702.834 -203.245C702.833 -201.284 703.299 -199.449 704.124 -197.803L576.994 -124.405C574.938 -127.498 571.498 -129.595 567.562 -129.84L567.548 -276.678L567.542 -276.657ZM413.586 -199.55C414.699 -198.089 416.459 -197.127 418.441 -197.12C420.437 -197.121 422.165 -198.083 423.298 -199.546L555.797 -123.03C554.982 -121.39 554.521 -119.541 554.512 -117.594C554.512 -115.633 554.978 -113.798 555.802 -112.152L428.659 -38.7453C427.653 -40.2689 426.289 -41.6037 424.591 -42.5834C418.953 -45.8391 411.816 -44.0925 408.265 -38.7511L281.107 -112.183C281.922 -113.822 282.383 -115.671 282.392 -117.619C282.393 -119.579 281.927 -121.414 281.102 -123.061L413.586 -199.55ZM122.578 -7.49121C130.767 -7.75873 138.634 -12.1029 143.032 -19.7141C147.431 -27.3252 147.253 -36.3227 143.386 -43.5501L259.902 -110.821C261.958 -107.728 265.398 -105.631 269.334 -105.386L269.349 41.4524C262.947 41.857 257.866 47.1646 257.867 53.6747C257.866 55.6355 258.332 57.4706 259.157 59.1168L132.013 132.523C129.957 129.43 126.517 127.333 122.582 127.088L122.578 -7.49121ZM-36.724 60.4183C-34.5302 63.7199 -30.7788 65.8883 -26.5157 65.891C-22.2527 65.8936 -18.5115 63.7157 -16.309 60.4298L110.841 133.848C110.026 135.488 109.557 137.323 109.556 139.284C109.556 141.245 110.022 143.08 110.846 144.726L-18.9538 219.666C-19.7024 218.587 -20.6859 217.662 -21.8867 216.953C-26.064 214.545 -31.32 215.781 -34.024 219.662L-163.862 144.703C-163.047 143.063 -162.578 141.227 -162.577 139.267C-162.577 137.306 -163.043 135.471 -163.867 133.825L-36.7374 60.4261L-36.724 60.4183ZM-322.368 237.133C-318.413 236.882 -314.664 234.717 -312.535 231.024C-310.405 227.331 -310.408 222.998 -312.17 219.447L-185.04 146.049C-182.984 149.142 -179.544 151.239 -175.608 151.484L-175.594 298.322C-181.995 298.727 -187.076 304.034 -187.076 310.544C-187.076 312.505 -186.61 314.34 -185.786 315.986L-312.916 389.385C-314.971 386.291 -318.411 384.195 -322.347 383.949L-322.381 237.141L-322.368 237.133ZM-461.257 317.321L-334.107 390.739C-334.922 392.379 -335.391 394.214 -335.392 396.175C-335.392 398.135 -334.926 399.971 -334.102 401.617L-461.272 475.039C-462.278 473.515 -463.642 472.18 -465.34 471.2C-470.978 467.945 -478.115 469.691 -481.666 475.033L-608.824 401.601C-608.009 399.961 -607.548 398.113 -607.539 396.165C-607.531 394.218 -608.004 392.369 -608.829 390.723L-481.686 317.317C-479.492 320.619 -475.74 322.787 -471.477 322.79C-467.214 322.792 -463.473 320.614 -461.271 317.328L-461.257 317.321Z" fill="#5faaff"/>
</svg>