<svg width="200" height="65" viewBox="0 0 200 65" fill="none" xmlns="http://www.w3.org/2000/svg">
<path fill-rule="evenodd" clip-rule="evenodd" d="M162.458 64.3552C172.812 66.1718 182.66 63.3845 190.657 55.3872C198.654 47.3899 201.266 36.823 199.449 26.4694C198.305 19.9488 195.694 13.2238 190.657 8.18713C184.972 2.50209 177.507 0.97386 170.084 0.248134C160.49 -0.689993 150.806 0.838234 143.457 8.18713C136.564 15.0798 134.275 25.1956 134.672 34.2225C135.027 42.2652 137.316 49.246 143.457 55.3872C148.494 60.4238 155.938 63.2111 162.458 64.3552ZM178.524 38.9967L178.478 42.5685V43.2467C178.448 43.5179 178.448 43.7741 178.478 44.0153C178.508 44.166 178.524 44.3167 178.524 44.4674L178.614 44.9195C178.614 45.1004 178.629 45.2812 178.659 45.4621C178.689 45.6128 178.735 45.7635 178.795 45.9142C178.825 45.9745 178.855 46.0197 178.885 46.0499C178.915 46.08 178.945 46.1252 178.976 46.1855C178.976 46.2759 179.021 46.3663 179.111 46.4568C179.262 46.8185 179.518 47.1199 179.88 47.361C180.603 47.6926 181.372 47.7679 182.186 47.5871C182.728 47.4967 183.12 47.3309 183.361 47.0898C183.512 46.9692 183.633 46.8486 183.723 46.7281C183.844 46.5773 183.949 46.4266 184.039 46.2759C184.1 46.0951 184.145 45.9293 184.175 45.7786C184.235 45.5977 184.296 45.4319 184.356 45.2812C184.386 45.1004 184.401 44.9497 184.401 44.8291C184.431 44.6784 184.446 44.5578 184.446 44.4674V44.0153L184.718 20.5498V19.7812V19.2839C184.748 19.103 184.763 18.9071 184.763 18.6961C184.763 18.5153 184.748 18.3344 184.718 18.1536C184.718 17.9727 184.703 17.7768 184.672 17.5658C184.642 17.385 184.597 17.2192 184.537 17.0685C184.507 16.8876 184.461 16.7068 184.401 16.5259C184.25 16.1943 184.085 15.9532 183.904 15.8025C183.602 15.5011 183.256 15.3202 182.864 15.26C182.683 15.2298 182.487 15.2147 182.276 15.2147C182.095 15.1846 181.884 15.1695 181.643 15.1695C181.191 15.1695 180.724 15.2901 180.242 15.5312C179.82 15.8326 179.503 16.1943 179.292 16.6163C178.991 17.2493 178.825 17.8371 178.795 18.3796C178.795 18.7112 178.78 19.0428 178.75 19.3743C178.75 19.6757 178.735 19.9772 178.704 20.2786V20.4594C178.644 21.5144 178.614 22.4639 178.614 23.3078V26.2014V29.3663C178.614 30.3912 178.599 31.3858 178.569 32.3504L178.524 38.9967ZM174.309 44.8291C174.309 44.6483 174.294 44.4674 174.264 44.2866C174.203 44.0153 174.128 43.744 174.038 43.4727L173.902 43.0658L164.498 19.9169L164.226 19.1935C164.166 19.0126 164.091 18.8468 164 18.6961C163.91 18.5454 163.835 18.3646 163.774 18.1536C163.624 17.7617 163.458 17.4151 163.277 17.1137C163.036 16.752 162.81 16.4355 162.599 16.1642C162.418 15.9231 162.162 15.7272 161.83 15.5764C161.408 15.4257 160.911 15.3504 160.338 15.3504C159.796 15.3504 159.313 15.4257 158.891 15.5764C158.56 15.7272 158.304 15.9231 158.123 16.1642L157.761 16.6163C157.64 16.767 157.535 16.9328 157.444 17.1137C157.264 17.4151 157.098 17.7617 156.947 18.1536C156.887 18.3646 156.811 18.5454 156.721 18.6961C156.631 18.8468 156.555 19.0126 156.495 19.1935L156.224 19.9169L146.819 43.0658L146.684 43.4727C146.593 43.744 146.518 44.0153 146.458 44.2866L146.367 44.8291V45.3717C146.367 45.7334 146.473 46.0649 146.684 46.3663C146.774 46.5171 146.895 46.6678 147.046 46.8185C147.196 46.939 147.377 47.0445 147.588 47.135C148.342 47.5569 149.14 47.7077 149.984 47.5871C150.406 47.4665 150.783 47.2706 151.115 46.9993C151.175 46.939 151.22 46.9089 151.25 46.9089C151.28 46.8788 151.311 46.8335 151.341 46.7733L151.431 46.6828C151.461 46.6226 151.507 46.5773 151.567 46.5472C151.718 46.3965 151.838 46.2608 151.929 46.1403C152.019 45.9896 152.094 45.8389 152.155 45.6882C152.245 45.5374 152.32 45.4018 152.381 45.2812L152.652 44.8291C152.712 44.7085 152.757 44.6031 152.788 44.5126L152.968 44.1509C153.029 44.0304 153.059 43.9098 153.059 43.7892C153.089 43.6686 153.134 43.5481 153.194 43.4275L154.144 41.2121C156.224 41.2422 158.288 41.2573 160.338 41.2573C162.418 41.2272 164.498 41.2121 166.577 41.2121L167.527 43.4275C167.557 43.6385 167.632 43.8796 167.753 44.1509C167.783 44.2715 167.828 44.3921 167.889 44.5126C167.949 44.6031 168.009 44.7085 168.069 44.8291C168.16 44.9798 168.235 45.1305 168.296 45.2812C168.386 45.4018 168.461 45.5374 168.522 45.6882L168.793 46.1403C168.883 46.2608 169.004 46.3965 169.155 46.5472C169.215 46.5773 169.26 46.6226 169.29 46.6828L169.381 46.7733C169.411 46.8335 169.441 46.8788 169.471 46.9089C169.501 46.9089 169.546 46.939 169.607 46.9993C169.938 47.2706 170.315 47.4665 170.737 47.5871C171.581 47.7077 172.38 47.5569 173.133 47.135C173.344 47.0445 173.525 46.939 173.676 46.8185C173.827 46.6678 173.947 46.5171 174.038 46.3663C174.249 46.0649 174.354 45.7334 174.354 45.3717C174.354 45.1607 174.339 44.9798 174.309 44.8291ZM162.327 30.4967C162.749 31.4311 163.156 32.3353 163.548 33.2094L164.362 35.1988H156.359L157.173 33.2094C157.565 32.3353 157.957 31.4311 158.349 30.4967C158.771 29.5623 159.208 28.6128 159.66 27.6483L160.022 26.8344C160.142 26.533 160.248 26.2467 160.338 25.9754C160.459 26.2467 160.579 26.533 160.7 26.8344L161.061 27.6483C161.514 28.6128 161.936 29.5623 162.327 30.4967Z" fill="#032D83"/>
<path fill-rule="evenodd" clip-rule="evenodd" d="M125.966 41.9067C125.966 41.1329 125.949 40.3943 125.913 39.6908C125.878 38.4246 125.825 37.2111 125.755 36.0504C125.72 34.8896 125.544 33.7992 125.227 32.7792C124.911 31.7592 124.401 30.8271 123.697 29.9829C123.029 29.1388 122.044 28.3825 120.743 27.7142C119.477 27.0811 118.034 26.7646 116.417 26.7646C114.799 26.7294 113.251 26.958 111.774 27.4504V26.5535V23.0186C111.774 21.8579 111.756 20.7147 111.721 19.5892V19.3254C111.721 19.1495 111.703 18.9033 111.668 18.5867V17.5315C111.668 17.1798 111.651 16.8457 111.615 16.5291C111.615 16.1774 111.598 15.9136 111.563 15.7377C111.563 15.1397 111.422 14.5066 111.14 13.8383C111.035 13.5569 110.894 13.3459 110.718 13.2052C110.543 13.0293 110.349 12.8711 110.138 12.7304C109.646 12.4138 109.136 12.2555 108.608 12.2555C108.397 12.2555 108.186 12.2731 107.975 12.3083C107.764 12.3083 107.57 12.3259 107.395 12.361C107.183 12.3962 106.99 12.4666 106.814 12.5721C106.638 12.6776 106.462 12.8183 106.287 12.9942C106.04 13.17 105.864 13.4338 105.759 13.7856C105.689 13.9614 105.636 14.1549 105.601 14.3659C105.565 14.5418 105.513 14.7352 105.442 14.9463L105.337 15.5794V16.1598V46.4969C105.337 47.5169 105.583 48.3786 106.076 49.0821C106.603 49.7504 107.395 50.0846 108.45 50.0846C109.294 50.0846 109.927 49.8911 110.349 49.5042C110.806 49.1173 111.14 48.6424 111.352 48.0797C111.563 47.5169 111.668 46.9014 111.668 46.2331C111.703 45.5296 111.721 44.8613 111.721 44.2282V40.3767L111.774 38.319C111.879 37.5452 111.949 36.8242 111.985 36.1559C112.055 35.4876 112.231 34.9248 112.512 34.4675C112.794 33.9751 113.233 33.6058 113.831 33.3596C114.464 33.1134 115.361 33.0254 116.522 33.0958C117.437 33.131 118.122 33.4651 118.58 34.0982C119.037 34.7313 119.353 35.5052 119.529 36.4197C119.74 37.299 119.846 38.2487 119.846 39.2687C119.881 40.2536 119.916 41.1329 119.951 41.9067C119.987 42.3992 119.987 43.085 119.951 43.9644C119.916 44.8437 119.951 45.723 120.057 46.6024C120.198 47.4465 120.444 48.2028 120.796 48.8711C121.147 49.5394 121.728 49.9263 122.537 50.0318C123.311 50.1373 123.908 50.067 124.331 49.8208C124.788 49.5394 125.122 49.1349 125.333 48.6073C125.544 48.0445 125.685 47.3762 125.755 46.6024C125.825 45.7934 125.878 44.9141 125.913 43.9644C125.949 43.3313 125.966 42.6454 125.966 41.9067ZM29.1236 14.3659C29.5105 14.8232 29.704 15.298 29.704 15.7905C29.704 16.0015 29.6864 16.2301 29.6512 16.4763C29.6512 16.6874 29.6336 16.8808 29.5984 17.0567C29.4929 17.4436 29.2643 17.8129 28.9126 18.1647C28.6312 18.3757 28.2443 18.534 27.7518 18.6395C27.5056 18.7098 27.2594 18.7626 27.0132 18.7978C26.767 18.833 26.5032 18.8857 26.2218 18.9561C25.9756 18.9912 25.7294 19.0088 25.4832 19.0088H24.6918H22.001C21.3679 19.044 20.7347 19.0616 20.1016 19.0616H18.3078C18.3429 20.152 18.3605 21.3303 18.3605 22.5965C18.3605 23.8276 18.3429 25.2697 18.3078 26.9228C18.3078 28.576 18.2902 30.4929 18.255 32.6737V40.2712V44.2809C18.255 44.6327 18.2726 44.8965 18.3078 45.0723V45.4944C18.3078 45.5999 18.2902 45.7406 18.255 45.9165C18.1847 46.2331 18.1319 46.6024 18.0967 47.0245C18.0967 47.2003 18.0791 47.3762 18.044 47.5521C18.0088 47.6928 17.956 47.851 17.8857 48.0269C17.745 48.1676 17.6747 48.2731 17.6747 48.3435L17.5164 48.66C17.3405 49.0118 17.0064 49.3459 16.5139 49.6625C15.7401 50.0494 14.8784 50.1373 13.9287 49.9263C13.3307 49.8559 12.8735 49.6976 12.5569 49.4514C12.2404 49.1349 12.0117 48.8183 11.871 48.5018C11.66 48.1148 11.5369 47.7455 11.5017 47.3938C11.3962 47.0772 11.3434 46.7431 11.3434 46.3913V19.2726H10.0244H7.86126C7.12262 19.2374 6.41915 19.2023 5.75086 19.1671C5.08256 19.1319 4.62531 19.0968 4.37909 19.0616C4.16805 19.0264 3.8339 18.9736 3.37665 18.9033C2.95457 18.833 2.60283 18.7626 2.32145 18.6923C1.5828 18.4812 1.00244 18.1471 0.580362 17.6898C0.193454 17.2326 0 16.7225 0 16.1598V15.5267C0 15.3156 0.0351734 15.1222 0.10552 14.9463C0.211041 14.5242 0.492428 14.1725 0.949683 13.8911C1.09038 13.7856 1.30142 13.6625 1.5828 13.5218C1.89937 13.3459 2.19834 13.2228 2.47973 13.1524C2.90181 13.0117 3.42941 12.9062 4.06253 12.8359C4.34392 12.8007 4.62531 12.7831 4.90669 12.7831H5.80362H9.28579C10.4113 12.7831 11.5896 12.7655 12.8207 12.7304C14.8608 12.6952 16.8833 12.6952 18.8881 12.7304C20.9282 12.7304 22.9507 12.7655 24.9556 12.8359C25.4128 12.8711 25.8525 12.9238 26.2746 12.9942C26.6966 13.0645 27.1187 13.1876 27.5408 13.3635C27.8574 13.469 28.1563 13.6097 28.4377 13.7856C28.7191 13.9263 28.9477 14.1197 29.1236 14.3659ZM42.1331 42.8564C42.5552 42.7509 42.9773 42.6805 43.3993 42.6454C43.8566 42.6102 44.2611 42.663 44.6128 42.8037C44.9997 42.9443 45.3163 43.1906 45.5625 43.5423C45.8087 43.8589 45.9318 44.3161 45.9318 44.9141C45.9318 45.3361 45.8263 45.7406 45.6153 46.1275C45.4042 46.5145 45.1404 46.8662 44.8239 47.1827C44.5073 47.4993 44.1556 47.7807 43.7687 48.0269C43.3818 48.2379 43.0124 48.4138 42.6607 48.5545C41.6407 49.0118 40.4624 49.3635 39.1258 49.6097C37.8244 49.8559 36.4702 49.9439 35.0632 49.8735C33.1639 49.8032 31.3349 49.4338 29.5762 48.7656C27.8527 48.0621 26.4985 46.9189 25.5137 45.3361C24.5991 43.7885 24.054 42.065 23.8781 40.1656C23.7022 38.2663 23.7902 36.4724 24.1419 34.7841C24.5288 32.744 25.1795 31.0909 26.094 29.8247C27.0437 28.5232 28.1692 27.4856 29.4707 26.7118C31.0535 25.7973 32.8297 25.3225 34.7994 25.2873C36.7692 25.2521 38.6509 25.639 40.4448 26.448C41.6407 26.9756 42.7135 27.6967 43.6632 28.6112C44.6128 29.4905 45.3339 30.5633 45.8263 31.8295C45.967 32.1461 46.0725 32.533 46.1429 32.9903C46.2484 33.4475 46.3187 33.9399 46.3539 34.4675C46.3891 34.96 46.3891 35.4524 46.3539 35.9448C46.3187 36.4373 46.2308 36.8769 46.0901 37.2638C45.8791 37.897 45.6153 38.3894 45.2987 38.7411C44.9821 39.0929 44.5777 39.3567 44.0852 39.5325C43.5928 39.7084 42.9949 39.8315 42.2914 39.9018C41.6231 39.937 40.8141 39.9722 39.8644 40.0074C39.0203 40.0425 38.2289 40.0601 37.4902 40.0601H35.2215C34.4477 40.025 33.6387 40.0074 32.7946 40.0074C31.9856 39.9722 31.0711 39.937 30.051 39.9018C29.9455 40.6053 30.0334 41.2208 30.3148 41.7485C30.6314 42.2409 31.0535 42.663 31.5811 43.0147C32.1087 43.3313 32.7066 43.5775 33.3749 43.7533C34.0432 43.9292 34.6939 44.0347 35.327 44.0699C36.5229 44.1402 37.6661 44.0523 38.7565 43.8061C39.8468 43.5247 40.9724 43.2081 42.1331 42.8564ZM39.8644 32.6209C39.1961 31.8471 38.4927 31.2844 37.754 30.9326C37.1912 30.6864 36.5933 30.5809 35.9602 30.6161C35.3622 30.6161 34.7819 30.704 34.2191 30.8799C33.1991 31.1261 32.3373 31.6537 31.6338 32.4627C31.5635 32.533 31.4404 32.7089 31.2645 32.9903C31.0886 33.2365 30.9128 33.5003 30.7369 33.7817C30.5962 34.0631 30.4907 34.3269 30.4203 34.5731C30.35 34.8193 30.3852 34.9424 30.5259 34.9424H40.8669C40.8317 34.45 40.7438 34.0455 40.6031 33.7289C40.4624 33.3772 40.2161 33.0078 39.8644 32.6209ZM60.6433 26.7646C59.4825 26.9756 58.3746 27.3449 57.3194 27.8725C56.018 28.5056 54.8748 29.4202 53.89 30.6161C52.9051 31.812 52.1665 33.3596 51.674 35.2589C51.2871 36.7011 51.1113 38.1608 51.1464 39.638C51.1816 41.1153 51.4454 42.5047 51.9378 43.8061C52.4654 45.0723 53.2041 46.1979 54.1538 47.1827C55.1386 48.1324 56.3873 48.8007 57.8997 49.1876C59.0605 49.5042 60.1508 49.6977 61.1709 49.768C62.1909 49.8383 63.2637 49.8032 64.3892 49.6625C65.7258 49.4866 66.869 49.1173 67.8186 48.5545C68.7683 47.9566 69.6477 47.13 70.4566 46.0748C70.7029 46.4617 70.9667 46.8838 71.2481 47.341C71.5646 47.7631 71.9164 48.1676 72.3033 48.5545C72.6902 48.9062 73.1122 49.1876 73.5695 49.3987C74.0619 49.5745 74.5719 49.6097 75.0995 49.5042C76.0141 49.3283 76.612 48.8711 76.8934 48.1324C77.2099 47.3586 77.2803 46.5672 77.1044 45.7582C76.8934 44.9141 76.612 44.1051 76.2603 43.3313C75.9437 42.5574 75.592 41.7836 75.2051 41.0098C74.8533 40.236 74.5192 39.4622 74.2026 38.6884C73.8861 37.9145 73.6574 37.0704 73.5167 36.1559C73.3057 34.8193 72.954 33.6058 72.4615 32.5154C71.9691 31.425 71.2656 30.4226 70.3511 29.5081C69.4366 28.6288 68.4518 27.9605 67.3966 27.5032C66.3414 27.0108 65.2334 26.7118 64.0727 26.6063C62.9471 26.4656 61.804 26.5183 60.6433 26.7646ZM99.5378 29.7719C99.8192 30.2643 99.9599 30.7919 99.9599 31.3547C99.995 31.9175 99.8719 32.4451 99.5906 32.9375C99.274 33.5706 98.8167 34.0103 98.2188 34.2565C97.656 34.4676 97.0229 34.4851 96.3194 34.3093C96.0029 34.2389 95.7215 34.1158 95.4753 33.9399C95.229 33.7641 94.9652 33.5882 94.6839 33.4123C94.4376 33.2013 94.1387 33.0079 93.7869 32.832C93.4704 32.6561 93.0483 32.533 92.5207 32.4627C91.9931 32.3923 91.4127 32.3923 90.7796 32.4627C90.1817 32.533 89.6365 32.6737 89.1441 32.8847C88.3702 33.2717 87.7547 33.8696 87.2974 34.6786C86.8402 35.4524 86.5412 36.2966 86.4005 37.2111C86.2598 38.0904 86.2774 38.9873 86.4533 39.9018C86.6643 40.8164 87.0512 41.5902 87.614 42.2233C88.0361 42.7157 88.5813 43.1202 89.2496 43.4368C89.953 43.7533 90.6213 43.9468 91.2544 44.0171C91.8524 44.0875 92.4503 44.0875 93.0483 44.0171C93.6462 43.9116 94.2266 43.7709 94.7894 43.5951C95.2115 43.4192 95.6863 43.1906 96.2139 42.9092C96.7415 42.5926 97.2515 42.3992 97.7439 42.3288C98.3771 42.3288 98.8695 42.5047 99.2212 42.8564C99.573 43.173 99.8192 43.5775 99.9599 44.0699C100.101 44.5272 100.118 45.0196 100.013 45.5472C99.9423 46.0748 99.7488 46.532 99.4323 46.9189C99.0102 47.4465 98.4123 47.9566 97.6384 48.449C96.8646 48.9062 96.126 49.2404 95.4225 49.4514C94.5783 49.7328 93.6287 49.8911 92.5735 49.9263C91.5534 49.9614 90.5862 49.9263 89.6716 49.8208C89.2496 49.7504 88.8099 49.6625 88.3526 49.557C87.8954 49.4514 87.4557 49.3283 87.0336 49.1876C85.486 48.6249 84.1846 47.8335 83.1294 46.8134C82.1094 45.7582 81.318 44.5799 80.7552 43.2785C80.2276 41.9771 79.9286 40.5877 79.8583 39.1104C79.7879 37.6332 79.9638 36.1735 80.3859 34.7313C80.7728 33.3596 81.2476 32.1989 81.8104 31.2492C82.4083 30.2995 83.0942 29.5257 83.868 28.9277C84.677 28.2946 85.5739 27.8022 86.5588 27.4504C87.5437 27.0635 88.634 26.7294 89.8299 26.448C91.061 26.2018 92.3624 26.2018 93.7342 26.448C95.1059 26.6942 96.337 27.1515 97.4274 27.8198C98.2716 28.277 98.975 28.9277 99.5378 29.7719ZM62.5381 44.2315C65.797 44.2315 68.4389 41.5896 68.4389 38.3307C68.4389 35.0718 65.797 32.4299 62.5381 32.4299C59.2792 32.4299 56.6373 35.0718 56.6373 38.3307C56.6373 41.5896 59.2792 44.2315 62.5381 44.2315Z" fill="#0086C2"/>
</svg>
