<svg width="344" height="112" viewBox="0 0 344 112" fill="none" xmlns="http://www.w3.org/2000/svg">
<path fill-rule="evenodd" clip-rule="evenodd" d="M278.75 110.422C296.515 113.539 313.412 108.757 327.134 95.0347C340.856 81.3128 345.337 63.1818 342.22 45.4169C340.257 34.2287 335.776 22.6897 327.134 14.0477C317.38 4.29314 304.571 1.67097 291.835 0.425754C275.372 -1.18391 258.757 1.43826 246.147 14.0477C234.321 25.8743 230.393 43.2313 231.074 58.7198C231.682 72.5198 235.61 84.4974 246.147 95.0347C254.789 103.677 267.562 108.459 278.75 110.422ZM307.315 66.9115L307.237 73.0401V74.2037C307.186 74.6692 307.186 75.1088 307.237 75.5225C307.289 75.7811 307.315 76.0397 307.315 76.2983L307.47 77.0741C307.47 77.3844 307.496 77.6947 307.548 78.005C307.6 78.2636 307.677 78.5222 307.781 78.7808C307.832 78.8842 307.884 78.9618 307.936 79.0135C307.987 79.0652 308.039 79.1428 308.091 79.2462C308.091 79.4014 308.168 79.5565 308.324 79.7117C308.582 80.3323 309.022 80.8495 309.642 81.2632C310.884 81.8321 312.202 81.9614 313.599 81.6511C314.53 81.496 315.202 81.2115 315.616 80.7978C315.874 80.5909 316.081 80.384 316.236 80.1772C316.443 79.9186 316.624 79.66 316.779 79.4014C316.883 79.0911 316.96 78.8066 317.012 78.548C317.116 78.2377 317.219 77.9533 317.322 77.6947C317.374 77.3844 317.4 77.1258 317.4 76.9189C317.452 76.6603 317.478 76.4535 317.478 76.2983V75.5225L317.943 35.26V33.9411V33.0878C317.995 32.7775 318.021 32.4413 318.021 32.0793C318.021 31.769 317.995 31.4587 317.943 31.1484C317.943 30.8381 317.917 30.5019 317.866 30.1399C317.814 29.8296 317.736 29.5451 317.633 29.2865C317.581 28.9762 317.504 28.6659 317.4 28.3556C317.141 27.7867 316.857 27.3729 316.547 27.1144C316.03 26.5972 315.435 26.2869 314.762 26.1834C314.452 26.1317 314.116 26.1058 313.754 26.1058C313.444 26.0541 313.082 26.0283 312.668 26.0283C311.892 26.0283 311.09 26.2351 310.263 26.6489C309.539 27.1661 308.996 27.7867 308.634 28.5107C308.117 29.5968 307.832 30.6053 307.781 31.5363C307.781 32.1051 307.755 32.674 307.703 33.243C307.703 33.7601 307.677 34.2773 307.625 34.7945V35.1048C307.522 36.9149 307.47 38.5441 307.47 39.9922V44.9571V50.3875C307.47 52.1459 307.444 53.8526 307.393 55.5076L307.315 66.9115ZM300.083 76.9189C300.083 76.6086 300.058 76.2983 300.006 75.988C299.902 75.5225 299.773 75.0571 299.618 74.5916L299.385 73.8934L283.249 34.1739L282.784 32.9326C282.68 32.6223 282.551 32.3379 282.396 32.0793C282.241 31.8207 282.111 31.5104 282.008 31.1484C281.749 30.476 281.465 29.8813 281.155 29.3641C280.741 28.7435 280.353 28.2004 279.991 27.735C279.681 27.3212 279.241 26.9851 278.672 26.7265C277.948 26.4679 277.095 26.3386 276.112 26.3386C275.181 26.3386 274.354 26.4679 273.63 26.7265C273.061 26.9851 272.621 27.3212 272.311 27.735L271.69 28.5107C271.483 28.7693 271.302 29.0538 271.147 29.3641C270.837 29.8813 270.552 30.476 270.294 31.1484C270.19 31.5104 270.061 31.8207 269.906 32.0793C269.751 32.3379 269.621 32.6223 269.518 32.9326L269.053 34.1739L252.916 73.8934L252.684 74.5916C252.529 75.0571 252.399 75.5225 252.296 75.988L252.141 76.9189V77.8498C252.141 78.4705 252.322 79.0394 252.684 79.5565C252.839 79.8151 253.046 80.0737 253.304 80.3323C253.563 80.5392 253.873 80.7202 254.235 80.8754C255.528 81.5994 256.899 81.858 258.347 81.6511C259.071 81.4443 259.717 81.1081 260.286 80.6426C260.39 80.5392 260.467 80.4875 260.519 80.4875C260.571 80.4357 260.622 80.3582 260.674 80.2547L260.829 80.0996C260.881 79.9961 260.959 79.9186 261.062 79.8669C261.321 79.6083 261.528 79.3755 261.683 79.1687C261.838 78.9101 261.967 78.6515 262.071 78.3929C262.226 78.1343 262.355 77.9016 262.458 77.6947L262.924 76.9189C263.027 76.712 263.105 76.531 263.157 76.3759L263.467 75.7553C263.57 75.5484 263.622 75.3415 263.622 75.1346C263.674 74.9278 263.751 74.7209 263.855 74.514L265.484 70.7127C269.053 70.7645 272.595 70.7903 276.112 70.7903C279.681 70.7386 283.249 70.7127 286.818 70.7127L288.447 74.514C288.499 74.8761 288.628 75.2898 288.835 75.7553C288.886 75.9621 288.964 76.169 289.067 76.3759C289.171 76.531 289.274 76.712 289.378 76.9189C289.533 77.1775 289.662 77.4361 289.766 77.6947C289.921 77.9016 290.05 78.1343 290.154 78.3929L290.619 79.1687C290.774 79.3755 290.981 79.6083 291.24 79.8669C291.343 79.9186 291.421 79.9961 291.472 80.0996L291.627 80.2547C291.679 80.3582 291.731 80.4357 291.783 80.4875C291.834 80.4875 291.912 80.5392 292.015 80.6426C292.584 81.1081 293.231 81.4443 293.955 81.6511C295.403 81.858 296.773 81.5994 298.066 80.8754C298.428 80.7202 298.739 80.5392 298.997 80.3323C299.256 80.0737 299.463 79.8151 299.618 79.5565C299.98 79.0394 300.161 78.4705 300.161 77.8498C300.161 77.4878 300.135 77.1775 300.083 76.9189ZM279.525 52.3269C280.249 53.9302 280.948 55.4817 281.62 56.9816L283.016 60.395H269.285L270.682 56.9816C271.354 55.4817 272.026 53.9302 272.699 52.3269C273.423 50.7237 274.173 49.0946 274.948 47.4396L275.569 46.0432C275.776 45.526 275.957 45.0347 276.112 44.5692C276.319 45.0347 276.526 45.526 276.733 46.0432L277.353 47.4396C278.129 49.0946 278.853 50.7237 279.525 52.3269Z" fill="#032D83"/>
<path fill-rule="evenodd" clip-rule="evenodd" d="M216.136 71.9046C216.136 70.5769 216.106 69.3095 216.045 68.1024C215.985 65.9298 215.894 63.8477 215.774 61.8561C215.713 59.8645 215.412 57.9936 214.868 56.2434C214.325 54.4932 213.45 52.8939 212.243 51.4454C211.096 49.997 209.407 48.6995 207.174 47.5528C205.001 46.4665 202.526 45.9233 199.75 45.9233C196.974 45.8629 194.319 46.2552 191.784 47.1001V45.5612V39.4959C191.784 37.5043 191.754 35.5428 191.693 33.6116V33.159C191.693 32.8572 191.663 32.4347 191.603 31.8916V30.081C191.603 29.4775 191.573 28.9042 191.512 28.361C191.512 27.7575 191.482 27.3049 191.422 27.0031C191.422 25.9771 191.18 24.8908 190.698 23.7441C190.517 23.2613 190.275 22.8992 189.973 22.6578C189.672 22.356 189.34 22.0845 188.978 21.8431C188.133 21.2999 187.258 21.0283 186.352 21.0283C185.99 21.0283 185.628 21.0585 185.266 21.1188C184.904 21.1188 184.572 21.149 184.27 21.2094C183.908 21.2697 183.576 21.3904 183.274 21.5715C182.973 21.7525 182.671 21.9939 182.369 22.2957C181.947 22.5975 181.645 23.0501 181.464 23.6536C181.343 23.9554 181.253 24.2873 181.192 24.6494C181.132 24.9512 181.041 25.2831 180.921 25.6452L180.74 26.7315V27.7273V79.7805C180.74 81.5306 181.162 83.0093 182.007 84.2163C182.912 85.363 184.27 85.9363 186.081 85.9363C187.529 85.9363 188.615 85.6044 189.34 84.9405C190.124 84.2766 190.698 83.4619 191.06 82.4963C191.422 81.5306 191.603 80.4745 191.603 79.3278C191.663 78.1208 191.693 76.9741 191.693 75.8878V69.2793L191.784 65.7487C191.965 64.421 192.086 63.1838 192.146 62.0371C192.267 60.8904 192.568 59.9248 193.051 59.1403C193.534 58.2953 194.289 57.6616 195.314 57.2392C196.401 56.8167 197.94 56.6659 199.931 56.7866C201.501 56.8469 202.677 57.4202 203.462 58.5066C204.247 59.5929 204.79 60.9206 205.091 62.4898C205.454 63.9985 205.635 65.628 205.635 67.3782C205.695 69.0681 205.755 70.5769 205.816 71.9046C205.876 72.7495 205.876 73.9264 205.816 75.4352C205.755 76.9439 205.816 78.4527 205.997 79.9615C206.238 81.4099 206.661 82.7075 207.264 83.8542C207.868 85.0009 208.863 85.6647 210.251 85.8458C211.579 86.0268 212.605 85.9061 213.329 85.4837C214.114 85.0009 214.687 84.3068 215.049 83.4015C215.412 82.4359 215.653 81.2892 215.774 79.9615C215.894 78.5734 215.985 77.0646 216.045 75.4352C216.106 74.3488 216.136 73.172 216.136 71.9046ZM49.971 24.6494C50.6349 25.434 50.9668 26.2487 50.9668 27.0936C50.9668 27.4557 50.9366 27.848 50.8763 28.2705C50.8763 28.6326 50.8461 28.9645 50.7857 29.2663C50.6047 29.9302 50.2124 30.5638 49.6089 31.1674C49.1261 31.5295 48.4622 31.8011 47.6173 31.9821C47.1948 32.1028 46.7724 32.1933 46.3499 32.2537C45.9275 32.314 45.4748 32.4046 44.992 32.5253C44.5695 32.5856 44.1471 32.6158 43.7246 32.6158H42.3667H37.7498C36.6635 32.6761 35.5772 32.7063 34.4909 32.7063H31.4129C31.4733 34.5772 31.5035 36.599 31.5035 38.7716C31.5035 40.8839 31.4733 43.3584 31.4129 46.1949C31.4129 49.0314 31.3828 52.3205 31.3224 56.0623V69.0983V75.9783C31.3224 76.5818 31.3526 77.0345 31.4129 77.3362V78.0604C31.4129 78.2415 31.3828 78.4829 31.3224 78.7847C31.2017 79.3278 31.1112 79.9615 31.0508 80.6857C31.0508 80.9875 31.0206 81.2892 30.9603 81.591C30.8999 81.8324 30.8094 82.104 30.6887 82.4057C30.4473 82.6471 30.3266 82.8282 30.3266 82.9489L30.055 83.4921C29.7533 84.0956 29.1799 84.6689 28.335 85.2121C27.0073 85.8759 25.5287 86.0268 23.8992 85.6647C22.8732 85.544 22.0886 85.2724 21.5455 84.85C21.0023 84.3068 20.61 83.7637 20.3686 83.2205C20.0065 82.5566 19.7953 81.9229 19.7349 81.3194C19.5539 80.7763 19.4633 80.2029 19.4633 79.5994V33.0684H17.2002H13.4885C12.2212 33.0081 11.0141 32.9477 9.86746 32.8874C8.72078 32.827 7.93622 32.7667 7.51375 32.7063C7.15165 32.646 6.57831 32.5554 5.79374 32.4347C5.06952 32.314 4.46601 32.1933 3.9832 32.0726C2.71582 31.7105 1.72002 31.1372 0.995799 30.3526C0.331933 29.568 0 28.693 0 27.7273V26.641C0 26.2789 0.0603514 25.947 0.181054 25.6452C0.362109 24.921 0.84492 24.3175 1.62949 23.8347C1.87089 23.6536 2.233 23.4424 2.71581 23.201C3.25898 22.8992 3.77197 22.688 4.25478 22.5673C4.97899 22.3259 5.88427 22.1448 6.97059 22.0241C7.4534 21.9638 7.93621 21.9336 8.41903 21.9336H9.95799H15.9328C17.864 21.9336 19.8858 21.9034 21.9981 21.8431C25.4985 21.7827 28.9687 21.7827 32.4087 21.8431C35.9091 21.8431 39.3793 21.9034 42.8194 22.0241C43.6039 22.0845 44.3583 22.175 45.0825 22.2957C45.8068 22.4164 46.531 22.6276 47.2552 22.9294C47.7983 23.1104 48.3113 23.3518 48.7941 23.6536C49.277 23.895 49.6692 24.2269 49.971 24.6494ZM72.293 73.5341C73.0172 73.353 73.7414 73.2323 74.4657 73.172C75.2502 73.1116 75.9443 73.2021 76.5478 73.4436C77.2117 73.685 77.7548 74.1074 78.1773 74.7109C78.5997 75.2541 78.811 76.0387 78.811 77.0646C78.811 77.7889 78.6299 78.4829 78.2678 79.1468C77.9057 79.8106 77.4531 80.4141 76.9099 80.9573C76.3667 81.5005 75.7632 81.9833 75.0994 82.4057C74.4355 82.7678 73.8018 83.0696 73.1983 83.311C71.4481 84.0956 69.4263 84.6991 67.133 85.1216C64.9 85.544 62.5764 85.6949 60.1624 85.5742C56.9034 85.4535 53.7651 84.8198 50.7475 83.6731C47.7903 82.4661 45.4668 80.5047 43.777 77.7889C42.2078 75.1334 41.2724 72.1762 40.9706 68.9172C40.6689 65.6582 40.8197 62.5803 41.4232 59.6834C42.0871 56.183 43.2036 53.3465 44.7728 51.1739C46.4022 48.9409 48.3335 47.1605 50.5665 45.8328C53.2823 44.2636 56.3301 43.4489 59.7097 43.3885C63.0894 43.3282 66.3182 43.992 69.3961 45.3801C71.4481 46.2854 73.2888 47.5226 74.9183 49.0917C76.5478 50.6005 77.785 52.4412 78.6299 54.6139C78.8713 55.1571 79.0524 55.8209 79.1731 56.6055C79.3541 57.3901 79.4748 58.235 79.5352 59.1403C79.5955 59.9852 79.5955 60.8301 79.5352 61.675C79.4748 62.5199 79.324 63.2743 79.0826 63.9382C78.7204 65.0245 78.2678 65.8694 77.7246 66.473C77.1815 67.0765 76.4874 67.5291 75.6425 67.8309C74.7976 68.1326 73.7716 68.3439 72.5646 68.4646C71.4179 68.5249 70.0298 68.5853 68.4003 68.6456C66.9519 68.706 65.594 68.7361 64.3266 68.7361H60.434C59.1062 68.6758 57.7181 68.6456 56.2697 68.6456C54.8816 68.5853 53.3125 68.5249 51.5623 68.4646C51.3812 69.6716 51.5321 70.7277 52.0149 71.633C52.5581 72.4779 53.2823 73.2021 54.1876 73.8057C55.0929 74.3488 56.1188 74.7713 57.2655 75.073C58.4122 75.3748 59.5287 75.5559 60.615 75.6162C62.667 75.7369 64.6284 75.586 66.4993 75.1636C68.3702 74.6808 70.3014 74.1376 72.293 73.5341ZM68.4003 55.9718C67.2537 54.6441 66.0466 53.6785 64.7793 53.0749C63.8136 52.6525 62.7877 52.4714 61.7013 52.5318C60.6754 52.5318 59.6796 52.6826 58.7139 52.9844C56.9637 53.4069 55.4851 54.3121 54.2781 55.7002C54.1574 55.8209 53.9462 56.1227 53.6444 56.6055C53.3427 57.028 53.0409 57.4806 52.7391 57.9634C52.4977 58.4462 52.3167 58.8988 52.196 59.3213C52.0753 59.7438 52.1356 59.955 52.377 59.955H70.1204C70.06 59.1101 69.9091 58.416 69.6677 57.8729C69.4263 57.2694 69.0039 56.6357 68.4003 55.9718ZM104.053 45.9233C102.062 46.2854 100.161 46.9191 98.35 47.8244C96.117 48.9107 94.1556 50.4798 92.4657 52.5318C90.7759 54.5837 89.5085 57.2392 88.6636 60.4982C87.9997 62.9726 87.698 65.4772 87.7583 68.0119C87.8187 70.5467 88.2713 72.9306 89.1162 75.1636C90.0215 77.3362 91.2889 79.2675 92.9184 80.9573C94.6082 82.5868 96.7507 83.7335 99.3458 84.3973C101.337 84.9405 103.208 85.2724 104.958 85.3931C106.709 85.5138 108.549 85.4535 110.481 85.2121C112.774 84.9103 114.735 84.2766 116.365 83.311C117.994 82.285 119.503 80.8668 120.891 79.0562C121.314 79.7201 121.766 80.4443 122.249 81.2289C122.792 81.9531 123.396 82.6471 124.06 83.311C124.724 83.9145 125.448 84.3973 126.232 84.7594C127.077 85.0612 127.952 85.1216 128.858 84.9405C130.427 84.6387 131.453 83.8542 131.936 82.5868C132.479 81.2591 132.599 79.9012 132.298 78.5131C131.936 77.0646 131.453 75.6766 130.849 74.3488C130.306 73.0211 129.703 71.6934 129.039 70.3656C128.435 69.0379 127.862 67.7102 127.319 66.3824C126.776 65.0547 126.383 63.6063 126.142 62.0371C125.78 59.7438 125.176 57.6617 124.331 55.7908C123.486 53.9199 122.279 52.1998 120.71 50.6307C119.141 49.1219 117.451 47.9752 115.641 47.1907C113.83 46.3457 111.929 45.8328 109.937 45.6517C108.006 45.4103 106.045 45.5008 104.053 45.9233ZM170.789 51.0833C171.272 51.9283 171.514 52.8335 171.514 53.7992C171.574 54.7648 171.363 55.67 170.88 56.515C170.337 57.6013 169.552 58.3557 168.526 58.7782C167.561 59.1403 166.474 59.1704 165.267 58.8687C164.724 58.748 164.241 58.5367 163.819 58.235C163.396 57.9332 162.944 57.6315 162.461 57.3297C162.038 56.9676 161.525 56.6357 160.922 56.3339C160.379 56.0322 159.655 55.8209 158.749 55.7002C157.844 55.5795 156.848 55.5795 155.762 55.7002C154.736 55.8209 153.8 56.0623 152.956 56.4244C151.628 57.0883 150.572 58.1143 149.787 59.5024C149.003 60.8301 148.49 62.2785 148.248 63.8477C148.007 65.3565 148.037 66.8954 148.339 68.4646C148.701 70.0337 149.365 71.3614 150.33 72.4478C151.054 73.2927 151.99 73.9867 153.137 74.5299C154.344 75.073 155.49 75.405 156.577 75.5257C157.603 75.6464 158.629 75.6464 159.655 75.5257C160.681 75.3446 161.676 75.1032 162.642 74.8015C163.366 74.4997 164.181 74.1074 165.086 73.6246C165.991 73.0814 166.867 72.7495 167.711 72.6288C168.798 72.6288 169.643 72.9306 170.246 73.5341C170.85 74.0772 171.272 74.7713 171.514 75.6162C171.755 76.4008 171.785 77.2457 171.604 78.151C171.483 79.0562 171.152 79.8408 170.608 80.5047C169.884 81.4099 168.858 82.285 167.53 83.13C166.203 83.9145 164.935 84.4879 163.728 84.85C162.28 85.3328 160.65 85.6044 158.84 85.6647C157.09 85.7251 155.43 85.6647 153.861 85.4837C153.137 85.363 152.382 85.2121 151.598 85.031C150.813 84.85 150.059 84.6387 149.334 84.3973C146.679 83.4317 144.446 82.0738 142.635 80.3236C140.885 78.5131 139.527 76.4913 138.562 74.2583C137.656 72.0253 137.143 69.6414 137.023 67.1067C136.902 64.5719 137.204 62.0673 137.928 59.5929C138.592 57.2392 139.407 55.2476 140.372 53.6181C141.398 51.9886 142.575 50.6609 143.903 49.6349C145.291 48.5486 146.83 47.7037 148.52 47.1001C150.21 46.4363 152.08 45.8629 154.132 45.3801C156.245 44.9577 158.478 44.9577 160.831 45.3801C163.185 45.8026 165.297 46.5872 167.168 47.7338C168.617 48.5184 169.824 49.6349 170.789 51.0833ZM107.304 75.8935C112.896 75.8935 117.429 71.3605 117.429 65.7688C117.429 60.177 112.896 55.644 107.304 55.644C101.713 55.644 97.1797 60.177 97.1797 65.7688C97.1797 71.3605 101.713 75.8935 107.304 75.8935Z" fill="#0086C2"/>
</svg>
