<?xml version="1.0" encoding="utf-8"?>
<!-- Generator: Adobe Illustrator 18.1.1, SVG Export Plug-In . SVG Version: 6.00 Build 0)  -->
<svg version="1.1" id="Layer_1" xmlns="http://www.w3.org/2000/svg" xmlns:xlink="http://www.w3.org/1999/xlink" x="0px" y="0px"
	 viewBox="0 0 400 400" enable-background="new 0 0 400 400" xml:space="preserve">
<radialGradient id="SVGID_1_" cx="199.6402" cy="200.3757" r="202.91" gradientUnits="userSpaceOnUse">
	<stop  offset="8.185188e-02" style="stop-color:#565658"/>
	<stop  offset="0.5009" style="stop-color:#6B6C6F"/>
	<stop  offset="0.9335" style="stop-color:#565658"/>
</radialGradient>
<rect x="-3.3" y="-2.5" opacity="0.87" fill="url(#SVGID_1_)" width="405.8" height="405.8"/>
<line fill="none" stroke="#FFFFFF" stroke-miterlimit="10" x1="407.1" y1="0.1" x2="-7.7" y2="0.1"/>
<line fill="none" stroke="#FFFFFF" stroke-miterlimit="10" x1="407.1" y1="50.1" x2="-7.7" y2="50.1"/>
<line fill="none" stroke="#FFFFFF" stroke-miterlimit="10" x1="407.1" y1="100.1" x2="-7.7" y2="100.1"/>
<line fill="none" stroke="#FFFFFF" stroke-miterlimit="10" x1="407.1" y1="150.1" x2="-7.7" y2="150.1"/>
<line fill="none" stroke="#FFFFFF" stroke-miterlimit="10" x1="407.1" y1="200.1" x2="-7.7" y2="200.1"/>
<line fill="none" stroke="#FFFFFF" stroke-miterlimit="10" x1="407.1" y1="250.1" x2="-7.7" y2="250.1"/>
<line fill="none" stroke="#FFFFFF" stroke-miterlimit="10" x1="407.1" y1="300.1" x2="-7.7" y2="300.1"/>
<line fill="none" stroke="#FFFFFF" stroke-miterlimit="10" x1="407.1" y1="350.1" x2="-7.7" y2="350.1"/>
<line fill="none" stroke="#FFFFFF" stroke-miterlimit="10" x1="407.1" y1="400.1" x2="-7.7" y2="400.1"/>
<line fill="none" stroke="#FFFFFF" stroke-miterlimit="10" x1="-0.3" y1="-7.3" x2="-0.3" y2="407.5"/>
<line fill="none" stroke="#FFFFFF" stroke-miterlimit="10" x1="49.7" y1="-7.3" x2="49.7" y2="407.5"/>
<line fill="none" stroke="#FFFFFF" stroke-miterlimit="10" x1="99.7" y1="-7.3" x2="99.7" y2="407.5"/>
<line fill="none" stroke="#FFFFFF" stroke-miterlimit="10" x1="149.7" y1="-7.3" x2="149.7" y2="407.5"/>
<line fill="none" stroke="#FFFFFF" stroke-miterlimit="10" x1="199.7" y1="-7.3" x2="199.7" y2="407.5"/>
<line fill="none" stroke="#FFFFFF" stroke-miterlimit="10" x1="249.7" y1="-7.3" x2="249.7" y2="407.5"/>
<line fill="none" stroke="#FFFFFF" stroke-miterlimit="10" x1="299.7" y1="-7.3" x2="299.7" y2="407.5"/>
<line fill="none" stroke="#FFFFFF" stroke-miterlimit="10" x1="349.7" y1="-7.3" x2="349.7" y2="407.5"/>
<line fill="none" stroke="#FFFFFF" stroke-miterlimit="10" x1="399.7" y1="-7.3" x2="399.7" y2="407.5"/>
</svg>
