<svg width="170" height="109" viewBox="0 0 170 109" fill="none" xmlns="http://www.w3.org/2000/svg">
<g clip-path="url(#clip0_812_8337)">
<g style="mix-blend-mode:multiply" opacity="0.5">
<path d="M98.844 60.9179C101.106 42.5905 104.636 13.9875 104.636 13.9875L10.3574 2.35175L8.0578 78.4374L95.3394 89.3078C95.3394 89.3078 97.4755 72.0049 98.844 60.9179Z" fill="#005752"/>
</g>
<path d="M15.3292 95.1095C10.1226 90.6781 3.6475 84.0974 2.96794 79.6051C2.28962 75.1116 3.70341 67.7048 3.70341 67.7048C3.70341 67.7048 13.8061 69.9224 20.67 73.6481C22.1533 74.4519 28.4433 77.6037 29.58 80.635C30.9615 84.3186 32.0895 89.7637 32.0808 89.8805C31.7019 94.9579 20.4252 99.4477 15.3292 95.1095V95.1095Z" fill="#FF8C71"/>
<path d="M6.54214 71.8443C5.70854 77.0733 10.5586 80.1803 10.5586 80.1803L11.3164 72.2232C11.3164 72.2232 7.24034 67.4626 6.54214 71.8443V71.8443Z" fill="#EA6D54"/>
<path d="M65.2686 125.574H34.3531L22.0018 104.203L17.1517 96.0189L31.4746 89.1227L35.4153 94.8821L65.2686 125.574Z" fill="#FF8C71"/>
<path d="M9.31605 0.770936L0.0145798 76.0906L94.2924 87.7333L103.594 12.4136L9.31605 0.770936Z" fill="#380E78"/>
<g style="mix-blend-mode:multiply" opacity="0.44">
<path d="M103.575 12.396L94.2784 87.7164L7.62939e-06 76.0806L0.811257 69.5062C27.8085 72.2518 63.4175 75.0545 73.309 71.9859C87.6145 67.5495 100.161 23.9945 103.277 12.3587L103.575 12.396V12.396Z" fill="#380E78"/>
</g>
<path d="M89.4196 68.516L93.282 65.399L90.2893 61.6906L92.9081 40.4715L96.4823 37.5868L93.3653 33.7244L90.5104 36.0289L72.0182 33.7468L69.9485 31.1813L66.0861 34.2984L68.208 36.9271L65.5109 58.7749L61.8895 61.6981L65.0065 65.5605L66.8352 64.0846L87.945 66.691L89.4196 68.516Z" fill="#1A0B3F"/>
<g style="mix-blend-mode:screen" opacity="0.5">
<path d="M95.8375 11.4407L3.26986 49.5878L9.29643 0.760315L95.8375 11.4407Z" fill="#380E78"/>
</g>
<g style="mix-blend-mode:multiply" opacity="0.44">
<path d="M17.0138 19.2907L12.4185 18.7233L8.02602 54.292L12.6213 54.8594L17.0138 19.2907Z" fill="#380E78"/>
</g>
<g style="mix-blend-mode:multiply" opacity="0.44">
<path d="M23.7146 20.1182L19.1193 19.5507L14.7268 55.1194L19.3221 55.6869L23.7146 20.1182Z" fill="#380E78"/>
</g>
<path d="M47.8337 19.0363L17.1318 15.2472L17.4747 12.4693L17.9903 12.5327L17.7108 14.795L47.3802 18.4574L47.7579 15.2994L48.2734 15.3615L47.8337 19.0363Z" fill="#8C76C1"/>
<path d="M27.8839 9.79203L27.8203 10.3074L43.7724 12.2774L43.8361 11.762L27.8839 9.79203Z" fill="#8C76C1"/>
<path d="M25.7199 12.1779L25.2665 15.8497L25.7819 15.9133L26.2353 12.2416L25.7199 12.1779Z" fill="#8C76C1"/>
<path d="M34.82 13.2962L34.3807 16.8533L34.8961 16.9169L35.3354 13.3598L34.82 13.2962Z" fill="#8C76C1"/>
<g style="mix-blend-mode:multiply" opacity="0.3">
<path d="M28.3328 16.6014L27.7339 21.9211L28.3328 16.6014Z" fill="#2E58C7"/>
</g>
<path d="M28.1439 19.3109L13.4508 17.4971L14.1254 12.0271L14.641 12.0917L14.0297 17.0449L28.2073 18.7953L28.1439 19.3109Z" fill="#8C76C1"/>
<path d="M41.4617 18.1968L40.6199 25.0127L41.1353 25.0763L41.977 18.2605L41.4617 18.1968Z" fill="#8C76C1"/>
<path d="M66.7967 20.1557L47.7629 17.8064L47.8262 17.2909L66.3445 19.5768L66.5433 17.9729L67.0588 18.0363L66.7967 20.1557Z" fill="#8C76C1"/>
<path d="M64.6885 24.5187L58.5314 23.7584C58.524 23.7584 57.2755 23.6292 56.0319 23.4888C53.4093 23.1919 53.377 23.1497 53.2875 23.0354C53.2006 22.9236 53.1646 22.8776 53.4789 20.5507C53.6267 19.4525 53.7882 18.3543 53.7895 18.3431L54.3038 18.4189C54.0478 20.1581 53.787 22.0987 53.7484 22.6751C54.4206 22.7956 56.976 23.0776 58.5911 23.2429L64.2387 23.9398L64.7617 19.7022L65.2773 19.7655L64.691 24.5187H64.6885Z" fill="#8C76C1"/>
<path d="M41.0597 28.8238L40.996 29.3392L46.8958 30.0678L46.9595 29.5524L41.0597 28.8238Z" fill="#8C76C1"/>
<path d="M41.286 27.2232L41.2223 27.7386L47.1221 28.4671L47.1857 27.9518L41.286 27.2232Z" fill="#8C76C1"/>
<path d="M62.4179 48.0359L62.3542 48.5512L68.9987 49.3718L69.0623 48.8564L62.4179 48.0359Z" fill="#8C76C1"/>
<path d="M61.6651 52.9426L61.6015 53.458L68.4173 54.2998L68.481 53.7843L61.6651 52.9426Z" fill="#8C76C1"/>
<path d="M77.2771 69.0453L53.9087 66.1606L54.8728 58.3426L55.3883 58.4059L54.4876 65.7096L76.8261 68.4664L77.8262 60.3614L78.3417 60.4247L77.2771 69.0453Z" fill="#8C76C1"/>
<path d="M65.5858 53.5609L63.9055 67.168L64.4208 67.2316L66.1012 53.6246L65.5858 53.5609Z" fill="#8C76C1"/>
<path d="M49.9795 62.0828L49.9158 62.5982L54.3829 63.1498L54.4465 62.6344L49.9795 62.0828Z" fill="#8C76C1"/>
<path d="M64.7213 62.4453L64.6576 62.9607L77.3609 64.5295L77.4245 64.0141L64.7213 62.4453Z" fill="#8C76C1"/>
<path d="M82.1481 61.6545L81.363 68.0117L81.8784 68.0753L82.6635 61.7181L82.1481 61.6545Z" fill="#8C76C1"/>
<path d="M89.7918 40.9869L89.7281 41.5022L95.9719 42.2733L96.0356 41.7579L89.7918 40.9869Z" fill="#8C76C1"/>
<path d="M88.7842 49.0216L88.7206 49.537L94.9643 50.308L95.028 49.7927L88.7842 49.0216Z" fill="#8C76C1"/>
<path d="M92.1586 41.3775L91.1613 49.4534L91.6767 49.5171L92.674 41.4411L92.1586 41.3775Z" fill="#8C76C1"/>
<path d="M71.0019 11.9342L70.9383 12.4495L75.6926 13.0367L75.7563 12.5213L71.0019 11.9342Z" fill="#8C76C1"/>
<path d="M22.5801 23.9828L22.5165 24.4982L27.0415 25.057L27.1051 24.5416L22.5801 23.9828Z" fill="#8C76C1"/>
<path d="M37.7143 22.0152L37.6506 22.5306L40.9722 22.9408L41.0359 22.4254L37.7143 22.0152Z" fill="#8C76C1"/>
<path d="M39.5758 39.4588L39.5122 39.9742L46.386 40.823L46.4496 40.3076L39.5758 39.4588Z" fill="#8C76C1"/>
<path d="M20.8279 18.1917L20.5922 20.1004L21.1076 20.164L21.3433 18.2554L20.8279 18.1917Z" fill="#8C76C1"/>
<path d="M14.6403 17.4279L14.4046 19.3365L14.92 19.4001L15.1557 17.4915L14.6403 17.4279Z" fill="#8C76C1"/>
<path d="M27.2084 8.75724L26.6928 8.69388L27.0494 5.80049L21.0924 5.06502L20.8414 7.09872L20.3259 7.03536L20.6402 4.48608L27.6283 5.34952L27.2084 8.75724Z" fill="#8C76C1"/>
<path d="M16.8324 6.60427L16.3169 6.54091L16.5392 4.73579L20.6924 5.24888L20.6278 5.76445L16.9915 5.31597L16.8324 6.60427Z" fill="#8C76C1"/>
<path d="M35.6986 9.68896L35.183 9.6256L35.3358 8.39321L27.2879 7.40058L27.3513 6.88501L35.9147 7.94224L35.6986 9.68896Z" fill="#8C76C1"/>
<path d="M20.9718 9.24873L20.9082 9.7641L25.3185 10.3087L25.3821 9.79337L20.9718 9.24873Z" fill="#8C76C1"/>
<path d="M9.69096 54.1692L9.01902 59.6103L9.53441 59.6739L10.2063 54.2328L9.69096 54.1692Z" fill="#8C76C1"/>
<path d="M16.3324 55.0189L15.6605 60.46L16.1759 60.5237L16.8478 55.0826L16.3324 55.0189Z" fill="#8C76C1"/>
<path d="M16.2356 66.7007L16.172 67.216L35.9328 69.6564L35.9964 69.141L16.2356 66.7007Z" fill="#8C76C1"/>
<path d="M22.9062 71.4082L16.0386 70.5001L16.1057 69.9858L22.4552 70.8244L22.8255 67.8266L23.341 67.89L22.9062 71.4082Z" fill="#8C76C1"/>
<path d="M23.1509 53.4093L19.1121 52.9111L19.1767 52.3955L22.6987 52.8303L23.4516 46.7305L23.9672 46.7938L23.1509 53.4093Z" fill="#8C76C1"/>
<path d="M24.5269 38.0891L24.1661 41.01L24.6815 41.0737L25.0422 38.1528L24.5269 38.0891Z" fill="#8C76C1"/>
<path d="M26.1065 25.7204L25.1517 33.4523L25.667 33.516L26.6219 25.784L26.1065 25.7204Z" fill="#8C76C1"/>
<path d="M21.2032 33.2954L21.1395 33.8108L24.5758 34.2352L24.6395 33.7198L21.2032 33.2954Z" fill="#8C76C1"/>
<path d="M21.0261 34.9592L20.9625 35.4745L24.3988 35.8989L24.4624 35.3835L21.0261 34.9592Z" fill="#8C76C1"/>
<path d="M20.0361 42.7462L19.9725 43.2616L23.4087 43.686L23.4724 43.1706L20.0361 42.7462Z" fill="#8C76C1"/>
<path d="M19.8566 44.4087L19.7929 44.924L23.2292 45.3484L23.2929 44.833L19.8566 44.4087Z" fill="#8C76C1"/>
<path d="M9.57639 56.8066L9.51274 57.322L28.8432 59.7092L28.9069 59.1938L9.57639 56.8066Z" fill="#8C76C1"/>
<path d="M23.1494 56.7891L22.5587 61.5718L23.0741 61.6355L23.6647 56.8528L23.1494 56.7891Z" fill="#8C76C1"/>
<path d="M29.1986 24.5668L29.135 25.0822L35.5501 25.8745L35.6138 25.3591L29.1986 24.5668Z" fill="#8C76C1"/>
<path d="M26.0797 34.0711L26.0161 34.5865L32.4312 35.3787L32.4948 34.8633L26.0797 34.0711Z" fill="#8C76C1"/>
<path d="M25.9952 35.6886L25.9315 36.204L32.3467 36.9962L32.4103 36.4808L25.9952 35.6886Z" fill="#8C76C1"/>
<path d="M24.9414 43.2928L24.8778 43.8082L31.2929 44.6004L31.3566 44.085L24.9414 43.2928Z" fill="#8C76C1"/>
<path d="M24.8581 44.9104L24.7945 45.4258L31.2096 46.218L31.2733 45.7027L24.8581 44.9104Z" fill="#8C76C1"/>
<path d="M23.2361 50.7392L23.177 51.2551L29.8284 52.0177L29.8875 51.5018L23.2361 50.7392Z" fill="#8C76C1"/>
<path d="M29.4633 57.6195L23.9634 56.9412L24.6703 51.2177L25.1859 51.2823L24.5424 56.489L29.5279 57.1039L29.4633 57.6195Z" fill="#8C76C1"/>
<path d="M27.5421 73.3308L27.4785 73.8462L36.7578 74.9921L36.8215 74.4768L27.5421 73.3308Z" fill="#8C76C1"/>
<path d="M30.5006 65.9469L22.1372 64.9146L22.3111 63.512L22.8267 63.5753L22.7174 64.4636L30.0484 65.368L30.5677 61.1577L31.0833 61.2211L30.5006 65.9469Z" fill="#8C76C1"/>
<path d="M33.1524 58.9597L33.0888 59.4751L39.2746 60.239L39.3382 59.7236L33.1524 58.9597Z" fill="#8C76C1"/>
<path d="M32.914 61.1418L32.8504 61.6572L39.0362 62.4211L39.0998 61.9057L32.914 61.1418Z" fill="#8C76C1"/>
<path d="M54.0988 68.859L30.2422 65.9146L30.3056 65.399L53.6466 68.28L53.8416 66.7047L54.3572 66.7693L54.0988 68.859Z" fill="#8C76C1"/>
<path d="M63.0337 69.9622L53.8404 68.8279L53.905 68.3123L62.5815 69.3832L62.7628 67.9222L63.2784 67.9856L63.0337 69.9622Z" fill="#8C76C1"/>
<path d="M76.9274 70.5504L76.5314 73.7573L77.0468 73.821L77.4428 70.614L76.9274 70.5504Z" fill="#8C76C1"/>
<path d="M83.3965 71.3788L83.0004 74.5858L83.5158 74.6494L83.9119 71.4425L83.3965 71.3788Z" fill="#8C76C1"/>
<path d="M80.068 70.9619L79.6719 74.1689L80.1873 74.2325L80.5834 71.0256L80.068 70.9619Z" fill="#8C76C1"/>
<path d="M92.5056 70.5175L84.9733 69.5882L85.0367 69.0726L92.0534 69.9386L94.4896 50.2065L95.0052 50.2699L92.5056 70.5175Z" fill="#8C76C1"/>
<path d="M87.7484 55.2886L87.6847 55.804L94.0703 56.5925L94.1339 56.0772L87.7484 55.2886Z" fill="#8C76C1"/>
<path d="M87.1971 61.1524L87.1335 61.6678L93.519 62.4564L93.5826 61.941L87.1971 61.1524Z" fill="#8C76C1"/>
<path d="M89.8309 71.9325L84.7037 71.2989L84.7683 70.7833L89.3787 71.3523L89.5352 70.0876L90.0508 70.151L89.8309 71.9325Z" fill="#8C76C1"/>
<path d="M76.5648 16.4828L74.0573 36.7874L74.5727 36.851L77.0802 16.5465L76.5648 16.4828Z" fill="#8C76C1"/>
<path d="M83.0183 17.4532L80.532 37.5864L81.0474 37.65L83.5337 17.5168L83.0183 17.4532Z" fill="#8C76C1"/>
<path d="M88.8795 29.7785L87.8044 38.4845L88.3198 38.5481L89.3949 29.8421L88.8795 29.7785Z" fill="#8C76C1"/>
<path d="M75.9962 27.8333L70.0106 27.0941L70.4566 23.4864L64.5282 22.7546L64.5916 22.239L71.0355 23.0341L70.5896 26.6431L76.0596 27.3177L75.9962 27.8333Z" fill="#8C76C1"/>
<path d="M35.7989 36.3454L35.7352 36.8608L39.1148 37.2781L39.1785 36.7627L35.7989 36.3454Z" fill="#8C76C1"/>
<path d="M35.5804 38.1525L35.5167 38.6679L38.8963 39.0853L38.96 38.5699L35.5804 38.1525Z" fill="#8C76C1"/>
<path d="M36.9008 27.4094L36.8372 27.9248L40.2167 28.3421L40.2804 27.8267L36.9008 27.4094Z" fill="#8C76C1"/>
<path d="M36.6785 29.2129L36.6149 29.7283L39.9945 30.1457L40.0581 29.6303L36.6785 29.2129Z" fill="#8C76C1"/>
<path d="M34.5191 46.7127L34.4555 47.2281L37.835 47.6454L37.8987 47.13L34.5191 46.7127Z" fill="#8C76C1"/>
<path d="M34.2633 48.487L34.1998 49.0023L37.5794 49.4191L37.643 48.9037L34.2633 48.487Z" fill="#8C76C1"/>
<path d="M51.9681 27.1466L51.9044 27.662L57.0595 28.2986L57.1231 27.7832L51.9681 27.1466Z" fill="#8C76C1"/>
<path d="M51.4304 31.7323L51.3668 32.2477L56.5218 32.8843L56.5855 32.3689L51.4304 31.7323Z" fill="#8C76C1"/>
<path d="M47.3606 34.0174L46.5967 40.2032L47.1121 40.2668L47.876 34.081L47.3606 34.0174Z" fill="#8C76C1"/>
<path d="M51.7359 41.6443L49.0015 41.371L49.8711 34.3195L50.3867 34.3841L49.5817 40.9076L51.7868 41.1275L51.7359 41.6443Z" fill="#8C76C1"/>
<path d="M49.0666 17.7119L48.1931 24.7855L48.7085 24.8491L49.582 17.7756L49.0666 17.7119Z" fill="#8C76C1"/>
<path d="M51.358 17.9936L50.4845 25.0671L50.9999 25.1307L51.8734 18.0572L51.358 17.9936Z" fill="#8C76C1"/>
<path d="M67.188 29.7117L62.5193 29.1353L62.5827 28.6197L66.7358 29.1328L67.5061 22.8913L68.0216 22.9559L67.188 29.7117Z" fill="#8C76C1"/>
<path d="M66.6153 34.3506L62.6908 33.8673L62.7554 33.3518L66.1631 33.7717L66.8315 28.3588L67.347 28.4234L66.6153 34.3506Z" fill="#8C76C1"/>
<path d="M66.0562 38.8764L62.1329 38.3919L62.1963 37.8763L65.604 38.2975L66.2724 32.8846L66.788 32.948L66.0562 38.8764Z" fill="#8C76C1"/>
<path d="M59.6666 37.9155L58.6511 46.1382L59.1665 46.2018L60.182 37.9791L59.6666 37.9155Z" fill="#8C76C1"/>
<path d="M56.7974 37.5575L55.782 45.7801L56.2974 45.8438L57.3128 37.6211L56.7974 37.5575Z" fill="#8C76C1"/>
<path d="M95.563 25.0132L82.5843 23.4106L82.6477 22.895L95.1108 24.433L95.6586 19.9966L96.1742 20.06L95.563 25.0132Z" fill="#8C76C1"/>
<path d="M96.2376 42.1649L95.722 42.1015L97.2663 29.5862L90.4794 28.7489L90.5427 28.2333L97.8452 29.134L96.2376 42.1649Z" fill="#8C76C1"/>
<path d="M11.9163 18.3083L7.52376 53.877L12.119 54.4445L16.5115 18.8758L11.9163 18.3083Z" fill="#ECCFB2"/>
<g style="mix-blend-mode:multiply" opacity="0.44">
<path d="M89.9873 80.5579L35.9172 73.8841L35.8389 74.514L34.3506 74.3301L34.1096 76.2781L35.5991 76.462L35.5569 76.8048L89.6271 83.4787L89.6693 83.1346L90.9862 83.2973L91.2272 81.3506L89.9091 81.1878L89.9873 80.5579Z" fill="#380E78"/>
<path d="M90.5452 76.0321L90.6235 75.4023L36.5533 68.7297L36.475 69.3595L34.9867 69.1757L34.7457 71.1224L36.2352 71.3063L36.193 71.6504L90.2632 78.3242L90.3054 77.9801L91.6223 78.1429L91.8633 76.1949L90.5452 76.0321Z" fill="#380E78"/>
</g>
<path d="M18.6188 19.1348L14.2263 54.7035L18.8215 55.271L23.214 19.7023L18.6188 19.1348Z" fill="#ECCFB2"/>
<path d="M14.9301 18.6279L13.7268 18.4792L9.30046 54.3217L10.5038 54.4703L14.9301 18.6279Z" fill="#1C0B30"/>
<g style="mix-blend-mode:multiply" opacity="0.44">
<path d="M38.6835 21.2239L34.2165 20.6723L29.052 62.4921L33.5191 63.0438L38.6835 21.2239Z" fill="#380E78"/>
</g>
<path d="M21.6372 19.4224L20.4338 19.2738L16.0075 55.1162L17.2109 55.2649L21.6372 19.4224Z" fill="#1C0B30"/>
<path d="M33.7879 20.1504L28.6234 61.9703L33.0905 62.5219L38.255 20.7021L33.7879 20.1504Z" fill="#C63038"/>
<g style="mix-blend-mode:multiply" opacity="0.44">
<path d="M63.1318 46.0807L61.4795 59.4719C61.4658 59.5824 61.3789 59.6657 61.272 59.6781C61.2534 59.6806 61.2348 59.6806 61.2149 59.6781L41.5226 57.2481C41.3922 57.2319 41.3002 57.1139 41.3164 56.9847L42.9687 43.5936C42.9848 43.4631 43.1029 43.3712 43.2321 43.3873L62.9243 45.8173C63.0548 45.8335 63.1467 45.9515 63.1306 46.0807H63.1318Z" fill="#380E78"/>
</g>
<path d="M62.6299 45.4372L60.9776 58.8283C60.9639 58.9389 60.877 59.0221 60.7714 59.0345C60.7527 59.037 60.7341 59.037 60.7142 59.0345L41.022 56.6045C40.8915 56.5884 40.7996 56.4703 40.8157 56.3411L42.468 42.95C42.4842 42.8196 42.6022 42.7276 42.7314 42.7438L62.4237 45.1738C62.5541 45.1899 62.6461 45.308 62.6299 45.4372V45.4372Z" fill="#E6E6E6"/>
<path d="M90.333 74.8069L36.2636 68.1297L35.9029 71.0506L89.9723 77.7278L90.333 74.8069Z" fill="#5A2EAF"/>
<g style="mix-blend-mode:multiply" opacity="0.44">
<path d="M92.147 29.428C92.3419 28.0953 91.4195 26.8569 90.0868 26.662C88.7542 26.4672 87.5158 27.3895 87.3209 28.7222C87.126 30.0549 88.0484 31.2932 89.3811 31.4881C90.7138 31.683 91.9521 30.7607 92.147 29.428Z" fill="#380E78"/>
</g>
<path d="M89.6972 79.9626L35.6278 73.2854L35.2671 76.2063L89.3365 82.8835L89.6972 79.9626Z" fill="#5A2EAF"/>
<path d="M89.9925 76.1604L36.3805 69.5396L36.3169 70.055L89.9289 76.6758L89.9925 76.1604Z" fill="#271147"/>
<path d="M89.3638 81.2577L35.7518 74.637L35.6882 75.1524L89.3002 81.7731L89.3638 81.2577Z" fill="#271147"/>
<path d="M91.59 75.5799L91.3502 77.5279L88.5438 77.1813C88.0058 77.1155 87.6244 76.6247 87.6903 76.0868C87.7238 75.8172 87.8617 75.5886 88.0605 75.4333C88.1437 75.3675 88.2381 75.3166 88.34 75.2805C88.4779 75.2308 88.6295 75.2135 88.7848 75.2321L91.5912 75.5787L91.59 75.5799Z" fill="#ECCFB2"/>
<path d="M38.3733 70.0006C38.3273 70.3708 38.0813 70.6665 37.7571 70.7945C37.6105 70.8529 37.4465 70.8752 37.2788 70.8541L34.4723 70.5075L34.7121 68.5595L37.5185 68.9061C37.7881 68.9397 38.0167 69.0776 38.172 69.2763C38.3261 69.4751 38.4056 69.731 38.372 70.0006H38.3733Z" fill="#ECCFB2"/>
<path d="M90.9539 80.7344L90.7142 82.6824L87.9077 82.3358C87.3698 82.27 86.9884 81.7793 87.0542 81.2413C87.0878 80.9717 87.2257 80.7431 87.4244 80.5879C87.5226 80.5108 87.6356 80.4524 87.7574 80.4177C87.8804 80.3816 88.0121 80.3704 88.1475 80.3878L90.9539 80.7344V80.7344Z" fill="#ECCFB2"/>
<path d="M37.7372 75.1551C37.6987 75.4657 37.5198 75.7241 37.2701 75.8744C37.0887 75.985 36.8701 76.0372 36.6427 76.0086L33.8363 75.662L34.0761 73.714L36.8825 74.0606C37.1521 74.0941 37.3807 74.232 37.536 74.4308C37.69 74.6296 37.7695 74.8855 37.736 75.1551H37.7372Z" fill="#ECCFB2"/>
<g style="mix-blend-mode:multiply" opacity="0.44">
<path d="M87.422 63.3777L68.7025 61.067C68.4938 61.0409 68.3459 60.852 68.372 60.6433L71.2406 37.398C71.2666 37.1893 71.4555 37.0414 71.6642 37.0675L90.3837 39.3783C90.5924 39.4044 90.7403 39.5932 90.7142 39.8019L87.8456 63.0472C87.8195 63.256 87.6307 63.4038 87.422 63.3777Z" fill="#380E78"/>
</g>
<path d="M86.8194 62.605L68.0999 60.2942C67.8912 60.2682 67.7433 60.0793 67.7694 59.8706L70.638 36.6253C70.6641 36.4165 70.8529 36.2687 71.0616 36.2948L89.7811 38.6055C89.9898 38.6316 90.1377 38.8205 90.1116 39.0292L87.2431 62.2745C87.217 62.4832 87.0281 62.6311 86.8194 62.605V62.605Z" fill="#D6D6D6"/>
<g style="mix-blend-mode:multiply" opacity="0.44">
<path d="M100.19 11.9417L92.8614 11.0366L91.567 21.5181L98.8957 22.4232L100.19 11.9417Z" fill="#380E78"/>
</g>
<path d="M99.8894 11.5572L92.8848 10.6922L91.5904 21.1737L98.595 22.0387L99.8894 11.5572Z" fill="#B6B6B7"/>
<path d="M93.2422 8.04912L91.9478 18.5306L98.9523 19.3956L100.247 8.91412L93.2422 8.04912Z" fill="#E6E6E6"/>
<g style="mix-blend-mode:multiply" opacity="0.44">
<path d="M70.7809 19.2226L60.4285 17.9455L61.6882 7.22168L72.0418 8.50005L70.7809 19.2226Z" fill="#380E78"/>
</g>
<path d="M71.5103 8.05203L61.718 6.84276L60.4236 17.3242L70.2159 18.5335L71.5103 8.05203Z" fill="#B6B6B7"/>
<g style="mix-blend-mode:multiply" opacity="0.44">
<path d="M53.3993 6.20422L52.0564 17.0858L44.5676 16.046L44.0122 13.4185L50.255 5.81537L53.3993 6.20422Z" fill="#380E78"/>
</g>
<path d="M62.074 4.20192L60.7796 14.6834L70.5706 15.8925L71.865 5.41104L62.074 4.20192Z" fill="#E6E6E6"/>
<path d="M43.4532 12.8259L44.4433 15.3329L51.4488 16.1976L53.1024 2.79402L52.8117 1.07214L43.4532 12.8259Z" fill="#B6B6B7"/>
<g style="mix-blend-mode:multiply" opacity="0.44">
<path d="M78.3382 27.6785C78.4875 26.5598 77.7015 25.5318 76.5828 25.3826C75.464 25.2333 74.4361 26.0192 74.2868 27.138C74.1375 28.2567 74.9234 29.2847 76.0422 29.4339C77.161 29.5832 78.1889 28.7973 78.3382 27.6785Z" fill="#380E78"/>
</g>
<g style="mix-blend-mode:multiply" opacity="0.44">
<path d="M84.2786 29.9015C85.2309 28.9491 85.2309 27.405 84.2786 26.4526C83.3262 25.5003 81.7821 25.5003 80.8297 26.4526C79.8773 27.405 79.8773 28.9491 80.8297 29.9015C81.7821 30.8539 83.3262 30.8539 84.2786 29.9015Z" fill="#380E78"/>
</g>
<path d="M44.7372 2.35271L43.4428 12.8342L50.4473 13.6992L51.7417 3.21772L44.7372 2.35271Z" fill="#E6E6E6"/>
<path d="M44.1407 0.00970655L43.6172 4.24866L52.2887 5.31953L52.8122 1.08058L44.1407 0.00970655Z" fill="#E6E6E6"/>
<g style="mix-blend-mode:multiply" opacity="0.44">
<path d="M25.3581 77.3401C27.1683 77.1839 28.5091 75.59 28.353 73.7798C28.1968 71.9697 26.6028 70.6289 24.7927 70.785C22.9826 70.9411 21.6418 72.5351 21.7979 74.3453C21.954 76.1554 23.548 77.4962 25.3581 77.3401Z" fill="#380E78"/>
</g>
<path d="M36.5147 20.4447L35.3114 20.2961L30.1387 62.1825L31.342 62.3311L36.5147 20.4447Z" fill="#1C0B30"/>
<path d="M27.7923 73.7537C27.719 74.3488 27.4904 74.8867 27.1537 75.3327C26.8966 75.6731 26.5748 75.9613 26.2096 76.1775C25.6244 76.5278 24.925 76.698 24.1982 76.6235C24.1746 76.6222 24.1498 76.6185 24.1249 76.616C22.3223 76.3936 21.0402 74.7513 21.2626 72.9486C21.2651 72.9238 21.2688 72.8989 21.2725 72.8753C21.3781 72.1511 21.7135 71.5162 22.1943 71.033C22.4937 70.7311 22.8503 70.4888 23.2429 70.3223C23.7572 70.1037 24.3349 70.013 24.9287 70.0863C25.1325 70.1111 25.33 70.1546 25.5188 70.2143C26.8133 70.6217 27.7289 71.7958 27.8097 73.1511C27.8209 73.3487 27.8159 73.5499 27.7911 73.7537H27.7923Z" fill="#E6E6E6"/>
<path d="M77.8795 27.1351C77.8771 27.15 77.8758 27.1649 77.8733 27.1798C77.7851 27.7885 77.4336 28.2979 76.9515 28.6072C76.836 28.6805 76.713 28.7427 76.5838 28.7923C76.2819 28.9091 75.9465 28.9551 75.6023 28.9116C75.3203 28.8768 75.0582 28.7861 74.8271 28.652C74.1662 28.2681 73.7538 27.5301 73.8159 26.7276C73.8184 26.6965 73.8208 26.6655 73.8246 26.6332C73.8979 26.0418 74.2172 25.5399 74.6669 25.2194C74.7874 25.1324 74.9178 25.0591 75.0557 25.0007C75.375 24.8653 75.7328 24.8094 76.103 24.8554C76.3241 24.8827 76.5328 24.9448 76.7242 25.0355C77.5006 25.402 77.9914 26.2356 77.8795 27.1338V27.1351Z" fill="#E6E6E6"/>
<path d="M53.1248 41.4492C53.0477 42.0741 52.4788 42.5189 51.8526 42.4419C51.2277 42.3648 50.783 41.7959 50.86 41.1697C50.937 40.5448 51.506 40.1001 52.1321 40.1771C52.757 40.2541 53.2018 40.8231 53.1248 41.4492Z" fill="#E6E6E6"/>
<path d="M60.1129 23.936C60.0359 24.5609 59.4669 25.0057 58.8408 24.9287C58.2159 24.8516 57.7711 24.2827 57.8481 23.6565C57.9252 23.0316 58.4941 22.5869 59.1203 22.6639C59.7452 22.7409 60.1899 23.3099 60.1129 23.936Z" fill="#E6E6E6"/>
<g style="mix-blend-mode:multiply" opacity="0.44">
<path d="M24.8728 57.0356C24.7958 57.6605 24.2268 58.1053 23.6007 58.0283C22.9758 57.9512 22.531 57.3822 22.608 56.7561C22.6851 56.13 23.2541 55.6864 23.8802 55.7635C24.5051 55.8405 24.9499 56.4095 24.8728 57.0356Z" fill="#380E78"/>
</g>
<g style="mix-blend-mode:multiply" opacity="0.44">
<path d="M24.1448 62.9355C24.0678 63.5604 23.4988 64.0051 22.8726 63.9281C22.2477 63.8511 21.803 63.2821 21.88 62.656C21.957 62.0311 22.526 61.5863 23.1522 61.6633C23.7771 61.7403 24.2218 62.3093 24.1448 62.9355Z" fill="#380E78"/>
</g>
<path d="M47.9119 40.8057C47.8349 41.4306 47.2659 41.8754 46.6398 41.7984C46.0149 41.7213 45.5701 41.1523 45.6472 40.5262C45.7242 39.9001 46.2932 39.4566 46.9193 39.5336C47.5442 39.6106 47.989 40.1796 47.9119 40.8057V40.8057Z" fill="#E6E6E6"/>
<g style="mix-blend-mode:multiply" opacity="0.44">
<path d="M64.8623 67.4365C64.7853 68.0614 64.2163 68.5061 63.5902 68.4291C62.9653 68.3521 62.5205 67.7831 62.5976 67.157C62.6746 66.5321 63.2436 66.0873 63.8697 66.1643C64.4946 66.2414 64.9394 66.8103 64.8623 67.4365Z" fill="#380E78"/>
</g>
<g style="mix-blend-mode:multiply" opacity="0.44">
<path d="M55.812 66.3196C55.7349 66.9445 55.166 67.3893 54.5398 67.3122C53.9137 67.2352 53.4702 66.6662 53.5472 66.0401C53.6242 65.4152 54.1932 64.9704 54.8193 65.0475C55.4442 65.1245 55.889 65.6935 55.812 66.3196Z" fill="#380E78"/>
</g>
<path d="M64.6611 67.1792C64.5841 67.8041 64.0151 68.2489 63.389 68.1719C62.7628 68.0948 62.3193 67.5259 62.3964 66.8997C62.4734 66.2736 63.0424 65.8301 63.6685 65.9071C64.2934 65.9841 64.7382 66.5531 64.6611 67.1792Z" fill="#E6E6E6"/>
<path d="M24.6144 56.771C24.5896 56.976 24.5113 57.1611 24.3958 57.3139C24.2479 57.5114 24.038 57.658 23.7982 57.7276C23.6541 57.7686 23.5 57.7822 23.3423 57.7636C22.7174 57.6866 22.2726 57.1176 22.3496 56.4914C22.3832 56.2243 22.5062 55.9895 22.6851 55.8156C22.8664 55.638 23.1062 55.5224 23.3684 55.4976C23.4503 55.4889 23.5348 55.4901 23.6206 55.5001C24.2454 55.5771 24.6902 56.1473 24.6132 56.7722L24.6144 56.771Z" fill="#E6E6E6"/>
<path d="M23.8864 62.6708C23.8591 62.8932 23.7696 63.092 23.6367 63.2535C23.4801 63.4436 23.2665 63.5815 23.0242 63.6399C22.8938 63.6722 22.7546 63.6809 22.6142 63.6635C21.9893 63.5864 21.5446 63.0174 21.6216 62.3913C21.6527 62.1416 21.762 61.9192 21.9235 61.749C22.0974 61.5639 22.3322 61.4384 22.5906 61.4012C22.6888 61.3875 22.7907 61.3863 22.8938 61.3987C23.5187 61.4757 23.9634 62.0459 23.8864 62.6708Z" fill="#E6E6E6"/>
<path d="M55.6107 66.0624C55.5337 66.6873 54.9647 67.132 54.3385 67.055C53.7124 66.978 53.2689 66.409 53.3459 65.7829C53.4229 65.1567 53.9919 64.7132 54.6181 64.7902C55.243 64.8673 55.6877 65.4363 55.6107 66.0624Z" fill="#E6E6E6"/>
<g style="mix-blend-mode:multiply" opacity="0.3">
<path d="M37.6478 11.9935C37.5099 13.1141 36.4899 13.9092 35.3693 13.7713C34.2487 13.6334 33.4536 12.6134 33.5915 11.4929C33.7294 10.3735 34.7494 9.57718 35.87 9.71508C36.9893 9.85298 37.7857 10.8729 37.6478 11.9935Z" fill="#2E58C7"/>
</g>
<g style="mix-blend-mode:multiply" opacity="0.3">
<path d="M28.5402 10.8692C28.4023 11.9885 27.3824 12.7849 26.2618 12.647C25.1424 12.5091 24.3461 11.4891 24.484 10.3685C24.6219 9.24919 25.6418 8.45285 26.7624 8.59075C27.8818 8.72865 28.6781 9.7486 28.5402 10.8692Z" fill="#2E58C7"/>
</g>
<path d="M37.3533 11.5499C37.3521 11.5649 37.3496 11.5798 37.3471 11.5934C37.29 11.9897 37.1222 12.3425 36.8787 12.627C36.7657 12.76 36.6365 12.8768 36.4936 12.9761C36.1979 13.1824 35.8464 13.3116 35.4737 13.3377C35.3432 13.3476 35.2103 13.3439 35.0761 13.3277C33.9568 13.1898 33.1604 12.1699 33.2983 11.0493C33.3095 10.9573 33.3269 10.8679 33.3493 10.7822C33.4462 10.412 33.6425 10.0865 33.9046 9.83303C34.0251 9.71625 34.1593 9.61439 34.3046 9.53115C34.6351 9.33983 35.0202 9.24044 35.424 9.26031C35.4749 9.2628 35.5246 9.26652 35.5755 9.27273C36.6949 9.41063 37.4912 10.4306 37.3533 11.5512V11.5499Z" fill="#E6E6E6"/>
<path d="M28.2458 10.4256C28.2408 10.4641 28.2358 10.5014 28.2284 10.5387C28.1588 10.9263 27.9824 11.2704 27.7339 11.545C27.6184 11.6729 27.4867 11.786 27.3426 11.8804C27.0382 12.0817 26.6792 12.2022 26.2978 12.2171C26.1897 12.2208 26.0791 12.2171 25.9686 12.2034C24.8492 12.0655 24.0529 11.0456 24.1908 9.92497C24.1995 9.85664 24.2106 9.78956 24.2256 9.72371C24.3113 9.34356 24.5014 9.00813 24.7598 8.74475C24.8765 8.62549 25.0082 8.52113 25.1499 8.43417C25.4716 8.23664 25.8493 8.12732 26.2468 8.13229C26.3201 8.13229 26.3947 8.1385 26.4692 8.1472C27.5886 8.28509 28.3849 9.30505 28.247 10.4256H28.2458Z" fill="#E6E6E6"/>
<g style="mix-blend-mode:multiply" opacity="0.44">
<path d="M98.2476 42.5587C98.1097 43.678 97.0898 44.4744 95.9692 44.3365C94.8498 44.1986 94.0535 43.1786 94.1914 42.058C94.3293 40.9387 95.3493 40.1423 96.4698 40.2802C97.5904 40.4181 98.3855 41.4381 98.2476 42.5587Z" fill="#380E78"/>
</g>
<g style="mix-blend-mode:multiply" opacity="0.44">
<path d="M96.3907 52.0353C97.3162 51.3892 97.5427 50.1152 96.8966 49.1897C96.2505 48.2643 94.9765 48.0378 94.0511 48.6839C93.1256 49.33 92.8991 50.604 93.5452 51.5294C94.1913 52.4549 95.4653 52.6813 96.3907 52.0353Z" fill="#380E78"/>
</g>
<path d="M98.0538 42.2431C98.0414 42.3486 98.0203 42.4505 97.9917 42.5499C97.8662 42.9947 97.5979 43.3699 97.2451 43.632C97.1084 43.7339 96.9593 43.8183 96.8016 43.8829C96.4872 44.0121 96.1369 44.0643 95.7754 44.0208C95.6984 44.0109 95.6226 43.9972 95.548 43.9798C94.5504 43.7413 93.8684 42.7847 93.9976 41.7424C94.02 41.5622 94.0647 41.3896 94.1293 41.2293C94.2933 40.8193 94.5852 40.4814 94.9505 40.2553C95.0896 40.1696 95.2387 40.0988 95.3952 40.0491C95.6698 39.9596 95.9692 39.9273 96.2748 39.9646C96.4326 39.9845 96.5841 40.0205 96.727 40.0739C97.6004 40.3932 98.1706 41.2802 98.0526 42.2431H98.0538Z" fill="#E6E6E6"/>
<g style="mix-blend-mode:multiply" opacity="0.44">
<path d="M90.6097 11.4357L89.7438 11.3288L88.8158 19.3556L75.1364 17.6672L76.0645 9.64048L74.6867 9.47028L74.7637 8.84042L90.688 10.8058L90.6097 11.4357Z" fill="#380E78"/>
</g>
<path d="M97.0575 50.3195C96.9855 50.9034 96.6736 51.3991 96.2326 51.7196C96.1729 51.7644 96.1108 51.8041 96.0462 51.8414C95.676 52.0538 95.2362 52.1532 94.7791 52.0973C94.538 52.0675 94.3119 51.9967 94.107 51.8936C93.3901 51.5308 92.9317 50.7655 92.9901 49.9282C92.9926 49.8909 92.9963 49.8561 93 49.8189C93.0621 49.3107 93.3069 48.8697 93.6597 48.5529C93.7367 48.4834 93.8187 48.42 93.9057 48.3628C94.2958 48.1057 94.7741 47.9814 95.2747 48.0423H95.2785C96.3258 48.1715 97.0898 49.0735 97.0712 50.1058C97.0699 50.1767 97.065 50.2487 97.0563 50.3208L97.0575 50.3195Z" fill="#E6E6E6"/>
<g style="mix-blend-mode:multiply" opacity="0.44">
<path d="M29.9863 25.0045C29.9254 25.4989 29.7204 25.9399 29.4185 26.2915C29.1924 26.5549 28.9116 26.7686 28.5961 26.9152C28.1961 27.1028 27.7389 27.1835 27.268 27.1251C27.0991 27.104 26.9363 27.0668 26.7823 27.0133C25.822 26.6878 25.1548 25.7921 25.1287 24.7697C25.125 24.6492 25.1312 24.5274 25.1461 24.4044C25.2107 23.8851 25.4331 23.4242 25.7598 23.0652C25.9934 22.808 26.2804 22.603 26.5996 22.4651C26.9848 22.2987 27.4184 22.2278 27.8656 22.2838C28.0768 22.3098 28.278 22.362 28.4669 22.4366C29.3278 22.7782 29.9279 23.5857 29.9987 24.515C30.0111 24.6753 30.0074 24.8368 29.9875 25.002L29.9863 25.0045Z" fill="#380E78"/>
</g>
<path d="M29.8571 24.6392C29.7962 25.1337 29.5912 25.5747 29.2893 25.9263C29.0632 26.1897 28.7824 26.4033 28.4669 26.5499C28.0668 26.7375 27.6097 26.8183 27.1388 26.7599C26.9699 26.7388 26.8071 26.7015 26.6531 26.6481C25.6927 26.3226 25.0256 25.4269 24.9995 24.4044C24.9958 24.2839 25.002 24.1622 25.0169 24.0392C25.0815 23.5199 25.3039 23.059 25.6306 22.6999C25.8642 22.4428 26.1512 22.2378 26.4705 22.0999C26.8556 21.9334 27.2891 21.8626 27.7364 21.9185C27.9476 21.9446 28.1488 21.9968 28.3377 22.0713C29.1986 22.413 29.7987 23.2205 29.8695 24.1497C29.8819 24.31 29.8782 24.4715 29.8583 24.6367L29.8571 24.6392Z" fill="#E6E6E6"/>
<path d="M89.3337 11.0086L75.9881 9.3605L75.0332 17.0925L88.3789 18.7406L89.3337 11.0086Z" fill="#8A1A99"/>
<path d="M76.2938 7.14974L75.339 14.8817L88.6846 16.5298L89.6395 8.79784L76.2938 7.14974Z" fill="#DB53EA"/>
<g style="mix-blend-mode:multiply" opacity="0.5">
<path d="M76.294 7.14943L76.0995 8.72394L89.4452 10.372L89.6397 8.79753L76.294 7.14943Z" fill="#DB53EA"/>
</g>
<path d="M91.0745 7.50248L75.1519 5.53615L74.8265 8.171L90.7491 10.1373L91.0745 7.50248Z" fill="#DB53EA"/>
<path d="M76.298 67.2514L75.8948 70.5163L84.7722 71.6126L85.1754 68.3477L76.298 67.2514Z" fill="#E6E6E6"/>
<g style="mix-blend-mode:multiply" opacity="0.44">
<path d="M27.0692 31.6964L25.0927 31.4523L24.2015 38.6689L26.178 38.913L27.0692 31.6964Z" fill="#380E78"/>
</g>
<g style="mix-blend-mode:multiply" opacity="0.44">
<path d="M25.9244 40.9752L23.9479 40.7311L23.0567 47.9477L25.0332 48.1917L25.9244 40.9752Z" fill="#380E78"/>
</g>
<path d="M24.6203 31.2743L23.7291 38.4909L25.7055 38.735L26.5967 31.5184L24.6203 31.2743Z" fill="#FDF770"/>
<path d="M23.4757 40.554L22.5845 47.7705L24.5609 48.0146L25.4521 40.798L23.4757 40.554Z" fill="#FDF770"/>
<g style="mix-blend-mode:multiply" opacity="0.44">
<path d="M42.2433 25.6028L40.2669 25.3587L39.3757 32.5752L41.3521 32.8193L42.2433 25.6028Z" fill="#380E78"/>
</g>
<g style="mix-blend-mode:multiply" opacity="0.44">
<path d="M41.0473 35.2847L39.0708 35.0406L38.1796 42.2572L40.1561 42.5013L41.0473 35.2847Z" fill="#380E78"/>
</g>
<g style="mix-blend-mode:multiply" opacity="0.44">
<path d="M39.7815 45.5377L37.8051 45.2936L36.9139 52.5102L38.8903 52.7543L39.7815 45.5377Z" fill="#380E78"/>
</g>
<path d="M39.9878 25.0282L39.0966 32.2448L41.0731 32.4888L41.9643 25.2723L39.9878 25.0282Z" fill="#FDF770"/>
<path d="M38.7919 34.7093L37.9007 41.9258L39.8771 42.1699L40.7683 34.9533L38.7919 34.7093Z" fill="#FDF770"/>
<path d="M37.5285 44.9633L36.6373 52.1798L38.6137 52.4239L39.5049 45.2073L37.5285 44.9633Z" fill="#FDF770"/>
<path d="M7.13227 59.4133L5.80956 70.1241L16.005 71.3832L17.3277 60.6724L7.13227 59.4133Z" fill="#2E58C7"/>
<g style="mix-blend-mode:multiply" opacity="0.44">
<path d="M13.5001 6.40482L12.8068 12.0185L21.3982 13.0795L22.0914 7.4658L13.5001 6.40482Z" fill="#380E78"/>
</g>
<path d="M13.2997 6.14817L12.6064 11.7619L21.1978 12.8228L21.891 7.20914L13.2997 6.14817Z" fill="#2E58C7"/>
<g style="mix-blend-mode:multiply" opacity="0.44">
<path d="M28.2761 17.9427L28.0051 20.1374L31.3649 20.5524L31.6359 18.3577L28.2761 17.9427Z" fill="#380E78"/>
</g>
<path d="M28.184 17.7566L27.913 19.9513L31.2728 20.3662L31.5439 18.1716L28.184 17.7566Z" fill="#2E58C7"/>
<g style="mix-blend-mode:multiply" opacity="0.3">
<path d="M47.1677 24.3452L45.8662 34.8846L51.3073 35.5565L52.6088 25.0171L47.1677 24.3452Z" fill="#2E58C7"/>
</g>
<path d="M46.9736 24.0294L45.6721 34.5688L51.1132 35.2408L52.4147 24.7013L46.9736 24.0294Z" fill="#2E58C7"/>
<g style="mix-blend-mode:multiply" opacity="0.44">
<path d="M63.7766 27.9727L55.6525 26.9694L55.2918 29.8903L63.4159 30.8936L63.7766 27.9727Z" fill="#380E78"/>
</g>
<g style="mix-blend-mode:multiply" opacity="0.44">
<path d="M63.2245 32.4394L55.1005 31.4362L54.7398 34.3571L62.8638 35.3603L63.2245 32.4394Z" fill="#380E78"/>
</g>
<g style="mix-blend-mode:multiply" opacity="0.44">
<path d="M62.7002 36.6779L54.5762 35.6746L54.2155 38.5955L62.3395 39.5988L62.7002 36.6779Z" fill="#380E78"/>
</g>
<path d="M63.5248 27.6511L55.4007 26.6478L55.04 29.5687L63.164 30.572L63.5248 27.6511Z" fill="#C63038"/>
<path d="M62.9725 32.1191L54.8485 31.1159L54.4878 34.0368L62.6118 35.0401L62.9725 32.1191Z" fill="#C63038"/>
<path d="M62.4496 36.3564L54.3256 35.3531L53.9648 38.274L62.0889 39.2773L62.4496 36.3564Z" fill="#C63038"/>
<path d="M63.3921 28.7973L55.2015 27.7859L55.1379 28.3012L63.3285 29.3127L63.3921 28.7973Z" fill="#1C0B30"/>
<path d="M62.8342 33.3225L54.6436 32.311L54.5799 32.8264L62.7705 33.8379L62.8342 33.3225Z" fill="#1C0B30"/>
<g style="mix-blend-mode:multiply" opacity="0.3">
<path d="M36.8834 58.1968L36.1683 63.9869L49.8839 65.6807L50.5989 59.8906L36.8834 58.1968Z" fill="#2E58C7"/>
</g>
<path d="M62.3113 37.561L54.1207 36.5495L54.0571 37.0649L62.2477 38.0764L62.3113 37.561Z" fill="#1C0B30"/>
<path d="M36.6893 57.8823L35.9742 63.6723L49.6898 65.3661L50.4048 59.5761L36.6893 57.8823Z" fill="#2E58C7"/>
<g style="mix-blend-mode:multiply" opacity="0.5">
<path d="M11.5786 69.4279C9.72626 69.1993 8.40938 67.5122 8.63797 65.6586L8.68021 65.3195C8.9088 63.4671 10.5959 62.1503 12.4495 62.3789C14.3018 62.6074 15.6187 64.2945 15.3901 66.1481L15.3478 66.4873C15.1192 68.3396 13.4322 69.6565 11.5786 69.4279Z" fill="#2E58C7"/>
</g>
<path d="M86.8205 11.1936L78.2859 10.1397L77.9747 12.6599L86.5093 13.7138L86.8205 11.1936Z" fill="white"/>
<path d="M53.9894 12.7277C53.9708 12.7277 53.9509 12.7277 53.9323 12.724C53.6789 12.6929 53.5 12.4619 53.531 12.2097L53.736 10.5487C53.7671 10.2952 53.9982 10.1163 54.2503 10.1474C54.5038 10.1785 54.6827 10.4095 54.6516 10.6617L54.4466 12.3227C54.4181 12.5563 54.2193 12.7277 53.9894 12.7277Z" fill="white"/>
<path d="M56.453 13.032C56.4344 13.032 56.4145 13.032 56.3959 13.0283C56.1424 12.9973 55.9635 12.7662 55.9946 12.514L56.1996 10.853C56.2306 10.5996 56.463 10.4194 56.7139 10.4517C56.9673 10.4828 57.1462 10.7138 57.1152 10.966L56.9102 12.627C56.8816 12.8606 56.6828 13.032 56.453 13.032Z" fill="white"/>
<path d="M58.9725 13.3427C58.9538 13.3427 58.934 13.3427 58.9153 13.339C58.6619 13.3079 58.483 13.0768 58.514 12.8246L58.719 11.1636C58.7501 10.9102 58.9811 10.7301 59.2333 10.7624C59.4868 10.7934 59.6657 11.0245 59.6346 11.2767L59.4296 12.9377C59.4011 13.1713 59.2023 13.3427 58.9725 13.3427Z" fill="white"/>
<g style="mix-blend-mode:multiply" opacity="0.3">
<path d="M16.2535 60.5253L16.1901 61.0409C15.5677 66.086 10.9723 69.6714 5.9272 69.049L5.79675 70.1087L15.9926 71.3672L17.3144 60.6558L16.2547 60.5253H16.2535Z" fill="#2E58C7"/>
</g>
<g style="mix-blend-mode:screen" opacity="0.5">
<path d="M62.6299 45.4372L62.4373 47.0001L49.3357 45.2844C46.1565 44.8682 43.0668 46.5342 41.6692 49.4201L42.468 42.9488C42.4842 42.8196 42.6022 42.7264 42.7314 42.7426L62.4237 45.1726C62.5529 45.1887 62.646 45.3067 62.6299 45.4359V45.4372Z" fill="#E6E6E6"/>
</g>
<g style="mix-blend-mode:screen" opacity="0.5">
<path d="M61.4994 54.5957L60.9763 58.8283C60.9627 58.9389 60.8757 59.0221 60.7701 59.0346L48.6263 43.4706L53.2652 44.0433L61.4994 54.5957V54.5957Z" fill="#E6E6E6"/>
</g>
<g style="mix-blend-mode:screen" opacity="0.5">
<path d="M57.6258 58.6531L52.9869 58.0804L42.2929 44.375L42.4693 42.9488C42.4854 42.8183 42.6035 42.7264 42.7327 42.7425L45.4757 43.0817L57.6258 58.6531Z" fill="#E6E6E6"/>
</g>
<path d="M59.4734 49.1258L44.9589 47.3334L44.3908 51.9336L58.9053 53.726L59.4734 49.1258Z" fill="#C63038"/>
<path d="M14.9304 65.6264L14.8882 65.9655C14.8248 66.4799 14.6496 66.952 14.39 67.3607C14.1577 67.7259 13.8595 68.0415 13.5129 68.2912C12.9812 68.6763 12.3377 68.9061 11.6506 68.9298C11.4755 68.936 11.2991 68.9273 11.1189 68.9049C9.26536 68.6763 7.94973 66.9892 8.17832 65.1357L8.22056 64.7965C8.22925 64.722 8.24168 64.6487 8.25535 64.5766C8.38828 63.8722 8.73489 63.256 9.2194 62.7864C9.52377 62.4907 9.88404 62.2534 10.2779 62.0882C10.8009 61.8708 11.3873 61.7813 11.9898 61.8546C12.1811 61.8782 12.3687 61.918 12.5476 61.9714C13.2346 62.1764 13.8198 62.5901 14.2422 63.1305C14.6645 63.6722 14.923 64.3406 14.954 65.0561C14.9627 65.2425 14.954 65.4326 14.9317 65.6239L14.9304 65.6264Z" fill="#E6E6E6"/>
<g style="mix-blend-mode:screen" opacity="0.5">
<path d="M14.9304 65.6263L14.8882 65.9655C14.8248 66.4798 14.6496 66.9519 14.39 67.3606L10.2778 62.0894C10.8009 61.872 11.3872 61.7825 11.9898 61.8558C12.1811 61.8794 12.3687 61.9192 12.5476 61.9726L14.954 65.0561C14.9627 65.2424 14.954 65.4325 14.9316 65.6238L14.9304 65.6263Z" fill="#E6E6E6"/>
</g>
<g style="mix-blend-mode:screen" opacity="0.5">
<path d="M13.5129 68.2924C12.9812 68.6775 12.3377 68.9073 11.6506 68.931L8.25534 64.5791C8.38827 63.8747 8.73488 63.2585 9.21939 62.7888L13.5129 68.2924Z" fill="#E6E6E6"/>
</g>
<g style="mix-blend-mode:screen" opacity="0.5">
<path d="M27.796 73.7276L27.7923 73.7537C27.719 74.3488 27.4904 74.8867 27.1538 75.3327L23.2441 70.3223C23.7584 70.1037 24.3361 70.013 24.93 70.0863C25.1337 70.1111 25.3312 70.1546 25.5201 70.2143L27.8109 73.1511L27.8172 73.1598C27.8259 73.3462 27.8171 73.5363 27.7948 73.7276H27.796Z" fill="#E6E6E6"/>
</g>
<g style="mix-blend-mode:screen" opacity="0.5">
<path d="M26.2096 76.1762C25.6244 76.5266 24.925 76.6968 24.1982 76.6222L21.2738 72.8729C21.3794 72.1486 21.7148 71.5138 22.1956 71.0305L26.2108 76.1762H26.2096Z" fill="#E6E6E6"/>
</g>
<g style="mix-blend-mode:screen" opacity="0.5">
<path d="M29.8571 24.6392C29.7962 25.1337 29.5912 25.5747 29.2893 25.9263L26.4692 22.1011C26.8544 21.9346 27.2879 21.8638 27.7352 21.9197C27.9464 21.9458 28.1476 21.998 28.3365 22.0725L29.8683 24.151C29.8807 24.3112 29.877 24.4727 29.8571 24.638V24.6392Z" fill="#E6E6E6"/>
</g>
<g style="mix-blend-mode:screen" opacity="0.5">
<path d="M28.4656 26.5512C28.0656 26.7388 27.6084 26.8196 27.1376 26.7612C26.9686 26.74 26.8059 26.7028 26.6518 26.6493L24.9983 24.4057C24.9946 24.2852 25.0008 24.1634 25.0157 24.0404C25.0803 23.5211 25.3027 23.0602 25.6294 22.7012L28.4656 26.55V26.5512Z" fill="#E6E6E6"/>
</g>
<path d="M6.71112 65.0425C6.69248 65.0425 6.67261 65.0425 6.65397 65.0387L4.99297 64.8338C4.73953 64.8027 4.56064 64.5716 4.5917 64.3194C4.62276 64.066 4.85382 63.8871 5.10601 63.9182L6.76703 64.1231C7.02047 64.1542 7.19936 64.3853 7.1683 64.6375C7.13973 64.871 6.94095 65.0425 6.71112 65.0425Z" fill="white"/>
<path d="M6.40799 67.506C6.38936 67.506 6.36947 67.506 6.35083 67.5023L4.68983 67.2973C4.4364 67.2663 4.2575 67.0352 4.28856 66.783C4.31962 66.5308 4.55069 66.3507 4.80289 66.3817L6.46389 66.5867C6.71733 66.6178 6.89622 66.8488 6.86516 67.101C6.83659 67.3346 6.63782 67.506 6.40799 67.506Z" fill="white"/>
<path d="M18.3394 66.4774C18.3208 66.4774 18.3009 66.4774 18.2823 66.4737L16.6213 66.2687C16.3678 66.2377 16.1889 66.0066 16.22 65.7544C16.251 65.501 16.4821 65.3221 16.7343 65.3531L18.3953 65.5581C18.6488 65.5892 18.8276 65.8203 18.7966 66.0724C18.768 66.306 18.5692 66.4774 18.3394 66.4774Z" fill="white"/>
<path d="M18.035 68.941C18.0164 68.941 17.9965 68.941 17.9779 68.9372L16.3169 68.7322C16.0634 68.7012 15.8845 68.4701 15.9156 68.2179C15.9466 67.9657 16.1777 67.7843 16.4299 67.8166L18.0909 68.0216C18.3443 68.0527 18.5232 68.2838 18.4922 68.536C18.4636 68.7695 18.2648 68.941 18.035 68.941Z" fill="white"/>
<g style="mix-blend-mode:multiply" opacity="0.5">
<path d="M13.8248 61.359C13.5713 61.3279 13.3924 61.0968 13.4235 60.8446L13.6285 59.1836C13.6595 58.9302 13.8906 58.7513 14.1428 58.7824C14.3962 58.8134 14.5751 59.0445 14.5441 59.2967L14.3391 60.9577C14.308 61.2111 14.0769 61.39 13.8248 61.359Z" fill="#2E58C7"/>
<path d="M11.3624 61.0558C11.109 61.0248 10.9301 60.7937 10.9611 60.5415L11.1661 58.8805C11.1972 58.627 11.4282 58.4482 11.6804 58.4792C11.9339 58.5103 12.1128 58.7413 12.0817 58.9935L11.8767 60.6545C11.8457 60.908 11.6146 61.0869 11.3624 61.0558Z" fill="#2E58C7"/>
<path d="M12.3898 72.9872C12.1364 72.9562 11.9575 72.7251 11.9885 72.4729L12.1935 70.8119C12.2246 70.5584 12.4557 70.3795 12.7079 70.4106C12.9613 70.4417 13.1402 70.6727 13.1091 70.9249L12.9041 72.5859C12.8731 72.8394 12.642 73.0183 12.3898 72.9872Z" fill="#2E58C7"/>
<path d="M9.92628 72.6828C9.67285 72.6518 9.49395 72.4207 9.52501 72.1685L9.73 70.5075C9.76106 70.2541 9.99213 70.0752 10.2443 70.1062C10.4978 70.1373 10.6767 70.3684 10.6456 70.6206L10.4406 72.2816C10.4096 72.535 10.1785 72.7139 9.92628 72.6828Z" fill="#2E58C7"/>
</g>
<path d="M13.452 61.077C13.4334 61.077 13.4135 61.077 13.3949 61.0732C13.1415 61.0422 12.9626 60.8111 12.9936 60.5589L13.1986 58.8979C13.2296 58.6445 13.4607 58.4643 13.7129 58.4966C13.9664 58.5277 14.1452 58.7588 14.1142 59.0109L13.9092 60.672C13.8806 60.9055 13.6819 61.077 13.452 61.077Z" fill="white"/>
<path d="M10.9885 60.7739C10.9698 60.7739 10.95 60.7739 10.9313 60.7701C10.6779 60.7391 10.499 60.508 10.53 60.2558L10.735 58.5948C10.7661 58.3414 10.9972 58.1625 11.2494 58.1935C11.5028 58.2246 11.6817 58.4557 11.6506 58.7079L11.4456 60.3689C11.4171 60.6024 11.2183 60.7739 10.9885 60.7739Z" fill="white"/>
<path d="M12.0171 72.704C11.9985 72.704 11.9786 72.704 11.96 72.7003C11.7066 72.6692 11.5277 72.4381 11.5587 72.186L11.7637 70.525C11.7948 70.2715 12.0259 70.0926 12.278 70.1237C12.5315 70.1547 12.7104 70.3858 12.6793 70.638L12.4743 72.299C12.4458 72.5326 12.247 72.704 12.0171 72.704Z" fill="white"/>
<path d="M9.55358 72.4009C9.53494 72.4009 9.51507 72.4008 9.49643 72.3971C9.243 72.3661 9.0641 72.135 9.09516 71.8828L9.30014 70.2218C9.33119 69.9684 9.56227 69.7895 9.81446 69.8205C10.0679 69.8516 10.2468 70.0827 10.2157 70.3348L10.0108 71.9959C9.98219 72.2294 9.78341 72.4009 9.55358 72.4009Z" fill="white"/>
<g style="mix-blend-mode:multiply" opacity="0.3">
<path d="M58.7439 49.0163C58.5004 50.9879 56.7052 52.388 54.7336 52.1458L44.5328 50.8873L44.4061 51.9184L58.9203 53.7099L59.488 49.1095L58.7439 49.0176V49.0163Z" fill="#C63038"/>
</g>
<g style="mix-blend-mode:screen" opacity="0.5">
<path d="M71.1001 11.4506L70.6429 15.149L62.041 4.3084L62.0547 4.19037L65.6773 4.63638L71.1001 11.4506Z" fill="#E6E6E6"/>
</g>
<g style="mix-blend-mode:screen" opacity="0.5">
<path d="M69.0018 15.6881L65.2363 15.2235L61.3043 10.2691L61.759 6.58928L69.0018 15.6881Z" fill="#E6E6E6"/>
</g>
<g style="mix-blend-mode:screen" opacity="0.5">
<path d="M51.4104 5.74452L51.0426 8.72241L44.2496 0.0148773L47.2274 0.382611L51.4104 5.74452Z" fill="#E6E6E6"/>
</g>
<g style="mix-blend-mode:screen" opacity="0.5">
<path d="M50.5581 12.6545L50.4301 13.6881L48.4846 13.4471L44.0507 7.76338L44.4185 4.78551L50.5581 12.6545Z" fill="#E6E6E6"/>
</g>
<path d="M91.6757 28.8383C91.672 28.8682 91.6683 28.8967 91.6633 28.9266C91.5639 29.5465 91.2372 30.0782 90.7775 30.4447C90.6272 30.5652 90.462 30.6671 90.2868 30.7491C89.8855 30.9379 89.4283 31.0186 88.9563 30.9603C88.8606 30.9491 88.7662 30.9304 88.6755 30.9093C87.4891 30.6211 86.6816 29.4831 86.8344 28.242C86.8592 28.0433 86.9064 27.8532 86.9735 27.6755C87.1685 27.1612 87.5288 26.7363 87.9835 26.4593C88.1587 26.3512 88.3475 26.2667 88.5463 26.2058C88.8619 26.1102 89.2035 26.0766 89.5526 26.1201C89.8048 26.1512 90.0433 26.2195 90.262 26.3189C91.2074 26.7475 91.8074 27.7538 91.6745 28.8383H91.6757Z" fill="#E6E6E6"/>
<path d="M84.5161 27.9538C84.5012 28.0718 84.4789 28.1861 84.4478 28.2979C84.2937 28.8644 83.9459 29.339 83.4862 29.6583C83.326 29.7688 83.1533 29.862 82.9706 29.9328C82.6091 30.072 82.2079 30.1266 81.7966 30.0769C81.624 30.0558 81.4575 30.0161 81.2997 29.9627C80.2325 29.5962 79.5306 28.5228 79.6747 27.3587C79.6896 27.2382 79.7132 27.1214 79.7443 27.0071C79.8959 26.453 80.235 25.9872 80.6823 25.6691C80.8512 25.5486 81.0363 25.4492 81.2326 25.3747C81.5904 25.238 81.9867 25.1859 82.393 25.2356C82.5545 25.2554 82.7098 25.2915 82.8588 25.3399C83.9422 25.6965 84.659 26.7798 84.5149 27.955L84.5161 27.9538Z" fill="#E6E6E6"/>
<g style="mix-blend-mode:screen" opacity="0.5">
<path d="M24.3957 57.3139C24.2479 57.5114 24.0379 57.658 23.7982 57.7276L22.685 55.8144C22.8664 55.6367 23.1062 55.5212 23.3683 55.4964L24.3957 57.3139Z" fill="#E6E6E6"/>
</g>
<g style="mix-blend-mode:screen" opacity="0.5">
<path d="M23.6367 63.2535C23.4802 63.4436 23.2665 63.5815 23.0242 63.6399L21.9235 61.7503C22.0974 61.5652 22.3322 61.4397 22.5906 61.4024L23.6367 63.2535Z" fill="#E6E6E6"/>
</g>
<g style="mix-blend-mode:multiply" opacity="0.5">
<path d="M38.2379 20.6873L33.076 62.5081L28.6085 61.9565L28.7017 61.2024L32.0399 61.4844L37.7099 20.6227L38.2379 20.6873Z" fill="#C63038"/>
</g>
<g style="mix-blend-mode:screen" opacity="0.5">
<path d="M37.7571 70.7945C37.6105 70.8529 37.4465 70.8752 37.2788 70.8541L36.834 70.7994L36.2725 68.7533L37.08 68.8527L37.7559 70.7945H37.7571Z" fill="#ECCFB2"/>
</g>
<g style="mix-blend-mode:screen" opacity="0.5">
<path d="M36.3135 70.7348L35.3755 70.6193L34.814 68.5732L35.5942 68.6688L36.3135 70.7348Z" fill="#ECCFB2"/>
</g>
<g style="mix-blend-mode:screen" opacity="0.5">
<path d="M37.2701 75.8744C37.0887 75.9849 36.8701 76.0371 36.6427 76.0085L36.3781 75.9762L35.8166 73.9301L36.6278 74.0307L37.2701 75.8756V75.8744Z" fill="#ECCFB2"/>
</g>
<g style="mix-blend-mode:screen" opacity="0.5">
<path d="M35.8613 75.9129L34.9196 75.7961L34.358 73.75L35.1407 73.8469L35.8613 75.9129Z" fill="#ECCFB2"/>
</g>
<g style="mix-blend-mode:screen" opacity="0.5">
<path d="M89.1935 80.5182L89.7551 82.5643L90.7191 82.6389L90.0147 80.6188L89.1935 80.5182Z" fill="#ECCFB2"/>
</g>
<g style="mix-blend-mode:screen" opacity="0.5">
<path d="M88.5276 80.435L89.2482 82.501L88.2953 82.3842L87.7574 80.4189L88.5276 80.435Z" fill="#ECCFB2"/>
</g>
<g style="mix-blend-mode:screen" opacity="0.5">
<path d="M91.2868 77.5192L90.3302 77.4012L89.7687 75.355L90.5676 75.4532L91.2868 77.5192Z" fill="#ECCFB2"/>
</g>
<g style="mix-blend-mode:screen" opacity="0.5">
<path d="M89.7998 77.3366L88.8718 77.2223L88.34 75.283C88.4779 75.2333 88.6295 75.216 88.7848 75.2346L89.0817 75.2706L89.801 77.3366H89.7998Z" fill="#ECCFB2"/>
</g>
<g style="mix-blend-mode:multiply">
<path d="M84.3595 71.0243L76.2843 70.028L76.626 67.2911L76.913 67.3259L76.6061 69.777L84.1086 70.7026L84.4167 68.2129L84.7024 68.2477L84.3595 71.0243Z" fill="#D6D6D6"/>
</g>
<g style="mix-blend-mode:screen" opacity="0.5">
<path d="M84.3993 71.5523L82.4774 71.315L79.8859 67.6812L81.8128 67.9185L84.3993 71.5523Z" fill="#E6E6E6"/>
</g>
<g style="mix-blend-mode:screen" opacity="0.5">
<path d="M80.7344 71.1001L78.8113 70.8628L76.272 67.301L76.2794 67.2352L78.1479 67.4662L80.7344 71.1001Z" fill="#E6E6E6"/>
</g>
<g style="mix-blend-mode:multiply" opacity="0.5">
<path d="M23.1969 19.6886L18.8077 55.2579L14.2123 54.6901L14.2968 54.0031L18.1915 54.4839L22.4962 19.6016L23.1969 19.6886Z" fill="#ECCFB2"/>
</g>
<g style="mix-blend-mode:multiply" opacity="0.5">
<path d="M16.4957 18.8611L12.1053 54.4304L7.50993 53.8639L7.59565 53.1757L11.4904 53.6564L15.7951 18.7754L16.4957 18.8611Z" fill="#ECCFB2"/>
</g>
<g style="mix-blend-mode:multiply">
<path d="M89.7811 38.6055L89.2233 38.5372L87.6692 51.127C86.961 56.8691 81.7308 60.9502 75.9887 60.2421L67.8477 59.237L67.7694 59.8718C67.7433 60.0806 67.8912 60.2694 68.0999 60.2955L86.8194 62.6062C87.0281 62.6323 87.217 62.4845 87.2431 62.2758L90.1116 39.0304C90.1377 38.8217 89.9898 38.6329 89.7811 38.6068V38.6055Z" fill="#D6D6D6"/>
</g>
<g style="mix-blend-mode:multiply">
<path d="M73.1608 40.27L71.1034 56.9299C71.0852 57.0777 71.1902 57.2123 71.3379 57.2305L84.4913 58.8549C84.639 58.8731 84.7736 58.7681 84.7918 58.6203L86.8492 41.9604C86.8675 41.8127 86.7625 41.6781 86.6147 41.6598L73.4614 40.0355C73.3136 40.0172 73.179 40.1223 73.1608 40.27Z" fill="#D6D6D6"/>
</g>
<path d="M86.4977 42.4009L84.5571 58.1251C84.5521 58.1636 84.5397 58.1997 84.5198 58.2295C84.4689 58.3127 84.3732 58.3612 84.2701 58.3487L71.607 56.7859C71.4666 56.7685 71.366 56.6393 71.3834 56.4989L73.3239 40.7747C73.3413 40.6343 73.4705 40.5336 73.6109 40.551L86.274 42.1139C86.4144 42.1313 86.515 42.2605 86.4977 42.4009V42.4009Z" fill="#D6D6D6"/>
<g style="mix-blend-mode:screen" opacity="0.5">
<path d="M85.2814 52.2564L84.5571 58.1252C84.5522 58.1637 84.5397 58.1997 84.5199 58.2296L74.5588 40.6679L78.5952 41.1661L85.2814 52.2551V52.2564Z" fill="#E6E6E6"/>
</g>
<g style="mix-blend-mode:screen" opacity="0.5">
<path d="M81.9259 58.0593L77.3466 57.4953L72.3474 48.6809L73.0146 43.2805L81.9259 58.0593Z" fill="#E6E6E6"/>
</g>
<g style="mix-blend-mode:screen" opacity="0.5">
<path d="M71.0964 37.6129C71.1225 37.4042 71.3113 37.2564 71.52 37.2824L90.0445 39.5683L90.1116 39.0292C90.1377 38.8205 89.9898 38.6316 89.7811 38.6055L71.0616 36.2948C70.8529 36.2687 70.664 36.4165 70.638 36.6253L67.8502 59.2159C67.8999 59.2805 68.4229 59.2867 68.4229 59.2867L71.0976 37.6117L71.0964 37.6129Z" fill="#E6E6E6"/>
</g>
<g style="mix-blend-mode:multiply" opacity="0.3">
<path d="M52.3856 24.787L51.0973 35.2276L45.7503 34.5667L52.3856 24.787Z" fill="#2E58C7"/>
</g>
<g style="mix-blend-mode:multiply" opacity="0.3">
<path d="M50.3792 59.6408L49.6748 65.3506L35.9582 63.6573L35.9731 63.5368L50.3792 59.6408Z" fill="#2E58C7"/>
</g>
<g style="mix-blend-mode:multiply" opacity="0.3">
<path d="M21.8689 7.26018L21.1831 12.8109L12.5911 11.75L12.6147 11.5599L21.8689 7.26018Z" fill="#2E58C7"/>
</g>
<g style="mix-blend-mode:multiply" opacity="0.3">
<path d="M31.5193 18.2201L31.2559 20.3544L27.8967 19.9395L27.9016 19.896L31.5193 18.2201Z" fill="#2E58C7"/>
</g>
<g style="mix-blend-mode:screen" opacity="0.5">
<path d="M99.8279 12.1289L99.3546 15.969L93.2212 8.04038V8.03665L97.2911 8.53854L99.8279 12.1289Z" fill="#E6E6E6"/>
</g>
<g style="mix-blend-mode:screen" opacity="0.5">
<path d="M99.0266 18.6225L98.9334 19.3829L96.2115 19.0474L92.4608 14.1998L92.9727 10.0554L99.0266 18.6225Z" fill="#E6E6E6"/>
</g>
<g style="mix-blend-mode:screen" opacity="0.5">
<path d="M37.3471 11.5947C37.29 11.991 37.1223 12.3438 36.8788 12.6283L34.3047 9.53115C34.6351 9.33983 35.0202 9.24044 35.424 9.26031L37.3471 11.5947V11.5947Z" fill="#E6E6E6"/>
</g>
<g style="mix-blend-mode:screen" opacity="0.5">
<path d="M36.4936 12.9762C36.198 13.1824 35.8464 13.3116 35.4737 13.3377L33.3493 10.7822C33.4462 10.412 33.6425 10.0865 33.9046 9.83304L36.4936 12.9762Z" fill="#E6E6E6"/>
</g>
<g style="mix-blend-mode:screen" opacity="0.5">
<path d="M28.2284 10.5387C28.1588 10.9263 27.9824 11.2704 27.7339 11.545L25.1499 8.43417C25.4716 8.23664 25.8493 8.12732 26.2468 8.13229L28.2284 10.5387V10.5387Z" fill="#E6E6E6"/>
</g>
<g style="mix-blend-mode:screen" opacity="0.5">
<path d="M27.3438 11.8817C27.0395 12.0829 26.6804 12.2034 26.299 12.2183L24.2268 9.72498C24.3125 9.34482 24.5026 9.00939 24.761 8.74602L27.3438 11.8817V11.8817Z" fill="#E6E6E6"/>
</g>
<g style="mix-blend-mode:multiply" opacity="0.5">
<path d="M41.9475 25.2591L41.0567 32.4758L39.0802 32.2324L39.151 31.6596L40.5834 31.836L41.4033 25.192L41.9475 25.2591Z" fill="#FDC270"/>
</g>
<g style="mix-blend-mode:multiply" opacity="0.5">
<path d="M40.7536 34.9394L39.8629 42.1562L37.8863 41.9114L37.9571 41.3387L39.3883 41.5164L40.2082 34.8723L40.7536 34.9394Z" fill="#FDC270"/>
</g>
<g style="mix-blend-mode:multiply" opacity="0.5">
<path d="M39.4815 45.2495L38.5907 52.4663L36.6142 52.2215L36.6837 51.6488L38.1161 51.8265L38.9361 45.1812L39.4815 45.2495Z" fill="#FDC270"/>
</g>
<g style="mix-blend-mode:multiply" opacity="0.5">
<path d="M25.4431 40.725L24.5523 47.9417L22.5757 47.6982L22.6466 47.1255L24.079 47.3019L24.8989 40.6579L25.4431 40.725Z" fill="#FDC270"/>
</g>
<g style="mix-blend-mode:multiply" opacity="0.5">
<path d="M26.5885 31.446L25.6977 38.6628L23.7212 38.4192L23.792 37.8465L25.2244 38.0229L26.0443 31.3789L26.5885 31.446Z" fill="#FDC270"/>
</g>
<g style="mix-blend-mode:screen" opacity="0.5">
<path d="M84.4478 28.2979C84.2938 28.8644 83.9459 29.339 83.4862 29.6582L81.2326 25.3734C81.5904 25.2368 81.9867 25.1846 82.393 25.2343C82.5545 25.2542 82.7098 25.2902 82.8588 25.3387L84.4466 28.2979H84.4478Z" fill="#E6E6E6"/>
</g>
<g style="mix-blend-mode:screen" opacity="0.5">
<path d="M82.9706 29.9328C82.6091 30.0719 82.2078 30.1266 81.7966 30.0769C81.6239 30.0558 81.4575 30.016 81.2997 29.9626L79.7455 27.0071C79.8971 26.453 80.2363 25.9871 80.6835 25.6691L82.9719 29.934L82.9706 29.9328Z" fill="#E6E6E6"/>
</g>
<g style="mix-blend-mode:screen" opacity="0.5">
<path d="M91.6633 28.9253C91.5639 29.5452 91.2372 30.0769 90.7775 30.4434L88.5475 26.2033C88.8631 26.1076 89.2047 26.0741 89.5538 26.1176C89.806 26.1486 90.0445 26.217 90.2632 26.3164L91.662 28.924L91.6633 28.9253Z" fill="#E6E6E6"/>
</g>
<g style="mix-blend-mode:screen" opacity="0.5">
<path d="M90.2868 30.749C89.8855 30.9379 89.4283 31.0186 88.9562 30.9602C88.8605 30.9491 88.7661 30.9304 88.6755 30.9093L86.9747 27.6755C87.1697 27.1612 87.53 26.7363 87.9847 26.4592L90.288 30.7503L90.2868 30.749Z" fill="#E6E6E6"/>
</g>
<g style="mix-blend-mode:screen" opacity="0.5">
<path d="M77.8733 27.1798C77.7851 27.7886 77.4336 28.2979 76.9515 28.6073L75.0557 25.0032C75.375 24.8678 75.7328 24.8119 76.103 24.8579C76.3241 24.8852 76.5329 24.9473 76.7242 25.038L77.8733 27.1811V27.1798Z" fill="#E6E6E6"/>
</g>
<g style="mix-blend-mode:screen" opacity="0.5">
<path d="M76.5826 28.7924C76.2807 28.9091 75.9452 28.9551 75.6011 28.9116C75.3191 28.8769 75.057 28.7862 74.8259 28.652L73.8146 26.7276C73.8171 26.6965 73.8196 26.6655 73.8233 26.6332C73.8966 26.0418 74.2159 25.5399 74.6656 25.2194L76.5813 28.7911L76.5826 28.7924Z" fill="#E6E6E6"/>
</g>
<g style="mix-blend-mode:screen" opacity="0.5">
<path d="M44.7005 0.739191L52.7136 1.72809L52.7943 1.06964L44.1228 0L43.5998 4.2376L44.2582 4.3196L44.7005 0.739191Z" fill="#E6E6E6"/>
</g>
<g style="mix-blend-mode:screen" opacity="0.5">
<path d="M97.9917 42.5499C97.8663 42.9947 97.5979 43.3699 97.2451 43.632L95.3965 40.0491C95.671 39.9596 95.9705 39.9273 96.2761 39.9646C96.4338 39.9845 96.5854 40.0205 96.7283 40.0739L97.9917 42.5499V42.5499Z" fill="#E6E6E6"/>
</g>
<g style="mix-blend-mode:screen" opacity="0.5">
<path d="M96.8016 43.883C96.4873 44.0122 96.1369 44.0644 95.7754 44.0209C95.6984 44.011 95.6226 43.9973 95.5481 43.9799L94.1293 41.2294C94.2933 40.8194 94.5853 40.4815 94.9505 40.2554L96.8004 43.883H96.8016Z" fill="#E6E6E6"/>
</g>
<g style="mix-blend-mode:screen" opacity="0.5">
<path d="M97.0575 50.3195C96.9855 50.9034 96.6736 51.3991 96.2326 51.7197L93.9082 48.3616C94.2983 48.1045 94.7766 47.9802 95.2773 48.0411L97.0737 50.1046C97.0724 50.1754 97.0675 50.2475 97.0588 50.3195H97.0575Z" fill="#E6E6E6"/>
</g>
<g style="mix-blend-mode:screen" opacity="0.5">
<path d="M96.0462 51.8414C95.676 52.0538 95.2362 52.1532 94.779 52.0973C94.538 52.0675 94.3119 51.9967 94.1069 51.8936L92.9901 49.9282C92.9926 49.8909 92.9963 49.8561 93 49.8189C93.0621 49.3108 93.3069 48.8697 93.6597 48.5529L96.045 51.8414H96.0462Z" fill="#E6E6E6"/>
</g>
<g style="mix-blend-mode:multiply">
<path d="M62.1777 36.3035L61.8659 38.8242L54.0292 37.8564L53.9795 38.2577L62.1031 39.2603L62.4634 36.3395L62.1777 36.3035Z" fill="#C63038"/>
</g>
<g style="mix-blend-mode:multiply">
<path d="M62.7007 32.0659L62.3889 34.5853L54.5522 33.6188L54.5025 34.0188L62.6262 35.0214L62.9865 32.1007L62.7007 32.0659Z" fill="#C63038"/>
</g>
<g style="mix-blend-mode:multiply">
<path d="M63.2237 27.827L62.9119 30.3465L55.0752 29.3799L55.0255 29.78L63.1491 30.7838L63.5094 27.8618L63.2237 27.827Z" fill="#C63038"/>
</g>
<path d="M14.7764 63.8249C15.0633 65.2648 15.3913 66.7519 15.7454 68.1706C16.4523 70.9559 17.2275 73.7326 18.3978 76.3241C18.7779 77.1167 19.122 77.8286 19.6451 78.3826C19.7594 78.4932 19.8575 78.5342 19.8401 78.4522C23.91 83.2364 17.3119 89.3214 12.8718 84.8664C9.80948 81.1866 9.59705 73.5959 9.47779 68.962C9.46039 67.7694 9.46412 66.5829 9.48896 65.3928C9.49642 65.0946 9.51257 64.4809 9.52251 64.1815C9.70886 60.9862 14.1738 60.7104 14.7751 63.8274L14.7764 63.8249Z" fill="#FF8C71"/>
<path d="M65.2686 125.574H34.3543L19.4066 100.331C23.5883 99.3893 31.2361 97.332 36.5458 93.9404L65.2699 125.574H65.2686Z" fill="white"/>
<path d="M17.2275 99.5807L21.5471 107.083L39.8864 95.7916L35.1121 90.0321C35.1121 90.0321 29.8831 93.897 24.8815 96.3978C21.2402 98.2179 17.2275 99.5807 17.2275 99.5807V99.5807Z" fill="white"/>
<path d="M101.388 63.6703L106.44 60.3609C109.161 58.726 111.515 62.489 108.924 64.3348C108.909 64.3444 108.886 64.36 108.87 64.3696L103.736 67.5435C101.103 69.0371 98.9183 65.4285 101.388 63.6715L101.388 63.6703Z" fill="#EA6D54"/>
<path d="M103.823 67.2716L109.905 62.9982C112.605 61.263 115.07 65.0072 112.477 66.9096L106.308 71.0511C103.726 72.6464 101.405 69.114 103.823 67.2728L103.823 67.2716Z" fill="#EA6D54"/>
<path d="M108.221 69.8322L113.108 65.9454C114.144 65.1215 115.621 65.2835 116.406 66.3068C117.207 67.3455 116.979 68.8811 115.906 69.6895L110.923 73.4499C108.435 75.1841 105.919 71.8108 108.219 69.8329L108.221 69.8322Z" fill="#EA6D54"/>
<path d="M128.017 63.9547L118.398 66.6174L106.582 61.054L105.17 56.8904L117.573 53.0202L128.017 63.9547Z" fill="#EA6D54"/>
<path d="M124.544 62.2441C124.356 62.9178 124.338 63.5875 124.498 64.241L124.519 64.3203L124.538 64.383C124.582 64.5287 124.605 64.5737 124.619 64.6096C124.634 64.6415 124.641 64.6513 124.642 64.6535C124.646 64.655 124.645 64.6489 124.641 64.6389C124.618 64.5686 124.572 64.4752 124.534 64.3955C123.212 61.7807 120.031 57.2457 117.438 55.9806C116.132 55.2783 112.67 56.6171 111.259 57.2079C109.563 57.9211 107.848 58.7983 106.216 59.7148C105.809 59.9391 105.389 60.1938 104.988 60.428L104.607 60.6572C103.379 61.4592 101.753 61.0917 101.042 59.8369C100.394 58.7 100.733 57.2374 101.771 56.4449L102.213 56.1099C102.626 55.7977 103.074 55.4792 103.492 55.1847C105.23 53.9653 106.983 52.8604 108.875 51.8502C110.924 50.7741 112.983 49.8555 115.297 49.4133C118.351 48.8216 120.783 49.6895 123.232 51.3739C124.508 52.2587 125.607 53.2293 126.681 54.3136C128.493 56.1747 130.087 58.1028 131.46 60.3268C132.1 61.3893 132.529 62.4578 132.323 63.7799C131.964 66.1653 129.551 67.7958 127.269 67.172C125.15 66.6125 123.931 64.4053 124.545 62.2446L124.544 62.2441Z" fill="#FF8C71"/>
<path d="M128.033 55.9999C128.033 55.9999 125.648 61.753 122.021 62.9201C118.395 64.0877 112.926 67.2195 113.266 71.8506C113.607 76.4822 121.464 80.9731 123.967 83.4185C126.469 85.8656 136.899 76.7232 136.539 71.7817C136.179 66.8403 129.184 55.5961 129.184 55.5961L128.031 56.0006L128.033 55.9999Z" fill="#FF8C71"/>
<path d="M138.377 49.5694C138.113 49.3669 137.838 49.2564 137.566 49.2557C137.265 49.1571 136.885 49.0928 136.406 49.0707C135.528 49.03 134.143 49.2774 132.5 49.6866C130.053 50.2957 127.035 51.2646 124.263 52.1762C122.333 52.8118 120.523 53.4195 119.111 53.8589C118.65 54.0028 118.225 54.1248 117.83 54.2301C117.15 54.4098 116.566 54.5364 116.063 54.6236C113.814 55.0119 113.223 54.5961 113.223 54.5961L114.375 61.1228L114.509 61.8846C114.509 61.8846 115.637 61.4372 117.129 61.0615C117.547 60.9568 117.993 60.8568 118.45 60.7741C119.073 60.6618 119.717 60.5815 120.341 60.5604C122.227 60.4978 123.975 60.4114 125.584 60.3028C129.532 60.0357 132.659 59.6309 134.996 59.0974C136.495 58.7551 137.668 58.3591 138.526 57.912C138.615 57.8648 138.699 57.8163 138.779 57.7662C138.925 57.7252 139.062 57.6509 139.189 57.5481C139.848 57.0128 140.224 55.6969 140.16 54.1392C140.147 53.8131 140.115 53.4772 140.061 53.1345C139.804 51.4907 139.138 50.1515 138.377 49.5694V49.5694ZM136.831 54.5482C136.802 54.5535 136.775 54.5577 136.747 54.5603C136.233 54.6189 135.772 54.2924 135.695 53.7984C135.623 53.3373 135.911 52.8859 136.358 52.7152C136.415 52.6921 136.475 52.6762 136.536 52.6635C137.082 52.5568 137.591 52.8926 137.672 53.4122C137.753 53.9317 137.377 54.4403 136.831 54.547L136.831 54.5482Z" fill="#380E78"/>
<path d="M117.187 57.5526C117.373 58.7444 117.332 59.8806 117.111 60.8081C116.459 60.9725 115.876 61.1501 115.427 61.298C114.853 61.4875 114.499 61.6284 114.499 61.6284L113.216 54.3653C113.216 54.3653 113.548 54.5982 114.662 54.5512C115.032 54.5353 115.489 54.4881 116.048 54.3927C116.575 55.1951 116.991 56.2965 117.187 57.5537L117.187 57.5526Z" fill="#DB53EA"/>
<path d="M132.581 52.1531L125.447 54.0738C124.862 54.2306 124.278 53.882 124.144 53.2955L124.091 53.0673C124.025 52.7832 124.077 52.4954 124.214 52.2554C126.983 51.3439 130.001 50.3761 132.446 49.7674C132.874 49.8174 133.24 50.1261 133.343 50.5758L133.395 50.804C133.53 51.3917 133.166 51.9945 132.581 52.1531Z" fill="#DB53EA"/>
<path d="M132.988 56.7842L126.535 58.2719C125.742 58.4545 124.975 57.9559 124.821 57.1577C124.669 56.3599 125.188 55.564 125.982 55.3802L132.435 53.8925C133.227 53.7099 133.995 54.2085 134.149 55.0068C134.301 55.8045 133.782 56.6005 132.988 56.7842Z" fill="#DB53EA"/>
<path d="M135.073 59.0459C135.077 59.0772 135.079 59.1074 135.081 59.1388C132.74 59.6737 129.608 60.0796 125.653 60.3475C125.73 59.9444 126.047 59.6091 126.464 59.5272C126.471 59.5263 126.478 59.5253 126.485 59.5228L133.967 58.2302C134.504 58.1372 134.999 58.5021 135.072 59.0442L135.073 59.0459Z" fill="#DB53EA"/>
<g style="mix-blend-mode:multiply" opacity="0.4">
<path d="M138.379 49.5558C138.035 50.7369 138.081 52.9938 138.414 54.804C138.5 55.2674 138.305 55.7486 137.912 56.0224C132.08 60.0895 122.675 58.3351 115.773 60.602C115.949 59.8088 115.978 58.8274 115.818 57.7958C115.625 56.5572 115.2 55.491 114.676 54.7922C113.559 54.8404 113.227 54.6068 113.227 54.6068L114.374 61.1353L114.507 61.8974C114.507 61.8974 114.863 61.7562 115.439 61.5649C115.44 61.5626 115.441 61.5592 115.442 61.5569C116.839 61.1196 119.284 60.5183 120.338 60.5687C126.958 60.1544 133.973 60.2553 139.185 57.5373C139.367 57.3882 139.512 57.1962 139.628 56.9922C140.784 54.8094 139.964 50.8061 138.377 49.5565L138.379 49.5558Z" fill="#380E78"/>
</g>
<path d="M113.838 62.1572C114.992 61.944 115.625 59.8921 115.251 57.5742C114.877 55.2562 113.639 53.5501 112.485 53.7633C111.33 53.9765 110.698 56.0284 111.071 58.3463C111.445 60.6643 112.683 62.3704 113.838 62.1572Z" fill="#DB53EA"/>
<path d="M113.698 57.846C114.064 60.1852 113.456 62.2591 112.34 62.4764C111.224 62.6937 110.023 60.9727 109.657 58.6335C109.291 56.2942 109.9 54.2204 111.016 54.0031C112.132 53.7858 113.333 55.5067 113.698 57.846Z" fill="#DB53EA"/>
<path d="M112.511 53.7315L110.95 54.0122L112.334 62.4495L113.895 62.1688L112.511 53.7315Z" fill="#DB53EA"/>
<g style="mix-blend-mode:screen">
<path d="M113.698 57.8442C114.062 60.1836 113.452 62.2583 112.337 62.4766C111.221 62.6949 110.021 60.9746 109.658 58.6352C109.294 56.2959 109.903 54.2211 111.019 54.0028C112.135 53.7845 113.334 55.5048 113.698 57.8442Z" fill="#DB53EA"/>
</g>
<path d="M111.404 57.8521C111.408 57.8761 111.41 57.9007 111.41 57.926C111.416 58.1891 111.228 58.4289 110.965 58.481L88.755 62.8126C88.7312 62.8172 88.7068 62.8201 88.6819 62.8214C88.4221 62.8362 88.1921 62.6542 88.1499 62.3884C88.1046 62.0975 88.3017 61.8174 88.5891 61.7606L110.799 57.4291C110.956 57.3986 111.109 57.4414 111.223 57.5345C111.29 57.59 111.343 57.6615 111.375 57.7469C111.388 57.7805 111.397 57.8154 111.404 57.8533L111.404 57.8521Z" fill="#D6D6D6"/>
<path d="M89.1223 62.2758C88.3288 63.1761 85.7971 63.7676 84.5405 64.0119C84.1021 64.0975 83.8198 64.141 83.8198 64.141L83.4662 61.875C83.4662 61.875 83.7478 61.8214 84.1874 61.7476C85.9771 61.4493 90.3906 60.8363 89.1228 62.2747L89.1223 62.2758Z" fill="#D6D6D6"/>
<g style="mix-blend-mode:multiply" opacity="0.4">
<path d="M136.755 54.7642C136.674 54.8064 136.585 54.8384 136.491 54.8572C135.966 54.9603 135.474 54.6145 135.392 54.0865C135.31 53.558 135.669 53.0458 136.194 52.9438C136.253 52.9318 136.312 52.9265 136.369 52.9258C135.923 53.0953 135.635 53.5468 135.707 54.0065C135.784 54.499 136.243 54.8242 136.755 54.7653L136.755 54.7642Z" fill="#380E78"/>
</g>
<g style="mix-blend-mode:multiply">
<path d="M84.1826 61.7109L84.5327 63.9661C84.0959 64.0517 83.8146 64.0953 83.8146 64.0953L83.4639 61.8384C83.4639 61.8384 83.7445 61.7849 84.1826 61.7109Z" fill="#D6D6D6"/>
</g>
<g style="mix-blend-mode:multiply">
<path d="M111.416 57.9167C111.421 58.18 111.233 58.4201 110.97 58.4725L88.9393 62.7891C88.9155 62.7937 88.8912 62.7966 88.8663 62.7979L88.616 62.3849L111.415 57.9162L111.416 57.9167Z" fill="#D6D6D6"/>
</g>
<g style="mix-blend-mode:screen" opacity="0.5">
<path d="M111.376 57.7409L88.6523 62.1938L88.6163 61.9585L111.224 57.5284C111.291 57.584 111.344 57.6554 111.376 57.7409Z" fill="#D6D6D6"/>
</g>
<path d="M102.536 59.0166L113.789 60.0241C113.997 60.0431 114.19 60.1017 114.362 60.194L115.052 60.567L122.704 64.6925C125.104 65.9872 125.96 69.0409 124.615 71.5142C123.271 73.9875 120.236 74.9431 117.835 73.6485C117.622 73.5333 117.399 73.387 117.211 73.2464L110.289 67.9847L111.552 68.5264L101.157 64.2528C98.3474 63.0204 99.4844 58.8076 102.535 59.0178L102.536 59.0166Z" fill="#FF8C71"/>
<path d="M136.902 71.851L153.772 90.9654L143.867 116.046L124.274 82.3474L136.902 71.851Z" fill="#FF8C71"/>
<path d="M139.174 74.1398L202.264 144.602L160.755 147.181C147.336 123.546 139.812 110.295 126.393 86.6608L139.174 74.1398Z" fill="white"/>
<path d="M121.992 85.9721L125.95 91.214C125.95 91.214 131.308 88.3502 137.471 81.6492C141.772 76.9731 143.195 72.8994 143.195 72.8994C143.195 72.8994 139.075 68.0043 137.944 68.668C136.813 69.3318 121.992 85.9721 121.992 85.9721Z" fill="white"/>
<path d="M111.729 98.3843C111.326 98.3843 110.92 98.2632 110.568 98.0114L105.837 94.6286C104.938 93.9864 104.731 92.7356 105.373 91.8369C106.015 90.9382 107.266 90.731 108.165 91.3732L112.896 94.756C113.794 95.3982 114.002 96.649 113.359 97.5477C112.969 98.0943 112.354 98.3843 111.731 98.3843H111.729Z" fill="#D6D6D6"/>
<path d="M109.301 100.696C108.464 100.099 108.272 98.9357 108.869 98.1007L112.432 93.1196C113.03 92.283 114.193 92.0902 115.028 92.6878C115.864 93.2853 116.057 94.4485 115.46 95.2835L111.897 100.265C111.299 101.101 110.136 101.294 109.301 100.696Z" fill="#D6D6D6"/>
<path d="M58.7108 98.407C56.7269 98.407 55.1143 96.7945 55.1143 94.8106C55.1143 92.8268 56.7269 91.2142 58.7108 91.2142C60.6946 91.2142 62.3072 92.8268 62.3072 94.8106C62.3072 96.7945 60.6946 98.407 58.7108 98.407ZM58.7108 93.2554C57.8535 93.2554 57.1556 93.9534 57.1556 94.8106C57.1556 95.6679 57.8535 96.3658 58.7108 96.3658C59.568 96.3658 60.266 95.6679 60.266 94.8106C60.266 93.9534 59.568 93.2554 58.7108 93.2554Z" fill="#D6D6D6"/>
<path d="M126.596 28.1928C124.613 28.1928 123 26.5802 123 24.5964C123 22.6126 124.613 21 126.596 21C128.58 21 130.193 22.6126 130.193 24.5964C130.193 26.5802 128.58 28.1928 126.596 28.1928ZM126.596 23.0412C125.739 23.0412 125.041 23.7391 125.041 24.5964C125.041 25.4537 125.739 26.1516 126.596 26.1516C127.454 26.1516 128.152 25.4537 128.152 24.5964C128.152 23.7391 127.454 23.0412 126.596 23.0412V23.0412Z" fill="#D6D6D6"/>
</g>
<defs>
<clipPath id="clip0_812_8337">
<rect width="170" height="109" fill="white"/>
</clipPath>
</defs>
</svg>
