<svg width="163" height="112" viewBox="0 0 163 112" fill="none" xmlns="http://www.w3.org/2000/svg">
<path d="M9.56726 33.5789C10.1904 35.8208 10.6511 37.8757 10.9861 39.5763C11.8414 43.9276 12.0689 46.8891 12.078 47.013L9.98801 47.1963C9.98572 47.1666 9.75934 44.2261 8.92813 40.0098C8.16438 36.1354 6.7192 30.356 4.16956 24.8306L6.04578 23.8149C7.57557 27.1307 8.72233 30.527 9.56954 33.5777L9.56726 33.5789Z" fill="#ECCFB2"/>
<path d="M13.3585 37.9227C13.3905 38.0379 13.4214 38.1506 13.4523 38.2621C14.6448 42.6059 15.2073 45.56 15.2313 45.6839L13.1767 46.1397C13.1699 46.1013 12.6028 43.1324 11.4354 38.8839C10.3584 34.9674 8.53822 29.1347 5.97028 23.5709L7.8465 22.5552C10.4122 28.1154 12.2472 33.9208 13.3585 37.9227Z" fill="#C63038"/>
<path d="M8.45793 46.3995L10.3717 53.2882L18.3037 50.702L16.39 43.8133L8.45793 46.3995Z" fill="#380E78"/>
<path d="M11.0972 51.8253L11.7318 54.1096L17.8223 52.1238L17.1877 49.8395L11.0972 51.8253Z" fill="#380E78"/>
<path d="M2.33508 21.9878L3.34106 25.6088L9.29803 23.6666L8.29205 20.0455L2.33508 21.9878Z" fill="#380E78"/>
<path d="M0.99878 19.8603L2.10394 23.8383L9.29478 21.4938L8.18961 17.5157L0.99878 19.8603Z" fill="#380E78"/>
<path d="M81.9143 36.4599H77.5559C76.7281 36.4599 76.057 35.7328 76.057 34.8348C76.057 33.9368 76.7281 33.211 77.5559 33.211H81.9143C82.7421 33.211 83.4144 33.9381 83.4144 34.8348C83.4144 35.7316 82.7433 36.4599 81.9143 36.4599Z" fill="#D6D6D6"/>
<path d="M82.3134 38.8331C81.5428 38.8331 80.9186 38.1569 80.9186 37.322V32.3502C80.9186 31.5154 81.5428 30.8391 82.3134 30.8391C83.0841 30.8391 83.7083 31.5154 83.7083 32.3502V37.322C83.7083 38.1569 83.0841 38.8331 82.3134 38.8331Z" fill="#D6D6D6"/>
<g style="mix-blend-mode:multiply" opacity="0.44">
<path d="M63.0379 65.5588C63.0539 65.4993 63.0699 65.4399 63.0859 65.3804C63.1133 65.2739 63.1385 65.1661 63.1648 65.0584C63.1819 64.9853 63.2014 64.9135 63.2185 64.8404C63.2414 64.7401 63.2631 64.6385 63.286 64.5382C63.3043 64.4564 63.3226 64.3759 63.3397 64.2941C63.3603 64.1975 63.3786 64.1009 63.398 64.0043C63.4152 63.9176 63.4335 63.8297 63.4506 63.743C63.4678 63.6513 63.4838 63.5584 63.5009 63.4655C63.5181 63.3726 63.5352 63.2797 63.5501 63.1856C63.5649 63.0976 63.5775 63.0097 63.5924 62.9205C63.6061 62.8338 63.621 62.7471 63.6335 62.6604C63.6358 62.648 63.637 62.6356 63.6393 62.622C63.6541 62.5192 63.6678 62.4152 63.6816 62.3124C63.693 62.2244 63.7056 62.1365 63.717 62.0473C63.7307 61.9371 63.7433 61.8256 63.7559 61.7141C63.765 61.6311 63.7753 61.5481 63.7845 61.4651C63.797 61.3462 63.8073 61.2261 63.8188 61.1059C63.8256 61.0292 63.8336 60.9524 63.8405 60.8756C63.8519 60.7455 63.8599 60.6142 63.8702 60.4842C63.8748 60.416 63.8805 60.3479 63.8851 60.2786C63.8942 60.1336 63.9022 59.9887 63.9091 59.8426C63.9114 59.7856 63.9159 59.7298 63.9182 59.6741C63.9262 59.5032 63.9319 59.331 63.9365 59.1588C63.9365 59.1266 63.9388 59.0944 63.94 59.0622C63.9514 58.6485 63.9548 58.2311 63.9514 57.8063C63.9182 54.1412 63.3317 50.1764 62.1598 45.6852C61.8899 44.6484 61.1251 43.9077 60.2218 43.6786C59.7999 43.5708 59.3483 43.5746 58.9024 43.712C58.6371 43.7926 58.3936 43.9152 58.1752 44.07C57.942 44.2347 57.7362 44.4379 57.5658 44.6683C57.0479 45.3656 56.8387 46.3144 57.0811 47.2409C57.1462 47.4898 57.208 47.7351 57.2686 47.9791C57.288 48.0584 57.3063 48.1364 57.3257 48.2157C57.3658 48.3779 57.4058 48.5414 57.4435 48.7024C57.4652 48.7966 57.4858 48.8882 57.5075 48.9799C57.5407 49.1236 57.575 49.2685 57.6059 49.4097C57.6276 49.5075 57.6482 49.6041 57.6699 49.702C57.6996 49.8358 57.7293 49.9708 57.7568 50.1033C57.7774 50.2036 57.7979 50.3015 57.8174 50.4006C57.8437 50.5282 57.87 50.6557 57.8951 50.7821C57.9146 50.8824 57.9329 50.9802 57.9523 51.0793C57.9763 51.2032 58.0003 51.3258 58.022 51.4484C58.0403 51.5475 58.0575 51.6454 58.0746 51.7432C58.0963 51.8634 58.1169 51.9823 58.1375 52.1012C58.1547 52.199 58.1695 52.2957 58.1855 52.3923C58.205 52.5087 58.2233 52.6251 58.2416 52.7391C58.2564 52.8357 58.2701 52.9311 58.285 53.0264C58.3022 53.1392 58.3193 53.2531 58.3342 53.3646C58.3479 53.4587 58.3605 53.5529 58.3719 53.647C58.3867 53.7572 58.4016 53.8687 58.4153 53.9777C58.4268 54.0706 58.4382 54.1623 58.4485 54.2552C58.4611 54.3629 58.4736 54.4707 58.4862 54.5784C58.4965 54.6701 58.5057 54.7605 58.5148 54.8497C58.5262 54.955 58.5365 55.0615 58.5457 55.1655C58.5537 55.2547 58.5617 55.3427 58.5697 55.4306C58.5788 55.5346 58.5868 55.6387 58.5948 55.7415C58.6017 55.8282 58.6074 55.9149 58.6143 56.0016C58.6211 56.1032 58.628 56.2047 58.6349 56.3051C58.6406 56.3905 58.6452 56.4748 58.6497 56.559C58.6554 56.6593 58.66 56.7584 58.6646 56.8575C58.668 56.9405 58.6714 57.0235 58.6749 57.1052C58.6783 57.2031 58.6817 57.3009 58.684 57.3975C58.6863 57.478 58.6886 57.5598 58.6897 57.6391C58.692 57.7357 58.6932 57.831 58.6932 57.9264C58.6932 58.0057 58.6943 58.0837 58.6943 58.1618C58.6943 58.2571 58.6943 58.3513 58.6932 58.4454C58.6932 58.5222 58.692 58.599 58.6909 58.6745C58.6897 58.7687 58.6863 58.8616 58.684 58.9532C58.6817 59.0275 58.6794 59.1019 58.6772 59.1762C58.6737 59.2691 58.6692 59.3607 58.6646 59.4524C58.6612 59.5242 58.6577 59.5961 58.6543 59.6679C58.6497 59.7596 58.6429 59.85 58.6371 59.9404C58.6326 60.0098 58.628 60.0791 58.6223 60.1485C58.6154 60.2402 58.6074 60.3293 58.5994 60.4198C58.5937 60.4866 58.588 60.5535 58.5823 60.6192C58.5731 60.7096 58.564 60.8 58.5537 60.8892C58.5468 60.9524 58.54 61.0168 58.5331 61.0799C58.5228 61.1716 58.5102 61.262 58.4988 61.3524C58.4908 61.4119 58.4839 61.4726 58.4759 61.532C58.4634 61.6249 58.4496 61.7166 58.4359 61.8082C58.4279 61.864 58.4199 61.9197 58.4108 61.9742C58.3959 62.0708 58.3788 62.1662 58.3627 62.2616C58.3547 62.3099 58.3467 62.3594 58.3376 62.4065C58.3182 62.513 58.2976 62.6171 58.2781 62.7223C58.2713 62.7583 58.2644 62.7954 58.2576 62.8313C58.2301 62.9676 58.2015 63.1014 58.1718 63.2351C58.1718 63.2388 58.1707 63.2438 58.1695 63.2475C58.1078 63.525 58.0403 63.795 57.9683 64.0613C57.9603 64.0923 57.9512 64.1232 57.942 64.1554C57.9146 64.2558 57.8871 64.3548 57.8585 64.4539C57.846 64.496 57.8334 64.5369 57.8208 64.579C57.7945 64.6657 57.7682 64.7524 57.7419 64.8391C57.7271 64.885 57.7122 64.9308 57.6973 64.9766C57.671 65.0571 57.6447 65.1376 57.6184 65.2169C57.6024 65.2652 57.5853 65.3123 57.5681 65.3606C57.5418 65.4362 57.5155 65.5117 57.4881 65.5873C57.4698 65.6368 57.4515 65.6851 57.4332 65.7334C57.4058 65.8053 57.3795 65.8783 57.352 65.9502C57.3326 65.9997 57.3132 66.0493 57.2937 66.0976C57.2663 66.1669 57.2377 66.2375 57.2103 66.3069C57.1897 66.3564 57.1691 66.406 57.1485 66.4543C57.1199 66.5224 57.0914 66.5893 57.0628 66.6562C57.041 66.7057 57.0193 66.754 56.9976 66.8036C56.9679 66.8692 56.9393 66.9349 56.9084 67.0005C56.8856 67.0501 56.8627 67.0984 56.8398 67.1467C56.8101 67.2111 56.7792 67.2743 56.7484 67.3387C56.7243 67.387 56.7015 67.4353 56.6775 67.4836C56.6466 67.5468 56.6157 67.6087 56.5837 67.6706C56.5597 67.7189 56.5346 67.766 56.5105 67.8143C56.4785 67.8762 56.4465 67.9369 56.4145 67.9989C56.3893 68.0459 56.3642 68.093 56.339 68.1401C56.3059 68.2007 56.2739 68.2602 56.2407 68.3209C56.2144 68.368 56.1881 68.4138 56.163 68.4609C56.1298 68.5203 56.0955 68.5785 56.0623 68.638C56.0361 68.6838 56.0086 68.7296 55.9823 68.7767C55.948 68.8349 55.9137 68.8931 55.8783 68.9514C55.8508 68.9972 55.8234 69.043 55.796 69.0876C55.7605 69.1446 55.7262 69.2016 55.6908 69.2585C55.6622 69.3031 55.6347 69.3489 55.6062 69.3935C55.5707 69.4505 55.5341 69.5063 55.4987 69.562C55.4701 69.6066 55.4415 69.6512 55.4129 69.6945C55.3764 69.7503 55.3398 69.806 55.3032 69.8617C55.2746 69.9051 55.2449 69.9497 55.2151 69.993C55.1774 70.0488 55.1397 70.1033 55.1019 70.159C55.0722 70.2024 55.0436 70.2445 55.0139 70.2878C54.9762 70.3423 54.9373 70.3968 54.8984 70.4513C54.8687 70.4934 54.839 70.5355 54.8081 70.5777C54.7692 70.6322 54.7304 70.6854 54.6915 70.7399C54.6606 70.782 54.6309 70.8241 54.6 70.865C54.56 70.9183 54.5211 70.9728 54.4811 71.026C54.4502 71.0669 54.4194 71.109 54.3885 71.1499C54.3485 71.2032 54.3085 71.2564 54.2673 71.3097C54.2364 71.3506 54.2056 71.3914 54.1735 71.4323C54.1324 71.4856 54.0912 71.5376 54.0501 71.5908C54.0192 71.6317 53.9872 71.6714 53.9563 71.7122C53.9152 71.7655 53.8729 71.8175 53.8317 71.8695C53.7997 71.9092 53.7688 71.9488 53.7368 71.9884C53.6956 72.0405 53.6545 72.0912 53.6122 72.1433C53.579 72.1841 53.547 72.2238 53.5138 72.2647C53.4738 72.3142 53.4338 72.3625 53.3938 72.4121C53.3595 72.4542 53.3252 72.4963 53.2898 72.5384C53.26 72.5755 53.2291 72.6115 53.1983 72.6486C53.0176 72.8666 52.8347 73.0846 52.6495 73.3001C52.638 73.3138 52.6266 73.3274 52.6152 73.3398C52.55 73.4166 52.4848 73.4921 52.4185 73.5689C52.4082 73.5813 52.3979 73.5924 52.3877 73.6048C52.3133 73.6903 52.2402 73.7758 52.1659 73.8625C52.1659 73.8625 52.1636 73.8649 52.1624 73.8662C52.087 73.9541 52.0104 74.0408 51.9349 74.1288C51.7634 74.3257 51.5919 74.5226 51.4204 74.7196C51.2969 74.8608 51.1734 75.002 51.05 75.1444C50.9996 75.2027 50.9493 75.2596 50.899 75.3178C50.7664 75.4702 50.6338 75.6238 50.5011 75.7774C50.4737 75.8096 50.4451 75.843 50.4177 75.8752C50.2999 76.0115 50.1833 76.1502 50.0667 76.2877C50.0347 76.3248 50.0026 76.3632 49.9706 76.4004C49.8311 76.5664 49.6917 76.7336 49.5533 76.9008C49.5465 76.9095 49.5396 76.9181 49.5327 76.9256C49.4996 76.9652 49.4676 77.0061 49.4344 77.0457C49.3864 77.1052 49.3372 77.1634 49.2892 77.2228C49.2 77.3331 49.1109 77.4433 49.024 77.5548C48.9931 77.5944 48.9634 77.6341 48.9336 77.6749C48.9199 77.6935 48.9073 77.7133 48.8948 77.7319C48.8799 77.7542 48.865 77.7753 48.8502 77.7976C48.8353 77.8211 48.8216 77.8459 48.8067 77.8694C48.7964 77.888 48.7839 77.9053 48.7736 77.9239C48.7576 77.9511 48.7438 77.9796 48.729 78.0081C48.721 78.023 48.713 78.0378 48.705 78.054C48.6901 78.0837 48.6764 78.1146 48.6615 78.1456C48.6558 78.1592 48.6489 78.1729 48.6421 78.1865C48.6284 78.2187 48.6146 78.2509 48.6021 78.2843C48.5975 78.2967 48.5918 78.3091 48.5872 78.3215C48.5746 78.3549 48.5632 78.3884 48.5518 78.4218C48.5472 78.4342 48.5426 78.4466 48.538 78.459C48.5277 78.4924 48.5175 78.5259 48.5083 78.5593C48.5049 78.5717 48.5003 78.5841 48.4969 78.5965C48.4831 78.6076 48.4706 78.62 48.4591 78.6336C48.4569 78.6361 48.4557 78.6386 48.4546 78.6398C48.4443 78.6534 48.434 78.6695 48.426 78.6869L48.1973 79.2195L47.6611 80.4668C47.5479 80.7294 47.6245 81.0415 47.844 81.2087C47.9835 81.3152 48.1482 81.444 48.3277 81.5877L48.0041 83.0827L47.9115 83.5076C47.708 83.411 47.4942 83.3329 47.2712 83.276C47.006 83.2091 46.7419 83.1744 46.48 83.1694L46.5452 82.8697L46.9648 80.9325C47.0002 80.9275 47.0345 80.9226 47.0677 80.9176C47.3329 80.8817 47.5365 80.6451 47.5502 80.3553L47.6176 78.9817L47.6462 78.3958C47.6462 78.3834 47.6462 78.3723 47.6462 78.3611C47.6462 78.3562 47.6451 78.3525 47.6439 78.3475C47.6439 78.3413 47.6417 78.3351 47.6405 78.3289C47.6394 78.3227 47.6371 78.3178 47.6359 78.3116C47.6348 78.3079 47.6337 78.3041 47.6314 78.2992C47.6291 78.293 47.6268 78.2856 47.6234 78.2794C47.6257 78.267 47.6279 78.2534 47.6291 78.241C47.6348 78.2063 47.6405 78.1729 47.6462 78.1382C47.6485 78.1245 47.6497 78.1109 47.6508 78.0973C47.6554 78.0626 47.66 78.0267 47.6622 77.992C47.6634 77.9784 47.6634 77.9648 47.6645 77.9511C47.6668 77.9165 47.6702 77.8805 47.6714 77.8446C47.6714 77.8298 47.6714 77.8137 47.6714 77.7988C47.6714 77.7641 47.6737 77.7307 47.6725 77.696C47.6725 77.6786 47.6714 77.6613 47.6714 77.644C47.6714 77.6118 47.6702 77.5796 47.6679 77.5474C47.6668 77.5263 47.6645 77.5052 47.6634 77.4842C47.6611 77.4545 47.6588 77.426 47.6565 77.3962C47.6531 77.3678 47.6497 77.3393 47.6451 77.3108C47.6417 77.2885 47.6394 77.2674 47.6359 77.2451C47.6279 77.1943 47.6188 77.1436 47.6085 77.0928C47.3501 75.843 47.0311 74.5858 46.7213 73.3695C44.757 65.648 42.9014 58.355 53.6282 46.2289C54.2433 45.5341 54.4708 44.589 54.3142 43.7108C54.2627 43.421 54.1701 43.1373 54.0352 42.8723C53.9094 42.6245 53.7471 42.3917 53.5481 42.1861C53.2131 41.838 52.8164 41.6052 52.3979 41.4862C51.5004 41.2299 50.5046 41.4949 49.8163 42.2728C46.8345 45.643 44.5992 48.8461 42.9814 52.064C41.5031 55.0058 40.5872 57.8719 40.1802 60.826C39.5525 65.3854 40.2763 69.3514 41.1338 72.9025C41.2973 73.5801 41.4653 74.2415 41.63 74.8893C41.7649 75.4219 41.8975 75.9409 42.0221 76.4512C40.5084 76.9132 38.4401 78.4553 40.673 78.8962C40.689 78.8987 40.705 78.9024 40.721 78.9061C42.0221 79.1724 42.3571 79.6245 42.468 80.0778C42.5641 80.4717 42.4921 80.8656 42.739 81.1393C42.9048 81.3239 43.4102 81.3561 44.0367 81.3177L43.2112 85.1265L43.2226 85.1289C43.0306 85.477 42.8842 85.8622 42.7939 86.2771L41.6986 91.3294C41.6814 91.4087 41.6894 91.4868 41.7157 91.5561C41.7569 91.6626 41.8426 91.7469 41.9535 91.7753L42.101 91.8125L42.0827 91.9686L39.907 110.718C39.8875 110.839 40.0556 110.979 40.3117 111.071C40.3895 111.099 40.4752 111.123 40.5667 111.14C40.6467 111.155 40.7256 111.165 40.7988 111.168C40.9154 111.175 41.0206 111.166 41.1052 111.145C41.2264 111.115 41.3064 111.061 41.319 110.986L44.9857 92.5458L45.722 92.7328L41.4253 111.012C41.3887 111.145 41.5831 111.327 41.8769 111.453C41.8872 111.458 41.8975 111.462 41.9078 111.467C41.949 111.483 41.9913 111.499 42.0359 111.514C42.2028 111.567 42.3629 111.592 42.4921 111.59C42.6578 111.587 42.7756 111.54 42.7996 111.453L48.5575 93.6159L48.6078 93.4599C48.7656 93.4623 48.9085 93.3472 48.9462 93.1738L50.0415 88.1214C50.0792 87.9455 50.1067 87.7709 50.1227 87.5963C50.1421 87.3832 50.1467 87.1702 50.1353 86.9608C50.1273 86.8209 50.1124 86.6822 50.0918 86.5459L50.7813 83.3689C51.1231 83.5584 51.4044 83.6587 51.5656 83.603C51.9017 83.4865 52.0092 83.1013 52.2653 82.8028C52.5592 82.4585 53.0508 82.2293 54.3153 82.6567C54.3302 82.6616 54.3462 82.6666 54.3611 82.6728C56.5243 83.4196 55.3661 81.0056 54.2296 79.8277C54.2593 79.793 54.2879 79.7595 54.3165 79.7248C54.3302 79.7087 54.3439 79.6926 54.3576 79.6778C54.6194 79.3731 54.8881 79.0647 55.1625 78.7513C55.1923 78.7178 55.2231 78.6832 55.2529 78.6485C55.4084 78.4701 55.5661 78.2893 55.7239 78.1072C55.9972 77.7926 56.2739 77.473 56.5517 77.146C58.8475 74.4471 61.2051 71.3122 62.6263 66.9671C62.7292 66.6537 62.8241 66.3379 62.9144 66.0208C62.9247 65.9861 62.935 65.9527 62.9441 65.918C62.9773 65.7991 63.0081 65.6802 63.0401 65.5613L63.0379 65.5588Z" fill="#00736E"/>
</g>
<path d="M54.1038 72.9521L48.2362 73.0338C45.1503 72.9447 45.092 68.1698 48.1756 67.9939C48.1927 67.9939 48.2213 67.9939 48.2384 67.9939L54.1061 68.0831C57.0479 68.2503 57.0433 72.7861 54.1038 72.9521Z" fill="#4E2F27"/>
<path d="M53.9289 68.3444L46.7155 68.7073C43.5954 68.721 43.4353 63.8978 46.5509 63.6711L53.7699 63.4791C56.722 63.5237 56.8695 68.0707 53.9289 68.3444Z" fill="#4E2F27"/>
<path d="M51.5884 63.5597L45.5608 64.262C44.2836 64.4106 43.1369 63.4098 42.9997 62.0263C42.8579 60.6204 43.8229 59.3583 45.124 59.2456L51.1665 58.7142C54.1106 58.578 54.5017 63.0964 51.5884 63.5609V63.5597Z" fill="#4E2F27"/>
<path d="M32.0579 57.5709L41.3384 60.7046L48.3185 72.4963L47.4027 77.0519L35.2181 73.4042L32.0579 57.5709Z" fill="#4E2F27"/>
<path d="M34.0474 61.1146C34.5401 60.6167 34.89 60.0234 35.0855 59.3434L35.1084 59.2604L35.1244 59.1935C35.1598 59.0374 35.1644 58.983 35.1701 58.9433C35.1747 58.9062 35.1736 58.8938 35.1724 58.8901C35.1713 58.8863 35.169 58.8925 35.1667 58.9049C35.1507 58.9805 35.1415 59.0919 35.1324 59.1848C34.9163 62.2987 35.2753 68.2107 36.7857 70.839C37.514 72.2225 41.0469 73.0078 42.5092 73.2877C44.2688 73.6209 46.1256 73.8179 47.9332 73.9306C48.3825 73.9628 48.857 73.9752 49.3052 73.995L49.7351 74.0074C51.1529 73.9913 52.3122 75.2571 52.271 76.7955C52.2367 78.1902 51.2249 79.3136 49.9706 79.43L49.4367 79.4771C48.9394 79.5205 48.4088 79.5502 47.9172 79.575C45.8695 79.6728 43.8675 79.6604 41.7981 79.4821C39.5651 79.2727 37.4031 78.916 35.2684 77.9846C32.4478 76.7608 30.8712 74.5821 29.6901 71.6577C29.0796 70.128 28.6565 68.6219 28.3112 67.0278C27.7453 64.3115 27.3931 61.6584 27.3714 58.8678C27.3737 57.5424 27.5543 56.3348 28.3867 55.2634C29.8776 53.3212 32.6891 53.242 34.2623 55.116C35.7326 56.8377 35.6366 59.5255 34.0474 61.1183V61.1146Z" fill="#6A3F34"/>
<path d="M43.2545 77.205L41.5374 85.1234L44.2287 85.8083L45.9458 77.8899L43.2545 77.205Z" fill="#D6D6D6"/>
<path d="M47.3717 78.2539L45.6547 86.1724L48.346 86.8573L50.0631 78.9389L47.3717 78.2539Z" fill="#D6D6D6"/>
<path d="M40.4443 91.6477C40.4694 91.4966 40.6284 91.3852 40.8719 91.3232C41.128 91.2576 41.4756 91.2477 41.8574 91.3046C41.9066 91.3121 41.9569 91.3207 42.0072 91.3307C42.4771 91.4198 42.8807 91.5895 43.1254 91.7815C43.3038 91.9202 43.3987 92.0689 43.3758 92.2076L43.2786 92.6968L39.6428 110.984C39.6302 111.058 39.5502 111.113 39.429 111.142C39.3444 111.163 39.2392 111.171 39.1226 111.166C39.0494 111.162 38.9705 111.153 38.8905 111.137C38.8002 111.12 38.7133 111.097 38.6355 111.068C38.3794 110.976 38.2113 110.836 38.2308 110.715L40.4066 91.9661L40.4431 91.6477H40.4443Z" fill="#D6D6D6"/>
<path d="M42.6064 91.6193L43.1266 91.7803C43.3049 91.919 43.3999 92.0677 43.377 92.2064L39.644 110.983C39.6314 111.057 39.5514 111.111 39.4302 111.141L42.6064 91.618V91.6193Z" fill="#AAA0BC"/>
<g style="mix-blend-mode:screen" opacity="0.5">
<path d="M38.6367 111.068L40.873 91.3232C41.1291 91.2576 41.4767 91.2477 41.8586 91.3046L39.1237 111.166L38.6367 111.069V111.068Z" fill="#D6D6D6"/>
</g>
<path d="M39.7492 111.011L44.0092 92.8839L44.1236 92.3984C44.1522 92.2956 44.2448 92.2188 44.3831 92.1717C44.6758 92.0726 45.1743 92.1011 45.7094 92.272C45.8546 92.3191 45.9929 92.3723 46.121 92.4306C46.3485 92.5358 46.5429 92.656 46.6904 92.7798C46.9088 92.9632 47.0208 93.1539 46.9785 93.31L46.8813 93.6122L41.1235 111.45C41.0994 111.536 40.9817 111.582 40.8159 111.586C40.6856 111.588 40.5266 111.563 40.3597 111.51C40.3151 111.497 40.2728 111.48 40.2317 111.464C40.2214 111.461 40.2111 111.456 40.2008 111.451C39.907 111.324 39.7137 111.142 39.7492 111.01V111.011Z" fill="#D6D6D6"/>
<path d="M39.7492 111.011L44.1236 92.3984C44.1521 92.2956 44.2447 92.2188 44.3831 92.1717L45.0279 92.3253C45.0279 92.3253 39.7126 111.144 39.7492 111.011Z" fill="#AAA0BC"/>
<g style="mix-blend-mode:screen" opacity="0.5">
<path d="M40.2317 111.464L46.121 92.4318C46.3486 92.5359 46.5429 92.6573 46.6904 92.7811L40.8159 111.587L40.2317 111.464Z" fill="#D6D6D6"/>
</g>
<path d="M46.8573 93.6073L44.0093 92.8827L44.1236 92.3971C44.1522 92.2943 44.2448 92.2175 44.3832 92.1705C44.6758 92.0714 45.1743 92.0999 45.7094 92.2708C45.8546 92.3179 45.993 92.3711 46.121 92.4293C46.3486 92.5346 46.5429 92.6548 46.6904 92.7786C46.9088 92.9619 47.0208 93.1527 46.9785 93.3088L46.8813 93.611C46.8733 93.6097 46.8653 93.6085 46.8573 93.606V93.6073Z" fill="#AAA0BC"/>
<path d="M48.3471 86.8568L45.6556 86.1718L46.3268 83.0778C47.4324 83.489 48.2613 84.4266 48.6283 85.5637L48.3482 86.8568H48.3471Z" fill="#AAA0BC"/>
<path d="M41.7432 85.176C42.3194 83.842 43.5268 82.9601 44.8679 82.8659L44.2299 85.8089L41.7432 85.176Z" fill="#AAA0BC"/>
<path d="M40.4443 91.6477C40.4695 91.4966 40.6284 91.3852 40.8719 91.3232C41.128 91.2576 41.4756 91.2477 41.8575 91.3046C41.9066 91.3121 41.957 91.3207 42.0073 91.3307C42.4772 91.4198 42.8808 91.5895 43.1254 91.7815C43.3038 91.9202 43.3987 92.0689 43.3758 92.2076L43.2787 92.6968L40.4077 91.9661L40.4443 91.6477Z" fill="#AAA0BC"/>
<path d="M40.0236 91.3269L41.1189 86.2746C41.5888 84.107 43.5919 82.7631 45.5928 83.2722C47.2335 83.6896 48.3631 85.2243 48.458 86.9583C48.4694 87.1676 48.466 87.3795 48.4454 87.5937C48.4294 87.7684 48.402 87.9443 48.3642 88.1189L47.2689 93.1712C47.2254 93.3706 47.0414 93.4945 46.8573 93.4474L40.2774 91.7728C40.1665 91.7443 40.0807 91.6601 40.0396 91.5536C40.0121 91.4842 40.0053 91.405 40.0224 91.3269H40.0236Z" fill="#D6D6D6"/>
<path d="M47.3432 77.5523C47.5101 77.3418 47.6805 77.1312 47.852 76.9231C48.4705 76.17 49.1142 75.4331 49.7396 74.7159C49.9111 74.519 50.0838 74.322 50.2541 74.1251C55.1339 68.5129 59.4752 62.8537 55.4014 47.2384C55.159 46.3119 55.3683 45.3619 55.8862 44.6658C56.0566 44.4354 56.2624 44.2335 56.4956 44.0676C56.714 43.9127 56.9587 43.7901 57.2228 43.7096C57.6687 43.5733 58.1203 43.5696 58.5422 43.6762C59.4454 43.9065 60.2103 44.646 60.4802 45.6827C61.6521 50.1752 62.2386 54.14 62.2718 57.8038C62.2878 59.5057 62.1837 61.1171 61.9562 62.6592C61.7367 64.1517 61.4017 65.5799 60.9478 66.9646C59.5255 71.3097 57.169 74.4434 54.8732 77.1436C54.5954 77.4693 54.3187 77.7901 54.0454 78.1048C53.8877 78.2868 53.7299 78.4664 53.5744 78.646C53.5447 78.6807 53.5138 78.7154 53.4841 78.7488C53.2097 79.0622 52.9421 79.3706 52.6792 79.6753C52.6654 79.6914 52.6517 79.7075 52.638 79.7224C52.5328 79.845 52.4288 79.9664 52.3259 80.0878C51.9886 80.4841 51.6627 80.878 51.3506 81.2731C50.4016 82.4721 48.7358 82.6121 47.629 81.584C47.1065 81.0985 46.8012 80.4396 46.7258 79.7534C46.6412 78.9867 46.8413 78.184 47.342 77.5523H47.3432Z" fill="#380E78"/>
<path d="M45.9827 80.4631L46.5189 79.2158L46.7476 78.6832C46.8299 78.4912 47.1169 78.5345 47.1957 78.3401C47.2358 78.241 47.2769 78.1481 47.3192 78.0626C48.4889 75.6907 50.4977 78.1939 52.1647 79.4722C53.3767 80.4011 55.0974 83.5026 52.6838 82.669C52.6689 82.6641 52.6529 82.6591 52.6381 82.6529C51.3735 82.2256 50.8819 82.4548 50.588 82.7991C50.3319 83.0976 50.2256 83.4828 49.8883 83.5992C49.3018 83.8024 47.1386 81.9445 46.1656 81.205C45.9461 81.0378 45.8695 80.7257 45.9827 80.4631Z" fill="#380E78"/>
<path d="M62.2729 57.8037C62.2398 54.1387 61.6533 50.1739 60.4813 45.6826C60.2115 44.6459 59.4466 43.9052 58.5434 43.6761C58.1215 43.5683 57.6699 43.572 57.224 43.7095C56.9587 43.79 56.7152 43.9126 56.4968 44.0675C56.7666 46.5992 57.4218 50.4141 58.8658 50.7461C59.9325 50.9901 60.4882 55.5371 59.5975 61.0402C58.8201 65.8436 55.1979 71.8521 54.8138 74.0903C54.6194 75.2224 54.7246 76.3285 54.8755 77.1448C57.1714 74.4458 59.5289 71.3109 60.9501 66.9658C61.8716 64.1504 62.3038 61.1542 62.2741 57.805L62.2729 57.8037Z" fill="#DB53EA"/>
<path d="M42.7139 88.0867C42.9254 87.1132 43.8252 86.5087 44.7238 86.7379C45.6225 86.967 46.1805 87.9418 45.9689 88.9153C45.7574 89.8889 44.8576 90.4933 43.959 90.2642C43.0603 90.035 42.5023 89.0603 42.7139 88.0867Z" fill="#AAA0BC"/>
<path d="M43.8366 92.6771L43.6777 92.6374L44.0115 91.0991L41.4768 90.4538L42.1959 87.1343L40.9988 86.8296L41.0366 86.6562L42.3937 87.0017L41.6734 90.3212L44.2082 90.9665L43.8366 92.6771Z" fill="#766E87"/>
<g style="mix-blend-mode:multiply" opacity="0.3">
<path d="M40.0236 91.3269L41.1189 86.2746C41.5888 84.107 43.5919 82.7631 45.5928 83.2722C47.2335 83.6896 48.3631 85.2243 48.458 86.9583C47.0345 84.6248 45.4579 83.8321 43.4387 84.5864C41.997 85.1252 40.7576 88.7209 40.0407 91.5548C40.0133 91.4855 40.0064 91.4062 40.0236 91.3282V91.3269Z" fill="#AAA0BC"/>
</g>
<g style="mix-blend-mode:screen" opacity="0.5">
<path d="M40.3814 91.7989L42.3731 92.1086C44.8896 92.5 47.3169 90.9306 48.1927 88.3444L48.4465 87.5938C48.4305 87.7684 48.4031 87.9443 48.3654 88.119L47.27 93.1713C47.2266 93.3707 47.0425 93.4946 46.8584 93.4475L40.3814 91.7989Z" fill="#D6D6D6"/>
</g>
<g style="mix-blend-mode:multiply" opacity="0.5">
<path d="M46.5189 79.2158C48.6535 80.1113 49.9763 81.4688 50.588 82.7991C50.8818 82.4548 51.3735 82.2256 52.638 82.6529C52.6151 82.5898 52.5877 82.5229 52.558 82.4548C51.9669 81.0873 48.9507 79.0832 47.6256 78.2521C47.6759 78.1951 47.7262 78.1444 47.7765 78.0998C48.61 77.3628 51.6845 75.2993 53.4509 72.9025C55.2174 70.5058 58.8326 63.6179 58.5548 58.22C58.3501 54.244 56.7289 47.792 55.8874 44.6658C55.3694 45.3631 55.1602 46.3119 55.4026 47.2384C59.6192 63.4011 54.8206 68.8968 49.7408 74.7146C48.9404 75.6312 48.1138 76.5788 47.3443 77.5511C47.0962 77.8644 46.9213 78.2199 46.8196 78.5927C46.7898 78.6163 46.7647 78.6448 46.7487 78.6832L46.52 79.2158H46.5189Z" fill="#380E78"/>
</g>
<path d="M45.0463 73.3658C43.082 65.6442 41.2264 58.3513 51.9532 46.2252C52.5683 45.5303 52.7958 44.5853 52.6392 43.7071C52.5877 43.4172 52.4951 43.1336 52.3602 42.8685C52.2344 42.6208 52.0721 42.388 51.8731 42.1823C51.5381 41.8343 51.1414 41.6014 50.7229 41.4825C49.8254 41.2261 48.8296 41.4912 48.1413 42.269C45.1594 45.6393 42.9242 48.8424 41.3064 52.0603C39.8281 55.002 38.9123 57.8682 38.5052 60.8223C37.8775 65.3816 38.6013 69.3477 39.4588 72.8988C39.6223 73.5763 39.7903 74.2378 39.955 74.8856C40.2614 76.087 40.5495 77.2228 40.7793 78.3363C41.0972 79.8784 42.508 80.8483 43.9304 80.5039C44.6026 80.3417 45.1572 79.9143 45.5207 79.3471C45.9278 78.7129 46.0981 77.9028 45.9312 77.0903C45.6728 75.8405 45.3538 74.5833 45.044 73.367L45.0463 73.3658Z" fill="#380E78"/>
<path d="M45.8729 80.3528L45.9404 78.9792L45.9689 78.3933C45.9792 78.1815 45.7071 78.0737 45.722 77.8619C45.73 77.7542 45.7334 77.6514 45.7334 77.5535C45.7289 74.8645 42.8694 76.0535 40.8445 76.3335C39.3719 76.5378 36.509 78.4007 39.0003 78.8924C39.0163 78.8949 39.0323 78.8986 39.0483 78.9024C40.3494 79.1687 40.6844 79.6208 40.7953 80.0741C40.8914 80.468 40.8193 80.8619 41.0663 81.1356C41.4962 81.6137 44.2105 81.0737 45.3904 80.9139C45.6557 80.878 45.8592 80.6414 45.8729 80.3515V80.3528Z" fill="#380E78"/>
<path d="M41.3087 52.0603C42.9265 48.8412 45.1617 45.6393 48.1436 42.269C48.8318 41.4912 49.8277 41.2261 50.7252 41.4825C51.1437 41.6027 51.5416 41.8355 51.8754 42.1823C52.0744 42.3892 52.2367 42.6208 52.3625 42.8685C51.0271 44.9668 48.7953 48.0026 47.3775 47.5604C46.3302 47.2334 43.8698 50.9666 42.2714 56.2778C40.8754 60.914 41.471 68.062 40.8399 70.2333C40.5209 71.332 39.9493 72.2547 39.4622 72.8988C38.6047 69.3477 37.8809 65.3816 38.5086 60.8223C38.9145 57.8682 39.8315 55.002 41.3098 52.0603H41.3087Z" fill="#DB53EA"/>
<g style="mix-blend-mode:multiply" opacity="0.5">
<path d="M45.9404 78.978C43.6674 78.6832 41.9113 79.2096 40.7954 80.0729C40.6844 79.6196 40.3506 79.1675 39.0483 78.9012C39.0964 78.8578 39.1478 78.812 39.205 78.7662C40.3197 77.8595 43.8504 77.6242 45.3813 77.5647C45.3618 77.4892 45.339 77.4173 45.3138 77.3529C44.8977 76.279 43.0763 72.8927 42.5561 69.8791C42.0359 66.8643 41.8278 58.9433 44.4117 54.3183C46.3154 50.9121 50.5435 46.0394 52.6392 43.7071C52.7947 44.5853 52.5683 45.5304 51.9532 46.2252C41.2264 58.3513 43.082 65.6443 45.0463 73.3658C45.355 74.5821 45.6751 75.8393 45.9335 77.0891C46.017 77.4929 46.017 77.8954 45.9461 78.2757C45.9621 78.3116 45.9712 78.35 45.969 78.3921L45.9404 78.978Z" fill="#380E78"/>
</g>
<g style="mix-blend-mode:screen" opacity="0.55">
<path d="M60.6528 63.6067C61.0267 63.1843 61.4692 62.8759 61.9574 62.6591C61.7378 64.1517 61.4028 65.5798 60.9489 66.9646C59.5266 71.3097 57.1702 74.4434 54.8744 77.1435C54.5965 77.4693 54.3199 77.7901 54.0466 78.1047L54.0157 78.0713C54.0157 78.0713 53.0668 72.1854 60.6528 63.6079V63.6067Z" fill="#DB53EA"/>
</g>
<path d="M27.3714 56.9144C27.3176 59.1625 28.7651 61.0613 30.8357 61.2112C32.6685 61.345 34.8683 61.6014 36.5856 62.0956C40.1882 63.1323 46.3119 63.4519 48.3654 59.0548C50.4188 54.6577 46.153 46.0443 45.3081 42.3793C44.462 38.7142 31.1833 40.9796 28.9892 45.669C27.6835 48.4609 27.4548 53.3856 27.3714 56.9144Z" fill="#6A3F34"/>
<path d="M50.7755 76.5428L41.9901 69.1793C41.8277 69.043 41.6985 68.8795 41.6025 68.6987L41.2183 67.9679L36.9617 59.876C35.6263 57.3381 36.4438 54.1065 38.7865 52.6598C41.1292 51.2131 44.1121 52.0987 45.4476 54.6367C45.5665 54.8621 45.6774 55.121 45.762 55.3563L48.849 64.0489L48.0772 62.8375L54.5234 72.6362C56.2281 75.355 53.1868 78.48 50.7744 76.5404L50.7755 76.5428Z" fill="#6A3F34"/>
<path d="M52.0343 0.224182L49.2961 16.1404L44.7707 43.447L28.9881 45.669L26.3218 13.543L25.2471 0.605676L25.1647 0.224182H52.0343Z" fill="#6A3F34"/>
<path d="M52.0344 0.224182L49.2961 16.1417C48.9966 16.081 48.6982 15.9658 48.4032 15.7924C43.3656 12.8209 31.0061 13.2569 26.3219 13.5443L25.2471 0.606915L25.3054 0.225421H52.0356L52.0344 0.224182Z" fill="#380E78"/>
<path d="M50.0072 17.0756C48.937 18.282 38.0113 17.0756 32.2923 15.64C26.5733 14.2044 25.039 16.4711 24.481 14.7333C24.1723 13.7709 24.8686 12.9472 25.3385 11.8251C25.5112 11.4114 25.6541 10.958 25.7033 10.4428C25.7616 9.83212 25.6907 9.13354 25.3877 8.3111C24.1323 4.91109 25.1785 0.226639 25.1785 0.226639L47.2426 6.57703L49.8677 7.40443C49.8677 7.40443 50.6532 10.6162 50.7401 13.4204C50.787 14.9612 50.6246 16.3782 50.0072 17.0756Z" fill="#380E78"/>
<g style="mix-blend-mode:multiply" opacity="0.5">
<path d="M50.7401 13.4204C50.0255 12.6698 49.0902 12.126 47.8794 12.126C43.9738 12.126 29.0486 12.126 25.9799 11.8994C25.7318 11.8808 25.5191 11.856 25.3385 11.8251C25.5111 11.4114 25.6541 10.958 25.7032 10.4428C28.1671 10.8119 42.8499 12.8209 45.7871 8.87839C46.3153 8.16867 51.1688 0.81004 51.6101 -1.52588e-05C51.6101 -1.52588e-05 50.652 10.6162 50.7389 13.4204H50.7401Z" fill="#380E78"/>
</g>
<g style="mix-blend-mode:multiply" opacity="0.44">
<g style="mix-blend-mode:screen">
<path d="M154.561 73.5354C154.691 73.9119 155.079 74.1039 155.428 73.9615C155.775 73.8203 155.953 73.4004 155.821 73.0226L154.503 69.2138C154.372 68.8373 153.985 68.6453 153.636 68.7878C153.289 68.929 153.111 69.3488 153.243 69.7266L154.561 73.5354Z" fill="#00736E"/>
</g>
<g style="mix-blend-mode:screen">
<path d="M158.428 84.7091C158.558 85.0856 158.946 85.2776 159.294 85.1351C159.642 84.9939 159.819 84.574 159.688 84.1963L158.37 80.3875C158.239 80.011 157.852 79.819 157.503 79.9614C157.155 80.1026 156.978 80.5225 157.11 80.9003L158.428 84.7091Z" fill="#00736E"/>
</g>
<g style="mix-blend-mode:screen">
<path d="M158.669 93.0536L161.824 94.5176L150.843 62.7917C150.973 63.1682 151.361 63.3602 151.71 63.2178C152.057 63.0766 152.234 62.6567 152.103 62.2789L150.785 58.4701C150.654 58.0936 150.267 57.9016 149.918 58.044C149.57 58.1852 149.393 58.6051 149.525 58.9829L147.013 51.7259L148.803 50.9988L144.501 38.5668L142.71 39.2939L137.947 25.5328L136.645 29.4221L138.933 36.0326L126.86 40.9363L128.576 45.8945L120.085 49.344C120.089 49.3564 120.094 49.3675 120.097 49.3799C120.337 50.0735 120.013 50.8489 119.371 51.109C118.731 51.3691 118.015 51.0174 117.775 50.3225C117.771 50.3101 117.767 50.299 117.764 50.2866L109.671 53.5739L109.149 52.0652L108.642 50.6024L107.731 47.9691L61.2108 66.8667L61.9323 68.9501L62.1221 69.4988L63.1511 72.4715L62.975 72.5433L67.083 84.413C67.6753 84.2718 68.2892 84.6198 68.5087 85.254C68.7283 85.8869 68.4767 86.5868 67.9451 86.9026L74.3729 105.476L74.565 105.398L98.7112 95.589L115.845 93.5775C115.957 93.7038 116.048 93.8574 116.107 94.0321C116.247 94.4359 116.195 94.8681 116.001 95.21C115.963 95.2769 115.92 95.3401 115.87 95.3983L125.604 103.329L137.411 98.5332C137.318 98.2421 137.324 97.9399 137.41 97.6674C137.525 97.2983 137.786 96.9874 138.148 96.84C138.533 96.684 138.944 96.7484 139.263 96.975C139.467 97.12 139.634 97.3293 139.731 97.5906L155.859 91.0396L157.706 90.289L158.664 93.0561L158.669 93.0536Z" fill="#00736E"/>
</g>
</g>
<path d="M129.559 62.8647C129.559 62.8647 132.625 55.5457 132.907 50.7176C133.19 45.8895 129.089 39.0622 125.024 32.8927C119.958 25.2033 107.318 28.581 107.553 34.7295C107.787 40.8768 107.253 44.7338 110.049 48.7172C114.939 55.6832 129.559 62.866 129.559 62.866V62.8647Z" fill="#6A3F34"/>
<path d="M121.634 0.22406L124.185 32.3464L107.936 35.6237L101.408 0.604316L121.634 0.22406Z" fill="#6A3F34"/>
<path d="M150.755 59.9341C151.102 59.7929 151.491 59.9837 151.621 60.3602L152.94 64.169C153.07 64.5455 152.894 64.9666 152.546 65.1078C152.199 65.249 151.81 65.0583 151.68 64.6818L150.362 60.873C150.231 60.4965 150.407 60.0753 150.755 59.9341Z" fill="#DB53EA"/>
<path d="M154.473 70.6767C154.821 70.5355 155.209 70.7262 155.34 71.1028L156.658 74.9115C156.788 75.2881 156.612 75.7092 156.265 75.8504C155.917 75.9916 155.528 75.8008 155.398 75.4243L154.08 71.6156C153.949 71.239 154.125 70.8179 154.473 70.6767Z" fill="#2E58C7"/>
<path d="M158.341 81.8515C158.689 81.7103 159.077 81.901 159.208 82.2775L160.526 86.0863C160.656 86.4628 160.48 86.884 160.133 87.0252C159.785 87.1664 159.396 86.9756 159.266 86.5991L157.948 82.7903C157.817 82.4138 157.993 81.9927 158.341 81.8515Z" fill="#DB53EA"/>
<path d="M147.381 53.7862L149.637 52.8701L145.335 40.4382L143.079 41.3543L147.381 53.7862Z" fill="#ECCFB2"/>
<path d="M137.482 31.3122L138.783 27.4229L162.66 96.4065L159.506 94.9424L137.482 31.3122Z" fill="#E6E6E6"/>
<path d="M108.571 49.8742L62.0485 68.7678L64.9578 77.1752L111.48 58.2816L108.571 49.8742Z" fill="#ECCFB2"/>
<path d="M69.3457 87.1428C69.1261 86.5099 68.5121 86.1606 67.9199 86.3018L63.8119 74.4321L118.602 52.1754C118.605 52.1878 118.61 52.1989 118.613 52.2113C118.853 52.9049 119.569 53.2579 120.209 52.9978C120.85 52.7377 121.176 51.9623 120.935 51.2687C120.931 51.2563 120.927 51.2452 120.923 51.2328L129.414 47.7833L127.698 42.8251L140.434 37.6514L159.212 91.9053L140.572 99.4769C140.474 99.2156 140.308 99.0063 140.105 98.8614C139.786 98.6347 139.374 98.5703 138.99 98.7263C138.627 98.8737 138.367 99.1846 138.251 99.5537C138.167 99.8262 138.161 100.128 138.252 100.42L126.445 105.215L116.712 97.2846C116.76 97.2251 116.805 97.1632 116.842 97.0963C117.037 96.7545 117.088 96.3222 116.949 95.9184C116.708 95.2248 115.993 94.8718 115.352 95.1319C115.088 95.2396 114.878 95.4341 114.738 95.6756L111.16 92.7599L75.2133 107.362L68.7854 88.7889C69.3182 88.4731 69.5686 87.7733 69.3491 87.1403L69.3457 87.1428Z" fill="#380E78"/>
<g style="mix-blend-mode:multiply" opacity="0.5">
<path d="M69.3457 87.1428C69.1261 86.5099 68.5121 86.1606 67.9199 86.3018L63.8119 74.4321L118.602 52.1754C118.605 52.1878 118.61 52.1989 118.613 52.2113C118.853 52.9049 119.569 53.2579 120.209 52.9978C120.85 52.7377 121.176 51.9623 120.935 51.2687C120.931 51.2563 120.927 51.2452 120.923 51.2328L129.414 47.7833L127.698 42.8251L140.434 37.6514L142.806 44.5046L98.7432 63.4716C82.4609 70.4797 72.874 88.6787 75.4042 107.284L75.2121 107.362L68.7843 88.7889C69.3171 88.4731 69.5675 87.7733 69.3479 87.1403L69.3457 87.1428Z" fill="#5119BF"/>
</g>
<path d="M126.203 101.052L126.14 100.998L110.607 87.471L78.5188 100.096L78.4216 99.8076L110.659 87.123L110.722 87.1775L126.254 100.704L148.798 91.5473L148.897 91.8347L126.203 101.052Z" fill="#8C76C1"/>
<path d="M125.114 94.2004L125.051 94.1422L109.22 79.7557L76.2057 92.7575L76.1085 92.4689L109.277 79.4064L109.34 79.4634L125.17 93.8499L146.783 85.0706L146.882 85.358L125.114 94.2004Z" fill="#8C76C1"/>
<path d="M123.913 86.5743L123.849 86.5161L108.018 72.1295L75.004 85.1313L74.9069 84.8427L108.075 71.7802L108.137 71.8372L123.968 86.2237L145.581 77.4444L145.681 77.7318L123.913 86.5743Z" fill="#8C76C1"/>
<path d="M64.8981 77.3516L64.7986 77.0642L119.45 54.8645L122.202 61.9419C124.862 60.847 136.414 56.0932 136.702 56.0572L136.718 56.2096L136.741 56.3607C136.376 56.4449 126.103 60.6624 122.176 62.2801L122.048 62.3333L119.295 55.2546L64.8981 77.3516Z" fill="#8C76C1"/>
<path d="M67.3517 84.2234L67.2523 83.936L121.904 61.7363L124.656 68.8137C127.315 67.7188 138.868 62.965 139.156 62.9291L139.188 63.2338L139.172 63.0814L139.195 63.2325C138.83 63.3168 128.557 67.5343 124.63 69.1519L124.502 69.2051L121.748 62.1264L67.3517 84.2234Z" fill="#8C76C1"/>
<path d="M132.192 51.0029L119.919 55.9845L120.019 56.2721L132.292 51.2905L132.192 51.0029Z" fill="#8C76C1"/>
<path d="M125.441 81.7734L125.342 81.4861L132.413 78.6137C131.646 76.466 128.492 67.6098 128.485 67.2345L128.768 67.2283C128.768 67.2283 128.768 67.2246 128.768 67.2209C128.814 67.5962 131.163 74.2587 132.73 78.6472L132.782 78.7921L125.441 81.7734Z" fill="#8C76C1"/>
<path d="M86.5853 93.7097L110.43 84.0257L104.107 65.7519L80.2618 75.4359L86.5853 93.7097Z" fill="#5014AB"/>
<path d="M87.0095 89.4188L107.507 81.0944L103.056 68.231L82.5582 76.5554L87.0095 89.4188Z" fill="#380E78"/>
<path d="M103.254 68.8347L82.7568 77.1591L87.208 90.0225L107.705 81.6981L103.254 68.8347Z" fill="#2E58C7"/>
<path d="M135.676 81.6966C135.631 81.5641 135.595 81.4316 135.569 81.2978C135.452 80.6971 135.531 80.0889 135.767 79.5625C135.857 79.3581 135.971 79.1674 136.106 78.994C136.374 78.6484 136.726 78.3697 137.145 78.2C137.234 78.1641 137.324 78.1331 137.414 78.1084C138.635 77.7739 139.921 78.4824 140.373 79.7904C140.452 80.0171 140.5 80.2475 140.522 80.4766C140.576 81.06 140.451 81.6397 140.182 82.1301C140.081 82.3172 139.957 82.4918 139.815 82.6479C139.567 82.9229 139.26 83.1446 138.906 83.2883C138.723 83.3626 138.538 83.4121 138.352 83.4381C137.221 83.6004 136.095 82.9055 135.678 81.6979L135.676 81.6966Z" fill="#E6E6E6"/>
<g style="mix-blend-mode:screen" opacity="0.5">
<path d="M135.569 81.2965C135.452 80.6958 135.531 80.0876 135.767 79.5612L139.814 82.6454C139.566 82.9204 139.259 83.1421 138.905 83.2858C138.722 83.3601 138.537 83.4096 138.351 83.4356L135.569 81.2965Z" fill="#E6E6E6"/>
</g>
<g style="mix-blend-mode:screen" opacity="0.5">
<path d="M136.105 78.9926C136.373 78.6471 136.725 78.3684 137.143 78.1987C137.233 78.1628 137.323 78.1318 137.413 78.107L140.52 80.474C140.573 81.0574 140.449 81.6371 140.18 82.1276L136.105 78.9926Z" fill="#E6E6E6"/>
</g>
<path d="M138.687 87.9591C138.656 87.8687 138.631 87.777 138.614 87.6854C138.534 87.2741 138.589 86.858 138.749 86.4963C138.81 86.3563 138.888 86.225 138.981 86.1061C139.164 85.8696 139.405 85.6788 139.692 85.5624C139.754 85.5376 139.815 85.5165 139.877 85.4992C140.714 85.2701 141.594 85.7556 141.904 86.6511C141.958 86.8059 141.991 86.9645 142.006 87.1206C142.043 87.5206 141.957 87.917 141.774 88.2539C141.704 88.3827 141.62 88.5016 141.522 88.6081C141.352 88.7964 141.142 88.9488 140.899 89.0466C140.775 89.0974 140.648 89.1321 140.52 89.1494C139.745 89.2609 138.974 88.784 138.687 87.9566V87.9591Z" fill="#E6E6E6"/>
<g style="mix-blend-mode:screen" opacity="0.5">
<path d="M138.614 87.6854C138.534 87.2741 138.589 86.858 138.749 86.4963L141.522 88.6094C141.352 88.7976 141.142 88.95 140.899 89.0478C140.775 89.0986 140.648 89.1333 140.52 89.1506L138.614 87.6841V87.6854Z" fill="#E6E6E6"/>
</g>
<g style="mix-blend-mode:screen" opacity="0.5">
<path d="M138.981 86.1062C139.164 85.8696 139.405 85.6788 139.692 85.5624C139.754 85.5376 139.815 85.5166 139.877 85.4992L142.006 87.1218C142.043 87.5219 141.957 87.9183 141.774 88.2552L138.982 86.1074L138.981 86.1062Z" fill="#E6E6E6"/>
</g>
<path d="M131.872 68.2701C131.841 68.1796 131.815 68.088 131.798 67.9963C131.718 67.5851 131.773 67.1689 131.933 66.8073C131.995 66.6673 132.073 66.536 132.165 66.4171C132.348 66.1805 132.59 65.9898 132.876 65.8733C132.938 65.8486 133 65.8275 133.062 65.8102C133.899 65.581 134.779 66.0666 135.089 66.9621C135.143 67.1169 135.176 67.2755 135.191 67.4315C135.227 67.8316 135.141 68.2279 134.959 68.5648C134.889 68.6937 134.804 68.8126 134.707 68.9191C134.537 69.1074 134.326 69.2597 134.084 69.3576C133.959 69.4083 133.832 69.443 133.704 69.4604C132.929 69.5718 132.158 69.095 131.872 68.2676V68.2701Z" fill="#E6E6E6"/>
<g style="mix-blend-mode:screen" opacity="0.5">
<path d="M131.798 67.9963C131.718 67.5851 131.773 67.1689 131.933 66.8072L134.707 68.9203C134.537 69.1086 134.326 69.2609 134.084 69.3588C133.959 69.4096 133.832 69.4442 133.704 69.4616L131.798 67.9951V67.9963Z" fill="#E6E6E6"/>
</g>
<g style="mix-blend-mode:screen" opacity="0.5">
<path d="M132.166 66.4171C132.349 66.1805 132.591 65.9897 132.878 65.8733C132.939 65.8485 133.001 65.8275 133.063 65.8101L135.192 67.4327C135.228 67.8328 135.143 68.2292 134.96 68.5661L132.168 66.4183L132.166 66.4171Z" fill="#E6E6E6"/>
</g>
<path d="M130.903 63.2537C130.885 63.2004 130.871 63.1484 130.861 63.0939C130.814 62.8536 130.846 62.612 130.94 62.4015C130.976 62.3197 131.021 62.2442 131.075 62.1748C131.181 62.0373 131.322 61.9259 131.489 61.8577C131.524 61.8429 131.561 61.8317 131.596 61.8206C132.083 61.688 132.595 61.9692 132.776 62.4919C132.807 62.5823 132.826 62.674 132.835 62.7656C132.857 62.9985 132.807 63.2301 132.7 63.4246C132.659 63.4989 132.61 63.5695 132.554 63.6314C132.455 63.7417 132.332 63.8296 132.192 63.8866C132.119 63.9163 132.045 63.9361 131.971 63.946C131.519 64.0104 131.071 63.733 130.904 63.2524L130.903 63.2537Z" fill="#E6E6E6"/>
<g style="mix-blend-mode:screen" opacity="0.5">
<path d="M130.86 63.095C130.813 62.8547 130.845 62.6132 130.938 62.4026L132.553 63.6326C132.453 63.7428 132.331 63.8308 132.19 63.8878C132.117 63.9175 132.044 63.9373 131.97 63.9472L130.86 63.0938V63.095Z" fill="#E6E6E6"/>
</g>
<g style="mix-blend-mode:screen" opacity="0.5">
<path d="M131.075 62.1748C131.181 62.0373 131.322 61.9258 131.488 61.8577C131.524 61.8428 131.561 61.8317 131.596 61.8205L132.835 62.7644C132.857 62.9972 132.807 63.2289 132.7 63.4233L131.075 62.1723V62.1748Z" fill="#E6E6E6"/>
</g>
<path d="M141.025 92.4999C141.007 92.4466 140.993 92.3946 140.983 92.3401C140.936 92.0998 140.968 91.8582 141.062 91.6477C141.098 91.5659 141.143 91.4904 141.197 91.421C141.303 91.2835 141.444 91.1721 141.61 91.1039C141.646 91.0891 141.683 91.0779 141.718 91.0668C142.205 90.933 142.717 91.2154 142.898 91.7381C142.929 91.8285 142.948 91.9202 142.957 92.0118C142.979 92.2447 142.929 92.4763 142.822 92.6708C142.781 92.7451 142.732 92.8157 142.676 92.8776C142.577 92.9879 142.454 93.0758 142.314 93.1328C142.24 93.1625 142.167 93.1823 142.093 93.1922C141.641 93.2566 141.193 92.9792 141.026 92.4974L141.025 92.4999Z" fill="#E6E6E6"/>
<g style="mix-blend-mode:screen" opacity="0.5">
<path d="M140.983 92.3413C140.936 92.101 140.968 91.8595 141.062 91.6489L142.676 92.8788C142.577 92.9891 142.454 93.077 142.314 93.134C142.24 93.1637 142.167 93.1835 142.093 93.1934L140.983 92.34V92.3413Z" fill="#E6E6E6"/>
</g>
<g style="mix-blend-mode:screen" opacity="0.5">
<path d="M141.197 91.4222C141.303 91.2847 141.444 91.1733 141.61 91.1052C141.646 91.0903 141.683 91.0791 141.718 91.068L142.957 92.0118C142.979 92.2447 142.929 92.4763 142.822 92.6708L141.197 91.4198V91.4222Z" fill="#E6E6E6"/>
</g>
<path d="M133.405 75.1332C133.359 75.0007 133.324 74.8681 133.297 74.7344C133.181 74.1336 133.259 73.5255 133.495 72.9991C133.585 72.7947 133.7 72.6039 133.835 72.4305C134.102 72.085 134.454 71.8063 134.873 71.6366C134.962 71.6007 135.052 71.5697 135.143 71.5449C136.364 71.2105 137.649 71.919 138.102 73.227C138.18 73.4536 138.228 73.684 138.25 73.9132C138.304 74.4966 138.179 75.0762 137.911 75.5667C137.809 75.7537 137.685 75.9284 137.544 76.0845C137.295 76.3594 136.988 76.5811 136.635 76.7248C136.452 76.7991 136.266 76.8487 136.081 76.8747C134.95 77.037 133.824 76.3421 133.407 75.1344L133.405 75.1332Z" fill="#E6E6E6"/>
<g style="mix-blend-mode:screen" opacity="0.5">
<path d="M133.297 74.7343C133.181 74.1336 133.259 73.5255 133.495 72.999L137.542 76.0832C137.294 76.3582 136.987 76.5799 136.633 76.7236C136.451 76.7979 136.265 76.8474 136.08 76.8734L133.298 74.7343H133.297Z" fill="#E6E6E6"/>
</g>
<g style="mix-blend-mode:screen" opacity="0.5">
<path d="M133.835 72.4292C134.102 72.0837 134.454 71.805 134.873 71.6353C134.962 71.5994 135.052 71.5684 135.143 71.5436L138.249 73.9106C138.303 74.494 138.178 75.0737 137.909 75.5642L133.835 72.4292Z" fill="#E6E6E6"/>
</g>
<g style="mix-blend-mode:multiply" opacity="0.5">
<path d="M135.068 60.4049L143.006 57.1807L143.292 58.0069L146.631 56.6506L140.387 38.6139L137.05 39.9702L137.335 40.7963L129.397 44.0217L135.068 60.4049Z" fill="#380E78"/>
<path d="M151.108 69.6037L140.429 73.9407L143.313 82.2761L153.992 77.9392L151.108 69.6037Z" fill="#380E78"/>
<path d="M154.826 80.3481L144.147 84.6851L147.031 93.0205L157.71 88.6835L154.826 80.3481Z" fill="#380E78"/>
<path d="M147.39 58.8604L136.711 63.1974L139.595 71.5329L150.275 67.1959L147.39 58.8604Z" fill="#380E78"/>
</g>
<path d="M139.415 40.6257L129.996 44.4509L135.666 60.8354L145.085 57.0102L139.415 40.6257Z" fill="#ECCFB2"/>
<g style="mix-blend-mode:multiply">
<g style="mix-blend-mode:screen" opacity="0.5">
<path d="M136.826 77.9362C136.735 77.9609 136.645 77.9919 136.556 78.0278C136.137 78.1975 135.785 78.4762 135.518 78.8218C135.383 78.9952 135.268 79.1872 135.178 79.3903C134.943 79.918 134.864 80.5249 134.98 81.1256C135.007 81.2606 135.042 81.3932 135.088 81.5257C135.505 82.7333 136.631 83.4282 137.762 83.2659C137.948 83.2399 138.134 83.1892 138.317 83.1161C138.671 82.9724 138.977 82.7507 139.225 82.4757C139.367 82.3196 139.49 82.145 139.592 81.958C139.861 81.4675 139.986 80.889 139.932 80.3044C139.911 80.0753 139.862 79.8449 139.785 79.6182C139.332 78.3102 138.048 77.603 136.826 77.9362Z" fill="#380E78"/>
</g>
<g style="mix-blend-mode:screen" opacity="0.5">
<path d="M139.29 85.3282C139.228 85.3456 139.166 85.3666 139.104 85.3914C138.817 85.5078 138.576 85.6986 138.393 85.9352C138.301 86.0541 138.223 86.1854 138.161 86.3253C138 86.687 137.946 87.1032 138.026 87.5144C138.043 87.6061 138.068 87.6977 138.099 87.7881C138.385 88.6155 139.157 89.0912 139.932 88.9809C140.06 88.9623 140.187 88.9289 140.312 88.8781C140.554 88.779 140.764 88.6279 140.935 88.4396C141.032 88.3331 141.117 88.213 141.186 88.0854C141.37 87.7497 141.456 87.3521 141.418 86.9521C141.404 86.7948 141.37 86.6375 141.317 86.4826C141.007 85.5871 140.126 85.1016 139.29 85.3307V85.3282Z" fill="#380E78"/>
</g>
<g style="mix-blend-mode:screen" opacity="0.5">
<path d="M133.116 69.2919C133.244 69.2733 133.37 69.2399 133.495 69.1891C133.737 69.09 133.948 68.9389 134.118 68.7506C134.215 68.6441 134.3 68.524 134.37 68.3951C134.554 68.0595 134.64 67.6619 134.602 67.2618C134.587 67.1045 134.554 66.9472 134.5 66.7924C134.19 65.8968 133.31 65.4113 132.473 65.6405C132.411 65.6578 132.349 65.6789 132.288 65.7036C132.001 65.8201 131.76 66.0108 131.577 66.2474C131.484 66.3663 131.406 66.4976 131.344 66.6375C131.183 66.9992 131.13 67.4154 131.21 67.8266C131.228 67.9183 131.252 68.0099 131.283 68.1003C131.569 68.9277 132.34 69.4034 133.116 69.2931V69.2919Z" fill="#380E78"/>
</g>
<g style="mix-blend-mode:screen" opacity="0.5">
<path d="M131.381 63.7776C131.455 63.7664 131.53 63.7466 131.602 63.7181C131.743 63.6611 131.866 63.5719 131.964 63.4629C132.021 63.401 132.069 63.3317 132.11 63.2561C132.218 63.0604 132.267 62.83 132.245 62.5972C132.237 62.5055 132.218 62.4138 132.186 62.3234C132.005 61.802 131.493 61.5196 131.006 61.6521C130.969 61.662 130.934 61.6744 130.899 61.6892C130.732 61.7574 130.591 61.8676 130.485 62.0063C130.431 62.0757 130.385 62.1525 130.35 62.233C130.256 62.4436 130.225 62.6851 130.271 62.9254C130.281 62.9786 130.295 63.0319 130.313 63.0852C130.48 63.567 130.929 63.8444 131.38 63.78L131.381 63.7776Z" fill="#380E78"/>
</g>
<g style="mix-blend-mode:screen" opacity="0.5">
<path d="M141.13 90.8983C141.094 90.9082 141.058 90.9206 141.023 90.9355C140.856 91.0036 140.715 91.1138 140.609 91.2526C140.555 91.3219 140.509 91.3987 140.474 91.4792C140.38 91.6898 140.349 91.9313 140.395 92.1716C140.405 92.2249 140.419 92.2781 140.437 92.3314C140.604 92.8132 141.054 93.0907 141.504 93.0263C141.578 93.0151 141.653 92.9953 141.725 92.9668C141.867 92.9098 141.989 92.8206 142.087 92.7116C142.144 92.6497 142.192 92.5804 142.234 92.5048C142.341 92.3091 142.39 92.0787 142.369 91.8459C142.361 91.7542 142.341 91.6625 142.309 91.5721C142.128 91.0507 141.616 90.7683 141.129 90.9008L141.13 90.8983Z" fill="#380E78"/>
</g>
<g style="mix-blend-mode:screen" opacity="0.5">
<path d="M135.49 76.7025C135.677 76.6765 135.862 76.6257 136.044 76.5526C136.398 76.409 136.704 76.1872 136.953 75.9123C137.094 75.7562 137.217 75.5816 137.32 75.3945C137.588 74.904 137.713 74.3256 137.659 73.741C137.639 73.5118 137.589 73.2814 137.511 73.0548C137.058 71.7468 135.774 71.0396 134.552 71.3727C134.461 71.3975 134.371 71.4285 134.282 71.4644C133.863 71.6341 133.511 71.9128 133.244 72.2584C133.109 72.4318 132.994 72.6237 132.904 72.8269C132.668 73.3545 132.59 73.9615 132.706 74.5622C132.733 74.6972 132.768 74.8297 132.814 74.9623C133.231 76.1699 134.357 76.8648 135.488 76.7025H135.49Z" fill="#380E78"/>
</g>
</g>
<path d="M151.705 70.018L141.026 74.3549L143.91 82.6904L154.589 78.3534L151.705 70.018Z" fill="#2E58C7"/>
<path d="M155.422 80.7612L144.743 85.0981L147.628 93.4336L158.307 89.0966L155.422 80.7612Z" fill="#DB53EA"/>
<g style="mix-blend-mode:multiply" opacity="0.44">
<path d="M119.102 66.1444L128.041 62.514L125.565 55.358L116.626 58.9885L119.102 66.1444Z" fill="#380E78"/>
</g>
<path d="M125.747 55.9296L117.278 59.3692L119.566 65.9801L128.035 62.5405L125.747 55.9296Z" fill="#DB53EA"/>
<g style="mix-blend-mode:multiply" opacity="0.5">
<path d="M119.536 65.8783L117.277 59.3532L125.747 55.9136L125.76 55.9532L119.536 65.8783Z" fill="#ECCFB2"/>
</g>
<path d="M147.987 59.2748L137.308 63.6118L140.192 71.9472L150.871 67.6102L147.987 59.2748Z" fill="#DB53EA"/>
<g style="mix-blend-mode:multiply" opacity="0.5">
<path d="M139.416 40.6249L137.206 41.5227L142.875 57.9072L145.086 57.0094L139.416 40.6249Z" fill="#ECCFB2"/>
</g>
<g style="mix-blend-mode:multiply" opacity="0.44">
<path d="M128.585 82.699L121.31 85.6538L123.198 91.1106L130.474 88.1558L128.585 82.699Z" fill="#380E78"/>
</g>
<g style="mix-blend-mode:multiply" opacity="0.44">
<path d="M126.397 76.5404L119.172 79.4747L121.085 85.0023L128.31 82.068L126.397 76.5404Z" fill="#380E78"/>
</g>
<g style="mix-blend-mode:multiply" opacity="0.44">
<path d="M124.308 70.5042L117.083 73.4386L119.008 79.0022L126.233 76.0678L124.308 70.5042Z" fill="#380E78"/>
</g>
<path d="M83.3808 94.4199L76.5109 97.21L77.9172 101.274L84.7871 98.4839L83.3808 94.4199Z" fill="#D6D6D6"/>
<g style="mix-blend-mode:multiply" opacity="0.3">
<path d="M111.432 69.1222C111.401 69.0318 111.376 68.9401 111.359 68.8485C111.279 68.4373 111.334 68.0211 111.494 67.6594C111.555 67.5194 111.634 67.3882 111.726 67.2692C111.909 67.0327 112.15 66.8419 112.437 66.7255C112.499 66.7007 112.56 66.6797 112.622 66.6623C113.459 66.4332 114.339 66.9187 114.649 67.8142C114.703 67.9691 114.736 68.1276 114.751 68.2837C114.788 68.6837 114.702 69.0801 114.519 69.417C114.449 69.5458 114.365 69.6647 114.267 69.7713C114.097 69.9595 113.887 70.1119 113.644 70.2097C113.52 70.2605 113.393 70.2952 113.265 70.3125C112.49 70.424 111.719 69.9471 111.432 69.1197V69.1222Z" fill="#380E78"/>
</g>
<g style="mix-blend-mode:multiply" opacity="0.3">
<path d="M109.583 63.5621C109.552 63.4716 109.527 63.38 109.51 63.2883C109.43 62.8771 109.485 62.4609 109.645 62.0993C109.707 61.9593 109.784 61.828 109.877 61.7091C110.06 61.4725 110.301 61.2818 110.588 61.1653C110.65 61.1406 110.712 61.1195 110.773 61.1022C111.61 60.873 112.491 61.3586 112.801 62.2541C112.854 62.4089 112.887 62.5675 112.902 62.7235C112.939 63.1236 112.853 63.52 112.67 63.8569C112.601 63.9857 112.516 64.1046 112.419 64.2111C112.248 64.3994 112.038 64.5517 111.796 64.6496C111.671 64.7004 111.544 64.735 111.416 64.7524C110.641 64.8639 109.87 64.387 109.583 63.5596V63.5621Z" fill="#380E78"/>
</g>
<path d="M128.661 83.1601L121.791 85.9501L123.197 90.014L130.067 87.224L128.661 83.1601Z" fill="#B6B6B7"/>
<path d="M126.522 76.9817L119.652 79.7717L121.059 83.8356L127.929 81.0456L126.522 76.9817Z" fill="#B6B6B7"/>
<g style="mix-blend-mode:multiply" opacity="0.3">
<path d="M100.874 66.5707C100.856 66.5174 100.842 66.4654 100.832 66.4109C100.785 66.1706 100.817 65.9291 100.911 65.7185C100.948 65.6368 100.992 65.5612 101.046 65.4918C101.152 65.3543 101.293 65.2429 101.46 65.1747C101.495 65.1599 101.532 65.1487 101.567 65.1376C102.054 65.0038 102.567 65.2862 102.747 65.8089C102.778 65.8993 102.797 65.991 102.807 66.0827C102.828 66.3155 102.778 66.5471 102.672 66.7416C102.631 66.8159 102.581 66.8865 102.525 66.9484C102.426 67.0587 102.304 67.1466 102.163 67.2036C102.09 67.2333 102.017 67.2531 101.942 67.2631C101.491 67.3275 101.042 67.05 100.876 66.5682L100.874 66.5707Z" fill="#380E78"/>
</g>
<g style="mix-blend-mode:multiply" opacity="0.3">
<path d="M80.643 74.7888C80.6247 74.7356 80.611 74.6836 80.6007 74.6291C80.5538 74.3888 80.5859 74.1472 80.6796 73.9367C80.7162 73.8549 80.7608 73.7794 80.8145 73.71C80.9208 73.5725 81.0615 73.4611 81.2284 73.3929C81.2638 73.3781 81.3004 73.3669 81.3359 73.3558C81.8229 73.222 82.3352 73.5044 82.5158 74.0271C82.5467 74.1175 82.5661 74.2092 82.5753 74.3008C82.597 74.5337 82.5467 74.7653 82.4403 74.9598C82.3992 75.0341 82.35 75.1047 82.294 75.1666C82.1945 75.2769 82.0722 75.3648 81.9316 75.4218C81.8584 75.4515 81.7852 75.4713 81.7109 75.4812C81.2593 75.5456 80.8111 75.2682 80.6442 74.7864L80.643 74.7888Z" fill="#380E78"/>
</g>
<g style="mix-blend-mode:multiply" opacity="0.3">
<path d="M106.852 84.0599C106.834 84.0067 106.82 83.9546 106.81 83.9001C106.763 83.6598 106.795 83.4183 106.888 83.2077C106.925 83.126 106.97 83.0504 107.023 82.9811C107.13 82.8436 107.27 82.7321 107.437 82.664C107.473 82.6491 107.509 82.638 107.545 82.6268C108.032 82.4931 108.544 82.7755 108.725 83.2982C108.755 83.3886 108.775 83.4802 108.784 83.5719C108.806 83.8048 108.755 84.0364 108.649 84.2308C108.608 84.3052 108.559 84.3758 108.503 84.4377C108.403 84.5479 108.281 84.6359 108.14 84.6928C108.067 84.7226 107.994 84.7424 107.92 84.7523C107.468 84.8167 107.02 84.5393 106.853 84.0574L106.852 84.0599Z" fill="#380E78"/>
</g>
<g style="mix-blend-mode:multiply" opacity="0.3">
<path d="M86.6204 92.2782C86.6021 92.2249 86.5884 92.1729 86.5781 92.1184C86.5312 91.8781 86.5632 91.6366 86.657 91.426C86.6935 91.3443 86.7381 91.2687 86.7919 91.1994C86.8982 91.0619 87.0388 90.9504 87.2058 90.8823C87.2412 90.8674 87.2778 90.8563 87.3132 90.8451C87.8003 90.7114 88.3125 90.9938 88.4932 91.5165C88.524 91.6069 88.5435 91.6985 88.5526 91.7902C88.5743 92.023 88.524 92.2547 88.4177 92.4491C88.3765 92.5234 88.3274 92.594 88.2713 92.656C88.1719 92.7662 88.0495 92.8542 87.9089 92.9111C87.8357 92.9409 87.7626 92.9607 87.6882 92.9706C87.2366 93.035 86.7884 92.7576 86.6215 92.2757L86.6204 92.2782Z" fill="#380E78"/>
</g>
<path d="M124.433 70.9456L117.563 73.7356L118.969 77.7996L125.839 75.0095L124.433 70.9456Z" fill="#B6B6B7"/>
<path d="M129.009 84.1673L122.139 86.9573L123.546 91.0213L130.416 88.2313L129.009 84.1673Z" fill="#D6D6D6"/>
<path d="M126.871 77.987L120.001 80.777L121.407 84.841L128.277 82.051L126.871 77.987Z" fill="#D6D6D6"/>
<path d="M124.781 71.9505L117.911 74.7405L119.318 78.8045L126.188 76.0144L124.781 71.9505Z" fill="#D6D6D6"/>
<path d="M81.5169 89.0366L74.647 91.8267L76.0533 95.8906L82.9232 93.1006L81.5169 89.0366Z" fill="#D6D6D6"/>
<path d="M109.99 63.6425C109.959 63.5521 109.934 63.4605 109.917 63.3688C109.837 62.9576 109.892 62.5414 110.052 62.1797C110.114 62.0398 110.191 61.9085 110.284 61.7896C110.467 61.553 110.708 61.3622 110.995 61.2458C111.057 61.221 111.119 61.2 111.18 61.1826C112.017 60.9535 112.898 61.439 113.208 62.3346C113.261 62.4894 113.294 62.6479 113.309 62.804C113.346 63.2041 113.26 63.6004 113.077 63.9373C113.007 64.0661 112.923 64.1851 112.826 64.2928C112.655 64.4811 112.445 64.6334 112.203 64.7313C112.078 64.7821 111.951 64.8167 111.823 64.8341C111.048 64.9456 110.277 64.4687 109.99 63.6413V63.6425Z" fill="#E6E6E6"/>
<g style="mix-blend-mode:screen" opacity="0.5">
<path d="M109.917 63.3688C109.837 62.9576 109.892 62.5414 110.052 62.1798L112.826 64.2928C112.655 64.4811 112.445 64.6335 112.203 64.7313C112.078 64.7821 111.951 64.8168 111.823 64.8341L109.917 63.3676V63.3688Z" fill="#E6E6E6"/>
</g>
<g style="mix-blend-mode:screen" opacity="0.5">
<path d="M110.284 61.7896C110.467 61.553 110.708 61.3622 110.995 61.2458C111.057 61.221 111.119 61.2 111.18 61.1826L113.309 62.8052C113.346 63.2053 113.26 63.6017 113.077 63.9386L110.285 61.7908L110.284 61.7896Z" fill="#E6E6E6"/>
</g>
<path d="M111.905 69.1754C111.875 69.085 111.849 68.9934 111.832 68.9017C111.752 68.4905 111.807 68.0743 111.967 67.7126C112.029 67.5727 112.107 67.4414 112.199 67.3225C112.382 67.0859 112.623 66.8951 112.91 66.7787C112.972 66.7539 113.034 66.7329 113.096 66.7155C113.933 66.4864 114.813 66.9719 115.123 67.8675C115.176 68.0223 115.21 68.1808 115.224 68.3369C115.261 68.737 115.175 69.1333 114.992 69.4702C114.923 69.5991 114.838 69.718 114.741 69.8257C114.57 70.014 114.36 70.1663 114.118 70.2642C113.993 70.315 113.866 70.3497 113.738 70.367C112.963 70.4785 112.192 70.0016 111.905 69.1742V69.1754Z" fill="#E6E6E6"/>
<g style="mix-blend-mode:screen" opacity="0.5">
<path d="M111.832 68.9017C111.752 68.4905 111.807 68.0744 111.967 67.7127L114.741 69.8258C114.571 70.014 114.36 70.1664 114.118 70.2642C113.993 70.315 113.866 70.3497 113.738 70.367L111.832 68.9005V68.9017Z" fill="#E6E6E6"/>
</g>
<g style="mix-blend-mode:screen" opacity="0.5">
<path d="M112.199 67.3225C112.382 67.0859 112.623 66.8952 112.91 66.7787C112.972 66.754 113.034 66.7329 113.096 66.7156L115.224 68.3382C115.261 68.7382 115.175 69.1346 114.992 69.4715L112.2 67.3237L112.199 67.3225Z" fill="#E6E6E6"/>
</g>
<path d="M80.8762 75.0255C80.8579 74.9722 80.8442 74.9202 80.8339 74.8657C80.787 74.6254 80.8191 74.3839 80.9128 74.1733C80.9494 74.0916 80.994 74.016 81.0477 73.9467C81.1541 73.8092 81.2947 73.6977 81.4616 73.6296C81.4971 73.6147 81.5336 73.6036 81.5691 73.5924C82.0561 73.4587 82.5684 73.7411 82.749 74.2637C82.7799 74.3542 82.7993 74.4458 82.8085 74.5375C82.8302 74.7703 82.7799 75.002 82.6736 75.1964C82.6324 75.2707 82.5832 75.3413 82.5272 75.4033C82.4277 75.5135 82.3054 75.6015 82.1648 75.6584C82.0916 75.6882 82.0184 75.708 81.9441 75.7179C81.4925 75.7823 81.0443 75.5048 80.8774 75.023L80.8762 75.0255Z" fill="#E6E6E6"/>
<g style="mix-blend-mode:screen" opacity="0.5">
<path d="M80.8339 74.8669C80.787 74.6266 80.8191 74.3851 80.9128 74.1745L82.5272 75.4045C82.4277 75.5147 82.3054 75.6027 82.1648 75.6596C82.0916 75.6894 82.0184 75.7092 81.9441 75.7191L80.8339 74.8657V74.8669Z" fill="#E6E6E6"/>
</g>
<g style="mix-blend-mode:screen" opacity="0.5">
<path d="M81.0477 73.9466C81.1541 73.8091 81.2947 73.6976 81.4616 73.6295C81.4971 73.6146 81.5336 73.6035 81.5691 73.5923L82.8085 74.5362C82.8302 74.769 82.7799 75.0006 82.6736 75.1951L81.0477 73.9441V73.9466Z" fill="#E6E6E6"/>
</g>
<path d="M101.24 66.754C101.222 66.7007 101.208 66.6487 101.198 66.5942C101.151 66.3539 101.183 66.1124 101.277 65.9018C101.313 65.82 101.358 65.7445 101.412 65.6751C101.518 65.5376 101.659 65.4262 101.826 65.358C101.861 65.3432 101.898 65.332 101.933 65.3209C102.42 65.1871 102.932 65.4695 103.113 65.9922C103.144 66.0826 103.163 66.1743 103.172 66.2659C103.194 66.4988 103.144 66.7304 103.038 66.9249C102.996 66.9992 102.947 67.0698 102.891 67.1317C102.792 67.242 102.669 67.3299 102.529 67.3869C102.456 67.4166 102.382 67.4364 102.308 67.4464C101.856 67.5108 101.408 67.2333 101.241 66.7515L101.24 66.754Z" fill="#E6E6E6"/>
<g style="mix-blend-mode:screen" opacity="0.5">
<path d="M101.198 66.5942C101.151 66.354 101.183 66.1124 101.277 65.9019L102.891 67.1318C102.792 67.242 102.669 67.33 102.529 67.387C102.456 67.4167 102.382 67.4365 102.308 67.4464L101.198 66.593V66.5942Z" fill="#E6E6E6"/>
</g>
<g style="mix-blend-mode:screen" opacity="0.5">
<path d="M101.412 65.6752C101.518 65.5377 101.659 65.4262 101.826 65.3581C101.861 65.3432 101.898 65.3321 101.933 65.3209L103.172 66.2648C103.194 66.4976 103.144 66.7292 103.038 66.9237L101.412 65.6727V65.6752Z" fill="#E6E6E6"/>
</g>
<path d="M86.9199 92.4875C86.9016 92.4342 86.8879 92.3822 86.8776 92.3277C86.8308 92.0874 86.8628 91.8459 86.9565 91.6353C86.9931 91.5535 87.0377 91.478 87.0914 91.4086C87.1978 91.2711 87.3384 91.1597 87.5053 91.0915C87.5408 91.0767 87.5773 91.0655 87.6128 91.0544C88.0998 90.9206 88.6121 91.203 88.7927 91.7257C88.8236 91.8161 88.843 91.9078 88.8522 91.9994C88.8739 92.2323 88.8236 92.4639 88.7173 92.6584C88.6761 92.7327 88.6269 92.8033 88.5709 92.8652C88.4714 92.9755 88.3491 93.0634 88.2085 93.1204C88.1353 93.1501 88.0621 93.1699 87.9878 93.1799C87.5362 93.2443 87.088 92.9668 86.9211 92.485L86.9199 92.4875Z" fill="#E6E6E6"/>
<g style="mix-blend-mode:screen" opacity="0.5">
<path d="M86.8776 92.3277C86.8308 92.0874 86.8628 91.8458 86.9565 91.6353L88.5709 92.8652C88.4714 92.9755 88.3491 93.0634 88.2085 93.1204C88.1353 93.1501 88.0621 93.1699 87.9878 93.1798L86.8776 92.3264V92.3277Z" fill="#E6E6E6"/>
</g>
<g style="mix-blend-mode:screen" opacity="0.5">
<path d="M87.0915 91.4086C87.1978 91.2711 87.3385 91.1596 87.5054 91.0915C87.5408 91.0766 87.5774 91.0655 87.6128 91.0543L88.8522 91.9981C88.874 92.231 88.8236 92.4626 88.7173 92.6571L87.0915 91.4061V91.4086Z" fill="#E6E6E6"/>
</g>
<g style="mix-blend-mode:multiply" opacity="0.44">
<path d="M76.3223 85.2304C76.4755 85.1685 76.6551 85.2056 76.7763 85.3407C76.9398 85.5227 76.9363 85.815 76.7682 85.9922L75.753 87.0623C75.5849 87.2395 75.3151 87.2357 75.1516 87.0537C74.9881 86.8716 74.9915 86.5793 75.1596 86.4022L76.1749 85.332C76.2183 85.2862 76.2686 85.2527 76.3212 85.2304H76.3223Z" fill="#380E78"/>
</g>
<g style="mix-blend-mode:multiply" opacity="0.44">
<path d="M75.5757 83.074C75.7289 83.0121 75.9084 83.0492 76.0296 83.1842C76.1931 83.3663 76.1897 83.6586 76.0216 83.8358L75.0063 84.9059C74.8382 85.083 74.5684 85.0793 74.4049 84.8973C74.2414 84.7152 74.2448 84.4229 74.4129 84.2457L75.4282 83.1756C75.4717 83.1297 75.522 83.0963 75.5746 83.074H75.5757Z" fill="#380E78"/>
</g>
<g style="mix-blend-mode:multiply" opacity="0.44">
<path d="M74.8303 80.9188C74.9835 80.8569 75.163 80.894 75.2842 81.0291C75.4477 81.2111 75.4443 81.5034 75.2762 81.6806L74.2609 82.7507C74.0928 82.9279 73.823 82.9241 73.6595 82.7421C73.496 82.56 73.4994 82.2677 73.6675 82.0906L74.6828 81.0204C74.7262 80.9746 74.7765 80.9411 74.8291 80.9188H74.8303Z" fill="#380E78"/>
</g>
<g style="mix-blend-mode:multiply" opacity="0.44">
<path d="M74.0837 78.7636C74.2369 78.7016 74.4164 78.7388 74.5376 78.8738C74.7011 79.0559 74.6977 79.3482 74.5296 79.5253L73.5143 80.5955C73.3462 80.7726 73.0764 80.7689 72.9129 80.5868C72.7494 80.4047 72.7528 80.1124 72.9209 79.9353L73.9362 78.8651C73.9796 78.8193 74.03 78.7859 74.0826 78.7636H74.0837Z" fill="#380E78"/>
</g>
<g style="mix-blend-mode:multiply" opacity="0.44">
<path d="M73.3382 76.6072C73.4914 76.5452 73.6709 76.5824 73.7921 76.7174C73.9556 76.8995 73.9522 77.1918 73.7841 77.3689L72.7688 78.4391C72.6008 78.6162 72.3309 78.6125 72.1674 78.4304C72.0039 78.2483 72.0074 77.956 72.1754 77.7789L73.1907 76.7087C73.2342 76.6629 73.2845 76.6295 73.3371 76.6072H73.3382Z" fill="#380E78"/>
</g>
<path d="M107.284 84.216C107.266 84.1627 107.252 84.1107 107.242 84.0562C107.195 83.8159 107.227 83.5744 107.321 83.3638C107.357 83.2821 107.402 83.2065 107.456 83.1372C107.562 82.9997 107.702 82.8882 107.869 82.8201C107.905 82.8052 107.941 82.7941 107.977 82.7829C108.464 82.6492 108.976 82.9316 109.157 83.4543C109.188 83.5447 109.207 83.6363 109.216 83.728C109.238 83.9609 109.188 84.1925 109.081 84.3869C109.04 84.4613 108.991 84.5319 108.935 84.5938C108.836 84.704 108.713 84.792 108.573 84.8489C108.499 84.8787 108.426 84.8985 108.352 84.9084C107.9 84.9728 107.452 84.6954 107.285 84.2135L107.284 84.216Z" fill="#E6E6E6"/>
<g style="mix-blend-mode:screen" opacity="0.5">
<path d="M107.242 84.0562C107.195 83.8159 107.227 83.5744 107.321 83.3638L108.935 84.5938C108.836 84.704 108.713 84.792 108.573 84.8489C108.499 84.8787 108.426 84.8985 108.352 84.9084L107.242 84.055V84.0562Z" fill="#E6E6E6"/>
</g>
<g style="mix-blend-mode:screen" opacity="0.5">
<path d="M107.456 83.1372C107.562 82.9997 107.702 82.8883 107.869 82.8201C107.905 82.8053 107.941 82.7941 107.977 82.783L109.216 83.7268C109.238 83.9597 109.188 84.1913 109.081 84.3857L107.456 83.1347V83.1372Z" fill="#E6E6E6"/>
</g>
<g style="mix-blend-mode:screen" opacity="0.59">
<path d="M90.6178 85.4121L102.027 80.7786L99.6896 74.0239L88.2804 78.6574L90.6178 85.4121Z" fill="white"/>
</g>
<path d="M99.4319 78.9611L92.0699 81.9525L92.1695 82.2401L99.5315 79.2487L99.4319 78.9611Z" fill="#380E78"/>
<path d="M98.1311 77.6042L92.36 79.9492L92.4596 80.2369L98.2307 77.8919L98.1311 77.6042Z" fill="#380E78"/>
<path d="M75.8215 87.372C75.7106 87.372 75.5997 87.3249 75.5174 87.232C75.3539 87.05 75.3573 86.7576 75.5254 86.5805L76.5407 85.5104C76.7088 85.3332 76.9774 85.337 77.1421 85.519C77.3056 85.7011 77.3022 85.9934 77.1341 86.1705L76.1188 87.2407C76.0365 87.3274 75.929 87.3708 75.8227 87.3708L75.8215 87.372Z" fill="#D6D6D6"/>
<path d="M133.011 94.9127C132.889 94.9127 132.768 94.8557 132.683 94.7455L131.781 93.5626C131.631 93.3669 131.658 93.0758 131.838 92.9148C132.019 92.7525 132.288 92.781 132.436 92.9767L133.338 94.1596C133.488 94.3553 133.462 94.6464 133.281 94.8074C133.202 94.878 133.106 94.9127 133.01 94.9127H133.011Z" fill="#D6D6D6"/>
<path d="M130.823 95.802C130.701 95.802 130.58 95.745 130.495 95.6348L129.593 94.4519C129.443 94.2562 129.469 93.9651 129.65 93.8041C129.831 93.6418 130.099 93.6703 130.248 93.866L131.15 95.0489C131.3 95.2446 131.274 95.5357 131.093 95.6967C131.014 95.7673 130.918 95.802 130.822 95.802H130.823Z" fill="#D6D6D6"/>
<path d="M128.634 96.6914C128.511 96.6914 128.39 96.6344 128.305 96.5242L127.403 95.3413C127.254 95.1456 127.28 94.8545 127.46 94.6935C127.641 94.5313 127.91 94.5597 128.058 94.7554L128.961 95.9383C129.11 96.134 129.084 96.4251 128.903 96.5861C128.824 96.6567 128.728 96.6914 128.632 96.6914H128.634Z" fill="#D6D6D6"/>
<path d="M126.445 97.5807C126.323 97.5807 126.202 97.5237 126.117 97.4135L125.215 96.2306C125.065 96.0349 125.091 95.7438 125.272 95.5828C125.453 95.4205 125.721 95.449 125.87 95.6447L126.772 96.8276C126.922 97.0233 126.896 97.3144 126.715 97.4754C126.636 97.546 126.54 97.5807 126.444 97.5807H126.445Z" fill="#D6D6D6"/>
<path d="M75.075 85.2156C74.9641 85.2156 74.8531 85.1685 74.7708 85.0756C74.6073 84.8935 74.6108 84.6012 74.7788 84.4241L75.7941 83.3539C75.9622 83.1768 76.2309 83.1805 76.3955 83.3626C76.559 83.5447 76.5556 83.837 76.3875 84.0141L75.3722 85.0843C75.2899 85.171 75.1824 85.2143 75.0761 85.2143L75.075 85.2156Z" fill="#D6D6D6"/>
<path d="M74.3284 83.0603C74.2175 83.0603 74.1065 83.0133 74.0231 82.9204C73.8596 82.7383 73.863 82.446 74.0311 82.2689L75.0464 81.1987C75.2144 81.0216 75.4843 81.0253 75.6478 81.2074C75.8113 81.3895 75.8078 81.6818 75.6398 81.8589L74.6245 82.9291C74.5422 83.0158 74.4347 83.0591 74.3284 83.0591V83.0603Z" fill="#D6D6D6"/>
<path d="M73.5829 80.9052C73.472 80.9052 73.3611 80.8582 73.2788 80.7653C73.1153 80.5832 73.1187 80.2909 73.2868 80.1137L74.3021 79.0436C74.4701 78.8665 74.74 78.8702 74.9035 79.0523C75.0669 79.2343 75.0635 79.5266 74.8954 79.7038L73.8802 80.7739C73.7978 80.8606 73.6904 80.904 73.584 80.904L73.5829 80.9052Z" fill="#D6D6D6"/>
<path d="M72.8363 78.7487C72.7254 78.7487 72.6145 78.7017 72.5322 78.6088C72.3687 78.4267 72.3721 78.1344 72.5402 77.9573L73.5555 76.8871C73.7235 76.71 73.9934 76.7137 74.1569 76.8958C74.3204 77.0779 74.3169 77.3702 74.1489 77.5473L73.1336 78.6175C73.0513 78.7042 72.9438 78.7475 72.8374 78.7475L72.8363 78.7487Z" fill="#D6D6D6"/>
<path d="M102.349 93.8909C102.337 93.8909 102.325 93.8909 102.313 93.8896C102.078 93.8673 101.906 93.6444 101.925 93.3917L102.046 91.862C102.067 91.6081 102.272 91.4211 102.506 91.4421C102.74 91.4644 102.913 91.6874 102.894 91.94L102.772 93.4697C102.753 93.71 102.568 93.8909 102.349 93.8909Z" fill="#D6D6D6"/>
<path d="M100.361 94.6984C100.349 94.6984 100.337 94.6984 100.325 94.6972C100.09 94.6749 99.9175 94.4519 99.9369 94.1992L100.058 92.6695C100.079 92.4156 100.283 92.2274 100.518 92.2497C100.752 92.272 100.925 92.4949 100.905 92.7476L100.784 94.2773C100.765 94.5176 100.579 94.6984 100.361 94.6984Z" fill="#D6D6D6"/>
<path d="M98.3728 95.5059C98.3602 95.5059 98.3488 95.5059 98.3362 95.5047C98.1018 95.4824 97.9292 95.2594 97.9486 95.0068L98.0698 93.4771C98.0904 93.2232 98.2951 93.0349 98.5295 93.0572C98.7638 93.0795 98.9365 93.3024 98.9171 93.5551L98.7959 95.0848C98.7764 95.3251 98.5912 95.5059 98.3728 95.5059Z" fill="#D6D6D6"/>
<path d="M96.3834 96.3136C96.3709 96.3136 96.3594 96.3136 96.3468 96.3124C96.1125 96.2901 95.9398 96.0671 95.9593 95.8145L96.0805 94.2848C96.101 94.0308 96.3057 93.8438 96.5401 93.8649C96.7745 93.8872 96.9471 94.1101 96.9277 94.3628L96.8065 95.8925C96.787 96.1328 96.6018 96.3136 96.3834 96.3136Z" fill="#D6D6D6"/>
<path d="M94.3952 97.1224C94.3826 97.1224 94.3712 97.1224 94.3586 97.1212C94.1242 97.0989 93.9516 96.8759 93.971 96.6232L94.0922 95.0935C94.1128 94.8396 94.3175 94.6526 94.5518 94.6736C94.7862 94.6959 94.9589 94.9189 94.9394 95.1716L94.8182 96.7013C94.7988 96.9416 94.6136 97.1224 94.3952 97.1224Z" fill="#D6D6D6"/>
<g style="mix-blend-mode:screen" opacity="0.5">
<path d="M122.638 88.3802L122.139 86.941L123.358 86.4455L128.266 89.0875L125.968 90.0214L122.638 88.3802Z" fill="#E6E6E6"/>
</g>
<g style="mix-blend-mode:screen" opacity="0.5">
<path d="M124.392 86.0257L126.932 84.9939L129.843 86.5607L130.415 88.2143L129.55 88.5661L124.392 86.0257Z" fill="#E6E6E6"/>
</g>
<g style="mix-blend-mode:screen" opacity="0.5">
<path d="M120.517 82.2541L120 80.7603L121.045 80.3354L125.191 83.2883L123.056 84.1553L120.517 82.2541Z" fill="#E6E6E6"/>
</g>
<g style="mix-blend-mode:screen" opacity="0.5">
<path d="M122.901 79.5823L124.918 78.7636L127.872 80.8668L128.277 82.0348L126.915 82.5872L122.901 79.5823Z" fill="#E6E6E6"/>
</g>
<g style="mix-blend-mode:screen" opacity="0.5">
<path d="M118.099 75.2682L117.911 74.7245L119.574 74.0494L123.166 77.2252L121.291 77.987L118.099 75.2682Z" fill="#E6E6E6"/>
</g>
<g style="mix-blend-mode:screen" opacity="0.5">
<path d="M120.777 73.5614L122.748 72.76L126.09 75.7166L126.187 75.999L124.46 76.7001L120.777 73.5614Z" fill="#E6E6E6"/>
</g>
<g style="mix-blend-mode:screen" opacity="0.5">
<path d="M77.0838 98.849L76.5121 97.1967L78.0637 96.5663L82.1111 99.5575L79.8324 100.484L77.0838 98.849Z" fill="#E6E6E6"/>
</g>
<g style="mix-blend-mode:screen" opacity="0.5">
<path d="M79.1716 96.1166L82.0231 94.9573L84.1039 96.4957L84.7877 98.47L83.8032 98.8701L79.1716 96.1166Z" fill="#E6E6E6"/>
</g>
<g style="mix-blend-mode:screen" opacity="0.5">
<path d="M74.7639 92.1444L74.6484 91.8125L76.4538 91.0792L79.6803 94.4049L77.9321 95.1146L74.7639 92.1444Z" fill="#E6E6E6"/>
</g>
<g style="mix-blend-mode:screen" opacity="0.5">
<path d="M77.7618 90.5478L79.7386 89.7452L82.8942 92.9978L82.9251 93.087L81.2124 93.7831L77.7618 90.5478Z" fill="#E6E6E6"/>
</g>
<path d="M140.988 39.0448L137.65 40.4005L143.891 58.4377L147.229 57.082L140.988 39.0448Z" fill="#ECCFB2"/>
<g style="mix-blend-mode:screen" opacity="0.2">
<path d="M87.2092 90.009L87.1486 89.8331L103.118 68.8757L103.254 68.8199L107.706 81.683L87.2092 90.009Z" fill="white"/>
</g>
<g style="mix-blend-mode:multiply" opacity="0.5">
<path d="M155.423 80.7616L154.295 81.2194L157.18 89.5549L158.307 89.0971L155.423 80.7616Z" fill="#ECCFB2"/>
</g>
<g style="mix-blend-mode:multiply" opacity="0.5">
<path d="M151.705 70.016L150.578 70.4738L153.462 78.8093L154.589 78.3515L151.705 70.016Z" fill="#ECCFB2"/>
</g>
<g style="mix-blend-mode:multiply" opacity="0.5">
<path d="M147.987 59.274L146.86 59.7319L149.744 68.0674L150.872 67.6095L147.987 59.274Z" fill="#ECCFB2"/>
</g>
<g style="mix-blend-mode:multiply" opacity="0.5">
<path d="M140.988 39.045L139.86 39.5028L146.102 57.54L147.229 57.0822L140.988 39.045Z" fill="#ECCFB2"/>
</g>
<g style="mix-blend-mode:screen" opacity="0.83">
<path d="M109.292 51.9577L62.7695 70.8513L63.4659 72.8635L109.988 53.9699L109.292 51.9577Z" fill="#ECCFB2"/>
</g>
<g style="mix-blend-mode:screen">
<path d="M140.571 99.4782C140.473 99.2169 140.307 99.0076 140.104 98.8627L157.346 92.4181L156.7 92.926L140.572 99.477L140.571 99.4782Z" fill="#5119BF"/>
</g>
<g style="mix-blend-mode:screen">
<path d="M116.71 97.2859C116.758 97.2265 116.802 97.1645 116.84 97.0977L127.065 103.735L138.249 99.5551C138.164 99.8276 138.159 100.13 138.25 100.421L126.443 105.217L116.71 97.2859Z" fill="#5119BF"/>
</g>
<path d="M121.922 63.6711C119.523 59.5031 116.888 55.438 113.947 51.7122C113.76 51.4707 113.468 51.1226 113.274 50.886C113.18 50.7709 112.868 50.3894 112.766 50.2766C112.619 50.1119 112.059 49.4666 111.909 49.2969C110.226 47.4464 110.269 44.4477 112.012 42.6616C113.879 40.7108 117.001 41.0551 118.474 43.3627L119.157 44.418C119.475 44.8936 119.836 45.5166 120.138 46.0071C122.706 50.3398 124.871 54.9153 126.81 59.5972C126.925 59.8796 127.161 60.4618 127.274 60.7467C128.667 64.5468 123.9 67.128 121.921 63.6723L121.922 63.6711Z" fill="#6A3F34"/>
<path d="M123.238 13.6755C122.039 12.9633 123.796 12.92 115.636 12.3155C107.476 11.7111 104.035 14.0645 103.57 15.1867C102.998 16.5714 102.563 15.2089 102.093 13.9047C101.854 13.2408 101.605 12.5942 101.324 12.3292C101.284 12.2908 101.241 12.2598 101.199 12.2387C100.292 11.7854 100.502 11.3321 101.199 9.44318C101.897 7.55429 100.084 0.222916 100.084 0.222916H124.583C124.583 0.222916 124.284 3.70095 124.075 4.9854C123.866 6.26985 124.842 10.3499 125.191 11.0299C125.54 11.7099 124.437 14.3865 123.238 13.6743V13.6755Z" fill="#380E78"/>
<g style="mix-blend-mode:multiply" opacity="0.5">
<path d="M105.732 10.88C104.443 11.9291 103.096 13.0562 102.093 13.9047C101.854 13.2408 101.605 12.5942 101.324 12.3291C102.298 11.3593 105.49 8.75326 111.94 8.38539C119.89 7.93206 120.379 8.08317 121.983 8.98984C123.587 9.89651 108.243 8.83873 105.732 10.8787V10.88Z" fill="#380E78"/>
</g>
<path d="M5.5964 105.216C3.61257 105.216 2 103.469 2 101.32C2 99.1709 3.61257 97.424 5.5964 97.424C7.58024 97.424 9.1928 99.1709 9.1928 101.32C9.1928 103.469 7.58024 105.216 5.5964 105.216ZM5.5964 99.6352C4.73913 99.6352 4.0412 100.391 4.0412 101.32C4.0412 102.249 4.73913 103.005 5.5964 103.005C6.45367 103.005 7.1516 102.249 7.1516 101.32C7.1516 100.391 6.45367 99.6352 5.5964 99.6352Z" fill="#D6D6D6"/>
</svg>
