<svg width="46" height="61" viewBox="0 0 46 61" fill="none" xmlns="http://www.w3.org/2000/svg">
<path d="M6.24228 60.2405C4.68706 60.2405 3.35616 59.688 2.24959 58.5828C1.14114 57.4758 0.586914 56.1457 0.586914 54.5924V26.3518C0.586914 24.7986 1.14114 23.4685 2.24959 22.3614C3.35616 21.2563 4.68706 20.7037 6.24228 20.7037H9.06997V15.0556C9.06997 11.149 10.4489 7.81848 13.2069 5.06408C15.9629 2.31156 19.2968 0.935303 23.2084 0.935303C27.12 0.935303 30.4548 2.31156 33.2127 5.06408C35.9688 7.81848 37.3468 11.149 37.3468 15.0556V20.7037H40.1745C41.7297 20.7037 43.0616 21.2563 44.17 22.3614C45.2766 23.4685 45.8299 24.7986 45.8299 26.3518V54.5924C45.8299 56.1457 45.2766 57.4758 44.17 58.5828C43.0616 59.688 41.7297 60.2405 40.1745 60.2405H6.24228ZM23.2084 46.1203C24.7636 46.1203 26.0954 45.5677 27.2039 44.4625C28.3105 43.3555 28.8638 42.0254 28.8638 40.4721C28.8638 38.9189 28.3105 37.5888 27.2039 36.4817C26.0954 35.3766 24.7636 34.824 23.2084 34.824C21.6532 34.824 20.3223 35.3766 19.2157 36.4817C18.1072 37.5888 17.553 38.9189 17.553 40.4721C17.553 42.0254 18.1072 43.3555 19.2157 44.4625C20.3223 45.5677 21.6532 46.1203 23.2084 46.1203ZM14.7253 20.7037H31.6914V15.0556C31.6914 12.7022 30.8667 10.7018 29.2172 9.05447C27.5677 7.40711 25.5648 6.58342 23.2084 6.58342C20.852 6.58342 18.849 7.40711 17.1996 9.05447C15.5501 10.7018 14.7253 12.7022 14.7253 15.0556V20.7037Z" fill="#CCCCCC"/>
</svg>
