<svg width="306" height="159" viewBox="0 0 306 159" fill="none" xmlns="http://www.w3.org/2000/svg">
<path d="M46.2426 4.84003L11.5126 11.94C3.98257 13.48 -1.00743 20.66 0.17257 28.26C1.39257 36.05 8.64257 41.41 16.4526 40.28L29.1226 38.44V139.44C29.1226 148.64 36.5826 156.1 45.7826 156.1C54.9826 156.1 62.4426 148.64 62.4426 139.44V18.07C62.4426 9.53003 54.6126 3.14003 46.2426 4.85003V4.84003Z" fill="#0F9FB0"/>
<path d="M138.793 128C120.553 125.58 108.813 105.64 108.813 79.36V78.92C108.813 52.44 120.523 32.81 138.793 30.67V9.18003C138.793 5.77003 139.883 2.62003 141.713 0.0300293C101.413 0.520029 74.1726 35.18 74.1726 79.37V79.81C74.1726 124.12 100.913 158.43 141.613 158.72C139.833 156.15 138.793 153.05 138.793 149.7V128.02V128Z" fill="#0F9FB0"/>
<mask id="mask0_1136_790" style="mask-type:luminance" maskUnits="userSpaceOnUse" x="145" y="0" width="161" height="159">
<path d="M305.373 0H145.523V158.51H305.373V0Z" fill="white"/>
</mask>
<g mask="url(#mask0_1136_790)">
<path d="M209.823 0H156.443C150.413 0 145.523 4.89 145.523 10.92V64.31C145.523 70.34 150.413 75.23 156.443 75.23H209.823C215.853 75.23 220.743 70.34 220.743 64.31V10.92C220.743 4.89 215.853 0 209.823 0Z" fill="#010101"/>
<path d="M294.243 0H240.863C234.833 0 229.943 4.89 229.943 10.92V64.31C229.943 70.34 234.833 75.23 240.863 75.23H294.243C300.273 75.23 305.163 70.34 305.163 64.31V10.92C305.163 4.89 300.273 0 294.243 0Z" fill="#010101"/>
<path d="M209.823 83.42H156.443C150.413 83.42 145.523 88.31 145.523 94.34V147.73C145.523 153.76 150.413 158.65 156.443 158.65H209.823C215.853 158.65 220.743 153.76 220.743 147.73V94.34C220.743 88.31 215.853 83.42 209.823 83.42Z" fill="#010101"/>
<path d="M294.243 83.42H240.863C234.833 83.42 229.943 88.31 229.943 94.34V147.73C229.943 153.76 234.833 158.65 240.863 158.65H294.243C300.273 158.65 305.163 153.76 305.163 147.73V94.34C305.163 88.31 300.273 83.42 294.243 83.42Z" fill="#010101"/>
<path d="M196.183 25.36C196.183 26.81 194.703 27.75 193.373 27.2C191.013 26.22 188.493 25.63 185.923 25.63C178.753 25.63 174.203 30.93 174.203 36.88C174.203 42.4 178.113 48.04 185.983 48.04C188.633 48.04 191.243 47.41 193.663 46.3C194.993 45.7 196.503 46.67 196.503 48.12C196.503 48.93 196.043 49.64 195.333 49.96C192.263 51.39 189.073 51.97 185.733 51.97C174.753 51.97 169.793 43.72 169.793 36.8C169.793 28.63 176.433 21.55 185.823 21.55C189.543 21.55 192.833 22.62 194.953 23.46C195.723 23.76 196.213 24.5 196.213 25.32V25.35L196.183 25.36Z" fill="white"/>
<path d="M185.723 52.81C174.723 52.81 168.963 44.78 168.963 36.82C168.963 27.81 176.373 20.75 185.813 20.75C188.773 20.75 191.943 21.41 195.243 22.72C196.323 23.14 197.023 24.18 197.023 25.34C197.023 26.28 196.563 27.16 195.783 27.68C194.993 28.21 193.983 28.31 193.093 27.94C190.673 26.94 188.283 26.44 185.963 26.44C178.873 26.44 175.063 31.81 175.063 36.87C175.063 41.93 178.493 47.21 186.023 47.21C188.473 47.21 190.943 46.65 193.363 45.54C194.233 45.14 195.253 45.21 196.073 45.73C196.883 46.25 197.373 47.14 197.373 48.11C197.373 49.23 196.733 50.24 195.733 50.71C192.713 52.12 189.463 52.8 185.783 52.8H185.753L185.723 52.81Z" fill="white"/>
<path d="M283.363 36.76C283.363 45.27 276.843 52.01 267.163 52.01C257.483 52.01 251.523 45.15 251.523 36.9C251.523 28.65 257.263 21.61 267.373 21.61C277.483 21.61 283.363 28.82 283.363 36.76ZM255.913 36.9C255.913 43.64 261.213 48.06 267.413 48.06C270.583 48.06 274.013 46.76 276.063 44.55C277.933 42.51 279.013 39.29 279.013 36.73C279.013 31.82 275.283 25.61 267.553 25.61C259.263 25.61 255.913 31.95 255.913 36.91V36.9Z" fill="white"/>
<path d="M267.163 52.81C257.773 52.81 250.703 45.96 250.703 36.88C250.703 28.87 256.423 20.77 267.373 20.77C278.323 20.77 284.183 29.01 284.183 36.74C284.183 46.05 277.023 52.81 267.163 52.81ZM267.563 26.4C258.993 26.4 256.743 33.25 256.743 36.88C256.743 42.78 261.333 47.22 267.423 47.22C270.483 47.22 273.643 45.95 275.473 43.97C277.083 42.21 278.203 39.21 278.203 36.7C278.203 32.42 274.893 26.4 267.563 26.4Z" fill="white"/>
<path d="M179.963 106.07C182.733 106.07 187.563 106.07 191.523 109.12C194.833 111.63 197.203 115.82 197.203 120.9C197.203 128.42 191.903 132.36 190.083 133.5C186.473 135.71 182.393 135.71 179.353 135.71H170.933C170.403 135.71 169.973 135.27 169.973 134.75V107.05C169.973 106.52 170.413 106.09 170.933 106.09H179.963V106.06V106.07ZM174.173 110.81V130.91C174.173 131.44 174.613 131.87 175.133 131.87H179.643C181.853 131.87 185.323 131.69 187.853 130.18C190.843 128.31 192.803 124.7 192.803 120.67C192.803 117.06 191.153 112.94 186.643 110.94C184.213 109.86 182.213 109.86 179.523 109.86H175.133C174.603 109.86 174.173 110.3 174.173 110.82V110.81Z" fill="white"/>
<path d="M179.353 136.51H170.933C169.953 136.51 169.153 135.7 169.153 134.73V107.03C169.153 106.05 169.963 105.25 170.933 105.25H179.963C182.723 105.25 187.843 105.25 192.013 108.46C195.843 111.37 198.023 115.91 198.023 120.88C198.023 128.9 192.273 133.08 190.513 134.18C186.703 136.52 182.453 136.52 179.353 136.52V136.51ZM175.143 110.64C175.063 110.64 175.003 110.71 175.003 110.78V130.88C175.003 130.96 175.073 131.03 175.143 131.03H179.653C180.933 131.03 184.833 131.03 187.443 129.46C190.243 127.71 191.993 124.34 191.993 120.65C191.993 116.61 189.873 113.24 186.313 111.67C184.033 110.66 182.143 110.66 179.523 110.66H175.133H175.143V110.64Z" fill="white"/>
<path d="M274.583 109.69H265.813C264.773 109.69 263.923 110.54 263.923 111.58V116.84C263.923 117.88 264.773 118.73 265.813 118.73H274.143C275.183 118.73 276.033 119.58 276.033 120.62C276.033 121.66 275.183 122.51 274.143 122.51H265.813C264.773 122.51 263.923 123.36 263.923 124.4V129.82C263.923 130.86 264.773 131.71 265.813 131.71H274.983C276.023 131.71 276.873 132.56 276.873 133.6V133.64C276.873 134.68 276.023 135.53 274.983 135.53H260.633C260.103 135.53 259.673 135.09 259.673 134.57V106.87C259.673 106.34 260.113 105.91 260.633 105.91H274.593C275.633 105.91 276.483 106.76 276.483 107.8C276.483 108.84 275.633 109.69 274.593 109.69V109.72L274.583 109.69Z" fill="white"/>
<path d="M274.963 136.36H260.613C259.633 136.36 258.833 135.55 258.833 134.58V106.88C258.833 105.9 259.643 105.1 260.613 105.1H274.573C276.063 105.1 277.283 106.32 277.283 107.81C277.283 109.3 276.063 110.52 274.573 110.52H265.803C265.213 110.52 264.733 111 264.733 111.59V116.85C264.733 117.44 265.213 117.92 265.803 117.92H274.133C275.623 117.92 276.843 119.14 276.843 120.63C276.843 122.12 275.623 123.34 274.133 123.34H265.803C265.213 123.34 264.733 123.82 264.733 124.41V129.83C264.733 130.42 265.213 130.9 265.803 130.9H274.973C276.463 130.9 277.683 132.12 277.683 133.61C277.683 135.1 276.463 136.37 274.973 136.37H274.963V136.36Z" fill="white"/>
</g>
</svg>
