<?xml version="1.0" encoding="utf-8"?>
<!-- Generator: Adobe Illustrator 23.1.0, SVG Export Plug-In . SVG Version: 6.00 Build 0)  -->
<svg version="1.1" id="Layer_1" xmlns="http://www.w3.org/2000/svg" xmlns:xlink="http://www.w3.org/1999/xlink" x="0px" y="0px"
	 viewBox="0 0 574 185" style="enable-background:new 0 0 574 185;" xml:space="preserve">
<style type="text/css">
	.st0{clip-path:url(#SVGID_3_);}
	.st1{clip-path:url(#SVGID_4_);}
	.st2{clip-path:url(#SVGID_7_);}
	.st3{clip-path:url(#SVGID_8_);}
	.st4{clip-path:url(#SVGID_11_);}
	.st5{clip-path:url(#SVGID_12_);}
	.st6{clip-path:url(#SVGID_15_);}
	.st7{clip-path:url(#SVGID_16_);}
	.st8{clip-path:url(#SVGID_19_);}
	.st9{clip-path:url(#SVGID_20_);}
	.st10{clip-path:url(#SVGID_23_);}
	.st11{clip-path:url(#SVGID_24_);}
	.st12{clip-path:url(#SVGID_27_);}
	.st13{clip-path:url(#SVGID_28_);}
	.st14{clip-path:url(#SVGID_31_);}
	.st15{clip-path:url(#SVGID_32_);}
	.st16{clip-path:url(#SVGID_35_);}
	.st17{clip-path:url(#SVGID_36_);}
	.st18{clip-path:url(#SVGID_39_);}
	.st19{clip-path:url(#SVGID_40_);}
	.st20{clip-path:url(#SVGID_43_);}
	.st21{clip-path:url(#SVGID_44_);}
	.st22{clip-path:url(#SVGID_47_);}
	.st23{clip-path:url(#SVGID_48_);}
	.st24{clip-path:url(#SVGID_51_);}
	.st25{clip-path:url(#SVGID_52_);}
	.st26{clip-path:url(#SVGID_55_);}
	.st27{clip-path:url(#SVGID_56_);}
	.st28{clip-path:url(#SVGID_59_);}
	.st29{clip-path:url(#SVGID_60_);}
	.st30{clip-path:url(#SVGID_63_);}
	.st31{clip-path:url(#SVGID_64_);}
</style>
<g>
	<g>
		<defs>
			<rect id="SVGID_1_" x="1.672" y="2.439" width="568" height="178"/>
		</defs>
		<defs>
			<path id="SVGID_2_" d="M167.472,176.239l-19.2-21.8v-112.8c0-1.6-1.2-2.8-2.8-2.8h-62l-5.6-33.6c-0.2-0.8-1-1.4-1.8-1.2
				c-0.8,0-1.4,0.8-1.4,1.6v33.4h-51.8c-1.6,0-2.8,1.2-2.8,2.8v58l-14.2,1c-0.8,0-1.4,0.8-1.4,1.6c0,0.8,0.6,1.4,1.4,1.6l14.2,1.2
				v14.8l-16.2,8c-0.8,0.4-1,1.2-0.8,2c0.6,0.4,1.4,0.8,2.2,0.6l15-4.2v37.8c0,1.6,1.2,2.8,2.8,2.8h122.6c1.6,0,2.8-1.2,2.8-2.8
				v-0.6l17,14.8c0.2,0.2,0.6,0.4,1,0.4s0.8-0.2,1.2-0.4C167.872,177.639,168.072,176.839,167.472,176.239L167.472,176.239z
				 M94.472,115.439l-12,46.2c0,0.2-0.4,0.4-0.8,0.6c-0.4,0-0.6-0.4-0.6-0.6l-2.4-43.8l-23,14.6c-0.2,0.2-0.6,0.2-0.8,0
				c-0.2-0.2-0.2-0.6,0-0.8l12.4-19.4l-47,13.2l-15.2,4.2c-0.4,0-0.6,0-0.8-0.4c-0.2-0.4,0-0.6,0.4-0.8l15.8-7.8l28-14.2l-28.4-2.4
				l-14.2-1.2c-0.4,0-0.6-0.4-0.6-0.6c0-0.4,0.2-0.6,0.6-0.6l14.2-1l47.8-3.4l-40.6-50.8c-0.2-0.2-0.2-0.6,0-1
				c0.2-0.2,0.6-0.2,0.8,0l47.6,38.8v-45.4v-33.4c0-0.4,0.2-0.6,0.6-0.6c0.4,0,0.6,0.2,0.6,0.6l5.6,33.4l7.6,44.2l14.2-20.8
				c0.2-0.2,0.4-0.4,0.8-0.2c0.2,0,0.4,0.4,0.4,0.6l-1.6,16.2l34.8-23c0.2-0.2,0.6-0.2,0.8,0.2c0.2,0.2,0.2,0.6,0,0.8l-36.8,40.8
				l34.8,12c0.4,0.2,0.4,0.4,0.4,0.8c0,0.4-0.4,0.6-0.6,0.6h-28.2l39.2,44.8l18.4,21c0.2,0.2,0.2,0.6,0,1c-0.2,0.2-0.4,0.2-0.4,0.2
				c-0.2,0-0.2,0-0.4-0.2l-17.6-15.4L94.472,115.439L94.472,115.439z"/>
		</defs>
		<clipPath id="SVGID_3_">
			<use xlink:href="#SVGID_1_"  style="overflow:visible;"/>
		</clipPath>
		<clipPath id="SVGID_4_" class="st0">
			<use xlink:href="#SVGID_2_"  style="overflow:visible;"/>
		</clipPath>
		<rect x="-7" y="-6" class="st1" width="184.872" height="194.839"/>
	</g>
	<g>
		<defs>
			<rect id="SVGID_5_" x="1.672" y="2.439" width="568" height="178"/>
		</defs>
		<defs>
			<path id="SVGID_6_" d="M222.072,102.639c0,2,0,2-1,2.6c-4.8,2.4-11.8,3.2-17.4,3.2c-17.8,0-33.6-8.4-33.6-28.4
				c-0.2-9.6,4.6-18.6,12.6-23.6c6-3.4,12.6-5,19.6-4.6c4.4,0,8.6,0.4,12.8,1.2c1.8,0.4,3.8,0.6,5.8,0.8c0.8,0,1,0.4,1,0.8
				c-0.4,4-0.6,8-0.4,12c0,1.2-0.2,1.6-0.8,1.6c-0.6,0-0.6-0.4-0.8-1c-0.2-2.2-1-4.4-2.4-6c-4.4-3.8-10.2-6-16.2-5.6
				c-5.2-0.4-10.2,1.2-14.4,4.4c-4,3.4-6.6,8.8-6.6,17.8c0,15.6,10,27.2,25.2,27.2c2,0.2,4.2-0.2,6.2-0.8c1-0.4,1.6-1.6,1.4-2.6
				v-6.8c0-3.6,0-6.4,0-8.6c0-2.2-0.8-3.6-3.2-4.2c-1-0.2-1.8-0.2-2.8-0.2c-0.6,0-1-0.2-1-0.6s0.4-0.8,1.6-0.8
				c3.8,0,8.4,0.2,10.6,0.2c2.2,0,6-0.2,8.4-0.2c1,0,1.4,0.2,1.4,0.8s-0.4,0.6-1,0.6c-0.6,0-1.4,0-2,0.2c-2,0.4-2.6,1.6-2.8,4.2v8.8
				L222.072,102.639L222.072,102.639z"/>
		</defs>
		<clipPath id="SVGID_7_">
			<use xlink:href="#SVGID_5_"  style="overflow:visible;"/>
		</clipPath>
		<clipPath id="SVGID_8_" class="st2">
			<use xlink:href="#SVGID_6_"  style="overflow:visible;"/>
		</clipPath>
		<rect x="160.066" y="41.779" class="st3" width="78.006" height="76.66"/>
	</g>
	<g>
		<defs>
			<rect id="SVGID_9_" x="1.672" y="2.439" width="568" height="178"/>
		</defs>
		<defs>
			<path id="SVGID_10_" d="M276.672,65.039c-2.4,0-6.4,0.2-7.2,0.2c0,0-4.2-0.2-7.2-0.2c-0.8,0-1.4,0.2-1.4,0.6
				c0,0.4,0.4,0.6,1.2,0.6c0.8,0,1.4,0,2.2,0.2c2,0.6,2.4,1,2.4,3c0,2,0.2,3.4,0.2,11.8v7.2c0,5.8-0.2,10.6-3.6,13.6c-2.2,2-5,3-8,3
				c-2.8,0.2-5.4-0.6-7.6-2.2c-3-2.2-4.6-5.4-4.6-13.6v-7.8c0-8.4,0-10,0.2-11.8c0.2-1.8,0.6-2.6,2.2-3c0.6-0.2,1.2-0.2,1.8-0.2
				s1-0.2,1-0.6s-0.4-0.6-1.4-0.6c-2.2,0-6.2,0.2-7.8,0.2c-1.8,0-5.8-0.2-9.2-0.2c-0.8,0-1.4,0.2-1.4,0.6s0.4,0.6,1.2,0.6
				s1.6,0,2.4,0.2c2,0.6,2.4,1,2.6,3v3.4v16.8c0,8.2,2.4,12.4,5.6,14.8c4.4,3.8,10.8,3.8,13.8,3.8c4.6,0.2,9.2-1.2,12.8-4
				c5.2-4,5.8-10.6,5.8-17v-6c0-8.4,0-10,0.2-11.8c0.2-1.8,0.6-2.6,2.2-3c0.6-0.2,1.2-0.2,1.8-0.2s1.2-0.2,1.2-0.6
				S277.472,65.039,276.672,65.039"/>
		</defs>
		<clipPath id="SVGID_11_">
			<use xlink:href="#SVGID_9_"  style="overflow:visible;"/>
		</clipPath>
		<clipPath id="SVGID_12_" class="st4">
			<use xlink:href="#SVGID_10_"  style="overflow:visible;"/>
		</clipPath>
		<rect x="218.472" y="55.039" class="st5" width="69.6" height="63.419"/>
	</g>
	<g>
		<defs>
			<rect id="SVGID_13_" x="1.672" y="2.439" width="568" height="178"/>
		</defs>
		<defs>
			<path id="SVGID_14_" d="M301.872,106.239c-1,0-2,0-3.2-0.2c-1.8-0.2-2.2-1-2.4-2.6c-0.2-2.4-0.2-6.8-0.2-12.2v-9.8
				c0-8.4,0-10,0.2-11.8c0.2-1.8,0.6-2.6,2.2-3c0.6-0.2,1.2-0.2,1.8-0.2c0.6,0,1-0.2,1-0.8c0-0.6-0.6-0.6-1.4-0.6
				c-2.4,0-6.2,0.2-7.8,0.2c-1.6,0-5.8-0.2-8.2-0.2c-1,0-1.6,0.2-1.6,0.6c0,0.4,0.4,0.8,1,0.8c0.8,0,1.4,0,2.2,0.2
				c1.2,0.4,1.8,1,2,2.8c0.2,1.8,0,3.4,0,11.8v9.8c0,5.4,0,9.8-0.2,12.2c-0.2,1.6-0.6,2.4-1.8,2.6c-0.6,0.2-1.4,0.2-2.2,0.2
				c-0.8,0-1,0.4-1,0.6c0,0.2,0.4,0.6,1.2,0.6c2.4,0,6.6-0.2,8-0.2c1.4,0,5.8,0.2,9.8,0.2c0.8,0,1.2-0.2,1.2-0.6
				C302.472,106.239,302.672,106.239,301.872,106.239"/>
		</defs>
		<clipPath id="SVGID_15_">
			<use xlink:href="#SVGID_13_"  style="overflow:visible;"/>
		</clipPath>
		<clipPath id="SVGID_16_" class="st6">
			<use xlink:href="#SVGID_14_"  style="overflow:visible;"/>
		</clipPath>
		<rect x="272.272" y="55.039" class="st7" width="40.222" height="62.2"/>
	</g>
	<g>
		<defs>
			<rect id="SVGID_17_" x="1.672" y="2.439" width="568" height="178"/>
		</defs>
		<defs>
			<path id="SVGID_18_" d="M320.872,80.439c0-4.4,0-9,0-11c0-0.6,0.2-0.8,0.8-1c1.2-0.2,2.4-0.4,3.6-0.4c6-0.4,12,1.6,16.8,5.4
				c3.8,3.6,6,8.8,5.6,14c0,5.8-1.2,10.8-5.2,13.8c-4,3-7.6,3.8-13.2,3.8c-4.8,0-7.2-1.2-7.8-2.2c-0.4-1.2-0.8-2.6-0.6-4
				c0-1.2-0.2-5.4-0.2-11.4L320.872,80.439L320.872,80.439z M350.872,71.439c-6.6-6.4-16.8-6.4-24.4-6.4c-3.6,0-8,0.2-9.8,0.2
				c-1.8,0-5.6-0.2-8.8-0.2c-0.8,0-1.4,0-1.4,0.6c0,0.6,0.4,0.6,1.2,0.6c0.8,0,1.6,0,2.4,0.2c2,0.6,2.4,1,2.6,3c0.2,2,0,3.4,0,11.8
				v10c0,5.2,0,9.6-0.2,12c-0.2,1.6-0.6,2.6-1.8,3c-0.6,0.2-1.4,0.2-2.2,0.2s-1,0.4-1,0.6c0,0.2,0.4,0.6,1.2,0.6
				c1.2,0,2.8,0,4.2-0.2c1.4-0.2,2.8,0,3.4,0c1.6,0,3.8,0.2,6.2,0.4c2.4,0.2,5,0.4,7.2,0.4c11.2,0,17.6-4,20.4-6.6
				c4.2-4,6.6-9.8,6.6-15.6c0.2-5.4-2-10.6-5.8-14.2V71.439L350.872,71.439z"/>
		</defs>
		<clipPath id="SVGID_19_">
			<use xlink:href="#SVGID_17_"  style="overflow:visible;"/>
		</clipPath>
		<clipPath id="SVGID_20_" class="st8">
			<use xlink:href="#SVGID_18_"  style="overflow:visible;"/>
		</clipPath>
		<rect x="296.472" y="55.039" class="st9" width="70.213" height="63.2"/>
	</g>
	<g>
		<defs>
			<rect id="SVGID_21_" x="1.672" y="2.439" width="568" height="178"/>
		</defs>
		<defs>
			<path id="SVGID_22_" d="M391.672,98.639c-0.4,0-0.6,0.4-0.8,1c-0.4,2.4-1,3.4-2.6,4c-1.8,0.6-3.8,0.8-5.6,0.8
				c-6.2,0-8-0.8-8.2-4.6c0-0.6,0-1.4,0-2.4c0-2,0-4.6,0-5.8v-4.4c0-0.4,0-0.6,0.2-0.6c1.6,0,8.4,0.2,9.4,0.2c2.2,0.2,3,1,3.4,2
				c0.2,0.8,0.2,1.4,0.2,2c0,0.2,0.2,0.6,0.6,0.6c0.4,0,0.6-1,0.8-1.4c0.2-0.4,0.2-2.6,0.2-3.8c0.4-2.8,0.4-3.8,0.4-4
				c0-0.4-0.2-0.6-0.6-0.6c-0.4,0-0.6,0.4-1,0.8c-0.4,0.4-1.4,0.8-2.8,0.8c-1.4,0-9.2,0.2-10.6,0.2c-0.2,0-0.2-0.2-0.4-0.6v-13.8
				c0-0.4,0-0.4,0.4-0.4c1.2,0,8.4,0.2,9.6,0.2c3,0.2,3.4,1,4,2c0.2,0.6,0.4,1.4,0.4,2c0,0.4,0.2,0.8,0.6,0.8s0.8-0.8,0.8-1
				c0.2-0.6,0.2-3.2,0.4-3.6c0-1.2,0.2-2.4,0.4-3.6c0-0.2-0.2-0.6-0.4-0.6c-0.4,0-0.6,0.2-1,0.2c-0.4,0-1.4,0.2-2.6,0.4
				c-0.4,0-2.2,0-4.4,0h-12.2c-1.8,0-5.6-0.2-8.8-0.2c-0.8,0-1.4,0.2-1.4,0.6s0.4,0.6,1.2,0.6c0.8,0,1.6,0,2.4,0.2
				c2,0.6,2.4,1,2.6,3c0.2,2,0,3.4,0,11.8v9.8c0,5.2,0,9.6-0.2,12c-0.2,1.6-0.6,2.6-1.8,3c-0.6,0.2-1.4,0.2-2.2,0.2s-1,0.4-1,0.6
				c0,0.2,0.4,0.6,1.2,0.6c1.2,0,2.8,0,4.2-0.2c1.4-0.2,2.8,0,3.4,0c1.8,0,4,0,7,0.2c3,0.2,6.6,0.2,11.2,0.2h0.4
				c1.8,0,2.4-0.2,2.8-1.6c0.4-2,0.8-4.2,0.8-6.2C392.272,99.639,392.272,98.839,391.672,98.639"/>
		</defs>
		<clipPath id="SVGID_23_">
			<use xlink:href="#SVGID_21_"  style="overflow:visible;"/>
		</clipPath>
		<clipPath id="SVGID_24_" class="st10">
			<use xlink:href="#SVGID_22_"  style="overflow:visible;"/>
		</clipPath>
		<rect x="350.072" y="54.839" class="st11" width="52.12" height="63"/>
	</g>
	<g>
		<defs>
			<rect id="SVGID_25_" x="1.672" y="2.439" width="568" height="178"/>
		</defs>
		<defs>
			<path id="SVGID_26_" d="M401.872,106.639c-1.2-0.4-1.4-0.8-1.4-2.4c0-4,0.2-8.4,0.4-9.6c0.2-1.2,0.2-1.8,0.8-1.8
				c0.6,0,0.8,0.6,0.8,1.2c0,1.2,0.2,2.4,0.6,3.6c1.2,4.6,5.6,7.6,10.4,7.4c6.6,0,9.8-4.4,9.8-8.2s-1.2-7-7.2-11.6l-3.4-2.6
				c-8-6.2-10.8-11.4-10.8-17.2c0-8,6.6-13.6,16.8-13.6c3.2,0,6.4,0.4,9.6,1.2c0.6,0.2,1,0.4,1,0.8c0,1-0.2,3-0.2,8.8
				c0,1.6-0.2,2.2-0.8,2.2c-0.6,0-0.8-0.4-0.8-1.4c-0.2-1.8-0.8-3.4-1.8-4.8c-1.8-2.4-5-3.8-8-3.6c-5.4,0-8.6,3.2-8.6,7.4
				c0,3.4,1.6,5.8,7.6,10.4l2,1.6c8.8,6.6,11.8,11.6,11.8,18.4c0,5.2-2.4,9.8-6.8,12.6c-3.4,2-7.4,3-11.6,3
				C408.672,108.639,405.072,108.039,401.872,106.639"/>
		</defs>
		<clipPath id="SVGID_27_">
			<use xlink:href="#SVGID_25_"  style="overflow:visible;"/>
		</clipPath>
		<clipPath id="SVGID_28_" class="st12">
			<use xlink:href="#SVGID_26_"  style="overflow:visible;"/>
		</clipPath>
		<rect x="390.472" y="41.839" class="st13" width="50" height="76.637"/>
	</g>
	<g>
		<defs>
			<rect id="SVGID_29_" x="1.672" y="2.439" width="568" height="178"/>
		</defs>
		<defs>
			<path id="SVGID_30_" d="M473.272,64.639c-0.2,0-0.8,0.2-1.6,0.2c-1.4,0.2-2.8,0.2-4.2,0.2h-24.6c-2,0-4,0-6-0.2
				c-1.6-0.2-2-0.6-2.6-0.6c-0.6,0-0.6,0.4-0.8,1.2c-0.2,0.8-1.4,5.8-1.4,6.8c0,0.6,0.2,1,0.6,1c0.4,0,0.6-0.4,0.8-0.8
				c0.2-0.6,0.6-1.4,1-1.8c0.8-1.2,2.2-1.6,5.8-1.6l9-0.2v22.6c0,5.2,0,9.6-0.2,12c-0.2,1.6-0.6,2.6-1.8,3c-0.6,0.2-1.4,0.2-2.2,0.2
				c-0.8,0-1,0.4-1,0.6c0,0.2,0.4,0.6,1.2,0.6c2.4,0,6.6-0.2,8-0.2c1.8,0,5.8,0.2,9.8,0.2c0.6,0,1.2-0.2,1.2-0.6s-0.4-0.6-1-0.6
				c-1,0-2,0-3-0.2c-1.8-0.2-2-1.2-2.2-2.8c-0.2-2.4-0.4-6.8-0.4-12v-23h0.2l7.2,0.2c5.4,0,7,1.8,7.2,3.2v0.4c0,0.8,0.2,1.2,0.8,1.2
				s0.6-0.4,0.6-1c0-1.4,0.2-5.6,0.2-6.8C473.872,65.039,473.872,64.639,473.272,64.639"/>
		</defs>
		<clipPath id="SVGID_31_">
			<use xlink:href="#SVGID_29_"  style="overflow:visible;"/>
		</clipPath>
		<clipPath id="SVGID_32_" class="st14">
			<use xlink:href="#SVGID_30_"  style="overflow:visible;"/>
		</clipPath>
		<rect x="422.072" y="54.239" class="st15" width="61.8" height="63.6"/>
	</g>
	<g>
		<defs>
			<rect id="SVGID_33_" x="1.672" y="2.439" width="568" height="178"/>
		</defs>
		<defs>
			<path id="SVGID_34_" d="M486.272,90.239c-0.2-0.2-0.2-0.2-0.2-0.2l5.8-14.2c0-0.2,0.2-0.4,0.2-0.4c0,0.2,0.2,0.2,0.2,0.4
				l5.8,14.2c0,0,0,0-0.2,0.2H486.272L486.272,90.239z M518.472,106.239c-0.8,0-1.6,0-2.2-0.2c-1-0.2-2.8-0.8-5.2-6
				c-3.8-8.4-14-31.4-15.4-34.4c-0.6-1.2-1-1.8-1.8-1.8c-0.8,0-1.2,0.6-1.8,2.2l-15.8,35.2c-1.2,2.8-2.2,4.4-5,5h-1.8
				c-0.4,0-0.8,0.2-0.8,0.6c0,0.6,0.4,0.6,1.2,0.6c3.2,0,6.4-0.2,7-0.2c2,0,4.8,0.2,6.8,0.2c0.6,0,1-0.2,1-0.6s-0.2-0.6-1-0.6h-0.8
				c-1.8,0-2.4-0.6-2.4-1.6c0-1.2,0.4-2.4,0.8-3.4l3.2-7.6c0.2-0.4,0.2-0.4,0.4-0.4h14.2c0.2,0,0.4,0,0.6,0.4l4.6,11.2
				c0,0.2,0,0.2,0.2,0.4c0,0.4-0.2,0.6-0.6,0.8c-0.6,0-0.8,0.4-0.8,0.6c0,0.2,0.8,0.4,1.8,0.6c5,0.2,9.6,0.2,11.6,0.2
				c2,0,2.6-0.2,2.8-0.6S519.072,106.039,518.472,106.239L518.472,106.239L518.472,106.239z"/>
		</defs>
		<clipPath id="SVGID_35_">
			<use xlink:href="#SVGID_33_"  style="overflow:visible;"/>
		</clipPath>
		<clipPath id="SVGID_36_" class="st16">
			<use xlink:href="#SVGID_34_"  style="overflow:visible;"/>
		</clipPath>
		<rect x="458.672" y="53.839" class="st17" width="70.652" height="63.6"/>
	</g>
	<g>
		<defs>
			<rect id="SVGID_37_" x="1.672" y="2.439" width="568" height="178"/>
		</defs>
		<defs>
			<path id="SVGID_38_" d="M546.872,78.039c0.2,3.2-1.2,6.4-3.8,8.2c-1.2,0.8-2.8,1.2-4.2,1c-1.6,0-3-0.2-4.6-0.6
				c-0.4-0.2-0.4-0.4-0.4-1v-16.6c0-0.4,0-0.6,0.4-0.8c1.2-0.2,2.4-0.2,3.6-0.2C541.472,68.039,546.872,70.039,546.872,78.039
				 M567.472,106.239c-0.4,0-1,0-1.4-0.2c-2.4-0.6-4.8-1.8-6.4-3.6c-3.6-3.4-8-8.6-13.2-14.8c5.8-4.6,8.4-8.2,8.4-12.4
				c0-3.2-1.6-6-4.2-7.8c-3.6-1.8-7.6-2.6-11.6-2.4c-1.8,0-7.4,0.2-9.4,0.2c-1.2,0-5-0.2-8.2-0.2c-0.8,0-1.4,0.2-1.4,0.6
				c0,0.4,0.4,0.6,1.2,0.6c0.8,0,1.6,0,2.4,0.2c2,0.6,2.4,1,2.6,3c0.2,2,0,3.4,0,11.8v9.8c0,5.2,0,9.6-0.2,12
				c-0.2,1.6-0.6,2.6-1.8,3c-0.6,0.2-1.4,0.2-2.2,0.2c-0.8,0-1,0.4-1,0.6s0.4,0.6,1.2,0.6c2.4,0,6.2-0.2,7.4-0.2
				c1.2,0,6,0.2,9.4,0.2c0.8,0,1.2-0.2,1.4-0.6c0-0.4-0.4-0.8-0.8-0.6c-1,0-2,0-3-0.2c-1.8-0.2-2-1.2-2.2-3c-0.2-2.4-0.4-6.6-0.4-12
				v-0.6c0-0.2,0.2-0.4,0.4-0.4l5.4,0.2c0.4,0,0.8,0.2,1,0.4c0.8,0.8,3.2,4.6,5.8,7.6c3.4,4.4,5.6,7,8.2,8.2c2,1,4.4,1.4,6.6,1.2
				h5.8c0.8,0,1.2-0.2,1.2-0.6C568.272,106.439,567.872,106.239,567.472,106.239"/>
		</defs>
		<clipPath id="SVGID_39_">
			<use xlink:href="#SVGID_37_"  style="overflow:visible;"/>
		</clipPath>
		<clipPath id="SVGID_40_" class="st18">
			<use xlink:href="#SVGID_38_"  style="overflow:visible;"/>
		</clipPath>
		<rect x="510.072" y="55.009" class="st19" width="68.4" height="62.68"/>
	</g>
	<g>
		<defs>
			<rect id="SVGID_41_" x="1.672" y="2.439" width="568" height="178"/>
		</defs>
		<defs>
			<path id="SVGID_42_" d="M559.072,70.239c0-2.8,2.2-5,5-5c2.8,0,5,2.2,5,5s-2.2,5-5,5
				C561.472,75.239,559.072,73.039,559.072,70.239L559.072,70.239z M559.672,70.239c0,2.4,2,4.6,4.6,4.6c2.4,0,4.6-2,4.6-4.6
				c0-2.4-2-4.6-4.6-4.6C561.672,65.639,559.672,67.639,559.672,70.239L559.672,70.239z"/>
		</defs>
		<clipPath id="SVGID_43_">
			<use xlink:href="#SVGID_41_"  style="overflow:visible;"/>
		</clipPath>
		<clipPath id="SVGID_44_" class="st20">
			<use xlink:href="#SVGID_42_"  style="overflow:visible;"/>
		</clipPath>
		<rect x="549.072" y="55.239" class="st21" width="30" height="30"/>
	</g>
	<g>
		<defs>
			<rect id="SVGID_45_" x="1.672" y="2.439" width="568" height="178"/>
		</defs>
		<defs>
			<path id="SVGID_46_" d="M562.872,69.839h1.6h0.8c0,0,0.4-0.2,0.4-0.4c0.2-0.2,0.2-0.4,0.2-0.4c0-0.2,0-0.4-0.2-0.6
				c-0.2-0.2-0.6-0.2-1-0.2h-1.8V69.839L562.872,69.839z M562.072,72.839v-5.6h2.4c0.4,0,0.8,0,1,0.2c0.2,0,0.4,0.2,0.6,0.4
				c0.2,0.2,0.2,0.6,0.2,0.8c0,0.4-0.2,0.8-0.4,1c-0.4,0.2-0.8,0.4-1.2,0.6c0.2,0,0.4,0.2,0.4,0.2c0.2,0.2,0.4,0.4,0.6,0.8l1,1.6h-1
				l-0.8-1.2l-0.6-0.8c-0.2-0.2-0.2-0.2-0.4-0.4c-0.2,0-0.2-0.2-0.4-0.2h-1.2L562.072,72.839L562.072,72.839z"/>
		</defs>
		<clipPath id="SVGID_47_">
			<use xlink:href="#SVGID_45_"  style="overflow:visible;"/>
		</clipPath>
		<clipPath id="SVGID_48_" class="st22">
			<use xlink:href="#SVGID_46_"  style="overflow:visible;"/>
		</clipPath>
		<rect x="552.072" y="57.239" class="st23" width="24.6" height="25.6"/>
	</g>
	<g>
		<defs>
			<rect id="SVGID_49_" x="1.672" y="2.439" width="568" height="178"/>
		</defs>
		<defs>
			<path id="SVGID_50_" d="M178.072,133.039c0-1-0.4-1.4-1.4-1.4h-0.8v-1.6h6v10.8c0.8-1.6,2.4-3,5.6-3c5.8,0,7,4.2,7,8.6v0.2
				c0,5-2,9-8,9c-2.4,0-4-1-4.6-2.2h-0.2v1.8h-5.8v-1.4h0.6c1.2,0,1.6-0.2,1.6-1.4V133.039L178.072,133.039z M181.872,144.039v6.8
				c0.4,1.6,1.4,3.4,4.2,3.4c3.4,0,4.4-2.6,4.4-7.4v-0.4c0-4.2-0.8-6.8-4.2-6.8C183.672,139.439,182.272,141.439,181.872,144.039
				L181.872,144.039z"/>
		</defs>
		<clipPath id="SVGID_51_">
			<use xlink:href="#SVGID_49_"  style="overflow:visible;"/>
		</clipPath>
		<clipPath id="SVGID_52_" class="st24">
			<use xlink:href="#SVGID_50_"  style="overflow:visible;"/>
		</clipPath>
		<rect x="165.872" y="120.039" class="st25" width="38.6" height="45.6"/>
	</g>
	<g>
		<defs>
			<rect id="SVGID_53_" x="1.672" y="2.439" width="568" height="178"/>
		</defs>
		<defs>
			<path id="SVGID_54_" d="M202.072,161.439c-1,0-1.8-0.2-2.4-0.2v-2.8h3c2,0,2.4-0.4,3-2l0.4-1.2h-2.4l-4.8-14
				c-0.4-1.2-0.6-1.4-1.6-1.4h-0.4v-1.6h7.8v1.6h-1c-0.8,0-1.2,0.2-0.8,1.4l3.8,12h0.2l3.8-12c0.4-1,0-1.4-1-1.4h-1v-1.6h5.8v1.6
				h-0.2c-0.8,0-1.2,0-1.6,1.4l-4.6,14l-1,3C206.272,160.639,205.072,161.439,202.072,161.439L202.072,161.439L202.072,161.439z"/>
		</defs>
		<clipPath id="SVGID_55_">
			<use xlink:href="#SVGID_53_"  style="overflow:visible;"/>
		</clipPath>
		<clipPath id="SVGID_56_" class="st26">
			<use xlink:href="#SVGID_54_"  style="overflow:visible;"/>
		</clipPath>
		<rect x="186.872" y="128.239" class="st27" width="37.6" height="43.2"/>
	</g>
	<g>
		<defs>
			<rect id="SVGID_57_" x="1.672" y="2.439" width="568" height="178"/>
		</defs>
		<defs>
			<path id="SVGID_58_" d="M222.672,142.839c0-7.2,3.2-12.6,10.8-12.6c7,0,10,3.8,10,9.4v0.4h-5.6v-0.8c0-3-1.2-4.6-4.2-4.6
				c-3.4,0-5,2-5,7.6v1.6c0,5.8,1.4,7.8,5,7.8c2.8,0,4.4-1.2,4.4-4.6v-1h5.4v0.8c0,5.4-2.8,9.2-9.8,9.2c-8.4,0-11-5.4-11-12.4
				V142.839L222.672,142.839z M256.072,136.439c5.8,0,7.8,3.2,7.8,6.4v12.6h-5v-2.6h-0.2c-0.8,1.6-2.6,3-5.2,3c-3.4,0-6.2-2-6.2-5.4
				c0-3.4,1.8-6.2,7.6-6.2h3.8v-1.2c0-1.8-0.4-3-2.8-3c-2.2,0-3,0.8-3,2.4h-4.6v-0.4
				C248.272,139.439,250.272,136.439,256.072,136.439L256.072,136.439L256.072,136.439z M258.672,147.839v-0.4h-3.2
				c-2,0-2.8,1-2.8,2.4v0.2c0,1.4,0.8,2.2,2.4,2.2C257.272,152.239,258.672,150.639,258.672,147.839L258.672,147.839
				L258.672,147.839z M268.472,136.839h5v3.6h0.2c0.8-2.2,2.6-3.8,5.8-3.8c4.4,0,6,2.2,6,6.2v12.8h-5v-11.6c0-2.2-0.8-3.2-3-3.2
				c-2.8,0-4,1.8-4,3.8v11h-5V136.839L268.472,136.839z M301.872,152.639c-0.8,1.6-2.6,3-5.2,3c-5.8,0-7.6-5-7.6-9.4v-0.4
				c0-5.6,2.8-9.6,7.6-9.6c2.8,0,4.2,1,5.2,2.2v-8.8h5v25.4h-5V152.639L301.872,152.639z M301.872,148.639v-5.6
				c-0.4-1.6-1.4-2.8-3.6-2.8c-3,0-4,1.8-4,5.6v0.4c0,3.6,0.8,5.6,3.8,5.6C300.272,151.839,301.472,150.639,301.872,148.639
				L301.872,148.639z M311.472,132.039c0-1.6,1.2-2.8,2.8-2.8c1.4,0,2.8,1.2,2.8,2.8c0,1.6-1.2,2.8-2.8,2.8
				C312.672,134.639,311.472,133.439,311.472,132.039L311.472,132.039z M311.672,136.839h5v18.6h-5V136.839L311.672,136.839z
				 M333.272,152.639c-0.8,1.6-2.6,3-5.2,3c-5.8,0-7.6-5-7.6-9.4v-0.4c0-5.6,2.8-9.6,7.6-9.6c2.8,0,4.2,1,5.2,2.2v-8.8h5v25.4h-5
				V152.639L333.272,152.639z M333.272,148.639v-5.6c-0.4-1.6-1.4-2.8-3.6-2.8c-3,0-4,1.8-4,5.6v0.4c0,3.6,0.8,5.6,3.8,5.6
				C331.672,151.839,332.872,150.639,333.272,148.639L333.272,148.639z M341.872,152.839c0-1.6,1.2-2.8,2.8-2.8
				c1.6,0,2.8,1.4,2.8,2.8c0,1.6-1.4,2.8-2.8,2.8C343.272,155.639,341.872,154.239,341.872,152.839L341.872,152.839z"/>
		</defs>
		<clipPath id="SVGID_59_">
			<use xlink:href="#SVGID_57_"  style="overflow:visible;"/>
		</clipPath>
		<clipPath id="SVGID_60_" class="st28">
			<use xlink:href="#SVGID_58_"  style="overflow:visible;"/>
		</clipPath>
		<rect x="212.672" y="119.239" class="st29" width="144.8" height="46.8"/>
	</g>
	<g>
		<defs>
			<rect id="SVGID_61_" x="1.672" y="2.439" width="568" height="178"/>
		</defs>
		<defs>
			<path id="SVGID_62_" d="M62.072,82.039c-0.2-0.2-0.6-0.2-0.8,0c-0.2,0.2-0.2,0.6,0,0.8l15.8,18.6l-15.8,2.4
				c-0.2,0-0.4,0.2-0.4,0.6c0,0.2,0.2,0.6,0.4,0.6l6.2,0.8v0.8l-10.6,4c-0.2,0.2-0.4,0.4-0.4,0.6s0.4,0.4,0.6,0.4l21.2-4.4l-5.6,8.2
				c-0.2,0.2-0.2,0.6,0,0.8s0.4,0.2,0.8,0l9.6-6l1.6,12.8c0,0.2,0.2,0.4,0.6,0.4c0.2,0,0.6-0.2,0.6-0.4l3-14.6l22.8,16
				c0.2,0,0.2,0.2,0.4,0.2c0.2,0,0.4,0,0.4-0.2c0.2-0.2,0.2-0.6,0-0.8l-17.8-16h12.6c0.2,0,0.6-0.2,0.6-0.4c0-0.2-0.2-0.6-0.4-0.6
				l-14.6-5.4l11.8-12.4c0.2-0.2,0.2-0.6,0-0.8c-0.2-0.2-0.6-0.2-0.8,0l-10.6,7.4l1.8-7.4c0-0.2,0-0.6-0.4-0.6
				c-0.2-0.2-0.6,0-0.6,0.2l-7,9.4l-5.6-33.8c0-0.2-0.2-0.4-0.6-0.4c-0.4,0-0.6,0.2-0.6,0.6l1.4,33.2L62.072,82.039L62.072,82.039z"
				/>
		</defs>
		<clipPath id="SVGID_63_">
			<use xlink:href="#SVGID_61_"  style="overflow:visible;"/>
		</clipPath>
		<clipPath id="SVGID_64_" class="st30">
			<use xlink:href="#SVGID_62_"  style="overflow:visible;"/>
		</clipPath>
		<rect x="46.472" y="52.839" class="st31" width="76.15" height="81.8"/>
	</g>
</g>
</svg>
