<svg id="type" xmlns="http://www.w3.org/2000/svg" viewBox="0 0 135 135" width="135px" height="135px" ><defs><style>.cls-1{fill:#fff;}.cls-2{fill:#91b5c7;}</style></defs><title>DigitalRGB_Platinum_135px</title><circle class="cls-1" cx="67.5" cy="67.5" r="67.5"/><path class="cls-2" d="M71.85,83.23l-5.69,22.92a.59.59,0,0,1-1.13-.28L63.75,82.34,51.86,89.62a.58.58,0,0,1-.69-.91L57,79.63,28.9,82.57a.59.59,0,0,1-.27-1.14L50,72.66l-20-3.29a.58.58,0,0,1,.17-1.15L56.3,66.64l-13.42-26a.59.59,0,0,1,.15-.77.58.58,0,0,1,.78.07L65.14,60.7l5.57-35.64a.59.59,0,0,1,1.17.06L73.07,61l7.35-7.81a.58.58,0,0,1,.71-.12.57.57,0,0,1,.29.65L81.27,62,103,52.09a.59.59,0,0,1,.63,1l-22,17.59L97,79.09a.59.59,0,0,1-.35,1.1l-15.93-.4,16.48,24.48a46.74,46.74,0,1,0-3.33,2.48Z" transform="translate(0 0)"/><path d="M52.93,127.3l.16-.77,3.68-3a1.68,1.68,0,0,0,.61-1,1.09,1.09,0,0,0-1-1.41,1.19,1.19,0,0,0-1.51,1.06L54,122a2.07,2.07,0,0,1,2.58-1.69,2.13,2.13,0,0,1,1.61,1.2,1.92,1.92,0,0,1,.1,1.2,2.37,2.37,0,0,1-.93,1.42l-3.1,2.57,3.21.65-.17.83Z" transform="translate(0 0)"/><path d="M64.32,128.43a2.35,2.35,0,0,1-3.21-.25c-.68-.81-.73-1.85-.62-3.28s.31-2.47,1.12-3.17a2.38,2.38,0,0,1,3.2.24c.69.82.74,1.88.63,3.3S65.12,127.73,64.32,128.43Zm-.24-6a1.41,1.41,0,0,0-1.83-.14c-.68.55-.74,1.63-.81,2.63s-.18,2.08.4,2.72a1.29,1.29,0,0,0,.89.41,1.28,1.28,0,0,0,.94-.27c.68-.55.74-1.63.82-2.63S64.67,123.12,64.08,122.48Z" transform="translate(0 0)"/><path d="M68.3,129l0-.78,2.82-3.85a1.64,1.64,0,0,0,.36-1.08,1.1,1.1,0,0,0-1.28-1.14,1.18,1.18,0,0,0-1.19,1.4l-.94,0a2.06,2.06,0,0,1,2.08-2.27,2.14,2.14,0,0,1,1.86.77,1.92,1.92,0,0,1,.4,1.13,2.49,2.49,0,0,1-.56,1.61l-2.37,3.25,3.27-.16,0,.85Z" transform="translate(0 0)"/><path d="M79.31,127.37a2.11,2.11,0,0,1-1.47.89,2.17,2.17,0,0,1-1.69-.35c-.86-.62-1.16-1.62-1.4-3s-.29-2.46.32-3.33a2.38,2.38,0,0,1,3.16-.54c.86.62,1.16,1.63,1.41,3S79.92,126.5,79.31,127.37Zm-1.66-5.71a1.33,1.33,0,0,0-1-.18,1.23,1.23,0,0,0-.84.49c-.53.7-.32,1.76-.15,2.74s.32,2.06,1,2.55a1.33,1.33,0,0,0,1,.18,1.36,1.36,0,0,0,.85-.49c.52-.7.32-1.76.15-2.75S78.37,122.14,77.65,121.66Z" transform="translate(0 0)"/><path d="M30.49,106.57l-.48.79a2.47,2.47,0,0,1,2.25.56,2.89,2.89,0,0,1,1,1.93,4.18,4.18,0,0,1-1.34,3,4.1,4.1,0,0,1-2.8,1.7,2.87,2.87,0,0,1-2.07-.73A3,3,0,0,1,26,111.78a2.35,2.35,0,0,1,.48-1.55l.75.66a1.51,1.51,0,0,0-.29.86,1.87,1.87,0,0,0,.73,1.43,2,2,0,0,0,1.42.47,3.52,3.52,0,0,0,2.12-1.42,3.56,3.56,0,0,0,1.12-2.33,1.82,1.82,0,0,0-.66-1.3,1.92,1.92,0,0,0-1.39-.52,2.68,2.68,0,0,0-1.76,1l1.54,1.34-.59.67-2.18-1.9L30,106.13Z" transform="translate(0 0)"/><path d="M26.53,102.11a2.6,2.6,0,0,1-.44,4l-3.67,3.11-.61-.73,3.68-3.12c.92-.78,1.21-1.68.36-2.68s-1.79-.87-2.71-.09l-3.68,3.11-.62-.72,3.67-3.1A2.6,2.6,0,0,1,26.53,102.11Z" transform="translate(0 0)"/><path d="M23,97.7l-6.31,4.2-.54-.81,6.31-4.2Z" transform="translate(0 0)"/><path d="M18,90.55A2.82,2.82,0,0,1,19.6,92l1.22,2.35L14.07,97.8l-1.21-2.35a2.84,2.84,0,0,1-.23-2.12,4,4,0,0,1,2.23-2.25A4,4,0,0,1,18,90.55Zm-4.53,3.06a1.9,1.9,0,0,0,.16,1.44l.77,1.51,5.19-2.68-.78-1.51a1.91,1.91,0,0,0-1.08-1,3.34,3.34,0,0,0-2.44.52A3.35,3.35,0,0,0,13.48,93.61Z" transform="translate(0 0)"/><path d="M17.35,87.06,10.17,89.5,8.53,84.7l.83-.28,1.33,3.9,2.19-.75-1.17-3.42.85-.29,1.17,3.42,2.48-.84-1.33-3.9.83-.29Z" transform="translate(0 0)"/><path d="M13.68,75.7a3.53,3.53,0,0,1,.85,4.24,2.49,2.49,0,0,1-1.63,1.14l-.19-1a1.71,1.71,0,0,0,1.07-.76A2.09,2.09,0,0,0,14,77.84a2,2,0,0,0-.7-1.31,1.09,1.09,0,0,0-.94-.2c-.58.11-1,.57-1,1.48,0,.42,0,.8.05,1.21a2,2,0,0,1-1.59,2.36A2.11,2.11,0,0,1,8.23,81a2.84,2.84,0,0,1-1.11-1.81,2.88,2.88,0,0,1,.34-2.07,2.28,2.28,0,0,1,1.46-1l.19,1a1.62,1.62,0,0,0-.87.55,2,2,0,0,0,.51,2.63,1.18,1.18,0,0,0,.87.15,1.13,1.13,0,0,0,.84-1.32c0-.43,0-.85-.05-1.27a2.17,2.17,0,0,1,1.71-2.48A2,2,0,0,1,13.68,75.7Z" transform="translate(0 0)"/><path d="M7.11,71l6.7-.45.06,1L7.17,72l.15,2.26-.89.06L6.07,68.8,7,68.74Z" transform="translate(0 0)"/><path d="M13.9,62.74l-1.83.53-.15,3.3,1.77.69,0,1-7.46-3,.05-1.11L14,61.75Zm-6.74,2L11,66.22l.13-2.68Z" transform="translate(0 0)"/><path d="M15.05,55.42l-3.37.82-.39,2.07,3.1.59-.18.93L6.75,58.42l.55-2.93a2.59,2.59,0,0,1,1-1.77,2.13,2.13,0,0,1,1.64-.3,2,2,0,0,1,1.36.84,2.26,2.26,0,0,1,.36,1l3.57-.87Zm-6.88.23-.38,2,2.62.5.38-2c.17-.89-.07-1.58-1-1.76S8.33,54.77,8.17,55.65Z" transform="translate(0 0)"/><path d="M15.49,43.19a2.57,2.57,0,0,1-.14,2l-.72,1.73L17.35,48,17,48.9,10,46l1.08-2.6a2.51,2.51,0,0,1,1.38-1.51,2.32,2.32,0,0,1,1.71.08A2.39,2.39,0,0,1,15.49,43.19Zm-3.64.54-.71,1.7,2.69,1.12.71-1.71a1.33,1.33,0,0,0-.78-2A1.35,1.35,0,0,0,11.85,43.73Z" transform="translate(0 0)"/><path d="M20,42.19l-6.58-3.8.48-.82,5.81,3.35,1.82-3.17.77.45Z" transform="translate(0 0)"/><path d="M26.23,33l-1.81-.61-2,2.62,1.05,1.58-.59.77-4.39-6.76.68-.89,7.67,2.5Zm-6.67-2.25,2.32,3.47,1.64-2.13Z" transform="translate(0 0)"/><path d="M24.76,24.72l4.77,4.7-.67.69L24.09,25.4,22.5,27l-.63-.62,3.85-3.91.63.63Z" transform="translate(0 0)"/><path d="M32.67,26.53,27.8,20.69l.75-.62,4.87,5.83Z" transform="translate(0 0)"/><path d="M39.68,21.44l-6.47-3.08,3.34,5.11-.77.51-4.15-6.36.89-.59L39,20.12,35.65,15l.77-.5,4.15,6.36Z" transform="translate(0 0)"/><path d="M45.65,18.5A2.6,2.6,0,0,1,41.93,17l-2-4.4.88-.38,2,4.41c.49,1.11,1.28,1.64,2.48,1.1s1.34-1.48.84-2.58l-2-4.42L45,10.3l2,4.4A2.61,2.61,0,0,1,45.65,18.5Z" transform="translate(0 0)"/><path d="M56.62,14.77,55,8.57l-.7,6.68-.73.19L49.72,9.88l1.62,6.25-.88.23L48.56,9l1.33-.34,3.76,5.4.66-6.54,1.3-.34,1.89,7.35Z" transform="translate(0 0)"/><path d="M68.67,13.08a3.52,3.52,0,0,1-4.33.11,2.53,2.53,0,0,1-.85-1.8l1,0a1.74,1.74,0,0,0,.56,1.19,2.17,2.17,0,0,0,1.46.44,2,2,0,0,0,1.41-.47,1.12,1.12,0,0,0,.37-.89c0-.59-.4-1.07-1.3-1.2l-1.2-.16c-1.14-.15-2-.76-2.07-2a2.13,2.13,0,0,1,.64-1.51,3,3,0,0,1,4-.1,2.26,2.26,0,0,1,.76,1.62h-1a1.51,1.51,0,0,0-.39-.94A2,2,0,0,0,65,7.44a1.19,1.19,0,0,0-.3.83c0,.69.59,1,1.15,1.05l1.27.17a2.17,2.17,0,0,1,2.15,2.11A2,2,0,0,1,68.67,13.08Z" transform="translate(0 0)"/><path d="M71.5,13.82l.86-7.53,5,.57-.1.88-4.09-.48-.27,2.3,3.6.41-.1.9-3.6-.41-.3,2.6,4.1.47-.1.87Z" transform="translate(0 0)"/><path d="M83.2,16l-.15-1.89-3.19-.83-1,1.59-.94-.24L82.37,8l1.08.28.7,8Zm-.55-7-2.28,3.48,2.6.67Z" transform="translate(0 0)"/><path d="M85.74,16.87l2.81-7.06.88.35L87,16.39l3.4,1.35-.33.83Z" transform="translate(0 0)"/><path d="M97.82,22.23a2.9,2.9,0,0,1-2.17-.38,2.87,2.87,0,0,1-1.31-1.77,4.08,4.08,0,0,1,.81-3.17,4.09,4.09,0,0,1,2.47-2.15,3,3,0,0,1,3.48,2.15,4.11,4.11,0,0,1-.81,3.17A4.12,4.12,0,0,1,97.82,22.23Zm2.37-5.1a1.94,1.94,0,0,0-.88-1.21,1.9,1.9,0,0,0-1.47-.24A3.48,3.48,0,0,0,96,17.43a3.48,3.48,0,0,0-.74,2.44,2,2,0,0,0,2.35,1.45,3.52,3.52,0,0,0,1.85-1.75A3.51,3.51,0,0,0,100.19,17.13Z" transform="translate(0 0)"/><path d="M105,20.06,103.47,22l2.73,2.25-.57.69-2.73-2.24-2.12,2.58-.74-.61,4.83-5.86,3.79,3.13-.56.67Z" transform="translate(0 0)"/><path d="M113.77,28.55l-5.08,4.37-.63-.73,5.09-4.37-1.48-1.71.68-.58,3.57,4.16-.67.58Z" transform="translate(0 0)"/><path d="M113.89,40.21l1.88-2.92-1.13-1.77L112,37.24l-.51-.81,6.38-4.1,1.61,2.5a2.55,2.55,0,0,1,.48,2,2.2,2.2,0,0,1-1,1.34,2,2,0,0,1-2.52-.16l-2,3.09Zm4.83-4.9-1.09-1.71-2.24,1.45,1.09,1.7c.49.75,1.14,1.1,2,.58A1.3,1.3,0,0,0,118.72,35.31Z" transform="translate(0 0)"/><path d="M117.42,47.35,118.8,46l-1.36-3-1.9.19-.4-.88,8-.71.46,1-5.8,5.59Zm5.1-4.83-4.14.42,1.11,2.45Z" transform="translate(0 0)"/><path d="M119.7,54.42l4.84-5.26-5.86,1.68-.26-.89,7.3-2.09.3,1-4.87,5.27L127,52.47l.26.89L120,55.45Z" transform="translate(0 0)"/><path d="M121.74,62.87a3.52,3.52,0,0,1-.57-4.29,2.53,2.53,0,0,1,1.71-1l.12,1a1.78,1.78,0,0,0-1.12.68,2.12,2.12,0,0,0-.29,1.51,2,2,0,0,0,.61,1.35,1.14,1.14,0,0,0,.93.27c.58-.07,1-.51,1.06-1.42,0-.42,0-.8,0-1.21A2.05,2.05,0,0,1,126,57.45a2.08,2.08,0,0,1,1.57.48,2.83,2.83,0,0,1,1,1.88,2.9,2.9,0,0,1-.48,2,2.28,2.28,0,0,1-1.53.92l-.12-1a1.51,1.51,0,0,0,.9-.49,1.69,1.69,0,0,0,.35-1.39,1.72,1.72,0,0,0-.68-1.28,1.25,1.25,0,0,0-.86-.2,1.12,1.12,0,0,0-.92,1.26c0,.43,0,.85,0,1.27a2.18,2.18,0,0,1-1.88,2.37A2,2,0,0,1,121.74,62.87Z" transform="translate(0 0)"/><path d="M124.79,71.1a2.53,2.53,0,0,1-.59-1.88l0-1.87-2.94-.06,0-1,7.58.14,0,2.82a2.49,2.49,0,0,1-.72,1.91,2.31,2.31,0,0,1-1.62.55A2.34,2.34,0,0,1,124.79,71.1ZM128,69.26l0-1.84-2.91,0,0,1.85a1.33,1.33,0,0,0,1.46,1.56A1.35,1.35,0,0,0,128,69.26Z" transform="translate(0 0)"/><path d="M120.3,78l1.87-.34.5-3.27L121,73.52l.14-1,7.11,3.8-.17,1.11L120.15,79Zm6.92-1.25-3.7-1.92-.41,2.66Z" transform="translate(0 0)"/><path d="M118.29,85.33l3.44-.44.62-2-3-.93.28-.91,7.25,2.23L126,86.13a2.54,2.54,0,0,1-1.21,1.64,2.17,2.17,0,0,1-1.64.12,2.06,2.06,0,0,1-1.27-1,2.19,2.19,0,0,1-.24-1l-3.64.47Zm6.86.54.59-1.94-2.55-.78-.59,1.93c-.27.86-.11,1.58.81,1.87S124.88,86.73,125.15,85.87Z" transform="translate(0 0)"/><path d="M116.92,88.84l6.85,3.31-2.22,4.58-.79-.38,1.8-3.72-2.09-1-1.58,3.26-.81-.39,1.58-3.26-2.36-1.15-1.8,3.72-.79-.38Z" transform="translate(0 0)"/><path d="M110.8,99.43l7.13.39-5-3.46.52-.76,6.25,4.3-.61.88-7.15-.4,5,3.47-.52.76-6.24-4.3Z" transform="translate(0 0)"/><path d="M105.85,106.2a3,3,0,0,1,.79-2,2.88,2.88,0,0,1,2-1,5.61,5.61,0,0,1,4.57,4.25,3,3,0,0,1-.8,2.06,2.9,2.9,0,0,1-2,.94,2.55,2.55,0,0,1-1.78-.63l.67-.72a1.64,1.64,0,0,0,1.06.42,1.87,1.87,0,0,0,1.34-.62,1.93,1.93,0,0,0,.51-1.41,3.45,3.45,0,0,0-1.36-2.14,3.52,3.52,0,0,0-2.23-1.21,1.91,1.91,0,0,0-1.37.62,1.87,1.87,0,0,0-.51,1.4,1.69,1.69,0,0,0,.51,1l-.67.72A2.66,2.66,0,0,1,105.85,106.2Z" transform="translate(0 0)"/><path d="M103.63,111.4l-2-2.36.73-.62,2,2.36,4.84,1.82-.82.69-3.84-1.49.8,4-.78.65Z" transform="translate(0 0)"/></svg>