<svg width="468" height="380" viewBox="0 0 468 380" fill="none" xmlns="http://www.w3.org/2000/svg">
<g clip-path="url(#clip0_1787_3425)">
<path d="M428.235 70.7569C460.528 70.7569 486.707 44.5782 486.707 12.2851C486.707 -20.008 460.528 -46.1868 428.235 -46.1868C395.942 -46.1868 369.763 -20.008 369.763 12.2851C369.763 44.5782 395.942 70.7569 428.235 70.7569Z" fill="#6FCDDF"/>
<mask id="mask0_1787_3425" style="mask-type:alpha" maskUnits="userSpaceOnUse" x="369" y="-47" width="118" height="118">
<path d="M428.235 70.7569C460.528 70.7569 486.707 44.5782 486.707 12.2851C486.707 -20.008 460.528 -46.1868 428.235 -46.1868C395.942 -46.1868 369.763 -20.008 369.763 12.2851C369.763 44.5782 395.942 70.7569 428.235 70.7569Z" fill="#6FCDDF"/>
</mask>
<g mask="url(#mask0_1787_3425)">
<path opacity="0.3" d="M475.676 42.2668C476.48 42.3633 478.313 51.4974 473.457 59.2486C470.498 63.9444 466.285 66.1958 464.226 67.1285C463.744 68.3185 462.007 72.0816 458.147 73.5933C453.066 75.5873 446.215 72.9823 442.355 66.6462C438.818 67.2573 426.821 68.9296 415.049 61.8538C408.552 57.9299 404.661 52.9127 402.634 49.7286C395.366 49.1175 390.445 45.6117 390.22 42.0416C390.155 41.334 390.252 39.9832 391.603 38.2142C393.854 38.375 397.521 38.9217 401.477 40.948C407.137 43.8748 410.193 48.1525 411.479 50.2431C412.83 48.249 415.467 47.5413 417.59 48.5705C419.842 49.6641 420.871 52.3981 419.906 54.7781C420.839 54.1992 424.473 52.012 429.265 52.8161C435.73 53.9096 438.657 59.5382 438.978 60.1493C442.13 55.6143 447.63 54.0704 451.554 56.0323C455.381 57.9299 456.185 62.4328 456.282 62.9796C460.72 57.0938 464.676 54.167 467.571 52.5589C468.6 51.98 470.53 51.0151 472.299 48.9245C475.161 45.5474 475.194 42.1703 475.676 42.2346V42.2668Z" fill="#E9F6F9"/>
<path opacity="0.3" d="M385.588 -27.2808C385.459 -26.7662 384.559 -23.4535 381.214 -21.7489C377.226 -19.7548 373.398 -21.9096 373.109 -22.0704C373.173 -21.3628 373.527 -17.5355 371.018 -15.0268C368.059 -12.1 362.238 -12.0034 357.735 -15.7664C359.375 -14.7372 360.212 -12.8074 359.826 -10.9098C359.472 -9.07656 358.089 -7.62936 356.256 -7.21124C356.706 -7.30773 360.694 -8.11171 364.039 -5.31355C367.577 -2.32242 367.223 2.08383 367.191 2.46978C368.703 1.63355 372.112 0.025325 376.357 0.572092C382.147 1.31184 387.132 5.65391 389.383 11.7327C402.377 18.5512 408.713 22.3784 408.295 23.279C407.941 24.0509 402.473 22.5715 391.828 18.7763C388.161 21.0277 383.562 21.1563 379.927 19.0979C375.199 16.3962 374.331 11.3145 374.234 10.6712C366.998 12.794 360.437 10.7678 358.217 6.55451C357.799 5.75044 357.027 3.85278 357.574 0.861643C357.317 0.797317 351.238 -0.810735 349.887 -6.08543C349.341 -8.17601 349.759 -10.0094 350.112 -11.0386C346.639 -12.8719 345.545 -17.2459 347.443 -20.2049C349.115 -22.8101 352.814 -23.8072 355.902 -22.2312C357.22 -24.0323 359.375 -26.348 362.592 -27.2486C365.808 -28.1491 368.188 -27.0878 371.661 -26.5089C374.813 -25.9943 379.445 -25.737 385.556 -27.313L385.588 -27.2808Z" fill="#E9F6FB"/>
<path opacity="0.3" d="M488.702 2.47546C491.854 4.59821 497.482 9.00458 501.663 16.6272C504.88 22.4808 506.005 27.9162 506.423 31.3897C506.423 32.0973 506.23 36.2463 503.078 38.6264C499.541 41.2959 493.623 40.7169 489.474 36.5357C486.868 37.4363 483.395 38.1117 479.664 37.179C474.582 35.8925 472.845 32.4511 466.702 28.9775C464.097 27.4981 460.656 25.9543 456.217 24.9894C452.937 22.738 449.56 20.4867 446.183 18.2353C441.294 14.9869 436.437 11.8669 431.645 8.84363C434.636 8.7793 441.101 9.06882 447.566 13.1213C450.718 15.0833 452.937 17.3668 454.384 19.1679C455.188 18.975 468.793 15.7587 475.933 23.9602C476.962 25.1502 478.217 26.9513 479.021 29.5886C481.143 28.4308 485.035 26.6618 490.02 26.7583C491.886 26.7583 493.526 27.0478 494.877 27.4016C493.944 26.4045 492.69 24.8286 492.047 22.6094C490.503 17.5598 493.494 14.3114 492.4 9.16537C492.047 7.46075 491.146 5.11287 488.67 2.53985L488.702 2.47546Z" fill="#E9F6F9"/>
</g>
<path opacity="0.6" d="M428.235 70.7569C460.528 70.7569 486.707 44.5782 486.707 12.2851C486.707 -20.008 460.528 -46.1868 428.235 -46.1868C395.942 -46.1868 369.763 -20.008 369.763 12.2851C369.763 44.5782 395.942 70.7569 428.235 70.7569Z" fill="url(#paint0_linear_1787_3425)"/>
<path fill-rule="evenodd" clip-rule="evenodd" d="M114.808 48.5734C114.474 47.4897 112.94 47.4897 112.606 48.5734L111.392 52.5147C110.557 54.7352 109.983 55.3364 107.566 55.8963L105 56.2382C103.667 56.4158 103.667 58.344 105 58.5215L107.561 58.8628C109.993 59.439 110.561 60.3162 111.404 62.5627L111.409 62.5478L112.609 66.316C112.95 67.3855 114.464 67.3855 114.804 66.316L116.005 62.5473L116.01 62.5627C116.853 60.3162 117.421 59.439 119.853 58.8628L122.414 58.5215C123.747 58.344 123.747 56.4158 122.414 56.2382L119.848 55.8963C117.429 55.3359 116.856 54.7342 116.019 52.5087L114.808 48.5734Z" fill="#EDD7FF"/>
<path opacity="0.7" fill-rule="evenodd" clip-rule="evenodd" d="M132.166 39.8128C131.832 38.7291 130.298 38.7291 129.965 39.8128L129.28 42.0364C128.636 43.7475 128.193 44.211 126.33 44.6426L126.311 44.6452C124.978 44.8227 124.978 46.7509 126.311 46.9285L126.325 46.9304C128.201 47.3748 128.639 48.0512 129.289 49.784L129.293 49.7723L129.968 51.8904C130.309 52.96 131.822 52.96 132.163 51.8904L132.838 49.7721L132.842 49.784C133.492 48.0512 133.93 47.3748 135.806 46.9304L135.821 46.9285C137.153 46.7509 137.153 44.8227 135.821 44.6452L135.801 44.6426C133.935 44.2102 133.494 43.7458 132.848 42.0273L132.166 39.8128Z" fill="#EDD7FF"/>
<path fill-rule="evenodd" clip-rule="evenodd" d="M177.409 307.946C176.979 306.547 174.998 306.547 174.568 307.946L173.685 310.811C172.853 313.024 172.282 313.622 169.876 314.18L169.851 314.183C168.13 314.412 168.13 316.901 169.851 317.13L169.87 317.133C172.291 317.707 172.857 318.58 173.696 320.816L173.701 320.801L174.572 323.535C175.012 324.916 176.965 324.916 177.405 323.535L178.276 320.801L178.282 320.816C179.12 318.58 179.686 317.707 182.108 317.133L182.126 317.13C183.847 316.901 183.847 314.412 182.126 314.183L182.101 314.18C179.695 313.622 179.124 313.023 178.291 310.809L177.409 307.946Z" fill="#EDD7FF"/>
<path fill-rule="evenodd" clip-rule="evenodd" d="M245.849 159.049C245.418 157.65 243.438 157.65 243.007 159.049L242.125 161.915C241.292 164.127 240.721 164.726 238.315 165.283L238.29 165.287C236.57 165.516 236.57 168.005 238.29 168.234L238.309 168.237C240.73 168.81 241.296 169.683 242.135 171.92L242.141 171.905L243.012 174.639C243.451 176.02 245.405 176.02 245.845 174.639L246.716 171.905L246.721 171.92C247.56 169.683 248.126 168.81 250.547 168.237L250.566 168.234C252.286 168.005 252.286 165.516 250.566 165.287L250.541 165.283C248.134 164.726 247.563 164.127 246.731 161.913L245.849 159.049Z" fill="#EDD7FF"/>
<path fill-rule="evenodd" clip-rule="evenodd" d="M431.499 125.523C431.78 126.438 433.075 126.438 433.357 125.523L434.38 122.2C435.086 120.323 435.57 119.816 437.611 119.343L439.776 119.055C440.901 118.905 440.901 117.277 439.776 117.127L437.616 116.84C435.563 116.353 435.083 115.613 434.372 113.717L434.367 113.73L433.354 110.549C433.066 109.646 431.789 109.646 431.501 110.549L430.488 113.729L430.483 113.717C429.772 115.613 429.292 116.353 427.24 116.84L425.079 117.127C423.954 117.277 423.954 118.905 425.079 119.055L427.244 119.343C429.287 119.816 429.77 120.324 430.477 122.204L431.499 125.523Z" fill="#EDD7FF"/>
<circle opacity="0.5" cx="309.422" cy="156.371" r="3.345" fill="#EDD7FF"/>
<circle opacity="0.6" cx="417.777" cy="100.45" r="2.43013" transform="rotate(-180 417.777 100.45)" fill="#EDD7FF"/>
<circle opacity="0.6" cx="119.877" cy="342.953" r="4.08833" transform="rotate(-168.219 119.877 342.953)" fill="#EDD7FF"/>
<circle opacity="0.3" cx="16.4039" cy="312.327" r="7.10321" transform="rotate(-168.219 16.4039 312.327)" fill="#EDD7FF"/>
<circle opacity="0.5" cx="165.793" cy="292.094" r="2.54394" transform="rotate(-168.219 165.793 292.094)" fill="#EDD7FF"/>
<path fill-rule="evenodd" clip-rule="evenodd" d="M317.152 117.006C370.264 154.462 438.636 241.219 363.636 312.067L363.639 312.312C336.236 343.295 257.422 385.672 132.507 392.034L128.703 399.99L364.533 394.364L364.548 395.743L508.949 394.17L507.603 270.672C502.728 248.756 471.636 193.551 322.898 110.471L317.152 117.006Z" fill="#EFB450"/>
<path fill-rule="evenodd" clip-rule="evenodd" d="M317.152 117.006C370.264 154.462 438.636 241.219 363.636 312.067L363.639 312.312C336.236 343.295 257.422 385.672 132.507 392.034L128.703 399.99L364.533 394.364L364.548 395.743L508.949 394.17L507.603 270.672C502.728 248.756 471.636 193.551 322.898 110.471L317.152 117.006Z" fill="url(#paint1_linear_1787_3425)"/>
<path d="M485.913 245.671C459.468 206.108 387.393 156.803 354.661 137.096C446.783 210.259 456.34 261.906 458.063 293.021C458.519 334.873 432.896 374.934 417.597 388.938L470.172 388.365L487.112 355.663C508.664 301.741 495.293 259.867 485.913 245.671Z" fill="#FDD46C"/>
<path d="M369.263 397.767C462.849 351.217 441.403 244.678 413.681 220.093C413.681 377.506 236.626 389.613 177.13 402.758L369.263 397.767Z" fill="#FDD56C"/>
<path d="M271.36 100.079L271.771 118.724C271.793 119.973 272.266 121.187 273.1 122.095L286.717 137.236C287.362 137.952 288.104 138.548 288.944 139.023L308.019 150.163C308.634 150.537 309.413 149.811 309.097 149.161L301.2 132.532C300.911 131.943 300.766 131.27 300.796 130.619L300.984 118.611L271.403 100.073L271.36 100.079Z" fill="#FF5F3C"/>
<path d="M271.36 100.079L271.771 118.724C271.793 119.973 272.266 121.187 273.1 122.095L286.717 137.236C287.362 137.952 288.104 138.548 288.944 139.023L308.019 150.163C308.634 150.537 309.413 149.811 309.097 149.161L301.2 132.532C300.911 131.943 300.766 131.27 300.796 130.619L300.984 118.611L271.403 100.073L271.36 100.079Z" fill="white" fill-opacity="0.2"/>
<path d="M296.726 68.5112L315.107 64.949C316.337 64.7051 317.628 64.9069 318.696 65.5258L336.445 75.5607C337.285 76.0361 338.027 76.6319 338.672 77.3482L353.654 93.5454C354.152 94.0646 353.606 94.9766 352.9 94.8078L334.907 90.6554C334.268 90.4998 333.577 90.5018 332.944 90.6692L321.204 93.4029L296.73 68.5538L296.726 68.5112Z" fill="#FF5F3C"/>
<path d="M296.726 68.5112L315.107 64.949C316.337 64.7051 317.628 64.9069 318.696 65.5258L336.445 75.5607C337.285 76.0361 338.027 76.6319 338.672 77.3482L353.654 93.5454C354.152 94.0646 353.606 94.9766 352.9 94.8078L334.907 90.6554C334.268 90.4998 333.577 90.5018 332.944 90.6692L321.204 93.4029L296.73 68.5538L296.726 68.5112Z" fill="white" fill-opacity="0.2"/>
<path d="M326.146 93.5597L300.813 124.859C285.954 120.232 261.116 109.856 241.563 85.9175C236.427 79.6145 232.39 73.3215 229.226 67.4124C227.014 62.7822 224.782 57.4221 222.789 51.3417C221.033 46.0067 219.732 40.9581 218.771 36.3403C218.512 35.1019 219.396 33.8682 220.675 33.7046C225.556 33.1014 231.451 32.7563 238.067 33.2672C244.528 33.7332 250.076 34.8548 254.602 36.1073C261.076 38.2094 268.019 41.0056 275.179 44.8085C301.787 58.9442 317.585 79.5922 326.188 93.5541L326.146 93.5597Z" fill="white"/>
<path d="M248.357 34.4189C245.102 33.769 241.493 33.2283 237.542 32.9233C231.016 32.436 225.181 32.7776 220.326 33.3563C219.06 33.5183 218.185 34.7395 218.441 35.9654C219.393 40.5366 220.68 45.5342 222.418 50.8153C223.661 54.56 224.985 58.0169 226.329 61.2153C236.797 55.5238 243.898 45.4423 248.334 34.4005L248.357 34.4189Z" fill="#FF5F3C"/>
<path d="M248.357 34.4189C245.102 33.769 241.493 33.2283 237.542 32.9233C231.016 32.436 225.181 32.7776 220.326 33.3563C219.06 33.5183 218.185 34.7395 218.441 35.9654C219.393 40.5366 220.68 45.5342 222.418 50.8153C223.661 54.56 224.985 58.0169 226.329 61.2153C236.797 55.5238 243.898 45.4423 248.334 34.4005L248.357 34.4189Z" fill="white" fill-opacity="0.2"/>
<path d="M328.71 103.981L311.403 125.412C310.889 126.049 310.047 126.305 309.286 126.043L302.842 123.699L325.214 95.9965L328.878 101.782C329.315 102.445 329.224 103.344 328.71 103.981Z" fill="#6FCDDF"/>
<path opacity="0.9" d="M226.669 61.266C230.08 58.6119 236.051 54.3886 240.252 48.9523C241.766 46.985 243.112 45.039 244.277 43.1797C246.215 40.0392 247.316 37.1384 248.407 34.6764C249.587 34.9261 250.905 35.3922 252.084 35.642C250.415 39.6979 247.841 44.9599 243.325 50.6477C238.451 56.8247 231.798 62.0771 228.047 64.6905C227.612 63.7965 227.553 63.1828 227.118 62.2887L226.669 61.266Z" fill="#6FCDDF"/>
<path d="M281.235 81.927C284.567 77.8114 282.285 70.4776 276.139 65.5464C269.992 60.6151 262.309 59.9539 258.977 64.0695C255.645 68.185 257.927 75.5189 264.073 80.4501C270.22 85.3813 277.903 86.0426 281.235 81.927Z" fill="white"/>
<path d="M279.342 80.4083C282.106 76.9941 280.212 70.9089 275.111 66.8166C270.01 62.7243 263.635 62.1746 260.871 65.5888C258.107 69.003 260.001 75.0882 265.102 79.1805C270.203 83.2728 276.578 83.8225 279.342 80.4083Z" fill="#0E144C"/>
<path d="M277.605 63.5301C281.155 66.3783 283.453 70.025 284.331 73.5809C285.209 77.1356 284.66 80.5355 282.631 83.0418C280.602 85.5481 277.382 86.8037 273.706 86.7052C270.029 86.6068 265.961 85.1464 262.411 82.2982C258.86 79.45 256.563 75.8033 255.685 72.2474C254.807 68.6927 255.355 65.2928 257.384 62.7865C259.413 60.2802 262.634 59.0246 266.31 59.1231C269.987 59.2216 274.055 60.682 277.605 63.5301Z" stroke="#6FCDDF" stroke-width="2.17819"/>
<path d="M288.545 87.5248L300.233 104.306L334.949 124.129L307.475 95.8235L288.545 87.5248Z" fill="#FF5F3C"/>
<path d="M288.545 87.5248L300.233 104.306L334.949 124.129L307.475 95.8235L288.545 87.5248Z" fill="white" fill-opacity="0.2"/>
<path opacity="0.15" d="M325.265 93.2902L324.011 94.8253L327.621 100.46C328.057 101.114 327.967 102.002 327.454 102.631L321.362 110.09L333.255 122.216L318.341 113.788L310.173 123.788C309.66 124.416 308.819 124.669 308.059 124.411L301.711 122.128L300.514 123.594C300.215 123.502 299.912 123.408 299.604 123.31L299.512 129.209C299.483 129.838 299.624 130.488 299.905 131.057L307.609 147.126C307.917 147.754 307.157 148.456 306.557 148.094L287.951 137.331C287.132 136.871 286.408 136.295 285.778 135.603L272.496 120.973C271.682 120.095 271.221 118.923 271.2 117.715L271.037 110.415C261.446 104.561 251.478 96.6382 242.62 85.8932C237.601 79.7908 233.656 73.6982 230.565 67.9772C230.233 67.2886 229.901 66.5834 229.569 65.8615L229.454 65.9405C229.236 65.4987 229.113 65.1261 228.989 64.7536C228.866 64.381 228.743 64.0084 228.525 63.5666L228.076 62.5558L228.097 62.5395C226.774 59.434 225.479 56.0594 224.275 52.4181C222.558 47.2529 221.288 42.365 220.348 37.8941C220.212 37.2489 220.4 36.605 220.796 36.1232C221.137 35.7095 221.632 35.4152 222.209 35.342L222.268 35.335C226.996 34.759 232.694 34.4301 239.083 34.9094L239.202 34.9181L239.262 34.9227C243.11 35.2004 246.626 35.7137 249.786 36.3472L249.819 36.2737C250.378 36.3908 250.969 36.556 251.561 36.7236C252.898 37.0224 254.165 37.3405 255.358 37.6677C261.684 39.7028 268.468 42.4099 275.465 46.0916C286.858 52.0889 296.223 59.2972 303.857 66.6409L314.601 64.5781C315.801 64.3424 317.06 64.5373 318.102 65.1354L335.415 74.8317C336.234 75.2911 336.958 75.8668 337.587 76.559L352.202 92.21C352.688 92.7116 352.154 93.593 351.466 93.4299L333.915 89.4179C333.292 89.2675 332.618 89.2694 332.001 89.4312L324.031 91.2698C324.473 91.9558 324.898 92.6279 325.307 93.2848L325.265 93.2902Z" fill="url(#paint2_linear_1787_3425)"/>
<path d="M275.453 307.196C280.43 303.274 282.453 299.739 283.472 293.971C283.579 293.37 284.328 293.343 284.4 293.95C284.684 296.362 284.729 299.796 283.265 302.232C281.836 304.611 278.606 306.643 275.917 308.016C275.334 308.314 274.939 307.601 275.453 307.196Z" fill="#EACE9F"/>
<path d="M285.074 304.42C287.065 301.447 287.714 298.908 287.537 295.503C287.505 294.893 288.207 294.691 288.405 295.269C288.941 296.833 289.361 298.83 288.871 300.525C288.418 302.093 287.094 303.727 285.742 305.071C285.278 305.534 284.709 304.964 285.074 304.42Z" fill="#EACE9F"/>
<path d="M277.758 290.382C274.824 303.749 260.625 312.096 245.94 308.873C231.255 305.65 221.857 292.123 224.791 278.757C227.725 265.39 241.924 257.042 256.609 260.265C271.294 263.489 280.692 277.015 277.758 290.382Z" fill="white" stroke="#0F154D" stroke-width="1.48667"/>
<path d="M241.833 280L241.102 271.851C241.007 270.794 241.67 269.816 242.688 269.514L251.727 266.829C252.498 266.6 253.333 266.804 253.911 267.363L259.975 273.222C260.744 273.966 260.877 275.15 260.292 276.046L255.457 283.444C254.935 284.242 253.964 284.62 253.041 284.385L243.505 281.961C242.588 281.728 241.918 280.942 241.833 280Z" fill="#0E144C"/>
<path d="M251.358 304.446C252.372 306.014 253.283 307.26 254.632 308.902C255.149 309.532 255.976 309.817 256.776 309.658L256.8 309.653C260.547 308.909 263.242 308.373 266.723 306.037C267.223 305.701 267.549 305.162 267.619 304.564C267.872 302.42 267.873 300.582 267.872 298.33C267.872 297.278 267.141 296.364 266.113 296.139L259.578 294.705C258.767 294.526 257.923 294.816 257.387 295.451C255.388 297.813 253.886 299.472 251.676 301.685C250.94 302.422 250.793 303.571 251.358 304.446Z" fill="#0E144C"/>
<path d="M275.552 287.527L275.979 287.62C277.321 287.915 278.621 286.936 278.602 285.563C278.54 280.913 277.382 277.359 273.803 271.476C273.603 271.147 273.274 270.913 272.898 270.831C272.105 270.657 271.331 271.18 271.184 271.978C270.958 273.211 270.735 274.247 270.354 275.671C270.22 276.171 270.257 276.703 270.465 277.177C272.019 280.72 272.912 282.964 273.892 286.008C274.138 286.772 274.768 287.355 275.552 287.527Z" fill="#0E144C"/>
<path d="M255.172 261.582L254.972 261.579C254.776 261.577 254.583 261.52 254.417 261.414C253.521 260.845 253.931 259.53 254.982 259.675C255.155 259.699 255.325 259.725 255.493 259.752C256.817 259.969 256.514 261.598 255.172 261.582Z" fill="#0E144C"/>
<path d="M226.044 276.392C228.727 273.172 230.346 271.375 233.108 268.637C233.281 268.465 233.402 268.247 233.454 268.008C233.703 266.876 232.436 266.058 231.556 266.812C228.521 269.412 226.936 271.858 225.226 275.899C225.109 276.176 225.273 276.491 225.567 276.556C225.744 276.595 225.928 276.531 226.044 276.392Z" fill="#0E144C"/>
<path d="M226.807 289.359C226.63 291.288 226.72 293.021 226.75 295.363C226.756 295.831 226.905 296.288 227.183 296.663C228.776 298.814 229.817 300.001 232.379 302.557C233.109 303.285 234.248 303.414 235.138 302.895C235.937 302.429 236.647 302.007 237.484 301.357C238.219 300.788 238.434 299.788 238.102 298.92C236.797 295.5 236.206 293.333 235.765 290.681C235.606 289.726 234.873 288.966 233.924 288.775C232.261 288.44 230.991 288.098 229.626 287.654C228.332 287.233 226.932 288.005 226.807 289.359Z" fill="#0E144C"/>
<ellipse cx="251.275" cy="284.569" rx="27.8574" ry="25.6258" transform="rotate(12.3793 251.275 284.569)" fill="url(#paint3_radial_1787_3425)"/>
<g style="mix-blend-mode:overlay" opacity="0.8">
<path d="M347.423 140.656C347.016 144.048 348.823 147.195 351.706 148.65L350.879 155.532L350.256 155.457C348.981 155.304 347.811 156.1 347.454 157.29L325.395 154.641C321.613 154.187 318.179 156.885 317.725 160.667L315.571 178.598C310.2 179.29 305.776 183.548 305.101 189.17C304.426 194.793 307.717 199.978 312.772 201.921L311.386 213.459C311.048 213.409 310.71 213.36 310.372 213.312C303.328 212.299 296.645 211.605 289.817 212.187C275.667 213.393 262.673 219.907 243.65 235.016L254.143 248.227C272.287 233.816 282.071 229.779 291.25 228.997C296.086 228.584 301.206 229.037 307.97 230.01C310.069 230.312 312.364 230.671 314.842 231.058C317.437 231.464 320.234 231.901 323.219 232.337L318.282 273.452L318.331 273.458C318.231 275.41 318.405 277.322 318.824 279.151C316.823 280.316 314.58 281.717 312.29 283.328C308.619 285.91 304.718 289.107 301.482 292.826C298.262 296.528 295.505 300.973 294.499 306.042C292.286 317.195 295.904 327.014 299.795 333.795C301.755 337.211 303.839 339.958 305.438 341.856C306.239 342.809 306.925 343.555 307.422 344.075C307.67 344.334 307.872 344.538 308.018 344.682C308.091 344.754 308.15 344.812 308.194 344.854C308.216 344.876 308.234 344.893 308.248 344.907L308.274 344.931L308.276 344.934C308.278 344.935 308.279 344.936 311.357 341.672L308.279 344.936C310.082 346.636 312.922 346.553 314.622 344.75C316.32 342.949 316.239 340.115 314.442 338.414L314.428 338.4C314.419 338.391 314.406 338.379 314.389 338.362C314.374 338.347 314.355 338.328 314.333 338.306C314.241 338.216 314.097 338.07 313.907 337.872C313.527 337.475 312.969 336.869 312.303 336.077C310.964 334.487 309.213 332.179 307.578 329.329C304.279 323.578 301.668 316.019 303.301 307.789C303.897 304.784 305.634 301.727 308.253 298.716C310.856 295.724 314.139 292.999 317.453 290.668C319.262 289.395 321.048 288.262 322.689 287.288C325.981 291.521 330.898 294.489 336.642 295.179C339.445 295.515 342.185 295.278 344.744 294.56C344.683 298.749 344.525 303.792 344.183 309.409C343.193 325.655 340.673 346.485 334.625 365.297C333.867 367.656 335.165 370.183 337.524 370.942C339.883 371.7 342.41 370.403 343.168 368.043C349.542 348.217 352.129 326.548 353.14 309.955C353.647 301.634 353.761 294.535 353.748 289.509L353.748 289.328C356.67 286.448 358.763 282.69 359.575 278.41L359.623 278.416L359.779 277.122L359.787 277.051L359.795 276.99C359.8 276.946 359.805 276.902 359.81 276.858L364.558 237.317C366.297 237.484 367.974 237.637 369.584 237.784L370.182 237.838C374.206 238.203 377.73 238.523 380.925 238.919C387.845 239.778 391.84 240.87 394.354 242.453C396.29 243.672 397.979 245.57 398.967 250.28C400.045 255.423 400.123 263.291 398.656 275.51L415.406 277.521C416.934 264.793 417.134 254.713 415.478 246.818C413.732 238.49 409.832 232.262 403.342 228.176C397.43 224.454 390.163 223.065 383.002 222.177C382.302 222.09 381.59 222.007 380.867 221.926L382.272 210.224C387.568 209.466 391.908 205.238 392.576 199.674C393.245 194.109 390.028 188.974 385.062 186.984L387.22 169.011C387.675 165.229 384.977 161.795 381.195 161.341L359.138 158.693C359.073 157.453 358.125 156.402 356.849 156.249L356.225 156.174L357.051 149.291C360.197 148.56 362.697 145.93 363.104 142.539C363.624 138.209 360.535 134.277 356.205 133.757C351.875 133.237 347.943 136.326 347.423 140.656Z" fill="url(#paint4_linear_1787_3425)"/>
</g>
<circle r="20.8189" transform="matrix(-0.992869 -0.119213 -0.119213 0.992869 337.545 274.214)" fill="#7D8E9E"/>
<path d="M363.479 232.861C364.85 221.445 356.706 211.079 345.29 209.708V209.708C333.875 208.338 323.509 216.481 322.138 227.897L316.704 273.158L358.045 278.122L363.479 232.861Z" fill="#AABFD0"/>
<path d="M326.327 274.313L348.423 276.967L354.606 225.469L332.51 222.816L326.327 274.313Z" fill="#3A4D5C"/>
<circle r="11.1274" transform="matrix(-0.992869 -0.119213 -0.119213 0.992869 343.472 224.855)" fill="#3A4D5C"/>
<path d="M326.328 274.313L348.424 276.967L354.607 225.469L332.511 222.816L326.328 274.313Z" fill="#3A4D5C"/>
<path d="M341.376 242.318L338.199 247.45L332.163 247.457L336.063 252.064L334.204 257.807L339.791 255.522L344.678 259.064L344.231 253.045L349.11 249.492L343.248 248.056L341.376 242.318Z" fill="#C9DB53"/>
<path fill-rule="evenodd" clip-rule="evenodd" d="M397.388 249.986C398.467 255.13 398.544 262.998 397.077 275.216L413.827 277.228C415.356 264.499 415.555 254.419 413.9 246.524C412.153 238.196 408.253 231.968 401.763 227.882C395.852 224.161 388.584 222.771 381.423 221.883C377.943 221.451 374.158 221.108 370.237 220.752C370.002 220.731 369.767 220.71 369.531 220.688C365.308 220.305 360.842 219.892 356.051 219.317L354.04 236.067C359.098 236.675 363.781 237.106 368.005 237.49C368.206 237.508 368.405 237.526 368.603 237.544C372.628 237.909 376.152 238.229 379.346 238.625C386.266 239.484 390.261 240.576 392.775 242.159C394.711 243.378 396.401 245.276 397.388 249.986Z" fill="#AABFD0"/>
<mask id="mask1_1787_3425" style="mask-type:alpha" maskUnits="userSpaceOnUse" x="354" y="219" width="62" height="59">
<path fill-rule="evenodd" clip-rule="evenodd" d="M397.388 249.986C398.467 255.13 398.544 262.998 397.077 275.217L413.827 277.228C415.356 264.499 415.555 254.419 413.9 246.524C412.153 238.197 408.253 231.968 401.763 227.882C395.852 224.161 388.584 222.772 381.423 221.883C377.943 221.451 374.158 221.108 370.237 220.753C370.002 220.731 369.767 220.71 369.531 220.689C365.308 220.305 360.842 219.892 356.051 219.317L354.04 236.067C359.098 236.675 363.781 237.106 368.005 237.49C368.206 237.508 368.405 237.526 368.603 237.544C372.628 237.909 376.152 238.229 379.346 238.625C386.266 239.484 390.261 240.576 392.775 242.159C394.711 243.378 396.401 245.276 397.388 249.986Z" fill="#AABFD0"/>
</mask>
<g mask="url(#mask1_1787_3425)">
<line y1="-0.94831" x2="20.8869" y2="-0.94831" transform="matrix(-0.977375 0.211513 0.211513 0.977375 414.613 246.592)" stroke="#7D8E9E" stroke-width="1.89662"/>
<line y1="-0.94831" x2="22.4026" y2="-0.94831" transform="matrix(-0.57435 0.81861 0.81861 0.57435 404.493 225.493)" stroke="#7D8E9E" stroke-width="1.89662"/>
<line y1="-0.94831" x2="20.6523" y2="-0.94831" transform="matrix(-0.154274 0.988028 0.988028 0.154274 384.101 220.695)" stroke="#7D8E9E" stroke-width="1.89662"/>
</g>
<path fill-rule="evenodd" clip-rule="evenodd" d="M397.077 275.217C397.943 268.003 398.271 262.305 398.172 257.79L415.056 258.576C415.105 264.045 414.667 270.237 413.827 277.228L397.077 275.217Z" fill="#7D8E9E"/>
<path fill-rule="evenodd" clip-rule="evenodd" d="M289.671 228.703C280.492 229.485 270.708 233.522 252.564 247.933L242.071 234.723C261.094 219.613 274.088 213.099 288.238 211.893C295.066 211.311 301.749 212.005 308.793 213.018C311.256 213.372 313.733 213.76 316.31 214.163C321.359 214.954 326.792 215.804 333.251 216.579L331.24 233.33C324.508 232.521 318.479 231.579 313.263 230.764C310.785 230.377 308.49 230.018 306.391 229.716C299.627 228.744 294.507 228.291 289.671 228.703Z" fill="#AABFD0"/>
<mask id="mask2_1787_3425" style="mask-type:alpha" maskUnits="userSpaceOnUse" x="242" y="211" width="92" height="37">
<path fill-rule="evenodd" clip-rule="evenodd" d="M289.669 228.703C280.49 229.485 270.706 233.522 252.563 247.933L242.07 234.723C261.093 219.613 274.086 213.099 288.237 211.893C295.065 211.311 301.747 212.005 308.791 213.018C311.254 213.372 313.731 213.76 316.308 214.163C321.358 214.954 326.79 215.804 333.25 216.579L331.239 233.33C324.507 232.521 318.477 231.579 313.261 230.764C310.783 230.377 308.489 230.018 306.39 229.716C299.625 228.744 294.506 228.291 289.669 228.703Z" fill="#AABFD0"/>
</mask>
<g mask="url(#mask2_1787_3425)">
<line y1="-0.94831" x2="18.4369" y2="-0.94831" transform="matrix(-0.410126 -0.912029 -0.912029 0.410126 278.215 232.384)" stroke="#7D8E9E" stroke-width="1.89662"/>
<line y1="-0.94831" x2="19.2179" y2="-0.94831" transform="matrix(-0.0778201 -0.996967 -0.996967 0.0778201 289.085 229.171)" stroke="#7D8E9E" stroke-width="1.89662"/>
<line y1="-0.94831" x2="19.7421" y2="-0.94831" transform="matrix(0.119213 -0.992869 -0.992869 -0.119213 301.759 230.512)" stroke="#7D8E9E" stroke-width="1.89662"/>
</g>
<path fill-rule="evenodd" clip-rule="evenodd" d="M252.564 247.933C259.01 242.813 264.401 239.002 269.085 236.182L260.917 221.408C255.209 224.799 249.046 229.183 242.071 234.723L252.564 247.933Z" fill="#7D8E9E"/>
<path fill-rule="evenodd" clip-rule="evenodd" d="M342.604 309.115C341.614 325.362 339.094 346.192 333.046 365.003C332.288 367.362 333.586 369.89 335.945 370.648C338.304 371.406 340.831 370.109 341.59 367.75C347.963 347.923 350.55 326.254 351.561 309.661C352.068 301.34 352.182 294.241 352.169 289.215C352.163 286.701 352.124 284.702 352.087 283.326C352.069 282.638 352.051 282.105 352.037 281.74C352.03 281.558 352.024 281.418 352.02 281.322C352.018 281.274 352.017 281.236 352.015 281.21L352.014 281.168C352.013 281.167 352.013 281.166 347.532 281.379L352.013 281.166C351.896 278.691 349.794 276.779 347.318 276.897C344.843 277.015 342.932 279.117 343.05 281.592L343.05 281.592L343.05 281.592L343.05 281.596L343.051 281.615C343.052 281.634 343.053 281.664 343.055 281.705C343.058 281.786 343.063 281.911 343.07 282.078C343.082 282.411 343.099 282.912 343.117 283.567C343.152 284.877 343.189 286.802 343.196 289.238C343.208 294.111 343.098 301.017 342.604 309.115Z" fill="#7D8E9E"/>
<path fill-rule="evenodd" clip-rule="evenodd" d="M330.968 277.092C329.971 274.823 327.323 273.793 325.055 274.79L326.86 278.897C325.055 274.79 325.054 274.79 325.053 274.791L325.042 274.795L325.02 274.805C325.003 274.813 324.978 274.824 324.948 274.837C324.888 274.864 324.803 274.903 324.695 274.952C324.479 275.051 324.171 275.194 323.783 275.38C323.008 275.751 321.912 276.294 320.591 276.996C317.958 278.394 314.397 280.442 310.711 283.034C307.04 285.616 303.139 288.813 299.903 292.533C296.683 296.234 293.926 300.679 292.92 305.749C290.707 316.901 294.326 326.72 298.216 333.501C300.176 336.918 302.261 339.664 303.859 341.563C304.66 342.515 305.346 343.262 305.843 343.781C306.091 344.041 306.293 344.244 306.439 344.388C306.512 344.461 306.571 344.518 306.615 344.561C306.637 344.582 306.655 344.599 306.669 344.613L306.688 344.63L306.695 344.637L306.698 344.64C306.699 344.641 306.7 344.642 309.778 341.378L306.7 344.642C308.503 346.342 311.343 346.259 313.043 344.456C314.741 342.656 314.66 339.821 312.864 338.12C312.862 338.118 312.857 338.114 312.849 338.106C312.831 338.089 312.799 338.058 312.754 338.013C312.662 337.922 312.518 337.777 312.328 337.578C311.948 337.181 311.39 336.575 310.724 335.783C309.385 334.193 307.635 331.885 306 329.036C302.7 323.284 300.089 315.725 301.722 307.495C302.319 304.491 304.055 301.433 306.674 298.422C309.277 295.43 312.56 292.705 315.874 290.374C319.172 288.054 322.395 286.198 324.8 284.921C325.998 284.285 326.984 283.797 327.662 283.472C328 283.31 328.261 283.189 328.433 283.11C328.518 283.071 328.582 283.042 328.621 283.025C328.641 283.016 328.655 283.01 328.662 283.006L328.666 283.005C328.666 283.004 328.667 283.004 328.668 283.004C328.668 283.004 328.668 283.004 328.668 283.004C330.935 282.006 331.965 279.359 330.968 277.092Z" fill="#7D8E9E"/>
<path fill-rule="evenodd" clip-rule="evenodd" d="M352.016 281.229C352.017 281.238 352.017 281.247 352.018 281.258C352.018 281.268 352.019 281.28 352.019 281.292C352.018 281.267 352.017 281.246 352.016 281.229ZM333.046 365.003C333.993 362.06 334.852 359.068 335.633 356.051L344.26 358.533C343.453 361.632 342.566 364.712 341.59 367.75C340.831 370.109 338.304 371.406 335.945 370.648C333.586 369.89 332.288 367.362 333.046 365.003Z" fill="#5B6571"/>
<path fill-rule="evenodd" clip-rule="evenodd" d="M303.859 341.563C302.966 340.502 301.921 339.176 300.83 337.617L307.349 331.238C308.557 333.088 309.749 334.626 310.724 335.783C311.39 336.575 311.948 337.181 312.328 337.578C312.518 337.777 312.662 337.922 312.754 338.013C312.799 338.058 312.831 338.089 312.849 338.106C312.857 338.114 312.862 338.118 312.864 338.12C314.66 339.821 314.741 342.656 313.043 344.456C311.343 346.259 308.503 346.342 306.7 344.642L309.778 341.378C306.7 344.642 306.699 344.641 306.698 344.64L306.695 344.637L306.688 344.631L306.669 344.613C306.655 344.599 306.637 344.582 306.615 344.561C306.571 344.518 306.512 344.461 306.439 344.389C306.293 344.244 306.091 344.041 305.843 343.781C305.346 343.262 304.66 342.515 303.859 341.563Z" fill="#5B6571"/>
<circle r="12.1145" transform="matrix(-0.992869 -0.119213 -0.119213 0.992869 378.97 197.936)" fill="#5B6571"/>
<circle r="12.1145" transform="matrix(-0.992869 -0.119213 -0.119213 0.992869 315.55 190.321)" fill="#5B6571"/>
<path d="M385.629 168.819L316.133 160.474L312.863 187.713C310.592 206.622 324.081 223.792 342.99 226.062L344.009 226.185C362.919 228.455 380.088 214.967 382.358 196.057L385.629 168.819Z" fill="#7D8E9E"/>
<path d="M309.575 215.104C309.121 218.886 311.818 222.32 315.6 222.774L371.4 229.474C375.182 229.928 378.616 227.23 379.07 223.448L385.642 168.717C386.096 164.935 383.398 161.501 379.616 161.047L323.816 154.347C320.034 153.893 316.6 156.591 316.146 160.373L309.575 215.104Z" fill="#7D8E9E"/>
<path d="M315.622 164.743L385.118 173.088L385.716 168.106L316.22 159.762L315.622 164.743Z" fill="#6FCDDF"/>
<path d="M315.064 169.393L384.559 177.737L385.158 172.756L315.662 164.411L315.064 169.393Z" fill="#F5F6E8"/>
<path d="M314.465 174.374L383.961 182.718L384.559 177.737L315.063 169.392L314.465 174.374Z" fill="#F74CAD"/>
<rect width="18.8447" height="6.99946" rx="3.49973" transform="matrix(-0.992869 -0.119213 -0.119213 0.992869 354.543 212.446)" fill="#F5F6E8"/>
<rect width="18.8447" height="0.897367" transform="matrix(-0.992869 -0.119213 -0.119213 0.992869 354.158 215.653)" fill="#3A4D5C"/>
<rect width="0.897367" height="6.99946" transform="matrix(-0.992869 -0.119213 -0.119213 0.992869 348.663 211.74)" fill="#3A4D5C"/>
<rect width="0.897367" height="6.99946" transform="matrix(-0.992869 -0.119213 -0.119213 0.992869 341.714 210.906)" fill="#3A4D5C"/>
<ellipse rx="4.58731" ry="3.94842" transform="matrix(-0.992869 -0.119213 -0.119213 0.992869 325.504 212.755)" fill="#EF937E"/>
<ellipse rx="4.58731" ry="3.94842" transform="matrix(-0.992869 -0.119213 -0.119213 0.992869 364.15 217.396)" fill="#EF937E"/>
<path d="M349.923 194.177C349.103 201.003 353.983 207.208 360.83 208.03C367.677 208.852 373.888 203.979 374.707 197.153C375.527 190.327 370.647 184.122 363.8 183.299C356.953 182.477 350.743 187.351 349.923 194.177Z" fill="white" stroke="#1D5C87" stroke-width="3.4484"/>
<path d="M319.862 190.567C319.042 197.393 323.922 203.598 330.769 204.421C337.616 205.243 343.827 200.369 344.646 193.543C345.466 186.717 340.586 180.512 333.739 179.69C326.892 178.868 320.682 183.741 319.862 190.567Z" fill="white" stroke="#1D5C87" stroke-width="3.4484"/>
<rect x="332.776" y="190.491" width="3.08702" height="3.41" rx="1.54351" transform="rotate(6.84666 332.776 190.491)" fill="#0F2437"/>
<rect width="3.08702" height="3.41" rx="1.54351" transform="matrix(-0.992869 -0.119213 -0.119213 0.992869 362.179 194.021)" fill="#0F2437"/>
<rect width="5.3842" height="23.7457" transform="matrix(-0.992869 -0.119213 -0.119213 0.992869 357 136.279)" fill="#AABFD0"/>
<circle r="7.89683" transform="matrix(-0.992869 -0.119213 -0.119213 0.992869 353.685 141.304)" fill="#F74CAD"/>
<rect width="5.20473" height="11.8452" rx="2.60237" transform="matrix(-0.119213 0.992869 0.992869 0.119213 346.094 154.853)" fill="#7D8E9E"/>
<rect width="5.27432" height="8.07631" transform="matrix(-0.992869 -0.119213 -0.119213 0.992869 363.396 192.902)" fill="#143441"/>
<rect width="5.27432" height="8.07631" transform="matrix(-0.992869 -0.119213 -0.119213 0.992869 337.559 189.8)" fill="#143441"/>
</g>
<defs>
<linearGradient id="paint0_linear_1787_3425" x1="378.18" y1="-41.7268" x2="488.193" y2="73.4899" gradientUnits="userSpaceOnUse">
<stop stop-color="#151450" stop-opacity="0.38"/>
<stop offset="0.755208" stop-color="#38004A"/>
</linearGradient>
<linearGradient id="paint1_linear_1787_3425" x1="304.584" y1="90.1816" x2="323.158" y2="425.757" gradientUnits="userSpaceOnUse">
<stop stop-color="#FFF59C"/>
<stop offset="1" stop-color="#EFB450" stop-opacity="0"/>
</linearGradient>
<linearGradient id="paint2_linear_1787_3425" x1="240.064" y1="34.5216" x2="327.394" y2="115.311" gradientUnits="userSpaceOnUse">
<stop offset="0.25" stop-color="#402F76" stop-opacity="0.8"/>
<stop offset="1" stop-color="#EFB450"/>
</linearGradient>
<radialGradient id="paint3_radial_1787_3425" cx="0" cy="0" r="1" gradientUnits="userSpaceOnUse" gradientTransform="translate(248.689 273.749) rotate(69.6511) scale(37.5291 40.7973)">
<stop stop-color="white" stop-opacity="0"/>
<stop offset="0.833333" stop-color="#1C3064" stop-opacity="0.2"/>
<stop offset="0.973958" stop-color="#FDC76C" stop-opacity="0.34"/>
</radialGradient>
<linearGradient id="paint4_linear_1787_3425" x1="330.144" y1="133.7" x2="330.144" y2="371.158" gradientUnits="userSpaceOnUse">
<stop stop-color="#FFE4BB"/>
<stop offset="1" stop-color="#EFB450"/>
</linearGradient>
<clipPath id="clip0_1787_3425">
<rect width="468" height="380" fill="white"/>
</clipPath>
</defs>
</svg>
