<svg width="1440" height="550" viewBox="0 0 1440 550" fill="none" xmlns="http://www.w3.org/2000/svg">
<g clip-path="url(#clip0_1279_1205)">
<rect width="1440" height="600" fill="#F6F6F6"/>
<path d="M1220.06 180.846C1041.11 143.029 950.582 -24.9771 1184.99 -58.1598C1419.4 -91.3425 1414.79 -29.9634 1414.79 -29.9634C1414.79 -29.9634 1684.78 469.032 1474 526C1437 536 1304.96 476.737 1261.98 376.368C1219 276 1399 218.663 1220.06 180.846Z" fill="#F2BE6A"/>
<path d="M369.474 465.403C316.867 465.403 287.18 516.865 241.792 491.409C143 436 203 336 74.5627 315.362C-64.5861 293.002 -39.5521 407.58 -47.4696 491.409C-60.1559 625.728 -178.79 757.531 -55.3791 836.484C15.0259 881.526 78.1388 860.896 164.957 863.489C322.077 868.183 562.692 808.477 562.692 808.477C562.692 808.477 718.622 770.469 728.791 708.456C735.836 665.499 711.842 617.436 663.255 630.439C571.761 654.925 452.181 760.526 424.841 679.45C408.058 629.682 477.947 616.436 477.947 566.425C477.947 514.315 420.321 465.403 369.474 465.403Z" fill="#B3DDDB"/>
<path d="M126.234 136.155C84.7616 136.155 80.4713 212 37.5688 212C-119.712 212 -212.215 56.3635 126.234 -59.8959C259.544 -105.689 545.249 -77.0683 672.526 -4.08575C725.884 26.5102 620.103 108.966 543.819 108.966C458.014 108.966 468.024 77.5372 393.66 87.5002C332.411 95.706 320.977 149.362 259.544 156.299C198.111 163.237 167.707 136.155 126.234 136.155Z" fill="#F87269"/>
<ellipse opacity="0.3" cx="358.113" cy="153.527" rx="23.5" ry="22.5" transform="rotate(135 358.113 153.527)" fill="#F2BE6A"/>
<ellipse opacity="0.3" cx="304.373" cy="180.398" rx="14.5" ry="15.5" transform="rotate(74.8268 304.373 180.398)" fill="#F2BE6A"/>
<ellipse opacity="0.3" cx="255.229" cy="189.236" rx="8.5" ry="9" transform="rotate(119.016 255.229 189.236)" fill="#F2BE6A"/>
<ellipse rx="27.5" ry="26" transform="matrix(-0.207476 0.97824 0.97824 0.207476 1216.14 275.296)" fill="#F6D3D1"/>
<ellipse opacity="0.3" cx="1105.04" cy="385.165" rx="14.6246" ry="13.5" transform="rotate(11.5996 1105.04 385.165)" fill="#F2BE6A"/>
<circle opacity="0.3" cx="932.5" cy="521.5" r="7.5" fill="#B3DDDB"/>
<ellipse opacity="0.3" rx="17.5" ry="16" transform="matrix(-1 0 0 1 192.5 359)" fill="#B3DDDB"/>
<ellipse opacity="0.3" rx="9.86274" ry="8.66726" transform="matrix(-0.957982 -0.286829 -0.286829 0.957982 606.934 134.132)" fill="#B3DDDB"/>
<ellipse opacity="0.3" rx="9.86274" ry="8.66726" transform="matrix(-0.957982 -0.286829 -0.286829 0.957982 424.934 456.132)" fill="#F87269"/>
<ellipse rx="17.5" ry="19" transform="matrix(-0.207476 0.97824 0.97824 0.207476 1215.22 337.061)" fill="#F6D3D1"/>
<ellipse rx="14" ry="12.5" transform="matrix(-0.207476 0.97824 0.97824 0.207476 1230.13 381.289)" fill="#F6D3D1"/>
<ellipse opacity="0.3" rx="5.94" ry="7.93928" transform="matrix(0.0527807 0.998606 0.998606 -0.0527807 224.242 186.937)" fill="#F2BE6A"/>
<path d="M1118.48 219.295C1121.25 222.463 1138.71 214.225 1139.89 209.084C1141.28 203.098 1128.8 200.282 1123.32 203.098C1116.54 206.586 1115.72 216.126 1118.48 219.295Z" fill="#E8E8E8"/>
<path d="M1267.41 485.62C1269.57 483.559 1280.99 490.819 1281.4 494.601C1281.87 499.003 1273.02 500.063 1269.46 497.619C1265.05 494.593 1265.25 487.682 1267.41 485.62Z" fill="#E8E8E8"/>
<path d="M700.995 120.76C700.148 117.894 711.817 111.053 715.368 112.415C719.503 114.002 716.404 122.362 712.604 124.416C707.899 126.958 701.841 123.626 700.995 120.76Z" fill="#E8E8E8"/>
<path d="M-17 135.244C-17 135.244 83.8934 180.299 134.657 180.992C231.328 182.309 236.635 29.7271 333.156 23.8575C422.302 18.4364 447.657 146.342 536.336 135.244C618.126 125.007 703 -2 703 -2" stroke="#4D4761" stroke-width="2"/>
<path d="M1440 576C1440 576 1323.09 495.841 1340.49 432.698C1350.21 397.431 1390.64 391.563 1404.62 357.325C1430.72 293.389 1323.54 250.33 1357.07 188.898C1432.26 51.1793 1078.44 176.801 1032 0" stroke="#4D4761" stroke-width="2"/>
<path d="M-42 314.197C-2.459 299.023 75 286 114.218 315.752C170.459 358.417 125.024 394.277 169.765 448.925C221.537 512.162 296.098 470.75 372.79 498.77C444.053 524.807 471.753 591.635 547.58 589.642C607.337 588.071 629.162 525.677 688.756 530.366C764.896 536.357 838 657 838 657" stroke="#4D4761" stroke-width="2"/>
<g opacity="0.6">
<mask id="mask0_1279_1205" style="mask-type:alpha" maskUnits="userSpaceOnUse" x="966" y="-98" width="245" height="274">
<rect x="1206" y="-98" width="5" height="274" fill="white"/>
<rect x="1206" y="-98" width="5" height="274" fill="white"/>
<rect x="1190" y="-98" width="5" height="274" fill="white"/>
<rect x="1190" y="-98" width="5" height="274" fill="white"/>
<rect x="1174" y="-98" width="5" height="274" fill="white"/>
<rect x="1174" y="-98" width="5" height="274" fill="white"/>
<rect x="1158" y="-98" width="5" height="274" fill="white"/>
<rect x="1158" y="-98" width="5" height="274" fill="white"/>
<rect x="1142" y="-98" width="5" height="274" fill="white"/>
<rect x="1142" y="-98" width="5" height="274" fill="white"/>
<rect x="1126" y="-98" width="5" height="274" fill="white"/>
<rect x="1126" y="-98" width="5" height="274" fill="white"/>
<rect x="1110" y="-98" width="5" height="274" fill="white"/>
<rect x="1110" y="-98" width="5" height="274" fill="white"/>
<rect x="1094" y="-98" width="5" height="274" fill="white"/>
<rect x="1094" y="-98" width="5" height="274" fill="white"/>
<rect x="1078" y="-98" width="5" height="274" fill="white"/>
<rect x="1078" y="-98" width="5" height="274" fill="white"/>
<rect x="1062" y="-98" width="5" height="274" fill="white"/>
<rect x="1062" y="-98" width="5" height="274" fill="white"/>
<rect x="1046" y="-98" width="5" height="274" fill="white"/>
<rect x="1046" y="-98" width="5" height="274" fill="white"/>
<rect x="1030" y="-98" width="5" height="274" fill="white"/>
<rect x="1030" y="-98" width="5" height="274" fill="white"/>
<rect x="1014" y="-98" width="5" height="274" fill="white"/>
<rect x="1014" y="-98" width="5" height="274" fill="white"/>
<rect x="998" y="-98" width="5" height="274" fill="white"/>
<rect x="998" y="-98" width="5" height="274" fill="white"/>
<rect x="982" y="-98" width="5" height="274" fill="white"/>
<rect x="982" y="-98" width="5" height="274" fill="white"/>
<rect x="966" y="-98" width="5" height="274" fill="white"/>
<rect x="966" y="-98" width="5" height="274" fill="white"/>
</mask>
<g mask="url(#mask0_1279_1205)">
<circle cx="1089.5" cy="38.5" r="127.5" fill="white"/>
<circle cx="1089.5" cy="38.5" r="127.5" fill="white"/>
</g>
</g>
<g opacity="0.3">
<ellipse cx="128.005" cy="552.87" rx="9.66757" ry="5.91249" transform="rotate(27.6882 128.005 552.87)" fill="#F87269"/>
<ellipse cx="155.284" cy="539.523" rx="8.28649" ry="5.06785" transform="rotate(27.6882 155.284 539.523)" fill="#F87269"/>
<ellipse cx="61.6021" cy="495.132" rx="6.90541" ry="4.22321" transform="rotate(27.6882 61.6021 495.132)" fill="#F87269"/>
<ellipse cx="82.4091" cy="532.76" rx="6.90541" ry="4.22321" transform="rotate(27.6882 82.4091 532.76)" fill="#F87269"/>
<ellipse cx="111.259" cy="516.421" rx="8.28649" ry="5.06785" transform="rotate(27.6882 111.259 516.421)" fill="#F87269"/>
<ellipse cx="69.7355" cy="446.938" rx="8.28649" ry="5.06785" transform="rotate(27.6882 69.7355 446.938)" fill="#F87269"/>
<ellipse cx="13.7428" cy="485.28" rx="6.90541" ry="4.22321" transform="rotate(27.6882 13.7428 485.28)" fill="#F87269"/>
<ellipse cx="31.2733" cy="520.234" rx="8.28649" ry="5.06785" transform="rotate(27.6882 31.2733 520.234)" fill="#F87269"/>
<ellipse cx="30.2721" cy="456.753" rx="8.28649" ry="5.06785" transform="rotate(27.6882 30.2721 456.753)" fill="#F87269"/>
<ellipse cx="72.5456" cy="471.305" rx="8.28649" ry="5.06785" transform="rotate(27.6882 72.5456 471.305)" fill="#F87269"/>
<ellipse cx="117.22" cy="484.255" rx="9.66757" ry="5.91249" transform="rotate(27.6882 117.22 484.255)" fill="#F87269"/>
<ellipse cx="102.089" cy="447.7" rx="9.66757" ry="5.91249" transform="rotate(27.6882 102.089 447.7)" fill="#F87269"/>
<ellipse cx="155.022" cy="471.661" rx="6.90541" ry="4.22321" transform="rotate(27.6882 155.022 471.661)" fill="#F87269"/>
<ellipse cx="189.538" cy="506.942" rx="6.90541" ry="4.22321" transform="rotate(27.6882 189.538 506.942)" fill="#F87269"/>
<ellipse cx="197.285" cy="536.762" rx="8.28649" ry="5.06785" transform="rotate(27.6882 197.285 536.762)" fill="#F87269"/>
<ellipse cx="147.492" cy="506.817" rx="8.28649" ry="5.06785" transform="rotate(27.6882 147.492 506.817)" fill="#F87269"/>
<ellipse cx="2.07699" cy="525.948" rx="6.90541" ry="4.22321" transform="rotate(27.6882 2.07699 525.948)" fill="#F87269"/>
</g>
<path d="M203.543 237.177C205.849 234.87 209.59 234.87 211.896 237.177L214.533 239.814C217.708 242.988 215.492 245.373 211.564 245.928C209.89 246.165 208.222 246.674 206.978 247.819C205.734 248.963 203.99 249.712 202.507 248.9C199.267 247.127 198.243 242.477 201.185 239.534L203.543 237.177Z" fill="#E8E8E8"/>
<path opacity="0.3" d="M315.407 388.724C313.527 379.32 310.557 363.395 308.842 348.811L360.357 348.811C361.067 355.925 363.049 378.065 364.784 396.159C365.714 405.867 363.916 412.928 353.942 413.811C347.476 413.811 342.233 408.871 342.233 402.778C342.233 396.685 347.476 391.745 353.942 391.745C355.737 391.745 357.437 392.126 358.957 392.806L353.509 362.619H317.126L320.55 392.806C322.239 405.781 314.479 409.398 309.709 409.398C303.242 409.398 298 404.458 298 398.365C298 392.272 303.242 387.332 309.709 387.332C311.777 387.332 313.72 387.838 315.407 388.724Z" fill="#B3DDDB"/>
<path opacity="0.3" d="M268.177 345.479L242.767 287.933L283.032 281L289.934 300.065L260.599 297.176C266.199 315.736 280.626 347.878 279.453 359.612C278.579 368.346 270.458 376.207 259.363 376.207C249.318 376.207 241.021 369.168 241.021 360.485C240.584 352.187 247.135 342.142 257.616 342.142C262.857 342.142 265.914 343.889 268.177 345.479Z" fill="#F2BE6A"/>
<g opacity="0.3">
<path d="M1200.74 407.052C1162.5 485.292 1105.5 469.292 1105.5 469.292C1105.5 476.792 1104 482.792 1098.5 489.292C1098.5 489.292 1162 503.792 1200.74 407.052Z" fill="#F87269"/>
</g>
<g opacity="0.3">
<path d="M1025.44 447.182L1022.94 424.216L1046.8 416.629L1063.7 432.354L1050.7 453.095L1025.44 447.182Z" fill="#F87269"/>
<path d="M1043.07 489.461C1046.52 494.828 1048.75 497.838 1053.44 503.185C1062.89 501.07 1068.82 500.249 1077.23 493.916C1078.03 487.65 1077.74 482.995 1077.65 476.013L1058.39 472.169C1052.84 479.075 1049.53 482.882 1043.07 489.461Z" fill="#F87269"/>
<path d="M1090.07 457.272L1098.59 458.973C1099.05 446.556 1097.1 439.156 1087.87 424.828L1083.78 424.011C1083.09 428.493 1082.67 431.029 1081.41 435.887C1085.51 444.716 1087.5 449.461 1090.07 457.272Z" fill="#F87269"/>
<path d="M1050 406.831L1043.2 402.692C1052.07 402.6 1056.57 403.888 1064.33 406.91C1058.26 406.818 1055.06 406.79 1050 406.831Z" fill="#F87269"/>
<path d="M1007.79 421.192L1009.23 413.999C999.367 421.401 995.659 426.683 991.41 437.577L993.114 437.917C998.732 430.893 1001.94 427.196 1007.79 421.192Z" fill="#F87269"/>
<path d="M996.157 458.179C994.916 464.929 995.463 469.23 995.651 476.69C999.953 482.357 1001.97 484.527 1009.64 491.804C1013.49 489.304 1015.66 488.441 1019.55 484.766C1015.38 474.827 1014.08 470.05 1012.86 462.383C1005.68 461.267 1002.17 460.224 996.157 458.179Z" fill="#F87269"/>
<path d="M1097.59 463.484C1092.19 490.543 1063.91 507.85 1034.29 501.936C1004.66 496.023 985.199 469.184 990.601 442.125C996.002 415.066 1024.28 397.759 1053.9 403.672C1083.53 409.586 1102.99 436.424 1097.59 463.484Z" stroke="#F87269" stroke-width="2"/>
</g>
<path opacity="0.3" d="M1105.52 463.969C1107.56 452.697 1106.06 445.488 1100.53 436.46C1099.95 435.518 1100.94 434.584 1101.76 435.319C1105.03 438.244 1109.21 442.838 1110.15 447.889C1111.07 452.821 1109.13 459.443 1107.13 464.524C1106.7 465.626 1105.31 465.134 1105.52 463.969Z" fill="#F87269"/>
<path opacity="0.3" d="M1113.23 449.371C1112.37 442.961 1110.2 438.747 1105.88 434.35C1105.11 433.563 1105.81 432.448 1106.78 432.993C1109.38 434.467 1112.34 436.668 1113.71 439.549C1114.97 442.214 1115.14 446.011 1114.92 449.452C1114.84 450.634 1113.39 450.545 1113.23 449.371Z" fill="#F87269"/>
<ellipse opacity="0.3" cx="870.861" cy="127.39" rx="49.112" ry="44.3403" transform="rotate(0.445856 870.861 127.39)" fill="#B3DDDB"/>
<g opacity="0.3">
<path d="M794.646 126.116L800.016 111.604L814.529 106.233L800.016 100.863L794.646 86.3505L789.275 100.863L774.763 106.233L789.275 111.604L794.646 126.116Z" fill="#F2BE6A"/>
<path d="M825.087 84.9867L829.066 74.2357L839.817 70.2575L829.066 66.2793L825.087 55.5283L821.109 66.2793L810.358 70.2575L821.109 74.2357L825.087 84.9867Z" fill="#F2BE6A"/>
<path d="M943.486 83.3083L941.082 90.6627L933.935 93.6252L941.289 96.0289L944.251 103.177L946.655 95.8222L953.803 92.8597L946.448 90.4559L943.486 83.3083Z" fill="#F2BE6A"/>
<path d="M883.627 178.128L880.404 187.929L870.866 191.862L880.666 195.085L884.599 204.623L887.822 194.822L897.36 190.889L887.56 187.666L883.627 178.128Z" fill="#F2BE6A"/>
</g>
<path d="M825.524 165.554C824.927 162.59 823.088 160.754 820.125 160.155C814.678 159.054 806.955 177.082 807.878 178.006C808.597 178.724 826.616 170.982 825.524 165.554Z" fill="#F7CECC"/>
<path d="M813.771 154.408C817.074 153.031 819.764 153.026 823.976 154.577L836.458 133.774C824.342 133.325 814.064 144.59 811.307 152.533C810.794 154.008 812.329 155.009 813.771 154.408Z" fill="#F7CECC"/>
<path d="M831.687 172.324C833.063 169.021 833.069 166.331 831.518 162.119L852.321 149.637C852.769 161.753 841.505 172.03 833.562 174.788C832.087 175.301 831.086 173.765 831.687 172.324Z" fill="#F7CECC"/>
<path d="M867.533 118.561C868.898 119.927 867.08 132.796 858.92 143.491C851.644 153.026 834.953 160.999 830.307 163.093C829.565 163.427 828.71 163.254 828.135 162.678L823.416 157.96C822.841 157.384 822.667 156.53 823.002 155.788C825.096 151.142 833.069 134.451 842.604 127.175C853.299 119.015 866.168 117.196 867.533 118.561Z" fill="#F7CECC"/>
<ellipse cx="850.549" cy="135.127" rx="5.3376" ry="4.74453" transform="rotate(45 850.549 135.127)" fill="#E2EEEE"/>
<g opacity="0.6">
<mask id="mask1_1279_1205" style="mask-type:alpha" maskUnits="userSpaceOnUse" x="343" y="467" width="245" height="274">
<rect x="583" y="467" width="5" height="274" fill="white"/>
<rect x="583" y="467" width="5" height="274" fill="white"/>
<rect x="567" y="467" width="5" height="274" fill="white"/>
<rect x="567" y="467" width="5" height="274" fill="white"/>
<rect x="551" y="467" width="5" height="274" fill="white"/>
<rect x="551" y="467" width="5" height="274" fill="white"/>
<rect x="535" y="467" width="5" height="274" fill="white"/>
<rect x="535" y="467" width="5" height="274" fill="white"/>
<rect x="519" y="467" width="5" height="274" fill="white"/>
<rect x="519" y="467" width="5" height="274" fill="white"/>
<rect x="503" y="467" width="5" height="274" fill="white"/>
<rect x="503" y="467" width="5" height="274" fill="white"/>
<rect x="487" y="467" width="5" height="274" fill="white"/>
<rect x="487" y="467" width="5" height="274" fill="white"/>
<rect x="471" y="467" width="5" height="274" fill="white"/>
<rect x="471" y="467" width="5" height="274" fill="white"/>
<rect x="455" y="467" width="5" height="274" fill="white"/>
<rect x="455" y="467" width="5" height="274" fill="white"/>
<rect x="439" y="467" width="5" height="274" fill="white"/>
<rect x="439" y="467" width="5" height="274" fill="white"/>
<rect x="423" y="467" width="5" height="274" fill="white"/>
<rect x="423" y="467" width="5" height="274" fill="white"/>
<rect x="407" y="467" width="5" height="274" fill="white"/>
<rect x="407" y="467" width="5" height="274" fill="white"/>
<rect x="391" y="467" width="5" height="274" fill="white"/>
<rect x="391" y="467" width="5" height="274" fill="white"/>
<rect x="375" y="467" width="5" height="274" fill="white"/>
<rect x="375" y="467" width="5" height="274" fill="white"/>
<rect x="359" y="467" width="5" height="274" fill="white"/>
<rect x="359" y="467" width="5" height="274" fill="white"/>
<rect x="343" y="467" width="5" height="274" fill="white"/>
<rect x="343" y="467" width="5" height="274" fill="white"/>
</mask>
<g mask="url(#mask1_1279_1205)">
<circle cx="466.5" cy="603.5" r="127.5" fill="white"/>
<circle cx="466.5" cy="603.5" r="127.5" fill="white"/>
</g>
</g>
</g>
<defs>
<clipPath id="clip0_1279_1205">
<rect width="1440" height="550" fill="white"/>
</clipPath>
</defs>
</svg>
