<svg width="1440" height="500" viewBox="0 0 1440 500" fill="none" xmlns="http://www.w3.org/2000/svg">
<g clip-path="url(#clip0_1190_1008)">
<g clip-path="url(#clip1_1190_1008)">
<rect width="1440" height="600" fill="white"/>
<rect width="1440" height="600" fill="#F6F6F6"/>
<path d="M1312.05 160.846C1158.66 145.913 1065.58 -24.9771 1299.99 -58.1598C1534.4 -91.3425 1529.79 -29.9634 1529.79 -29.9634L1593 469.444C1487.86 479.399 1412.14 474.257 1356.98 376.368C1301.83 278.48 1465.45 175.778 1312.05 160.846Z" fill="#F2BE6A"/>
<path d="M51.2341 100.155C9.7616 100.155 5.4713 176 -37.4312 176C-194.712 176 -287.215 20.3635 51.234 -95.8959C184.544 -141.689 470.249 -113.068 597.526 -40.0858C650.884 -9.48981 545.103 72.9657 468.819 72.9657C383.014 72.9657 393.024 41.5372 318.66 51.5002C257.411 59.706 245.977 113.362 184.544 120.299C123.111 127.237 92.7065 100.155 51.2341 100.155Z" fill="#F87269"/>
<ellipse opacity="0.3" cx="283.113" cy="117.527" rx="23.5" ry="22.5" transform="rotate(135 283.113 117.527)" fill="#F2BE6A"/>
<ellipse opacity="0.3" cx="229.373" cy="144.398" rx="14.5" ry="15.5" transform="rotate(74.8268 229.373 144.398)" fill="#F2BE6A"/>
<ellipse opacity="0.3" cx="180.229" cy="153.236" rx="8.5" ry="9" transform="rotate(119.016 180.229 153.236)" fill="#F2BE6A"/>
<ellipse rx="27.5" ry="26" transform="matrix(-0.207476 0.97824 0.97824 0.207476 1311.14 285.296)" fill="#F6D3D1"/>
<ellipse opacity="0.3" cx="1113.47" cy="313.742" rx="13.3369" ry="12.3113" transform="rotate(11.5996 1113.47 313.742)" fill="#F2BE6A"/>
<circle opacity="0.3" cx="932.5" cy="451.5" r="7.5" fill="#B3DDDB"/>
<ellipse opacity="0.3" rx="17.5" ry="16" transform="matrix(-1 0 0 1 192.5 349)" fill="#B3DDDB"/>
<ellipse opacity="0.3" rx="9.86274" ry="8.66726" transform="matrix(-0.957982 -0.286829 -0.286829 0.957982 531.934 108.132)" fill="#B3DDDB"/>
<ellipse opacity="0.3" rx="9.86274" ry="8.66726" transform="matrix(-0.869807 -0.493392 -0.493392 0.869807 1083.93 128.132)" fill="#B3DDDB"/>
<ellipse rx="17.5" ry="19" transform="matrix(-0.207476 0.97824 0.97824 0.207476 1310.22 347.061)" fill="#F6D3D1"/>
<ellipse rx="14" ry="12.5" transform="matrix(-0.207476 0.97824 0.97824 0.207476 1325.13 391.289)" fill="#F6D3D1"/>
<ellipse opacity="0.3" rx="5.94" ry="7.93928" transform="matrix(0.0527807 0.998606 0.998606 -0.0527807 149.242 150.937)" fill="#F2BE6A"/>
<path d="M1233.48 219.295C1236.25 222.463 1253.71 214.225 1254.89 209.084C1256.28 203.098 1243.8 200.282 1238.32 203.098C1231.54 206.586 1230.72 216.126 1233.48 219.295Z" fill="#E8E8E8"/>
<path d="M1237.41 455.621C1239.57 453.56 1250.99 460.82 1251.4 464.601C1251.87 469.004 1243.02 470.063 1239.46 467.619C1235.05 464.593 1235.25 457.682 1237.41 455.621Z" fill="#E8E8E8"/>
<path d="M625.995 94.7595C625.148 91.8935 636.817 85.0527 640.368 86.4151C644.503 88.0014 641.404 96.362 637.604 98.4155C632.899 100.958 626.841 97.6254 625.995 94.7595Z" fill="#E8E8E8"/>
<path d="M-63 99.2436C-63 99.2436 8.89343 144.299 59.6572 144.992C156.328 146.309 161.635 -6.27291 258.156 -12.1425C347.302 -17.5636 372.657 110.342 461.336 99.2436C543.126 89.0072 628 -38 628 -38" stroke="#4D4761" stroke-width="2"/>
<path d="M1453 576C1453 576 1361.88 490.971 1375.44 423.99C1383.01 386.58 1414.53 380.356 1425.42 344.037C1445.77 276.216 1372.86 228.164 1399 163C1457.6 16.9128 1171.2 152.544 1135 -35" stroke="#4D4761" stroke-width="2"/>
<g opacity="0.6">
<mask id="mask0_1190_1008" style="mask-type:alpha" maskUnits="userSpaceOnUse" x="1081" y="-98" width="245" height="274">
<rect x="1321" y="-98" width="5" height="274" fill="white"/>
<rect x="1321" y="-98" width="5" height="274" fill="white"/>
<rect x="1305" y="-98" width="5" height="274" fill="white"/>
<rect x="1305" y="-98" width="5" height="274" fill="white"/>
<rect x="1289" y="-98" width="5" height="274" fill="white"/>
<rect x="1289" y="-98" width="5" height="274" fill="white"/>
<rect x="1273" y="-98" width="5" height="274" fill="white"/>
<rect x="1273" y="-98" width="5" height="274" fill="white"/>
<rect x="1257" y="-98" width="5" height="274" fill="white"/>
<rect x="1257" y="-98" width="5" height="274" fill="white"/>
<rect x="1241" y="-98" width="5" height="274" fill="white"/>
<rect x="1241" y="-98" width="5" height="274" fill="white"/>
<rect x="1225" y="-98" width="5" height="274" fill="white"/>
<rect x="1225" y="-98" width="5" height="274" fill="white"/>
<rect x="1209" y="-98" width="5" height="274" fill="white"/>
<rect x="1209" y="-98" width="5" height="274" fill="white"/>
<rect x="1193" y="-98" width="5" height="274" fill="white"/>
<rect x="1193" y="-98" width="5" height="274" fill="white"/>
<rect x="1177" y="-98" width="5" height="274" fill="white"/>
<rect x="1177" y="-98" width="5" height="274" fill="white"/>
<rect x="1161" y="-98" width="5" height="274" fill="white"/>
<rect x="1161" y="-98" width="5" height="274" fill="white"/>
<rect x="1145" y="-98" width="5" height="274" fill="white"/>
<rect x="1145" y="-98" width="5" height="274" fill="white"/>
<rect x="1129" y="-98" width="5" height="274" fill="white"/>
<rect x="1129" y="-98" width="5" height="274" fill="white"/>
<rect x="1113" y="-98" width="5" height="274" fill="white"/>
<rect x="1113" y="-98" width="5" height="274" fill="white"/>
<rect x="1097" y="-98" width="5" height="274" fill="white"/>
<rect x="1097" y="-98" width="5" height="274" fill="white"/>
<rect x="1081" y="-98" width="5" height="274" fill="white"/>
<rect x="1081" y="-98" width="5" height="274" fill="white"/>
</mask>
<g mask="url(#mask0_1190_1008)">
<circle cx="1204.5" cy="38.5" r="127.5" fill="white"/>
<circle cx="1204.5" cy="38.5" r="127.5" fill="white"/>
</g>
</g>
<path d="M203.543 197.177C205.849 194.87 209.59 194.87 211.896 197.177L214.533 199.814C217.708 202.988 215.492 205.373 211.564 205.928C209.89 206.165 208.222 206.674 206.978 207.819V207.819C205.734 208.963 203.99 209.712 202.507 208.9C199.267 207.127 198.243 202.477 201.185 199.534L203.543 197.177Z" fill="#E8E8E8"/>
<g opacity="0.3">
<path d="M1200.74 347.038C1170.87 408.164 1126.33 395.664 1126.33 395.664C1126.33 401.523 1125.16 406.211 1120.86 411.289C1120.86 411.289 1170.47 422.617 1200.74 347.038Z" fill="#F87269"/>
</g>
<ellipse opacity="0.3" cx="813.168" cy="71.29" rx="44.0239" ry="39.7465" transform="rotate(0.445856 813.168 71.29)" fill="#B3DDDB"/>
<g opacity="0.3">
<path d="M744.849 70.149L749.663 57.1398L762.672 52.326L749.663 47.5121L744.849 34.503L740.035 47.5121L727.026 52.326L740.035 57.1398L744.849 70.149Z" fill="#F2BE6A"/>
<path d="M772.137 27.9021L775.703 18.265L785.34 14.6989L775.703 11.1329L772.137 1.49571L768.571 11.1329L758.934 14.6989L768.571 18.265L772.137 27.9021Z" fill="#F2BE6A"/>
<path d="M878.269 31.776L876.114 38.3684L869.707 41.024L876.3 43.1787L878.955 49.5858L881.11 42.9933L887.517 40.3378L880.925 38.1831L878.269 31.776Z" fill="#F2BE6A"/>
<path d="M824.611 116.772L821.722 125.557L813.172 129.083L821.958 131.972L825.483 140.522L828.372 131.736L836.922 128.211L828.137 125.322L824.611 116.772Z" fill="#F2BE6A"/>
</g>
<path d="M772.528 105.501C771.993 102.844 770.345 101.198 767.689 100.661C762.806 99.6744 755.883 115.834 756.711 116.662C757.355 117.306 773.507 110.366 772.528 105.501Z" fill="#F7CECC"/>
<path d="M762.335 95.3712C765.143 94.277 767.511 94.3243 771.141 95.661L782.33 77.0131C771.645 76.6174 762.556 86.3829 759.91 93.4787C759.364 94.9422 760.88 95.9384 762.335 95.3712Z" fill="#F7CECC"/>
<path d="M778.191 111.226C779.285 108.419 779.237 106.051 777.901 102.421L796.549 91.2324C796.944 101.917 787.179 111.006 780.083 113.652C778.62 114.198 777.623 112.682 778.191 111.226Z" fill="#F7CECC"/>
<path d="M810.185 63.3767C811.409 64.6005 809.779 76.1364 802.464 85.723C796.01 94.1817 781.29 101.269 776.948 103.234C776.207 103.57 775.345 103.4 774.77 102.824L770.738 98.7918C770.162 98.2164 769.992 97.3547 770.327 96.6134C772.293 92.2722 779.38 77.552 787.839 71.0978C797.425 63.7829 808.961 62.1529 810.185 63.3767Z" fill="#F7CECC"/>
<ellipse cx="794.961" cy="78.2256" rx="4.7846" ry="4.25298" transform="rotate(45 794.961 78.2256)" fill="#E2EEEE"/>
</g>
<g opacity="0.3">
<path d="M1063.79 379.556L1061.83 361.13L1080.47 355.043L1093.68 367.659L1083.52 384.3L1063.79 379.556Z" fill="#F87269"/>
<path d="M1077.56 413.478C1080.25 417.785 1082 420.2 1085.66 424.49C1093.04 422.792 1097.68 422.134 1104.25 417.052C1104.87 412.025 1104.65 408.29 1104.57 402.688L1089.53 399.604C1085.19 405.145 1082.61 408.2 1077.56 413.478Z" fill="#F87269"/>
<path d="M1114.28 387.652L1120.94 389.017C1121.29 379.054 1119.77 373.117 1112.56 361.621L1109.36 360.966C1108.82 364.562 1108.5 366.596 1107.51 370.494C1110.72 377.578 1112.27 381.385 1114.28 387.652Z" fill="#F87269"/>
<path d="M1082.97 347.182L1077.66 343.861C1084.59 343.787 1088.11 344.82 1094.17 347.245C1089.43 347.171 1086.93 347.149 1082.97 347.182Z" fill="#F87269"/>
<path d="M1050 358.704L1051.12 352.933C1043.42 358.871 1040.52 363.109 1037.2 371.85L1038.53 372.123C1042.92 366.487 1045.42 363.521 1050 358.704Z" fill="#F87269"/>
<path d="M1040.91 388.38C1039.94 393.796 1040.37 397.246 1040.51 403.231C1043.87 407.779 1045.45 409.52 1051.44 415.358C1054.45 413.352 1056.15 412.66 1059.19 409.712C1055.92 401.737 1054.91 397.904 1053.96 391.753C1048.35 390.858 1045.61 390.021 1040.91 388.38Z" fill="#F87269"/>
<path d="M1119.94 392.592C1115.74 414.202 1093.76 428.012 1070.74 423.293C1047.72 418.574 1032.58 397.153 1036.78 375.543C1040.98 353.933 1062.97 340.123 1085.99 344.842C1109.01 349.561 1124.14 370.982 1119.94 392.592Z" stroke="#F87269" stroke-width="2"/>
</g>
<path opacity="0.3" d="M302.407 331.913C300.527 322.509 297.557 306.584 295.842 292L347.357 292C348.067 299.114 350.049 321.254 351.784 339.348C352.714 349.056 350.916 356.117 340.942 357C334.476 357 329.233 352.06 329.233 345.967C329.233 339.874 334.476 334.934 340.942 334.934C342.737 334.934 344.437 335.315 345.957 335.994L340.509 305.808H304.126L307.55 335.994C309.239 348.97 301.479 352.587 296.709 352.587C290.242 352.587 285 347.647 285 341.554C285 335.461 290.242 330.521 296.709 330.521C298.777 330.521 300.72 331.027 302.407 331.913Z" fill="#B3DDDB"/>
<path opacity="0.3" d="M255.177 288.668L229.767 231.121L270.032 224.189L276.934 243.254L247.599 240.365C253.199 258.925 267.626 291.067 266.453 302.8C265.579 311.535 257.458 319.396 246.363 319.396C236.318 319.396 228.021 312.357 228.021 303.674C227.584 295.376 234.135 285.331 244.616 285.331C249.857 285.331 252.914 287.078 255.177 288.668Z" fill="#F2BE6A"/>
<path opacity="0.3" d="M1126.65 389.692C1127.71 382.295 1126.59 377.118 1123.04 371.004C1122.49 370.049 1123.46 369.142 1124.26 369.905C1126.64 372.185 1129.31 375.421 1129.97 378.942C1130.58 382.259 1129.55 386.554 1128.25 390.217C1127.86 391.333 1126.48 390.864 1126.65 389.692Z" fill="#F87269"/>
<path opacity="0.3" d="M1132.32 378.117C1131.56 374.302 1130.11 371.463 1127.62 368.61C1126.9 367.782 1127.62 366.73 1128.54 367.34C1130.3 368.515 1132.1 370.121 1133 372.135C1133.74 373.785 1134 375.966 1134 378.148C1134 379.34 1132.55 379.286 1132.32 378.117Z" fill="#F87269"/>
<path d="M313.474 425.403C260.867 425.403 231.18 476.865 185.792 451.409C87 396 147 276 18.5627 255.362C-120.586 233.002 -95.5521 387.58 -103.47 471.409C-116.156 605.728 -234.79 737.531 -111.379 816.484C-40.9741 861.526 22.1388 840.896 108.957 843.49C266.077 848.183 506.692 788.478 506.692 788.478C506.692 788.478 662.622 750.469 672.791 688.456C679.836 645.499 655.842 597.436 607.255 610.439C515.761 634.925 396.181 740.526 368.841 659.45C352.058 609.682 421.947 596.436 421.947 546.425C421.947 494.316 364.321 425.403 313.474 425.403Z" fill="#B3DDDB"/>
<ellipse opacity="0.3" rx="9.86274" ry="8.66726" transform="matrix(-0.957982 -0.286829 -0.286829 0.957982 388.934 406.132)" fill="#F87269"/>
<path d="M-18 234.197C-18 234.197 54.2641 230.437 88.2185 255.752C144.814 297.947 69.0245 380.277 113.765 434.925C165.537 498.162 240.098 456.75 316.79 484.77C388.053 510.807 415.753 571.635 491.58 569.642C551.337 568.071 573.162 505.677 632.756 510.366C708.896 516.357 782 637 782 637" stroke="#4D4761" stroke-width="2"/>
<g opacity="0.3">
<ellipse cx="-4.39793" cy="495.133" rx="6.90541" ry="4.22321" transform="rotate(27.6882 -4.39793 495.133)" fill="#F87269"/>
<ellipse cx="3.73551" cy="446.938" rx="8.28649" ry="5.06785" transform="rotate(27.6882 3.73551 446.938)" fill="#F87269"/>
<ellipse cx="6.54557" cy="471.306" rx="8.28649" ry="5.06785" transform="rotate(27.6882 6.54557 471.306)" fill="#F87269"/>
<ellipse cx="51.2197" cy="484.255" rx="9.66757" ry="5.91249" transform="rotate(27.6882 51.2197 484.255)" fill="#F87269"/>
<ellipse cx="36.0892" cy="447.7" rx="9.66757" ry="5.91249" transform="rotate(27.6882 36.0892 447.7)" fill="#F87269"/>
<ellipse cx="89.0223" cy="471.661" rx="6.90541" ry="4.22321" transform="rotate(27.6882 89.0223 471.661)" fill="#F87269"/>
<ellipse cx="123.538" cy="506.942" rx="6.90541" ry="4.22321" transform="rotate(27.6882 123.538 506.942)" fill="#F87269"/>
<ellipse cx="81.4917" cy="506.818" rx="8.28649" ry="5.06785" transform="rotate(27.6882 81.4917 506.818)" fill="#F87269"/>
</g>
<g opacity="0.6">
<mask id="mask1_1190_1008" style="mask-type:alpha" maskUnits="userSpaceOnUse" x="287" y="417" width="245" height="274">
<rect x="527" y="417" width="5" height="274" fill="white"/>
<rect x="527" y="417" width="5" height="274" fill="white"/>
<rect x="511" y="417" width="5" height="274" fill="white"/>
<rect x="511" y="417" width="5" height="274" fill="white"/>
<rect x="495" y="417" width="5" height="274" fill="white"/>
<rect x="495" y="417" width="5" height="274" fill="white"/>
<rect x="479" y="417" width="5" height="274" fill="white"/>
<rect x="479" y="417" width="5" height="274" fill="white"/>
<rect x="463" y="417" width="5" height="274" fill="white"/>
<rect x="463" y="417" width="5" height="274" fill="white"/>
<rect x="447" y="417" width="5" height="274" fill="white"/>
<rect x="447" y="417" width="5" height="274" fill="white"/>
<rect x="431" y="417" width="5" height="274" fill="white"/>
<rect x="431" y="417" width="5" height="274" fill="white"/>
<rect x="415" y="417" width="5" height="274" fill="white"/>
<rect x="415" y="417" width="5" height="274" fill="white"/>
<rect x="399" y="417" width="5" height="274" fill="white"/>
<rect x="399" y="417" width="5" height="274" fill="white"/>
<rect x="383" y="417" width="5" height="274" fill="white"/>
<rect x="383" y="417" width="5" height="274" fill="white"/>
<rect x="367" y="417" width="5" height="274" fill="white"/>
<rect x="367" y="417" width="5" height="274" fill="white"/>
<rect x="351" y="417" width="5" height="274" fill="white"/>
<rect x="351" y="417" width="5" height="274" fill="white"/>
<rect x="335" y="417" width="5" height="274" fill="white"/>
<rect x="335" y="417" width="5" height="274" fill="white"/>
<rect x="319" y="417" width="5" height="274" fill="white"/>
<rect x="319" y="417" width="5" height="274" fill="white"/>
<rect x="303" y="417" width="5" height="274" fill="white"/>
<rect x="303" y="417" width="5" height="274" fill="white"/>
<rect x="287" y="417" width="5" height="274" fill="white"/>
<rect x="287" y="417" width="5" height="274" fill="white"/>
</mask>
<g mask="url(#mask1_1190_1008)">
<circle cx="410.5" cy="553.5" r="127.5" fill="white"/>
<circle cx="410.5" cy="553.5" r="127.5" fill="white"/>
</g>
</g>
</g>
<defs>
<clipPath id="clip0_1190_1008">
<rect width="1440" height="500" fill="white"/>
</clipPath>
<clipPath id="clip1_1190_1008">
<rect width="1440" height="600" fill="white"/>
</clipPath>
</defs>
</svg>
