<svg width="1440" height="500" viewBox="0 0 1440 500" fill="none" xmlns="http://www.w3.org/2000/svg">
<g clip-path="url(#clip0_1279_1205)">
<rect width="1440" height="600" transform="translate(0 -60)" fill="white"/>
<rect y="-60" width="1440" height="600" fill="#F6F6F6"/>
<path d="M1220.06 120.846C1041.11 83.0286 950.582 -84.9771 1184.99 -118.16C1419.4 -151.343 1414.79 -89.9634 1414.79 -89.9634C1414.79 -89.9634 1684.78 409.032 1474 466C1437 476 1304.96 416.737 1261.98 316.368C1219 216 1399 158.663 1220.06 120.846Z" fill="#F2BE6A"/>
<path d="M369.474 405.403C316.867 405.403 287.18 456.865 241.792 431.409C143 376 203 276 74.5627 255.362C-64.5861 233.002 -39.5521 347.58 -47.4696 431.409C-60.1559 565.728 -178.79 697.531 -55.3791 776.484C15.0259 821.526 78.1388 800.896 164.957 803.489C322.077 808.183 562.692 748.477 562.692 748.477C562.692 748.477 718.622 710.469 728.791 648.456C735.836 605.499 711.842 557.436 663.255 570.439C571.761 594.925 452.181 700.526 424.841 619.45C408.058 569.682 477.947 556.436 477.947 506.425C477.947 454.315 420.321 405.403 369.474 405.403Z" fill="#B3DDDB"/>
<path d="M126.234 76.1553C84.7616 76.1553 80.4713 152 37.5688 152C-119.712 152 -212.215 -3.63647 126.234 -119.896C259.544 -165.689 545.249 -137.068 672.526 -64.0858C725.884 -33.4898 620.103 48.9657 543.819 48.9657C458.014 48.9657 468.024 17.5372 393.66 27.5002C332.411 35.706 320.977 89.3618 259.544 96.2994C198.111 103.237 167.707 76.1553 126.234 76.1553Z" fill="#F87269"/>
<ellipse opacity="0.3" cx="358.113" cy="93.5269" rx="23.5" ry="22.5" transform="rotate(135 358.113 93.5269)" fill="#F2BE6A"/>
<ellipse opacity="0.3" cx="304.373" cy="120.398" rx="14.5" ry="15.5" transform="rotate(74.8268 304.373 120.398)" fill="#F2BE6A"/>
<ellipse opacity="0.3" cx="255.229" cy="129.236" rx="8.5" ry="9" transform="rotate(119.016 255.229 129.236)" fill="#F2BE6A"/>
<ellipse rx="27.5" ry="26" transform="matrix(-0.207476 0.97824 0.97824 0.207476 1216.14 215.296)" fill="#F6D3D1"/>
<ellipse opacity="0.3" cx="1105.04" cy="325.165" rx="14.6246" ry="13.5" transform="rotate(11.5996 1105.04 325.165)" fill="#F2BE6A"/>
<circle opacity="0.3" cx="932.5" cy="461.5" r="7.5" fill="#B3DDDB"/>
<ellipse opacity="0.3" rx="17.5" ry="16" transform="matrix(-1 0 0 1 192.5 299)" fill="#B3DDDB"/>
<ellipse opacity="0.3" rx="9.86274" ry="8.66726" transform="matrix(-0.957982 -0.286829 -0.286829 0.957982 606.934 74.1319)" fill="#B3DDDB"/>
<ellipse opacity="0.3" rx="9.86274" ry="8.66726" transform="matrix(-0.957982 -0.286829 -0.286829 0.957982 424.934 396.132)" fill="#F87269"/>
<ellipse rx="17.5" ry="19" transform="matrix(-0.207476 0.97824 0.97824 0.207476 1215.22 277.061)" fill="#F6D3D1"/>
<ellipse rx="14" ry="12.5" transform="matrix(-0.207476 0.97824 0.97824 0.207476 1230.13 321.289)" fill="#F6D3D1"/>
<ellipse opacity="0.3" rx="5.94" ry="7.93928" transform="matrix(0.0527807 0.998606 0.998606 -0.0527807 224.242 126.937)" fill="#F2BE6A"/>
<path d="M1118.48 159.295C1121.25 162.463 1138.71 154.225 1139.89 149.084C1141.28 143.098 1128.8 140.282 1123.32 143.098C1116.54 146.586 1115.72 156.126 1118.48 159.295Z" fill="#E8E8E8"/>
<path d="M1267.41 425.62C1269.57 423.559 1280.99 430.819 1281.4 434.601C1281.87 439.003 1273.02 440.063 1269.46 437.619C1265.05 434.593 1265.25 427.682 1267.41 425.62Z" fill="#E8E8E8"/>
<path d="M700.995 60.7596C700.148 57.8937 711.817 51.0528 715.368 52.4152C719.503 54.0015 716.404 62.3622 712.604 64.4157C707.899 66.9579 701.841 63.6256 700.995 60.7596Z" fill="#E8E8E8"/>
<path d="M-17 75.2436C-17 75.2436 83.8934 120.299 134.657 120.992C231.328 122.309 236.635 -30.2729 333.156 -36.1425C422.302 -41.5636 447.657 86.3423 536.336 75.2436C618.126 65.0072 703 -62 703 -62" stroke="#4D4761" stroke-width="2"/>
<path d="M1440 516C1440 516 1323.09 435.841 1340.49 372.698C1350.21 337.431 1390.64 331.563 1404.62 297.325C1430.72 233.389 1323.54 190.33 1357.07 128.898C1432.26 -8.82068 1078.44 116.801 1032 -60" stroke="#4D4761" stroke-width="2"/>
<path d="M-42 254.197C-2.459 239.023 75 226 114.218 255.752C170.459 298.417 125.024 334.277 169.765 388.925C221.537 452.162 296.098 410.75 372.79 438.77C444.053 464.807 471.753 531.635 547.58 529.642C607.337 528.071 629.162 465.677 688.756 470.366C764.896 476.357 838 597 838 597" stroke="#4D4761" stroke-width="2"/>
<g opacity="0.6">
<mask id="mask0_1279_1205" style="mask-type:alpha" maskUnits="userSpaceOnUse" x="966" y="-158" width="245" height="274">
<rect x="1206" y="-158" width="5" height="274" fill="white"/>
<rect x="1206" y="-158" width="5" height="274" fill="white"/>
<rect x="1190" y="-158" width="5" height="274" fill="white"/>
<rect x="1190" y="-158" width="5" height="274" fill="white"/>
<rect x="1174" y="-158" width="5" height="274" fill="white"/>
<rect x="1174" y="-158" width="5" height="274" fill="white"/>
<rect x="1158" y="-158" width="5" height="274" fill="white"/>
<rect x="1158" y="-158" width="5" height="274" fill="white"/>
<rect x="1142" y="-158" width="5" height="274" fill="white"/>
<rect x="1142" y="-158" width="5" height="274" fill="white"/>
<rect x="1126" y="-158" width="5" height="274" fill="white"/>
<rect x="1126" y="-158" width="5" height="274" fill="white"/>
<rect x="1110" y="-158" width="5" height="274" fill="white"/>
<rect x="1110" y="-158" width="5" height="274" fill="white"/>
<rect x="1094" y="-158" width="5" height="274" fill="white"/>
<rect x="1094" y="-158" width="5" height="274" fill="white"/>
<rect x="1078" y="-158" width="5" height="274" fill="white"/>
<rect x="1078" y="-158" width="5" height="274" fill="white"/>
<rect x="1062" y="-158" width="5" height="274" fill="white"/>
<rect x="1062" y="-158" width="5" height="274" fill="white"/>
<rect x="1046" y="-158" width="5" height="274" fill="white"/>
<rect x="1046" y="-158" width="5" height="274" fill="white"/>
<rect x="1030" y="-158" width="5" height="274" fill="white"/>
<rect x="1030" y="-158" width="5" height="274" fill="white"/>
<rect x="1014" y="-158" width="5" height="274" fill="white"/>
<rect x="1014" y="-158" width="5" height="274" fill="white"/>
<rect x="998" y="-158" width="5" height="274" fill="white"/>
<rect x="998" y="-158" width="5" height="274" fill="white"/>
<rect x="982" y="-158" width="5" height="274" fill="white"/>
<rect x="982" y="-158" width="5" height="274" fill="white"/>
<rect x="966" y="-158" width="5" height="274" fill="white"/>
<rect x="966" y="-158" width="5" height="274" fill="white"/>
</mask>
<g mask="url(#mask0_1279_1205)">
<circle cx="1089.5" cy="-21.5" r="127.5" fill="white"/>
<circle cx="1089.5" cy="-21.5" r="127.5" fill="white"/>
</g>
</g>
<g opacity="0.3">
<ellipse cx="128.005" cy="492.87" rx="9.66757" ry="5.91249" transform="rotate(27.6882 128.005 492.87)" fill="#F87269"/>
<ellipse cx="155.284" cy="479.523" rx="8.28649" ry="5.06785" transform="rotate(27.6882 155.284 479.523)" fill="#F87269"/>
<ellipse cx="61.6021" cy="435.132" rx="6.90541" ry="4.22321" transform="rotate(27.6882 61.6021 435.132)" fill="#F87269"/>
<ellipse cx="24.077" cy="497.948" rx="6.90541" ry="4.22321" transform="rotate(27.6882 24.077 497.948)" fill="#F87269"/>
<ellipse cx="82.4091" cy="472.76" rx="6.90541" ry="4.22321" transform="rotate(27.6882 82.4091 472.76)" fill="#F87269"/>
<ellipse cx="111.259" cy="456.421" rx="8.28649" ry="5.06785" transform="rotate(27.6882 111.259 456.421)" fill="#F87269"/>
<ellipse cx="69.7355" cy="386.938" rx="8.28649" ry="5.06785" transform="rotate(27.6882 69.7355 386.938)" fill="#F87269"/>
<ellipse cx="13.7428" cy="425.28" rx="6.90541" ry="4.22321" transform="rotate(27.6882 13.7428 425.28)" fill="#F87269"/>
<ellipse cx="31.2733" cy="460.234" rx="8.28649" ry="5.06785" transform="rotate(27.6882 31.2733 460.234)" fill="#F87269"/>
<ellipse cx="69.8954" cy="499.579" rx="8.28649" ry="5.06785" transform="rotate(27.6882 69.8954 499.579)" fill="#F87269"/>
<ellipse cx="30.2721" cy="396.753" rx="8.28649" ry="5.06785" transform="rotate(27.6882 30.2721 396.753)" fill="#F87269"/>
<ellipse cx="72.5456" cy="411.305" rx="8.28649" ry="5.06785" transform="rotate(27.6882 72.5456 411.305)" fill="#F87269"/>
<ellipse cx="117.22" cy="424.255" rx="9.66757" ry="5.91249" transform="rotate(27.6882 117.22 424.255)" fill="#F87269"/>
<ellipse cx="102.089" cy="387.7" rx="9.66757" ry="5.91249" transform="rotate(27.6882 102.089 387.7)" fill="#F87269"/>
<ellipse cx="155.022" cy="411.661" rx="6.90541" ry="4.22321" transform="rotate(27.6882 155.022 411.661)" fill="#F87269"/>
<ellipse cx="189.538" cy="446.942" rx="6.90541" ry="4.22321" transform="rotate(27.6882 189.538 446.942)" fill="#F87269"/>
<ellipse cx="197.285" cy="476.762" rx="8.28649" ry="5.06785" transform="rotate(27.6882 197.285 476.762)" fill="#F87269"/>
<ellipse cx="147.492" cy="446.817" rx="8.28649" ry="5.06785" transform="rotate(27.6882 147.492 446.817)" fill="#F87269"/>
<ellipse cx="2.07699" cy="465.948" rx="6.90541" ry="4.22321" transform="rotate(27.6882 2.07699 465.948)" fill="#F87269"/>
</g>
<path d="M203.543 177.177C205.849 174.87 209.59 174.87 211.896 177.177L214.533 179.814C217.708 182.988 215.492 185.373 211.564 185.928C209.89 186.165 208.222 186.674 206.978 187.819V187.819C205.734 188.963 203.99 189.712 202.507 188.9C199.267 187.127 198.243 182.477 201.185 179.534L203.543 177.177Z" fill="#E8E8E8"/>
<path opacity="0.3" d="M315.407 328.724C313.527 319.32 310.557 303.395 308.842 288.811L360.357 288.811C361.067 295.925 363.049 318.065 364.784 336.159C365.714 345.867 363.916 352.928 353.942 353.811C347.476 353.811 342.233 348.871 342.233 342.778C342.233 336.685 347.476 331.745 353.942 331.745C355.737 331.745 357.437 332.126 358.957 332.806L353.509 302.619H317.126L320.55 332.806C322.239 345.781 314.479 349.398 309.709 349.398C303.242 349.398 298 344.458 298 338.365C298 332.272 303.242 327.332 309.709 327.332C311.777 327.332 313.72 327.838 315.407 328.724Z" fill="#B3DDDB"/>
<path opacity="0.3" d="M268.177 285.479L242.767 227.933L283.032 221L289.934 240.065L260.599 237.176C266.199 255.736 280.626 287.878 279.453 299.612C278.579 308.346 270.458 316.207 259.363 316.207C249.318 316.207 241.021 309.168 241.021 300.485C240.584 292.187 247.135 282.142 257.616 282.142C262.857 282.142 265.914 283.889 268.177 285.479Z" fill="#F2BE6A"/>
<g opacity="0.3">
<path d="M1200.74 347.052C1162.5 425.292 1105.5 409.292 1105.5 409.292C1105.5 416.792 1104 422.792 1098.5 429.292C1098.5 429.292 1162 443.792 1200.74 347.052Z" fill="#F87269"/>
</g>
<g opacity="0.3">
<path d="M1025.44 387.182L1022.94 364.216L1046.8 356.629L1063.7 372.354L1050.7 393.095L1025.44 387.182Z" fill="#F87269"/>
<path d="M1043.07 429.461C1046.52 434.828 1048.75 437.838 1053.44 443.185C1062.89 441.07 1068.82 440.249 1077.23 433.916C1078.03 427.65 1077.74 422.995 1077.65 416.013L1058.39 412.169C1052.84 419.075 1049.53 422.882 1043.07 429.461Z" fill="#F87269"/>
<path d="M1090.07 397.272L1098.59 398.973C1099.05 386.556 1097.1 379.156 1087.87 364.828L1083.78 364.011C1083.09 368.493 1082.67 371.029 1081.41 375.887C1085.51 384.716 1087.5 389.461 1090.07 397.272Z" fill="#F87269"/>
<path d="M1050 346.831L1043.2 342.692C1052.07 342.6 1056.57 343.888 1064.33 346.91C1058.26 346.818 1055.06 346.79 1050 346.831Z" fill="#F87269"/>
<path d="M1007.79 361.192L1009.23 353.999C999.367 361.401 995.659 366.683 991.41 377.577L993.114 377.917C998.732 370.893 1001.94 367.196 1007.79 361.192Z" fill="#F87269"/>
<path d="M996.156 398.179C994.916 404.929 995.463 409.23 995.651 416.69C999.953 422.358 1001.97 424.527 1009.64 431.804C1013.49 429.304 1015.66 428.441 1019.55 424.766C1015.38 414.827 1014.08 410.05 1012.86 402.383C1005.68 401.267 1002.17 400.224 996.156 398.179Z" fill="#F87269"/>
<path d="M1097.59 403.484C1092.19 430.543 1063.91 447.85 1034.29 441.936C1004.66 436.023 985.199 409.184 990.6 382.125C996.002 355.066 1024.28 337.759 1053.9 343.672C1083.53 349.586 1102.99 376.424 1097.59 403.484Z" stroke="#F87269" stroke-width="2"/>
</g>
<path opacity="0.3" d="M1105.52 403.969C1107.56 392.697 1106.06 385.488 1100.53 376.46C1099.95 375.518 1100.94 374.584 1101.76 375.319C1105.03 378.244 1109.21 382.838 1110.15 387.889C1111.07 392.821 1109.13 399.443 1107.13 404.524C1106.7 405.626 1105.31 405.134 1105.52 403.969Z" fill="#F87269"/>
<path opacity="0.3" d="M1113.23 389.371C1112.37 382.961 1110.2 378.747 1105.88 374.35C1105.11 373.563 1105.81 372.448 1106.78 372.993C1109.38 374.467 1112.34 376.668 1113.71 379.549C1114.97 382.214 1115.14 386.011 1114.92 389.452C1114.84 390.634 1113.39 390.545 1113.23 389.371Z" fill="#F87269"/>
<ellipse opacity="0.3" cx="870.861" cy="97.3896" rx="49.112" ry="44.3403" transform="rotate(0.445856 870.861 97.3896)" fill="#B3DDDB"/>
<g opacity="0.3">
<path d="M794.646 96.1165L800.016 81.6037L814.529 76.2335L800.016 70.8633L794.646 56.3505L789.275 70.8633L774.763 76.2335L789.275 81.6037L794.646 96.1165Z" fill="#F2BE6A"/>
<path d="M825.087 48.9868L829.066 38.2358L839.817 34.2576L829.066 30.2794L825.087 19.5284L821.109 30.2794L810.358 34.2576L821.109 38.2358L825.087 48.9868Z" fill="#F2BE6A"/>
<path d="M943.486 53.3084L941.082 60.6627L933.935 63.6252L941.289 66.029L944.251 73.1766L946.655 65.8222L953.803 62.8597L946.448 60.456L943.486 53.3084Z" fill="#F2BE6A"/>
<path d="M883.627 148.128L880.404 157.929L870.866 161.862L880.666 165.085L884.599 174.623L887.822 164.822L897.36 160.889L887.56 157.666L883.627 148.128Z" fill="#F2BE6A"/>
</g>
<path d="M825.524 135.554C824.927 132.59 823.088 130.754 820.125 130.155C814.678 129.054 806.955 147.082 807.878 148.006C808.597 148.724 826.616 140.982 825.524 135.554Z" fill="#F7CECC"/>
<path d="M813.771 124.408C817.074 123.031 819.764 123.026 823.976 124.577L836.458 103.774C824.342 103.325 814.064 114.59 811.307 122.533C810.794 124.008 812.329 125.009 813.771 124.408Z" fill="#F7CECC"/>
<path d="M831.687 142.324C833.063 139.021 833.069 136.331 831.517 132.119L852.321 119.637C852.769 131.753 841.505 142.03 833.562 144.788C832.087 145.301 831.086 143.765 831.687 142.324Z" fill="#F7CECC"/>
<path d="M867.533 88.5615C868.898 89.9267 867.08 102.796 858.92 113.491C851.644 123.026 834.953 130.999 830.307 133.093C829.565 133.427 828.71 133.254 828.135 132.678L823.416 127.96C822.841 127.384 822.667 126.53 823.002 125.788C825.096 121.142 833.069 104.451 842.604 97.175C853.299 89.0147 866.168 87.1963 867.533 88.5615Z" fill="#F7CECC"/>
<ellipse cx="850.549" cy="105.127" rx="5.3376" ry="4.74453" transform="rotate(45 850.549 105.127)" fill="#E2EEEE"/>
<g opacity="0.6">
<mask id="mask1_1279_1205" style="mask-type:alpha" maskUnits="userSpaceOnUse" x="343" y="407" width="245" height="274">
<rect x="583" y="407" width="5" height="274" fill="white"/>
<rect x="583" y="407" width="5" height="274" fill="white"/>
<rect x="567" y="407" width="5" height="274" fill="white"/>
<rect x="567" y="407" width="5" height="274" fill="white"/>
<rect x="551" y="407" width="5" height="274" fill="white"/>
<rect x="551" y="407" width="5" height="274" fill="white"/>
<rect x="535" y="407" width="5" height="274" fill="white"/>
<rect x="535" y="407" width="5" height="274" fill="white"/>
<rect x="519" y="407" width="5" height="274" fill="white"/>
<rect x="519" y="407" width="5" height="274" fill="white"/>
<rect x="503" y="407" width="5" height="274" fill="white"/>
<rect x="503" y="407" width="5" height="274" fill="white"/>
<rect x="487" y="407" width="5" height="274" fill="white"/>
<rect x="487" y="407" width="5" height="274" fill="white"/>
<rect x="471" y="407" width="5" height="274" fill="white"/>
<rect x="471" y="407" width="5" height="274" fill="white"/>
<rect x="455" y="407" width="5" height="274" fill="white"/>
<rect x="455" y="407" width="5" height="274" fill="white"/>
<rect x="439" y="407" width="5" height="274" fill="white"/>
<rect x="439" y="407" width="5" height="274" fill="white"/>
<rect x="423" y="407" width="5" height="274" fill="white"/>
<rect x="423" y="407" width="5" height="274" fill="white"/>
<rect x="407" y="407" width="5" height="274" fill="white"/>
<rect x="407" y="407" width="5" height="274" fill="white"/>
<rect x="391" y="407" width="5" height="274" fill="white"/>
<rect x="391" y="407" width="5" height="274" fill="white"/>
<rect x="375" y="407" width="5" height="274" fill="white"/>
<rect x="375" y="407" width="5" height="274" fill="white"/>
<rect x="359" y="407" width="5" height="274" fill="white"/>
<rect x="359" y="407" width="5" height="274" fill="white"/>
<rect x="343" y="407" width="5" height="274" fill="white"/>
<rect x="343" y="407" width="5" height="274" fill="white"/>
</mask>
<g mask="url(#mask1_1279_1205)">
<circle cx="466.5" cy="543.5" r="127.5" fill="white"/>
<circle cx="466.5" cy="543.5" r="127.5" fill="white"/>
</g>
</g>
</g>
<defs>
<clipPath id="clip0_1279_1205">
<rect width="1440" height="500" fill="white"/>
</clipPath>
</defs>
</svg>
