<svg width="628" height="600" viewBox="0 0 628 600" fill="none" xmlns="http://www.w3.org/2000/svg">
<g clip-path="url(#clip0_1701_2487)">
<path d="M623.973 517.128C625.551 524.079 624.039 531.729 619.393 540.04C614.74 548.365 607.006 557.23 596.384 566.479C575.143 584.974 542.678 604.721 501.342 624.523C418.701 664.113 301.01 703.732 167.869 733.957C34.7282 764.182 -88.5331 779.263 -180.168 779.236C-226.002 779.223 -263.811 775.429 -290.956 767.919C-304.53 764.163 -315.334 759.506 -323.125 754.006C-330.904 748.515 -335.571 742.268 -337.149 735.317C-338.728 728.366 -337.215 720.716 -332.569 712.405C-327.916 704.08 -320.183 695.215 -309.561 685.966C-288.319 667.471 -255.854 647.724 -214.518 627.922C-131.877 588.332 -14.1865 548.713 118.955 518.488C252.096 488.263 375.357 473.182 466.992 473.209C512.825 473.222 550.635 477.016 577.78 484.526C591.354 488.282 602.157 492.939 609.949 498.439C617.728 503.93 622.395 510.176 623.973 517.128Z" stroke="#6FCDDF" stroke-width="4"/>
<path d="M565.789 538.91C566.92 543.893 565.848 549.421 562.453 555.497C559.049 561.586 553.374 568.101 545.538 574.923C529.87 588.566 505.893 603.155 475.323 617.8C414.212 647.076 327.158 676.383 228.658 698.744C130.158 721.105 38.9835 732.258 -28.7782 732.239C-62.6755 732.229 -90.6016 729.422 -110.624 723.882C-120.637 721.112 -128.57 717.686 -134.269 713.663C-139.955 709.649 -143.308 705.125 -144.44 700.143C-145.571 695.16 -144.499 689.632 -141.103 683.556C-137.7 677.467 -132.024 670.952 -124.189 664.13C-108.521 650.487 -84.544 635.898 -53.9736 621.253C7.13759 591.977 94.1912 562.67 192.691 540.309C291.191 517.948 382.366 506.795 450.127 506.815C484.025 506.824 511.951 509.631 531.974 515.171C541.987 517.941 549.919 521.367 555.618 525.39C561.304 529.404 564.658 533.928 565.789 538.91Z" stroke="#6FCDDF" stroke-width="4"/>
<path d="M516.988 558.904C517.662 561.874 517.042 565.233 514.924 569.023C512.798 572.826 509.227 576.939 504.241 581.28C494.271 589.961 478.973 599.277 459.409 608.649C420.311 627.379 364.582 646.144 301.5 660.464C238.419 674.785 180.05 681.922 136.697 681.909C115.004 681.903 97.1831 680.106 84.4426 676.581C78.0708 674.818 73.074 672.651 69.5142 670.138C65.9675 667.634 63.9574 664.872 63.2832 661.902C62.609 658.932 63.2293 655.573 65.3475 651.783C67.4734 647.98 71.0446 643.867 76.0306 639.526C86.0003 630.846 101.299 621.53 120.863 612.157C159.961 593.427 215.69 574.662 278.771 560.342C341.852 546.021 400.221 538.884 443.574 538.897C465.267 538.903 483.088 540.701 495.829 544.226C502.201 545.988 507.197 548.156 510.757 550.668C514.304 553.172 516.314 555.934 516.988 558.904Z" stroke="#6FCDDF" stroke-width="4"/>
<path d="M163.5 294.372C214.034 294.372 255 253.63 255 203.372C255 153.115 214.034 112.372 163.5 112.372C112.966 112.372 72 153.115 72 203.372C72 253.63 112.966 294.372 163.5 294.372Z" fill="url(#paint0_linear_1701_2487)"/>
<path d="M163.5 294.372C214.034 294.372 255 253.63 255 203.372C255 153.115 214.034 112.372 163.5 112.372C112.966 112.372 72 153.115 72 203.372C72 253.63 112.966 294.372 163.5 294.372Z" fill="#3D1266" fill-opacity="0.15"/>
<mask id="mask0_1701_2487" style="mask-type:alpha" maskUnits="userSpaceOnUse" x="72" y="112" width="183" height="182">
<path d="M163.473 293.832C213.685 293.832 254.389 253.127 254.389 202.916C254.389 152.704 213.685 112 163.473 112C113.262 112 72.5576 152.704 72.5576 202.916C72.5576 253.127 113.262 293.832 163.473 293.832Z" fill="url(#paint1_linear_1701_2487)"/>
</mask>
<g mask="url(#mask0_1701_2487)">
<g style="mix-blend-mode:screen" opacity="0.3">
<g style="mix-blend-mode:screen" opacity="0.5">
<path d="M192.162 95.1763C174.755 109.389 153.091 119.183 132.491 127.806C121.312 132.491 110.081 135.152 97.9443 135.897C86.2869 136.643 74.6295 136.536 63.185 138.985C59.8848 139.677 61.2688 144.733 64.5691 144.042C77.1846 141.38 90.013 141.912 102.788 140.795C114.233 139.783 124.932 136.696 135.525 132.171C156.497 123.229 178.109 113.381 195.888 98.9025C198.496 96.7733 194.77 93.0471 192.162 95.1763Z" fill="#77CFE3"/>
</g>
<g style="mix-blend-mode:screen" opacity="0.5">
<path d="M205.522 113.967C186.412 125.571 164.907 131.746 143.562 137.761C132.437 140.901 121.259 144.787 109.761 146.384C98.2101 147.981 86.5527 147.395 75.0018 149.258C71.6483 149.791 73.0855 154.847 76.3857 154.315C88.3093 152.399 100.446 153.197 112.423 151.281C123.973 149.471 135.258 145.585 146.437 142.392C167.729 136.377 189.127 130.042 208.183 118.491C211.058 116.735 208.45 112.21 205.522 113.967Z" fill="#77CFE3"/>
</g>
<g style="mix-blend-mode:screen" opacity="0.5">
<path d="M240.76 124.985C215.955 142.285 186.678 152.292 157.615 159.691C127.061 167.463 95.3889 171.189 63.9831 167.356C60.6296 166.931 60.6828 172.2 63.9831 172.626C95.8147 176.512 128.019 172.626 158.999 164.801C188.488 157.296 218.244 147.076 243.368 129.563C246.136 127.647 243.475 123.069 240.707 125.038L240.76 124.985Z" fill="#77CFE3"/>
</g>
<g style="mix-blend-mode:screen" opacity="0.5">
<path d="M176.246 174.915C170.976 174.01 165.227 175.181 159.957 175.554C153.304 176.033 146.65 176.565 139.996 177.151C112.103 179.546 84.2641 183.112 57.2232 190.618C53.9762 191.523 55.3602 196.58 58.6072 195.675C82.5075 189.021 107.047 185.508 131.692 183.112C143.882 181.941 156.071 181.037 168.314 180.185C173.797 179.812 181.303 179.546 180.77 187.211C180.344 193.279 173.904 196.793 168.793 198.496C158.201 202.009 146.543 200.04 135.631 199.986C124.08 199.933 112.582 201.424 101.351 203.925C89.6936 206.48 78.3556 210.153 67.1772 214.305C56.6909 218.191 45.6191 221.97 36.2506 228.092C27.3611 233.894 19.6428 242.837 18.6314 253.802C17.7797 262.958 22.464 272.592 31.0872 276.372C34.1746 277.702 36.8361 273.178 33.7487 271.847C23.0495 267.163 21.6655 254.121 26.9885 244.806C33.11 234.107 44.8738 228.784 55.786 224.366C78.7282 215.104 102.735 206.853 127.647 205.469C138.772 204.83 150.003 206.64 161.075 205.469C170.124 204.511 181.249 201.051 185.082 191.842C188.116 184.603 184.337 176.299 176.405 174.968L176.246 174.915Z" fill="#77CFE3"/>
</g>
<g style="mix-blend-mode:screen" opacity="0.5">
<path d="M245.711 139.304C233.681 144.787 221.278 150.749 211.803 160.277C207.438 164.642 203.925 169.805 201.69 175.554C198.868 182.793 198.602 190.565 196.952 198.07C189.606 232.244 145 231.818 117.746 231.658C98.7959 231.552 79.633 231.286 61.2686 236.715C58.0216 237.673 59.4056 242.73 62.6527 241.772C95.9747 231.925 131.373 241.719 164.854 233.096C177.097 229.955 189.5 223.727 196.633 212.868C205.096 200.04 201.636 183.379 210.1 170.55C218.777 157.349 234.426 150.216 248.319 143.882C251.407 142.498 248.745 137.973 245.658 139.357L245.711 139.304Z" fill="#77CFE3"/>
</g>
<g style="mix-blend-mode:screen" opacity="0.5">
<path d="M248.639 154.688C236.716 159.159 226.549 167.623 220.481 178.854C216.914 185.401 215.317 192.481 213.88 199.72C212.283 207.758 210.154 215.583 206.641 223.035C203.287 230.008 199.082 237.78 192.215 241.825C185.349 245.871 176.353 247.202 168.634 248.958C152.08 252.791 135.259 255.506 118.332 257.102C98.9562 258.966 79.4208 259.338 59.9918 258.327C56.5851 258.167 56.6384 263.437 59.9918 263.597C94.1123 265.3 128.446 262.745 161.927 255.772C176.087 252.844 193.546 250.981 203.181 238.951C213.028 226.602 216.754 211.484 219.948 196.367C223.461 179.706 233.841 165.813 250.076 159.691C253.217 158.52 251.833 153.464 248.693 154.635L248.639 154.688Z" fill="#77CFE3"/>
</g>
<g style="mix-blend-mode:screen" opacity="0.5">
<path d="M257.742 173.212C239.111 175.181 227.507 191.523 224.633 208.982C223.142 218.085 222.77 228.145 227.082 236.556C229.637 241.506 233.416 245.818 236.769 250.182L247.628 264.235C249.651 266.897 254.229 264.235 252.153 261.574C246.564 254.334 240.762 247.148 235.332 239.749C229.53 231.818 228.253 223.621 229.211 213.986C230.754 197.964 239.963 180.345 257.689 178.428C261.042 178.056 261.042 172.839 257.689 173.158L257.742 173.212Z" fill="#77CFE3"/>
</g>
<g style="mix-blend-mode:screen" opacity="0.5">
<path d="M258.326 235.704C248.639 231.445 234.479 224.047 240.015 211.112C242.251 205.948 246.722 202.329 251.407 199.507C254.654 197.538 258.539 196.261 257.741 191.896C257.102 188.595 252.045 189.979 252.684 193.28C252.471 192.268 240.761 200.891 239.536 202.329C236.023 206.268 233.468 211.484 233.574 216.86C233.734 229.369 245.764 235.917 255.718 240.282C258.805 241.613 261.467 237.088 258.38 235.757L258.326 235.704Z" fill="#77CFE3"/>
</g>
<g style="mix-blend-mode:screen" opacity="0.5">
<path d="M214.093 253.323C200.572 253.323 188.169 259.657 175.607 263.756C162.513 268.015 148.939 270.729 135.259 271.794C119.662 273.018 103.96 272.113 88.576 269.186C85.2758 268.547 83.8386 273.604 87.1921 274.242C118.119 280.151 150.323 278.128 180.132 267.802C194.291 262.904 209.834 254.973 225.005 260.456C237.514 264.98 246.829 277.01 247.787 290.265C248 293.618 253.27 293.671 253.057 290.265C251.62 270.25 234.426 253.323 214.146 253.323H214.093Z" fill="#77CFE3"/>
</g>
<g style="mix-blend-mode:screen" opacity="0.5">
<path d="M217.66 281.695C209.675 279.512 201.744 280.63 193.706 281.695C184.55 282.919 175.342 283.877 166.08 284.463C147.981 285.687 129.83 285.634 111.732 284.463C108.378 284.25 108.378 289.519 111.732 289.732C129.244 290.85 146.81 290.903 164.323 289.786C172.946 289.253 181.516 288.455 190.086 287.337C198.763 286.219 207.599 284.303 216.222 286.698C219.469 287.603 220.907 282.546 217.606 281.641L217.66 281.695Z" fill="#77CFE3"/>
</g>
</g>
</g>
<path d="M294.999 125.511C277.379 128.723 257.829 134.454 232.547 144.136C232.906 144.494 233.264 145.21 233.981 145.926C288.353 125.231 325.327 119.775 331.2 131.292C335.33 139.414 322.483 156.117 295.916 177.134C268.616 198.793 229.845 222.791 186.714 244.68C143.63 266.568 101.418 283.775 67.8312 293.09C35.2083 302.13 14.1479 302.681 10.0185 294.559C4.24574 283.196 28.1439 258.249 75.6759 226.973C75.7464 226.927 75.8168 226.881 75.8874 226.834L75.1704 224.686C35.1603 250.934 0.474809 280.563 8.04552 295.523C10.0644 299.469 15.0656 301.625 22.5905 302.222C51.0839 304.379 115.55 283.225 187.678 246.561C230.9 224.581 269.809 200.536 297.201 178.786C325.006 156.76 337.762 139.506 333.036 130.283C329.411 123.17 316.609 121.519 294.907 125.465L294.999 125.511Z" fill="#D5A6FB"/>
<path d="M294.999 125.511C277.379 128.723 257.829 134.454 232.547 144.136C232.906 144.494 233.264 145.21 233.981 145.926C288.353 125.231 325.327 119.775 331.2 131.292C335.33 139.414 322.483 156.117 295.916 177.134C268.616 198.793 229.845 222.791 186.714 244.68C143.63 266.568 101.418 283.775 67.8312 293.09C35.2083 302.13 14.1479 302.681 10.0185 294.559C4.24574 283.196 28.1439 258.249 75.6759 226.973C75.7464 226.927 75.8168 226.881 75.8874 226.834L75.1704 224.686C35.1603 250.934 0.474809 280.563 8.04552 295.523C10.0644 299.469 15.0656 301.625 22.5905 302.222C51.0839 304.379 115.55 283.225 187.678 246.561C230.9 224.581 269.809 200.536 297.201 178.786C325.006 156.76 337.762 139.506 333.036 130.283C329.411 123.17 316.609 121.519 294.907 125.465L294.999 125.511Z" fill="black" fill-opacity="0.2"/>
<g opacity="0.7">
<path d="M237.972 150.87L242.992 159.165C266.305 152.327 282.207 150.916 285.006 156.607C290.421 167.759 243.565 201.811 180.325 232.697C117.086 263.583 61.418 279.599 55.9568 268.447C53.295 263.032 62.0769 252.792 80.2044 239.483L76.9773 230.519C38.7948 255.255 18.2332 274.918 22.9601 284.601C30.3488 299.746 102.446 279.783 183.905 239.994C265.41 200.205 325.437 155.643 318.049 140.499C313.23 130.632 280.922 135.68 236.406 151.421L237.972 150.87Z" fill="#D5A6FB"/>
<path d="M237.972 150.87L242.992 159.165C266.305 152.327 282.207 150.916 285.006 156.607C290.421 167.759 243.565 201.811 180.325 232.697C117.086 263.583 61.418 279.599 55.9568 268.447C53.295 263.032 62.0769 252.792 80.2044 239.483L76.9773 230.519C38.7948 255.255 18.2332 274.918 22.9601 284.601C30.3488 299.746 102.446 279.783 183.905 239.994C265.41 200.205 325.437 155.643 318.049 140.499C313.23 130.632 280.922 135.68 236.406 151.421L237.972 150.87Z" fill="black" fill-opacity="0.2"/>
</g>
<path fill-rule="evenodd" clip-rule="evenodd" d="M415.761 616.939L415.955 622.391L441.456 616.939H465.967V611.698L519.999 600.146C-17.4958 557.95 48.9998 421 110.999 339C-32.0597 396.224 -89.6015 516.882 -4.42887 612.536L229.726 606.64L230.093 616.939H415.761Z" fill="url(#paint2_linear_1701_2487)"/>
<path fill-rule="evenodd" clip-rule="evenodd" d="M-28.3042 618.5C-69.9995 544 -39.7074 438 70.0003 377C68.6478 380.14 62.7227 387.573 55.6969 396.387C42.4196 413.044 25.2111 434.634 27.4999 441.5C30.9999 452 43.4999 434 52.9999 420C47.6991 479.5 104.998 587.924 510 612L290.392 614.652C310.145 617.529 331.495 620.24 354.023 622.535V639.94H169.083L168.367 616.125L-28.3042 618.5Z" fill="url(#paint3_linear_1701_2487)"/>
<path fill-rule="evenodd" clip-rule="evenodd" d="M336.768 358.411C336.188 356.53 333.524 356.53 332.945 358.411L330.84 365.248C329.387 369.11 328.392 370.155 324.192 371.128L319.736 371.721C317.421 372.03 317.421 375.378 319.736 375.686L324.183 376.279C328.406 377.279 329.393 378.803 330.856 382.704L330.866 382.677L332.951 389.221C333.542 391.079 336.17 391.079 336.762 389.221L338.846 382.677L338.856 382.704C340.319 378.803 341.307 377.279 345.529 376.279L349.977 375.686C352.291 375.378 352.291 372.03 349.977 371.721L345.52 371.128C341.321 370.155 340.326 369.11 338.873 365.248L336.768 358.411Z" fill="#EDD7FF"/>
<path fill-rule="evenodd" clip-rule="evenodd" d="M34.9045 131.411C34.325 129.53 31.6611 129.53 31.0816 131.411L29.8955 135.264C28.775 138.242 28.0073 139.048 24.7689 139.798L24.7359 139.803C22.4214 140.111 22.4214 143.459 24.7359 143.768L24.7618 143.771C28.0184 144.543 28.7799 145.718 29.9082 148.726L29.9157 148.706L31.0874 152.384C31.679 154.241 34.3071 154.241 34.8987 152.384L36.0704 148.706L36.078 148.726C37.2062 145.718 37.9677 144.543 41.2243 143.771L41.2503 143.768C43.5648 143.459 43.5648 140.111 41.2503 139.803L41.2173 139.798C37.9788 139.048 37.2112 138.242 36.0907 135.264L34.9045 131.411Z" fill="#EDD7FF"/>
<circle opacity="0.6" cx="54.5" cy="100.5" r="4.5" fill="#EDD7FF"/>
<circle cx="114.5" cy="466.5" r="7.5" fill="#EDD7FF"/>
<circle cx="497.768" cy="585.768" r="5.5" transform="rotate(105.473 497.768 585.768)" fill="#EDD7FF"/>
<circle cx="441.907" cy="132.815" r="9" transform="rotate(105.473 441.907 132.815)" fill="#EDD7FF"/>
<circle cx="453.075" cy="506.075" r="9" transform="rotate(105.473 453.075 506.075)" fill="#CD86D7"/>
<circle opacity="0.6" cx="126.5" cy="432.5" r="4.5" fill="#EDD7FF"/>
<circle cx="396.905" cy="181.058" r="5.5" transform="rotate(105.473 396.905 181.058)" fill="#CD86D7"/>
<path opacity="0.5" d="M223.111 333.463C229.242 317.639 227.21 299.091 216.117 284.648C199.211 262.635 167.661 258.495 145.648 275.401C123.635 292.307 119.495 323.858 136.401 345.871C146.401 358.891 161.525 365.659 176.768 365.516C176.007 370.289 176.133 375.265 177.269 380.212C175.382 381.912 174.135 384.324 173.966 387.058C173.624 392.599 177.837 397.368 183.378 397.71L186.612 397.91C189.789 401.334 193.548 404.139 197.68 406.214C196.486 409.233 196.235 412.303 197.125 415.196C198.036 418.157 200.039 420.6 202.823 422.441C201.556 425.528 201.272 428.674 202.183 431.635C204.19 438.158 211.496 442.165 220.775 442.77L225.382 457.743C223.18 467.726 218.094 492.842 218.414 510.511C218.823 533.179 228.133 566.356 229.97 572.695L232.074 581.311C233.226 586.03 237.985 588.921 242.704 587.769C247.423 586.617 250.314 581.858 249.162 577.139L246.778 567.374L246.661 567.403C243.152 556.179 235.33 529.396 234.978 509.903C234.689 493.921 239.329 471.826 242.044 460.358C243.642 460.675 245.301 460.813 246.999 460.751C249.614 460.655 252.102 460.093 254.386 459.147L251.678 512.567C251.432 517.418 255.165 521.55 260.016 521.796C264.867 522.042 268.999 518.308 269.245 513.457L269.256 513.247L269.258 513.206L272.973 439.926C273.199 435.466 270.062 431.614 265.785 430.83C264.356 427.572 262.139 424.747 259.385 422.588C260.48 419.665 260.686 416.701 259.825 413.902C258.946 411.045 257.052 408.671 254.42 406.854L254.258 406.329C255.413 403.347 255.646 400.319 254.767 397.462C253.888 394.606 251.994 392.232 249.362 390.415L249.312 390.25C251.238 386.771 252.633 383.001 253.424 379.074L293.616 427.445C295.604 429.838 298.469 431.074 301.355 431.073C301.775 431.073 302.196 431.046 302.614 430.994C304.449 430.762 306.243 430.022 307.771 428.752C312.04 425.204 312.626 418.867 309.078 414.598L253.741 348.001L262.222 321.302C263.902 316.011 260.976 310.36 255.685 308.68C252.378 307.629 248.931 308.379 246.4 310.38C245.698 310.935 245.068 311.586 244.529 312.321C243.903 313.178 243.402 314.149 243.063 315.217L238.228 330.439C234.719 328.528 230.253 328.827 226.993 331.536C226.164 332.225 225.475 333.018 224.927 333.881C224.326 333.728 223.72 333.588 223.111 333.463Z" fill="url(#paint4_linear_1701_2487)"/>
<path d="M246.002 452.543C245.825 447.717 241.749 443.949 236.898 444.127C232.046 444.305 228.257 448.361 228.434 453.187C228.434 453.187 220.069 487.781 220.476 510.289C220.931 535.444 232.346 573.541 232.346 573.541L249.271 568.918C246.115 558.983 237.413 530.267 237.041 509.681C236.634 487.173 246.002 452.543 246.002 452.543Z" fill="#0F2437"/>
<path d="M251.224 576.917C252.376 581.635 249.485 586.394 244.766 587.547C240.048 588.699 235.288 585.807 234.136 581.089L231.752 571.324L248.84 567.152L251.224 576.917Z" fill="#F74CAD"/>
<path d="M262.092 521.322C266.943 521.568 271.075 517.835 271.321 512.984L275.035 439.703C275.281 434.852 271.548 430.72 266.697 430.474C261.846 430.228 257.714 433.962 257.468 438.813L253.753 512.093C253.507 516.945 257.241 521.076 262.092 521.322Z" fill="#0F2437"/>
<path d="M271.308 513.235C271.062 518.086 266.93 521.819 262.079 521.573C257.228 521.327 253.495 517.196 253.741 512.344L254.249 502.306L271.817 503.197L271.308 513.235Z" fill="#F74CAD"/>
<circle cx="248.279" cy="439.184" r="21.3591" transform="rotate(-2.10077 248.279 439.184)" fill="#0F2437"/>
<path d="M203.9 380.991C200.431 369.717 206.759 357.765 218.034 354.296C229.309 350.827 241.261 357.155 244.729 368.43L269.113 447.687L228.284 460.249L203.9 380.991Z" fill="#0F2437"/>
<ellipse cx="233.067" cy="422.546" rx="30.154" ry="18.8463" transform="rotate(-17.1008 233.067 422.546)" fill="#0F2437"/>
<ellipse cx="228.009" cy="406.107" rx="30.154" ry="18.8463" transform="rotate(-17.1008 228.009 406.107)" fill="#0F2437"/>
<ellipse cx="216.837" cy="370.648" rx="30.154" ry="30.0289" transform="rotate(-17.1008 216.837 370.648)" fill="#0F2437"/>
<ellipse cx="217.299" cy="371.296" rx="38.9489" ry="38.8249" transform="rotate(-17.1008 217.299 371.296)" fill="#0F2437"/>
<ellipse cx="213.585" cy="360.08" rx="21.8617" ry="21.736" transform="rotate(-17.1008 213.585 360.08)" fill="#5B6571"/>
<circle cx="214.416" cy="363.636" r="12.5642" transform="rotate(-17.1008 214.416 363.636)" fill="#8FC23F"/>
<circle cx="229.971" cy="412.484" r="11.3078" transform="rotate(-17.1008 229.971 412.484)" stroke="#F74CAD" stroke-width="5.02567"/>
<path d="M240.5 438.164C240.908 439.491 240.164 440.897 238.837 441.305C237.511 441.713 236.105 440.969 235.697 439.642L217.667 381.04L222.471 379.562L240.5 438.164Z" fill="#5B6571"/>
<path d="M295.678 427.223C299.226 431.492 305.563 432.077 309.832 428.53C314.102 424.982 314.687 418.645 311.14 414.376L243.21 332.621C239.662 328.352 233.325 327.766 229.055 331.314C224.786 334.862 224.201 341.199 227.748 345.468L295.678 427.223Z" fill="#0F2437"/>
<mask id="mask1_1701_2487" style="mask-type:alpha" maskUnits="userSpaceOnUse" x="225" y="328" width="89" height="103">
<path d="M309.673 428.337C305.403 431.884 299.066 431.299 295.518 427.029L227.588 345.275C224.041 341.006 224.626 334.668 228.895 331.121C233.165 327.573 239.502 328.158 243.05 332.428L310.98 414.182C314.528 418.452 313.942 424.789 309.673 428.337Z" fill="#FEBE40"/>
</mask>
<g mask="url(#mask1_1701_2487)">
<path d="M288.292 418.332L303.754 405.485L293.315 392.922L277.854 405.769L288.292 418.332Z" fill="#F74CAD"/>
<path d="M273.677 400.744L289.139 387.897L278.7 375.334L263.239 388.182L273.677 400.744Z" fill="#F74CAD"/>
</g>
<path d="M287.649 417.559L282.028 410.794L297.49 397.947L303.111 404.712L287.649 417.559Z" fill="#0F2437"/>
<path d="M311.141 414.375C314.688 418.645 314.103 424.982 309.833 428.53C305.564 432.077 299.227 431.492 295.679 427.222L287.649 417.559L303.111 404.712L311.141 414.375Z" fill="#C9DB53"/>
<rect x="130.721" y="292.662" width="48.2464" height="112.072" rx="24.1232" transform="rotate(-37.5248 130.721 292.662)" fill="#C9DB53"/>
<circle cx="178.322" cy="315.037" r="50.2567" transform="rotate(-37.5248 178.322 315.037)" fill="#C9DB53"/>
<ellipse rx="17.5898" ry="27.6412" transform="matrix(0.79309 -0.609105 0.759363 0.650668 163.686 338.204)" fill="black"/>
<ellipse cx="149.321" cy="328.438" rx="7.03195" ry="7.03593" transform="rotate(-37.5248 149.321 328.438)" fill="#F5F6E8"/>
<ellipse rx="17.5898" ry="27.6412" transform="matrix(-0.79309 0.609105 0.432739 0.901519 205.536 306.062)" fill="black"/>
<ellipse rx="7.03195" ry="7.03593" transform="matrix(-0.79309 0.609105 0.609105 0.79309 199.807 289.664)" fill="#F5F6E8"/>
<path d="M211.923 352.599C213.023 351.754 214.601 351.961 215.446 353.061C216.291 354.162 216.084 355.74 214.984 356.585L209.005 361.177C207.904 362.022 206.327 361.815 205.481 360.714C204.636 359.614 204.843 358.036 205.944 357.191L211.923 352.599Z" fill="#0F2437"/>
<path d="M264.284 321.08C265.965 315.789 263.038 310.138 257.747 308.458C252.457 306.777 246.805 309.704 245.125 314.994L222.037 387.683C220.357 392.974 223.284 398.625 228.574 400.306C233.865 401.986 239.516 399.059 241.196 393.769L264.284 321.08Z" fill="#0F2437"/>
<path d="M229.713 400.224C235.253 400.567 240.022 396.353 240.365 390.812C240.707 385.272 236.493 380.503 230.953 380.16L186.681 377.424C181.14 377.082 176.371 381.295 176.029 386.836C175.686 392.377 179.9 397.146 185.441 397.488L229.713 400.224Z" fill="#0F2437"/>
<mask id="mask2_1701_2487" style="mask-type:alpha" maskUnits="userSpaceOnUse" x="212" y="308" width="53" height="122">
<path d="M257.672 308.697C262.962 310.377 265.889 316.029 264.208 321.319L232.031 422.625C230.351 427.916 224.7 430.842 219.409 429.162C214.118 427.481 211.192 421.83 212.872 416.54L245.049 315.234C246.73 309.943 252.381 307.017 257.672 308.697Z" fill="#FEBE40"/>
</mask>
<g mask="url(#mask2_1701_2487)">
<path d="M260.785 332.097L241.625 326.011L236.681 341.578L255.84 347.664L260.785 332.097Z" fill="#F74CAD"/>
<path d="M253.863 353.89L234.703 347.805L229.759 363.372L248.918 369.457L253.863 353.89Z" fill="#F74CAD"/>
</g>
<path d="M260.481 333.055L257.819 341.437L238.659 335.351L241.322 326.969L260.481 333.055Z" fill="#0F2437"/>
<path d="M245.125 314.994C246.806 309.704 252.457 306.777 257.748 308.457C263.038 310.138 265.965 315.789 264.284 321.08L260.481 333.054L241.322 326.969L245.125 314.994Z" fill="#C9DB53"/>
<path opacity="0.2" d="M225.111 333.463C231.242 317.639 229.21 299.091 218.117 284.648C201.211 262.635 169.661 258.495 147.648 275.401C125.635 292.307 121.495 323.858 138.401 345.871C148.401 358.891 163.525 365.659 178.768 365.516C178.007 370.289 178.133 375.265 179.269 380.212C177.382 381.912 176.135 384.324 175.966 387.058C175.624 392.599 179.837 397.368 185.378 397.71L188.612 397.91C191.789 401.334 195.548 404.139 199.68 406.214C198.486 409.233 198.235 412.303 199.125 415.196C200.036 418.157 202.039 420.6 204.823 422.441C203.556 425.528 203.272 428.674 204.183 431.635C206.19 438.158 213.496 442.165 222.775 442.77L227.382 457.743C225.18 467.726 220.094 492.842 220.414 510.511C220.823 533.179 230.133 566.356 231.97 572.695L234.074 581.311C235.226 586.03 239.985 588.921 244.704 587.769C249.423 586.617 252.314 581.858 251.162 577.139L248.778 567.374L248.661 567.403C245.152 556.179 237.33 529.396 236.978 509.903C236.689 493.921 241.329 471.826 244.044 460.358C245.642 460.675 247.301 460.813 248.999 460.751C251.614 460.655 254.102 460.093 256.386 459.147L253.678 512.567C253.432 517.418 257.165 521.55 262.016 521.796C266.867 522.042 270.999 518.308 271.245 513.457L271.256 513.247L271.258 513.206L274.973 439.926C275.199 435.466 272.062 431.614 267.785 430.83C266.356 427.572 264.139 424.747 261.385 422.588C262.48 419.665 262.686 416.701 261.825 413.902C260.946 411.045 259.052 408.671 256.42 406.854L256.258 406.329C257.413 403.347 257.646 400.319 256.767 397.462C255.888 394.606 253.994 392.232 251.362 390.415L251.312 390.25C253.238 386.771 254.633 383.001 255.424 379.074L295.616 427.445C297.604 429.838 300.469 431.074 303.355 431.073C303.775 431.073 304.196 431.046 304.614 430.994C306.449 430.762 308.243 430.022 309.771 428.752C314.04 425.204 314.626 418.867 311.078 414.598L255.741 348.001L264.222 321.302C265.902 316.011 262.976 310.36 257.685 308.68C254.378 307.629 250.931 308.379 248.4 310.38C247.698 310.935 247.068 311.586 246.529 312.321C245.903 313.178 245.402 314.149 245.063 315.217L240.228 330.439C236.719 328.528 232.253 328.827 228.993 331.536C228.164 332.225 227.475 333.018 226.927 333.881C226.326 333.728 225.72 333.588 225.111 333.463Z" fill="url(#paint5_linear_1701_2487)"/>
<g style="mix-blend-mode:soft-light" opacity="0.3">
<path d="M227.111 332.463C233.242 316.639 231.21 298.091 220.117 283.648C203.211 261.635 171.661 257.495 149.648 274.401C127.635 291.307 123.495 322.858 140.401 344.871C150.401 357.891 165.525 364.659 180.768 364.516C180.007 369.289 180.133 374.265 181.269 379.212C179.382 380.912 178.135 383.324 177.966 386.058C177.624 391.599 181.837 396.368 187.378 396.71L190.612 396.91C193.789 400.334 197.548 403.139 201.68 405.214C200.486 408.233 200.235 411.303 201.125 414.196C202.036 417.157 204.039 419.6 206.823 421.441C205.556 424.528 205.272 427.674 206.183 430.635C208.19 437.158 215.496 441.165 224.775 441.77L229.382 456.743C227.18 466.726 222.094 491.842 222.414 509.511C222.823 532.179 232.133 565.356 233.97 571.695L236.074 580.311C237.226 585.03 241.985 587.921 246.704 586.769C251.423 585.617 254.314 580.858 253.162 576.139L250.778 566.374L250.661 566.403C247.152 555.179 239.33 528.396 238.978 508.903C238.689 492.921 243.329 470.826 246.044 459.358C247.642 459.675 249.301 459.813 250.999 459.751C253.614 459.655 256.102 459.093 258.386 458.147L255.678 511.567C255.432 516.418 259.165 520.55 264.016 520.796C268.867 521.042 272.999 517.308 273.245 512.457L273.256 512.247L273.258 512.206L276.973 438.926C277.199 434.466 274.062 430.614 269.785 429.83C268.356 426.572 266.139 423.747 263.385 421.588C264.48 418.665 264.686 415.701 263.825 412.902C262.946 410.045 261.052 407.671 258.42 405.854L258.258 405.329C259.413 402.347 259.646 399.319 258.767 396.462C257.888 393.606 255.994 391.232 253.362 389.415L253.312 389.25C255.238 385.771 256.633 382.001 257.424 378.074L297.616 426.445C299.604 428.838 302.469 430.074 305.355 430.073C305.775 430.073 306.196 430.046 306.614 429.994C308.449 429.762 310.243 429.022 311.771 427.752C316.04 424.204 316.626 417.867 313.078 413.598L257.741 347.001L266.222 320.302C267.902 315.011 264.976 309.36 259.685 307.68C256.378 306.629 252.931 307.379 250.4 309.38C249.698 309.935 249.068 310.586 248.529 311.321C247.903 312.178 247.402 313.149 247.063 314.217L242.228 329.439C238.719 327.528 234.253 327.827 230.993 330.536C230.164 331.225 229.475 332.018 228.927 332.881C228.326 332.728 227.72 332.588 227.111 332.463Z" fill="url(#paint6_linear_1701_2487)"/>
</g>
</g>
<defs>
<linearGradient id="paint0_linear_1701_2487" x1="86.9132" y1="145.585" x2="240.795" y2="255.485" gradientUnits="userSpaceOnUse">
<stop stop-color="#F0A93A"/>
<stop offset="1" stop-color="#F748B2"/>
</linearGradient>
<linearGradient id="paint1_linear_1701_2487" x1="87.3756" y1="145.182" x2="240.84" y2="254.184" gradientUnits="userSpaceOnUse">
<stop stop-color="#F0A93A"/>
<stop offset="1" stop-color="#F748B2"/>
</linearGradient>
<linearGradient id="paint2_linear_1701_2487" x1="17" y1="602" x2="17" y2="146" gradientUnits="userSpaceOnUse">
<stop offset="0.317708" stop-color="#EFB450"/>
<stop offset="1" stop-color="#D68F67"/>
</linearGradient>
<linearGradient id="paint3_linear_1701_2487" x1="231.88" y1="425.296" x2="231.88" y2="639.94" gradientUnits="userSpaceOnUse">
<stop stop-color="#FFD770"/>
<stop offset="1" stop-color="#FDC76C"/>
</linearGradient>
<linearGradient id="paint4_linear_1701_2487" x1="218.699" y1="265" x2="218.699" y2="588.022" gradientUnits="userSpaceOnUse">
<stop stop-color="#D7A75E"/>
<stop offset="1" stop-color="#EFB450"/>
</linearGradient>
<linearGradient id="paint5_linear_1701_2487" x1="220.699" y1="265" x2="220.699" y2="588.022" gradientUnits="userSpaceOnUse">
<stop stop-color="#6F1082" stop-opacity="0"/>
<stop offset="1" stop-color="#EDEF73"/>
</linearGradient>
<linearGradient id="paint6_linear_1701_2487" x1="253" y1="304" x2="201" y2="488" gradientUnits="userSpaceOnUse">
<stop stop-color="#950F97"/>
<stop offset="1" stop-color="#6F1082" stop-opacity="0"/>
</linearGradient>
<clipPath id="clip0_1701_2487">
<rect width="628" height="600" fill="white"/>
</clipPath>
</defs>
</svg>
