<svg width="607" height="600" viewBox="0 0 607 600" fill="none" xmlns="http://www.w3.org/2000/svg">
<g clip-path="url(#clip0_2584_1020)">
<g filter="url(#filter0_d_2584_1020)">
<path fill-rule="evenodd" clip-rule="evenodd" d="M251.036 362.154C252.747 365.549 252.981 369.302 251.978 372.68C262.79 376.815 272.155 384.836 277.776 395.987C280.592 401.572 282.218 407.446 282.75 413.319C284.233 422.266 283.054 431.348 279.568 439.487C292.994 430.085 300.274 417.64 303.657 405.766C305.659 398.739 306.27 391.976 305.961 386.302C305.641 380.433 304.387 376.489 303.368 374.674C300.326 369.25 302.256 362.388 307.679 359.345C313.103 356.303 319.965 358.233 323.008 363.656C326.271 369.474 328.013 377.132 328.446 385.077C328.89 393.217 328.008 402.481 325.314 411.936C319.888 430.983 307.001 451.069 282.601 463.961C281.302 464.648 279.93 465.054 278.553 465.203L284.13 504.266L284.819 509.092C288.891 513.394 291.717 518.955 292.618 525.266C293.336 530.295 292.747 535.21 291.109 539.666L291.109 648.608C291.109 654.339 286.463 658.985 280.732 658.985C275.001 658.985 270.355 654.339 270.355 648.608L270.355 558.247C269.409 558.479 268.443 558.666 267.458 558.807C261.895 559.601 256.473 558.796 251.656 556.74L198.595 648.643C195.73 653.607 189.384 655.307 184.421 652.442C179.457 649.576 177.757 643.23 180.622 638.267L236.31 541.814C235.15 539.282 234.331 536.543 233.918 533.647C233.017 527.336 234.174 521.206 236.88 515.935L236.191 511.11L232.531 485.479C226.366 490.435 218.658 494.989 209.813 498.303C191.267 505.252 167.454 506.816 142.588 494.845C136.986 492.148 134.63 485.419 137.327 479.816C140.025 474.213 146.754 471.858 152.357 474.555C170.999 483.53 188.361 482.293 201.912 477.216C208.754 474.653 214.557 471.127 218.938 467.507C219.799 466.796 220.584 466.099 221.297 465.423C214.348 463.058 207.947 459.072 202.711 453.668C198.306 449.748 194.552 444.949 191.736 439.364C186.085 428.155 185.226 415.786 188.389 404.589C185.15 403.365 182.341 400.971 180.66 397.635C177.097 390.568 179.937 381.951 187.004 378.388C192.641 375.547 199.264 376.779 203.521 380.98C204.005 380.569 204.497 380.167 204.999 379.774L201.244 372.324L212.514 373.558L218.225 363.762L221.981 371.212C222.672 371.022 223.365 370.847 224.059 370.688C223.185 364.749 226.134 358.661 231.789 355.81C238.856 352.247 247.473 355.088 251.036 362.154Z" fill="url(#paint0_linear_2584_1020)"/>
</g>
<path d="M269.059 649.608C269.059 655.339 273.705 659.985 279.436 659.985V659.985C285.167 659.985 289.813 655.339 289.813 649.608L289.813 533.981C289.813 528.25 285.167 523.604 279.436 523.604V523.604C273.705 523.604 269.059 528.25 269.059 533.981L269.059 649.608Z" fill="#5E79BC"/>
<path d="M179.326 639.267C176.46 644.23 178.161 650.576 183.124 653.442V653.442C188.087 656.307 194.434 654.607 197.299 649.644L255.113 549.508C257.978 544.544 256.278 538.198 251.314 535.333V535.333C246.351 532.467 240.005 534.168 237.14 539.131L179.326 639.267Z" fill="#5E79BC"/>
<path d="M232.621 534.647C234.935 550.856 249.952 562.121 266.162 559.807V559.807C282.372 557.492 293.636 542.476 291.322 526.266V526.266C289.008 510.056 273.991 498.792 257.781 501.106V501.106C241.571 503.42 230.307 518.437 232.621 534.647V534.647Z" fill="#5E79BC"/>
<path fill-rule="evenodd" clip-rule="evenodd" d="M240.348 453.878C246.017 456.434 248.541 463.101 245.985 468.77C243.244 474.851 238.118 480.801 231.983 485.869C225.698 491.061 217.723 495.854 208.516 499.304C189.97 506.252 166.157 507.816 141.292 495.846C135.689 493.148 133.334 486.419 136.031 480.817C138.729 475.214 145.457 472.858 151.06 475.556C169.702 484.53 187.064 483.294 200.615 478.216C207.457 475.653 213.261 472.127 217.642 468.508C222.173 464.765 224.601 461.413 225.456 459.515C228.012 453.846 234.679 451.322 240.348 453.878Z" fill="#733B33"/>
<path fill-rule="evenodd" clip-rule="evenodd" d="M306.384 360.345C311.807 357.302 318.67 359.233 321.712 364.656C324.976 370.473 326.718 378.131 327.151 386.077C327.594 394.217 326.712 403.48 324.019 412.935C318.592 431.983 305.705 452.068 281.306 464.961C275.807 467.866 268.995 465.764 266.09 460.266C263.185 454.768 265.287 447.956 270.785 445.05C289.078 435.384 298.397 420.683 302.362 406.766C304.363 399.739 304.974 392.976 304.665 387.301C304.345 381.433 303.091 377.489 302.072 375.673C299.03 370.25 300.96 363.387 306.384 360.345Z" fill="#733B33"/>
<mask id="mask0_2584_1020" style="mask-type:alpha" maskUnits="userSpaceOnUse" x="264" y="358" width="64" height="109">
<path fill-rule="evenodd" clip-rule="evenodd" d="M306.384 360.345C311.807 357.302 318.67 359.233 321.712 364.656C324.976 370.473 326.718 378.131 327.151 386.077C327.594 394.217 326.712 403.48 324.019 412.935C318.592 431.983 305.705 452.068 281.306 464.961C275.807 467.866 268.995 465.764 266.09 460.266C263.185 454.768 265.287 447.956 270.785 445.05C289.078 435.384 298.397 420.683 302.362 406.766C304.363 399.739 304.974 392.976 304.665 387.301C304.345 381.433 303.091 377.489 302.072 375.673C299.03 370.25 300.96 363.387 306.384 360.345Z" fill="#66342D"/>
</mask>
<g mask="url(#mask0_2584_1020)">
<path d="M326.629 379.29L302.259 383.351L302.868 387.006L327.238 382.945L326.629 379.29Z" fill="#FFF79C"/>
<path d="M328.01 387.575L303.639 391.637L304.248 395.292L328.619 391.231L328.01 387.575Z" fill="#B557A1"/>
</g>
<path d="M277.211 465.887C275.321 452.649 263.058 443.45 249.82 445.34V445.34C236.582 447.23 227.382 459.494 229.272 472.731L235.593 517.002L283.532 510.157L277.211 465.887Z" fill="#733B33"/>
<path fill-rule="evenodd" clip-rule="evenodd" d="M234.357 454.157C235.63 452.57 237.102 451.142 238.743 449.913L243.667 484.404L265.924 481.226L260.944 446.35C262.838 446.987 264.637 447.854 266.303 448.922L270.816 480.528L279.132 479.34L283.532 510.158L235.593 517.002L231.193 486.185L238.775 485.102L234.357 454.157Z" fill="#29160F"/>
<path d="M235.593 517.002L283.532 510.158L282.833 505.266L234.894 512.11L235.593 517.002Z" fill="#5E79BC"/>
<rect x="-2.60477" y="2.32695" width="14.3207" height="19.7653" rx="7.16036" transform="matrix(-0.998396 -0.0566068 -0.055881 0.998437 239.298 364.604)" fill="#D0AD9A" stroke="#733B33" stroke-width="4.94133"/>
<circle cx="14.3299" cy="14.3299" r="14.3299" transform="matrix(-0.89294 0.450175 0.450175 0.89294 243.289 350.359)" fill="#733B33"/>
<circle cx="7.41199" cy="7.41199" r="7.41199" transform="matrix(-0.89294 0.450175 0.450175 0.89294 240.225 359.65)" fill="#D0AD9A"/>
<circle cx="14.3299" cy="14.3299" r="14.3299" transform="matrix(-0.89294 0.450175 0.450175 0.89294 198.504 372.937)" fill="#733B33"/>
<circle cx="7.41199" cy="7.41199" r="7.41199" transform="matrix(-0.89294 0.450175 0.450175 0.89294 195.441 382.229)" fill="#D0AD9A"/>
<circle cx="48.1779" cy="48.1779" r="48.1779" transform="matrix(-0.89294 0.450175 0.450175 0.89294 254.791 353.967)" fill="#B557A1"/>
<circle cx="46.9426" cy="46.9426" r="46.9426" transform="matrix(-0.89294 0.450175 0.450175 0.89294 255.913 358.935)" fill="#733B33"/>
<path d="M208.026 380.033L225.598 381.957L216.929 364.762L208.026 380.033Z" fill="#B557A1"/>
<path d="M217.519 375.248L199.947 373.324L208.616 390.519L217.519 375.248Z" fill="#B557A1"/>
<path d="M253.26 458.497C240.832 464.762 225.727 459.863 219.521 447.553L264.526 424.864C270.732 437.173 265.688 452.231 253.26 458.497Z" fill="#D0AD9A"/>
<rect width="17.2802" height="50.4012" rx="8.64012" transform="matrix(0.450175 0.89294 0.89294 -0.450175 215.63 439.838)" fill="#D0AD9A"/>
<path d="M245.362 442.827C240.299 445.38 234.099 443.291 231.513 438.163L249.848 428.919C252.434 434.048 250.426 440.275 245.362 442.827Z" fill="#311A12"/>
<rect width="7.20012" height="20.5338" rx="3.60006" transform="matrix(0.450175 0.89294 0.89294 -0.450175 229.892 434.948)" fill="#311A12"/>
<path d="M243.552 415.248C244.317 414.862 244.667 413.98 244.41 413.188L244.424 413.183L244.316 412.949C242.912 409.905 244.073 406.337 246.953 404.886C249.832 403.434 253.391 404.622 255.003 407.561L255.127 407.787L255.14 407.779C255.624 408.456 256.541 408.7 257.306 408.314C258.152 407.887 258.49 406.855 258.064 406.008L258.063 406.007L258.057 405.994L258.056 405.993C256.834 403.623 254.527 401.838 251.974 401.15L252.199 397.096C252.235 396.454 251.744 395.903 251.102 395.866L251.101 395.866C250.459 395.828 249.909 396.32 249.874 396.963L249.874 396.963L249.659 400.829C248.54 400.815 247.405 401.005 246.305 401.422L244.489 397.82C244.199 397.246 243.499 397.013 242.925 397.303C242.35 397.592 242.121 398.294 242.41 398.868L244.247 402.511C243.317 403.163 242.541 403.965 241.93 404.865L238.574 402.659L238.574 402.659C238.037 402.306 237.314 402.455 236.962 402.994L236.962 402.994C236.61 403.533 236.761 404.255 237.299 404.608L240.868 406.954C240.006 409.348 240.089 412.187 241.248 414.486C241.675 415.333 242.706 415.674 243.552 415.248ZM221.739 424.331L221.863 424.557L221.876 424.549C222.36 425.226 223.277 425.469 224.042 425.084C224.888 424.657 225.227 423.625 224.8 422.778L224.799 422.777L224.792 422.764L224.792 422.763C223.57 420.393 221.263 418.608 218.71 417.92L218.935 413.866C218.971 413.224 218.48 412.673 217.838 412.636L217.838 412.636C217.195 412.598 216.646 413.09 216.61 413.733L216.61 413.733L216.395 417.598C215.276 417.585 214.141 417.775 213.041 418.192L211.225 414.59C210.935 414.016 210.235 413.783 209.661 414.073C209.086 414.362 208.857 415.064 209.146 415.638L210.983 419.281C210.053 419.933 209.277 420.735 208.667 421.635L205.31 419.429L205.31 419.429C204.773 419.076 204.05 419.225 203.698 419.764L203.698 419.764C203.346 420.303 203.497 421.025 204.035 421.378L207.604 423.724C206.742 426.118 206.825 428.957 207.984 431.256C208.411 432.102 209.442 432.444 210.288 432.018C211.053 431.632 211.403 430.75 211.146 429.959L211.161 429.953L211.053 429.719C209.648 426.675 210.81 423.107 213.689 421.656C216.568 420.204 220.127 421.392 221.739 424.331ZM257.837 406.107L257.837 406.107L257.837 406.107Z" fill="black" stroke="black" stroke-width="0.494133"/>
<g style="mix-blend-mode:hard-light" opacity="0.6">
<path fill-rule="evenodd" clip-rule="evenodd" d="M249.74 363.154C251.451 366.549 251.685 370.302 250.682 373.68C261.494 377.815 270.858 385.836 276.48 396.987C279.295 402.571 280.921 408.444 281.453 414.316C282.937 423.263 281.758 432.347 278.272 440.487C291.698 431.086 298.978 418.64 302.361 406.766C304.363 399.739 304.973 392.976 304.664 387.302C304.345 381.433 303.09 377.489 302.072 375.674C299.029 370.25 300.96 363.388 306.383 360.345C311.806 357.303 318.669 359.233 321.711 364.656C324.975 370.474 326.717 378.132 327.15 386.077C327.593 394.217 326.712 403.481 324.018 412.936C318.592 431.983 305.705 452.069 281.305 464.961C280.006 465.648 278.633 466.054 277.256 466.203L282.834 505.266L283.522 510.092L283.523 510.092C287.595 514.394 290.421 519.955 291.322 526.266C292.04 531.295 291.451 536.209 289.813 540.665L289.813 649.608C289.813 655.339 285.167 659.985 279.436 659.985C273.705 659.985 269.059 655.339 269.059 649.608L269.059 559.247C268.113 559.479 267.146 559.666 266.162 559.807C260.599 560.601 255.176 559.796 250.359 557.74L197.299 649.643C194.434 654.607 188.087 656.307 183.124 653.442C178.161 650.576 176.461 644.23 179.326 639.267L235.013 542.814C233.854 540.282 233.035 537.543 232.621 534.647C231.72 528.336 232.877 522.206 235.583 516.935L234.895 512.11L231.235 486.479C225.07 491.435 217.361 495.99 208.516 499.303C189.97 506.252 166.157 507.816 141.292 495.845C135.689 493.148 133.334 486.419 136.031 480.816C138.729 475.213 145.457 472.858 151.06 475.555C169.702 484.53 187.064 483.293 200.615 478.216C207.457 475.653 213.261 472.127 217.642 468.507C218.503 467.796 219.288 467.099 220.001 466.423C213.052 464.058 206.652 460.073 201.417 454.67C197.011 450.75 193.256 445.949 190.44 440.364C184.789 429.155 183.929 416.786 187.093 405.589C183.853 404.365 181.045 401.971 179.363 398.635C175.801 391.568 178.641 382.951 185.708 379.388C191.345 376.547 197.967 377.779 202.225 381.98C202.708 381.569 203.201 381.167 203.703 380.773L199.947 373.324L211.218 374.558L216.929 364.762L220.685 372.212C221.375 372.022 222.068 371.847 222.762 371.688C221.889 365.748 224.838 359.661 230.493 356.81C237.56 353.247 246.177 356.088 249.74 363.154Z" fill="url(#paint1_linear_2584_1020)"/>
</g>
<g style="mix-blend-mode:hue" opacity="0.6">
<path fill-rule="evenodd" clip-rule="evenodd" d="M249.74 363.154C251.451 366.549 251.685 370.302 250.682 373.68C261.494 377.815 270.858 385.836 276.48 396.987C279.295 402.571 280.921 408.444 281.453 414.316C282.937 423.263 281.758 432.347 278.272 440.487C291.698 431.086 298.978 418.64 302.361 406.766C304.363 399.739 304.973 392.976 304.664 387.302C304.345 381.433 303.09 377.489 302.072 375.674C299.029 370.25 300.96 363.388 306.383 360.345C311.806 357.303 318.669 359.233 321.711 364.656C324.975 370.474 326.717 378.132 327.15 386.077C327.593 394.217 326.712 403.481 324.018 412.936C318.592 431.983 305.705 452.069 281.305 464.961C280.006 465.648 278.633 466.054 277.256 466.203L282.834 505.266L283.522 510.092L283.523 510.092C287.595 514.394 290.421 519.955 291.322 526.266C292.04 531.295 291.451 536.209 289.813 540.665L289.813 649.608C289.813 655.339 285.167 659.985 279.436 659.985C273.705 659.985 269.059 655.339 269.059 649.608L269.059 559.247C268.113 559.479 267.146 559.666 266.162 559.807C260.599 560.601 255.176 559.796 250.359 557.74L197.299 649.643C194.434 654.607 188.087 656.307 183.124 653.442C178.161 650.576 176.461 644.23 179.326 639.267L235.013 542.814C233.854 540.282 233.035 537.543 232.621 534.647C231.72 528.336 232.877 522.206 235.583 516.935L234.895 512.11L231.235 486.479C225.07 491.435 217.361 495.99 208.516 499.303C189.97 506.252 166.157 507.816 141.292 495.845C135.689 493.148 133.334 486.419 136.031 480.816C138.729 475.213 145.457 472.858 151.06 475.555C169.702 484.53 187.064 483.293 200.615 478.216C207.457 475.653 213.261 472.127 217.642 468.507C218.503 467.796 219.288 467.099 220.001 466.423C213.052 464.058 206.652 460.073 201.417 454.67C197.011 450.75 193.256 445.949 190.44 440.364C184.789 429.155 183.929 416.786 187.093 405.589C183.853 404.365 181.045 401.971 179.363 398.635C175.801 391.568 178.641 382.951 185.708 379.388C191.345 376.547 197.967 377.779 202.225 381.98C202.708 381.569 203.201 381.167 203.703 380.773L199.947 373.324L211.218 374.558L216.929 364.762L220.685 372.212C221.375 372.022 222.068 371.847 222.762 371.688C221.889 365.748 224.838 359.661 230.493 356.81C237.56 353.247 246.177 356.088 249.74 363.154Z" fill="url(#paint2_linear_2584_1020)"/>
</g>
<g filter="url(#filter1_d_2584_1020)">
<path d="M393.179 429.088C398.552 433.437 404.422 436.913 410.138 438.742L395.079 494.944L392.292 505.345L394.212 505.859C394.497 508.572 395.151 511.21 396.135 513.708C395.782 514.41 395.51 515.168 395.335 515.971L384.017 567.989L373.476 619.93C372.435 625.058 375.727 630.065 380.848 631.142C386.019 632.229 391.087 628.897 392.138 623.718L402.653 571.907L411.748 530.108C413.203 530.761 414.729 531.307 416.319 531.734C419.154 532.493 422.004 532.821 424.797 532.757C425.844 545.023 426.823 558.07 427.334 568.957C428.1 585.278 428.334 607.824 428.406 620.668C428.436 626.121 433.017 630.445 438.462 630.148C443.498 629.873 447.438 625.725 447.413 620.682C447.348 608.05 447.123 584.696 446.336 567.92C445.742 555.269 444.515 539.701 443.286 525.83C445.197 524.245 446.92 522.419 448.402 520.38L450.322 520.894L464.895 466.505C468.127 469.149 471.904 471.517 475.948 473.533C483.258 477.176 492.178 480.04 502.061 481.303C521.969 483.848 546.069 479.901 568.528 462.443C573.589 458.509 574.605 451.37 570.796 446.498C566.988 441.625 559.798 440.865 554.737 444.799C537.898 457.887 520.308 460.671 505.762 458.811C498.418 457.873 491.919 455.751 486.823 453.211C481.624 450.62 478.545 447.931 477.28 446.262C481.443 444.837 485.219 442.275 488.102 438.744L496.2 442.826C497.486 443.474 499.054 442.958 499.702 441.672C500.35 440.386 499.833 438.818 498.548 438.17L490.956 434.343L492.487 431.307L500.078 435.134C501.364 435.782 502.931 435.265 503.58 433.979C504.228 432.693 503.711 431.126 502.425 430.478L494.834 426.651L501.937 412.56C502.055 412.649 502.183 412.73 502.32 412.799L503.581 413.435C504.787 414.043 506.258 413.558 506.866 412.352C507.474 411.146 506.989 409.675 505.783 409.067L504.522 408.431C504.385 408.362 504.244 408.307 504.102 408.266L524.633 367.539L488.151 379.867L457.413 364.372L445.683 327.739L425.127 368.513C424.963 368.361 424.776 368.23 424.566 368.124L423.305 367.488C422.099 366.88 420.628 367.365 420.02 368.571C419.412 369.777 419.897 371.248 421.103 371.856L422.364 372.492C422.574 372.597 422.791 372.67 423.011 372.711L415.883 386.85L408.09 382.921C406.804 382.273 405.236 382.79 404.588 384.075C403.94 385.361 404.457 386.929 405.743 387.577L413.536 391.506L412.005 394.542L404.212 390.613C402.926 389.965 401.358 390.482 400.71 391.768C400.062 393.053 400.579 394.621 401.864 395.269L410.165 399.454C408.904 404.409 409.292 409.543 411.093 414.139C409.954 413.394 408.73 412.509 407.443 411.467C402.997 407.867 398.358 402.846 394.461 396.607C386.743 384.251 382.053 367.367 387.182 347.18C388.724 341.112 385.055 334.944 378.987 333.402C372.92 331.86 366.751 335.529 365.21 341.597C358.368 368.523 364.67 391.707 375.233 408.618C380.477 417.012 386.8 423.924 393.179 429.088Z" fill="url(#paint3_linear_2584_1020)"/>
</g>
<path d="M390.443 623.718C389.392 628.897 384.324 632.229 379.153 631.142V631.142C374.032 630.065 370.74 625.058 371.781 619.93L382.322 567.989L393.64 515.971C394.753 510.858 399.783 507.601 404.903 508.678V508.678C410.075 509.765 413.371 514.856 412.248 520.02L400.958 571.908L390.443 623.718Z" fill="#2BB3CD"/>
<path d="M445.717 620.682C445.743 625.725 441.803 629.873 436.767 630.148V630.148C431.322 630.445 426.741 626.121 426.711 620.668C426.639 607.824 426.405 585.278 425.639 568.957C424.616 547.169 421.718 516.728 420.155 501.207C419.61 495.791 423.691 491.003 429.127 490.706V490.706C434.173 490.43 438.546 494.132 439.055 499.16C440.59 514.336 443.595 545.649 444.64 567.92C445.428 584.696 445.653 608.05 445.717 620.682Z" fill="#2BB3CD"/>
<path fill-rule="evenodd" clip-rule="evenodd" d="M459.537 444.094C454.382 447.905 453.186 455.022 456.866 459.992C460.813 465.322 467.116 469.976 474.253 473.533C481.563 477.177 490.483 480.041 500.366 481.304C520.274 483.848 544.374 479.901 566.833 462.443C571.894 458.509 572.91 451.37 569.101 446.498C565.293 441.626 558.103 440.865 553.042 444.799C536.203 457.888 518.613 460.671 504.067 458.812C496.722 457.873 490.224 455.751 485.128 453.212C479.858 450.585 476.766 447.857 475.534 446.194C471.854 441.224 464.692 440.284 459.537 444.094Z" fill="#2BB3CD"/>
<path fill-rule="evenodd" clip-rule="evenodd" d="M456.866 459.992C453.186 455.022 454.382 447.905 459.537 444.094C464.692 440.284 471.854 441.224 475.534 446.194C476.766 447.857 479.858 450.585 485.128 453.212L474.253 473.533C467.116 469.976 460.813 465.322 456.866 459.992Z" fill="#1B4759"/>
<path d="M545.39 450.034L556.026 469.77C554.448 470.692 552.867 471.554 551.285 472.36L540.64 452.62C542.223 451.837 543.807 450.977 545.39 450.034Z" fill="#FFF79C"/>
<path fill-rule="evenodd" clip-rule="evenodd" d="M424.722 430.948C423.333 437.052 417.259 440.875 411.154 439.486C404.606 437.997 397.711 434.128 391.484 429.088C385.105 423.924 378.782 417.013 373.538 408.618C362.975 391.708 356.673 368.524 363.514 341.597C365.056 335.529 371.225 331.86 377.292 333.402C383.36 334.944 387.029 341.112 385.487 347.18C380.357 367.368 385.048 384.252 392.766 396.608C396.663 402.846 401.302 407.868 405.748 411.467C410.347 415.19 414.139 416.915 416.183 417.38C422.288 418.769 426.11 424.843 424.722 430.948Z" fill="#2BB3CD"/>
<path fill-rule="evenodd" clip-rule="evenodd" d="M411.154 439.486C417.259 440.875 423.333 437.052 424.722 430.948C426.11 424.843 422.288 418.769 416.183 417.38C414.139 416.915 410.347 415.19 405.748 411.467L391.484 429.088C397.711 434.128 404.606 437.997 411.154 439.486Z" fill="#1B4759"/>
<path d="M383.814 356.078L361.213 354.139C361.013 355.913 360.87 357.667 360.779 359.401L383.387 361.347C383.457 359.622 383.597 357.865 383.814 356.078Z" fill="#FFF79C"/>
<circle cx="422.398" cy="502.719" r="30.0386" transform="rotate(15 422.398 502.719)" fill="#2BB3CD"/>
<path d="M409.637 434.286C413.931 418.261 430.402 408.752 446.427 413.045V413.045C462.451 417.339 471.961 433.81 467.667 449.835L448.627 520.894L390.597 505.345L409.637 434.286Z" fill="#1B4759"/>
<path d="M428.445 429.35L428.68 428.474C430.543 421.52 437.691 417.394 444.645 419.257C451.599 421.12 455.726 428.268 453.862 435.222L453.628 436.098C451.764 443.052 444.617 447.179 437.662 445.316C430.708 443.452 426.582 436.304 428.445 429.35Z" fill="#1F8B95" stroke="#FFF79C" stroke-width="3.40059"/>
<path fill-rule="evenodd" clip-rule="evenodd" d="M414.286 466.865C416.716 457.794 426.039 452.411 435.11 454.842C444.18 457.272 449.563 466.595 447.133 475.666C444.702 484.736 435.379 490.119 426.308 487.689C417.238 485.258 411.855 475.935 414.286 466.865ZM432.75 457.429C425.815 456.397 419.059 460.711 417.201 467.646C416.304 470.992 416.701 474.379 418.083 477.279L429.676 468.903L432.75 457.429ZM428.571 473.026L419.668 479.849C421.164 481.776 423.172 483.326 425.559 484.268L428.571 473.026ZM428.468 485.07C431.011 485.486 433.536 485.18 435.81 484.287L431.472 473.859L428.468 485.07ZM432.577 469.736L438.487 482.888C441.207 481.069 443.304 478.293 444.217 474.885C446.093 467.884 442.31 460.699 435.671 458.189L432.577 469.736Z" fill="#FFF79C" stroke="#FFF79C" stroke-width="1.03048"/>
<path fill-rule="evenodd" clip-rule="evenodd" d="M522.938 367.539L509.059 395.071L509.059 395.071L493.139 426.651L500.73 430.478C502.016 431.126 502.532 432.693 501.884 433.979C501.236 435.265 499.668 435.782 498.383 435.134L490.792 431.307L489.261 434.343L496.852 438.17C498.138 438.819 498.655 440.386 498.007 441.672C497.359 442.958 495.791 443.475 494.505 442.826L486.408 438.744C479.435 447.285 467.237 450.153 456.985 444.985L420.951 426.819C410.699 421.651 405.75 410.139 408.47 399.454L400.169 395.27C398.884 394.621 398.367 393.054 399.015 391.768C399.663 390.482 401.231 389.965 402.516 390.614L410.311 394.543L411.841 391.506L404.048 387.577C402.762 386.929 402.245 385.361 402.893 384.076C403.541 382.79 405.109 382.273 406.395 382.921L414.189 386.85L431.639 352.234L431.64 352.234L443.988 327.739L455.719 364.373L486.455 379.867L522.938 367.539Z" fill="#2BB3CD"/>
<path d="M441.498 344.763L434.865 357.921L448.023 364.555L441.498 344.763Z" fill="#87D1EE"/>
<path d="M510.732 379.665L504.098 392.823L490.94 386.19L510.732 379.665Z" fill="#87D1EE"/>
<path d="M425.697 401.792C421.752 409.618 424.898 419.16 432.724 423.106L452.968 433.311C460.794 437.256 470.337 434.11 474.282 426.284L478.058 418.794C482.004 410.968 478.857 401.425 471.031 397.48L450.788 387.274C442.961 383.329 433.419 386.475 429.473 394.301L425.697 401.792Z" fill="#F5F6E8"/>
<path d="M419.209 401.568C414.926 410.065 418.342 420.426 426.839 424.709L454.775 438.792C463.272 443.076 473.633 439.66 477.916 431.163V431.163C482.2 422.666 478.784 412.305 470.287 408.022L442.351 393.939C433.854 389.655 423.493 393.071 419.209 401.568V401.568Z" fill="#F5F6E8"/>
<path fill-rule="evenodd" clip-rule="evenodd" d="M454.545 407.353L454.546 407.353C454.828 407.393 455.108 407.478 455.376 407.613C456.148 408.002 456.65 408.719 456.808 409.521C457.156 410.856 456.495 412.412 454.936 412.884L450.525 414.22L448.998 417.247C448.325 419.252 449.114 421.289 450.696 422.087C452.45 422.971 454.849 422.165 455.958 419.967C455.974 419.935 455.989 419.903 456.005 419.871C456.005 419.871 456.245 419.396 456.722 419.636C457.199 419.877 456.96 420.353 456.96 420.353C456.945 420.385 456.929 420.417 456.913 420.448C455.589 423.075 452.59 424.235 450.216 423.038C448.57 422.208 447.656 420.463 447.692 418.595C446.212 419.735 444.265 420.038 442.619 419.208C440.244 418.011 439.393 414.911 440.718 412.284C440.734 412.253 440.75 412.221 440.767 412.19C440.767 412.19 441.006 411.714 441.484 411.955C441.962 412.196 441.722 412.671 441.722 412.671C441.705 412.703 441.689 412.734 441.673 412.766C440.565 414.964 441.344 417.372 443.098 418.257C444.681 419.055 446.788 418.477 447.999 416.742L448.297 416.151C448.303 416.139 448.309 416.126 448.316 416.114C448.322 416.102 448.328 416.09 448.334 416.078L449.526 413.715L447.976 409.375C447.428 407.84 448.288 406.381 449.572 405.868C450.31 405.52 451.182 405.499 451.952 405.887C452.22 406.022 452.455 406.197 452.655 406.4L452.655 406.4C452.953 406.703 453.171 407.071 453.3 407.471C453.699 407.337 454.125 407.294 454.545 407.353Z" fill="#143441"/>
<path d="M497.103 408.284L499.288 409.385L498.187 411.57L497.232 413.463C492.393 423.063 480.687 426.922 471.088 422.082C461.488 417.243 457.629 405.537 462.468 395.938L463.423 394.044L464.524 391.86L466.708 392.961L497.103 408.284Z" fill="#DC166D" stroke="#1B4759" stroke-width="4.89265"/>
<path d="M492.614 415.905C487.571 421.592 479.219 423.442 472.189 419.898C465.158 416.353 461.678 408.539 463.251 401.102L492.614 415.905Z" fill="#EF937E"/>
<path d="M486.868 420.153C482.33 422.224 476.956 422.3 472.189 419.897C467.422 417.494 464.287 413.128 463.253 408.248L486.868 420.153Z" fill="#FFF79C"/>
<rect width="6.30354" height="4.89123" rx="2.44562" transform="matrix(-0.892951 -0.450154 -0.450154 0.892951 506.272 410.168)" fill="#1B4759"/>
<rect width="6.30354" height="4.89123" rx="2.44562" transform="matrix(-0.892951 -0.450154 -0.450154 0.892951 465.784 389.757)" fill="#1B4759"/>
<path d="M426.393 372.638L424.209 371.537L423.108 373.721L422.153 375.614C417.314 385.214 421.173 396.919 430.773 401.759C440.373 406.598 452.078 402.739 456.918 393.139L457.872 391.246L458.973 389.062L456.789 387.961L426.393 372.638Z" fill="#DC166D" stroke="#1B4759" stroke-width="4.89265"/>
<path d="M422.936 380.779C421.364 388.216 424.843 396.03 431.874 399.575C438.905 403.119 447.256 401.269 452.3 395.582L422.936 380.779Z" fill="#EF937E"/>
<path d="M422.938 387.925C423.972 392.805 427.107 397.171 431.874 399.574C436.641 401.977 442.015 401.901 446.553 399.83L422.938 387.925Z" fill="#FFF79C"/>
<rect x="419.426" y="366.387" width="6.30354" height="4.89123" rx="2.44562" transform="rotate(26.7536 419.426 366.387)" fill="#1B4759"/>
<g style="mix-blend-mode:hard-light" opacity="0.6">
<path d="M391.484 429.088C396.857 433.437 402.727 436.913 408.443 438.742L393.383 494.944L390.596 505.345L392.516 505.859C392.802 508.572 393.456 511.21 394.44 513.708C394.086 514.41 393.815 515.168 393.64 515.971L382.322 567.989L371.78 619.93C370.74 625.058 374.032 630.065 379.152 631.142C384.324 632.229 389.392 628.897 390.443 623.718L400.958 571.907L410.053 530.108C411.507 530.761 413.034 531.307 414.624 531.734C417.459 532.493 420.308 532.821 423.102 532.757C424.149 545.023 425.128 558.07 425.639 568.957C426.405 585.278 426.639 607.824 426.71 620.668C426.741 626.121 431.322 630.445 436.767 630.148C441.803 629.873 445.743 625.725 445.717 620.682C445.653 608.05 445.428 584.696 444.64 567.92C444.047 555.269 442.82 539.701 441.59 525.83C443.502 524.245 445.224 522.419 446.707 520.38L448.627 520.894L463.2 466.505C466.432 469.149 470.208 471.517 474.252 473.533C481.563 477.176 490.483 480.04 500.366 481.303C520.274 483.848 544.373 479.901 566.833 462.443C571.894 458.509 572.91 451.37 569.101 446.498C565.293 441.625 558.103 440.865 553.042 444.799C536.203 457.887 518.613 460.671 504.067 458.811C496.722 457.873 490.224 455.751 485.128 453.211C479.929 450.62 476.85 447.931 475.585 446.262C479.748 444.837 483.524 442.275 486.407 438.744L494.505 442.826C495.791 443.474 497.359 442.958 498.007 441.672C498.655 440.386 498.138 438.818 496.852 438.17L489.261 434.343L490.791 431.307L498.383 435.134C499.668 435.782 501.236 435.265 501.884 433.979C502.533 432.693 502.016 431.126 500.73 430.478L493.139 426.651L500.242 412.56C500.36 412.649 500.488 412.73 500.625 412.799L501.886 413.435C503.092 414.043 504.563 413.558 505.171 412.352C505.779 411.146 505.294 409.675 504.088 409.067L502.827 408.431C502.69 408.362 502.549 408.307 502.407 408.266L522.938 367.539L486.455 379.867L455.718 364.372L443.988 327.739L423.432 368.513C423.268 368.361 423.08 368.23 422.871 368.124L421.61 367.488C420.404 366.88 418.933 367.365 418.325 368.571C417.717 369.777 418.202 371.248 419.408 371.856L420.669 372.492C420.879 372.597 421.096 372.67 421.316 372.711L414.188 386.85L406.395 382.921C405.109 382.273 403.541 382.79 402.893 384.075C402.245 385.361 402.762 386.929 404.047 387.577L411.841 391.506L410.31 394.542L402.516 390.613C401.231 389.965 399.663 390.482 399.015 391.768C398.367 393.053 398.883 394.621 400.169 395.269L408.47 399.454C407.208 404.409 407.596 409.543 409.398 414.139C408.258 413.394 407.035 412.509 405.748 411.467C401.302 407.867 396.663 402.846 392.766 396.607C385.048 384.251 380.357 367.367 385.487 347.18C387.029 341.112 383.36 334.944 377.292 333.402C371.225 331.86 365.056 335.529 363.514 341.597C356.673 368.523 362.975 391.707 373.538 408.618C378.782 417.012 385.105 423.924 391.484 429.088Z" fill="url(#paint4_linear_2584_1020)"/>
</g>
<g style="mix-blend-mode:hue" opacity="0.6">
<path d="M391.484 429.088C396.857 433.437 402.727 436.913 408.443 438.742L393.383 494.944L390.596 505.345L392.516 505.859C392.802 508.572 393.456 511.21 394.44 513.708C394.086 514.41 393.815 515.168 393.64 515.971L382.322 567.989L371.78 619.93C370.74 625.058 374.032 630.065 379.152 631.142C384.324 632.229 389.392 628.897 390.443 623.718L400.958 571.907L410.053 530.108C411.507 530.761 413.034 531.307 414.624 531.734C417.459 532.493 420.308 532.821 423.102 532.757C424.149 545.023 425.128 558.07 425.639 568.957C426.405 585.278 426.639 607.824 426.71 620.668C426.741 626.121 431.322 630.445 436.767 630.148C441.803 629.873 445.743 625.725 445.717 620.682C445.653 608.05 445.428 584.696 444.64 567.92C444.047 555.269 442.82 539.701 441.59 525.83C443.502 524.245 445.224 522.419 446.707 520.38L448.627 520.894L463.2 466.505C466.432 469.149 470.208 471.517 474.252 473.533C481.563 477.176 490.483 480.04 500.366 481.303C520.274 483.848 544.373 479.901 566.833 462.443C571.894 458.509 572.91 451.37 569.101 446.498C565.293 441.625 558.103 440.865 553.042 444.799C536.203 457.887 518.613 460.671 504.067 458.811C496.722 457.873 490.224 455.751 485.128 453.211C479.929 450.62 476.85 447.931 475.585 446.262C479.748 444.837 483.524 442.275 486.407 438.744L494.505 442.826C495.791 443.474 497.359 442.958 498.007 441.672C498.655 440.386 498.138 438.818 496.852 438.17L489.261 434.343L490.791 431.307L498.383 435.134C499.668 435.782 501.236 435.265 501.884 433.979C502.533 432.693 502.016 431.126 500.73 430.478L493.139 426.651L500.242 412.56C500.36 412.649 500.488 412.73 500.625 412.799L501.886 413.435C503.092 414.043 504.563 413.558 505.171 412.352C505.779 411.146 505.294 409.675 504.088 409.067L502.827 408.431C502.69 408.362 502.549 408.307 502.407 408.266L522.938 367.539L486.455 379.867L455.718 364.372L443.988 327.739L423.432 368.513C423.268 368.361 423.08 368.23 422.871 368.124L421.61 367.488C420.404 366.88 418.933 367.365 418.325 368.571C417.717 369.777 418.202 371.248 419.408 371.856L420.669 372.492C420.879 372.597 421.096 372.67 421.316 372.711L414.188 386.85L406.395 382.921C405.109 382.273 403.541 382.79 402.893 384.075C402.245 385.361 402.762 386.929 404.047 387.577L411.841 391.506L410.31 394.542L402.516 390.613C401.231 389.965 399.663 390.482 399.015 391.768C398.367 393.053 398.883 394.621 400.169 395.269L408.47 399.454C407.208 404.409 407.596 409.543 409.398 414.139C408.258 413.394 407.035 412.509 405.748 411.467C401.302 407.867 396.663 402.846 392.766 396.607C385.048 384.251 380.357 367.367 385.487 347.18C387.029 341.112 383.36 334.944 377.292 333.402C371.225 331.86 365.056 335.529 363.514 341.597C356.673 368.523 362.975 391.707 373.538 408.618C378.782 417.012 385.105 423.924 391.484 429.088Z" fill="url(#paint5_linear_2584_1020)"/>
</g>
</g>
<defs>
<filter id="filter0_d_2584_1020" x="113.696" y="331.758" width="237.374" height="349.741" filterUnits="userSpaceOnUse" color-interpolation-filters="sRGB">
<feFlood flood-opacity="0" result="BackgroundImageFix"/>
<feColorMatrix in="SourceAlpha" type="matrix" values="0 0 0 0 0 0 0 0 0 0 0 0 0 0 0 0 0 0 127 0" result="hardAlpha"/>
<feOffset/>
<feGaussianBlur stdDeviation="11.2572"/>
<feColorMatrix type="matrix" values="0 0 0 0 0 0 0 0 0 0 0 0 0 0 0 0 0 0 0.5 0"/>
<feBlend mode="normal" in2="BackgroundImageFix" result="effect1_dropShadow_2584_1020"/>
<feBlend mode="normal" in="SourceGraphic" in2="effect1_dropShadow_2584_1020" result="shape"/>
</filter>
<filter id="filter1_d_2584_1020" x="339.691" y="305.073" width="256.077" height="348.941" filterUnits="userSpaceOnUse" color-interpolation-filters="sRGB">
<feFlood flood-opacity="0" result="BackgroundImageFix"/>
<feColorMatrix in="SourceAlpha" type="matrix" values="0 0 0 0 0 0 0 0 0 0 0 0 0 0 0 0 0 0 127 0" result="hardAlpha"/>
<feOffset/>
<feGaussianBlur stdDeviation="11.333"/>
<feColorMatrix type="matrix" values="0 0 0 0 0 0 0 0 0 0 0 0 0 0 0 0 0 0 0.5 0"/>
<feBlend mode="normal" in2="BackgroundImageFix" result="effect1_dropShadow_2584_1020"/>
<feBlend mode="normal" in="SourceGraphic" in2="effect1_dropShadow_2584_1020" result="shape"/>
</filter>
<linearGradient id="paint0_linear_2584_1020" x1="228.519" y1="354.717" x2="243.04" y2="660.785" gradientUnits="userSpaceOnUse">
<stop stop-color="#E18AFF"/>
<stop offset="1" stop-color="#E18AFF" stop-opacity="0"/>
</linearGradient>
<linearGradient id="paint1_linear_2584_1020" x1="223.905" y1="408.514" x2="242.612" y2="703.98" gradientUnits="userSpaceOnUse">
<stop stop-color="#BE74D7" stop-opacity="0"/>
<stop offset="1" stop-color="#021C40"/>
</linearGradient>
<linearGradient id="paint2_linear_2584_1020" x1="177" y1="584" x2="340.536" y2="257.268" gradientUnits="userSpaceOnUse">
<stop offset="0.203125" stop-color="#8D1EB1" stop-opacity="0"/>
<stop offset="0.949472" stop-color="#D548FF"/>
</linearGradient>
<linearGradient id="paint3_linear_2584_1020" x1="507" y1="352.5" x2="467.729" y2="631.347" gradientUnits="userSpaceOnUse">
<stop stop-color="#E18AFF"/>
<stop offset="1" stop-color="#E18AFF" stop-opacity="0"/>
</linearGradient>
<linearGradient id="paint4_linear_2584_1020" x1="434.072" y1="370.638" x2="506.328" y2="655.033" gradientUnits="userSpaceOnUse">
<stop stop-color="#BE74D7" stop-opacity="0"/>
<stop offset="1" stop-color="#021C40"/>
</linearGradient>
<linearGradient id="paint5_linear_2584_1020" x1="488" y1="305" x2="430.691" y2="518.144" gradientUnits="userSpaceOnUse">
<stop stop-color="#DB7BF7" stop-opacity="0.72"/>
<stop offset="0.949472" stop-color="#AB26C9" stop-opacity="0"/>
</linearGradient>
<clipPath id="clip0_2584_1020">
<rect width="607" height="600" fill="white"/>
</clipPath>
</defs>
</svg>
