<svg width="607" height="600" viewBox="0 0 607 600" fill="none" xmlns="http://www.w3.org/2000/svg">
<g clip-path="url(#clip0_1701_2613)">
<path d="M565.338 185.323C608.782 185.323 644 150.105 644 106.662C644 63.218 608.782 28 565.338 28C521.895 28 486.677 63.218 486.677 106.662C486.677 150.105 521.895 185.323 565.338 185.323Z" fill="#6FCDDF"/>
<mask id="mask0_1701_2613" style="mask-type:alpha" maskUnits="userSpaceOnUse" x="486" y="28" width="159" height="158">
<path d="M565.338 185.323C608.782 185.323 644 150.105 644 106.662C644 63.218 608.782 28 565.338 28C521.895 28 486.677 63.218 486.677 106.662C486.677 150.105 521.895 185.323 565.338 185.323Z" fill="#6FCDDF"/>
</mask>
<g mask="url(#mask0_1701_2613)">
<path opacity="0.3" d="M629.16 146.996C630.242 147.126 632.708 159.414 626.174 169.841C622.194 176.158 616.526 179.187 613.756 180.442C613.107 182.043 610.771 187.105 605.579 189.139C598.742 191.822 589.526 188.317 584.334 179.793C579.574 180.615 563.435 182.865 547.599 173.346C538.859 168.067 533.624 161.318 530.898 157.034C521.119 156.212 514.499 151.496 514.196 146.693C514.11 145.741 514.239 143.924 516.057 141.544C519.085 141.76 524.018 142.496 529.34 145.222C536.955 149.159 541.066 154.914 542.796 157.726C544.614 155.044 548.162 154.092 551.017 155.476C554.046 156.947 555.431 160.625 554.133 163.827C555.388 163.048 560.277 160.106 566.724 161.188C575.421 162.659 579.358 170.231 579.791 171.053C584.031 164.952 591.43 162.875 596.709 165.514C601.858 168.067 602.939 174.125 603.069 174.861C609.04 166.942 614.362 163.005 618.256 160.842C619.641 160.063 622.237 158.765 624.617 155.952C628.468 151.409 628.511 146.866 629.16 146.952V146.996Z" fill="#E9F6F9"/>
<path opacity="0.3" d="M507.965 53.434C507.792 54.1263 506.581 58.5828 502.081 60.876C496.716 63.5586 491.567 60.6598 491.177 60.4434C491.264 61.3953 491.74 66.5443 488.365 69.9192C484.384 73.8566 476.553 73.9865 470.495 68.9241C472.702 70.3087 473.827 72.9048 473.308 75.4577C472.832 77.924 470.971 79.8709 468.505 80.4334C469.11 80.3036 474.476 79.222 478.976 82.9863C483.735 87.0103 483.259 92.9379 483.216 93.4572C485.25 92.3322 489.836 90.1686 495.547 90.9042C503.336 91.8994 510.042 97.7407 513.071 105.918C530.551 115.091 539.075 120.24 538.513 121.452C538.037 122.49 530.681 120.5 516.359 115.394C511.427 118.423 505.24 118.596 500.35 115.827C493.99 112.192 492.821 105.356 492.692 104.491C482.956 107.346 474.13 104.62 471.144 98.9523C470.582 97.8706 469.543 95.3177 470.279 91.2937C469.933 91.2072 461.755 89.0439 459.938 81.9479C459.202 79.1355 459.765 76.669 460.24 75.2844C455.568 72.8181 454.096 66.9337 456.649 62.9531C458.899 59.4483 463.875 58.107 468.029 60.2271C469.803 57.8041 472.702 54.6888 477.029 53.4773C481.355 52.2658 484.557 53.6936 489.23 54.4724C493.471 55.1647 499.701 55.5108 507.922 53.3907L507.965 53.434Z" fill="#E9F6FB"/>
<path opacity="0.3" d="M646.683 93.4648C650.924 96.3205 658.496 102.248 664.121 112.503C668.447 120.378 669.962 127.69 670.524 132.363C670.524 133.315 670.265 138.896 666.024 142.098C661.265 145.69 653.303 144.911 647.722 139.286C644.217 140.497 639.544 141.406 634.525 140.151C627.689 138.42 625.352 133.791 617.088 129.118C613.583 127.127 608.954 125.051 602.982 123.753C598.569 120.724 594.026 117.695 589.483 114.666C582.906 110.296 576.373 106.099 569.926 102.032C573.949 101.945 582.646 102.335 591.343 107.787C595.584 110.426 598.569 113.498 600.516 115.921C601.598 115.661 619.9 111.335 629.506 122.368C630.891 123.969 632.578 126.392 633.66 129.94C636.515 128.382 641.751 126.002 648.457 126.132C650.967 126.132 653.174 126.522 654.991 126.998C653.736 125.656 652.049 123.536 651.183 120.551C649.106 113.758 653.13 109.388 651.659 102.465C651.183 100.171 649.972 97.0129 646.64 93.5514L646.683 93.4648Z" fill="#E9F6F9"/>
<path opacity="0.3" d="M550.412 26.2706C546.821 25.6648 543.965 26.1408 542.321 26.5735C540.936 26.9196 536.479 28.2176 533.191 32.4579C531.547 34.6213 530.768 36.7414 530.422 38.0394C530.725 37.9096 534.446 36.5683 537.215 38.6019C539.984 40.6788 540.763 45.4816 538.08 49.3757C542.494 45.2652 549.2 44.9192 553.96 48.3806C558.503 51.7123 560.19 57.8132 558.07 63.1352C562.657 59.2844 568.887 58.3325 573.95 60.7122C579.618 63.3516 581.349 68.9764 581.608 69.8851C582.733 63.8275 587.796 59.9334 592.512 60.4093C597.315 60.8853 599.824 65.688 600.041 66.0775C600.733 65.6015 603.329 63.8273 606.877 64.26C609.689 64.6061 613.324 66.3371 613.8 68.8034C614.535 72.6975 607.266 77.1107 603.416 78.8414C591.906 83.9903 579.315 78.9712 573.95 76.4184C571.83 77.5866 567.07 79.8366 560.796 79.4472C558.849 79.3174 551.234 78.755 545.436 72.4811C541.672 68.4139 540.503 63.9571 540.071 61.837C531.114 62.7889 523.975 58.5055 521.985 52.8374C521.206 50.6307 521.379 47.948 522.85 44.6163C524.754 35.1838 530.941 27.8283 538.902 25.7514C543.705 24.4966 547.946 25.4918 550.369 26.3139L550.412 26.2706Z" fill="#E9F6FB"/>
</g>
<path opacity="0.6" d="M565.338 185.323C608.782 185.323 644 150.105 644 106.662C644 63.218 608.782 28 565.338 28C521.895 28 486.677 63.218 486.677 106.662C486.677 150.105 521.895 185.323 565.338 185.323Z" fill="url(#paint0_linear_1701_2613)"/>
<path fill-rule="evenodd" clip-rule="evenodd" d="M183.38 140.879C182.931 139.421 180.867 139.421 180.418 140.879L178.787 146.175C177.662 149.167 176.891 149.977 173.637 150.73L170.185 151.19C168.392 151.429 168.392 154.023 170.185 154.262L173.63 154.721C176.902 155.496 177.667 156.676 178.8 159.699L178.808 159.678L180.423 164.748C180.881 166.187 182.917 166.187 183.375 164.748L184.99 159.678L184.998 159.699C186.131 156.676 186.896 155.496 190.167 154.721L193.613 154.262C195.406 154.023 195.406 151.429 193.613 151.19L190.16 150.73C186.907 149.977 186.136 149.167 185.01 146.175L183.38 140.879Z" fill="#EDD7FF"/>
<path opacity="0.7" fill-rule="evenodd" clip-rule="evenodd" d="M206.732 129.093C206.284 127.636 204.22 127.636 203.771 129.093L202.851 132.08C201.984 134.386 201.388 135.01 198.881 135.591L198.855 135.594C197.062 135.833 197.062 138.427 198.855 138.666L198.874 138.669C201.398 139.267 201.988 140.177 202.862 142.508L202.868 142.492L203.775 145.341C204.234 146.78 206.27 146.78 206.728 145.341L207.636 142.492L207.642 142.508C208.516 140.177 209.106 139.267 211.629 138.669L211.649 138.666C213.442 138.427 213.442 135.833 211.649 135.594L211.622 135.591C209.114 135.01 208.519 134.385 207.651 132.078L206.732 129.093Z" fill="#EDD7FF"/>
<path fill-rule="evenodd" clip-rule="evenodd" d="M227.905 504.411C227.325 502.53 224.661 502.53 224.082 504.411L222.896 508.264C221.775 511.242 221.008 512.048 217.769 512.798L217.736 512.803C215.422 513.111 215.422 516.459 217.736 516.768L217.762 516.771C221.019 517.543 221.78 518.718 222.908 521.726L222.916 521.706L224.088 525.384C224.679 527.241 227.307 527.241 227.899 525.384L229.071 521.706L229.078 521.726C230.206 518.718 230.968 517.543 234.225 516.771L234.251 516.768C236.565 516.459 236.565 513.111 234.251 512.803L234.218 512.798C230.979 512.048 230.211 511.242 229.091 508.264L227.905 504.411Z" fill="#EDD7FF"/>
<path fill-rule="evenodd" clip-rule="evenodd" d="M355.905 319.411C355.325 317.53 352.661 317.53 352.082 319.411L350.896 323.264C349.775 326.242 349.008 327.048 345.769 327.798L345.736 327.803C343.422 328.111 343.422 331.459 345.736 331.768L345.762 331.771C349.019 332.543 349.78 333.718 350.908 336.726L350.916 336.706L352.088 340.384C352.679 342.241 355.307 342.241 355.899 340.384L357.071 336.706L357.078 336.726C358.206 333.718 358.968 332.543 362.225 331.771L362.251 331.768C364.565 331.459 364.565 328.111 362.251 327.803L362.218 327.798C358.979 327.048 358.211 326.242 357.091 323.264L355.905 319.411Z" fill="#EDD7FF"/>
<path fill-rule="evenodd" clip-rule="evenodd" d="M569.729 259C570.108 260.231 571.85 260.231 572.229 259L573.605 254.53C574.555 252.005 575.206 251.322 577.951 250.686L580.865 250.298C582.379 250.096 582.379 247.907 580.865 247.705L577.957 247.318C575.196 246.663 574.551 245.668 573.594 243.117L573.588 243.134L572.225 238.855C571.838 237.641 570.12 237.641 569.733 238.855L568.37 243.134L568.363 243.117C567.407 245.668 566.761 246.663 564 247.318L561.092 247.705C559.579 247.907 559.579 250.096 561.092 250.298L564.006 250.686C566.752 251.322 567.403 252.005 568.353 254.53L569.729 259Z" fill="#EDD7FF"/>
<circle opacity="0.5" cx="405.5" cy="300.5" r="4.5" fill="#EDD7FF"/>
<circle opacity="0.6" cx="551.269" cy="225.269" r="3.26923" transform="rotate(-180 551.269 225.269)" fill="#EDD7FF"/>
<circle opacity="0.6" cx="150.508" cy="551.507" r="5.5" transform="rotate(-168.219 150.508 551.507)" fill="#EDD7FF"/>
<circle opacity="0.3" cx="11.3057" cy="510.306" r="9.55589" transform="rotate(-168.219 11.3057 510.306)" fill="#EDD7FF"/>
<circle opacity="0.5" cx="212.277" cy="483.086" r="3.42234" transform="rotate(-168.219 212.277 483.086)" fill="#EDD7FF"/>
<path fill-rule="evenodd" clip-rule="evenodd" d="M394.398 215.454C471.17 269.596 570 395 461.59 497.41L461.594 497.762C421.984 542.548 308.06 603.804 127.499 613L122 624.5L462.886 616.368L462.908 618.361L671.636 616.086L669.69 437.575C662.643 405.895 617.701 326.098 402.704 206.009L394.398 215.454Z" fill="#EFB450"/>
<path fill-rule="evenodd" clip-rule="evenodd" d="M394.398 215.454C471.17 269.596 570 395 461.59 497.41L461.594 497.762C421.984 542.548 308.06 603.804 127.499 613L122 624.5L462.886 616.368L462.908 618.361L671.636 616.086L669.69 437.575C662.643 405.895 617.701 326.098 402.704 206.009L394.398 215.454Z" fill="url(#paint1_linear_1701_2613)"/>
<path d="M638.338 401.436C600.112 344.249 495.93 272.98 448.616 244.494C581.777 350.249 595.591 424.903 598.081 469.879C598.74 530.375 561.702 588.282 539.588 608.524L615.584 607.696L640.07 560.427C671.223 482.483 651.895 421.956 638.338 401.436Z" fill="#FDD46C"/>
<path d="M469.723 621.287C605 554 574 400 533.929 364.463C533.929 592 278.001 609.5 192 628.5L469.723 621.287Z" fill="#FDD56C"/>
<path d="M327.639 190.861L328.786 217.52C328.855 219.306 329.57 221.054 330.795 222.375L350.801 244.399C351.749 245.441 352.833 246.314 354.053 247.017L381.778 263.476C382.672 264.029 383.769 263.014 383.296 262.075L371.459 238.086C371.027 237.236 370.799 236.271 370.822 235.341L370.733 218.186L327.7 190.855L327.639 190.861Z" fill="#FF5F3C"/>
<path d="M327.639 190.861L328.786 217.52C328.855 219.306 329.57 221.054 330.795 222.375L350.801 244.399C351.749 245.441 352.833 246.314 354.053 247.017L381.778 263.476C382.672 264.029 383.769 263.014 383.296 262.075L371.459 238.086C371.027 237.236 370.799 236.271 370.822 235.341L370.733 218.186L327.7 190.855L327.639 190.861Z" fill="white" fill-opacity="0.2"/>
<path d="M364.754 144.762L391.043 140.192C392.802 139.878 394.662 140.203 396.214 141.118L422.002 155.961C423.222 156.665 424.306 157.537 425.254 158.579L447.252 182.151C447.983 182.907 447.225 184.195 446.207 183.934L420.244 177.49C419.322 177.25 418.33 177.233 417.426 177.455L400.648 181.029L364.76 144.823L364.754 144.762Z" fill="#FF5F3C"/>
<path d="M364.754 144.762L391.043 140.192C392.802 139.878 394.662 140.203 396.214 141.118L422.002 155.961C423.222 156.665 424.306 157.537 425.254 158.579L447.252 182.151C447.983 182.907 447.225 184.195 446.207 183.934L420.244 177.49C419.322 177.25 418.33 177.233 417.426 177.455L400.648 181.029L364.76 144.823L364.754 144.762Z" fill="white" fill-opacity="0.2"/>
<path d="M407.629 182.966L372.124 227.067C350.611 220.019 314.571 204.458 285.729 169.625C278.151 160.454 272.155 151.328 267.428 142.777C264.108 136.085 260.736 128.346 257.687 119.583C255.001 111.894 252.979 104.628 251.458 97.9881C251.049 96.2076 252.284 94.4661 254.118 94.268C261.122 93.5427 269.592 93.2158 279.123 94.1349C288.431 94.9854 296.446 96.7487 302.994 98.6704C312.369 101.864 322.441 106.065 332.855 111.713C371.553 132.709 394.897 162.723 407.69 182.96L407.629 182.966Z" fill="white"/>
<path d="M294.885 96.6077C290.135 95.5743 284.874 94.6888 279.124 94.1345C269.626 93.2427 261.156 93.5696 254.119 94.2677C252.284 94.4657 251.05 96.2072 251.458 97.9877C252.98 104.627 255.001 111.893 257.687 119.582C259.606 125.035 261.634 130.073 263.684 134.738C278.724 126.805 288.738 112.426 294.851 96.5804L294.885 96.6077Z" fill="#FF5F3C"/>
<path d="M294.885 96.6077C290.135 95.5743 284.874 94.6888 279.124 94.1345C269.626 93.2427 261.156 93.5696 254.119 94.2677C252.284 94.4657 251.05 96.2072 251.458 97.9877C252.98 104.627 255.001 111.893 257.687 119.582C259.606 125.035 261.634 130.073 263.684 134.738C278.724 126.805 288.738 112.426 294.851 96.5804L294.885 96.6077Z" fill="white" fill-opacity="0.2"/>
<path d="M411.139 196.844L386.351 227.633C385.615 228.548 384.384 228.897 383.258 228.493L373.714 224.884L405.756 185.086L411.318 193.639C411.981 194.619 411.875 195.93 411.139 196.844Z" fill="#6FCDDF"/>
<path opacity="0.9" d="M263.597 134.687C268.539 130.906 277.202 124.905 283.223 117.08C285.391 114.248 287.315 111.443 288.974 108.758C291.731 104.224 293.264 100.015 294.796 96.4478C296.54 96.8471 298.496 97.5668 300.24 97.966C297.906 103.847 294.276 111.464 287.799 119.648C280.811 128.536 271.174 136.021 265.73 139.733C265.062 138.413 264.957 137.514 264.289 136.195L263.597 134.687Z" fill="#6FCDDF"/>
<path d="M342.721 164.986C347.405 159.168 343.892 148.568 334.876 141.308C325.859 134.049 314.753 132.881 310.069 138.699C305.385 144.516 308.898 155.117 317.914 162.376C326.931 169.635 338.037 170.804 342.721 164.986Z" fill="white"/>
<path d="M339.944 162.75C343.829 157.924 340.913 149.128 333.43 143.104C325.948 137.08 316.732 136.109 312.846 140.935C308.961 145.761 311.877 154.557 319.36 160.582C326.842 166.606 336.058 167.577 339.944 162.75Z" fill="#0E144C"/>
<path d="M336.905 138.489C342.131 142.696 345.564 148.016 346.94 153.157C348.316 158.299 347.617 163.141 344.793 166.648C341.97 170.155 337.389 171.872 332.072 171.625C326.756 171.379 320.825 169.16 315.599 164.953C310.373 160.746 306.94 155.425 305.564 150.284C304.188 145.142 304.888 140.3 307.711 136.794C310.534 133.287 315.115 131.57 320.433 131.817C325.749 132.063 331.679 134.281 336.905 138.489Z" stroke="#6FCDDF" stroke-width="3.14852"/>
<path d="M352.857 172.644L370.065 196.826L420.284 225.979L380.166 184.973L352.857 172.644Z" fill="#FF5F3C"/>
<path d="M352.857 172.644L370.065 196.826L420.284 225.979L380.166 184.973L352.857 172.644Z" fill="white" fill-opacity="0.2"/>
<path opacity="0.15" d="M407.249 182.393L405.45 184.627L410.938 193.066C411.601 194.046 411.495 195.357 410.759 196.271L402.02 207.126L419.904 225.406L397.687 212.508L385.971 227.06C385.235 227.975 384.004 228.324 382.878 227.92L373.462 224.36L371.744 226.494C371.301 226.349 370.852 226.2 370.397 226.047L370.442 234.768C370.419 235.698 370.647 236.663 371.079 237.513L382.916 261.502C383.389 262.441 382.292 263.456 381.398 262.903L353.673 246.444C352.452 245.741 351.369 244.868 350.421 243.826L330.415 221.802C329.19 220.481 328.475 218.733 328.406 216.947L327.941 206.145C313.64 197.208 298.721 185.201 285.349 169.052C277.771 159.881 271.776 150.755 267.048 142.204C266.538 141.176 266.027 140.124 265.516 139.046L265.35 139.16C265.015 138.5 264.822 137.945 264.629 137.391C264.436 136.836 264.242 136.282 263.908 135.622L263.216 134.114L263.247 134.09C261.202 129.459 259.193 124.43 257.307 119.01C254.621 111.321 252.599 104.055 251.078 97.4151C250.858 96.4569 251.114 95.5101 251.683 94.809C252.172 94.207 252.891 93.7861 253.739 93.6946L253.825 93.6861C260.769 92.9714 269.147 92.6505 278.568 93.5451L278.744 93.5615L278.832 93.57C284.506 94.0924 289.698 94.9537 294.369 95.9826L294.416 95.8748C295.243 96.0642 296.118 96.3257 296.995 96.5909C298.973 97.0716 300.847 97.5788 302.614 98.0975C311.989 101.291 322.061 105.492 332.475 111.14C349.434 120.341 363.444 131.274 374.91 142.357L390.662 139.619C392.422 139.305 394.282 139.63 395.834 140.545L421.622 155.388C422.842 156.092 423.926 156.964 424.873 158.006L446.872 181.578C447.603 182.334 446.845 183.622 445.827 183.361L419.864 176.917C418.941 176.677 417.95 176.66 417.046 176.882L405.369 179.369C406.042 180.397 406.688 181.403 407.31 182.387L407.249 182.393Z" fill="url(#paint2_linear_1701_2613)"/>
<path d="M359.802 503.403C366.497 498.127 369.219 493.371 370.59 485.612C370.733 484.803 371.742 484.767 371.838 485.583C372.22 488.828 372.281 493.448 370.312 496.725C368.389 499.926 364.043 502.66 360.426 504.507C359.642 504.908 359.11 503.948 359.802 503.403Z" fill="#EACE9F"/>
<path d="M372.745 499.668C375.424 495.67 376.296 492.253 376.058 487.672C376.015 486.852 376.959 486.58 377.226 487.357C377.947 489.462 378.511 492.148 377.853 494.429C377.244 496.539 375.463 498.736 373.644 500.545C373.019 501.167 372.254 500.401 372.745 499.668Z" fill="#EACE9F"/>
<path d="M362.903 480.784C358.956 498.766 339.854 509.996 320.099 505.66C300.343 501.324 287.7 483.126 291.647 465.144C295.593 447.162 314.696 435.932 334.451 440.268C354.206 444.604 366.85 462.801 362.903 480.784Z" fill="white" stroke="#0F154D" stroke-width="2"/>
<path d="M314.574 466.816L313.59 455.854C313.462 454.432 314.354 453.117 315.723 452.71L327.883 449.097C328.921 448.789 330.044 449.064 330.822 449.816L338.98 457.698C340.015 458.698 340.194 460.292 339.406 461.497L332.901 471.45C332.2 472.523 330.893 473.032 329.651 472.716L316.823 469.455C315.589 469.142 314.688 468.084 314.574 466.816Z" fill="#0E144C"/>
<path d="M327.388 499.703C328.751 501.812 329.977 503.49 331.792 505.698C332.488 506.546 333.6 506.929 334.676 506.715L334.709 506.709C339.749 505.707 343.374 504.987 348.058 501.843C348.73 501.392 349.168 500.667 349.263 499.862C349.603 496.978 349.605 494.506 349.604 491.475C349.603 490.06 348.62 488.831 347.238 488.528L338.446 486.598C337.354 486.359 336.22 486.748 335.498 487.602C332.808 490.78 330.789 493.012 327.815 495.989C326.825 496.98 326.627 498.526 327.388 499.703Z" fill="#0E144C"/>
<path d="M359.935 476.942L360.51 477.068C362.315 477.464 364.064 476.148 364.039 474.3C363.955 468.045 362.397 463.264 357.582 455.349C357.313 454.906 356.871 454.592 356.364 454.481C355.299 454.247 354.257 454.951 354.06 456.024C353.755 457.683 353.455 459.077 352.942 460.993C352.762 461.665 352.812 462.381 353.091 463.019C355.183 467.785 356.384 470.803 357.702 474.899C358.033 475.927 358.88 476.71 359.935 476.942Z" fill="#0E144C"/>
<path d="M332.519 442.038L332.25 442.035C331.985 442.032 331.726 441.955 331.502 441.813C330.297 441.047 330.849 439.278 332.263 439.473C332.495 439.506 332.724 439.54 332.95 439.577C334.731 439.869 334.323 442.061 332.519 442.038Z" fill="#0E144C"/>
<path d="M293.333 461.962C296.942 457.631 299.12 455.213 302.836 451.529C303.069 451.298 303.231 451.005 303.301 450.684C303.636 449.161 301.932 448.06 300.748 449.075C296.665 452.573 294.533 455.863 292.232 461.3C292.075 461.673 292.296 462.096 292.691 462.183C292.929 462.235 293.177 462.149 293.333 461.962Z" fill="#0E144C"/>
<path d="M294.359 479.408C294.121 482.002 294.242 484.333 294.282 487.484C294.29 488.113 294.491 488.728 294.865 489.234C297.007 492.127 298.409 493.724 301.855 497.162C302.837 498.142 304.369 498.315 305.567 497.616C306.641 496.99 307.597 496.422 308.723 495.548C309.711 494.782 310 493.437 309.554 492.269C307.798 487.668 307.004 484.754 306.41 481.185C306.196 479.9 305.211 478.879 303.934 478.621C301.697 478.171 299.988 477.71 298.151 477.113C296.411 476.547 294.527 477.585 294.359 479.408Z" fill="#0E144C"/>
<ellipse cx="327.275" cy="472.964" rx="37.4763" ry="34.4741" transform="rotate(12.3793 327.275 472.964)" fill="url(#paint3_radial_1701_2613)"/>
<g style="mix-blend-mode:overlay" opacity="0.8">
<path d="M456.623 279.358C456.075 283.921 458.505 288.155 462.384 290.112L461.272 299.371L460.434 299.27C458.719 299.064 457.144 300.135 456.664 301.736L426.988 298.172C421.9 297.562 417.281 301.191 416.67 306.278L413.773 330.401C406.547 331.332 400.595 337.061 399.687 344.624C398.779 352.188 403.206 359.163 410.006 361.778L408.143 377.3C407.687 377.233 407.232 377.166 406.778 377.101C397.302 375.738 388.311 374.805 379.126 375.588C360.089 377.211 342.61 385.973 317.018 406.3L331.134 424.072C355.542 404.685 368.705 399.254 381.053 398.202C387.56 397.648 394.447 398.257 403.547 399.566C406.371 399.972 409.458 400.454 412.791 400.975C416.283 401.521 420.046 402.109 424.061 402.696L417.42 458.007L417.485 458.015C417.35 460.642 417.585 463.213 418.148 465.674C415.456 467.242 412.439 469.126 409.358 471.294C404.42 474.767 399.172 479.067 394.819 484.072C390.487 489.052 386.778 495.031 385.425 501.851C382.448 516.854 387.315 530.064 392.549 539.186C395.185 543.782 397.99 547.477 400.14 550.031C401.218 551.312 402.141 552.317 402.809 553.015C403.144 553.365 403.415 553.639 403.611 553.833C403.709 553.93 403.788 554.007 403.848 554.064C403.877 554.093 403.902 554.116 403.921 554.135L403.955 554.167L403.959 554.171C403.961 554.173 403.962 554.174 408.104 549.783L403.962 554.174C406.388 556.461 410.208 556.349 412.495 553.924C414.779 551.502 414.67 547.688 412.254 545.4L412.234 545.381C412.222 545.369 412.205 545.353 412.183 545.331C412.162 545.31 412.136 545.285 412.106 545.255C411.983 545.134 411.789 544.938 411.533 544.671C411.022 544.137 410.272 543.322 409.375 542.256C407.575 540.118 405.219 537.013 403.02 533.179C398.581 525.441 395.069 515.272 397.266 504.2C398.068 500.159 400.404 496.045 403.927 491.995C407.429 487.97 411.846 484.303 416.304 481.168C418.738 479.456 421.141 477.932 423.349 476.621C427.777 482.316 434.391 486.308 442.12 487.236C445.89 487.689 449.576 487.37 453.018 486.404C452.937 492.04 452.724 498.824 452.264 506.38C450.931 528.236 447.541 556.259 439.406 581.566C438.386 584.74 440.131 588.139 443.305 589.16C446.479 590.18 449.879 588.434 450.899 585.26C459.473 558.588 462.953 529.437 464.313 507.115C464.996 495.92 465.149 486.37 465.132 479.608L465.131 479.365C469.062 475.491 471.878 470.436 472.971 464.677L473.035 464.685L473.244 462.945L473.256 462.85L473.266 462.767C473.273 462.708 473.28 462.649 473.287 462.59L479.674 409.395C482.013 409.62 484.269 409.826 486.436 410.023L487.24 410.096C492.654 410.587 497.395 411.017 501.692 411.551C511.001 412.705 516.376 414.175 519.759 416.305C522.363 417.944 524.635 420.498 525.964 426.835C527.415 433.754 527.519 444.339 525.546 460.776L548.08 463.482C550.136 446.359 550.404 432.797 548.177 422.177C545.827 410.974 540.581 402.594 531.85 397.098C523.897 392.091 514.12 390.223 504.486 389.027C503.545 388.911 502.587 388.799 501.614 388.69L503.505 372.947C510.629 371.928 516.468 366.24 517.367 358.754C518.266 351.269 513.939 344.36 507.259 341.683L510.162 317.504C510.773 312.416 507.143 307.797 502.056 307.186L472.383 303.623C472.295 301.955 471.019 300.541 469.304 300.335L468.464 300.234L469.575 290.975C473.807 289.992 477.17 286.454 477.718 281.891C478.418 276.066 474.262 270.776 468.437 270.077C462.612 269.377 457.322 273.533 456.623 279.358Z" fill="url(#paint4_linear_1701_2613)"/>
</g>
<circle r="28.0075" transform="matrix(-0.992869 -0.119213 -0.119213 0.992869 443.334 459.033)" fill="#7D8E9E"/>
<path d="M478.222 403.4C480.066 388.043 469.111 374.098 453.753 372.254C438.395 370.41 424.451 381.365 422.607 396.723L415.296 457.612L470.911 464.29L478.222 403.4Z" fill="#AABFD0"/>
<path d="M428.241 459.166L457.967 462.735L466.285 393.456L436.56 389.887L428.241 459.166Z" fill="#3A4D5C"/>
<circle r="14.9695" transform="matrix(-0.992869 -0.119213 -0.119213 0.992869 451.307 392.63)" fill="#3A4D5C"/>
<path d="M428.243 459.166L457.968 462.735L466.287 393.456L436.561 389.887L428.243 459.166Z" fill="#3A4D5C"/>
<path d="M448.487 416.123L444.213 423.027L436.093 423.036L441.339 429.235L438.838 436.96L446.354 433.886L452.929 438.652L452.328 430.554L458.892 425.774L451.005 423.843L448.487 416.123Z" fill="#C9DB53"/>
<path fill-rule="evenodd" clip-rule="evenodd" d="M523.84 426.439C525.29 433.358 525.395 443.943 523.421 460.381L545.955 463.087C548.011 445.963 548.279 432.402 546.052 421.782C543.703 410.578 538.456 402.199 529.725 396.702C521.773 391.696 511.996 389.827 502.362 388.632C497.68 388.051 492.589 387.589 487.313 387.111C486.997 387.082 486.681 387.054 486.364 387.025C480.683 386.509 474.674 385.954 468.229 385.18L465.523 407.714C472.328 408.531 478.628 409.112 484.311 409.628C484.581 409.652 484.849 409.676 485.116 409.701C490.529 410.192 495.27 410.622 499.568 411.155C508.877 412.31 514.252 413.78 517.634 415.909C520.239 417.549 522.511 420.103 523.84 426.439Z" fill="#AABFD0"/>
<mask id="mask1_1701_2613" style="mask-type:alpha" maskUnits="userSpaceOnUse" x="465" y="385" width="83" height="79">
<path fill-rule="evenodd" clip-rule="evenodd" d="M523.84 426.439C525.291 433.358 525.395 443.943 523.422 460.381L545.956 463.087C548.012 445.963 548.28 432.402 546.053 421.782C543.703 410.579 538.457 402.199 529.726 396.703C521.773 391.696 511.996 389.827 502.362 388.632C497.68 388.051 492.589 387.59 487.313 387.111C486.997 387.083 486.681 387.054 486.364 387.025C480.683 386.509 474.675 385.954 468.229 385.18L465.523 407.714C472.328 408.531 478.628 409.112 484.312 409.628C484.581 409.652 484.85 409.677 485.116 409.701C490.53 410.192 495.271 410.622 499.568 411.155C508.877 412.31 514.252 413.78 517.634 415.909C520.239 417.549 522.511 420.103 523.84 426.439Z" fill="#AABFD0"/>
</mask>
<g mask="url(#mask1_1701_2613)">
<line y1="-1.27575" x2="28.0989" y2="-1.27575" transform="matrix(-0.977375 0.211513 0.211513 0.977375 547.012 421.873)" stroke="#7D8E9E" stroke-width="2.55151"/>
<line y1="-1.27575" x2="30.138" y2="-1.27575" transform="matrix(-0.57435 0.81861 0.81861 0.57435 533.398 393.489)" stroke="#7D8E9E" stroke-width="2.55151"/>
<line y1="-1.27575" x2="27.7833" y2="-1.27575" transform="matrix(-0.154274 0.988028 0.988028 0.154274 505.964 387.034)" stroke="#7D8E9E" stroke-width="2.55151"/>
</g>
<path fill-rule="evenodd" clip-rule="evenodd" d="M523.421 460.381C524.587 450.677 525.027 443.012 524.895 436.937L547.608 437.995C547.674 445.353 547.084 453.683 545.955 463.087L523.421 460.381Z" fill="#7D8E9E"/>
<path fill-rule="evenodd" clip-rule="evenodd" d="M378.928 397.807C366.58 398.859 353.418 404.29 329.009 423.677L314.894 405.905C340.485 385.578 357.965 376.815 377.001 375.193C386.187 374.41 395.177 375.343 404.653 376.706C407.967 377.182 411.299 377.704 414.766 378.247C421.559 379.31 428.867 380.454 437.557 381.497L434.851 404.031C425.795 402.944 417.684 401.676 410.667 400.58C407.333 400.059 404.246 399.576 401.422 399.17C392.322 397.862 385.435 397.252 378.928 397.807Z" fill="#AABFD0"/>
<mask id="mask2_1701_2613" style="mask-type:alpha" maskUnits="userSpaceOnUse" x="314" y="374" width="124" height="50">
<path fill-rule="evenodd" clip-rule="evenodd" d="M378.927 397.807C366.579 398.859 353.416 404.29 329.008 423.677L314.892 405.905C340.484 385.578 357.963 376.815 377 375.193C386.185 374.41 395.176 375.343 404.652 376.706C407.965 377.182 411.298 377.704 414.765 378.247C421.557 379.31 428.866 380.454 437.556 381.497L434.85 404.031C425.793 402.944 417.683 401.676 410.665 400.58C407.332 400.059 404.245 399.577 401.421 399.17C392.321 397.862 385.433 397.252 378.927 397.807Z" fill="#AABFD0"/>
</mask>
<g mask="url(#mask2_1701_2613)">
<line y1="-1.27575" x2="24.803" y2="-1.27575" transform="matrix(-0.410126 -0.912029 -0.912029 0.410126 363.518 402.76)" stroke="#7D8E9E" stroke-width="2.55151"/>
<line y1="-1.27575" x2="25.8537" y2="-1.27575" transform="matrix(-0.0778201 -0.996967 -0.996967 0.0778201 378.142 398.436)" stroke="#7D8E9E" stroke-width="2.55151"/>
<line y1="-1.27575" x2="26.5589" y2="-1.27575" transform="matrix(0.119213 -0.992869 -0.992869 -0.119213 395.191 400.24)" stroke="#7D8E9E" stroke-width="2.55151"/>
</g>
<path fill-rule="evenodd" clip-rule="evenodd" d="M329.009 423.677C337.681 416.789 344.934 411.663 351.235 407.868L340.246 387.993C332.568 392.555 324.276 398.453 314.894 405.905L329.009 423.677Z" fill="#7D8E9E"/>
<path fill-rule="evenodd" clip-rule="evenodd" d="M450.139 505.985C448.807 527.841 445.416 555.863 437.281 581.171C436.261 584.344 438.007 587.744 441.18 588.764C444.354 589.785 447.754 588.039 448.774 584.865C457.348 558.193 460.828 529.042 462.189 506.72C462.871 495.525 463.024 485.975 463.007 479.213C462.998 475.831 462.947 473.142 462.897 471.291C462.872 470.365 462.847 469.648 462.829 469.158C462.82 468.913 462.812 468.724 462.807 468.594C462.804 468.53 462.802 468.48 462.8 468.445L462.797 468.387C462.797 468.386 462.797 468.385 456.768 468.672L462.797 468.385C462.639 465.055 459.811 462.484 456.481 462.642C453.151 462.801 450.581 465.628 450.739 468.958L450.739 468.958L450.739 468.959L450.739 468.963L450.74 468.989C450.741 469.015 450.743 469.055 450.745 469.11C450.75 469.219 450.757 469.387 450.765 469.612C450.782 470.06 450.805 470.734 450.829 471.615C450.876 473.377 450.926 475.967 450.935 479.244C450.952 485.8 450.803 495.09 450.139 505.985Z" fill="#7D8E9E"/>
<path fill-rule="evenodd" clip-rule="evenodd" d="M434.485 462.904C433.144 459.852 429.582 458.465 426.53 459.807L428.959 465.333C426.53 459.807 426.529 459.808 426.527 459.808L426.514 459.814L426.484 459.827C426.46 459.838 426.428 459.853 426.387 459.871C426.306 459.907 426.191 459.959 426.046 460.025C425.756 460.158 425.342 460.351 424.82 460.601C423.777 461.101 422.302 461.831 420.526 462.775C416.983 464.655 412.192 467.41 407.234 470.898C402.296 474.372 397.048 478.672 392.694 483.676C388.362 488.656 384.653 494.636 383.3 501.456C380.323 516.459 385.191 529.669 390.424 538.791C393.061 543.387 395.866 547.082 398.016 549.636C399.094 550.917 400.017 551.922 400.685 552.62C401.019 552.97 401.291 553.243 401.487 553.438C401.585 553.535 401.664 553.612 401.723 553.669C401.753 553.698 401.777 553.721 401.796 553.739L401.821 553.763L401.831 553.772L401.835 553.776C401.836 553.777 401.838 553.779 405.979 549.387L401.838 553.779C404.264 556.066 408.084 555.954 410.371 553.529C412.655 551.106 412.546 547.293 410.13 545.005C410.127 545.002 410.121 544.996 410.11 544.986C410.086 544.963 410.043 544.921 409.982 544.86C409.859 544.739 409.664 544.543 409.409 544.276C408.898 543.741 408.148 542.927 407.251 541.861C405.45 539.722 403.095 536.617 400.896 532.783C396.457 525.046 392.945 514.877 395.142 503.805C395.944 499.763 398.28 495.65 401.803 491.6C405.304 487.574 409.722 483.908 414.179 480.772C418.617 477.651 422.952 475.155 426.187 473.437C427.8 472.581 429.126 471.925 430.037 471.488C430.493 471.269 430.844 471.106 431.075 471C431.19 470.948 431.275 470.909 431.328 470.885C431.355 470.874 431.373 470.865 431.383 470.861L431.389 470.859C431.389 470.858 431.39 470.858 431.391 470.858C431.391 470.857 431.391 470.857 431.391 470.857C434.441 469.515 435.826 465.955 434.485 462.904Z" fill="#7D8E9E"/>
<path fill-rule="evenodd" clip-rule="evenodd" d="M462.801 468.47C462.802 468.481 462.802 468.494 462.803 468.508C462.803 468.522 462.804 468.538 462.805 468.554C462.803 468.521 462.802 468.493 462.801 468.47ZM437.281 581.171C438.554 577.211 439.71 573.185 440.761 569.127L452.367 572.466C451.281 576.635 450.088 580.779 448.774 584.865C447.754 588.039 444.354 589.785 441.18 588.764C438.007 587.744 436.261 584.344 437.281 581.171Z" fill="#5B6571"/>
<path fill-rule="evenodd" clip-rule="evenodd" d="M398.016 549.636C396.814 548.209 395.408 546.425 393.942 544.328L402.711 535.746C404.336 538.235 405.94 540.304 407.251 541.861C408.148 542.927 408.898 543.742 409.409 544.276C409.664 544.543 409.859 544.739 409.982 544.86C410.043 544.921 410.086 544.963 410.11 544.986C410.121 544.996 410.127 545.003 410.13 545.005C412.546 547.293 412.655 551.107 410.371 553.529C408.084 555.954 404.264 556.066 401.838 553.779L405.979 549.388C401.838 553.779 401.836 553.778 401.835 553.776L401.831 553.772L401.821 553.763L401.796 553.74C401.777 553.721 401.753 553.698 401.723 553.669C401.664 553.612 401.585 553.535 401.487 553.438C401.291 553.244 401.019 552.97 400.685 552.62C400.017 551.922 399.094 550.917 398.016 549.636Z" fill="#5B6571"/>
<circle r="16.2975" transform="matrix(-0.992869 -0.119213 -0.119213 0.992869 499.061 356.416)" fill="#5B6571"/>
<circle r="16.2975" transform="matrix(-0.992869 -0.119213 -0.119213 0.992869 413.744 346.172)" fill="#5B6571"/>
<path d="M508.02 317.245L414.528 306.02L410.129 342.664C407.074 368.102 425.22 391.2 450.658 394.254L452.03 394.419C477.468 397.473 500.566 379.328 503.62 353.889L508.02 317.245Z" fill="#7D8E9E"/>
<path d="M405.705 379.512C405.094 384.6 408.723 389.22 413.811 389.83L488.879 398.844C493.966 399.455 498.586 395.825 499.197 390.738L508.037 317.108C508.648 312.021 505.019 307.401 499.932 306.79L424.864 297.777C419.776 297.166 415.157 300.795 414.546 305.883L405.705 379.512Z" fill="#7D8E9E"/>
<path d="M413.841 311.763L507.332 322.988L508.137 316.287L414.645 305.061L413.841 311.763Z" fill="#6FCDDF"/>
<path d="M413.09 318.017L506.581 329.243L507.386 322.541L413.894 311.316L413.09 318.017Z" fill="#F5F6E8"/>
<path d="M412.284 324.718L505.776 335.944L506.581 329.243L413.089 318.017L412.284 324.718Z" fill="#F74CAD"/>
<rect width="25.3516" height="9.41632" rx="4.70816" transform="matrix(-0.992869 -0.119213 -0.119213 0.992869 466.2 375.937)" fill="#F5F6E8"/>
<rect width="25.3516" height="1.20722" transform="matrix(-0.992869 -0.119213 -0.119213 0.992869 465.682 380.252)" fill="#3A4D5C"/>
<rect width="1.20722" height="9.41632" transform="matrix(-0.992869 -0.119213 -0.119213 0.992869 458.289 374.987)" fill="#3A4D5C"/>
<rect width="1.20722" height="9.41632" transform="matrix(-0.992869 -0.119213 -0.119213 0.992869 448.941 373.864)" fill="#3A4D5C"/>
<ellipse rx="6.17127" ry="5.31177" transform="matrix(-0.992869 -0.119213 -0.119213 0.992869 427.134 376.353)" fill="#EF937E"/>
<ellipse rx="6.17127" ry="5.31177" transform="matrix(-0.992869 -0.119213 -0.119213 0.992869 479.124 382.595)" fill="#EF937E"/>
<path d="M459.985 351.359C458.882 360.542 465.447 368.89 474.658 369.996C483.87 371.102 492.224 364.546 493.327 355.363C494.429 346.179 487.864 337.832 478.653 336.726C469.442 335.62 461.087 342.176 459.985 351.359Z" fill="white" stroke="#1D5C87" stroke-width="4.63911"/>
<path d="M419.543 346.503C418.44 355.686 425.005 364.034 434.217 365.14C443.428 366.246 451.782 359.69 452.885 350.507C453.988 341.324 447.423 332.976 438.211 331.87C429 330.764 420.646 337.32 419.543 346.503Z" fill="white" stroke="#1D5C87" stroke-width="4.63911"/>
<rect x="436.917" y="346.401" width="4.15294" height="4.58744" rx="2.07647" transform="rotate(6.84666 436.917 346.401)" fill="#0F2437"/>
<rect width="4.15294" height="4.58744" rx="2.07647" transform="matrix(-0.992869 -0.119213 -0.119213 0.992869 476.472 351.15)" fill="#0F2437"/>
<rect width="7.24332" height="31.9449" transform="matrix(-0.992869 -0.119213 -0.119213 0.992869 469.506 273.469)" fill="#AABFD0"/>
<circle r="10.6235" transform="matrix(-0.992869 -0.119213 -0.119213 0.992869 465.046 280.229)" fill="#F74CAD"/>
<rect width="7.00188" height="15.9353" rx="3.50094" transform="matrix(-0.119213 0.992869 0.992869 0.119213 454.834 298.457)" fill="#7D8E9E"/>
<rect width="7.0955" height="10.865" transform="matrix(-0.992869 -0.119213 -0.119213 0.992869 478.111 349.645)" fill="#143441"/>
<rect width="7.0955" height="10.865" transform="matrix(-0.992869 -0.119213 -0.119213 0.992869 443.352 345.471)" fill="#143441"/>
<g style="mix-blend-mode:overlay" opacity="0.4">
<path d="M454.623 278.358C454.075 282.921 456.505 287.155 460.384 289.112L459.272 298.371L458.434 298.27C456.719 298.064 455.144 299.135 454.664 300.736L424.988 297.172C419.9 296.562 415.281 300.191 414.67 305.278L411.773 329.401C404.547 330.332 398.595 336.061 397.687 343.624C396.779 351.188 401.206 358.163 408.006 360.778L406.143 376.3C405.687 376.233 405.232 376.166 404.778 376.101C395.302 374.738 386.311 373.805 377.126 374.588C358.089 376.211 340.61 384.973 315.018 405.3L329.134 423.072C353.542 403.685 366.705 398.254 379.053 397.202C385.56 396.648 392.447 397.257 401.547 398.566C404.371 398.972 407.458 399.454 410.791 399.975C414.283 400.521 418.046 401.109 422.061 401.696L415.42 457.007L415.485 457.015C415.35 459.642 415.585 462.213 416.148 464.674C413.456 466.242 410.439 468.126 407.358 470.294C402.42 473.767 397.172 478.067 392.819 483.072C388.487 488.052 384.778 494.031 383.425 500.851C380.448 515.854 385.315 529.064 390.549 538.186C393.185 542.782 395.99 546.477 398.14 549.031C399.218 550.312 400.141 551.317 400.809 552.015C401.144 552.365 401.415 552.639 401.611 552.833C401.709 552.93 401.788 553.007 401.848 553.064C401.877 553.093 401.902 553.116 401.921 553.135L401.955 553.167L401.959 553.171C401.961 553.173 401.962 553.174 406.104 548.783L401.962 553.174C404.388 555.461 408.208 555.349 410.495 552.924C412.779 550.502 412.67 546.688 410.254 544.4L410.234 544.381C410.222 544.369 410.205 544.353 410.183 544.331C410.162 544.31 410.136 544.285 410.106 544.255C409.983 544.134 409.789 543.938 409.533 543.671C409.022 543.137 408.272 542.322 407.375 541.256C405.575 539.118 403.219 536.013 401.02 532.179C396.581 524.441 393.069 514.272 395.266 503.2C396.068 499.159 398.404 495.045 401.927 490.995C405.429 486.97 409.846 483.303 414.304 480.168C416.738 478.456 419.141 476.932 421.349 475.621C425.777 481.316 432.391 485.308 440.12 486.236C443.89 486.689 447.576 486.37 451.018 485.404C450.937 491.04 450.724 497.824 450.264 505.38C448.931 527.236 445.541 555.259 437.406 580.566C436.386 583.74 438.131 587.139 441.305 588.16C444.479 589.18 447.879 587.434 448.899 584.26C457.473 557.588 460.953 528.437 462.313 506.115C462.996 494.92 463.149 485.37 463.132 478.608L463.131 478.365C467.062 474.491 469.878 469.436 470.971 463.677L471.035 463.685L471.244 461.945L471.256 461.85L471.266 461.767C471.273 461.708 471.28 461.649 471.287 461.59L477.674 408.395C480.013 408.62 482.269 408.826 484.436 409.023L485.24 409.096C490.654 409.587 495.395 410.017 499.692 410.551C509.001 411.705 514.376 413.175 517.759 415.305C520.363 416.944 522.635 419.498 523.964 425.835C525.415 432.754 525.519 443.339 523.546 459.776L546.08 462.482C548.136 445.359 548.404 431.797 546.177 421.177C543.827 409.974 538.581 401.594 529.85 396.098C521.897 391.091 512.12 389.223 502.486 388.027C501.545 387.911 500.587 387.799 499.614 387.69L501.505 371.947C508.629 370.928 514.468 365.24 515.367 357.754C516.266 350.269 511.939 343.36 505.259 340.683L508.162 316.504C508.773 311.416 505.143 306.797 500.056 306.186L470.383 302.623C470.295 300.955 469.019 299.541 467.304 299.335L466.464 299.234L467.575 289.975C471.807 288.992 475.17 285.454 475.718 280.891C476.418 275.066 472.262 269.776 466.437 269.077C460.612 268.377 455.322 272.533 454.623 278.358Z" fill="url(#paint5_linear_1701_2613)"/>
</g>
<g style="mix-blend-mode:overlay" opacity="0.4">
<path d="M454.623 278.358C454.075 282.921 456.505 287.155 460.384 289.112L459.272 298.371L458.434 298.27C456.719 298.064 455.144 299.135 454.664 300.736L424.988 297.172C419.9 296.562 415.281 300.191 414.67 305.278L411.773 329.401C404.547 330.332 398.595 336.061 397.687 343.624C396.779 351.188 401.206 358.163 408.006 360.778L406.143 376.3C405.687 376.233 405.232 376.166 404.778 376.101C395.302 374.738 386.311 373.805 377.126 374.588C358.089 376.211 340.61 384.973 315.018 405.3L329.134 423.072C353.542 403.685 366.705 398.254 379.053 397.202C385.56 396.648 392.447 397.257 401.547 398.566C404.371 398.972 407.458 399.454 410.791 399.975C414.283 400.521 418.046 401.109 422.061 401.696L415.42 457.007L415.485 457.015C415.35 459.642 415.585 462.213 416.148 464.674C413.456 466.242 410.439 468.126 407.358 470.294C402.42 473.767 397.172 478.067 392.819 483.072C388.487 488.052 384.778 494.031 383.425 500.851C380.448 515.854 385.315 529.064 390.549 538.186C393.185 542.782 395.99 546.477 398.14 549.031C399.218 550.312 400.141 551.317 400.809 552.015C401.144 552.365 401.415 552.639 401.611 552.833C401.709 552.93 401.788 553.007 401.848 553.064C401.877 553.093 401.902 553.116 401.921 553.135L401.955 553.167L401.959 553.171C401.961 553.173 401.962 553.174 406.104 548.783L401.962 553.174C404.388 555.461 408.208 555.349 410.495 552.924C412.779 550.502 412.67 546.688 410.254 544.4L410.234 544.381C410.222 544.369 410.205 544.353 410.183 544.331C410.162 544.31 410.136 544.285 410.106 544.255C409.983 544.134 409.789 543.938 409.533 543.671C409.022 543.137 408.272 542.322 407.375 541.256C405.575 539.118 403.219 536.013 401.02 532.179C396.581 524.441 393.069 514.272 395.266 503.2C396.068 499.159 398.404 495.045 401.927 490.995C405.429 486.97 409.846 483.303 414.304 480.168C416.738 478.456 419.141 476.932 421.349 475.621C425.777 481.316 432.391 485.308 440.12 486.236C443.89 486.689 447.576 486.37 451.018 485.404C450.937 491.04 450.724 497.824 450.264 505.38C448.931 527.236 445.541 555.259 437.406 580.566C436.386 583.74 438.131 587.139 441.305 588.16C444.479 589.18 447.879 587.434 448.899 584.26C457.473 557.588 460.953 528.437 462.313 506.115C462.996 494.92 463.149 485.37 463.132 478.608L463.131 478.365C467.062 474.491 469.878 469.436 470.971 463.677L471.035 463.685L471.244 461.945L471.256 461.85L471.266 461.767C471.273 461.708 471.28 461.649 471.287 461.59L477.674 408.395C480.013 408.62 482.269 408.826 484.436 409.023L485.24 409.096C490.654 409.587 495.395 410.017 499.692 410.551C509.001 411.705 514.376 413.175 517.759 415.305C520.363 416.944 522.635 419.498 523.964 425.835C525.415 432.754 525.519 443.339 523.546 459.776L546.08 462.482C548.136 445.359 548.404 431.797 546.177 421.177C543.827 409.974 538.581 401.594 529.85 396.098C521.897 391.091 512.12 389.223 502.486 388.027C501.545 387.911 500.587 387.799 499.614 387.69L501.505 371.947C508.629 370.928 514.468 365.24 515.367 357.754C516.266 350.269 511.939 343.36 505.259 340.683L508.162 316.504C508.773 311.416 505.143 306.797 500.056 306.186L470.383 302.623C470.295 300.955 469.019 299.541 467.304 299.335L466.464 299.234L467.575 289.975C471.807 288.992 475.17 285.454 475.718 280.891C476.418 275.066 472.262 269.776 466.437 269.077C460.612 268.377 455.322 272.533 454.623 278.358Z" fill="url(#paint6_linear_1701_2613)"/>
</g>
</g>
<defs>
<linearGradient id="paint0_linear_1701_2613" x1="498" y1="34" x2="646" y2="189" gradientUnits="userSpaceOnUse">
<stop stop-color="#151450" stop-opacity="0.38"/>
<stop offset="0.755208" stop-color="#38004A"/>
</linearGradient>
<linearGradient id="paint1_linear_1701_2613" x1="376.231" y1="176.68" x2="403.08" y2="661.745" gradientUnits="userSpaceOnUse">
<stop stop-color="#FFF59C"/>
<stop offset="1" stop-color="#EFB450" stop-opacity="0"/>
</linearGradient>
<linearGradient id="paint2_linear_1701_2613" x1="280" y1="93" x2="412" y2="214" gradientUnits="userSpaceOnUse">
<stop offset="0.25" stop-color="#402F76" stop-opacity="0.8"/>
<stop offset="1" stop-color="#EFB450"/>
</linearGradient>
<radialGradient id="paint3_radial_1701_2613" cx="0" cy="0" r="1" gradientUnits="userSpaceOnUse" gradientTransform="translate(323.796 458.407) rotate(69.6511) scale(50.4876 54.8843)">
<stop stop-color="white" stop-opacity="0"/>
<stop offset="0.833333" stop-color="#1C3064" stop-opacity="0.2"/>
<stop offset="0.973958" stop-color="#FDC76C" stop-opacity="0.34"/>
</radialGradient>
<linearGradient id="paint4_linear_1701_2613" x1="433.378" y1="270" x2="433.378" y2="589.451" gradientUnits="userSpaceOnUse">
<stop stop-color="#D7A75E"/>
<stop offset="1" stop-color="#EFB450"/>
</linearGradient>
<linearGradient id="paint5_linear_1701_2613" x1="431.378" y1="269" x2="431.378" y2="588.451" gradientUnits="userSpaceOnUse">
<stop stop-color="#6F1082" stop-opacity="0"/>
<stop offset="1" stop-color="#EDEF73"/>
</linearGradient>
<linearGradient id="paint6_linear_1701_2613" x1="469.018" y1="269" x2="431.378" y2="588.451" gradientUnits="userSpaceOnUse">
<stop offset="0.0406948" stop-color="#0E144C" stop-opacity="0.46"/>
<stop offset="1" stop-color="#6F1082" stop-opacity="0"/>
</linearGradient>
<clipPath id="clip0_1701_2613">
<rect width="607" height="600" fill="white"/>
</clipPath>
</defs>
</svg>
