<svg width="375" height="449" viewBox="0 0 375 449" fill="none" xmlns="http://www.w3.org/2000/svg">
<g clip-path="url(#clip0_1281_1548)">
<rect width="375" height="449" fill="white"/>
<rect y="-47" width="375" height="496" fill="#F6F6F6"/>
<g opacity="0.3">
<path d="M362.128 379.102C340.953 422.421 309.394 413.563 309.394 413.563C309.394 417.715 308.564 421.037 305.519 424.636C305.519 424.636 340.677 432.664 362.128 379.102Z" fill="#F87269"/>
</g>
<g opacity="0.3">
<path d="M265.068 401.321L263.682 388.605L276.894 384.405L286.253 393.111L279.056 404.595L265.068 401.321Z" fill="#F87269"/>
<path d="M274.828 424.729C276.737 427.701 277.973 429.368 280.571 432.328C285.801 431.157 289.086 430.703 293.743 427.196C294.184 423.727 294.026 421.15 293.973 417.284L283.312 415.156C280.236 418.979 278.407 421.087 274.828 424.729Z" fill="#F87269"/>
<path d="M300.852 406.908L305.569 407.85C305.821 400.974 304.743 396.877 299.631 388.944L297.367 388.492C296.986 390.974 296.752 392.378 296.054 395.068C298.326 399.956 299.426 402.583 300.852 406.908Z" fill="#F87269"/>
<path d="M278.663 378.98L274.902 376.689C279.813 376.638 282.303 377.351 286.601 379.024C283.238 378.973 281.467 378.957 278.663 378.98Z" fill="#F87269"/>
<path d="M255.297 386.931L256.092 382.949C250.632 387.047 248.578 389.972 246.226 396.003L247.169 396.191C250.28 392.303 252.055 390.256 255.297 386.931Z" fill="#F87269"/>
<path d="M248.854 407.41C248.167 411.147 248.47 413.529 248.574 417.659C250.956 420.797 252.072 421.998 256.322 426.027C258.453 424.643 259.654 424.165 261.809 422.13C259.496 416.627 258.776 413.983 258.102 409.738C254.127 409.12 252.186 408.542 248.854 407.41Z" fill="#F87269"/>
<path d="M304.578 410.259C301.643 424.966 286.249 434.432 270.054 431.199C253.859 427.966 243.28 413.315 246.216 398.608C249.152 383.902 264.545 374.436 280.74 377.669C296.935 380.902 307.514 395.553 304.578 410.259Z" stroke="#F87269" stroke-width="2"/>
</g>
<path opacity="0.3" d="M309.859 406.898C310.04 403.387 309.378 400.526 307.799 397.434C307.296 396.451 308.257 395.59 308.998 396.408C310.344 397.893 311.602 399.74 311.968 401.712C312.279 403.383 311.998 405.405 311.48 407.366C311.178 408.511 309.798 408.081 309.859 406.898Z" fill="#F87269"/>
<path opacity="0.3" d="M312.771 398.889C312.36 397.848 311.826 396.904 311.143 395.99C310.482 395.106 311.192 394.08 312.04 394.786C312.821 395.436 313.516 396.207 313.937 397.095C314.181 397.607 314.351 398.194 314.464 398.822C314.673 399.988 313.205 399.991 312.771 398.889Z" fill="#F87269"/>
<ellipse opacity="0.3" rx="2.56842" ry="2.2571" transform="matrix(-0.957982 -0.286829 -0.286829 0.957982 221.108 407.899)" fill="#B3DDDB"/>
<path d="M81.6337 404.052C67.934 404.052 60.203 417.454 48.3832 410.825C22.6561 396.395 38.2811 359.937 4.83387 354.562C-31.4028 348.74 -24.8835 388.994 -26.9454 410.825C-30.2491 445.804 -61.1434 480.127 -29.0051 500.688C-10.6705 512.418 5.76516 507.045 28.374 507.721C69.2908 508.943 131.951 498.395 131.951 498.395C131.951 498.395 172.558 488.497 175.206 472.347C177.04 461.161 170.792 448.644 158.139 452.031C134.313 458.407 103.172 480.907 96.0521 459.794C91.6815 446.833 109.882 443.384 109.882 430.36C109.882 416.79 94.875 404.052 81.6337 404.052Z" fill="#B3DDDB"/>
<g opacity="0.6">
<mask id="mask0_1281_1548" style="mask-type:alpha" maskUnits="userSpaceOnUse" x="74" y="405" width="64" height="72">
<rect x="136.5" y="405" width="1.30208" height="71.3542" fill="white"/>
<rect x="136.5" y="405" width="1.30208" height="71.3542" fill="white"/>
<rect x="132.333" y="405" width="1.30208" height="71.3542" fill="white"/>
<rect x="132.333" y="405" width="1.30208" height="71.3542" fill="white"/>
<rect x="128.167" y="405" width="1.30208" height="71.3542" fill="white"/>
<rect x="128.167" y="405" width="1.30208" height="71.3542" fill="white"/>
<rect x="124" y="405" width="1.30208" height="71.3542" fill="white"/>
<rect x="124" y="405" width="1.30208" height="71.3542" fill="white"/>
<rect x="119.833" y="405" width="1.30208" height="71.3542" fill="white"/>
<rect x="119.833" y="405" width="1.30208" height="71.3542" fill="white"/>
<rect x="115.667" y="405" width="1.30208" height="71.3542" fill="white"/>
<rect x="115.667" y="405" width="1.30208" height="71.3542" fill="white"/>
<rect x="111.5" y="405" width="1.30208" height="71.3542" fill="white"/>
<rect x="111.5" y="405" width="1.30208" height="71.3542" fill="white"/>
<rect x="107.333" y="405" width="1.30208" height="71.3542" fill="white"/>
<rect x="107.333" y="405" width="1.30208" height="71.3542" fill="white"/>
<rect x="103.167" y="405" width="1.30208" height="71.3542" fill="white"/>
<rect x="103.167" y="405" width="1.30208" height="71.3542" fill="white"/>
<rect x="99.0001" y="405" width="1.30208" height="71.3542" fill="white"/>
<rect x="99.0001" y="405" width="1.30208" height="71.3542" fill="white"/>
<rect x="94.8334" y="405" width="1.30208" height="71.3542" fill="white"/>
<rect x="94.8334" y="405" width="1.30208" height="71.3542" fill="white"/>
<rect x="90.6667" y="405" width="1.30208" height="71.3542" fill="white"/>
<rect x="90.6667" y="405" width="1.30208" height="71.3542" fill="white"/>
<rect x="86.5001" y="405" width="1.30208" height="71.3542" fill="white"/>
<rect x="86.5001" y="405" width="1.30208" height="71.3542" fill="white"/>
<rect x="82.3334" y="405" width="1.30208" height="71.3542" fill="white"/>
<rect x="82.3334" y="405" width="1.30208" height="71.3542" fill="white"/>
<rect x="78.1667" y="405" width="1.30208" height="71.3542" fill="white"/>
<rect x="78.1667" y="405" width="1.30208" height="71.3542" fill="white"/>
<rect x="74" y="405" width="1.30208" height="71.3542" fill="white"/>
<rect x="74" y="405" width="1.30208" height="71.3542" fill="white"/>
</mask>
<g mask="url(#mask0_1281_1548)">
<circle cx="106.161" cy="440.547" r="33.2031" fill="white"/>
<circle cx="106.161" cy="440.547" r="33.2031" fill="white"/>
</g>
</g>
<ellipse opacity="0.3" rx="4.55729" ry="4.16667" transform="matrix(-1 0 0 1 50.1302 376.343)" fill="#B3DDDB"/>
<ellipse opacity="0.3" rx="2.56842" ry="2.2571" transform="matrix(-0.957982 -0.286829 -0.286829 0.957982 101.285 401.638)" fill="#F87269"/>
<path d="M-5 347.051C-5 347.051 12.253 346.072 20.3597 352.667C33.8717 363.661 15.7771 385.112 26.4588 399.35C38.8195 415.826 56.6209 405.037 74.9311 412.337C91.9451 419.121 98.5585 438.971 116.662 438.452C130.929 438.043 136.14 417.784 150.368 419.006C168.546 420.567 186 452 186 452" stroke="#4D4761" stroke-width="0.520833"/>
<g opacity="0.3">
<ellipse cx="24.6908" cy="439.752" rx="2.15794" ry="1.31975" transform="rotate(27.6882 24.6908 439.752)" fill="#F87269"/>
<ellipse cx="16.1469" cy="432.039" rx="2.5176" ry="1.53971" transform="rotate(27.6882 16.1469 432.039)" fill="#F87269"/>
<ellipse cx="23.251" cy="428.563" rx="2.15794" ry="1.31975" transform="rotate(27.6882 23.251 428.563)" fill="#F87269"/>
<ellipse cx="-1.14542" cy="417.003" rx="1.79828" ry="1.09979" transform="rotate(27.6882 -1.14542 417.003)" fill="#F87269"/>
<ellipse cx="4.2731" cy="426.802" rx="1.79828" ry="1.09979" transform="rotate(27.6882 4.2731 426.802)" fill="#F87269"/>
<ellipse cx="13.5132" cy="438.606" rx="2.5176" ry="1.53971" transform="rotate(27.6882 13.5132 438.606)" fill="#F87269"/>
<ellipse cx="11.7861" cy="422.547" rx="2.15794" ry="1.31975" transform="rotate(27.6882 11.7861 422.547)" fill="#F87269"/>
<ellipse cx="0.972645" cy="404.452" rx="2.15794" ry="1.31975" transform="rotate(27.6882 0.972645 404.452)" fill="#F87269"/>
<ellipse cx="1.01427" cy="433.786" rx="2.15794" ry="1.31975" transform="rotate(27.6882 1.01427 433.786)" fill="#F87269"/>
<ellipse cx="1.70446" cy="410.798" rx="2.15794" ry="1.31975" transform="rotate(27.6882 1.70446 410.798)" fill="#F87269"/>
<ellipse cx="13.3383" cy="414.171" rx="2.5176" ry="1.53971" transform="rotate(27.6882 13.3383 414.171)" fill="#F87269"/>
<ellipse cx="9.39814" cy="404.651" rx="2.5176" ry="1.53971" transform="rotate(27.6882 9.39814 404.651)" fill="#F87269"/>
<ellipse cx="23.1828" cy="410.891" rx="1.79828" ry="1.09979" transform="rotate(27.6882 23.1828 410.891)" fill="#F87269"/>
<ellipse cx="32.1711" cy="420.078" rx="1.79828" ry="1.09979" transform="rotate(27.6882 32.1711 420.078)" fill="#F87269"/>
<ellipse cx="34.1886" cy="427.844" rx="2.15794" ry="1.31975" transform="rotate(27.6882 34.1886 427.844)" fill="#F87269"/>
<ellipse cx="21.2217" cy="420.046" rx="2.15794" ry="1.31975" transform="rotate(27.6882 21.2217 420.046)" fill="#F87269"/>
<ellipse cx="30.9536" cy="436.331" rx="1.79828" ry="1.09979" transform="rotate(27.6882 30.9536 436.331)" fill="#F87269"/>
</g>
<ellipse opacity="0.3" cx="328.647" cy="360.203" rx="7.42133" ry="6.85063" transform="rotate(11.5996 328.647 360.203)" fill="#F2BE6A"/>
<ellipse opacity="0.3" cx="207" cy="430.5" rx="4" ry="3.5" fill="#B3DDDB"/>
<ellipse opacity="0.3" cx="231.807" cy="84.5915" rx="31.2712" ry="28.2329" transform="rotate(0.445856 231.807 84.5915)" fill="#B3DDDB"/>
<g opacity="0.3">
<path d="M186.927 77.9738L190.347 68.733L199.587 65.3136L190.347 61.8943L186.927 52.6535L183.508 61.8943L174.267 65.3136L183.508 68.733L186.927 77.9738Z" fill="#F2BE6A"/>
<path d="M247.468 127.445L248.757 123.961L252.242 122.671L248.757 121.382L247.468 117.897L246.178 121.382L242.694 122.671L246.178 123.961L247.468 127.445Z" fill="#F2BE6A"/>
<path d="M265.451 101.498L263.398 107.739L257.325 110.243L263.566 112.295L266.07 118.368L268.122 112.128L274.195 109.624L267.955 107.571L265.451 101.498Z" fill="#F2BE6A"/>
</g>
<path d="M202.94 108.893C202.56 107.006 201.389 105.836 199.503 105.455C196.034 104.754 191.117 116.233 191.705 116.821C192.162 117.278 203.636 112.349 202.94 108.893Z" fill="#F7CECC"/>
<path d="M196.681 101.375C198.283 100.956 199.808 101.112 201.955 101.902L209.903 88.6562C202.781 88.3925 196.657 94.4841 194.376 99.4006C193.719 100.818 195.17 101.77 196.681 101.375Z" fill="#F7CECC"/>
<path d="M207.284 111.978C207.703 110.376 207.547 108.851 206.757 106.704L220.003 98.7565C220.266 105.878 214.175 112.002 209.258 114.283C207.841 114.94 206.889 113.489 207.284 111.978Z" fill="#F7CECC"/>
<path d="M229.689 78.9705C230.558 79.8398 229.4 88.0341 224.204 94.8436C219.782 100.64 209.895 105.529 206.434 107.121C205.694 107.461 204.832 107.291 204.257 106.715L201.944 104.402C201.368 103.827 201.198 102.965 201.538 102.225C203.13 98.7639 208.019 88.8776 213.816 84.455C220.625 79.2591 228.819 78.1013 229.689 78.9705Z" fill="#F7CECC"/>
<ellipse cx="218.874" cy="89.5181" rx="3.39862" ry="3.021" transform="rotate(45 218.874 89.5181)" fill="#E2EEEE"/>
<path d="M322.681 94.1972C287.362 90.7592 270 21.1855 337.5 -1.31433C405 -23.8142 379.384 4.50737 379.384 4.50737L395.844 174.561C368.464 177.154 348.744 175.815 334.38 150.323C320.017 124.831 358 97.6352 322.681 94.1972Z" fill="#F2BE6A"/>
<ellipse rx="7.16146" ry="6.77083" transform="matrix(-0.207476 0.97824 0.97824 0.207476 320.443 126.606)" fill="#F6D3D1"/>
<ellipse rx="4.55729" ry="4.94792" transform="matrix(-0.207476 0.97824 0.97824 0.207476 320.202 142.691)" fill="#F6D3D1"/>
<ellipse rx="3.64583" ry="3.25521" transform="matrix(-0.207476 0.97824 0.97824 0.207476 324.087 154.209)" fill="#F6D3D1"/>
<path d="M23.1303 72.1541C12.3414 72.1541 11.2253 94 0.06427 94C-40.8519 94 -79.2538 25.6609 8.79289 -7.82576C43.4732 -21.0157 135.017 -25.5294 168.128 -4.50788C182.009 4.30479 166.13 64.3226 121.764 64.3226C99.4421 64.3226 102.046 55.2702 82.7006 58.1398C66.7668 60.5034 63.7924 75.9581 47.8107 77.9563C31.829 79.9546 33.9193 72.1541 23.1303 72.1541Z" fill="#F87269"/>
<ellipse opacity="0.3" cx="73.7272" cy="81.335" rx="6.11979" ry="5.85938" transform="rotate(135 73.7272 81.335)" fill="#F2BE6A"/>
<ellipse opacity="0.3" cx="59.7327" cy="88.3327" rx="3.77604" ry="4.03646" transform="rotate(74.8268 59.7327 88.3327)" fill="#F2BE6A"/>
<ellipse opacity="0.3" cx="46.9346" cy="90.6343" rx="2.21354" ry="2.34375" transform="rotate(119.016 46.9346 90.6343)" fill="#F2BE6A"/>
<ellipse opacity="0.3" rx="2.56842" ry="2.2571" transform="matrix(-0.957982 -0.286829 -0.286829 0.957982 138.524 76.2844)" fill="#B3DDDB"/>
<ellipse opacity="0.3" rx="1.54688" ry="2.06752" transform="matrix(0.0527807 0.998606 0.998606 -0.0527807 38.865 90.0357)" fill="#F2BE6A"/>
<path d="M-10 72.074C-10 72.074 15.0109 85.7957 31.942 83.9875C60.1183 80.9784 58.4986 34.5958 83.6343 33.0672C106.849 31.6555 112.981 72.1207 136.546 72.074C171.744 72.0043 198.906 -5 198.906 -5" stroke="#4D4761" stroke-width="0.520833"/>
<path d="M383.51 192.31C383.51 192.31 359.781 170.167 363.312 152.725C365.285 142.982 377.491 141.361 380.329 131.903C385.627 114.242 359.871 102.347 366.678 85.3772C381.939 47.3336 270.698 93.1855 270.698 -6.8042" stroke="#4D4761" stroke-width="0.520833"/>
<g opacity="0.6">
<mask id="mask1_1281_1548" style="mask-type:alpha" maskUnits="userSpaceOnUse" x="274" y="26" width="65" height="73">
<rect x="337.01" y="26.7897" width="1.30208" height="71.3542" fill="white"/>
<rect x="337.01" y="26.7897" width="1.30208" height="71.3542" fill="white"/>
<rect x="332.844" y="26.7897" width="1.30208" height="71.3542" fill="white"/>
<rect x="332.844" y="26.7897" width="1.30208" height="71.3542" fill="white"/>
<rect x="328.677" y="26.7897" width="1.30208" height="71.3542" fill="white"/>
<rect x="328.677" y="26.7897" width="1.30208" height="71.3542" fill="white"/>
<rect x="324.51" y="26.7897" width="1.30208" height="71.3542" fill="white"/>
<rect x="324.51" y="26.7897" width="1.30208" height="71.3542" fill="white"/>
<rect x="320.344" y="26.7897" width="1.30208" height="71.3542" fill="white"/>
<rect x="320.344" y="26.7897" width="1.30208" height="71.3542" fill="white"/>
<rect x="316.177" y="26.7897" width="1.30208" height="71.3542" fill="white"/>
<rect x="316.177" y="26.7897" width="1.30208" height="71.3542" fill="white"/>
<rect x="312.01" y="26.7897" width="1.30208" height="71.3542" fill="white"/>
<rect x="312.01" y="26.7897" width="1.30208" height="71.3542" fill="white"/>
<rect x="307.844" y="26.7897" width="1.30208" height="71.3542" fill="white"/>
<rect x="307.844" y="26.7897" width="1.30208" height="71.3542" fill="white"/>
<rect x="303.677" y="26.7897" width="1.30208" height="71.3542" fill="white"/>
<rect x="303.677" y="26.7897" width="1.30208" height="71.3542" fill="white"/>
<rect x="299.51" y="26.7897" width="1.30208" height="71.3542" fill="white"/>
<rect x="299.51" y="26.7897" width="1.30208" height="71.3542" fill="white"/>
<rect x="295.344" y="26.7897" width="1.30208" height="71.3542" fill="white"/>
<rect x="295.344" y="26.7897" width="1.30208" height="71.3542" fill="white"/>
<rect x="291.177" y="26.7897" width="1.30208" height="71.3542" fill="white"/>
<rect x="291.177" y="26.7897" width="1.30208" height="71.3542" fill="white"/>
<rect x="287.01" y="26.7897" width="1.30208" height="71.3542" fill="white"/>
<rect x="287.01" y="26.7897" width="1.30208" height="71.3542" fill="white"/>
<rect x="282.844" y="26.7897" width="1.30208" height="71.3542" fill="white"/>
<rect x="282.844" y="26.7897" width="1.30208" height="71.3542" fill="white"/>
<rect x="278.677" y="26.7897" width="1.30208" height="71.3542" fill="white"/>
<rect x="278.677" y="26.7897" width="1.30208" height="71.3542" fill="white"/>
<rect x="274.51" y="26.7896" width="1.30208" height="71.3542" fill="white"/>
<rect x="274.51" y="26.7896" width="1.30208" height="71.3542" fill="white"/>
</mask>
<g mask="url(#mask1_1281_1548)">
<circle cx="306.672" cy="62.3366" r="33.2031" fill="white"/>
<circle cx="306.672" cy="62.3366" r="33.2031" fill="white"/>
</g>
</g>
<path opacity="0.3" d="M66.7915 129.038C65.5186 122.667 63.5061 111.88 62.3442 102L97.2421 102C97.7227 106.819 99.0655 121.817 100.241 134.074C100.871 140.651 99.653 145.434 92.8963 146.032C88.5157 146.032 84.9645 142.686 84.9645 138.558C84.9645 134.431 88.5157 131.085 92.8963 131.085C94.1119 131.085 95.2635 131.342 96.2932 131.803L92.6026 111.354H67.9563L70.276 131.803C71.4198 140.592 66.1633 143.043 62.9318 143.043C58.5512 143.043 55 139.697 55 135.569C55 131.441 58.5512 128.095 62.9318 128.095C64.3329 128.095 65.6492 128.437 66.7915 129.038Z" fill="#B3DDDB"/>
<path opacity="0.3" d="M42.5801 190.249L27.9014 157.005L51.1617 153L55.1491 164.014L38.2024 162.345C41.4373 173.067 49.7719 191.635 49.0941 198.413C48.5895 203.459 43.8981 208 37.4886 208C31.6858 208 26.8923 203.934 26.8923 198.917C26.64 194.124 30.4244 188.321 36.4794 188.321C39.5069 188.321 41.273 189.33 42.5801 190.249Z" fill="#F2BE6A"/>
</g>
<defs>
<clipPath id="clip0_1281_1548">
<rect width="375" height="449" fill="white"/>
</clipPath>
</defs>
</svg>
