<svg width="628" height="600" viewBox="0 0 628 600" fill="none" xmlns="http://www.w3.org/2000/svg">
<g style="mix-blend-mode:hard-light" opacity="0.2">
<path d="M242.942 182.81L128.551 210.605L128.551 155.045L242.942 182.81Z" fill="url(#paint0_linear_2584_881)"/>
<path d="M242.942 182.81L357.332 155.015L357.332 210.574L242.942 182.81Z" fill="url(#paint1_linear_2584_881)"/>
<path d="M243.051 182.689L142.556 121.317L181.774 82.0252L243.051 182.689Z" fill="url(#paint2_linear_2584_881)"/>
<path d="M243.063 182.688L304.341 82.0084L343.558 121.29L243.063 182.688Z" fill="url(#paint3_linear_2584_881)"/>
<path d="M242.942 182.808L215.211 68.2204L270.673 68.2132L242.942 182.808Z" fill="url(#paint4_linear_2584_881)"/>
<path d="M243.051 182.699L142.556 244.097L181.774 283.378L243.051 182.699Z" fill="url(#paint5_linear_2584_881)"/>
<path d="M243.063 182.7L304.34 283.364L343.558 244.072L243.063 182.7Z" fill="url(#paint6_linear_2584_881)"/>
<path d="M242.942 182.578L215.211 297.173L270.673 297.166L242.942 182.578Z" fill="url(#paint7_linear_2584_881)"/>
</g>
<path d="M211.019 340.99C211.019 322.404 226.086 307.337 244.672 307.337V307.337C263.258 307.337 278.325 322.404 278.325 340.99V340.99C278.325 359.576 263.258 374.643 244.672 374.643V374.643C226.086 374.643 211.019 359.576 211.019 340.99V340.99Z" fill="white"/>
<path d="M211.019 340.99C211.019 322.404 226.086 307.337 244.672 307.337V307.337C263.258 307.337 278.325 322.404 278.325 340.99V340.99C278.325 359.576 263.258 374.643 244.672 374.643V374.643C226.086 374.643 211.019 359.576 211.019 340.99V340.99Z" fill="#47F0EA"/>
<path d="M208.049 352.867H279.314V352.867C279.314 358.824 274.486 363.755 268.529 363.755H218.835C212.878 363.755 208.049 358.824 208.049 352.867V352.867Z" fill="white"/>
<path d="M208.049 352.867H279.314V352.867C279.314 358.824 274.486 363.755 268.529 363.755H218.835C212.878 363.755 208.049 358.824 208.049 352.867V352.867Z" fill="#F2F2F2"/>
<path d="M198.151 277.148C198.151 281.248 194.606 284.572 190.233 284.572C185.86 284.572 182.315 281.248 182.315 277.148C182.315 273.048 185.86 269.725 190.233 269.725C194.606 269.725 198.151 273.048 198.151 277.148Z" fill="#828282"/>
<path d="M305.05 277.148C305.05 281.248 301.505 284.572 297.132 284.572C292.759 284.572 289.213 281.248 289.213 277.148C289.213 273.048 292.759 269.725 297.132 269.725C301.505 269.725 305.05 273.048 305.05 277.148Z" fill="#828282"/>
<path d="M198.75 277.454C198.75 281.706 195.043 285.153 190.47 285.153C185.897 285.153 182.19 281.706 182.19 277.454C182.19 273.203 185.897 269.756 190.47 269.756C195.043 269.756 198.75 273.203 198.75 277.454Z" fill="#828282"/>
<path d="M305.059 277.454C305.059 281.706 301.352 285.153 296.779 285.153C292.206 285.153 288.499 281.706 288.499 277.454C288.499 273.203 292.206 269.756 296.779 269.756C301.352 269.756 305.059 273.203 305.059 277.454Z" fill="#828282"/>
<path d="M243.187 173.714C237.994 173.714 233.784 177.924 233.784 183.117C233.784 187.454 236.72 191.105 240.713 192.191V204.358H245.662V192.191C249.655 191.105 252.591 187.454 252.591 183.117C252.591 177.924 248.381 173.714 243.187 173.714Z" fill="#7ECDCA"/>
<path d="M243.187 173.714C237.994 173.714 233.784 177.924 233.784 183.117C233.784 187.454 236.72 191.105 240.713 192.191V204.358H245.662V192.191C249.655 191.105 252.591 187.454 252.591 183.117C252.591 177.924 248.381 173.714 243.187 173.714Z" fill="#7D8E9E"/>
<path d="M243.187 173.714C237.994 173.714 233.784 177.924 233.784 183.117C233.784 187.454 236.72 191.105 240.713 192.191V204.358H245.662V192.191C249.655 191.105 252.591 187.454 252.591 183.117C252.591 177.924 248.381 173.714 243.187 173.714Z" fill="#828282"/>
<path d="M232.794 203.94C232.794 200.366 235.692 197.469 239.266 197.469H247.109C250.683 197.469 253.58 200.366 253.58 203.94V209.347H232.794V203.94Z" fill="#D0E2EE"/>
<path d="M232.794 203.94C232.794 200.366 235.692 197.469 239.266 197.469H247.109C250.683 197.469 253.58 200.366 253.58 203.94V209.347H232.794V203.94Z" fill="#F2F2F2"/>
<path d="M233.541 205.388H253.935C278.369 205.388 298.176 225.227 298.176 249.701V342.03C298.176 347.469 293.775 351.878 288.345 351.878H199.13C193.701 351.878 189.299 347.469 189.299 342.03V249.701C189.299 225.227 209.107 205.388 233.541 205.388Z" fill="white"/>
<path d="M275.151 321.764C275.151 322.437 274.605 322.983 273.931 322.983V322.983C273.258 322.983 272.712 322.437 272.712 321.764V312.226C272.712 311.553 273.258 311.007 273.931 311.007V311.007C274.605 311.007 275.151 311.553 275.151 312.226V321.764Z" fill="white"/>
<path d="M275.151 321.764C275.151 322.437 274.605 322.983 273.931 322.983V322.983C273.258 322.983 272.712 322.437 272.712 321.764V312.226C272.712 311.553 273.258 311.007 273.931 311.007V311.007C274.605 311.007 275.151 311.553 275.151 312.226V321.764Z" fill="#7ECDCA"/>
<path d="M275.151 321.764C275.151 322.437 274.605 322.983 273.931 322.983V322.983C273.258 322.983 272.712 322.437 272.712 321.764V312.226C272.712 311.553 273.258 311.007 273.931 311.007V311.007C274.605 311.007 275.151 311.553 275.151 312.226V321.764Z" fill="#7ECDCA"/>
<path d="M275.151 321.764C275.151 322.437 274.605 322.983 273.931 322.983V322.983C273.258 322.983 272.712 322.437 272.712 321.764V312.226C272.712 311.553 273.258 311.007 273.931 311.007V311.007C274.605 311.007 275.151 311.553 275.151 312.226V321.764Z" fill="#828282"/>
<path d="M264.848 320.516H260.572L260.031 322.157C259.869 322.65 259.408 322.983 258.889 322.983V322.983C258.053 322.983 257.472 322.151 257.761 321.366L261.181 312.069C261.416 311.431 262.023 311.007 262.703 311.007V311.007C263.382 311.007 263.988 311.43 264.224 312.066L267.664 321.364C267.954 322.149 267.373 322.983 266.536 322.983V322.983C266.019 322.983 265.559 322.652 265.396 322.161L264.848 320.516ZM261.23 318.517H264.19L262.702 314.034L261.23 318.517Z" fill="white"/>
<path d="M264.848 320.516H260.572L260.031 322.157C259.869 322.65 259.408 322.983 258.889 322.983V322.983C258.053 322.983 257.472 322.151 257.761 321.366L261.181 312.069C261.416 311.431 262.023 311.007 262.703 311.007V311.007C263.382 311.007 263.988 311.43 264.224 312.066L267.664 321.364C267.954 322.149 267.373 322.983 266.536 322.983V322.983C266.019 322.983 265.559 322.652 265.396 322.161L264.848 320.516ZM261.23 318.517H264.19L262.702 314.034L261.23 318.517Z" fill="#7ECDCA"/>
<path d="M264.848 320.516H260.572L260.031 322.157C259.869 322.65 259.408 322.983 258.889 322.983V322.983C258.053 322.983 257.472 322.151 257.761 321.366L261.181 312.069C261.416 311.431 262.023 311.007 262.703 311.007V311.007C263.382 311.007 263.988 311.43 264.224 312.066L267.664 321.364C267.954 322.149 267.373 322.983 266.536 322.983V322.983C266.019 322.983 265.559 322.652 265.396 322.161L264.848 320.516ZM261.23 318.517H264.19L262.702 314.034L261.23 318.517Z" fill="#7ECDCA"/>
<path d="M264.848 320.516H260.572L260.031 322.157C259.869 322.65 259.408 322.983 258.889 322.983V322.983C258.053 322.983 257.472 322.151 257.761 321.366L261.181 312.069C261.416 311.431 262.023 311.007 262.703 311.007V311.007C263.382 311.007 263.988 311.43 264.224 312.066L267.664 321.364C267.954 322.149 267.373 322.983 266.536 322.983V322.983C266.019 322.983 265.559 322.652 265.396 322.161L264.848 320.516ZM261.23 318.517H264.19L262.702 314.034L261.23 318.517Z" fill="#828282"/>
<path d="M278.73 321.538C278.73 322.368 278.056 323.042 277.225 323.042V323.042C276.394 323.042 275.721 322.368 275.721 321.538V321.538C275.721 320.707 276.394 320.033 277.225 320.033V320.033C278.056 320.033 278.73 320.707 278.73 321.538V321.538Z" fill="white"/>
<path d="M278.73 321.538C278.73 322.368 278.056 323.042 277.225 323.042V323.042C276.394 323.042 275.721 322.368 275.721 321.538V321.538C275.721 320.707 276.394 320.033 277.225 320.033V320.033C278.056 320.033 278.73 320.707 278.73 321.538V321.538Z" fill="#7ECDCA"/>
<path d="M278.73 321.538C278.73 322.368 278.056 323.042 277.225 323.042V323.042C276.394 323.042 275.721 322.368 275.721 321.538V321.538C275.721 320.707 276.394 320.033 277.225 320.033V320.033C278.056 320.033 278.73 320.707 278.73 321.538V321.538Z" fill="#7ECDCA"/>
<path d="M278.73 321.538C278.73 322.368 278.056 323.042 277.225 323.042V323.042C276.394 323.042 275.721 322.368 275.721 321.538V321.538C275.721 320.707 276.394 320.033 277.225 320.033V320.033C278.056 320.033 278.73 320.707 278.73 321.538V321.538Z" fill="#828282"/>
<path d="M271.708 321.538C271.708 322.368 271.034 323.042 270.203 323.042V323.042C269.373 323.042 268.699 322.368 268.699 321.538V321.538C268.699 320.707 269.373 320.033 270.203 320.033V320.033C271.034 320.033 271.708 320.707 271.708 321.538V321.538Z" fill="white"/>
<path d="M271.708 321.538C271.708 322.368 271.034 323.042 270.203 323.042V323.042C269.373 323.042 268.699 322.368 268.699 321.538V321.538C268.699 320.707 269.373 320.033 270.203 320.033V320.033C271.034 320.033 271.708 320.707 271.708 321.538V321.538Z" fill="#7ECDCA"/>
<path d="M271.708 321.538C271.708 322.368 271.034 323.042 270.203 323.042V323.042C269.373 323.042 268.699 322.368 268.699 321.538V321.538C268.699 320.707 269.373 320.033 270.203 320.033V320.033C271.034 320.033 271.708 320.707 271.708 321.538V321.538Z" fill="#7ECDCA"/>
<path d="M271.708 321.538C271.708 322.368 271.034 323.042 270.203 323.042V323.042C269.373 323.042 268.699 322.368 268.699 321.538V321.538C268.699 320.707 269.373 320.033 270.203 320.033V320.033C271.034 320.033 271.708 320.707 271.708 321.538V321.538Z" fill="#828282"/>
<path d="M208.049 351.878H279.314V354.847H208.049V351.878Z" fill="#828282"/>
<path d="M189.243 246.959H298.121V249.673H189.243V246.959Z" fill="#828282"/>
<path d="M199.141 276.158C199.141 264.405 208.669 254.877 220.422 254.877H266.942C278.695 254.877 288.223 264.405 288.223 276.158V276.158C288.223 287.911 278.695 297.438 266.942 297.438H220.422C208.669 297.438 199.141 287.911 199.141 276.158V276.158Z" fill="#121212"/>
<g filter="url(#filter0_d_2584_881)">
<path d="M226.2 276.665C226.2 279.183 224.161 281.225 221.645 281.225C219.129 281.225 217.09 279.183 217.09 276.665C217.09 274.146 219.129 272.105 221.645 272.105C224.161 272.105 226.2 274.146 226.2 276.665Z" fill="#47F0EA"/>
<path d="M243.808 283.252C241.724 283.252 239.907 282.105 238.952 280.407C238.769 280.081 239.024 279.705 239.397 279.705V279.705C239.599 279.705 239.781 279.821 239.883 279.995C240.676 281.338 242.137 282.239 243.808 282.239C245.48 282.239 246.941 281.338 247.733 279.995C247.836 279.821 248.018 279.705 248.219 279.705V279.705C248.593 279.705 248.847 280.081 248.664 280.407C247.71 282.105 245.893 283.252 243.808 283.252Z" fill="#47F0EA"/>
<path fill-rule="evenodd" clip-rule="evenodd" d="M247.648 280.133C246.838 281.399 245.421 282.239 243.808 282.239C242.195 282.239 240.778 281.399 239.969 280.133C239.939 280.088 239.911 280.041 239.883 279.995C239.867 279.967 239.848 279.94 239.828 279.915C239.722 279.787 239.566 279.705 239.397 279.705C239.024 279.705 238.769 280.081 238.952 280.407C238.972 280.441 238.991 280.475 239.011 280.509C239.053 280.581 239.097 280.652 239.143 280.721C240.136 282.245 241.855 283.252 243.808 283.252C245.762 283.252 247.48 282.245 248.474 280.721C248.519 280.652 248.563 280.581 248.605 280.509C248.625 280.475 248.645 280.441 248.664 280.407C248.847 280.081 248.593 279.705 248.219 279.705C248.05 279.705 247.895 279.787 247.789 279.915C247.768 279.94 247.75 279.967 247.733 279.995C247.705 280.041 247.677 280.088 247.648 280.133ZM243.808 284.331C241.318 284.331 239.149 282.959 238.012 280.936C237.362 279.778 238.331 278.627 239.397 278.627C240.023 278.627 240.538 278.982 240.812 279.446C241.419 280.475 242.535 281.16 243.808 281.16C245.082 281.16 246.197 280.475 246.804 279.446C247.078 278.982 247.594 278.627 248.219 278.627C249.285 278.627 250.255 279.778 249.604 280.936C248.467 282.959 246.299 284.331 243.808 284.331Z" fill="#47F0EA"/>
<path d="M269.759 276.665C269.759 279.183 267.72 281.225 265.204 281.225C262.688 281.225 260.649 279.183 260.649 276.665C260.649 274.146 262.688 272.104 265.204 272.104C267.72 272.104 269.759 274.146 269.759 276.665Z" fill="#47F0EA"/>
</g>
<path opacity="0.8" d="M233.813 183.018C233.813 177.829 238.019 173.623 243.208 173.623V173.623C248.397 173.623 252.603 177.829 252.603 183.018V183.247C252.603 188.436 248.397 192.642 243.208 192.642V192.642C238.019 192.642 233.813 188.436 233.813 183.247V183.018Z" fill="#828282"/>
<g filter="url(#filter1_d_2584_881)">
<rect x="236.268" y="176.15" width="13.646" height="14.1514" rx="6.823" fill="#3AFFFC"/>
</g>
<g filter="url(#filter2_d_2584_881)">
<path fill-rule="evenodd" clip-rule="evenodd" d="M233.759 183.149C233.759 183.867 233.839 184.566 233.991 185.237C234.72 188.685 237.335 191.437 240.705 192.364V197.539H239.254C235.671 197.539 232.766 200.444 232.766 204.027V205.484C208.612 205.885 189.155 225.621 189.155 249.908V270.036C186.3 270.351 183.907 272.087 182.805 274.469C182.306 275.461 182.027 276.568 182.027 277.735C182.027 281.628 185.126 284.847 189.155 285.377V342.481C189.155 347.934 193.569 352.355 199.013 352.355H212.737C212.851 352.688 212.97 353.018 213.094 353.347H207.955C207.955 359.319 212.797 364.263 218.77 364.263H219.824C225.991 370.974 234.841 375.18 244.674 375.18C254.529 375.18 263.396 370.956 269.565 364.219C275.083 363.719 279.409 358.992 279.409 353.347H276.255C276.379 353.018 276.497 352.688 276.611 352.355H288.463C293.907 352.355 298.32 347.934 298.32 342.481V285.344C302.238 284.725 305.221 281.554 305.221 277.735C305.221 277.614 305.218 277.494 305.212 277.375C305.184 273.621 302.192 270.527 298.32 270.049V249.908C298.32 225.37 278.46 205.478 253.962 205.478H253.606V204.027C253.606 200.444 250.701 197.539 247.118 197.539H245.667V192.375C249.676 191.293 252.626 187.631 252.626 183.28V183.05C252.626 177.847 248.409 173.63 243.207 173.63C238.9 173.63 235.268 176.521 234.145 180.468C233.894 181.318 233.759 182.218 233.759 183.149Z" fill="url(#paint8_linear_2584_881)"/>
</g>
<path d="M210.932 341.438C210.932 322.803 226.039 307.697 244.674 307.697V307.697C263.309 307.697 278.416 322.803 278.416 341.438V341.438C278.416 360.074 263.309 375.18 244.674 375.18V375.18C226.039 375.18 210.932 360.074 210.932 341.438V341.438Z" fill="white"/>
<path d="M210.932 341.438C210.932 322.803 226.039 307.697 244.674 307.697V307.697C263.309 307.697 278.416 322.803 278.416 341.438V341.438C278.416 360.074 263.309 375.18 244.674 375.18V375.18C226.039 375.18 210.932 360.074 210.932 341.438V341.438Z" fill="#47F0EA"/>
<path d="M207.955 353.347H279.408V353.347C279.408 359.319 274.567 364.263 268.594 364.263H218.769C212.797 364.263 207.955 359.319 207.955 353.347V353.347Z" fill="white"/>
<path d="M207.955 353.347H279.408V353.347C279.408 359.319 274.567 364.263 268.594 364.263H218.769C212.797 364.263 207.955 359.319 207.955 353.347V353.347Z" fill="#F2F2F2"/>
<path d="M198.031 277.428C198.031 281.539 194.477 284.871 190.092 284.871C185.707 284.871 182.153 281.539 182.153 277.428C182.153 273.317 185.707 269.985 190.092 269.985C194.477 269.985 198.031 273.317 198.031 277.428Z" fill="#828282"/>
<path d="M305.212 277.428C305.212 281.539 301.657 284.871 297.273 284.871C292.888 284.871 289.333 281.539 289.333 277.428C289.333 273.317 292.888 269.985 297.273 269.985C301.657 269.985 305.212 273.317 305.212 277.428Z" fill="#828282"/>
<path d="M198.631 277.735C198.631 281.998 194.914 285.454 190.329 285.454C185.744 285.454 182.027 281.998 182.027 277.735C182.027 273.472 185.744 270.017 190.329 270.017C194.914 270.017 198.631 273.472 198.631 277.735Z" fill="#828282"/>
<path d="M305.221 277.735C305.221 281.998 301.504 285.454 296.919 285.454C292.334 285.454 288.617 281.998 288.617 277.735C288.617 273.472 292.334 270.017 296.919 270.017C301.504 270.017 305.221 273.472 305.221 277.735Z" fill="#828282"/>
<path d="M243.186 173.721C237.979 173.721 233.758 177.942 233.758 183.149C233.758 187.497 236.702 191.158 240.705 192.247V204.446H245.667V192.247C249.67 191.158 252.614 187.497 252.614 183.149C252.614 177.942 248.393 173.721 243.186 173.721Z" fill="#7ECDCA"/>
<path d="M243.186 173.721C237.979 173.721 233.758 177.942 233.758 183.149C233.758 187.497 236.702 191.158 240.705 192.247V204.446H245.667V192.247C249.67 191.158 252.614 187.497 252.614 183.149C252.614 177.942 248.393 173.721 243.186 173.721Z" fill="#7D8E9E"/>
<path d="M243.186 173.721C237.979 173.721 233.758 177.942 233.758 183.149C233.758 187.497 236.702 191.158 240.705 192.247V204.446H245.667V192.247C249.67 191.158 252.614 187.497 252.614 183.149C252.614 177.942 248.393 173.721 243.186 173.721Z" fill="#828282"/>
<path d="M232.765 204.027C232.765 200.444 235.67 197.539 239.254 197.539H247.117C250.701 197.539 253.606 200.444 253.606 204.027V209.448H232.765V204.027Z" fill="#D0E2EE"/>
<path d="M232.765 204.027C232.765 200.444 235.67 197.539 239.254 197.539H247.117C250.701 197.539 253.606 200.444 253.606 204.027V209.448H232.765V204.027Z" fill="#F2F2F2"/>
<path d="M233.514 205.479H253.962C278.46 205.479 298.32 225.371 298.32 249.909V342.482C298.32 347.934 293.907 352.355 288.463 352.355H199.013C193.569 352.355 189.155 347.934 189.155 342.482V249.909C189.155 225.371 209.015 205.479 233.514 205.479Z" fill="white"/>
<path d="M275.234 322.162C275.234 322.837 274.686 323.384 274.011 323.384V323.384C273.336 323.384 272.788 322.837 272.788 322.162V312.599C272.788 311.924 273.336 311.376 274.011 311.376V311.376C274.686 311.376 275.234 311.924 275.234 312.599V322.162Z" fill="white"/>
<path d="M275.234 322.162C275.234 322.837 274.686 323.384 274.011 323.384V323.384C273.336 323.384 272.788 322.837 272.788 322.162V312.599C272.788 311.924 273.336 311.376 274.011 311.376V311.376C274.686 311.376 275.234 311.924 275.234 312.599V322.162Z" fill="#7ECDCA"/>
<path d="M275.234 322.162C275.234 322.837 274.686 323.384 274.011 323.384V323.384C273.336 323.384 272.788 322.837 272.788 322.162V312.599C272.788 311.924 273.336 311.376 274.011 311.376V311.376C274.686 311.376 275.234 311.924 275.234 312.599V322.162Z" fill="#7ECDCA"/>
<path d="M275.234 322.162C275.234 322.837 274.686 323.384 274.011 323.384V323.384C273.336 323.384 272.788 322.837 272.788 322.162V312.599C272.788 311.924 273.336 311.376 274.011 311.376V311.376C274.686 311.376 275.234 311.924 275.234 312.599V322.162Z" fill="#828282"/>
<path d="M264.904 320.91H260.616L260.074 322.556C259.911 323.051 259.45 323.385 258.929 323.385V323.385C258.09 323.385 257.508 322.55 257.798 321.763L261.227 312.441C261.463 311.802 262.072 311.377 262.753 311.377V311.377C263.433 311.377 264.042 311.8 264.278 312.438L267.727 321.761C268.018 322.548 267.436 323.385 266.597 323.385V323.385C266.078 323.385 265.617 323.052 265.453 322.56L264.904 320.91ZM261.277 318.906H264.244L262.752 314.412L261.277 318.906Z" fill="white"/>
<path d="M264.904 320.91H260.616L260.074 322.556C259.911 323.051 259.45 323.385 258.929 323.385V323.385C258.09 323.385 257.508 322.55 257.798 321.763L261.227 312.441C261.463 311.802 262.072 311.377 262.753 311.377V311.377C263.433 311.377 264.042 311.8 264.278 312.438L267.727 321.761C268.018 322.548 267.436 323.385 266.597 323.385V323.385C266.078 323.385 265.617 323.052 265.453 322.56L264.904 320.91ZM261.277 318.906H264.244L262.752 314.412L261.277 318.906Z" fill="#7ECDCA"/>
<path d="M264.904 320.91H260.616L260.074 322.556C259.911 323.051 259.45 323.385 258.929 323.385V323.385C258.09 323.385 257.508 322.55 257.798 321.763L261.227 312.441C261.463 311.802 262.072 311.377 262.753 311.377V311.377C263.433 311.377 264.042 311.8 264.278 312.438L267.727 321.761C268.018 322.548 267.436 323.385 266.597 323.385V323.385C266.078 323.385 265.617 323.052 265.453 322.56L264.904 320.91ZM261.277 318.906H264.244L262.752 314.412L261.277 318.906Z" fill="#7ECDCA"/>
<path d="M264.904 320.91H260.616L260.074 322.556C259.911 323.051 259.45 323.385 258.929 323.385V323.385C258.09 323.385 257.508 322.55 257.798 321.763L261.227 312.441C261.463 311.802 262.072 311.377 262.753 311.377V311.377C263.433 311.377 264.042 311.8 264.278 312.438L267.727 321.761C268.018 322.548 267.436 323.385 266.597 323.385V323.385C266.078 323.385 265.617 323.052 265.453 322.56L264.904 320.91ZM261.277 318.906H264.244L262.752 314.412L261.277 318.906Z" fill="#828282"/>
<path d="M278.822 321.935C278.822 322.768 278.147 323.443 277.314 323.443V323.443C276.481 323.443 275.805 322.768 275.805 321.935V321.935C275.805 321.102 276.481 320.427 277.314 320.427V320.427C278.147 320.427 278.822 321.102 278.822 321.935V321.935Z" fill="white"/>
<path d="M278.822 321.935C278.822 322.768 278.147 323.443 277.314 323.443V323.443C276.481 323.443 275.805 322.768 275.805 321.935V321.935C275.805 321.102 276.481 320.427 277.314 320.427V320.427C278.147 320.427 278.822 321.102 278.822 321.935V321.935Z" fill="#7ECDCA"/>
<path d="M278.822 321.935C278.822 322.768 278.147 323.443 277.314 323.443V323.443C276.481 323.443 275.805 322.768 275.805 321.935V321.935C275.805 321.102 276.481 320.427 277.314 320.427V320.427C278.147 320.427 278.822 321.102 278.822 321.935V321.935Z" fill="#7ECDCA"/>
<path d="M278.822 321.935C278.822 322.768 278.147 323.443 277.314 323.443V323.443C276.481 323.443 275.805 322.768 275.805 321.935V321.935C275.805 321.102 276.481 320.427 277.314 320.427V320.427C278.147 320.427 278.822 321.102 278.822 321.935V321.935Z" fill="#828282"/>
<path d="M271.782 321.935C271.782 322.768 271.106 323.443 270.273 323.443V323.443C269.44 323.443 268.765 322.768 268.765 321.935V321.935C268.765 321.102 269.44 320.427 270.273 320.427V320.427C271.106 320.427 271.782 321.102 271.782 321.935V321.935Z" fill="white"/>
<path d="M271.782 321.935C271.782 322.768 271.106 323.443 270.273 323.443V323.443C269.44 323.443 268.765 322.768 268.765 321.935V321.935C268.765 321.102 269.44 320.427 270.273 320.427V320.427C271.106 320.427 271.782 321.102 271.782 321.935V321.935Z" fill="#7ECDCA"/>
<path d="M271.782 321.935C271.782 322.768 271.106 323.443 270.273 323.443V323.443C269.44 323.443 268.765 322.768 268.765 321.935V321.935C268.765 321.102 269.44 320.427 270.273 320.427V320.427C271.106 320.427 271.782 321.102 271.782 321.935V321.935Z" fill="#7ECDCA"/>
<path d="M271.782 321.935C271.782 322.768 271.106 323.443 270.273 323.443V323.443C269.44 323.443 268.765 322.768 268.765 321.935V321.935C268.765 321.102 269.44 320.427 270.273 320.427V320.427C271.106 320.427 271.782 321.102 271.782 321.935V321.935Z" fill="#828282"/>
<path d="M207.955 352.355H279.408V355.332H207.955V352.355Z" fill="#828282"/>
<path d="M189.1 247.16H298.265V249.881H189.1V247.16Z" fill="#828282"/>
<path d="M199.024 276.435C199.024 264.651 208.576 255.099 220.36 255.099H267.004C278.788 255.099 288.34 264.651 288.34 276.435V276.435C288.34 288.219 278.788 297.772 267.004 297.772H220.36C208.576 297.772 199.024 288.219 199.024 276.435V276.435Z" fill="#121212"/>
<g filter="url(#filter3_d_2584_881)">
<path d="M226.155 276.944C226.155 279.469 224.11 281.516 221.587 281.516C219.065 281.516 217.02 279.469 217.02 276.944C217.02 274.419 219.065 272.372 221.587 272.372C224.11 272.372 226.155 274.419 226.155 276.944Z" fill="#47F0EA"/>
<path d="M243.809 283.549C241.719 283.549 239.897 282.399 238.94 280.696C238.757 280.37 239.011 279.992 239.386 279.992V279.992C239.588 279.992 239.771 280.108 239.874 280.283C240.668 281.629 242.133 282.533 243.809 282.533C245.484 282.533 246.949 281.629 247.744 280.283C247.847 280.108 248.029 279.992 248.231 279.992V279.992C248.606 279.992 248.861 280.37 248.678 280.696C247.721 282.399 245.899 283.549 243.809 283.549Z" fill="#47F0EA"/>
<path fill-rule="evenodd" clip-rule="evenodd" d="M247.658 280.421C246.847 281.691 245.426 282.532 243.809 282.532C242.191 282.532 240.77 281.691 239.959 280.421C239.93 280.376 239.901 280.329 239.873 280.282C239.857 280.254 239.838 280.228 239.818 280.203C239.711 280.074 239.556 279.992 239.386 279.992C239.011 279.992 238.756 280.369 238.94 280.696C238.959 280.73 238.979 280.765 238.999 280.798C239.041 280.87 239.085 280.941 239.131 281.011C240.127 282.539 241.85 283.548 243.809 283.548C245.767 283.548 247.49 282.539 248.487 281.011C248.532 280.941 248.576 280.87 248.618 280.798C248.638 280.765 248.658 280.73 248.677 280.696C248.861 280.369 248.606 279.992 248.231 279.992C248.062 279.992 247.906 280.074 247.8 280.203C247.779 280.228 247.761 280.254 247.744 280.282C247.716 280.329 247.688 280.376 247.658 280.421ZM243.809 284.63C241.312 284.63 239.137 283.255 237.997 281.226C237.345 280.065 238.317 278.911 239.386 278.911C240.013 278.911 240.53 279.267 240.805 279.733C241.413 280.764 242.532 281.451 243.809 281.451C245.086 281.451 246.204 280.764 246.813 279.733C247.087 279.267 247.604 278.911 248.231 278.911C249.3 278.911 250.272 280.065 249.62 281.226C248.48 283.255 246.306 284.63 243.809 284.63Z" fill="#47F0EA"/>
<path d="M269.828 276.944C269.828 279.469 267.783 281.516 265.261 281.516C262.738 281.516 260.694 279.469 260.694 276.944C260.694 274.418 262.738 272.371 265.261 272.371C267.783 272.371 269.828 274.418 269.828 276.944Z" fill="#47F0EA"/>
</g>
<path opacity="0.8" d="M233.787 183.05C233.787 177.847 238.004 173.63 243.207 173.63V173.63C248.409 173.63 252.626 177.847 252.626 183.05V183.28C252.626 188.482 248.409 192.7 243.207 192.7V192.7C238.004 192.7 233.787 188.482 233.787 183.28V183.05Z" fill="#828282"/>
<g filter="url(#filter4_d_2584_881)">
<rect x="236.248" y="176.164" width="13.682" height="14.1887" rx="6.841" fill="#3AFFFC"/>
</g>
<g style="mix-blend-mode:hard-light" opacity="0.55">
<path fill-rule="evenodd" clip-rule="evenodd" d="M233.759 183.149C233.759 183.867 233.839 184.566 233.991 185.237C234.72 188.685 237.335 191.437 240.705 192.364V197.539H239.254C235.671 197.539 232.766 200.444 232.766 204.027V205.484C208.612 205.885 189.155 225.621 189.155 249.908V270.036C186.3 270.351 183.907 272.087 182.805 274.469C182.306 275.461 182.027 276.568 182.027 277.735C182.027 281.628 185.126 284.847 189.155 285.377V342.481C189.155 347.934 193.569 352.355 199.013 352.355H207.956C207.96 352.689 207.979 353.02 208.013 353.347H207.955C207.955 359.319 212.797 364.263 218.77 364.263H219.824C225.991 370.974 234.841 375.18 244.674 375.18C254.529 375.18 263.396 370.956 269.565 364.219C275.083 363.719 279.409 358.992 279.409 353.347H279.351C279.385 353.02 279.404 352.689 279.408 352.355H288.463C293.907 352.355 298.32 347.934 298.32 342.481V285.344C302.238 284.725 305.221 281.554 305.221 277.735C305.221 277.614 305.218 277.494 305.212 277.375C305.184 273.621 302.192 270.527 298.32 270.049V249.908C298.32 225.37 278.46 205.478 253.962 205.478H253.606V204.027C253.606 200.444 250.701 197.539 247.118 197.539H245.667V192.375C249.676 191.293 252.626 187.631 252.626 183.28V183.05C252.626 177.847 248.409 173.63 243.207 173.63C238.9 173.63 235.268 176.521 234.145 180.468C233.894 181.318 233.759 182.218 233.759 183.149Z" fill="url(#paint9_linear_2584_881)"/>
</g>
<path opacity="0.5" fill-rule="evenodd" clip-rule="evenodd" d="M245.098 375.186C254.245 375.186 262.475 371.26 268.195 365H222C227.72 371.26 235.95 375.186 245.098 375.186Z" fill="#3AFFFC"/>
<g filter="url(#filter5_d_2584_881)">
<path d="M412.052 129.807C412.18 128.788 413.132 128.069 414.178 128.201L428.703 130.032C429.749 130.163 430.493 131.096 430.365 132.115L428.482 147.048L428.465 147.187C428.061 149.787 425.607 151.605 422.918 151.266C420.183 150.921 418.238 148.474 418.575 145.799C418.912 143.125 421.403 141.237 424.139 141.582C425.127 141.706 426.012 142.105 426.723 142.689L427.931 133.11L414.163 131.374L412.464 144.85C412.459 144.909 412.453 144.968 412.445 145.027C412.108 147.701 409.617 149.59 406.881 149.245C404.145 148.9 402.201 146.452 402.538 143.778C402.875 141.104 405.366 139.215 408.102 139.56C409.089 139.684 409.972 140.082 410.683 140.666L412.052 129.807Z" fill="#3AFFFC"/>
<path d="M412.052 129.807C412.18 128.788 413.132 128.069 414.178 128.201L428.703 130.032C429.749 130.163 430.493 131.096 430.365 132.115L428.482 147.048L428.465 147.187C428.061 149.787 425.607 151.605 422.918 151.266C420.183 150.921 418.238 148.474 418.575 145.799C418.912 143.125 421.403 141.237 424.139 141.582C425.127 141.706 426.012 142.105 426.723 142.689L427.931 133.11L414.163 131.374L412.464 144.85C412.459 144.909 412.453 144.968 412.445 145.027C412.108 147.701 409.617 149.59 406.881 149.245C404.145 148.9 402.201 146.452 402.538 143.778C402.875 141.104 405.366 139.215 408.102 139.56C409.089 139.684 409.972 140.082 410.683 140.666L412.052 129.807Z" fill="url(#paint10_radial_2584_881)"/>
<path d="M414.178 128.201C413.132 128.069 412.18 128.788 412.052 129.807L410.683 140.666C409.972 140.082 409.089 139.684 408.102 139.56C405.366 139.215 402.875 141.104 402.538 143.778C402.201 146.452 404.145 148.9 406.881 149.245C409.617 149.59 412.108 147.701 412.445 145.027C412.453 144.968 412.459 144.909 412.464 144.85L414.163 131.374L427.931 133.11L426.723 142.689C426.012 142.105 425.127 141.706 424.139 141.582C421.403 141.237 418.912 143.125 418.575 145.799C418.238 148.474 420.183 150.921 422.918 151.266C425.607 151.605 428.061 149.787 428.465 147.187L428.482 147.048L430.365 132.115C430.493 131.096 429.749 130.163 428.703 130.032L414.178 128.201Z" fill="#3AFFFC"/>
<path d="M414.178 128.201C413.132 128.069 412.18 128.788 412.052 129.807L410.683 140.666C409.972 140.082 409.089 139.684 408.102 139.56C405.366 139.215 402.875 141.104 402.538 143.778C402.201 146.452 404.145 148.9 406.881 149.245C409.617 149.59 412.108 147.701 412.445 145.027C412.453 144.968 412.459 144.909 412.464 144.85L414.163 131.374L427.931 133.11L426.723 142.689C426.012 142.105 425.127 141.706 424.139 141.582C421.403 141.237 418.912 143.125 418.575 145.799C418.238 148.474 420.183 150.921 422.918 151.266C425.607 151.605 428.061 149.787 428.465 147.187L428.482 147.048L430.365 132.115C430.493 131.096 429.749 130.163 428.703 130.032L414.178 128.201Z" fill="url(#paint11_radial_2584_881)"/>
<path d="M97.3848 101.954C97.7398 100.687 99.0823 99.9547 100.383 100.319L118.453 105.381C119.754 105.745 120.521 107.068 120.166 108.335L114.963 126.913L114.914 127.085C113.912 130.306 110.457 132.147 107.113 131.211C103.709 130.257 101.706 126.787 102.638 123.46C103.57 120.134 107.084 118.209 110.488 119.163C111.717 119.507 112.763 120.179 113.555 121.055L116.893 109.137L99.7654 104.34L95.0695 121.104C95.0517 121.178 95.0326 121.251 95.0121 121.325C94.0802 124.651 90.5658 126.576 87.1624 125.622C83.7589 124.669 81.7553 121.199 82.6872 117.872C83.6191 114.545 87.1336 112.621 90.537 113.574C91.7644 113.918 92.8097 114.589 93.6009 115.463L97.3848 101.954Z" fill="#3AFFFC"/>
<path d="M97.3848 101.954C97.7398 100.687 99.0823 99.9547 100.383 100.319L118.453 105.381C119.754 105.745 120.521 107.068 120.166 108.335L114.963 126.913L114.914 127.085C113.912 130.306 110.457 132.147 107.113 131.211C103.709 130.257 101.706 126.787 102.638 123.46C103.57 120.134 107.084 118.209 110.488 119.163C111.717 119.507 112.763 120.179 113.555 121.055L116.893 109.137L99.7654 104.34L95.0695 121.104C95.0517 121.178 95.0326 121.251 95.0121 121.325C94.0802 124.651 90.5658 126.576 87.1624 125.622C83.7589 124.669 81.7553 121.199 82.6872 117.872C83.6191 114.545 87.1336 112.621 90.537 113.574C91.7644 113.918 92.8097 114.589 93.6009 115.463L97.3848 101.954Z" fill="url(#paint12_radial_2584_881)"/>
<path d="M100.383 100.319C99.0823 99.9547 97.7398 100.687 97.3848 101.954L93.6009 115.463C92.8097 114.589 91.7644 113.918 90.537 113.574C87.1336 112.621 83.6191 114.545 82.6872 117.872C81.7553 121.199 83.7589 124.669 87.1624 125.622C90.5658 126.576 94.0802 124.651 95.0121 121.325C95.0326 121.251 95.0517 121.178 95.0695 121.104L99.7654 104.34L116.893 109.137L113.555 121.055C112.763 120.179 111.717 119.507 110.488 119.163C107.084 118.209 103.57 120.134 102.638 123.46C101.706 126.787 103.709 130.257 107.113 131.211C110.457 132.147 113.912 130.306 114.914 127.085L114.963 126.913L120.166 108.335C120.521 107.068 119.754 105.745 118.453 105.381L100.383 100.319Z" fill="#3AFFFC"/>
<path d="M100.383 100.319C99.0823 99.9547 97.7398 100.687 97.3848 101.954L93.6009 115.463C92.8097 114.589 91.7644 113.918 90.537 113.574C87.1336 112.621 83.6191 114.545 82.6872 117.872C81.7553 121.199 83.7589 124.669 87.1624 125.622C90.5658 126.576 94.0802 124.651 95.0121 121.325C95.0326 121.251 95.0517 121.178 95.0695 121.104L99.7654 104.34L116.893 109.137L113.555 121.055C112.763 120.179 111.717 119.507 110.488 119.163C107.084 118.209 103.57 120.134 102.638 123.46C101.706 126.787 103.709 130.257 107.113 131.211C110.457 132.147 113.912 130.306 114.914 127.085L114.963 126.913L120.166 108.335C120.521 107.068 119.754 105.745 118.453 105.381L100.383 100.319Z" fill="url(#paint13_radial_2584_881)"/>
<g opacity="0.8">
<path d="M191.957 136.031C191.386 135.228 191.587 134.106 192.405 133.525L197.292 130.052C198.11 129.471 199.235 129.651 199.806 130.455L202.183 133.8L196.111 138.114L200.571 144.391C200.74 144.563 200.898 144.751 201.042 144.954C202.54 147.063 202.02 150.004 199.881 151.525C197.741 153.045 194.792 152.568 193.294 150.459C191.796 148.35 192.315 145.408 194.455 143.888C195.208 143.353 196.061 143.066 196.915 143.009L191.957 136.031Z" fill="#3AFFFC"/>
<path d="M191.957 136.031C191.386 135.228 191.587 134.106 192.405 133.525L197.292 130.052C198.11 129.471 199.235 129.651 199.806 130.455L202.183 133.8L196.111 138.114L200.571 144.391C200.74 144.563 200.898 144.751 201.042 144.954C202.54 147.063 202.02 150.004 199.881 151.525C197.741 153.045 194.792 152.568 193.294 150.459C191.796 148.35 192.315 145.408 194.455 143.888C195.208 143.353 196.061 143.066 196.915 143.009L191.957 136.031Z" fill="url(#paint14_linear_2584_881)" fill-opacity="0.8"/>
</g>
<path d="M48.2322 189.241C48.0205 188.041 48.8394 186.893 50.0612 186.678L57.3616 185.39C58.5834 185.175 59.7454 185.973 59.9571 187.173L60.8385 192.17L51.7683 193.77L53.4219 203.146C53.5193 203.428 53.5957 203.721 53.6492 204.024C54.2047 207.175 52.0642 210.185 48.8682 210.749C45.6722 211.313 42.6309 209.216 42.0754 206.066C41.5198 202.916 43.6603 199.905 46.8563 199.341C47.9807 199.143 49.086 199.274 50.0706 199.664L48.2322 189.241Z" fill="#3AFFFC"/>
<path d="M48.2322 189.241C48.0205 188.041 48.8394 186.893 50.0612 186.678L57.3616 185.39C58.5834 185.175 59.7454 185.973 59.9571 187.173L60.8385 192.17L51.7683 193.77L53.4219 203.146C53.5193 203.428 53.5957 203.721 53.6492 204.024C54.2047 207.175 52.0642 210.185 48.8682 210.749C45.6722 211.313 42.6309 209.216 42.0754 206.066C41.5198 202.916 43.6603 199.905 46.8563 199.341C47.9807 199.143 49.086 199.274 50.0706 199.664L48.2322 189.241Z" fill="url(#paint15_linear_2584_881)" fill-opacity="0.8"/>
<path d="M289.994 108.292C289.596 107.03 290.274 105.692 291.508 105.303L308.642 99.9076C309.876 99.5191 311.198 100.227 311.595 101.489L317.42 119.985L317.474 120.157C318.404 123.417 316.637 126.824 313.465 127.823C310.238 128.839 306.776 126.978 305.733 123.665C304.69 120.353 306.461 116.844 309.688 115.828C310.853 115.461 312.049 115.469 313.151 115.785L309.414 103.92L293.174 109.034L298.43 125.726C298.455 125.797 298.48 125.87 298.503 125.942C299.546 129.255 297.775 132.764 294.548 133.78C291.321 134.797 287.859 132.935 286.816 129.623C285.773 126.31 287.543 122.801 290.771 121.785C291.934 121.419 293.129 121.426 294.229 121.741L289.994 108.292Z" fill="#3AFFFC"/>
<path d="M289.994 108.292C289.596 107.03 290.274 105.692 291.508 105.303L308.642 99.9076C309.876 99.5191 311.198 100.227 311.595 101.489L317.42 119.985L317.474 120.157C318.404 123.417 316.637 126.824 313.465 127.823C310.238 128.839 306.776 126.978 305.733 123.665C304.69 120.353 306.461 116.844 309.688 115.828C310.853 115.461 312.049 115.469 313.151 115.785L309.414 103.92L293.174 109.034L298.43 125.726C298.455 125.797 298.48 125.87 298.503 125.942C299.546 129.255 297.775 132.764 294.548 133.78C291.321 134.797 287.859 132.935 286.816 129.623C285.773 126.31 287.543 122.801 290.771 121.785C291.934 121.419 293.129 121.426 294.229 121.741L289.994 108.292Z" fill="url(#paint16_radial_2584_881)"/>
<path d="M291.508 105.303C290.274 105.692 289.596 107.03 289.994 108.292L294.229 121.741C293.129 121.426 291.934 121.419 290.771 121.785C287.543 122.801 285.773 126.31 286.816 129.623C287.859 132.935 291.321 134.797 294.548 133.78C297.775 132.764 299.546 129.255 298.503 125.942C298.48 125.87 298.455 125.797 298.43 125.726L293.174 109.034L309.414 103.92L313.151 115.785C312.049 115.469 310.853 115.461 309.688 115.828C306.461 116.844 304.69 120.353 305.733 123.665C306.776 126.978 310.238 128.839 313.465 127.823C316.637 126.824 318.404 123.417 317.474 120.157L317.42 119.985L311.595 101.489C311.198 100.227 309.876 99.5191 308.642 99.9076L291.508 105.303Z" fill="#3AFFFC"/>
<path d="M291.508 105.303C290.274 105.692 289.596 107.03 289.994 108.292L294.229 121.741C293.129 121.426 291.934 121.419 290.771 121.785C287.543 122.801 285.773 126.31 286.816 129.623C287.859 132.935 291.321 134.797 294.548 133.78C297.775 132.764 299.546 129.255 298.503 125.942C298.48 125.87 298.455 125.797 298.43 125.726L293.174 109.034L309.414 103.92L313.151 115.785C312.049 115.469 310.853 115.461 309.688 115.828C306.461 116.844 304.69 120.353 305.733 123.665C306.776 126.978 310.238 128.839 313.465 127.823C316.637 126.824 318.404 123.417 317.474 120.157L317.42 119.985L311.595 101.489C311.198 100.227 309.876 99.5191 308.642 99.9076L291.508 105.303Z" fill="url(#paint17_radial_2584_881)"/>
</g>
<defs>
<filter id="filter0_d_2584_881" x="196.766" y="251.781" width="93.3163" height="52.8729" filterUnits="userSpaceOnUse" color-interpolation-filters="sRGB">
<feFlood flood-opacity="0" result="BackgroundImageFix"/>
<feColorMatrix in="SourceAlpha" type="matrix" values="0 0 0 0 0 0 0 0 0 0 0 0 0 0 0 0 0 0 127 0" result="hardAlpha"/>
<feOffset/>
<feGaussianBlur stdDeviation="10.1617"/>
<feColorMatrix type="matrix" values="0 0 0 0 0.235294 0 0 0 0 1 0 0 0 0 0.972549 0 0 0 0.5 0"/>
<feBlend mode="normal" in2="BackgroundImageFix" result="effect1_dropShadow_2584_881"/>
<feBlend mode="normal" in="SourceGraphic" in2="effect1_dropShadow_2584_881" result="shape"/>
</filter>
<filter id="filter1_d_2584_881" x="217.58" y="157.462" width="51.0217" height="51.5271" filterUnits="userSpaceOnUse" color-interpolation-filters="sRGB">
<feFlood flood-opacity="0" result="BackgroundImageFix"/>
<feColorMatrix in="SourceAlpha" type="matrix" values="0 0 0 0 0 0 0 0 0 0 0 0 0 0 0 0 0 0 127 0" result="hardAlpha"/>
<feOffset/>
<feGaussianBlur stdDeviation="9.34392"/>
<feColorMatrix type="matrix" values="0 0 0 0 0.235294 0 0 0 0 1 0 0 0 0 0.972549 0 0 0 1 0"/>
<feBlend mode="normal" in2="BackgroundImageFix" result="effect1_dropShadow_2584_881"/>
<feBlend mode="normal" in="SourceGraphic" in2="effect1_dropShadow_2584_881" result="shape"/>
</filter>
<filter id="filter2_d_2584_881" x="163.29" y="154.893" width="160.668" height="239.025" filterUnits="userSpaceOnUse" color-interpolation-filters="sRGB">
<feFlood flood-opacity="0" result="BackgroundImageFix"/>
<feColorMatrix in="SourceAlpha" type="matrix" values="0 0 0 0 0 0 0 0 0 0 0 0 0 0 0 0 0 0 127 0" result="hardAlpha"/>
<feOffset/>
<feGaussianBlur stdDeviation="9.36858"/>
<feColorMatrix type="matrix" values="0 0 0 0 0.0156863 0 0 0 0 0.839216 0 0 0 0 0.870588 0 0 0 0.62 0"/>
<feBlend mode="normal" in2="BackgroundImageFix" result="effect1_dropShadow_2584_881"/>
<feBlend mode="normal" in="SourceGraphic" in2="effect1_dropShadow_2584_881" result="shape"/>
</filter>
<filter id="filter3_d_2584_881" x="196.643" y="251.994" width="93.5624" height="53.0126" filterUnits="userSpaceOnUse" color-interpolation-filters="sRGB">
<feFlood flood-opacity="0" result="BackgroundImageFix"/>
<feColorMatrix in="SourceAlpha" type="matrix" values="0 0 0 0 0 0 0 0 0 0 0 0 0 0 0 0 0 0 127 0" result="hardAlpha"/>
<feOffset/>
<feGaussianBlur stdDeviation="10.1885"/>
<feColorMatrix type="matrix" values="0 0 0 0 0.235294 0 0 0 0 1 0 0 0 0 0.972549 0 0 0 0.5 0"/>
<feBlend mode="normal" in2="BackgroundImageFix" result="effect1_dropShadow_2584_881"/>
<feBlend mode="normal" in="SourceGraphic" in2="effect1_dropShadow_2584_881" result="shape"/>
</filter>
<filter id="filter4_d_2584_881" x="217.511" y="157.427" width="51.1562" height="51.663" filterUnits="userSpaceOnUse" color-interpolation-filters="sRGB">
<feFlood flood-opacity="0" result="BackgroundImageFix"/>
<feColorMatrix in="SourceAlpha" type="matrix" values="0 0 0 0 0 0 0 0 0 0 0 0 0 0 0 0 0 0 127 0" result="hardAlpha"/>
<feOffset/>
<feGaussianBlur stdDeviation="9.36858"/>
<feColorMatrix type="matrix" values="0 0 0 0 0.235294 0 0 0 0 1 0 0 0 0 0.972549 0 0 0 1 0"/>
<feBlend mode="normal" in2="BackgroundImageFix" result="effect1_dropShadow_2584_881"/>
<feBlend mode="normal" in="SourceGraphic" in2="effect1_dropShadow_2584_881" result="shape"/>
</filter>
<filter id="filter5_d_2584_881" x="24.6178" y="82.4313" width="423.131" height="145.779" filterUnits="userSpaceOnUse" color-interpolation-filters="sRGB">
<feFlood flood-opacity="0" result="BackgroundImageFix"/>
<feColorMatrix in="SourceAlpha" type="matrix" values="0 0 0 0 0 0 0 0 0 0 0 0 0 0 0 0 0 0 127 0" result="hardAlpha"/>
<feOffset/>
<feGaussianBlur stdDeviation="8.68488"/>
<feColorMatrix type="matrix" values="0 0 0 0 0.0156863 0 0 0 0 0.839216 0 0 0 0 0.870588 0 0 0 1 0"/>
<feBlend mode="normal" in2="BackgroundImageFix" result="effect1_dropShadow_2584_881"/>
<feBlend mode="normal" in="SourceGraphic" in2="effect1_dropShadow_2584_881" result="shape"/>
</filter>
<linearGradient id="paint0_linear_2584_881" x1="242.942" y1="182.81" x2="122.442" y2="182.81" gradientUnits="userSpaceOnUse">
<stop offset="0.18232" stop-color="#B1FCFF"/>
<stop offset="0.950276" stop-color="white" stop-opacity="0"/>
</linearGradient>
<linearGradient id="paint1_linear_2584_881" x1="242.942" y1="182.81" x2="363.442" y2="182.81" gradientUnits="userSpaceOnUse">
<stop offset="0.18232" stop-color="#B1FCFF"/>
<stop offset="0.950276" stop-color="white" stop-opacity="0"/>
</linearGradient>
<linearGradient id="paint2_linear_2584_881" x1="243.051" y1="182.689" x2="157.696" y2="97.4936" gradientUnits="userSpaceOnUse">
<stop offset="0.18232" stop-color="#B1FCFF"/>
<stop offset="0.950276" stop-color="white" stop-opacity="0"/>
</linearGradient>
<linearGradient id="paint3_linear_2584_881" x1="243.063" y1="182.688" x2="328.419" y2="97.4706" gradientUnits="userSpaceOnUse">
<stop offset="0.18232" stop-color="#B1FCFF"/>
<stop offset="0.950276" stop-color="white" stop-opacity="0"/>
</linearGradient>
<linearGradient id="paint4_linear_2584_881" x1="242.942" y1="182.808" x2="242.926" y2="62.0968" gradientUnits="userSpaceOnUse">
<stop offset="0.18232" stop-color="#B1FCFF"/>
<stop offset="0.950276" stop-color="white" stop-opacity="0"/>
</linearGradient>
<linearGradient id="paint5_linear_2584_881" x1="243.051" y1="182.699" x2="157.696" y2="267.916" gradientUnits="userSpaceOnUse">
<stop offset="0.18232" stop-color="#B1FCFF"/>
<stop offset="0.950276" stop-color="white" stop-opacity="0"/>
</linearGradient>
<linearGradient id="paint6_linear_2584_881" x1="243.063" y1="182.7" x2="328.418" y2="267.895" gradientUnits="userSpaceOnUse">
<stop offset="0.18232" stop-color="#B1FCFF"/>
<stop offset="0.950276" stop-color="white" stop-opacity="0"/>
</linearGradient>
<linearGradient id="paint7_linear_2584_881" x1="242.942" y1="182.578" x2="242.957" y2="303.289" gradientUnits="userSpaceOnUse">
<stop offset="0.18232" stop-color="#B1FCFF"/>
<stop offset="0.950276" stop-color="white" stop-opacity="0"/>
</linearGradient>
<linearGradient id="paint8_linear_2584_881" x1="255.356" y1="180.169" x2="182.542" y2="323.1" gradientUnits="userSpaceOnUse">
<stop stop-color="#BE74D7"/>
<stop offset="1" stop-color="#00D3E5"/>
</linearGradient>
<linearGradient id="paint9_linear_2584_881" x1="247.266" y1="208.216" x2="244.03" y2="428.815" gradientUnits="userSpaceOnUse">
<stop stop-color="#BE74D7" stop-opacity="0"/>
<stop offset="1" stop-color="#021C40"/>
</linearGradient>
<radialGradient id="paint10_radial_2584_881" cx="0" cy="0" r="1" gradientUnits="userSpaceOnUse" gradientTransform="translate(378 109.127) rotate(32.2642) scale(105.036 126.043)">
<stop offset="0.046875" stop-color="#3AFFFC"/>
<stop offset="1" stop-color="#00BFD3"/>
</radialGradient>
<radialGradient id="paint11_radial_2584_881" cx="0" cy="0" r="1" gradientUnits="userSpaceOnUse" gradientTransform="translate(378 109.127) rotate(32.2642) scale(105.036 126.043)">
<stop offset="0.046875" stop-color="#3AFFFC"/>
<stop offset="1" stop-color="#00BFD3"/>
</radialGradient>
<radialGradient id="paint12_radial_2584_881" cx="0" cy="0" r="1" gradientUnits="userSpaceOnUse" gradientTransform="translate(109.073 125.073) rotate(-117.352) scale(78.8934 94.6721)">
<stop stop-color="#3AFFFC"/>
<stop offset="1" stop-color="#BE30E3"/>
</radialGradient>
<radialGradient id="paint13_radial_2584_881" cx="0" cy="0" r="1" gradientUnits="userSpaceOnUse" gradientTransform="translate(109.073 125.073) rotate(-117.352) scale(78.8934 94.6721)">
<stop stop-color="#3AFFFC"/>
<stop offset="1" stop-color="#BE30E3"/>
</radialGradient>
<linearGradient id="paint14_linear_2584_881" x1="210.169" y1="105.615" x2="185.169" y2="167.615" gradientUnits="userSpaceOnUse">
<stop offset="0.175347" stop-color="#3AFFFC"/>
<stop offset="1" stop-color="#CBA6F3"/>
</linearGradient>
<linearGradient id="paint15_linear_2584_881" x1="39.2336" y1="211.434" x2="63.2336" y2="152.434" gradientUnits="userSpaceOnUse">
<stop stop-color="#3AFFFC"/>
<stop offset="1" stop-color="#C830EC"/>
</linearGradient>
<radialGradient id="paint16_radial_2584_881" cx="0" cy="0" r="1" gradientUnits="userSpaceOnUse" gradientTransform="translate(280.571 76.6339) rotate(54.4008) scale(99.615 113.846)">
<stop offset="0.229167" stop-color="#3AFFFC"/>
<stop offset="1" stop-color="#BB31E1"/>
</radialGradient>
<radialGradient id="paint17_radial_2584_881" cx="0" cy="0" r="1" gradientUnits="userSpaceOnUse" gradientTransform="translate(280.571 76.6339) rotate(54.4008) scale(99.615 113.846)">
<stop offset="0.229167" stop-color="#3AFFFC"/>
<stop offset="1" stop-color="#BB31E1"/>
</radialGradient>
</defs>
</svg>
