<svg width="628" height="600" viewBox="0 0 628 600" fill="none" xmlns="http://www.w3.org/2000/svg">
<g clip-path="url(#clip0_2584_881)">
<g style="mix-blend-mode:hard-light" opacity="0.2">
<path d="M242.942 126.81L128.551 154.605L128.551 99.0452L242.942 126.81Z" fill="url(#paint0_linear_2584_881)"/>
<path d="M242.942 126.81L357.332 99.0151L357.332 154.574L242.942 126.81Z" fill="url(#paint1_linear_2584_881)"/>
<path d="M243.051 126.689L142.556 65.3166L181.774 26.0252L243.051 126.689Z" fill="url(#paint2_linear_2584_881)"/>
<path d="M243.063 126.688L304.341 26.0084L343.558 65.2896L243.063 126.688Z" fill="url(#paint3_linear_2584_881)"/>
<path d="M242.942 126.808L215.211 12.2204L270.673 12.2132L242.942 126.808Z" fill="url(#paint4_linear_2584_881)"/>
<path d="M243.051 126.699L142.556 188.097L181.774 227.378L243.051 126.699Z" fill="url(#paint5_linear_2584_881)"/>
<path d="M243.063 126.7L304.34 227.364L343.558 188.072L243.063 126.7Z" fill="url(#paint6_linear_2584_881)"/>
<path d="M242.942 126.578L215.211 241.173L270.673 241.166L242.942 126.578Z" fill="url(#paint7_linear_2584_881)"/>
</g>
<path d="M211.019 284.99C211.019 266.404 226.086 251.337 244.672 251.337V251.337C263.258 251.337 278.325 266.404 278.325 284.99V284.99C278.325 303.576 263.258 318.643 244.672 318.643V318.643C226.086 318.643 211.019 303.576 211.019 284.99V284.99Z" fill="white"/>
<path d="M211.019 284.99C211.019 266.404 226.086 251.337 244.672 251.337V251.337C263.258 251.337 278.325 266.404 278.325 284.99V284.99C278.325 303.576 263.258 318.643 244.672 318.643V318.643C226.086 318.643 211.019 303.576 211.019 284.99V284.99Z" fill="#47F0EA"/>
<path d="M208.049 296.867H279.314V296.867C279.314 302.824 274.486 307.755 268.529 307.755H218.835C212.878 307.755 208.049 302.824 208.049 296.867V296.867Z" fill="white"/>
<path d="M208.049 296.867H279.314V296.867C279.314 302.824 274.486 307.755 268.529 307.755H218.835C212.878 307.755 208.049 302.824 208.049 296.867V296.867Z" fill="#F2F2F2"/>
<path d="M198.151 221.148C198.151 225.248 194.606 228.572 190.233 228.572C185.86 228.572 182.315 225.248 182.315 221.148C182.315 217.048 185.86 213.725 190.233 213.725C194.606 213.725 198.151 217.048 198.151 221.148Z" fill="#828282"/>
<path d="M305.05 221.148C305.05 225.248 301.505 228.572 297.132 228.572C292.759 228.572 289.213 225.248 289.213 221.148C289.213 217.048 292.759 213.725 297.132 213.725C301.505 213.725 305.05 217.048 305.05 221.148Z" fill="#828282"/>
<path d="M198.75 221.454C198.75 225.706 195.043 229.153 190.47 229.153C185.897 229.153 182.19 225.706 182.19 221.454C182.19 217.203 185.897 213.756 190.47 213.756C195.043 213.756 198.75 217.203 198.75 221.454Z" fill="#828282"/>
<path d="M305.059 221.454C305.059 225.706 301.352 229.153 296.779 229.153C292.206 229.153 288.499 225.706 288.499 221.454C288.499 217.203 292.206 213.756 296.779 213.756C301.352 213.756 305.059 217.203 305.059 221.454Z" fill="#828282"/>
<path d="M243.187 117.714C237.994 117.714 233.784 121.924 233.784 127.117C233.784 131.454 236.72 135.105 240.713 136.191V148.358H245.662V136.191C249.655 135.105 252.591 131.454 252.591 127.117C252.591 121.924 248.381 117.714 243.187 117.714Z" fill="#7ECDCA"/>
<path d="M243.187 117.714C237.994 117.714 233.784 121.924 233.784 127.117C233.784 131.454 236.72 135.105 240.713 136.191V148.358H245.662V136.191C249.655 135.105 252.591 131.454 252.591 127.117C252.591 121.924 248.381 117.714 243.187 117.714Z" fill="#7D8E9E"/>
<path d="M243.187 117.714C237.994 117.714 233.784 121.924 233.784 127.117C233.784 131.454 236.72 135.105 240.713 136.191V148.358H245.662V136.191C249.655 135.105 252.591 131.454 252.591 127.117C252.591 121.924 248.381 117.714 243.187 117.714Z" fill="#828282"/>
<path d="M232.794 147.94C232.794 144.366 235.692 141.469 239.266 141.469H247.109C250.683 141.469 253.58 144.366 253.58 147.94V153.347H232.794V147.94Z" fill="#D0E2EE"/>
<path d="M232.794 147.94C232.794 144.366 235.692 141.469 239.266 141.469H247.109C250.683 141.469 253.58 144.366 253.58 147.94V153.347H232.794V147.94Z" fill="#F2F2F2"/>
<path d="M233.541 149.388H253.935C278.369 149.388 298.176 169.227 298.176 193.701V286.03C298.176 291.469 293.775 295.878 288.345 295.878H199.13C193.701 295.878 189.299 291.469 189.299 286.03V193.701C189.299 169.227 209.107 149.388 233.541 149.388Z" fill="white"/>
<path d="M275.151 265.764C275.151 266.437 274.605 266.983 273.931 266.983V266.983C273.258 266.983 272.712 266.437 272.712 265.764V256.226C272.712 255.553 273.258 255.007 273.931 255.007V255.007C274.605 255.007 275.151 255.553 275.151 256.226V265.764Z" fill="white"/>
<path d="M275.151 265.764C275.151 266.437 274.605 266.983 273.931 266.983V266.983C273.258 266.983 272.712 266.437 272.712 265.764V256.226C272.712 255.553 273.258 255.007 273.931 255.007V255.007C274.605 255.007 275.151 255.553 275.151 256.226V265.764Z" fill="#7ECDCA"/>
<path d="M275.151 265.764C275.151 266.437 274.605 266.983 273.931 266.983V266.983C273.258 266.983 272.712 266.437 272.712 265.764V256.226C272.712 255.553 273.258 255.007 273.931 255.007V255.007C274.605 255.007 275.151 255.553 275.151 256.226V265.764Z" fill="#7ECDCA"/>
<path d="M275.151 265.764C275.151 266.437 274.605 266.983 273.931 266.983V266.983C273.258 266.983 272.712 266.437 272.712 265.764V256.226C272.712 255.553 273.258 255.007 273.931 255.007V255.007C274.605 255.007 275.151 255.553 275.151 256.226V265.764Z" fill="#828282"/>
<path d="M264.848 264.516H260.572L260.031 266.157C259.869 266.65 259.408 266.983 258.889 266.983V266.983C258.053 266.983 257.472 266.151 257.761 265.366L261.181 256.069C261.416 255.431 262.023 255.007 262.703 255.007V255.007C263.382 255.007 263.988 255.43 264.224 256.066L267.664 265.364C267.954 266.149 267.373 266.983 266.536 266.983V266.983C266.019 266.983 265.559 266.652 265.396 266.161L264.848 264.516ZM261.23 262.517H264.19L262.702 258.034L261.23 262.517Z" fill="white"/>
<path d="M264.848 264.516H260.572L260.031 266.157C259.869 266.65 259.408 266.983 258.889 266.983V266.983C258.053 266.983 257.472 266.151 257.761 265.366L261.181 256.069C261.416 255.431 262.023 255.007 262.703 255.007V255.007C263.382 255.007 263.988 255.43 264.224 256.066L267.664 265.364C267.954 266.149 267.373 266.983 266.536 266.983V266.983C266.019 266.983 265.559 266.652 265.396 266.161L264.848 264.516ZM261.23 262.517H264.19L262.702 258.034L261.23 262.517Z" fill="#7ECDCA"/>
<path d="M264.848 264.516H260.572L260.031 266.157C259.869 266.65 259.408 266.983 258.889 266.983V266.983C258.053 266.983 257.472 266.151 257.761 265.366L261.181 256.069C261.416 255.431 262.023 255.007 262.703 255.007V255.007C263.382 255.007 263.988 255.43 264.224 256.066L267.664 265.364C267.954 266.149 267.373 266.983 266.536 266.983V266.983C266.019 266.983 265.559 266.652 265.396 266.161L264.848 264.516ZM261.23 262.517H264.19L262.702 258.034L261.23 262.517Z" fill="#7ECDCA"/>
<path d="M264.848 264.516H260.572L260.031 266.157C259.869 266.65 259.408 266.983 258.889 266.983V266.983C258.053 266.983 257.472 266.151 257.761 265.366L261.181 256.069C261.416 255.431 262.023 255.007 262.703 255.007V255.007C263.382 255.007 263.988 255.43 264.224 256.066L267.664 265.364C267.954 266.149 267.373 266.983 266.536 266.983V266.983C266.019 266.983 265.559 266.652 265.396 266.161L264.848 264.516ZM261.23 262.517H264.19L262.702 258.034L261.23 262.517Z" fill="#828282"/>
<path d="M278.73 265.538C278.73 266.368 278.056 267.042 277.225 267.042V267.042C276.394 267.042 275.721 266.368 275.721 265.538V265.538C275.721 264.707 276.394 264.033 277.225 264.033V264.033C278.056 264.033 278.73 264.707 278.73 265.538V265.538Z" fill="white"/>
<path d="M278.73 265.538C278.73 266.368 278.056 267.042 277.225 267.042V267.042C276.394 267.042 275.721 266.368 275.721 265.538V265.538C275.721 264.707 276.394 264.033 277.225 264.033V264.033C278.056 264.033 278.73 264.707 278.73 265.538V265.538Z" fill="#7ECDCA"/>
<path d="M278.73 265.538C278.73 266.368 278.056 267.042 277.225 267.042V267.042C276.394 267.042 275.721 266.368 275.721 265.538V265.538C275.721 264.707 276.394 264.033 277.225 264.033V264.033C278.056 264.033 278.73 264.707 278.73 265.538V265.538Z" fill="#7ECDCA"/>
<path d="M278.73 265.538C278.73 266.368 278.056 267.042 277.225 267.042V267.042C276.394 267.042 275.721 266.368 275.721 265.538V265.538C275.721 264.707 276.394 264.033 277.225 264.033V264.033C278.056 264.033 278.73 264.707 278.73 265.538V265.538Z" fill="#828282"/>
<path d="M271.708 265.538C271.708 266.368 271.034 267.042 270.203 267.042V267.042C269.373 267.042 268.699 266.368 268.699 265.538V265.538C268.699 264.707 269.373 264.033 270.203 264.033V264.033C271.034 264.033 271.708 264.707 271.708 265.538V265.538Z" fill="white"/>
<path d="M271.708 265.538C271.708 266.368 271.034 267.042 270.203 267.042V267.042C269.373 267.042 268.699 266.368 268.699 265.538V265.538C268.699 264.707 269.373 264.033 270.203 264.033V264.033C271.034 264.033 271.708 264.707 271.708 265.538V265.538Z" fill="#7ECDCA"/>
<path d="M271.708 265.538C271.708 266.368 271.034 267.042 270.203 267.042V267.042C269.373 267.042 268.699 266.368 268.699 265.538V265.538C268.699 264.707 269.373 264.033 270.203 264.033V264.033C271.034 264.033 271.708 264.707 271.708 265.538V265.538Z" fill="#7ECDCA"/>
<path d="M271.708 265.538C271.708 266.368 271.034 267.042 270.203 267.042V267.042C269.373 267.042 268.699 266.368 268.699 265.538V265.538C268.699 264.707 269.373 264.033 270.203 264.033V264.033C271.034 264.033 271.708 264.707 271.708 265.538V265.538Z" fill="#828282"/>
<path d="M208.049 295.878H279.314V298.847H208.049V295.878Z" fill="#828282"/>
<path d="M189.243 190.959H298.121V193.673H189.243V190.959Z" fill="#828282"/>
<path d="M199.141 220.158C199.141 208.405 208.669 198.877 220.422 198.877H266.942C278.695 198.877 288.223 208.405 288.223 220.158V220.158C288.223 231.911 278.695 241.438 266.942 241.438H220.422C208.669 241.438 199.141 231.911 199.141 220.158V220.158Z" fill="#121212"/>
<g filter="url(#filter0_d_2584_881)">
<path d="M226.2 220.665C226.2 223.183 224.161 225.225 221.645 225.225C219.129 225.225 217.09 223.183 217.09 220.665C217.09 218.146 219.129 216.105 221.645 216.105C224.161 216.105 226.2 218.146 226.2 220.665Z" fill="#47F0EA"/>
<path d="M243.808 227.252C241.724 227.252 239.907 226.105 238.952 224.407C238.769 224.081 239.024 223.705 239.397 223.705V223.705C239.599 223.705 239.781 223.821 239.883 223.995C240.676 225.338 242.137 226.239 243.808 226.239C245.48 226.239 246.941 225.338 247.733 223.995C247.836 223.821 248.018 223.705 248.219 223.705V223.705C248.593 223.705 248.847 224.081 248.664 224.407C247.71 226.105 245.893 227.252 243.808 227.252Z" fill="#47F0EA"/>
<path fill-rule="evenodd" clip-rule="evenodd" d="M247.648 224.133C246.838 225.399 245.421 226.239 243.808 226.239C242.195 226.239 240.778 225.399 239.969 224.133C239.939 224.088 239.911 224.041 239.883 223.995C239.867 223.967 239.848 223.94 239.828 223.915C239.722 223.787 239.566 223.705 239.397 223.705C239.024 223.705 238.769 224.081 238.952 224.407C238.972 224.441 238.991 224.475 239.011 224.509C239.053 224.581 239.097 224.652 239.143 224.721C240.136 226.245 241.855 227.252 243.808 227.252C245.762 227.252 247.48 226.245 248.474 224.721C248.519 224.652 248.563 224.581 248.605 224.509C248.625 224.475 248.645 224.441 248.664 224.407C248.847 224.081 248.593 223.705 248.219 223.705C248.05 223.705 247.895 223.787 247.789 223.915C247.768 223.94 247.75 223.967 247.733 223.995C247.705 224.041 247.677 224.088 247.648 224.133ZM243.808 228.331C241.318 228.331 239.149 226.959 238.012 224.936C237.362 223.778 238.331 222.627 239.397 222.627C240.023 222.627 240.538 222.982 240.812 223.446C241.419 224.475 242.535 225.16 243.808 225.16C245.082 225.16 246.197 224.475 246.804 223.446C247.078 222.982 247.594 222.627 248.219 222.627C249.285 222.627 250.255 223.778 249.604 224.936C248.467 226.959 246.299 228.331 243.808 228.331Z" fill="#47F0EA"/>
<path d="M269.759 220.665C269.759 223.183 267.72 225.225 265.204 225.225C262.688 225.225 260.649 223.183 260.649 220.665C260.649 218.146 262.688 216.104 265.204 216.104C267.72 216.104 269.759 218.146 269.759 220.665Z" fill="#47F0EA"/>
</g>
<path opacity="0.8" d="M233.813 127.018C233.813 121.829 238.019 117.623 243.208 117.623V117.623C248.397 117.623 252.603 121.829 252.603 127.018V127.247C252.603 132.436 248.397 136.642 243.208 136.642V136.642C238.019 136.642 233.813 132.436 233.813 127.247V127.018Z" fill="#828282"/>
<g filter="url(#filter1_d_2584_881)">
<rect x="236.268" y="120.15" width="13.646" height="14.1514" rx="6.823" fill="#3AFFFC"/>
</g>
<g filter="url(#filter2_d_2584_881)">
<path fill-rule="evenodd" clip-rule="evenodd" d="M233.759 127.149C233.759 127.867 233.839 128.566 233.991 129.237C234.72 132.685 237.335 135.437 240.705 136.364V141.539H239.254C235.671 141.539 232.766 144.444 232.766 148.027V149.484C208.612 149.885 189.155 169.621 189.155 193.908V214.036C186.3 214.351 183.907 216.087 182.805 218.469C182.306 219.461 182.027 220.568 182.027 221.735C182.027 225.628 185.126 228.847 189.155 229.377V286.481C189.155 291.934 193.569 296.355 199.013 296.355H212.737C212.851 296.688 212.97 297.018 213.094 297.347H207.955C207.955 303.319 212.797 308.263 218.77 308.263H219.824C225.991 314.974 234.841 319.18 244.674 319.18C254.529 319.18 263.396 314.956 269.565 308.219C275.083 307.719 279.409 302.992 279.409 297.347H276.255C276.379 297.018 276.497 296.688 276.611 296.355H288.463C293.907 296.355 298.32 291.934 298.32 286.481V229.344C302.238 228.725 305.221 225.554 305.221 221.735C305.221 221.614 305.218 221.494 305.212 221.375C305.184 217.621 302.192 214.527 298.32 214.049V193.908C298.32 169.37 278.46 149.478 253.962 149.478H253.606V148.027C253.606 144.444 250.701 141.539 247.118 141.539H245.667V136.375C249.676 135.293 252.626 131.631 252.626 127.28V127.05C252.626 121.847 248.409 117.63 243.207 117.63C238.9 117.63 235.268 120.521 234.145 124.468C233.894 125.318 233.759 126.218 233.759 127.149Z" fill="url(#paint8_linear_2584_881)"/>
</g>
<path d="M210.932 285.438C210.932 266.803 226.039 251.697 244.674 251.697V251.697C263.309 251.697 278.416 266.803 278.416 285.438V285.438C278.416 304.074 263.309 319.18 244.674 319.18V319.18C226.039 319.18 210.932 304.074 210.932 285.438V285.438Z" fill="white"/>
<path d="M210.932 285.438C210.932 266.803 226.039 251.697 244.674 251.697V251.697C263.309 251.697 278.416 266.803 278.416 285.438V285.438C278.416 304.074 263.309 319.18 244.674 319.18V319.18C226.039 319.18 210.932 304.074 210.932 285.438V285.438Z" fill="#47F0EA"/>
<path d="M207.955 297.347H279.408V297.347C279.408 303.319 274.567 308.263 268.594 308.263H218.769C212.797 308.263 207.955 303.319 207.955 297.347V297.347Z" fill="white"/>
<path d="M207.955 297.347H279.408V297.347C279.408 303.319 274.567 308.263 268.594 308.263H218.769C212.797 308.263 207.955 303.319 207.955 297.347V297.347Z" fill="#F2F2F2"/>
<path d="M198.031 221.428C198.031 225.539 194.477 228.871 190.092 228.871C185.707 228.871 182.153 225.539 182.153 221.428C182.153 217.317 185.707 213.985 190.092 213.985C194.477 213.985 198.031 217.317 198.031 221.428Z" fill="#828282"/>
<path d="M305.212 221.428C305.212 225.539 301.657 228.871 297.273 228.871C292.888 228.871 289.333 225.539 289.333 221.428C289.333 217.317 292.888 213.985 297.273 213.985C301.657 213.985 305.212 217.317 305.212 221.428Z" fill="#828282"/>
<path d="M198.631 221.735C198.631 225.998 194.914 229.454 190.329 229.454C185.744 229.454 182.027 225.998 182.027 221.735C182.027 217.472 185.744 214.017 190.329 214.017C194.914 214.017 198.631 217.472 198.631 221.735Z" fill="#828282"/>
<path d="M305.221 221.735C305.221 225.998 301.504 229.454 296.919 229.454C292.334 229.454 288.617 225.998 288.617 221.735C288.617 217.472 292.334 214.017 296.919 214.017C301.504 214.017 305.221 217.472 305.221 221.735Z" fill="#828282"/>
<path d="M243.186 117.721C237.979 117.721 233.758 121.942 233.758 127.149C233.758 131.497 236.702 135.158 240.705 136.247V148.446H245.667V136.247C249.67 135.158 252.614 131.497 252.614 127.149C252.614 121.942 248.393 117.721 243.186 117.721Z" fill="#7ECDCA"/>
<path d="M243.186 117.721C237.979 117.721 233.758 121.942 233.758 127.149C233.758 131.497 236.702 135.158 240.705 136.247V148.446H245.667V136.247C249.67 135.158 252.614 131.497 252.614 127.149C252.614 121.942 248.393 117.721 243.186 117.721Z" fill="#7D8E9E"/>
<path d="M243.186 117.721C237.979 117.721 233.758 121.942 233.758 127.149C233.758 131.497 236.702 135.158 240.705 136.247V148.446H245.667V136.247C249.67 135.158 252.614 131.497 252.614 127.149C252.614 121.942 248.393 117.721 243.186 117.721Z" fill="#828282"/>
<path d="M232.765 148.027C232.765 144.444 235.67 141.539 239.254 141.539H247.117C250.701 141.539 253.606 144.444 253.606 148.027V153.448H232.765V148.027Z" fill="#D0E2EE"/>
<path d="M232.765 148.027C232.765 144.444 235.67 141.539 239.254 141.539H247.117C250.701 141.539 253.606 144.444 253.606 148.027V153.448H232.765V148.027Z" fill="#F2F2F2"/>
<path d="M233.514 149.479H253.962C278.46 149.479 298.32 169.371 298.32 193.909V286.482C298.32 291.934 293.907 296.355 288.463 296.355H199.013C193.569 296.355 189.155 291.934 189.155 286.482V193.909C189.155 169.371 209.015 149.479 233.514 149.479Z" fill="white"/>
<path d="M275.234 266.162C275.234 266.837 274.686 267.384 274.011 267.384V267.384C273.336 267.384 272.788 266.837 272.788 266.162V256.599C272.788 255.924 273.336 255.376 274.011 255.376V255.376C274.686 255.376 275.234 255.924 275.234 256.599V266.162Z" fill="white"/>
<path d="M275.234 266.162C275.234 266.837 274.686 267.384 274.011 267.384V267.384C273.336 267.384 272.788 266.837 272.788 266.162V256.599C272.788 255.924 273.336 255.376 274.011 255.376V255.376C274.686 255.376 275.234 255.924 275.234 256.599V266.162Z" fill="#7ECDCA"/>
<path d="M275.234 266.162C275.234 266.837 274.686 267.384 274.011 267.384V267.384C273.336 267.384 272.788 266.837 272.788 266.162V256.599C272.788 255.924 273.336 255.376 274.011 255.376V255.376C274.686 255.376 275.234 255.924 275.234 256.599V266.162Z" fill="#7ECDCA"/>
<path d="M275.234 266.162C275.234 266.837 274.686 267.384 274.011 267.384V267.384C273.336 267.384 272.788 266.837 272.788 266.162V256.599C272.788 255.924 273.336 255.376 274.011 255.376V255.376C274.686 255.376 275.234 255.924 275.234 256.599V266.162Z" fill="#828282"/>
<path d="M264.904 264.91H260.616L260.074 266.556C259.911 267.051 259.45 267.385 258.929 267.385V267.385C258.09 267.385 257.508 266.55 257.798 265.763L261.227 256.441C261.463 255.802 262.072 255.377 262.753 255.377V255.377C263.433 255.377 264.042 255.8 264.278 256.438L267.727 265.761C268.018 266.548 267.436 267.385 266.597 267.385V267.385C266.078 267.385 265.617 267.052 265.453 266.56L264.904 264.91ZM261.277 262.906H264.244L262.752 258.412L261.277 262.906Z" fill="white"/>
<path d="M264.904 264.91H260.616L260.074 266.556C259.911 267.051 259.45 267.385 258.929 267.385V267.385C258.09 267.385 257.508 266.55 257.798 265.763L261.227 256.441C261.463 255.802 262.072 255.377 262.753 255.377V255.377C263.433 255.377 264.042 255.8 264.278 256.438L267.727 265.761C268.018 266.548 267.436 267.385 266.597 267.385V267.385C266.078 267.385 265.617 267.052 265.453 266.56L264.904 264.91ZM261.277 262.906H264.244L262.752 258.412L261.277 262.906Z" fill="#7ECDCA"/>
<path d="M264.904 264.91H260.616L260.074 266.556C259.911 267.051 259.45 267.385 258.929 267.385V267.385C258.09 267.385 257.508 266.55 257.798 265.763L261.227 256.441C261.463 255.802 262.072 255.377 262.753 255.377V255.377C263.433 255.377 264.042 255.8 264.278 256.438L267.727 265.761C268.018 266.548 267.436 267.385 266.597 267.385V267.385C266.078 267.385 265.617 267.052 265.453 266.56L264.904 264.91ZM261.277 262.906H264.244L262.752 258.412L261.277 262.906Z" fill="#7ECDCA"/>
<path d="M264.904 264.91H260.616L260.074 266.556C259.911 267.051 259.45 267.385 258.929 267.385V267.385C258.09 267.385 257.508 266.55 257.798 265.763L261.227 256.441C261.463 255.802 262.072 255.377 262.753 255.377V255.377C263.433 255.377 264.042 255.8 264.278 256.438L267.727 265.761C268.018 266.548 267.436 267.385 266.597 267.385V267.385C266.078 267.385 265.617 267.052 265.453 266.56L264.904 264.91ZM261.277 262.906H264.244L262.752 258.412L261.277 262.906Z" fill="#828282"/>
<path d="M278.822 265.935C278.822 266.768 278.147 267.443 277.314 267.443V267.443C276.481 267.443 275.805 266.768 275.805 265.935V265.935C275.805 265.102 276.481 264.427 277.314 264.427V264.427C278.147 264.427 278.822 265.102 278.822 265.935V265.935Z" fill="white"/>
<path d="M278.822 265.935C278.822 266.768 278.147 267.443 277.314 267.443V267.443C276.481 267.443 275.805 266.768 275.805 265.935V265.935C275.805 265.102 276.481 264.427 277.314 264.427V264.427C278.147 264.427 278.822 265.102 278.822 265.935V265.935Z" fill="#7ECDCA"/>
<path d="M278.822 265.935C278.822 266.768 278.147 267.443 277.314 267.443V267.443C276.481 267.443 275.805 266.768 275.805 265.935V265.935C275.805 265.102 276.481 264.427 277.314 264.427V264.427C278.147 264.427 278.822 265.102 278.822 265.935V265.935Z" fill="#7ECDCA"/>
<path d="M278.822 265.935C278.822 266.768 278.147 267.443 277.314 267.443V267.443C276.481 267.443 275.805 266.768 275.805 265.935V265.935C275.805 265.102 276.481 264.427 277.314 264.427V264.427C278.147 264.427 278.822 265.102 278.822 265.935V265.935Z" fill="#828282"/>
<path d="M271.782 265.935C271.782 266.768 271.106 267.443 270.273 267.443V267.443C269.44 267.443 268.765 266.768 268.765 265.935V265.935C268.765 265.102 269.44 264.427 270.273 264.427V264.427C271.106 264.427 271.782 265.102 271.782 265.935V265.935Z" fill="white"/>
<path d="M271.782 265.935C271.782 266.768 271.106 267.443 270.273 267.443V267.443C269.44 267.443 268.765 266.768 268.765 265.935V265.935C268.765 265.102 269.44 264.427 270.273 264.427V264.427C271.106 264.427 271.782 265.102 271.782 265.935V265.935Z" fill="#7ECDCA"/>
<path d="M271.782 265.935C271.782 266.768 271.106 267.443 270.273 267.443V267.443C269.44 267.443 268.765 266.768 268.765 265.935V265.935C268.765 265.102 269.44 264.427 270.273 264.427V264.427C271.106 264.427 271.782 265.102 271.782 265.935V265.935Z" fill="#7ECDCA"/>
<path d="M271.782 265.935C271.782 266.768 271.106 267.443 270.273 267.443V267.443C269.44 267.443 268.765 266.768 268.765 265.935V265.935C268.765 265.102 269.44 264.427 270.273 264.427V264.427C271.106 264.427 271.782 265.102 271.782 265.935V265.935Z" fill="#828282"/>
<path d="M207.955 296.355H279.408V299.332H207.955V296.355Z" fill="#828282"/>
<path d="M189.1 191.16H298.265V193.881H189.1V191.16Z" fill="#828282"/>
<path d="M199.024 220.435C199.024 208.651 208.576 199.099 220.36 199.099H267.004C278.788 199.099 288.34 208.651 288.34 220.435V220.435C288.34 232.219 278.788 241.772 267.004 241.772H220.36C208.576 241.772 199.024 232.219 199.024 220.435V220.435Z" fill="#121212"/>
<g filter="url(#filter3_d_2584_881)">
<path d="M226.155 220.944C226.155 223.469 224.11 225.516 221.587 225.516C219.065 225.516 217.02 223.469 217.02 220.944C217.02 218.419 219.065 216.372 221.587 216.372C224.11 216.372 226.155 218.419 226.155 220.944Z" fill="#47F0EA"/>
<path d="M243.809 227.549C241.719 227.549 239.897 226.399 238.94 224.696C238.757 224.37 239.011 223.992 239.386 223.992V223.992C239.588 223.992 239.771 224.108 239.874 224.283C240.668 225.629 242.133 226.533 243.809 226.533C245.484 226.533 246.949 225.629 247.744 224.283C247.847 224.108 248.029 223.992 248.231 223.992V223.992C248.606 223.992 248.861 224.37 248.678 224.696C247.721 226.399 245.899 227.549 243.809 227.549Z" fill="#47F0EA"/>
<path fill-rule="evenodd" clip-rule="evenodd" d="M247.658 224.421C246.847 225.691 245.426 226.532 243.809 226.532C242.191 226.532 240.77 225.691 239.959 224.421C239.93 224.376 239.901 224.329 239.873 224.282C239.857 224.254 239.838 224.228 239.818 224.203C239.711 224.074 239.556 223.992 239.386 223.992C239.011 223.992 238.756 224.369 238.94 224.696C238.959 224.73 238.979 224.765 238.999 224.798C239.041 224.87 239.085 224.941 239.131 225.011C240.127 226.539 241.85 227.548 243.809 227.548C245.767 227.548 247.49 226.539 248.487 225.011C248.532 224.941 248.576 224.87 248.618 224.798C248.638 224.765 248.658 224.73 248.677 224.696C248.861 224.369 248.606 223.992 248.231 223.992C248.062 223.992 247.906 224.074 247.8 224.203C247.779 224.228 247.761 224.254 247.744 224.282C247.716 224.329 247.688 224.376 247.658 224.421ZM243.809 228.63C241.312 228.63 239.137 227.255 237.997 225.226C237.345 224.065 238.317 222.911 239.386 222.911C240.013 222.911 240.53 223.267 240.805 223.733C241.413 224.764 242.532 225.451 243.809 225.451C245.086 225.451 246.204 224.764 246.813 223.733C247.087 223.267 247.604 222.911 248.231 222.911C249.3 222.911 250.272 224.065 249.62 225.226C248.48 227.255 246.306 228.63 243.809 228.63Z" fill="#47F0EA"/>
<path d="M269.828 220.944C269.828 223.469 267.783 225.516 265.261 225.516C262.738 225.516 260.694 223.469 260.694 220.944C260.694 218.418 262.738 216.371 265.261 216.371C267.783 216.371 269.828 218.418 269.828 220.944Z" fill="#47F0EA"/>
</g>
<path opacity="0.8" d="M233.787 127.05C233.787 121.847 238.004 117.63 243.207 117.63V117.63C248.409 117.63 252.626 121.847 252.626 127.05V127.28C252.626 132.482 248.409 136.7 243.207 136.7V136.7C238.004 136.7 233.787 132.482 233.787 127.28V127.05Z" fill="#828282"/>
<g filter="url(#filter4_d_2584_881)">
<rect x="236.248" y="120.164" width="13.682" height="14.1887" rx="6.841" fill="#3AFFFC"/>
</g>
<g style="mix-blend-mode:hard-light" opacity="0.55">
<path fill-rule="evenodd" clip-rule="evenodd" d="M233.759 127.149C233.759 127.867 233.839 128.566 233.991 129.237C234.72 132.685 237.335 135.437 240.705 136.364V141.539H239.254C235.671 141.539 232.766 144.444 232.766 148.027V149.484C208.612 149.885 189.155 169.621 189.155 193.908V214.036C186.3 214.351 183.907 216.087 182.805 218.469C182.306 219.461 182.027 220.568 182.027 221.735C182.027 225.628 185.126 228.847 189.155 229.377V286.481C189.155 291.934 193.569 296.355 199.013 296.355H207.956C207.96 296.689 207.979 297.02 208.013 297.347H207.955C207.955 303.319 212.797 308.263 218.77 308.263H219.824C225.991 314.974 234.841 319.18 244.674 319.18C254.529 319.18 263.396 314.956 269.565 308.219C275.083 307.719 279.409 302.992 279.409 297.347H279.351C279.385 297.02 279.404 296.689 279.408 296.355H288.463C293.907 296.355 298.32 291.934 298.32 286.481V229.344C302.238 228.725 305.221 225.554 305.221 221.735C305.221 221.614 305.218 221.494 305.212 221.375C305.184 217.621 302.192 214.527 298.32 214.049V193.908C298.32 169.37 278.46 149.478 253.962 149.478H253.606V148.027C253.606 144.444 250.701 141.539 247.118 141.539H245.667V136.375C249.676 135.293 252.626 131.631 252.626 127.28V127.05C252.626 121.847 248.409 117.63 243.207 117.63C238.9 117.63 235.268 120.521 234.145 124.468C233.894 125.318 233.759 126.218 233.759 127.149Z" fill="url(#paint9_linear_2584_881)"/>
</g>
<path opacity="0.5" fill-rule="evenodd" clip-rule="evenodd" d="M245.098 319.186C254.245 319.186 262.475 315.26 268.195 309H222C227.72 315.26 235.95 319.186 245.098 319.186Z" fill="#3AFFFC"/>
<g filter="url(#filter5_d_2584_881)">
<path d="M412.052 73.8066C412.18 72.7878 413.132 72.0688 414.178 72.2006L428.703 74.0315C429.749 74.1633 430.493 75.0961 430.365 76.1149L428.482 91.0482L428.465 91.1866C428.061 93.7875 425.607 95.605 422.918 95.2661C420.183 94.9213 418.238 92.4738 418.575 89.7994C418.912 87.1251 421.403 85.2367 424.139 85.5816C425.127 85.7061 426.012 86.1048 426.723 86.6894L427.931 77.1095L414.163 75.3741L412.464 88.8504C412.459 88.9091 412.453 88.9679 412.445 89.0268C412.108 91.7011 409.617 93.5895 406.881 93.2447C404.145 92.8999 402.201 90.4523 402.538 87.778C402.875 85.1037 405.366 83.2153 408.102 83.5601C409.089 83.6845 409.972 84.0823 410.683 84.6656L412.052 73.8066Z" fill="#3AFFFC"/>
<path d="M412.052 73.8066C412.18 72.7878 413.132 72.0688 414.178 72.2006L428.703 74.0315C429.749 74.1633 430.493 75.0961 430.365 76.1149L428.482 91.0482L428.465 91.1866C428.061 93.7875 425.607 95.605 422.918 95.2661C420.183 94.9213 418.238 92.4738 418.575 89.7994C418.912 87.1251 421.403 85.2367 424.139 85.5816C425.127 85.7061 426.012 86.1048 426.723 86.6894L427.931 77.1095L414.163 75.3741L412.464 88.8504C412.459 88.9091 412.453 88.9679 412.445 89.0268C412.108 91.7011 409.617 93.5895 406.881 93.2447C404.145 92.8999 402.201 90.4523 402.538 87.778C402.875 85.1037 405.366 83.2153 408.102 83.5601C409.089 83.6845 409.972 84.0823 410.683 84.6656L412.052 73.8066Z" fill="url(#paint10_radial_2584_881)"/>
<path d="M414.178 72.2006C413.132 72.0688 412.18 72.7878 412.052 73.8066L410.683 84.6656C409.972 84.0823 409.089 83.6845 408.102 83.5601C405.366 83.2153 402.875 85.1037 402.538 87.778C402.201 90.4523 404.145 92.8999 406.881 93.2447C409.617 93.5895 412.108 91.7011 412.445 89.0268C412.453 88.9679 412.459 88.9091 412.464 88.8504L414.163 75.3741L427.931 77.1095L426.723 86.6894C426.012 86.1048 425.127 85.7061 424.139 85.5816C421.403 85.2367 418.912 87.1251 418.575 89.7994C418.238 92.4738 420.183 94.9213 422.918 95.2661C425.607 95.605 428.061 93.7875 428.465 91.1866L428.482 91.0482L430.365 76.1149C430.493 75.0961 429.749 74.1633 428.703 74.0315L414.178 72.2006Z" fill="#3AFFFC"/>
<path d="M414.178 72.2006C413.132 72.0688 412.18 72.7878 412.052 73.8066L410.683 84.6656C409.972 84.0823 409.089 83.6845 408.102 83.5601C405.366 83.2153 402.875 85.1037 402.538 87.778C402.201 90.4523 404.145 92.8999 406.881 93.2447C409.617 93.5895 412.108 91.7011 412.445 89.0268C412.453 88.9679 412.459 88.9091 412.464 88.8504L414.163 75.3741L427.931 77.1095L426.723 86.6894C426.012 86.1048 425.127 85.7061 424.139 85.5816C421.403 85.2367 418.912 87.1251 418.575 89.7994C418.238 92.4738 420.183 94.9213 422.918 95.2661C425.607 95.605 428.061 93.7875 428.465 91.1866L428.482 91.0482L430.365 76.1149C430.493 75.0961 429.749 74.1633 428.703 74.0315L414.178 72.2006Z" fill="url(#paint11_radial_2584_881)"/>
<path d="M97.3848 45.9541C97.7398 44.6867 99.0823 43.9547 100.383 44.3192L118.453 49.3807C119.754 49.7451 120.521 51.068 120.166 52.3354L114.963 70.9128L114.914 71.0849C113.912 74.3061 110.457 76.1474 107.113 75.2106C103.709 74.2572 101.706 70.7874 102.638 67.4605C103.57 64.1336 107.084 62.2094 110.488 63.1627C111.717 63.507 112.763 64.1795 113.555 65.0548L116.893 53.1372L99.7654 48.3397L95.0695 65.1044C95.0517 65.1778 95.0326 65.2512 95.0121 65.3245C94.0802 68.6514 90.5658 70.5756 87.1624 69.6223C83.7589 68.669 81.7553 65.1991 82.6872 61.8722C83.6191 58.5453 87.1336 56.6211 90.537 57.5745C91.7644 57.9182 92.8097 58.5894 93.6009 59.4629L97.3848 45.9541Z" fill="#3AFFFC"/>
<path d="M97.3848 45.9541C97.7398 44.6867 99.0823 43.9547 100.383 44.3192L118.453 49.3807C119.754 49.7451 120.521 51.068 120.166 52.3354L114.963 70.9128L114.914 71.0849C113.912 74.3061 110.457 76.1474 107.113 75.2106C103.709 74.2572 101.706 70.7874 102.638 67.4605C103.57 64.1336 107.084 62.2094 110.488 63.1627C111.717 63.507 112.763 64.1795 113.555 65.0548L116.893 53.1372L99.7654 48.3397L95.0695 65.1044C95.0517 65.1778 95.0326 65.2512 95.0121 65.3245C94.0802 68.6514 90.5658 70.5756 87.1624 69.6223C83.7589 68.669 81.7553 65.1991 82.6872 61.8722C83.6191 58.5453 87.1336 56.6211 90.537 57.5745C91.7644 57.9182 92.8097 58.5894 93.6009 59.4629L97.3848 45.9541Z" fill="url(#paint12_radial_2584_881)"/>
<path d="M100.383 44.3192C99.0823 43.9547 97.7398 44.6867 97.3848 45.9541L93.6009 59.4629C92.8097 58.5894 91.7644 57.9182 90.537 57.5745C87.1336 56.6211 83.6191 58.5453 82.6872 61.8722C81.7553 65.1991 83.7589 68.669 87.1624 69.6223C90.5658 70.5756 94.0802 68.6514 95.0121 65.3245C95.0326 65.2512 95.0517 65.1778 95.0695 65.1044L99.7654 48.3397L116.893 53.1372L113.555 65.0548C112.763 64.1795 111.717 63.507 110.488 63.1627C107.084 62.2094 103.57 64.1336 102.638 67.4605C101.706 70.7874 103.709 74.2572 107.113 75.2106C110.457 76.1474 113.912 74.3061 114.914 71.0849L114.963 70.9128L120.166 52.3354C120.521 51.068 119.754 49.7451 118.453 49.3807L100.383 44.3192Z" fill="#3AFFFC"/>
<path d="M100.383 44.3192C99.0823 43.9547 97.7398 44.6867 97.3848 45.9541L93.6009 59.4629C92.8097 58.5894 91.7644 57.9182 90.537 57.5745C87.1336 56.6211 83.6191 58.5453 82.6872 61.8722C81.7553 65.1991 83.7589 68.669 87.1624 69.6223C90.5658 70.5756 94.0802 68.6514 95.0121 65.3245C95.0326 65.2512 95.0517 65.1778 95.0695 65.1044L99.7654 48.3397L116.893 53.1372L113.555 65.0548C112.763 64.1795 111.717 63.507 110.488 63.1627C107.084 62.2094 103.57 64.1336 102.638 67.4605C101.706 70.7874 103.709 74.2572 107.113 75.2106C110.457 76.1474 113.912 74.3061 114.914 71.0849L114.963 70.9128L120.166 52.3354C120.521 51.068 119.754 49.7451 118.453 49.3807L100.383 44.3192Z" fill="url(#paint13_radial_2584_881)"/>
<g opacity="0.8">
<path d="M191.957 80.0315C191.386 79.2281 191.587 78.1058 192.405 77.5246L197.292 74.0522C198.11 73.4711 199.235 73.6512 199.806 74.4545L202.183 77.8L196.111 82.1143L200.571 88.3909C200.74 88.5632 200.898 88.7509 201.042 88.9537C202.54 91.0625 202.02 94.0043 199.881 95.5245C197.741 97.0447 194.792 96.5676 193.294 94.4588C191.796 92.3501 192.315 89.4082 194.455 87.888C195.208 87.3532 196.061 87.0656 196.915 87.0093L191.957 80.0315Z" fill="#3AFFFC"/>
<path d="M191.957 80.0315C191.386 79.2281 191.587 78.1058 192.405 77.5246L197.292 74.0522C198.11 73.4711 199.235 73.6512 199.806 74.4545L202.183 77.8L196.111 82.1143L200.571 88.3909C200.74 88.5632 200.898 88.7509 201.042 88.9537C202.54 91.0625 202.02 94.0043 199.881 95.5245C197.741 97.0447 194.792 96.5676 193.294 94.4588C191.796 92.3501 192.315 89.4082 194.455 87.888C195.208 87.3532 196.061 87.0656 196.915 87.0093L191.957 80.0315Z" fill="url(#paint14_linear_2584_881)" fill-opacity="0.8"/>
</g>
<path d="M48.2322 133.241C48.0205 132.041 48.8394 130.893 50.0612 130.678L57.3616 129.39C58.5834 129.175 59.7454 129.973 59.9571 131.173L60.8385 136.17L51.7683 137.77L53.4219 147.146C53.5193 147.428 53.5957 147.721 53.6492 148.024C54.2047 151.175 52.0642 154.185 48.8682 154.749C45.6722 155.313 42.6309 153.216 42.0754 150.066C41.5198 146.916 43.6603 143.905 46.8563 143.341C47.9807 143.143 49.086 143.274 50.0706 143.664L48.2322 133.241Z" fill="#3AFFFC"/>
<path d="M48.2322 133.241C48.0205 132.041 48.8394 130.893 50.0612 130.678L57.3616 129.39C58.5834 129.175 59.7454 129.973 59.9571 131.173L60.8385 136.17L51.7683 137.77L53.4219 147.146C53.5193 147.428 53.5957 147.721 53.6492 148.024C54.2047 151.175 52.0642 154.185 48.8682 154.749C45.6722 155.313 42.6309 153.216 42.0754 150.066C41.5198 146.916 43.6603 143.905 46.8563 143.341C47.9807 143.143 49.086 143.274 50.0706 143.664L48.2322 133.241Z" fill="url(#paint15_linear_2584_881)" fill-opacity="0.8"/>
<path d="M289.994 52.2916C289.596 51.0298 290.274 49.6919 291.508 49.3034L308.642 43.9076C309.876 43.5191 311.198 44.2271 311.595 45.489L317.42 63.9851L317.474 64.1565C318.404 67.4175 316.637 70.8242 313.465 71.8229C310.238 72.8392 306.776 70.9778 305.733 67.6654C304.69 64.3531 306.461 60.844 309.688 59.8277C310.853 59.4607 312.049 59.469 313.151 59.7854L309.414 47.9198L293.174 53.0342L298.43 69.7256C298.455 69.7972 298.48 69.8695 298.503 69.9425C299.546 73.2549 297.775 76.7639 294.548 77.7802C291.321 78.7965 287.859 76.9352 286.816 73.6228C285.773 70.3104 287.543 66.8013 290.771 65.7851C291.934 65.4186 293.129 65.4263 294.229 65.7414L289.994 52.2916Z" fill="#3AFFFC"/>
<path d="M289.994 52.2916C289.596 51.0298 290.274 49.6919 291.508 49.3034L308.642 43.9076C309.876 43.5191 311.198 44.2271 311.595 45.489L317.42 63.9851L317.474 64.1565C318.404 67.4175 316.637 70.8242 313.465 71.8229C310.238 72.8392 306.776 70.9778 305.733 67.6654C304.69 64.3531 306.461 60.844 309.688 59.8277C310.853 59.4607 312.049 59.469 313.151 59.7854L309.414 47.9198L293.174 53.0342L298.43 69.7256C298.455 69.7972 298.48 69.8695 298.503 69.9425C299.546 73.2549 297.775 76.7639 294.548 77.7802C291.321 78.7965 287.859 76.9352 286.816 73.6228C285.773 70.3104 287.543 66.8013 290.771 65.7851C291.934 65.4186 293.129 65.4263 294.229 65.7414L289.994 52.2916Z" fill="url(#paint16_radial_2584_881)"/>
<path d="M291.508 49.3034C290.274 49.6919 289.596 51.0298 289.994 52.2916L294.229 65.7414C293.129 65.4263 291.934 65.4186 290.771 65.7851C287.543 66.8013 285.773 70.3104 286.816 73.6228C287.859 76.9352 291.321 78.7965 294.548 77.7802C297.775 76.7639 299.546 73.2549 298.503 69.9425C298.48 69.8695 298.455 69.7972 298.43 69.7256L293.174 53.0342L309.414 47.9198L313.151 59.7854C312.049 59.469 310.853 59.4607 309.688 59.8277C306.461 60.844 304.69 64.3531 305.733 67.6654C306.776 70.9778 310.238 72.8392 313.465 71.8229C316.637 70.8242 318.404 67.4175 317.474 64.1565L317.42 63.9851L311.595 45.489C311.198 44.2271 309.876 43.5191 308.642 43.9076L291.508 49.3034Z" fill="#3AFFFC"/>
<path d="M291.508 49.3034C290.274 49.6919 289.596 51.0298 289.994 52.2916L294.229 65.7414C293.129 65.4263 291.934 65.4186 290.771 65.7851C287.543 66.8013 285.773 70.3104 286.816 73.6228C287.859 76.9352 291.321 78.7965 294.548 77.7802C297.775 76.7639 299.546 73.2549 298.503 69.9425C298.48 69.8695 298.455 69.7972 298.43 69.7256L293.174 53.0342L309.414 47.9198L313.151 59.7854C312.049 59.469 310.853 59.4607 309.688 59.8277C306.461 60.844 304.69 64.3531 305.733 67.6654C306.776 70.9778 310.238 72.8392 313.465 71.8229C316.637 70.8242 318.404 67.4175 317.474 64.1565L317.42 63.9851L311.595 45.489C311.198 44.2271 309.876 43.5191 308.642 43.9076L291.508 49.3034Z" fill="url(#paint17_radial_2584_881)"/>
</g>
</g>
<defs>
<filter id="filter0_d_2584_881" x="196.766" y="195.781" width="93.3163" height="52.8729" filterUnits="userSpaceOnUse" color-interpolation-filters="sRGB">
<feFlood flood-opacity="0" result="BackgroundImageFix"/>
<feColorMatrix in="SourceAlpha" type="matrix" values="0 0 0 0 0 0 0 0 0 0 0 0 0 0 0 0 0 0 127 0" result="hardAlpha"/>
<feOffset/>
<feGaussianBlur stdDeviation="10.1617"/>
<feColorMatrix type="matrix" values="0 0 0 0 0.235294 0 0 0 0 1 0 0 0 0 0.972549 0 0 0 0.5 0"/>
<feBlend mode="normal" in2="BackgroundImageFix" result="effect1_dropShadow_2584_881"/>
<feBlend mode="normal" in="SourceGraphic" in2="effect1_dropShadow_2584_881" result="shape"/>
</filter>
<filter id="filter1_d_2584_881" x="217.58" y="101.462" width="51.0217" height="51.5271" filterUnits="userSpaceOnUse" color-interpolation-filters="sRGB">
<feFlood flood-opacity="0" result="BackgroundImageFix"/>
<feColorMatrix in="SourceAlpha" type="matrix" values="0 0 0 0 0 0 0 0 0 0 0 0 0 0 0 0 0 0 127 0" result="hardAlpha"/>
<feOffset/>
<feGaussianBlur stdDeviation="9.34392"/>
<feColorMatrix type="matrix" values="0 0 0 0 0.235294 0 0 0 0 1 0 0 0 0 0.972549 0 0 0 1 0"/>
<feBlend mode="normal" in2="BackgroundImageFix" result="effect1_dropShadow_2584_881"/>
<feBlend mode="normal" in="SourceGraphic" in2="effect1_dropShadow_2584_881" result="shape"/>
</filter>
<filter id="filter2_d_2584_881" x="163.29" y="98.8927" width="160.668" height="239.025" filterUnits="userSpaceOnUse" color-interpolation-filters="sRGB">
<feFlood flood-opacity="0" result="BackgroundImageFix"/>
<feColorMatrix in="SourceAlpha" type="matrix" values="0 0 0 0 0 0 0 0 0 0 0 0 0 0 0 0 0 0 127 0" result="hardAlpha"/>
<feOffset/>
<feGaussianBlur stdDeviation="9.36858"/>
<feColorMatrix type="matrix" values="0 0 0 0 0.0156863 0 0 0 0 0.839216 0 0 0 0 0.870588 0 0 0 0.62 0"/>
<feBlend mode="normal" in2="BackgroundImageFix" result="effect1_dropShadow_2584_881"/>
<feBlend mode="normal" in="SourceGraphic" in2="effect1_dropShadow_2584_881" result="shape"/>
</filter>
<filter id="filter3_d_2584_881" x="196.643" y="195.994" width="93.5624" height="53.0126" filterUnits="userSpaceOnUse" color-interpolation-filters="sRGB">
<feFlood flood-opacity="0" result="BackgroundImageFix"/>
<feColorMatrix in="SourceAlpha" type="matrix" values="0 0 0 0 0 0 0 0 0 0 0 0 0 0 0 0 0 0 127 0" result="hardAlpha"/>
<feOffset/>
<feGaussianBlur stdDeviation="10.1885"/>
<feColorMatrix type="matrix" values="0 0 0 0 0.235294 0 0 0 0 1 0 0 0 0 0.972549 0 0 0 0.5 0"/>
<feBlend mode="normal" in2="BackgroundImageFix" result="effect1_dropShadow_2584_881"/>
<feBlend mode="normal" in="SourceGraphic" in2="effect1_dropShadow_2584_881" result="shape"/>
</filter>
<filter id="filter4_d_2584_881" x="217.511" y="101.427" width="51.1562" height="51.663" filterUnits="userSpaceOnUse" color-interpolation-filters="sRGB">
<feFlood flood-opacity="0" result="BackgroundImageFix"/>
<feColorMatrix in="SourceAlpha" type="matrix" values="0 0 0 0 0 0 0 0 0 0 0 0 0 0 0 0 0 0 127 0" result="hardAlpha"/>
<feOffset/>
<feGaussianBlur stdDeviation="9.36858"/>
<feColorMatrix type="matrix" values="0 0 0 0 0.235294 0 0 0 0 1 0 0 0 0 0.972549 0 0 0 1 0"/>
<feBlend mode="normal" in2="BackgroundImageFix" result="effect1_dropShadow_2584_881"/>
<feBlend mode="normal" in="SourceGraphic" in2="effect1_dropShadow_2584_881" result="shape"/>
</filter>
<filter id="filter5_d_2584_881" x="24.6178" y="26.4313" width="423.131" height="145.779" filterUnits="userSpaceOnUse" color-interpolation-filters="sRGB">
<feFlood flood-opacity="0" result="BackgroundImageFix"/>
<feColorMatrix in="SourceAlpha" type="matrix" values="0 0 0 0 0 0 0 0 0 0 0 0 0 0 0 0 0 0 127 0" result="hardAlpha"/>
<feOffset/>
<feGaussianBlur stdDeviation="8.68488"/>
<feColorMatrix type="matrix" values="0 0 0 0 0.0156863 0 0 0 0 0.839216 0 0 0 0 0.870588 0 0 0 1 0"/>
<feBlend mode="normal" in2="BackgroundImageFix" result="effect1_dropShadow_2584_881"/>
<feBlend mode="normal" in="SourceGraphic" in2="effect1_dropShadow_2584_881" result="shape"/>
</filter>
<linearGradient id="paint0_linear_2584_881" x1="242.942" y1="126.81" x2="122.442" y2="126.81" gradientUnits="userSpaceOnUse">
<stop offset="0.18232" stop-color="#B1FCFF"/>
<stop offset="0.950276" stop-color="white" stop-opacity="0"/>
</linearGradient>
<linearGradient id="paint1_linear_2584_881" x1="242.942" y1="126.81" x2="363.442" y2="126.81" gradientUnits="userSpaceOnUse">
<stop offset="0.18232" stop-color="#B1FCFF"/>
<stop offset="0.950276" stop-color="white" stop-opacity="0"/>
</linearGradient>
<linearGradient id="paint2_linear_2584_881" x1="243.051" y1="126.689" x2="157.696" y2="41.4936" gradientUnits="userSpaceOnUse">
<stop offset="0.18232" stop-color="#B1FCFF"/>
<stop offset="0.950276" stop-color="white" stop-opacity="0"/>
</linearGradient>
<linearGradient id="paint3_linear_2584_881" x1="243.063" y1="126.688" x2="328.419" y2="41.4706" gradientUnits="userSpaceOnUse">
<stop offset="0.18232" stop-color="#B1FCFF"/>
<stop offset="0.950276" stop-color="white" stop-opacity="0"/>
</linearGradient>
<linearGradient id="paint4_linear_2584_881" x1="242.942" y1="126.808" x2="242.926" y2="6.09684" gradientUnits="userSpaceOnUse">
<stop offset="0.18232" stop-color="#B1FCFF"/>
<stop offset="0.950276" stop-color="white" stop-opacity="0"/>
</linearGradient>
<linearGradient id="paint5_linear_2584_881" x1="243.051" y1="126.699" x2="157.696" y2="211.916" gradientUnits="userSpaceOnUse">
<stop offset="0.18232" stop-color="#B1FCFF"/>
<stop offset="0.950276" stop-color="white" stop-opacity="0"/>
</linearGradient>
<linearGradient id="paint6_linear_2584_881" x1="243.063" y1="126.7" x2="328.418" y2="211.895" gradientUnits="userSpaceOnUse">
<stop offset="0.18232" stop-color="#B1FCFF"/>
<stop offset="0.950276" stop-color="white" stop-opacity="0"/>
</linearGradient>
<linearGradient id="paint7_linear_2584_881" x1="242.942" y1="126.578" x2="242.957" y2="247.289" gradientUnits="userSpaceOnUse">
<stop offset="0.18232" stop-color="#B1FCFF"/>
<stop offset="0.950276" stop-color="white" stop-opacity="0"/>
</linearGradient>
<linearGradient id="paint8_linear_2584_881" x1="255.356" y1="124.169" x2="182.542" y2="267.1" gradientUnits="userSpaceOnUse">
<stop stop-color="#BE74D7"/>
<stop offset="1" stop-color="#00D3E5"/>
</linearGradient>
<linearGradient id="paint9_linear_2584_881" x1="247.266" y1="152.216" x2="244.03" y2="372.815" gradientUnits="userSpaceOnUse">
<stop stop-color="#BE74D7" stop-opacity="0"/>
<stop offset="1" stop-color="#021C40"/>
</linearGradient>
<radialGradient id="paint10_radial_2584_881" cx="0" cy="0" r="1" gradientUnits="userSpaceOnUse" gradientTransform="translate(378 53.1269) rotate(32.2642) scale(105.036 126.043)">
<stop offset="0.046875" stop-color="#3AFFFC"/>
<stop offset="1" stop-color="#00BFD3"/>
</radialGradient>
<radialGradient id="paint11_radial_2584_881" cx="0" cy="0" r="1" gradientUnits="userSpaceOnUse" gradientTransform="translate(378 53.1269) rotate(32.2642) scale(105.036 126.043)">
<stop offset="0.046875" stop-color="#3AFFFC"/>
<stop offset="1" stop-color="#00BFD3"/>
</radialGradient>
<radialGradient id="paint12_radial_2584_881" cx="0" cy="0" r="1" gradientUnits="userSpaceOnUse" gradientTransform="translate(109.073 69.0731) rotate(-117.352) scale(78.8934 94.6721)">
<stop stop-color="#3AFFFC"/>
<stop offset="1" stop-color="#BE30E3"/>
</radialGradient>
<radialGradient id="paint13_radial_2584_881" cx="0" cy="0" r="1" gradientUnits="userSpaceOnUse" gradientTransform="translate(109.073 69.0731) rotate(-117.352) scale(78.8934 94.6721)">
<stop stop-color="#3AFFFC"/>
<stop offset="1" stop-color="#BE30E3"/>
</radialGradient>
<linearGradient id="paint14_linear_2584_881" x1="210.169" y1="49.615" x2="185.169" y2="111.615" gradientUnits="userSpaceOnUse">
<stop offset="0.175347" stop-color="#3AFFFC"/>
<stop offset="1" stop-color="#CBA6F3"/>
</linearGradient>
<linearGradient id="paint15_linear_2584_881" x1="39.2336" y1="155.434" x2="63.2336" y2="96.4341" gradientUnits="userSpaceOnUse">
<stop stop-color="#3AFFFC"/>
<stop offset="1" stop-color="#C830EC"/>
</linearGradient>
<radialGradient id="paint16_radial_2584_881" cx="0" cy="0" r="1" gradientUnits="userSpaceOnUse" gradientTransform="translate(280.571 20.6339) rotate(54.4008) scale(99.615 113.846)">
<stop offset="0.229167" stop-color="#3AFFFC"/>
<stop offset="1" stop-color="#BB31E1"/>
</radialGradient>
<radialGradient id="paint17_radial_2584_881" cx="0" cy="0" r="1" gradientUnits="userSpaceOnUse" gradientTransform="translate(280.571 20.6339) rotate(54.4008) scale(99.615 113.846)">
<stop offset="0.229167" stop-color="#3AFFFC"/>
<stop offset="1" stop-color="#BB31E1"/>
</radialGradient>
<clipPath id="clip0_2584_881">
<rect width="628" height="600" fill="white"/>
</clipPath>
</defs>
</svg>
