<svg width="468" height="380" viewBox="0 0 468 380" fill="none" xmlns="http://www.w3.org/2000/svg">
<g clip-path="url(#clip0_1787_3300)">
<path d="M366.82 320.398C367.993 325.565 366.869 331.252 363.416 337.43C359.957 343.618 354.208 350.208 346.313 357.083C330.523 370.831 306.391 385.509 275.665 400.229C214.235 429.657 126.751 459.107 27.7832 481.575C-71.185 504.042 -162.809 515.252 -230.924 515.232C-264.994 515.222 -293.099 512.402 -313.277 506.82C-323.367 504.028 -331.398 500.566 -337.189 496.478C-342.972 492.396 -346.441 487.753 -347.614 482.586C-348.787 477.419 -347.663 471.732 -344.21 465.554C-340.751 459.366 -335.002 452.776 -327.106 445.901C-311.317 432.153 -287.184 417.475 -256.458 402.755C-195.028 373.327 -107.545 343.877 -8.57682 321.409C90.3913 298.942 182.016 287.732 250.131 287.752C284.201 287.762 312.305 290.582 332.483 296.164C342.574 298.956 350.604 302.418 356.396 306.506C362.178 310.588 365.647 315.231 366.82 320.398Z" stroke="#6FCDDF" stroke-width="2.97333"/>
<path d="M323.57 336.59C324.411 340.294 323.614 344.403 321.09 348.919C318.56 353.446 314.341 358.289 308.517 363.36C296.87 373.5 279.048 384.345 256.324 395.231C210.898 416.993 146.188 438.778 72.9696 455.4C-0.248517 472.022 -68.0219 480.312 -118.391 480.297C-143.588 480.29 -164.347 478.204 -179.23 474.086C-186.673 472.027 -192.57 469.48 -196.806 466.489C-201.033 463.506 -203.526 460.143 -204.366 456.439C-205.207 452.736 -204.411 448.626 -201.887 444.11C-199.357 439.584 -195.138 434.741 -189.314 429.67C-177.667 419.529 -159.844 408.684 -137.12 397.798C-91.694 376.036 -26.9842 354.251 46.2339 337.629C119.452 321.008 187.225 312.717 237.595 312.732C262.792 312.739 283.55 314.826 298.434 318.943C305.877 321.003 311.773 323.549 316.01 326.54C320.236 329.523 322.729 332.886 323.57 336.59Z" stroke="#6FCDDF" stroke-width="2.97333"/>
<path d="M287.295 351.452C287.796 353.66 287.335 356.157 285.76 358.974C284.18 361.801 281.526 364.858 277.819 368.085C270.409 374.537 259.037 381.462 244.494 388.429C215.431 402.352 174.006 416.3 127.116 426.945C80.2252 437.59 36.8378 442.895 4.61202 442.886C-11.5132 442.881 -24.7602 441.545 -34.2307 438.925C-38.9671 437.615 -42.6813 436.004 -45.3274 434.136C-47.9638 432.275 -49.458 430.221 -49.9592 428.014C-50.4603 425.806 -49.9992 423.309 -48.4247 420.492C-46.8445 417.665 -44.1899 414.608 -40.4836 411.381C-33.0728 404.929 -21.701 398.004 -7.15846 391.037C21.9045 377.114 63.3297 363.166 110.22 352.521C157.111 341.876 200.498 336.571 232.724 336.58C248.849 336.585 262.096 337.921 271.566 340.541C276.303 341.851 280.017 343.462 282.663 345.33C285.3 347.191 286.794 349.245 287.295 351.452Z" stroke="#6FCDDF" stroke-width="2.97333"/>
<path d="M122.535 154.817C160.099 154.817 190.55 124.532 190.55 87.1735C190.55 49.8152 160.099 19.5302 122.535 19.5302C84.9714 19.5302 54.52 49.8152 54.52 87.1735C54.52 124.532 84.9714 154.817 122.535 154.817Z" fill="url(#paint0_linear_1787_3300)"/>
<path d="M122.535 154.817C160.099 154.817 190.55 124.532 190.55 87.1735C190.55 49.8152 160.099 19.5302 122.535 19.5302C84.9714 19.5302 54.52 49.8152 54.52 87.1735C54.52 124.532 84.9714 154.817 122.535 154.817Z" fill="#3D1266" fill-opacity="0.15"/>
<mask id="mask0_1787_3300" style="mask-type:alpha" maskUnits="userSpaceOnUse" x="54" y="19" width="137" height="136">
<path d="M122.515 154.415C159.839 154.415 190.096 124.158 190.096 86.8341C190.096 49.5103 159.839 19.2533 122.515 19.2533C85.1915 19.2533 54.9346 49.5103 54.9346 86.8341C54.9346 124.158 85.1915 154.415 122.515 154.415Z" fill="url(#paint1_linear_1787_3300)"/>
</mask>
<g mask="url(#mask0_1787_3300)">
<g style="mix-blend-mode:screen" opacity="0.3">
<g style="mix-blend-mode:screen" opacity="0.5">
<path d="M143.84 6.74772C130.902 17.3123 114.798 24.5928 99.4848 31.0027C91.1756 34.4847 82.8268 36.463 73.8053 37.017C65.14 37.5709 56.4747 37.4919 47.9676 39.312C45.5144 39.8264 46.5432 43.5852 48.9964 43.0708C58.374 41.0925 67.9098 41.4882 77.406 40.6573C85.9131 39.9055 93.8662 37.6106 101.74 34.2473C117.33 27.5999 133.394 20.2799 146.61 9.51751C148.549 7.9348 145.779 5.16501 143.84 6.74772V6.74772Z" fill="#77CFE3"/>
</g>
<g style="mix-blend-mode:screen" opacity="0.5">
<path d="M153.771 20.7152C139.567 29.341 123.581 33.9308 107.715 38.402C99.4449 40.7365 91.1357 43.6249 82.5891 44.8119C74.0029 45.999 65.3376 45.5637 56.7514 46.9486C54.2586 47.3443 55.3269 51.1032 57.7801 50.7075C66.6433 49.283 75.6647 49.8766 84.5675 48.4522C93.1537 47.1069 101.542 44.2184 109.851 41.8444C125.678 37.3732 141.585 32.6647 155.75 24.0785C157.886 22.7728 155.948 19.4095 153.771 20.7152Z" fill="#77CFE3"/>
</g>
<g style="mix-blend-mode:screen" opacity="0.5">
<path d="M179.965 28.9058C161.527 41.7653 139.765 49.2039 118.161 54.7038C95.4488 60.4807 71.906 63.2505 48.5611 60.4016C46.0683 60.0851 46.1079 64.0022 48.5611 64.3188C72.2225 67.2072 96.161 64.3188 119.189 58.5023C141.11 52.9233 163.228 45.3263 181.904 32.3085C183.962 30.8841 181.983 27.4812 179.926 28.9452L179.965 28.9058Z" fill="#77CFE3"/>
</g>
<g style="mix-blend-mode:screen" opacity="0.5">
<path d="M132.009 66.0202C128.092 65.3475 123.819 66.218 119.902 66.495C114.956 66.8511 110.01 67.2467 105.064 67.682C84.3304 69.4625 63.6365 72.1135 43.5361 77.6926C41.1224 78.3652 42.1512 82.1242 44.5648 81.4516C62.3307 76.5056 80.5714 73.8941 98.8912 72.1135C107.952 71.243 117.013 70.5704 126.114 69.9374C130.189 69.6604 135.768 69.4626 135.373 75.1603C135.056 79.671 130.268 82.2825 126.47 83.5487C118.596 86.1601 109.931 84.6961 101.819 84.6565C93.2331 84.617 84.6864 85.7248 76.3377 87.5845C67.6723 89.4838 59.2444 92.214 50.9352 95.3003C43.1404 98.1887 34.9103 100.998 27.9464 105.548C21.3386 109.861 15.6013 116.508 14.8495 124.659C14.2164 131.465 17.6983 138.627 24.1083 141.436C26.4032 142.425 28.3816 139.062 26.0867 138.073C18.1336 134.591 17.1048 124.897 21.0616 117.972C25.6119 110.019 34.3563 106.063 42.4677 102.778C59.5214 95.8937 77.3664 89.7608 95.8841 88.732C104.154 88.2572 112.503 89.6025 120.733 88.732C127.459 88.0198 135.729 85.4479 138.578 78.6027C140.833 73.2215 138.024 67.0489 132.128 66.0597L132.009 66.0202Z" fill="#77CFE3"/>
</g>
<g style="mix-blend-mode:screen" opacity="0.5">
<path d="M183.645 39.5495C174.703 43.6249 165.483 48.0565 158.44 55.1391C155.196 58.3837 152.584 62.2217 150.923 66.4951C148.825 71.8763 148.628 77.6531 147.401 83.2321C141.941 108.635 108.783 108.318 88.5243 108.199C74.4382 108.12 60.1938 107.922 46.5429 111.958C44.1293 112.671 45.1581 116.429 47.5717 115.717C72.3411 108.397 98.6536 115.678 123.542 109.268C132.642 106.933 141.862 102.304 147.164 94.2319C153.455 84.6961 150.883 72.3115 157.174 62.7757C163.624 52.9629 175.257 47.6608 185.584 42.9522C187.879 41.9235 185.9 38.5602 183.605 39.5889L183.645 39.5495Z" fill="#77CFE3"/>
</g>
<g style="mix-blend-mode:screen" opacity="0.5">
<path d="M185.822 50.9845C176.959 54.3082 169.401 60.5995 164.891 68.9483C162.24 73.8151 161.053 79.0777 159.984 84.4589C158.797 90.4336 157.215 96.25 154.603 101.789C152.11 106.973 148.985 112.75 143.88 115.757C138.776 118.764 132.089 119.753 126.352 121.059C114.046 123.908 101.543 125.926 88.9603 127.113C74.5577 128.498 60.0364 128.775 45.5942 128.023C43.0618 127.904 43.1014 131.821 45.5942 131.94C70.9571 133.206 96.4782 131.307 121.366 126.124C131.891 123.947 144.869 122.563 152.031 113.62C159.351 104.441 162.121 93.2033 164.495 81.9661C167.107 69.5814 174.822 59.2542 186.89 54.7039C189.225 53.8334 188.196 50.0746 185.862 50.945L185.822 50.9845Z" fill="#77CFE3"/>
</g>
<g style="mix-blend-mode:screen" opacity="0.5">
<path d="M192.589 64.7541C178.74 66.2181 170.114 78.3653 167.977 91.3435C166.87 98.1096 166.593 105.588 169.798 111.84C171.697 115.519 174.506 118.724 176.999 121.969L185.071 132.415C186.574 134.393 189.977 132.415 188.434 130.436C184.279 125.055 179.966 119.714 175.93 114.214C171.618 108.318 170.668 102.225 171.38 95.0629C172.528 83.153 179.373 70.0562 192.549 68.6317C195.042 68.3548 195.042 64.477 192.549 64.7144L192.589 64.7541Z" fill="#77CFE3"/>
</g>
<g style="mix-blend-mode:screen" opacity="0.5">
<path d="M193.023 111.207C185.822 108.041 175.297 102.541 179.412 92.9263C181.073 89.0882 184.397 86.3976 187.879 84.3005C190.293 82.8365 193.181 81.8869 192.588 78.6424C192.113 76.1892 188.354 77.2179 188.829 79.671C188.67 78.9193 179.966 85.3293 179.056 86.3976C176.444 89.3256 174.545 93.2032 174.624 97.1995C174.743 106.498 183.685 111.365 191.084 114.609C193.379 115.599 195.357 112.235 193.062 111.246L193.023 111.207Z" fill="#77CFE3"/>
</g>
<g style="mix-blend-mode:screen" opacity="0.5">
<path d="M160.142 124.303C150.092 124.303 140.873 129.012 131.535 132.059C121.801 135.224 111.711 137.242 101.543 138.033C89.9492 138.943 78.2767 138.271 66.8416 136.095C64.3884 135.62 63.3201 139.379 65.8129 139.854C88.8017 144.246 112.74 142.742 134.898 135.066C145.423 131.426 156.977 125.53 168.254 129.605C177.552 132.969 184.476 141.911 185.189 151.763C185.347 154.256 189.264 154.296 189.106 151.763C188.037 136.886 175.257 124.303 160.182 124.303H160.142Z" fill="#77CFE3"/>
</g>
<g style="mix-blend-mode:screen" opacity="0.5">
<path d="M162.794 145.393C156.859 143.771 150.963 144.602 144.988 145.393C138.183 146.303 131.337 147.015 124.453 147.451C111 148.361 97.5069 148.321 84.0539 147.451C81.5611 147.292 81.5611 151.209 84.0539 151.368C97.0717 152.199 110.129 152.238 123.147 151.407C129.557 151.012 135.927 150.418 142.298 149.587C148.747 148.756 155.315 147.332 161.725 149.112C164.139 149.785 165.207 146.026 162.754 145.353L162.794 145.393Z" fill="#77CFE3"/>
</g>
</g>
</g>
<path d="M220.282 29.2963C207.185 31.684 192.653 35.9443 173.86 43.1414C174.127 43.4075 174.393 43.9397 174.926 44.4719C215.342 29.0886 242.827 25.0326 247.192 33.594C250.262 39.6314 240.712 52.0473 220.964 67.6694C200.671 83.7691 171.851 101.608 139.791 117.878C107.765 134.149 76.3872 146.94 51.4213 153.864C27.1716 160.583 11.5167 160.993 8.44709 154.955C4.15604 146.509 21.9204 127.965 57.2525 104.717C57.3048 104.682 57.3572 104.648 57.4097 104.614L56.8767 103.017C27.1359 122.527 1.35298 144.552 6.98054 155.672C8.48123 158.605 12.1988 160.208 17.7923 160.652C38.9724 162.255 86.892 146.53 140.507 119.277C172.636 102.939 201.558 85.0652 221.919 68.8973C242.588 52.5248 252.07 39.6996 248.557 32.8436C245.862 27.5567 236.346 26.3288 220.214 29.2622L220.282 29.2963Z" fill="#D5A6FB"/>
<path d="M220.282 29.2963C207.185 31.684 192.653 35.9443 173.86 43.1414C174.127 43.4075 174.393 43.9397 174.926 44.4719C215.342 29.0886 242.827 25.0326 247.192 33.594C250.262 39.6314 240.712 52.0473 220.964 67.6694C200.671 83.7691 171.851 101.608 139.791 117.878C107.765 134.149 76.3872 146.94 51.4213 153.864C27.1716 160.583 11.5167 160.993 8.44709 154.955C4.15604 146.509 21.9204 127.965 57.2525 104.717C57.3048 104.682 57.3572 104.648 57.4097 104.614L56.8767 103.017C27.1359 122.527 1.35298 144.552 6.98054 155.672C8.48123 158.605 12.1988 160.208 17.7923 160.652C38.9724 162.255 86.892 146.53 140.507 119.277C172.636 102.939 201.558 85.0652 221.919 68.8973C242.588 52.5248 252.07 39.6996 248.557 32.8436C245.862 27.5567 236.346 26.3288 220.214 29.2622L220.282 29.2963Z" fill="black" fill-opacity="0.2"/>
<g opacity="0.7">
<path d="M177.892 48.1469L181.624 54.313C198.953 49.2301 210.774 48.1812 212.854 52.4112C216.88 60.7008 182.05 86.013 135.042 108.971C88.0335 131.93 46.654 143.835 42.5945 135.546C40.6159 131.52 47.1437 123.909 60.6185 114.016L58.2198 107.353C29.8374 125.74 14.5532 140.356 18.0669 147.554C23.5592 158.811 77.1513 143.972 137.703 114.395C198.288 84.819 242.908 51.6949 237.416 40.4375C233.834 33.1031 209.818 36.8556 176.728 48.5565L177.892 48.1469Z" fill="#D5A6FB"/>
<path d="M177.892 48.1469L181.624 54.313C198.953 49.2301 210.774 48.1812 212.854 52.4112C216.88 60.7008 182.05 86.013 135.042 108.971C88.0335 131.93 46.654 143.835 42.5945 135.546C40.6159 131.52 47.1437 123.909 60.6185 114.016L58.2198 107.353C29.8374 125.74 14.5532 140.356 18.0669 147.554C23.5592 158.811 77.1513 143.972 137.703 114.395C198.288 84.819 242.908 51.6949 237.416 40.4375C233.834 33.1031 209.818 36.8556 176.728 48.5565L177.892 48.1469Z" fill="black" fill-opacity="0.2"/>
</g>
<path fill-rule="evenodd" clip-rule="evenodd" d="M310.049 394.591L310.193 398.644L329.148 394.591H347.369V390.696L387.533 382.109C-12.0051 350.743 37.4233 248.943 83.5097 187.99C-22.831 230.526 -65.6037 320.216 -2.29203 391.319L171.763 386.936L172.036 394.591H310.049Z" fill="url(#paint2_linear_1787_3300)"/>
<path fill-rule="evenodd" clip-rule="evenodd" d="M-20.0394 395.752C-51.0329 340.373 -28.5158 261.58 53.0336 216.237C52.0283 218.57 47.6241 224.096 42.4015 230.648L42.4014 230.648C32.532 243.03 19.7403 259.078 21.4417 264.182C24.0433 271.987 33.335 258.607 40.3967 248.2C36.4564 292.428 79.0488 373.024 380.1 390.92L216.858 392.891C231.541 395.03 247.411 397.045 264.157 398.751L264.157 411.689H126.685L126.153 393.986L-20.0394 395.752Z" fill="url(#paint3_linear_1787_3300)"/>
<path fill-rule="evenodd" clip-rule="evenodd" d="M270.951 121.049C270.52 119.65 268.54 119.65 268.109 121.049L266.544 126.131C265.464 129.002 264.724 129.778 261.603 130.502L258.29 130.943C256.57 131.172 256.57 133.661 258.29 133.89L261.596 134.331C264.735 135.074 265.469 136.207 266.556 139.107L266.564 139.087L268.113 143.951C268.553 145.332 270.507 145.332 270.946 143.951L272.496 139.087L272.503 139.107C273.591 136.207 274.325 135.074 277.463 134.331L280.769 133.89C282.49 133.661 282.49 131.172 280.769 130.943L277.457 130.502C274.335 129.778 273.595 129.002 272.515 126.131L270.951 121.049Z" fill="#EDD7FF"/>
<path fill-rule="evenodd" clip-rule="evenodd" d="M33.946 53.6825C33.5153 52.2836 31.5351 52.2836 31.1044 53.6825L30.2219 56.5483C29.3895 58.7605 28.8185 59.3592 26.4126 59.9167L26.3875 59.92C24.6671 60.1492 24.6671 62.6381 26.3875 62.8673L26.4064 62.8698C28.8275 63.4434 29.3935 64.3166 30.2322 66.5532L30.2378 66.538L31.1088 69.2722C31.5486 70.6528 33.5021 70.6528 33.9419 69.2722L34.8128 66.5382L34.8183 66.5532C35.657 64.3166 36.2231 63.4434 38.6442 62.8698L38.663 62.8673C40.3835 62.6381 40.3835 60.1492 38.663 59.92L38.6379 59.9167C36.2312 59.359 35.6606 58.7601 34.8278 56.5461L33.946 53.6825Z" fill="#EDD7FF"/>
<circle opacity="0.6" cx="41.512" cy="10.705" r="3.345" fill="#EDD7FF"/>
<circle cx="86.1121" cy="282.765" r="5.575" fill="#EDD7FF"/>
<circle cx="381.031" cy="264.031" r="4.08833" transform="rotate(105.473 381.031 264.031)" fill="#EDD7FF"/>
<circle cx="429.484" cy="54.7258" r="6.69" transform="rotate(105.473 429.484 54.7258)" fill="#EDD7FF"/>
<circle cx="315.232" cy="192.232" r="6.69" transform="rotate(105.473 315.232 192.232)" fill="#CD86D7"/>
<circle opacity="0.6" cx="95.032" cy="257.492" r="3.345" fill="#EDD7FF"/>
<circle cx="396.033" cy="90.5864" r="4.08833" transform="rotate(105.473 396.033 90.5864)" fill="#CD86D7"/>
<path opacity="0.5" d="M166.846 183.874C171.403 172.112 169.893 158.324 161.647 147.588C149.08 131.225 125.628 128.148 109.265 140.715C92.9019 153.282 89.8247 176.734 102.392 193.097C109.825 202.776 121.067 207.806 132.398 207.7C131.832 211.248 131.926 214.947 132.77 218.624C131.368 219.888 130.441 221.68 130.315 223.713C130.06 227.832 133.193 231.377 137.311 231.631L139.715 231.78C142.077 234.325 144.871 236.41 147.942 237.952C147.055 240.196 146.868 242.478 147.53 244.629C148.207 246.83 149.696 248.646 151.765 250.014C150.823 252.309 150.613 254.648 151.29 256.849C152.782 261.698 158.212 264.676 165.11 265.126L168.534 276.256C166.897 283.677 163.117 302.346 163.354 315.48C163.659 332.33 170.579 356.991 171.945 361.703L173.508 368.108C174.365 371.615 177.902 373.765 181.41 372.908C184.918 372.052 187.067 368.514 186.21 365.007L184.438 357.748L184.352 357.769C181.743 349.426 175.929 329.518 175.667 315.028C175.452 303.148 178.902 286.724 180.92 278.2C182.107 278.435 183.341 278.538 184.603 278.491C186.547 278.42 188.396 278.002 190.094 277.299L188.081 317.008C187.898 320.614 190.673 323.685 194.279 323.868C197.885 324.051 200.956 321.276 201.139 317.67L201.147 317.514L201.149 317.483L203.91 263.011C204.078 259.696 201.746 256.833 198.567 256.251C197.504 253.828 195.857 251.729 193.809 250.124C194.624 247.951 194.777 245.747 194.137 243.667C193.484 241.544 192.075 239.779 190.119 238.428L189.999 238.038C190.857 235.821 191.03 233.57 190.377 231.447C189.724 229.324 188.316 227.559 186.359 226.209L186.322 226.086C187.754 223.5 188.79 220.698 189.379 217.779L219.254 253.734C220.733 255.513 222.862 256.431 225.007 256.431C225.32 256.431 225.632 256.411 225.943 256.372C227.308 256.2 228.641 255.65 229.777 254.706C232.95 252.069 233.385 247.358 230.748 244.184L189.615 194.681L195.918 174.835C197.167 170.902 194.992 166.701 191.059 165.452C188.601 164.671 186.039 165.228 184.157 166.716C183.636 167.128 183.167 167.612 182.767 168.158C182.301 168.795 181.929 169.517 181.677 170.311L178.083 181.626C175.474 180.206 172.155 180.428 169.732 182.442C169.116 182.954 168.603 183.544 168.196 184.185C167.749 184.071 167.299 183.967 166.846 183.874Z" fill="url(#paint4_linear_1787_3300)"/>
<path d="M183.862 272.39C183.73 268.803 180.7 266.002 177.094 266.134C173.488 266.267 170.671 269.282 170.803 272.869C170.803 272.869 164.585 298.584 164.887 315.315C165.225 334.013 173.71 362.332 173.71 362.332L186.291 358.895C183.945 351.51 177.477 330.165 177.2 314.863C176.898 298.132 183.862 272.39 183.862 272.39Z" fill="#0F2437"/>
<path d="M187.744 364.841C188.6 368.349 186.451 371.886 182.943 372.743V372.743C179.436 373.599 175.898 371.45 175.042 367.942L173.269 360.684L185.971 357.583L187.744 364.841Z" fill="#F74CAD"/>
<path d="M195.821 323.516C199.427 323.699 202.499 320.924 202.681 317.318L205.443 262.846C205.625 259.24 202.85 256.169 199.245 255.986C195.639 255.803 192.567 258.578 192.384 262.184L189.623 316.656C189.44 320.262 192.215 323.334 195.821 323.516Z" fill="#0F2437"/>
<path d="M202.672 317.505C202.489 321.111 199.418 323.886 195.812 323.703V323.703C192.206 323.52 189.431 320.449 189.614 316.843L189.992 309.381L203.05 310.043L202.672 317.505Z" fill="#F74CAD"/>
<circle cx="185.554" cy="262.46" r="15.8769" transform="rotate(-2.10077 185.554 262.46)" fill="#0F2437"/>
<path d="M152.565 219.204C149.987 210.823 154.691 201.938 163.072 199.36V199.36C171.453 196.781 180.337 201.485 182.915 209.866L201.041 268.781L170.691 278.118L152.565 219.204Z" fill="#0F2437"/>
<ellipse cx="174.246" cy="250.093" rx="22.4145" ry="14.009" transform="rotate(-17.1008 174.246 250.093)" fill="#0F2437"/>
<ellipse cx="170.487" cy="237.873" rx="22.4145" ry="14.009" transform="rotate(-17.1008 170.487 237.873)" fill="#0F2437"/>
<ellipse cx="162.183" cy="211.515" rx="22.4145" ry="22.3215" transform="rotate(-17.1008 162.183 211.515)" fill="#0F2437"/>
<ellipse cx="162.525" cy="211.996" rx="28.952" ry="28.8598" transform="rotate(-17.1008 162.525 211.996)" fill="#0F2437"/>
<ellipse cx="159.765" cy="203.659" rx="16.2505" ry="16.1571" transform="rotate(-17.1008 159.765 203.659)" fill="#5B6571"/>
<circle cx="160.383" cy="206.303" r="9.33937" transform="rotate(-17.1008 160.383 206.303)" fill="#8FC23F"/>
<circle cx="171.945" cy="242.613" r="8.40543" transform="rotate(-17.1008 171.945 242.613)" stroke="#F74CAD" stroke-width="3.73575"/>
<path d="M179.772 261.702C180.075 262.688 179.522 263.733 178.536 264.037V264.037C177.55 264.34 176.505 263.787 176.201 262.801L162.799 219.239L166.37 218.141L179.772 261.702Z" fill="#5B6571"/>
<path d="M220.787 253.569C223.424 256.742 228.135 257.177 231.309 254.54V254.54C234.482 251.903 234.917 247.193 232.28 244.019L181.786 183.248C179.149 180.075 174.438 179.64 171.264 182.277V182.277C168.091 184.914 167.655 189.624 170.293 192.798L220.787 253.569Z" fill="#0F2437"/>
<mask id="mask1_1787_3300" style="mask-type:alpha" maskUnits="userSpaceOnUse" x="168" y="180" width="66" height="77">
<path d="M231.19 254.397C228.016 257.034 223.306 256.599 220.669 253.425L170.174 192.654C167.537 189.48 167.972 184.77 171.146 182.133C174.32 179.496 179.03 179.931 181.667 183.105L232.162 243.875C234.799 247.049 234.364 251.759 231.19 254.397Z" fill="#FEBE40"/>
</mask>
<g mask="url(#mask1_1787_3300)">
<path d="M215.297 246.96L226.791 237.41L219.031 228.072L207.538 237.622L215.297 246.96Z" fill="#F74CAD"/>
<path d="M204.433 233.886L215.927 224.337L208.167 214.998L196.674 224.548L204.433 233.886Z" fill="#F74CAD"/>
</g>
<path d="M214.819 246.385L210.641 241.357L222.134 231.807L226.312 236.836L214.819 246.385Z" fill="#0F2437"/>
<path d="M232.281 244.019C234.918 247.193 234.483 251.903 231.309 254.54V254.54C228.136 257.177 223.425 256.742 220.788 253.569L214.819 246.385L226.312 236.836L232.281 244.019Z" fill="#C9DB53"/>
<rect x="98.1694" y="153.546" width="35.8632" height="83.3071" rx="17.9316" transform="rotate(-37.5248 98.1694 153.546)" fill="#C9DB53"/>
<circle cx="133.553" cy="170.177" r="37.3575" transform="rotate(-37.5248 133.553 170.177)" fill="#C9DB53"/>
<ellipse rx="13.0751" ry="20.5466" transform="matrix(0.79309 -0.609105 0.759363 0.650668 122.673 187.398)" fill="black"/>
<ellipse cx="111.995" cy="180.139" rx="5.22708" ry="5.23004" transform="rotate(-37.5248 111.995 180.139)" fill="#F5F6E8"/>
<ellipse rx="13.0751" ry="20.5466" transform="matrix(-0.79309 0.609105 0.432739 0.901519 153.782 163.506)" fill="black"/>
<ellipse rx="5.22708" ry="5.23004" transform="matrix(-0.79309 0.609105 0.609105 0.79309 149.523 151.317)" fill="#F5F6E8"/>
<path d="M158.529 198.099C159.347 197.47 160.52 197.624 161.148 198.442V198.442C161.777 199.26 161.623 200.433 160.805 201.061L156.36 204.475C155.542 205.103 154.37 204.949 153.741 204.131V204.131C153.113 203.313 153.267 202.14 154.085 201.512L158.529 198.099Z" fill="#0F2437"/>
<path d="M197.451 174.669C198.701 170.737 196.525 166.536 192.592 165.287V165.287C188.66 164.038 184.459 166.213 183.21 170.146L166.048 224.178C164.799 228.111 166.974 232.311 170.907 233.561V233.561C174.84 234.81 179.04 232.634 180.289 228.701L197.451 174.669Z" fill="#0F2437"/>
<path d="M171.753 233.5C175.872 233.755 179.417 230.622 179.671 226.504V226.504C179.926 222.385 176.794 218.84 172.675 218.586L139.766 216.552C135.648 216.297 132.103 219.43 131.848 223.548V223.548C131.593 227.667 134.726 231.212 138.844 231.466L171.753 233.5Z" fill="#0F2437"/>
<mask id="mask2_1787_3300" style="mask-type:alpha" maskUnits="userSpaceOnUse" x="158" y="165" width="40" height="91">
<path d="M192.536 165.465C196.469 166.714 198.644 170.914 197.395 174.847L173.477 250.151C172.228 254.084 168.027 256.259 164.094 255.01C160.161 253.761 157.986 249.56 159.235 245.628L183.153 170.324C184.403 166.391 188.603 164.216 192.536 165.465Z" fill="#FEBE40"/>
</mask>
<g mask="url(#mask2_1787_3300)">
<path d="M194.85 182.858L180.608 178.335L176.933 189.906L191.175 194.43L194.85 182.858Z" fill="#F74CAD"/>
<path d="M189.705 199.058L175.463 194.535L171.788 206.106L186.03 210.63L189.705 199.058Z" fill="#F74CAD"/>
</g>
<path d="M194.625 183.57L192.645 189.801L178.404 185.278L180.383 179.047L194.625 183.57Z" fill="#0F2437"/>
<path d="M183.21 170.146C184.459 166.213 188.66 164.037 192.593 165.287V165.287C196.525 166.536 198.701 170.736 197.452 174.669L194.625 183.57L180.383 179.047L183.21 170.146Z" fill="#C9DB53"/>
<path opacity="0.2" d="M168.332 183.874C172.89 172.112 171.379 158.324 163.134 147.588C150.567 131.225 127.114 128.148 110.751 140.715C94.3885 153.282 91.3112 176.734 103.878 193.097C111.312 202.776 122.554 207.806 133.884 207.7C133.319 211.248 133.412 214.947 134.257 218.624C132.854 219.888 131.927 221.68 131.801 223.713C131.547 227.832 134.679 231.377 138.798 231.631L141.201 231.78C143.563 234.325 146.357 236.41 149.429 237.952C148.541 240.196 148.355 242.478 149.017 244.629C149.694 246.83 151.183 248.646 153.252 250.014C152.31 252.309 152.099 254.648 152.776 256.849C154.268 261.698 159.698 264.676 166.596 265.126L170.021 276.256C168.384 283.677 164.603 302.346 164.841 315.48C165.145 332.33 172.066 356.991 173.431 361.703L174.995 368.108C175.851 371.615 179.389 373.765 182.897 372.908C186.404 372.052 188.553 368.514 187.697 365.007L185.925 357.748L185.838 357.769C183.23 349.426 177.416 329.518 177.154 315.028C176.939 303.148 180.388 286.724 182.406 278.2C183.594 278.435 184.827 278.538 186.09 278.491C188.033 278.42 189.883 278.002 191.58 277.299L189.567 317.008C189.385 320.614 192.16 323.685 195.766 323.868C199.372 324.051 202.443 321.276 202.626 317.67L202.634 317.514L202.635 317.483L205.397 263.011C205.565 259.696 203.233 256.833 200.053 256.251C198.991 253.828 197.344 251.729 195.296 250.124C196.11 247.951 196.263 245.747 195.623 243.667C194.97 241.544 193.562 239.779 191.605 238.428L191.485 238.038C192.344 235.821 192.517 233.57 191.864 231.447C191.21 229.324 189.802 227.559 187.846 226.209L187.808 226.086C189.241 223.5 190.277 220.698 190.865 217.779L220.741 253.734C222.219 255.513 224.349 256.431 226.494 256.431C226.806 256.431 227.119 256.411 227.43 256.372C228.794 256.2 230.127 255.65 231.263 254.706C234.437 252.069 234.872 247.358 232.235 244.184L191.101 194.681L197.405 174.835C198.654 170.902 196.479 166.701 192.546 165.452C190.088 164.671 187.525 165.228 185.644 166.716C185.123 167.128 184.654 167.612 184.254 168.158C183.788 168.795 183.415 169.517 183.163 170.311L179.569 181.626C176.961 180.206 173.641 180.428 171.218 182.442C170.602 182.954 170.089 183.544 169.682 184.185C169.235 184.071 168.785 183.967 168.332 183.874Z" fill="url(#paint5_linear_1787_3300)"/>
<g style="mix-blend-mode:soft-light" opacity="0.3">
<path d="M169.819 183.131C174.377 171.368 172.866 157.581 164.621 146.845C152.054 130.482 128.601 127.404 112.238 139.972C95.8753 152.539 92.798 175.991 105.365 192.354C112.798 202.033 124.04 207.063 135.371 206.957C134.806 210.505 134.899 214.204 135.743 217.881C134.341 219.145 133.414 220.937 133.288 222.97C133.034 227.088 136.166 230.634 140.284 230.888L142.688 231.037C145.05 233.582 147.844 235.666 150.916 237.209C150.028 239.453 149.842 241.735 150.503 243.886C151.181 246.087 152.67 247.902 154.739 249.271C153.797 251.566 153.586 253.905 154.263 256.106C155.755 260.954 161.185 263.933 168.083 264.382L171.507 275.512C169.871 282.933 166.09 301.603 166.328 314.737C166.632 331.586 173.553 356.248 174.918 360.96L176.482 367.364C177.338 370.872 180.876 373.021 184.383 372.165C187.891 371.308 190.04 367.771 189.184 364.263L187.412 357.005L187.325 357.026C184.717 348.683 178.902 328.774 178.641 314.285C178.426 302.405 181.875 285.981 183.893 277.456C185.08 277.692 186.314 277.794 187.576 277.748C189.52 277.677 191.37 277.259 193.067 276.556L191.054 316.265C190.871 319.871 193.646 322.942 197.252 323.125C200.858 323.308 203.93 320.533 204.113 316.927L204.12 316.77L204.122 316.74L206.883 262.268C207.051 258.953 204.719 256.09 201.54 255.507C200.478 253.085 198.83 250.986 196.783 249.381C197.597 247.207 197.75 245.004 197.11 242.924C196.457 240.8 195.049 239.036 193.092 237.685L192.972 237.294C193.831 235.078 194.004 232.827 193.351 230.704C192.697 228.58 191.289 226.816 189.333 225.465L189.295 225.343C190.727 222.756 191.764 219.954 192.352 217.035L222.228 252.991C223.706 254.77 225.836 255.688 227.981 255.687C228.293 255.687 228.606 255.668 228.917 255.629C230.281 255.457 231.614 254.906 232.75 253.962C235.924 251.325 236.359 246.615 233.722 243.441L192.588 193.937L198.892 174.091C200.141 170.159 197.965 165.958 194.033 164.709C191.575 163.928 189.012 164.485 187.131 165.973C186.609 166.385 186.14 166.869 185.74 167.415C185.274 168.052 184.902 168.774 184.65 169.568L181.056 180.883C178.448 179.463 175.128 179.685 172.705 181.699C172.089 182.21 171.576 182.8 171.169 183.442C170.722 183.328 170.272 183.224 169.819 183.131Z" fill="url(#paint6_linear_1787_3300)"/>
</g>
</g>
<defs>
<linearGradient id="paint0_linear_1787_3300" x1="65.6055" y1="44.2179" x2="179.991" y2="125.91" gradientUnits="userSpaceOnUse">
<stop stop-color="#F0A93A"/>
<stop offset="1" stop-color="#F748B2"/>
</linearGradient>
<linearGradient id="paint1_linear_1787_3300" x1="65.9493" y1="43.9182" x2="180.025" y2="124.944" gradientUnits="userSpaceOnUse">
<stop stop-color="#F0A93A"/>
<stop offset="1" stop-color="#F748B2"/>
</linearGradient>
<linearGradient id="paint2_linear_1787_3300" x1="13.6367" y1="383.487" x2="13.6367" y2="44.5267" gradientUnits="userSpaceOnUse">
<stop offset="0.317708" stop-color="#EFB450"/>
<stop offset="1" stop-color="#D68F67"/>
</linearGradient>
<linearGradient id="paint3_linear_1787_3300" x1="173.364" y1="252.137" x2="173.364" y2="411.689" gradientUnits="userSpaceOnUse">
<stop stop-color="#FFD770"/>
<stop offset="1" stop-color="#FDC76C"/>
</linearGradient>
<linearGradient id="paint4_linear_1787_3300" x1="163.567" y1="132.983" x2="163.567" y2="373.096" gradientUnits="userSpaceOnUse">
<stop stop-color="#D7A75E"/>
<stop offset="1" stop-color="#EFB450"/>
</linearGradient>
<linearGradient id="paint5_linear_1787_3300" x1="165.053" y1="132.983" x2="165.053" y2="373.096" gradientUnits="userSpaceOnUse">
<stop stop-color="#6F1082" stop-opacity="0"/>
<stop offset="1" stop-color="#EDEF73"/>
</linearGradient>
<linearGradient id="paint6_linear_1787_3300" x1="189.064" y1="161.973" x2="150.41" y2="298.747" gradientUnits="userSpaceOnUse">
<stop stop-color="#950F97"/>
<stop offset="1" stop-color="#6F1082" stop-opacity="0"/>
</linearGradient>
<clipPath id="clip0_1787_3300">
<rect width="468" height="380" fill="white"/>
</clipPath>
</defs>
</svg>
