<svg width="375" height="449" viewBox="0 0 375 449" fill="none" xmlns="http://www.w3.org/2000/svg">
<g clip-path="url(#clip0_1281_1548)">
<rect width="375" height="449" fill="white"/>
<rect y="-47" width="375" height="496" fill="#F6F6F6"/>
<g opacity="0.3">
<path d="M362.128 369.525C338.239 418.398 302.634 408.404 302.634 408.404C302.634 413.089 301.697 416.837 298.261 420.897C298.261 420.897 337.926 429.954 362.128 369.525Z" fill="#F87269"/>
</g>
<g opacity="0.3">
<path d="M252.624 394.593L251.061 380.247L265.966 375.508L276.526 385.331L268.406 398.286L252.624 394.593Z" fill="#F87269"/>
<path d="M263.636 421.002C265.79 424.355 267.184 426.236 270.115 429.575C276.015 428.254 279.722 427.742 284.976 423.785C285.473 419.872 285.295 416.964 285.236 412.602L273.208 410.201C269.737 414.515 267.674 416.893 263.636 421.002Z" fill="#F87269"/>
<path d="M292.996 400.896L298.318 401.958C298.602 394.202 297.386 389.579 291.619 380.629L289.064 380.119C288.635 382.919 288.371 384.503 287.583 387.538C290.147 393.053 291.387 396.017 292.996 400.896Z" fill="#F87269"/>
<path d="M267.963 369.388L263.72 366.802C269.26 366.745 272.069 367.55 276.918 369.437C273.124 369.38 271.126 369.362 267.963 369.388Z" fill="#F87269"/>
<path d="M241.601 378.359L242.498 373.866C236.337 378.489 234.021 381.788 231.367 388.593L232.431 388.806C235.941 384.418 237.944 382.109 241.601 378.359Z" fill="#F87269"/>
<path d="M234.332 401.463C233.557 405.679 233.899 408.365 234.016 413.025C236.704 416.566 237.963 417.921 242.757 422.466C245.161 420.905 246.516 420.366 248.947 418.07C246.339 411.862 245.526 408.878 244.765 404.089C240.281 403.391 238.091 402.74 234.332 401.463Z" fill="#F87269"/>
<path d="M297.326 404.702C293.998 421.373 276.555 432.086 258.225 428.427C239.894 424.768 227.902 408.178 231.23 391.507C234.558 374.836 252 364.123 270.331 367.782C288.662 371.442 300.654 388.031 297.326 404.702Z" stroke="#F87269" stroke-width="2"/>
</g>
<path opacity="0.3" d="M303.081 401.958C303.508 397.26 302.696 393.642 300.518 389.608C299.994 388.636 300.959 387.76 301.725 388.556C303.408 390.307 305.082 392.584 305.538 395.034C305.943 397.216 305.455 399.926 304.693 402.449C304.351 403.583 302.974 403.137 303.081 401.958Z" fill="#F87269"/>
<path opacity="0.3" d="M306.802 392.869C306.24 391.062 305.398 389.532 304.192 388.047C303.496 387.19 304.203 386.144 305.088 386.803C306.179 387.616 307.19 388.626 307.759 389.825C308.168 390.686 308.394 391.736 308.497 392.846C308.606 394.026 307.153 394 306.802 392.869Z" fill="#F87269"/>
<ellipse opacity="0.3" cx="231.807" cy="39.5915" rx="31.2712" ry="28.2329" transform="rotate(0.445856 231.807 39.5915)" fill="#B3DDDB"/>
<g opacity="0.3">
<path d="M186.927 32.9738L190.347 23.733L199.587 20.3136L190.347 16.8943L186.927 7.65351L183.508 16.8943L174.267 20.3136L183.508 23.733L186.927 32.9738Z" fill="#F2BE6A"/>
<path d="M247.468 82.4453L248.757 78.9607L252.242 77.6713L248.757 76.3819L247.468 72.8973L246.178 76.3819L242.694 77.6713L246.178 78.9607L247.468 82.4453Z" fill="#F2BE6A"/>
<path d="M265.451 56.4982L263.398 62.7386L257.325 65.2429L263.566 67.2951L266.07 73.3682L268.122 67.1278L274.195 64.6235L267.955 62.5713L265.451 56.4982Z" fill="#F2BE6A"/>
</g>
<path d="M202.94 63.8925C202.56 62.0055 201.389 60.8362 199.503 60.455C196.034 59.7541 191.117 71.233 191.705 71.821C192.162 72.2784 203.636 67.3486 202.94 63.8925Z" fill="#F7CECC"/>
<path d="M196.681 56.3748C198.283 55.9561 199.808 56.1118 201.955 56.9023L209.903 43.6562C202.781 43.3925 196.657 49.4841 194.376 54.4006C193.719 55.8175 195.17 56.7698 196.681 56.3748Z" fill="#F7CECC"/>
<path d="M207.284 66.978C207.703 65.3764 207.547 63.8508 206.757 61.7042L220.003 53.7565C220.266 60.8783 214.175 67.0021 209.258 69.283C207.841 69.9404 206.889 68.4892 207.284 66.978Z" fill="#F7CECC"/>
<path d="M229.689 33.9705C230.558 34.8398 229.4 43.0341 224.204 49.8436C219.782 55.6397 209.895 60.5291 206.434 62.1208C205.694 62.4608 204.832 62.2908 204.257 61.7154L201.944 59.4025C201.368 58.8271 201.198 57.9647 201.538 57.2254C203.13 53.7639 208.019 43.8776 213.816 39.455C220.625 34.2591 228.819 33.1013 229.689 33.9705Z" fill="#F7CECC"/>
<ellipse cx="218.874" cy="44.5181" rx="3.39862" ry="3.021" transform="rotate(45 218.874 44.5181)" fill="#E2EEEE"/>
<path d="M332.681 59.1972C297.362 55.7592 280 -13.8145 347.5 -36.3143C415 -58.8142 389.384 -30.4926 389.384 -30.4926L405.844 139.561C378.464 142.154 358.744 140.815 344.38 115.323C330.017 89.8311 368 62.6352 332.681 59.1972Z" fill="#F2BE6A"/>
<ellipse rx="7.16146" ry="6.77083" transform="matrix(-0.207476 0.97824 0.97824 0.207476 330.443 91.6062)" fill="#F6D3D1"/>
<ellipse opacity="0.3" rx="2.56842" ry="2.2571" transform="matrix(-0.957982 -0.286829 -0.286829 0.957982 221.108 407.899)" fill="#B3DDDB"/>
<ellipse rx="4.55729" ry="4.94792" transform="matrix(-0.207476 0.97824 0.97824 0.207476 330.202 107.691)" fill="#F6D3D1"/>
<ellipse rx="3.64583" ry="3.25521" transform="matrix(-0.207476 0.97824 0.97824 0.207476 334.087 119.209)" fill="#F6D3D1"/>
<path d="M23.1303 31.1541C12.3414 31.1541 11.2253 53 0.06427 53C-40.8519 53 -79.2538 -15.3391 8.79289 -48.8258C43.4732 -62.0157 135.017 -66.5294 168.128 -45.5079C182.009 -36.6952 166.13 23.3226 121.764 23.3226C99.4421 23.3226 102.046 14.2702 82.7006 17.1398C66.7668 19.5034 63.7924 34.9581 47.8107 36.9563C31.829 38.9546 33.9193 31.1541 23.1303 31.1541Z" fill="#F87269"/>
<ellipse opacity="0.3" cx="73.7272" cy="40.335" rx="6.11979" ry="5.85938" transform="rotate(135 73.7272 40.335)" fill="#F2BE6A"/>
<ellipse opacity="0.3" cx="59.7327" cy="47.3327" rx="3.77604" ry="4.03646" transform="rotate(74.8268 59.7327 47.3327)" fill="#F2BE6A"/>
<ellipse opacity="0.3" cx="46.9346" cy="49.6343" rx="2.21354" ry="2.34375" transform="rotate(119.016 46.9346 49.6343)" fill="#F2BE6A"/>
<ellipse opacity="0.3" rx="2.56842" ry="2.2571" transform="matrix(-0.957982 -0.286829 -0.286829 0.957982 138.524 35.2844)" fill="#B3DDDB"/>
<ellipse opacity="0.3" rx="1.54688" ry="2.06752" transform="matrix(0.0527807 0.998606 0.998606 -0.0527807 38.865 49.0357)" fill="#F2BE6A"/>
<path d="M-10 31.074C-10 31.074 15.0109 44.7957 31.942 42.9875C60.1183 39.9784 58.4986 -6.40424 83.6343 -7.93278C106.849 -9.34453 112.981 31.1207 136.546 31.074C171.744 31.0043 198.906 -46 198.906 -46" stroke="#4D4761" stroke-width="0.520833"/>
<path d="M373.51 167.31C373.51 167.31 349.781 145.167 353.312 127.725C355.285 117.982 367.491 116.361 370.329 106.903C375.627 89.2417 349.871 77.347 356.678 60.3772C371.939 22.3336 260.698 68.1855 260.698 -31.8042" stroke="#4D4761" stroke-width="0.520833"/>
<g opacity="0.6">
<mask id="mask0_1281_1548" style="mask-type:alpha" maskUnits="userSpaceOnUse" x="274" y="-9" width="65" height="73">
<rect x="337.01" y="-8.2103" width="1.30208" height="71.3542" fill="white"/>
<rect x="337.01" y="-8.2103" width="1.30208" height="71.3542" fill="white"/>
<rect x="332.844" y="-8.2103" width="1.30208" height="71.3542" fill="white"/>
<rect x="332.844" y="-8.2103" width="1.30208" height="71.3542" fill="white"/>
<rect x="328.677" y="-8.2103" width="1.30208" height="71.3542" fill="white"/>
<rect x="328.677" y="-8.2103" width="1.30208" height="71.3542" fill="white"/>
<rect x="324.51" y="-8.2103" width="1.30208" height="71.3542" fill="white"/>
<rect x="324.51" y="-8.2103" width="1.30208" height="71.3542" fill="white"/>
<rect x="320.344" y="-8.2103" width="1.30208" height="71.3542" fill="white"/>
<rect x="320.344" y="-8.2103" width="1.30208" height="71.3542" fill="white"/>
<rect x="316.177" y="-8.2103" width="1.30208" height="71.3542" fill="white"/>
<rect x="316.177" y="-8.2103" width="1.30208" height="71.3542" fill="white"/>
<rect x="312.01" y="-8.2103" width="1.30208" height="71.3542" fill="white"/>
<rect x="312.01" y="-8.2103" width="1.30208" height="71.3542" fill="white"/>
<rect x="307.844" y="-8.2103" width="1.30208" height="71.3542" fill="white"/>
<rect x="307.844" y="-8.2103" width="1.30208" height="71.3542" fill="white"/>
<rect x="303.677" y="-8.2103" width="1.30208" height="71.3542" fill="white"/>
<rect x="303.677" y="-8.2103" width="1.30208" height="71.3542" fill="white"/>
<rect x="299.51" y="-8.2103" width="1.30208" height="71.3542" fill="white"/>
<rect x="299.51" y="-8.2103" width="1.30208" height="71.3542" fill="white"/>
<rect x="295.344" y="-8.2103" width="1.30208" height="71.3542" fill="white"/>
<rect x="295.344" y="-8.2103" width="1.30208" height="71.3542" fill="white"/>
<rect x="291.177" y="-8.2103" width="1.30208" height="71.3542" fill="white"/>
<rect x="291.177" y="-8.2103" width="1.30208" height="71.3542" fill="white"/>
<rect x="287.01" y="-8.2103" width="1.30208" height="71.3542" fill="white"/>
<rect x="287.01" y="-8.2103" width="1.30208" height="71.3542" fill="white"/>
<rect x="282.844" y="-8.2103" width="1.30208" height="71.3542" fill="white"/>
<rect x="282.844" y="-8.2103" width="1.30208" height="71.3542" fill="white"/>
<rect x="278.677" y="-8.2103" width="1.30208" height="71.3542" fill="white"/>
<rect x="278.677" y="-8.2103" width="1.30208" height="71.3542" fill="white"/>
<rect x="274.51" y="-8.21045" width="1.30208" height="71.3542" fill="white"/>
<rect x="274.51" y="-8.21045" width="1.30208" height="71.3542" fill="white"/>
</mask>
<g mask="url(#mask0_1281_1548)">
<circle cx="306.672" cy="27.3366" r="33.2031" fill="white"/>
<circle cx="306.672" cy="27.3366" r="33.2031" fill="white"/>
</g>
</g>
<path d="M81.6337 404.052C67.934 404.052 60.203 417.454 48.3832 410.825C22.6561 396.395 38.2811 359.937 4.83387 354.562C-31.4028 348.74 -24.8835 388.994 -26.9454 410.825C-30.2491 445.804 -61.1434 480.127 -29.0051 500.688C-10.6705 512.418 5.76516 507.045 28.374 507.721C69.2908 508.943 131.951 498.395 131.951 498.395C131.951 498.395 172.558 488.497 175.206 472.347C177.04 461.161 170.792 448.644 158.139 452.031C134.313 458.407 103.172 480.907 96.0521 459.794C91.6815 446.833 109.882 443.384 109.882 430.36C109.882 416.79 94.875 404.052 81.6337 404.052Z" fill="#B3DDDB"/>
<g opacity="0.6">
<mask id="mask1_1281_1548" style="mask-type:alpha" maskUnits="userSpaceOnUse" x="74" y="405" width="64" height="72">
<rect x="136.5" y="405" width="1.30208" height="71.3542" fill="white"/>
<rect x="136.5" y="405" width="1.30208" height="71.3542" fill="white"/>
<rect x="132.333" y="405" width="1.30208" height="71.3542" fill="white"/>
<rect x="132.333" y="405" width="1.30208" height="71.3542" fill="white"/>
<rect x="128.167" y="405" width="1.30208" height="71.3542" fill="white"/>
<rect x="128.167" y="405" width="1.30208" height="71.3542" fill="white"/>
<rect x="124" y="405" width="1.30208" height="71.3542" fill="white"/>
<rect x="124" y="405" width="1.30208" height="71.3542" fill="white"/>
<rect x="119.833" y="405" width="1.30208" height="71.3542" fill="white"/>
<rect x="119.833" y="405" width="1.30208" height="71.3542" fill="white"/>
<rect x="115.667" y="405" width="1.30208" height="71.3542" fill="white"/>
<rect x="115.667" y="405" width="1.30208" height="71.3542" fill="white"/>
<rect x="111.5" y="405" width="1.30208" height="71.3542" fill="white"/>
<rect x="111.5" y="405" width="1.30208" height="71.3542" fill="white"/>
<rect x="107.333" y="405" width="1.30208" height="71.3542" fill="white"/>
<rect x="107.333" y="405" width="1.30208" height="71.3542" fill="white"/>
<rect x="103.167" y="405" width="1.30208" height="71.3542" fill="white"/>
<rect x="103.167" y="405" width="1.30208" height="71.3542" fill="white"/>
<rect x="99" y="405" width="1.30208" height="71.3542" fill="white"/>
<rect x="99" y="405" width="1.30208" height="71.3542" fill="white"/>
<rect x="94.8334" y="405" width="1.30208" height="71.3542" fill="white"/>
<rect x="94.8334" y="405" width="1.30208" height="71.3542" fill="white"/>
<rect x="90.6667" y="405" width="1.30208" height="71.3542" fill="white"/>
<rect x="90.6667" y="405" width="1.30208" height="71.3542" fill="white"/>
<rect x="86.5" y="405" width="1.30208" height="71.3542" fill="white"/>
<rect x="86.5" y="405" width="1.30208" height="71.3542" fill="white"/>
<rect x="82.3334" y="405" width="1.30208" height="71.3542" fill="white"/>
<rect x="82.3334" y="405" width="1.30208" height="71.3542" fill="white"/>
<rect x="78.1667" y="405" width="1.30208" height="71.3542" fill="white"/>
<rect x="78.1667" y="405" width="1.30208" height="71.3542" fill="white"/>
<rect x="74" y="405" width="1.30208" height="71.3542" fill="white"/>
<rect x="74" y="405" width="1.30208" height="71.3542" fill="white"/>
</mask>
<g mask="url(#mask1_1281_1548)">
<circle cx="106.161" cy="440.547" r="33.2031" fill="white"/>
<circle cx="106.161" cy="440.547" r="33.2031" fill="white"/>
</g>
</g>
<ellipse opacity="0.3" rx="4.55729" ry="4.16667" transform="matrix(-1 0 0 1 50.1302 376.343)" fill="#B3DDDB"/>
<ellipse opacity="0.3" rx="2.56842" ry="2.2571" transform="matrix(-0.957982 -0.286829 -0.286829 0.957982 101.285 401.638)" fill="#F87269"/>
<path d="M-5 347.051C-5 347.051 12.253 346.072 20.3597 352.667C33.8717 363.661 15.7771 385.112 26.4588 399.35C38.8195 415.826 56.6209 405.037 74.9311 412.337C91.9451 419.121 98.5585 438.971 116.662 438.452C130.929 438.043 136.14 417.784 150.368 419.006C168.546 420.567 186 452 186 452" stroke="#4D4761" stroke-width="0.520833"/>
<g opacity="0.3">
<ellipse cx="24.6908" cy="439.752" rx="2.15794" ry="1.31975" transform="rotate(27.6882 24.6908 439.752)" fill="#F87269"/>
<ellipse cx="16.1469" cy="432.039" rx="2.5176" ry="1.53971" transform="rotate(27.6882 16.1469 432.039)" fill="#F87269"/>
<ellipse cx="23.251" cy="428.563" rx="2.15794" ry="1.31975" transform="rotate(27.6882 23.251 428.563)" fill="#F87269"/>
<ellipse cx="-1.14548" cy="417.003" rx="1.79828" ry="1.09979" transform="rotate(27.6882 -1.14548 417.003)" fill="#F87269"/>
<ellipse cx="4.2731" cy="426.802" rx="1.79828" ry="1.09979" transform="rotate(27.6882 4.2731 426.802)" fill="#F87269"/>
<ellipse cx="13.5133" cy="438.606" rx="2.5176" ry="1.53971" transform="rotate(27.6882 13.5133 438.606)" fill="#F87269"/>
<ellipse cx="11.786" cy="422.547" rx="2.15794" ry="1.31975" transform="rotate(27.6882 11.786 422.547)" fill="#F87269"/>
<ellipse cx="0.972645" cy="404.452" rx="2.15794" ry="1.31975" transform="rotate(27.6882 0.972645 404.452)" fill="#F87269"/>
<ellipse cx="1.01427" cy="433.786" rx="2.15794" ry="1.31975" transform="rotate(27.6882 1.01427 433.786)" fill="#F87269"/>
<ellipse cx="1.70446" cy="410.798" rx="2.15794" ry="1.31975" transform="rotate(27.6882 1.70446 410.798)" fill="#F87269"/>
<ellipse cx="13.3383" cy="414.171" rx="2.5176" ry="1.53971" transform="rotate(27.6882 13.3383 414.171)" fill="#F87269"/>
<ellipse cx="9.39814" cy="404.651" rx="2.5176" ry="1.53971" transform="rotate(27.6882 9.39814 404.651)" fill="#F87269"/>
<ellipse cx="23.1828" cy="410.891" rx="1.79828" ry="1.09979" transform="rotate(27.6882 23.1828 410.891)" fill="#F87269"/>
<ellipse cx="32.1712" cy="420.078" rx="1.79828" ry="1.09979" transform="rotate(27.6882 32.1712 420.078)" fill="#F87269"/>
<ellipse cx="34.1887" cy="427.844" rx="2.15794" ry="1.31975" transform="rotate(27.6882 34.1887 427.844)" fill="#F87269"/>
<ellipse cx="21.2217" cy="420.046" rx="2.15794" ry="1.31975" transform="rotate(27.6882 21.2217 420.046)" fill="#F87269"/>
<ellipse cx="30.9536" cy="436.331" rx="1.79828" ry="1.09979" transform="rotate(27.6882 30.9536 436.331)" fill="#F87269"/>
</g>
<ellipse opacity="0.3" cx="328.647" cy="360.203" rx="7.42133" ry="6.85063" transform="rotate(11.5996 328.647 360.203)" fill="#F2BE6A"/>
<ellipse opacity="0.3" cx="207" cy="430.5" rx="4" ry="3.5" fill="#B3DDDB"/>
<path opacity="0.3" d="M66.7915 87.0381C65.5186 80.6673 63.5061 69.8796 62.3442 60L97.2421 60C97.7227 64.8193 99.0655 79.817 100.241 92.0741C100.871 98.6511 99.653 103.434 92.8963 104.032C88.5157 104.032 84.9645 100.686 84.9645 96.5584C84.9645 92.4307 88.5157 89.0846 92.8963 89.0846C94.1119 89.0846 95.2635 89.3422 96.2932 89.8027L92.6026 69.3537H67.9563L70.276 89.8027C71.4198 98.5924 66.1633 101.043 62.9318 101.043C58.5512 101.043 55 97.6966 55 93.5689C55 89.4412 58.5512 86.0951 62.9318 86.0951C64.3329 86.0951 65.6492 86.4374 66.7915 87.0381Z" fill="#B3DDDB"/>
<path opacity="0.3" d="M30.4102 154.679L13.1973 115.696L40.4733 111L45.1491 123.915L25.2767 121.958C29.07 134.531 38.8435 156.305 38.0487 164.253C37.457 170.17 31.9557 175.495 24.4396 175.495C17.6351 175.495 12.0139 170.727 12.0139 164.845C11.7181 159.224 16.1558 152.419 23.2562 152.419C26.8064 152.419 28.8774 153.602 30.4102 154.679Z" fill="#F2BE6A"/>
</g>
<defs>
<clipPath id="clip0_1281_1548">
<rect width="375" height="449" fill="white"/>
</clipPath>
</defs>
</svg>
