<svg width="132" height="98" viewBox="0 0 132 98" fill="none" xmlns="http://www.w3.org/2000/svg">
<path d="M29.3579 60.4151L29.5059 62.6353H30.7138L30.5627 60.3692C30.5506 60.1879 30.4 60.0471 30.2184 60.0471H29.7022C29.5026 60.0471 29.3446 60.2159 29.3579 60.4151Z" fill="#4F828E"/>
<path d="M110.604 39.1686H111.984L111.233 37.6656C111.166 37.5328 111.022 37.4573 110.875 37.4783L110.366 37.5511C110.139 37.5835 110.006 37.8236 110.099 38.0329L110.604 39.1686Z" fill="#4F828E"/>
<path d="M11.6499 97.1246L58.4941 86.3343L35.6698 83.1686L0.930499 92.9154C0.618274 93.003 0.58831 93.4339 0.885402 93.5638L2.76078 94.3843L3.27843 96.1098L6.03922 97.1451L8.1098 96.1098L11.4732 97.1188C11.5306 97.1361 11.5915 97.138 11.6499 97.1246Z" fill="url(#paint0_linear_1756_4271)"/>
<path d="M3.27845 96.1098L2.93335 94.3843L8.10982 92.3378L5.69413 91.6235L8.45492 90.7608L14.6667 91.2784L49.6941 88.3451L20.3608 95.0745L9.83531 93.3862L3.27845 96.1098Z" fill="#3F6E79" fill-opacity="0.3"/>
<path d="M1.36895 78.6705L0.862793 93.349C1.52512 93.6843 1.86824 93.7053 2.41573 93.349L2.75272 78.6903C2.75717 78.4967 2.60141 78.3373 2.40771 78.3373H1.71384C1.52788 78.3373 1.37536 78.4846 1.36895 78.6705Z" fill="#4F828E"/>
<path d="M1.36895 78.6705L0.862793 93.349C1.52512 93.6843 1.86824 93.7053 2.41573 93.349L2.75272 78.6903C2.75717 78.4967 2.60141 78.3373 2.40771 78.3373H1.71384C1.52788 78.3373 1.37536 78.4846 1.36895 78.6705Z" fill="url(#paint1_linear_1756_4271)"/>
<path d="M123.55 37.7882H122.397C122.103 37.7882 121.944 38.1341 122.135 38.3579L127.859 45.0353H129.412L123.821 37.9201C123.756 37.8369 123.656 37.7882 123.55 37.7882Z" fill="url(#paint2_linear_1756_4271)"/>
<path d="M132 53.8353L130.274 44.5177L119.231 45.9153V51.7647L132 53.8353Z" fill="#436E77"/>
<path d="M70.8723 93.1862L48.3566 85.7269L70.4269 84.5841L93.0337 80.9808L93.3649 87.3772L70.8723 93.1862Z" fill="url(#paint3_linear_1756_4271)"/>
<path d="M70.8722 93.1862L70.4268 84.5841L48.3565 85.7269L70.8722 93.1862Z" fill="#4F828E"/>
<path d="M70.8722 93.1862L70.4268 84.5841L48.3565 85.7269L70.8722 93.1862Z" fill="#4F828E"/>
<path d="M61.9451 90.0706L70.9176 86.102L54.0078 87.3098L61.9451 90.0706Z" fill="#47737C"/>
<path d="M31.2948 69.4722L1.89801 89.2729L11.6969 91.451L126.255 80.1646L127.859 43.5333L114.497 43.1373L31.2948 69.4722Z" fill="#D6CDE5"/>
<path d="M31.2948 69.4722L1.89801 89.2729L11.6969 91.451L126.255 80.1646L127.859 43.5333L114.497 43.1373L31.2948 69.4722Z" fill="url(#paint4_linear_1756_4271)"/>
<path d="M31.2948 69.4722L1.89801 89.2729L11.6969 91.451L126.255 80.1646L127.859 43.5333L114.497 43.1373L31.2948 69.4722Z" stroke="#FFFFFE" stroke-width="0.345098"/>
<path d="M31.0532 67.6845L1.89801 86.9195L11.6164 89.0353L125.233 78.0714L126.824 42.4867L113.571 42.102L31.0532 67.6845Z" fill="#D6CDE5"/>
<path d="M31.0532 67.6845L1.89801 86.9195L11.6164 89.0353L125.233 78.0714L126.824 42.4867L113.571 42.102L31.0532 67.6845Z" fill="url(#paint5_linear_1756_4271)"/>
<path d="M31.0532 67.6845L1.89801 86.9195L11.6164 89.0353L125.233 78.0714L126.824 42.4867L113.571 42.102L31.0532 67.6845Z" stroke="#FFFFFE" stroke-width="0.345098"/>
<path d="M30.8116 65.7086L1.89801 84.2364L11.5359 86.2745L124.211 75.7137L125.788 41.4372L112.646 41.0667L30.8116 65.7086Z" fill="#D6CDE5"/>
<path d="M30.8116 65.7086L1.89801 84.2364L11.5359 86.2745L124.211 75.7137L125.788 41.4372L112.646 41.0667L30.8116 65.7086Z" fill="url(#paint6_linear_1756_4271)"/>
<path d="M30.8116 65.7086L1.89801 84.2364L11.5359 86.2745L124.211 75.7137L125.788 41.4372L112.646 41.0667L30.8116 65.7086Z" stroke="#FFFFFE" stroke-width="0.345098"/>
<path d="M30.5699 63.5758L1.89801 81.5379L11.4553 83.5137L123.189 73.2754L124.753 40.0455L111.72 39.6863L30.5699 63.5758Z" fill="#D6CDE5"/>
<path d="M30.5699 63.5758L1.89801 81.5379L11.4553 83.5137L123.189 73.2754L124.753 40.0455L111.72 39.6863L30.5699 63.5758Z" fill="url(#paint7_linear_1756_4271)"/>
<path d="M30.5699 63.5758L1.89801 81.5379L11.4553 83.5137L123.189 73.2754L124.753 40.0455L111.72 39.6863L30.5699 63.5758Z" stroke="#FFFFFE" stroke-width="0.345098"/>
<path d="M30.1961 61.6L1.72546 78.8549L11.2157 80.7529L122.165 70.9177L123.718 38.9961L110.776 38.651L30.1961 61.6Z" fill="#EEF3FA"/>
<path d="M30.1961 61.6L1.72546 78.8549L11.2157 80.7529L122.165 70.9177L123.718 38.9961L110.776 38.651L30.1961 61.6Z" fill="url(#paint8_linear_1756_4271)"/>
<path d="M30.1961 61.6L1.72546 78.8549L11.2157 80.7529L122.165 70.9177L123.718 38.9961L110.776 38.651L30.1961 61.6Z" stroke="#FFFFFE" stroke-width="0.345098"/>
<path d="M118.066 40.9904C113.686 44.6056 110.355 49.067 109.409 53.8746C108.405 58.977 110.117 64.3065 115.744 69.2289C82.9343 67.221 56.8428 69.5707 12.7084 79.1595C11.711 78.6022 10.7644 78.2352 9.59186 78.0025C16.3123 76.3849 22.5346 73.7464 26.9393 70.9848C29.6846 69.2635 31.799 67.4481 32.8538 65.743C33.384 64.8857 33.6875 63.9897 33.5919 63.1125C33.5435 62.6685 33.3963 62.2593 33.1596 61.8883C33.8867 61.7651 34.6077 61.6431 35.3227 61.522C65.1302 56.4758 84.6159 53.177 110.872 40.5785C113.043 40.9759 115.155 41.2134 118.066 40.9904Z" stroke="#D3C8E3" stroke-width="1.38039"/>
<path d="M109.55 46.7758C106.49 49.2438 104.143 52.3248 103.488 55.6573C102.819 59.0616 103.936 62.6098 107.599 65.8904C84.9766 64.0679 61.9975 66.6426 28.9249 73.6076C28.7454 73.275 28.5284 72.9742 28.1313 72.8127C31.6216 71.1816 33.8007 69.5743 35.137 68.0445C36.5541 66.4219 37.0074 64.9039 37.0852 63.5922C58.3927 59.9679 87.4344 54.6671 105.711 45.9014C105.926 45.9137 106.178 45.9604 106.481 46.0357C106.715 46.094 106.958 46.1633 107.226 46.2395C107.37 46.2807 107.522 46.324 107.684 46.3687C108.234 46.5211 108.857 46.6776 109.55 46.7758Z" fill="#EFEAF8" stroke="#D3C8E3" stroke-width="1.03529"/>
<path d="M128.894 86.2745L121.28 70.7073C121.197 70.5372 121.266 70.3317 121.435 70.247L122.207 69.8613C122.375 69.7772 122.58 69.8433 122.667 70.01L130.275 84.549L128.894 86.2745Z" fill="#4F828E"/>
<path d="M10.8564 80.7381L10.1804 96.4549L11.9059 96.2824L12.9172 80.7754C12.9302 80.5764 12.7723 80.4078 12.5729 80.4078H11.2012C11.0164 80.4078 10.8644 80.5535 10.8564 80.7381Z" fill="url(#paint9_linear_1756_4271)"/>
<path d="M11.198 80.9068L10.353 96.4549C11.0309 96.9035 11.4011 96.928 12.0785 96.4549L12.9215 80.9442C12.9322 80.7466 12.7749 80.5804 12.5769 80.5804H11.5426C11.3593 80.5804 11.208 80.7237 11.198 80.9068Z" fill="url(#paint10_linear_1756_4271)"/>
<g style="mix-blend-mode:multiply" filter="url(#filter0_f_1756_4271)">
<ellipse cx="74.1488" cy="64.8881" rx="31.9216" ry="7.41961" transform="rotate(-6.6248 74.1488 64.8881)" fill="#E8E7F3"/>
</g>
<ellipse cx="71.4353" cy="64.1882" rx="14.6667" ry="5.17647" fill="url(#paint11_linear_1756_4271)"/>
<ellipse cx="73.3334" cy="61.9451" rx="6.55686" ry="2.93333" fill="url(#paint12_linear_1756_4271)"/>
<path d="M81.7964 3.96863H72.4072C70.3948 3.96863 68.8093 5.68359 68.9669 7.68985L72.911 57.9016C73.052 59.6972 74.5503 61.0824 76.3514 61.0824H83.4799C84.6593 61.0824 85.7571 60.48 86.3907 59.4851L93.8442 47.7815C94.197 47.2276 94.3844 46.5845 94.3844 45.9278V21.7146C94.3844 21.0559 94.1959 20.411 93.8411 19.856L84.7042 5.56105C84.07 4.56895 82.9739 3.96863 81.7964 3.96863Z" fill="#213C43"/>
<path fill-rule="evenodd" clip-rule="evenodd" d="M63.1531 64.0157L61.0825 57.9765L55.906 57.6314L53.4903 51.4196L47.6236 50.5569L45.8982 45.0353L48.4864 39.3412L45.8982 33.4745L48.4864 27.6078L45.3805 21.9137L47.9687 15.5294H53.4903L55.5609 9.31765H61.0825L63.1531 2.76078H68.5021L71.7805 8.62745H76.957L80.0629 14.8392H85.2393L88.3452 21.2235L85.9295 28.1255L88.8629 34.3373L85.9295 40.8941L88.3452 47.2784L85.2393 53.8353L80.0629 53.3176L76.957 59.1843H71.7805L68.5021 64.7059L63.1531 64.0157ZM73.352 61.9451L69.9492 67.6763L61.098 66.5342L59.0665 60.609L53.9696 60.2692L51.4994 53.9173L45.5059 53.0359L42.9486 44.8526L45.4614 39.3243L42.8806 33.4745L45.412 27.7368L42.3308 22.088L46.1089 12.7686H51.5005L53.571 6.55686H59.0591L61.1297 0H70.1219L73.4003 5.86667H78.6632L81.7691 12.0784H86.9664L91.3309 21.05L88.9091 27.9697L91.9013 34.3061L88.9146 40.9821L91.3428 47.3994L86.9012 56.776L81.6346 56.2494L78.6192 61.9451H73.352Z" fill="url(#paint13_linear_1756_4271)"/>
<path d="M63.153 64.0157L61.0824 57.9765L55.9059 57.6314L53.4902 51.4196L47.6236 50.5569L45.8981 45.0353L48.4863 39.3412L45.8981 33.4745L48.4863 27.6079L45.3804 21.9137L47.9687 15.5294H53.4902L55.5608 9.31766H61.0824L63.153 2.7608H68.502L71.7804 8.62746H76.9569L80.0628 14.8392H85.2393L88.3451 21.2235L85.9295 28.1255L88.8628 34.3373L85.9295 40.8941L88.3451 47.2784L85.2393 53.8353L80.0628 53.3177L76.9569 59.1843H71.7804L68.502 64.7059L63.153 64.0157Z" fill="url(#paint14_linear_1756_4271)"/>
<path d="M63.153 64.0157L61.0824 57.9765L55.9059 57.6314L53.4902 51.4196L47.6236 50.5569L45.8981 45.0353L48.4863 39.3412L45.8981 33.4745L48.4863 27.6079L45.3804 21.9137L47.9687 15.5294H53.4902L55.5608 9.31766H61.0824L63.153 2.7608H68.502L71.7804 8.62746H76.9569L80.0628 14.8392H85.2393L88.3451 21.2235L85.9295 28.1255L88.8628 34.3373L85.9295 40.8941L88.3451 47.2784L85.2393 53.8353L80.0628 53.3177L76.9569 59.1843H71.7804L68.502 64.7059L63.153 64.0157Z" fill="url(#paint15_linear_1756_4271)"/>
<path d="M61.0824 57.9765L63.153 64.0157L68.502 64.7059L71.7804 59.1843M61.0824 57.9765L55.9059 57.6314L53.4902 51.4196M61.0824 57.9765L64.1883 52.2824M71.7804 59.1843H76.9569L80.0628 53.3177M71.7804 59.1843L69.5373 52.2824M80.0628 53.3177L85.2393 53.8353L88.3451 47.2784L85.9294 40.8941M80.0628 53.3177L77.9922 46.7608M85.9294 40.8941L88.8628 34.3373L85.9294 28.1255M85.9294 40.8941H80.9255M85.9294 28.1255L88.3451 21.2235L85.2393 14.8392H80.0628M85.9294 28.1255H80.9255M80.0628 14.8392L76.9569 8.62746H71.7804M80.0628 14.8392L77.9922 21.2235M71.7804 8.62746L68.502 2.7608H63.153L61.0824 9.31766M71.7804 8.62746L69.5373 15.5294M61.0824 9.31766H55.5608L53.4902 15.5294M61.0824 9.31766L64.1883 15.5294M53.4902 15.5294H47.9687L45.3804 21.9137L48.4863 27.6079M53.4902 15.5294L56.7687 21.9137M48.4863 27.6079L45.8981 33.4745L48.4863 39.3412M48.4863 27.6079H54.1804M48.4863 39.3412L45.8981 45.0353L47.6236 50.5569L53.4902 51.4196M48.4863 39.3412H54.1804M53.4902 51.4196L56.7687 45.7255M64.1883 15.5294H69.5373M64.1883 15.5294L62.1177 21.9137M69.5373 15.5294L72.8157 21.2235M72.8157 21.2235H77.9922M72.8157 21.2235L70.2275 27.6079M77.9922 21.2235L80.9255 28.1255M80.9255 28.1255L78.3373 34.1647M78.3373 34.1647L80.9255 40.8941M78.3373 34.1647H72.8157M80.9255 40.8941L77.9922 46.7608M77.9922 46.7608H72.8157M72.8157 46.7608L69.5373 52.2824M72.8157 46.7608L70.2275 40.0314M69.5373 52.2824H64.1883M64.1883 52.2824L62.1177 46.0706M62.1177 46.0706L56.7687 45.7255M62.1177 46.0706L65.2236 39.8588M56.7687 45.7255L54.1804 39.3412M54.1804 39.3412L57.1138 33.8196M57.1138 33.8196L54.1804 27.6079M57.1138 33.8196H63.153M54.1804 27.6079L56.7687 21.9137M56.7687 21.9137H62.1177M62.1177 21.9137L64.8785 27.6079M64.8785 27.6079H70.2275M64.8785 27.6079L63.153 33.8196M70.2275 27.6079L72.8157 34.1647M72.8157 34.1647L70.2275 40.0314M70.2275 40.0314L65.2236 39.8588M65.2236 39.8588L63.153 33.8196" stroke="url(#paint16_linear_1756_4271)" stroke-width="0.345098"/>
<g style="mix-blend-mode:screen" opacity="0.8">
<path d="M63.153 64.0157L61.0824 57.9765L55.9059 57.6314L53.4902 51.4196L47.6236 50.5569L45.8981 45.0353L48.4863 39.3412L45.8981 33.4745L48.4863 27.6079L45.3804 21.9137L47.9687 15.5294H53.4902L55.5608 9.31766H61.0824L63.153 2.7608H68.502L71.7804 8.62746H76.9569L80.0628 14.8392H85.2393L88.3451 21.2235L85.9295 28.1255L88.8628 34.3373L85.9295 40.8941L88.3451 47.2784L85.2393 53.8353L80.0628 53.3177L76.9569 59.1843H71.7804L68.502 64.7059L63.153 64.0157Z" fill="url(#paint17_linear_1756_4271)"/>
</g>
<path d="M70.2274 27.6078H64.8784L63.1529 33.8196L65.2235 39.8588L70.2274 40.0314L72.8156 34.1647L70.2274 27.6078Z" fill="#3AA8C4" stroke="url(#paint18_linear_1756_4271)" stroke-width="0.345098"/>
<path d="M70.2274 27.6078H64.8784L63.1529 33.8196L65.2235 39.8588L70.2274 40.0314L72.8156 34.1647L70.2274 27.6078Z" fill="#4F828D" stroke="url(#paint19_linear_1756_4271)" stroke-width="0.345098"/>
<g style="mix-blend-mode:multiply" opacity="0.3">
<path d="M70.8702 29.9756C69.7902 32.8605 70.0535 34.5034 70.8702 37.3837L81.0686 35.9726L81.2952 31.2103L70.8702 29.9756Z" fill="#3E6068"/>
</g>
<path d="M55.1714 57.2013C53.6725 56.5038 13.2774 36.3267 13.2774 36.3267L13.4138 38.315C13.4138 38.315 53.5181 59.1909 54.6265 59.835C55.7348 60.4791 56.6704 57.8988 55.1714 57.2013Z" fill="url(#paint20_linear_1756_4271)"/>
<path d="M13.5697 36.4726C17.2132 38.2924 53.7475 56.5386 55.1716 57.2013C54.4183 56.8507 43.8289 51.9521 33.5461 46.8223C28.403 44.2566 23.3068 41.7126 19.4963 39.8101C17.3594 38.7432 15.2485 37.7703 13.2777 36.3267L13.5697 36.4726Z" fill="#B4D2D9"/>
<path d="M64.5333 0.51765C62.8079 1.55295 15.1843 28.6431 15.1843 28.6431L16.9098 29.6784C16.9098 29.6784 64.8784 3.27844 66.2588 2.58824C67.6392 1.89803 66.2588 -0.517654 64.5333 0.51765Z" fill="url(#paint21_linear_1756_4271)"/>
<path d="M64.5333 0.86275C62.8079 1.89805 15.1843 28.9882 15.1843 28.9882L16.9098 30.0235C16.9098 30.0235 64.8784 3.62354 66.2588 2.93334C67.6392 2.24313 66.2588 -0.172554 64.5333 0.86275Z" fill="url(#paint22_linear_1756_4271)"/>
<path d="M75.479 61.6808C73.3992 60.8464 16.1663 39.2924 16.1663 39.2924L18.0073 38.0688C18.0073 38.0688 75.5525 58.8979 77.2005 59.4282C78.8485 59.9585 77.5589 62.5152 75.479 61.6808Z" fill="url(#paint23_linear_1756_4271)"/>
<path d="M17.4972 37.812C22.6711 39.7245 74.5504 58.9024 76.5312 59.6831C75.4833 59.2701 60.7793 53.4461 46.1824 48.0445C38.8816 45.3428 31.6459 42.6667 26.2355 40.6661C23.2014 39.5442 20.2732 38.3808 17.0824 37.6587L17.4972 37.812Z" fill="#B4D2D9"/>
<path d="M70.2274 29.8625C71.0442 32.7428 71.3074 34.3857 70.2274 37.2706L59.8024 36.0359L56.5961 35.3772V31.0635L65.0149 29.3333C67.3506 29.1709 68.3681 29.4395 70.2274 29.8625Z" fill="url(#paint24_linear_1756_4271)"/>
<path d="M56.5961 35.3772L59.8024 36.0359L60.029 31.2735L56.5961 31.0635V35.3772Z" fill="#5E99A7"/>
<path d="M70.2274 37.2706C71.3074 34.3857 71.0441 32.7428 70.2274 29.8625L60.029 31.2736L59.8024 36.0359L70.2274 37.2706Z" fill="#3F6E79"/>
<path d="M70.2274 29.8625C68.3681 29.4395 67.3506 29.1709 65.0149 29.3333L56.5961 31.0635L60.029 31.2736L70.2274 29.8625Z" fill="#B4D2D9"/>
<path fill-rule="evenodd" clip-rule="evenodd" d="M65.0384 29.5047L56.5961 31.0588L60.0471 31.2314L70.1128 29.8154C68.7855 29.5225 66.9282 29.3741 65.0384 29.5047ZM70.1128 29.8154L60.1946 31.4248L59.702 36.0627L70.1128 37.0833C70.6116 35.7172 70.7974 34.641 70.7662 33.5698C70.7351 32.499 70.4976 31.1851 70.1128 29.8154ZM59.702 36.0627L59.8486 31.4354L56.5961 31.0588L56.7686 35.2365L59.702 36.0627ZM69.9965 29.6328C70.0844 29.6529 70.1741 29.6734 70.2657 29.6942L70.3655 29.7169L70.3935 29.8154C70.8021 31.2566 71.0776 32.4053 71.1112 33.5598C71.1449 34.7185 70.9349 35.8729 70.389 37.3311L70.3416 37.4579L59.702 36.0627L56.5961 35.3726L56.4235 30.9228L64.9915 29.162L65.0029 29.1612C67.2489 29.005 68.2979 29.2447 69.9965 29.6328Z" fill="url(#paint25_linear_1756_4271)"/>
<path d="M18.2902 34.8549C18.2902 36.5438 17.8715 38.0645 17.2036 39.1573C16.534 40.2531 15.632 40.8941 14.6666 40.8941C13.7012 40.8941 12.7993 40.2531 12.1296 39.1573C11.4618 38.0645 11.0431 36.5438 11.0431 34.8549C11.0431 33.166 11.4618 31.6453 12.1296 30.5525C12.7993 29.4567 13.7012 28.8157 14.6666 28.8157C15.632 28.8157 16.534 29.4567 17.2036 30.5525C17.8715 31.6453 18.2902 33.166 18.2902 34.8549Z" fill="url(#paint26_linear_1756_4271)" stroke="url(#paint27_linear_1756_4271)" stroke-width="0.345098"/>
<path d="M17.2549 34.8549C17.2549 36.3493 16.8382 37.6946 16.1735 38.6615C15.5082 39.6292 14.6065 40.2039 13.6314 40.2039C12.6563 40.2039 11.7547 39.6292 11.0894 38.6615C10.4246 37.6946 10.0079 36.3493 10.0079 34.8549C10.0079 33.3606 10.4246 32.0153 11.0894 31.0483C11.7547 30.0806 12.6563 29.5059 13.6314 29.5059C14.6065 29.5059 15.5082 30.0806 16.1735 31.0483C16.8382 32.0153 17.2549 33.3606 17.2549 34.8549Z" fill="#5E99A7" stroke="url(#paint28_linear_1756_4271)" stroke-width="0.345098"/>
<ellipse cx="13.2863" cy="35.0275" rx="3.10588" ry="4.65882" fill="url(#paint29_linear_1756_4271)"/>
<ellipse cx="13.1003" cy="32.9363" rx="1.63709" ry="2.23534" transform="rotate(14.1466 13.1003 32.9363)" fill="url(#paint30_linear_1756_4271)"/>
<path d="M127.219 88.3326L130.275 84.549L128.722 81.6157L124.823 85.5138C124.584 85.7533 124.554 86.1313 124.752 86.4059L126.122 88.303C126.388 88.6719 126.933 88.6865 127.219 88.3326Z" fill="#4F828E"/>
<path d="M127.166 87.5925L129.067 85.0667L127.341 83.1686L125.166 85.3436C124.928 85.5821 124.897 85.958 125.092 86.2326L126.053 87.5785C126.324 87.9582 126.886 87.9653 127.166 87.5925Z" fill="url(#paint31_linear_1756_4271)"/>
<ellipse cx="122.23" cy="71.5014" rx="0.263562" ry="1.11454" transform="rotate(-28.4106 122.23 71.5014)" fill="url(#paint32_linear_1756_4271)"/>
<defs>
<filter id="filter0_f_1756_4271" x="41.0482" y="55.2669" width="66.2012" height="19.2423" filterUnits="userSpaceOnUse" color-interpolation-filters="sRGB">
<feFlood flood-opacity="0" result="BackgroundImageFix"/>
<feBlend mode="normal" in="SourceGraphic" in2="BackgroundImageFix" result="shape"/>
<feGaussianBlur stdDeviation="0.690196" result="effect1_foregroundBlur_1756_4271"/>
</filter>
<linearGradient id="paint0_linear_1756_4271" x1="51.9373" y1="87.1373" x2="2.58824" y2="93.6941" gradientUnits="userSpaceOnUse">
<stop stop-color="#3F6E79"/>
<stop offset="1" stop-color="#709EA9"/>
</linearGradient>
<linearGradient id="paint1_linear_1756_4271" x1="0.862796" y1="79.7177" x2="3.96868" y2="93.5216" gradientUnits="userSpaceOnUse">
<stop stop-color="#8CBEC9"/>
<stop offset="0.680882" stop-color="#608C96"/>
</linearGradient>
<linearGradient id="paint2_linear_1756_4271" x1="125.443" y1="37.7882" x2="125.443" y2="45.0353" gradientUnits="userSpaceOnUse">
<stop stop-color="#4F828E"/>
<stop offset="1" stop-color="#436E77"/>
</linearGradient>
<linearGradient id="paint3_linear_1756_4271" x1="70.6323" y1="82.1407" x2="71.2034" y2="93.1691" gradientUnits="userSpaceOnUse">
<stop stop-color="#3F6E79"/>
<stop offset="1" stop-color="#4F828E"/>
</linearGradient>
<linearGradient id="paint4_linear_1756_4271" x1="125.028" y1="61.778" x2="70.9482" y2="81.8974" gradientUnits="userSpaceOnUse">
<stop stop-color="#D6CDE5"/>
<stop offset="0.40625" stop-color="#C1B6D9"/>
<stop offset="0.96875" stop-color="#B6AAD0"/>
</linearGradient>
<linearGradient id="paint5_linear_1756_4271" x1="124.016" y1="60.2101" x2="70.6553" y2="80.4779" gradientUnits="userSpaceOnUse">
<stop stop-color="#D6CDE5"/>
<stop offset="0.59375" stop-color="#B4A8CD"/>
</linearGradient>
<linearGradient id="paint6_linear_1756_4271" x1="123.004" y1="58.5091" x2="70.4828" y2="79.0478" gradientUnits="userSpaceOnUse">
<stop stop-color="#D6CDE5"/>
<stop offset="0.619792" stop-color="#B7A9D6"/>
</linearGradient>
<linearGradient id="paint7_linear_1756_4271" x1="121.992" y1="56.5961" x2="70.2274" y2="77.302" gradientUnits="userSpaceOnUse">
<stop stop-color="#D6CDE5"/>
<stop offset="1" stop-color="#C1B6D9"/>
</linearGradient>
<linearGradient id="paint8_linear_1756_4271" x1="111.467" y1="47.9686" x2="16.047" y2="79.3726" gradientUnits="userSpaceOnUse">
<stop stop-color="#EEF3FA"/>
<stop offset="1" stop-color="#EAEBF6"/>
</linearGradient>
<linearGradient id="paint9_linear_1756_4271" x1="11.3883" y1="80.4078" x2="8.45493" y2="94.0392" gradientUnits="userSpaceOnUse">
<stop stop-color="#7AAAB4"/>
<stop offset="0.65625" stop-color="#4F828E"/>
</linearGradient>
<linearGradient id="paint10_linear_1756_4271" x1="11.6471" y1="80.5804" x2="11.6471" y2="96.8006" gradientUnits="userSpaceOnUse">
<stop stop-color="#89BBC6"/>
<stop offset="0.625" stop-color="#50828E"/>
</linearGradient>
<linearGradient id="paint11_linear_1756_4271" x1="71.4353" y1="59.0118" x2="71.4353" y2="69.3647" gradientUnits="userSpaceOnUse">
<stop stop-color="#4F828D"/>
<stop offset="1" stop-color="#213C43"/>
</linearGradient>
<linearGradient id="paint12_linear_1756_4271" x1="73.3334" y1="53.6628" x2="73.3334" y2="64.8784" gradientUnits="userSpaceOnUse">
<stop stop-color="#4F828D"/>
<stop offset="0.0001" stop-color="#4C7E88"/>
<stop offset="1" stop-color="#213C43"/>
</linearGradient>
<linearGradient id="paint13_linear_1756_4271" x1="67.116" y1="0" x2="67.116" y2="67.6763" gradientUnits="userSpaceOnUse">
<stop stop-color="#3E6972"/>
<stop offset="0.71875" stop-color="#4F828D"/>
</linearGradient>
<linearGradient id="paint14_linear_1756_4271" x1="88.8628" y1="12.4235" x2="67.1216" y2="64.7059" gradientUnits="userSpaceOnUse">
<stop stop-color="#8B3120"/>
<stop offset="0.307292" stop-color="#CF5B35"/>
<stop offset="0.640625" stop-color="#E39056"/>
<stop offset="1" stop-color="#EFBD57"/>
</linearGradient>
<linearGradient id="paint15_linear_1756_4271" x1="67.1216" y1="2.7608" x2="67.1216" y2="64.7059" gradientUnits="userSpaceOnUse">
<stop stop-color="#F5825B"/>
<stop offset="1" stop-color="#F7D03D"/>
</linearGradient>
<linearGradient id="paint16_linear_1756_4271" x1="76.4393" y1="8.28236" x2="63.6706" y2="41.0667" gradientUnits="userSpaceOnUse">
<stop stop-color="#692F5F"/>
<stop offset="0.265625" stop-color="#BB3A25"/>
<stop offset="0.583333" stop-color="#F79262"/>
<stop offset="1" stop-color="white"/>
</linearGradient>
<linearGradient id="paint17_linear_1756_4271" x1="88.8628" y1="12.4235" x2="67.1216" y2="64.7059" gradientUnits="userSpaceOnUse">
<stop stop-color="#8B3120"/>
<stop offset="0.307292" stop-color="#CF5B35"/>
<stop offset="0.640625" stop-color="#E39056"/>
<stop offset="1" stop-color="#EFBD57"/>
</linearGradient>
<linearGradient id="paint18_linear_1756_4271" x1="63.6705" y1="64.8784" x2="76.7843" y2="12.7686" gradientUnits="userSpaceOnUse">
<stop stop-color="#692F5F"/>
<stop offset="0.265625" stop-color="#BB3A25"/>
<stop offset="0.583333" stop-color="#F79262"/>
<stop offset="1" stop-color="white"/>
</linearGradient>
<linearGradient id="paint19_linear_1756_4271" x1="63.6705" y1="64.8784" x2="76.7843" y2="12.7686" gradientUnits="userSpaceOnUse">
<stop stop-color="#692F5F"/>
<stop offset="0.265625" stop-color="#BB3A25"/>
<stop offset="0.583333" stop-color="#F79262"/>
<stop offset="1" stop-color="white"/>
</linearGradient>
<linearGradient id="paint20_linear_1756_4271" x1="48.0166" y1="34.8639" x2="21.7617" y2="50.8495" gradientUnits="userSpaceOnUse">
<stop stop-color="#50828E"/>
<stop offset="1" stop-color="#3F6871"/>
</linearGradient>
<linearGradient id="paint21_linear_1756_4271" x1="51.5922" y1="-5.69412" x2="18.4628" y2="28.8157" gradientUnits="userSpaceOnUse">
<stop stop-color="#92CFDE"/>
<stop offset="0.697917" stop-color="#8CBEC9"/>
</linearGradient>
<linearGradient id="paint22_linear_1756_4271" x1="51.5922" y1="-5.34902" x2="18.4628" y2="29.1608" gradientUnits="userSpaceOnUse">
<stop stop-color="#4B7983"/>
<stop offset="0.182292" stop-color="#608C96"/>
<stop offset="0.697917" stop-color="#8CBEC9"/>
<stop offset="0.932292" stop-color="#426E77"/>
</linearGradient>
<linearGradient id="paint23_linear_1756_4271" x1="49.2403" y1="70.5308" x2="45.8125" y2="36.0024" gradientUnits="userSpaceOnUse">
<stop stop-color="#3F6871"/>
<stop offset="0.791667" stop-color="#8CBEC9"/>
<stop offset="1" stop-color="#5F8C96"/>
</linearGradient>
<linearGradient id="paint24_linear_1756_4271" x1="63.7691" y1="29.2854" x2="63.7691" y2="37.2706" gradientUnits="userSpaceOnUse">
<stop stop-color="#80C4D3"/>
<stop offset="0.473958" stop-color="#4E818B"/>
</linearGradient>
<linearGradient id="paint25_linear_1756_4271" x1="63.7691" y1="29.1129" x2="63.7691" y2="37.4579" gradientUnits="userSpaceOnUse">
<stop stop-color="#DAEFF3"/>
<stop offset="0.427083" stop-color="#3AA8C4"/>
<stop offset="0.947917" stop-color="#3E6871"/>
</linearGradient>
<linearGradient id="paint26_linear_1756_4271" x1="14.6666" y1="28.6431" x2="14.6666" y2="41.0667" gradientUnits="userSpaceOnUse">
<stop stop-color="#5E99A7"/>
<stop offset="0.645833" stop-color="#538793"/>
<stop offset="0.979167" stop-color="#43717C"/>
</linearGradient>
<linearGradient id="paint27_linear_1756_4271" x1="14.6666" y1="28.6431" x2="14.6666" y2="41.0667" gradientUnits="userSpaceOnUse">
<stop stop-color="#BDD8DE"/>
<stop offset="0.588542" stop-color="#50828E"/>
</linearGradient>
<linearGradient id="paint28_linear_1756_4271" x1="13.6314" y1="29.3333" x2="15.8745" y2="37.0981" gradientUnits="userSpaceOnUse">
<stop stop-color="#D0EAF0"/>
<stop offset="1" stop-color="#3F6871" stop-opacity="0"/>
</linearGradient>
<linearGradient id="paint29_linear_1756_4271" x1="13.2863" y1="30.3686" x2="13.2863" y2="39.6863" gradientUnits="userSpaceOnUse">
<stop stop-color="#5E99A7"/>
<stop offset="1" stop-color="#5E99A7" stop-opacity="0"/>
</linearGradient>
<linearGradient id="paint30_linear_1756_4271" x1="13.1003" y1="30.7009" x2="11.9708" y2="35.2964" gradientUnits="userSpaceOnUse">
<stop stop-color="#79A8B3"/>
<stop offset="1" stop-color="#79A8B3" stop-opacity="0"/>
</linearGradient>
<linearGradient id="paint31_linear_1756_4271" x1="126.306" y1="84.549" x2="127.686" y2="85.5843" gradientUnits="userSpaceOnUse">
<stop stop-color="#629DAB"/>
<stop offset="0.754798" stop-color="#558C99" stop-opacity="0"/>
</linearGradient>
<linearGradient id="paint32_linear_1756_4271" x1="122.23" y1="70.3869" x2="122.23" y2="72.616" gradientUnits="userSpaceOnUse">
<stop stop-color="#6AA5B3"/>
<stop offset="1" stop-color="#6AA5B3" stop-opacity="0"/>
</linearGradient>
</defs>
</svg>
