<svg width="87" height="87" viewBox="0 0 87 87" fill="none" xmlns="http://www.w3.org/2000/svg">
<path d="M66.554 14.47C64.6998 14.47 63.1728 15.0588 61.973 16.2264C60.7732 17.394 60.1783 18.8909 60.1783 20.7071C60.1783 22.4735 60.7831 23.9305 61.9829 25.108C63.1827 26.2756 64.68 26.8644 66.4846 26.8644C68.2992 26.8644 69.8063 26.2656 71.016 25.0781C72.2257 23.8806 72.8306 22.4036 72.8306 20.6173C72.8306 18.8909 72.2257 17.4339 71.016 16.2464C69.8063 15.0588 68.319 14.47 66.554 14.47Z" fill="white"/>
<path fill-rule="evenodd" clip-rule="evenodd" d="M87 35.2671C87 38.5702 84.3327 41.2547 81.0506 41.2547H51.9582C48.6761 41.2547 46.0088 38.5702 46.0088 35.2671V5.98762C46.0088 2.68445 48.6761 0 51.9582 0H81.0506C84.3327 0 87 2.68445 87 5.98762V35.2671ZM66.4648 12.2446C68.9734 12.2446 71.0656 13.043 72.7314 14.6397C74.3973 16.2364 75.2302 18.2422 75.2302 20.6473C75.2302 23.0523 74.3874 25.0482 72.7017 26.6349C71.016 28.2116 68.8941 29 66.3359 29C63.8867 29 61.854 28.2116 60.2179 26.6349C58.5918 25.0581 57.7688 23.0722 57.7688 20.6972C57.7688 18.2522 58.5918 16.2364 60.2278 14.6397C61.8738 13.043 63.9561 12.2446 66.4648 12.2446Z" fill="white"/>
<path d="M19.1571 60.295H16.2518V72.4498H19.2265C20.3866 72.4498 21.2889 72.37 21.9334 72.2103C22.578 72.0507 23.1134 71.8511 23.5398 71.6016C23.9661 71.3521 24.3628 71.0527 24.7197 70.6935C25.8699 69.5259 26.4351 68.0489 26.4351 66.2626C26.4351 64.5063 25.8501 63.0792 24.6702 61.9715C24.2339 61.5624 23.7381 61.2231 23.1729 60.9536C22.6077 60.6842 22.0822 60.5145 21.5765 60.4247C21.0807 60.3449 20.2775 60.295 19.1571 60.295Z" fill="white"/>
<path fill-rule="evenodd" clip-rule="evenodd" d="M40.9912 81.0124C40.9912 84.3156 38.3239 87 35.0418 87H5.94938C2.6673 87 0 84.3156 0 81.0124V51.7329C0 48.4298 2.6673 45.7453 5.94938 45.7453H35.0418C38.3239 45.7453 40.9912 48.4298 40.9912 51.7329V81.0124ZM13.9315 73.7871V58.9577C13.9315 58.4987 14.2587 58.2093 14.7049 58.2093H19.405C21.6161 58.2093 23.3613 58.5386 24.6503 59.2072C25.9394 59.8758 26.9607 60.8538 27.7143 62.1511C28.4778 63.4485 28.8546 64.8556 28.8546 66.3824C28.8546 67.4701 28.6463 68.518 28.2299 69.5159C27.8134 70.5138 27.2185 71.392 26.4351 72.1505C25.6419 72.9288 24.7297 73.5176 23.6786 73.9168C23.0638 74.1563 22.5085 74.316 21.9929 74.4058C21.4773 74.4856 20.5056 74.5255 19.0678 74.5255C19.0678 74.5255 15.2206 74.5156 14.695 74.5255C14.2092 74.5355 13.9315 74.1264 13.9315 73.7871Z" fill="white"/>
<path fill-rule="evenodd" clip-rule="evenodd" d="M81.0506 87C84.3327 87 87 84.3156 87 81.0124V51.7329C87 48.4298 84.3327 45.7453 81.0506 45.7453H51.9582C48.6761 45.7453 46.0088 48.4298 46.0088 51.7329V81.0124C46.0088 84.3156 48.6761 87 51.9582 87H81.0506ZM64.1146 72.4498H70.1829C70.758 72.4498 71.2241 72.9189 71.2241 73.4977C71.2241 74.0765 70.758 74.5455 70.1829 74.5455L70.0399 74.5452C69.1529 74.5437 64.3806 74.5355 62.5281 74.5355C62.1414 74.5355 61.7943 74.2062 61.7943 73.7871V58.9478C61.7943 58.5586 62.0918 58.2093 62.5281 58.2093C64.3498 58.2093 68.9848 58.201 69.8237 58.1995L69.9549 58.1993C70.53 58.1993 70.996 58.6683 70.996 59.2471C70.996 59.8259 70.53 60.295 69.9549 60.295H64.1146V65.2747C64.1146 65.2747 69.7169 65.2647 69.7367 65.2647C70.3118 65.2647 70.7779 65.7337 70.7779 66.3125C70.7779 66.8813 70.3218 67.3504 69.7566 67.3604L64.1146 67.3703V72.4498Z" fill="white"/>
<path fill-rule="evenodd" clip-rule="evenodd" d="M40.9912 35.2671C40.9912 38.5702 38.3239 41.2547 35.0418 41.2547H5.94938C2.6673 41.2547 0 38.5702 0 35.2671V5.98762C0 2.68445 2.6673 0 5.94938 0H35.0418C38.3239 0 40.9912 2.68445 40.9912 5.98762V35.2671ZM26.2565 25.7866C26.0979 25.7866 25.8103 25.8764 25.8103 25.8764C24.4321 26.5151 23.024 26.8345 21.5962 26.8345C19.7122 26.8345 18.1654 26.2557 16.9557 25.108C15.746 23.9504 15.1411 22.4835 15.1411 20.6872C15.1411 18.9109 15.7559 17.4339 16.9854 16.2464C18.215 15.0688 19.7618 14.47 21.616 14.47C22.9249 14.47 24.2437 14.7395 25.5922 15.3083C25.7409 15.3782 25.9194 15.438 26.088 15.438C26.6928 15.438 27.1886 14.9391 27.1886 14.3303C27.1886 13.8613 26.792 13.4222 26.4846 13.3025C24.68 12.5939 23.0141 12.2446 21.507 12.2446C19.038 12.2446 16.9557 13.053 15.27 14.6796C13.5844 16.3062 12.7415 18.3021 12.7415 20.6772C12.7415 22.1741 13.1084 23.5712 13.8422 24.8486C14.5759 26.1359 15.5774 27.1438 16.8367 27.8823C18.096 28.6108 19.6329 28.98 21.4475 28.98C23.3612 28.98 25.1063 28.6208 26.6333 27.9322C27.0795 27.7625 27.3572 27.3334 27.3572 26.8844C27.3671 26.2856 26.8713 25.7866 26.2565 25.7866Z" fill="white"/>
</svg>
