<svg width="83" height="89" viewBox="0 0 83 89" fill="none" xmlns="http://www.w3.org/2000/svg">
<path d="M60.4921 4.18365C60.7468 3.37953 60.6763 2.50692 60.2958 1.7547C59.9153 1.00249 59.2555 0.431198 58.4592 0.164501C57.6629 -0.102196 56.7941 -0.0428427 56.041 0.329714C55.2879 0.702271 54.711 1.35805 54.4353 2.1551L51.2429 11.78C50.9883 12.5841 51.0588 13.4567 51.4393 14.2089C51.8198 14.9612 52.4796 15.5324 53.2759 15.7991C54.0722 16.0658 54.9409 16.0065 55.694 15.6339C56.4472 15.2614 57.024 14.6056 57.2998 13.8085L60.4921 4.18365V4.18365ZM79.9354 4.1109C80.5332 4.71272 80.869 5.52852 80.869 6.3791C80.869 7.22968 80.5332 8.04548 79.9354 8.6473L69.2944 19.3464C69.0021 19.6617 68.6497 19.9147 68.2581 20.0901C67.8665 20.2655 67.4438 20.3599 67.0152 20.3675C66.5865 20.3751 66.1608 20.2958 65.7633 20.1344C65.3658 19.9729 65.0047 19.7326 64.7015 19.4279C64.3984 19.1231 64.1594 18.76 63.9989 18.3603C63.8383 17.9607 63.7595 17.5326 63.767 17.1016C63.7746 16.6706 63.8684 16.2456 64.0429 15.8519C64.2174 15.4582 64.4689 15.1038 64.7826 14.81L75.4236 4.1109C76.0221 3.50982 76.8335 3.1722 77.6795 3.1722C78.5255 3.1722 79.3368 3.50982 79.9354 4.1109V4.1109ZM42.0108 10.6159C40.9129 9.43334 39.5447 8.53774 38.0249 8.00673C36.5051 7.47572 34.8794 7.32532 33.2887 7.56856C31.698 7.81179 30.1903 8.44133 28.8962 9.40262C27.6021 10.3639 26.5606 11.628 25.862 13.0853L0.757713 65.4808C0.0524496 66.9544 -0.168073 68.6155 0.128069 70.2236C0.424211 71.8316 1.22165 73.3032 2.40494 74.4252L8.52991 80.237C9.62769 81.2776 11.0066 81.9692 12.4938 82.225C13.9809 82.4808 15.5101 82.2895 16.8895 81.6749L22.9208 78.9873C24.7817 83.088 28.1759 86.2853 32.3669 87.8853C36.5579 89.4852 41.2074 89.3586 45.3062 87.533C49.4049 85.7074 52.6222 82.3301 54.2596 78.1342C55.897 73.9383 55.8225 69.2623 54.0522 65.1213L68.6091 58.6334C70.052 57.9906 71.321 57.0102 72.3104 55.774C73.2998 54.5378 73.9807 53.0816 74.2965 51.5269C74.6122 49.9722 74.5536 48.3642 74.1255 46.8369C73.6974 45.3096 72.9122 43.9075 71.8354 42.7474L42.0108 10.6202V10.6159ZM48.2124 67.7148C49.246 70.2888 49.2442 73.166 48.2072 75.7388C47.1703 78.3115 45.1794 80.3782 42.6551 81.5026C40.1308 82.6269 37.2707 82.7207 34.6789 81.7643C32.0871 80.8079 29.9664 78.876 28.7649 76.3767L48.2124 67.7148ZM68.1026 29.9128C68.1026 29.0615 68.4389 28.2451 69.0376 27.6432C69.6362 27.0412 70.4482 26.7031 71.2949 26.7031H79.8077C80.6543 26.7031 81.4663 27.0412 82.065 27.6432C82.6637 28.2451 83 29.0615 83 29.9128C83 30.7641 82.6637 31.5805 82.065 32.1824C81.4663 32.7843 80.6543 33.1225 79.8077 33.1225H71.2949C70.4482 33.1225 69.6362 32.7843 69.0376 32.1824C68.4389 31.5805 68.1026 30.7641 68.1026 29.9128Z" fill="#00adbc"/>
</svg>
