<svg width="66" height="22" viewBox="0 0 66 22" fill="none" xmlns="http://www.w3.org/2000/svg">
<path fill-rule="evenodd" clip-rule="evenodd" d="M53.6867 21.3469C57.0803 21.9423 60.3081 21.0287 62.9294 18.4075C65.5506 15.7862 66.4065 12.3227 65.8111 8.9292C65.4361 6.79197 64.5802 4.58772 62.9294 2.93688C61.066 1.07352 58.6192 0.572616 56.1863 0.334748C53.0415 0.0272617 49.8675 0.528163 47.4588 2.93688C45.1996 5.19607 44.4493 8.51169 44.5795 11.4704C44.6956 14.1065 45.4459 16.3946 47.4588 18.4075C49.1096 20.0583 51.5495 20.9719 53.6867 21.3469ZM58.9525 13.0352L58.9376 14.206V14.4282C58.9278 14.5172 58.9278 14.6011 58.9376 14.6802C58.9475 14.7296 58.9525 14.779 58.9525 14.8284L58.9821 14.9766C58.9821 15.0358 58.987 15.0951 58.9969 15.1544C59.0068 15.2038 59.0216 15.2532 59.0414 15.3026C59.0513 15.3223 59.0611 15.3372 59.071 15.347C59.0809 15.3569 59.0908 15.3717 59.1006 15.3915C59.1006 15.4211 59.1155 15.4508 59.1451 15.4804C59.1945 15.599 59.2785 15.6978 59.397 15.7768C59.6341 15.8855 59.8861 15.9102 60.1528 15.8509C60.3306 15.8213 60.4591 15.7669 60.5381 15.6879C60.5875 15.6484 60.627 15.6088 60.6567 15.5693C60.6962 15.5199 60.7308 15.4705 60.7604 15.4211C60.7802 15.3619 60.795 15.3075 60.8049 15.2581C60.8246 15.1988 60.8444 15.1445 60.8641 15.0951C60.874 15.0358 60.879 14.9864 60.879 14.9469C60.8888 14.8975 60.8938 14.858 60.8938 14.8284V14.6802L60.9827 6.989V6.73707V6.57406C60.9926 6.51479 60.9975 6.45057 60.9975 6.38141C60.9975 6.32214 60.9926 6.26286 60.9827 6.20358C60.9827 6.14431 60.9777 6.08009 60.9679 6.01093C60.958 5.95166 60.9432 5.89732 60.9234 5.84792C60.9135 5.78864 60.8987 5.72937 60.879 5.67009C60.8296 5.56142 60.7752 5.48238 60.7159 5.43298C60.6171 5.33419 60.5035 5.27491 60.3751 5.25515C60.3158 5.24527 60.2516 5.24033 60.1824 5.24033C60.1232 5.23045 60.054 5.22551 59.975 5.22551C59.8268 5.22551 59.6737 5.26503 59.5156 5.34407C59.3773 5.44286 59.2735 5.56142 59.2044 5.69973C59.1056 5.9072 59.0513 6.09985 59.0414 6.27768C59.0414 6.38635 59.0364 6.49503 59.0265 6.6037C59.0265 6.7025 59.0216 6.80129 59.0117 6.90009V6.95936C58.992 7.30514 58.9821 7.61635 58.9821 7.89297V8.8414V9.87875C58.9821 10.2147 58.9772 10.5407 58.9673 10.8568L58.9525 13.0352ZM57.571 14.9469C57.571 14.8876 57.5661 14.8284 57.5562 14.7691C57.5365 14.6802 57.5118 14.5913 57.4821 14.5023L57.4377 14.369L54.3553 6.78153L54.2663 6.54442C54.2466 6.48515 54.2219 6.43081 54.1922 6.38141C54.1626 6.33202 54.1379 6.27274 54.1181 6.20358C54.0688 6.07515 54.0144 5.96154 53.9551 5.86274C53.8761 5.74419 53.802 5.64045 53.7329 5.55154C53.6736 5.4725 53.5896 5.40828 53.4809 5.35889C53.3426 5.30949 53.1796 5.28479 52.9919 5.28479C52.8141 5.28479 52.656 5.30949 52.5177 5.35889C52.409 5.40828 52.325 5.4725 52.2657 5.55154L52.1472 5.69973C52.1077 5.74913 52.0731 5.80346 52.0435 5.86274C51.9842 5.96154 51.9298 6.07515 51.8804 6.20358C51.8607 6.27274 51.836 6.33202 51.8064 6.38141C51.7767 6.43081 51.752 6.48515 51.7323 6.54442L51.6433 6.78153L48.5609 14.369L48.5165 14.5023C48.4868 14.5913 48.4621 14.6802 48.4424 14.7691L48.4128 14.9469V15.1248C48.4128 15.2433 48.4473 15.352 48.5165 15.4508C48.5461 15.5002 48.5856 15.5496 48.635 15.599C48.6844 15.6385 48.7437 15.6731 48.8129 15.7027C49.0599 15.841 49.3217 15.8904 49.5983 15.8509C49.7366 15.8114 49.8601 15.7472 49.9688 15.6582C49.9885 15.6385 50.0033 15.6286 50.0132 15.6286C50.0231 15.6187 50.033 15.6039 50.0429 15.5841L50.0725 15.5545C50.0824 15.5347 50.0972 15.5199 50.117 15.5101C50.1664 15.4607 50.2059 15.4162 50.2355 15.3767C50.2652 15.3273 50.2899 15.2779 50.3096 15.2285C50.3393 15.1791 50.3639 15.1346 50.3837 15.0951L50.4726 14.9469C50.4924 14.9074 50.5072 14.8728 50.5171 14.8432L50.5764 14.7246C50.5961 14.6851 50.606 14.6456 50.606 14.6061C50.6159 14.5666 50.6307 14.527 50.6505 14.4875L50.9617 13.7614C51.6433 13.7713 52.3201 13.7762 52.9919 13.7762C53.6736 13.7663 54.3553 13.7614 55.0369 13.7614L55.3481 14.4875C55.358 14.5567 55.3827 14.6357 55.4222 14.7246C55.4321 14.7642 55.4469 14.8037 55.4667 14.8432C55.4865 14.8728 55.5062 14.9074 55.526 14.9469C55.5556 14.9963 55.5803 15.0457 55.6001 15.0951C55.6297 15.1346 55.6544 15.1791 55.6742 15.2285L55.7631 15.3767C55.7927 15.4162 55.8322 15.4607 55.8816 15.5101C55.9014 15.5199 55.9162 15.5347 55.9261 15.5545L55.9557 15.5841C55.9656 15.6039 55.9755 15.6187 55.9854 15.6286C55.9953 15.6286 56.0101 15.6385 56.0298 15.6582C56.1385 15.7472 56.262 15.8114 56.4003 15.8509C56.6769 15.8904 56.9387 15.841 57.1857 15.7027C57.2549 15.6731 57.3142 15.6385 57.3636 15.599C57.413 15.5496 57.4525 15.5002 57.4821 15.4508C57.5513 15.352 57.5858 15.2433 57.5858 15.1248C57.5858 15.0556 57.5809 14.9963 57.571 14.9469ZM53.6439 10.2492C53.7822 10.5555 53.9156 10.8519 54.0441 11.1384L54.3108 11.7904H51.6878L51.9545 11.1384C52.083 10.8519 52.2114 10.5555 52.3398 10.2492C52.4782 9.94296 52.6214 9.63176 52.7696 9.31562L52.8882 9.04887C52.9277 8.95008 52.9622 8.85622 52.9919 8.76731C53.0314 8.85622 53.0709 8.95008 53.1104 9.04887L53.229 9.31562C53.3772 9.63176 53.5155 9.94296 53.6439 10.2492Z" fill="white"/>
<path fill-rule="evenodd" clip-rule="evenodd" d="M41.7258 13.9887C41.7258 13.7351 41.7201 13.4929 41.7085 13.2624C41.697 12.8473 41.6797 12.4496 41.6567 12.0692C41.6451 11.6887 41.5875 11.3313 41.4837 10.997C41.38 10.6627 41.2128 10.3572 40.9822 10.0805C40.7632 9.80378 40.4404 9.55591 40.0138 9.33686C39.5988 9.12935 39.1261 9.02559 38.5958 9.02559C38.0655 9.01406 37.5582 9.089 37.074 9.2504V8.95642V7.79779C37.074 7.41734 37.0683 7.04266 37.0567 6.67375V6.58728C37.0567 6.52964 37.051 6.44894 37.0394 6.34518V5.99932C37.0394 5.88403 37.0337 5.77451 37.0221 5.67075C37.0221 5.55546 37.0164 5.469 37.0048 5.41136C37.0048 5.21537 36.9587 5.00785 36.8665 4.78881C36.8319 4.69658 36.7858 4.62741 36.7282 4.58129C36.6705 4.52365 36.6071 4.47177 36.5379 4.42566C36.3765 4.3219 36.2094 4.27002 36.0364 4.27002C35.9673 4.27002 35.8981 4.27578 35.8289 4.28731C35.7598 4.28731 35.6963 4.29308 35.6387 4.3046C35.5695 4.31613 35.5061 4.33919 35.4485 4.37378C35.3908 4.40836 35.3332 4.45448 35.2755 4.51212C35.1948 4.56976 35.1372 4.65623 35.1026 4.77152C35.0796 4.82916 35.0623 4.89257 35.0507 4.96174C35.0392 5.01938 35.0219 5.08279 34.9989 5.15196L34.9643 5.35948V5.5497V15.4932C34.9643 15.8275 35.045 16.11 35.2064 16.3405C35.3793 16.5596 35.6387 16.6691 35.9846 16.6691C36.2612 16.6691 36.4688 16.6057 36.6071 16.4789C36.757 16.3521 36.8665 16.1964 36.9357 16.012C37.0048 15.8275 37.0394 15.6257 37.0394 15.4067C37.051 15.1761 37.0567 14.9571 37.0567 14.7496V13.4872L37.074 12.8128C37.1086 12.5591 37.1317 12.3228 37.1432 12.1037C37.1662 11.8847 37.2239 11.7002 37.3161 11.5504C37.4083 11.389 37.5525 11.2679 37.7484 11.1872C37.956 11.1065 38.2499 11.0777 38.6304 11.1008C38.9301 11.1123 39.1549 11.2218 39.3048 11.4293C39.4547 11.6368 39.5584 11.8905 39.6161 12.1902C39.6853 12.4784 39.7198 12.7897 39.7198 13.124C39.7314 13.4468 39.7429 13.7351 39.7544 13.9887C39.766 14.1501 39.766 14.3749 39.7544 14.6631C39.7429 14.9513 39.7544 15.2395 39.789 15.5278C39.8351 15.8044 39.9158 16.0523 40.0311 16.2714C40.1464 16.4904 40.3366 16.6172 40.6018 16.6518C40.8554 16.6864 41.0514 16.6633 41.1897 16.5826C41.3396 16.4904 41.4491 16.3578 41.5183 16.1849C41.5875 16.0004 41.6336 15.7814 41.6567 15.5278C41.6797 15.2626 41.697 14.9744 41.7085 14.6631C41.7201 14.4556 41.7258 14.2308 41.7258 13.9887ZM9.98415 4.96174C10.111 5.11161 10.1744 5.26725 10.1744 5.42865C10.1744 5.49782 10.1686 5.57276 10.1571 5.65346C10.1571 5.72263 10.1513 5.78604 10.1398 5.84368C10.1052 5.9705 10.0303 6.09155 9.91497 6.20683C9.82275 6.27601 9.69593 6.32788 9.53453 6.36247C9.45383 6.38553 9.37313 6.40282 9.29243 6.41435C9.21173 6.42588 9.12526 6.44317 9.03303 6.46623C8.95233 6.47776 8.87163 6.48352 8.79093 6.48352H8.53154H7.64959C7.44208 6.49505 7.23456 6.50082 7.02705 6.50082H6.43908C6.45061 6.8582 6.45638 7.24441 6.45638 7.65944C6.45638 8.06295 6.45061 8.53562 6.43908 9.07747C6.43908 9.61932 6.43332 10.2476 6.42179 10.9624V13.4526V14.7669C6.42179 14.8822 6.42755 14.9686 6.43908 15.0263V15.1646C6.43908 15.1992 6.43332 15.2453 6.42179 15.3029C6.39873 15.4067 6.38144 15.5278 6.36991 15.6661C6.36991 15.7237 6.36415 15.7814 6.35262 15.839C6.34109 15.8851 6.3238 15.937 6.30074 15.9947C6.25462 16.0408 6.23157 16.0754 6.23157 16.0984L6.17969 16.2022C6.12204 16.3175 6.01252 16.427 5.85112 16.5307C5.59749 16.6576 5.31504 16.6864 5.00377 16.6172C4.80778 16.5942 4.6579 16.5423 4.55415 16.4616C4.45039 16.3578 4.37545 16.2541 4.32934 16.1503C4.26017 16.0235 4.21982 15.9024 4.20829 15.7872C4.1737 15.6834 4.15641 15.5739 4.15641 15.4586V6.56999H3.72408H3.01507C2.77297 6.55846 2.5424 6.54693 2.32335 6.5354C2.10431 6.52387 1.95443 6.51234 1.87373 6.50082C1.80456 6.48929 1.69504 6.47199 1.54517 6.44894C1.40682 6.42588 1.29154 6.40282 1.19931 6.37976C0.957205 6.31059 0.766982 6.20107 0.628638 6.0512C0.501823 5.90132 0.438416 5.73416 0.438416 5.5497V5.34218C0.438416 5.27301 0.449944 5.2096 0.473002 5.15196C0.507587 5.01362 0.599817 4.89833 0.749689 4.8061C0.795804 4.77152 0.864976 4.73117 0.957205 4.68505C1.06096 4.62741 1.15896 4.58706 1.25119 4.564C1.38953 4.51788 1.56246 4.4833 1.76998 4.46024C1.86221 4.44871 1.95443 4.44295 2.04666 4.44295H2.34064H3.48198C3.8509 4.44295 4.23711 4.43719 4.64061 4.42566C5.30927 4.41413 5.97217 4.41413 6.62931 4.42566C7.29797 4.42566 7.96087 4.43718 8.618 4.46024C8.76787 4.47177 8.91198 4.48906 9.05033 4.51212C9.18867 4.53518 9.32701 4.57553 9.46536 4.63317C9.56911 4.66776 9.66711 4.71387 9.75934 4.77152C9.85157 4.81763 9.9265 4.88104 9.98415 4.96174ZM14.2482 14.3C14.3866 14.2654 14.5249 14.2423 14.6632 14.2308C14.8131 14.2193 14.9457 14.2365 15.061 14.2827C15.1878 14.3288 15.2916 14.4095 15.3723 14.5248C15.453 14.6285 15.4933 14.7784 15.4933 14.9744C15.4933 15.1127 15.4587 15.2453 15.3896 15.3721C15.3204 15.4989 15.2339 15.6142 15.1302 15.718C15.0264 15.8217 14.9111 15.914 14.7843 15.9947C14.6575 16.0638 14.5364 16.1215 14.4211 16.1676C14.0868 16.3175 13.7006 16.4328 13.2625 16.5135C12.836 16.5942 12.3921 16.623 11.931 16.5999C11.3084 16.5769 10.7089 16.4558 10.1325 16.2368C9.56758 16.0062 9.12373 15.6315 8.80093 15.1127C8.50118 14.6055 8.32249 14.0406 8.26484 13.418C8.2072 12.7955 8.23602 12.2075 8.35131 11.6541C8.47812 10.9855 8.6914 10.4436 8.99115 10.0286C9.30242 9.60202 9.67134 9.26193 10.0979 9.0083C10.6167 8.70855 11.1989 8.55292 11.8445 8.54139C12.4901 8.52986 13.1069 8.65667 13.6948 8.92183C14.0868 9.09476 14.4384 9.3311 14.7497 9.63085C15.061 9.91906 15.2973 10.2707 15.4587 10.6857C15.5048 10.7895 15.5394 10.9163 15.5625 11.0662C15.5971 11.216 15.6201 11.3774 15.6317 11.5504C15.6432 11.7118 15.6432 11.8732 15.6317 12.0346C15.6201 12.196 15.5913 12.3401 15.5452 12.4669C15.476 12.6744 15.3896 12.8358 15.2858 12.9511C15.182 13.0664 15.0495 13.1529 14.8881 13.2105C14.7267 13.2681 14.5307 13.3085 14.3001 13.3315C14.0811 13.3431 13.8159 13.3546 13.5046 13.3661C13.2279 13.3777 12.9685 13.3834 12.7264 13.3834H11.9828C11.7292 13.3719 11.464 13.3661 11.1874 13.3661C10.9222 13.3546 10.6225 13.3431 10.2881 13.3315C10.2535 13.5621 10.2824 13.7639 10.3746 13.9368C10.4783 14.0982 10.6167 14.2365 10.7896 14.3518C10.9626 14.4556 11.1585 14.5363 11.3776 14.5939C11.5966 14.6516 11.8099 14.6862 12.0174 14.6977C12.4094 14.7207 12.7841 14.6919 13.1415 14.6112C13.4989 14.519 13.8678 14.4152 14.2482 14.3ZM13.5046 10.9451C13.2856 10.6915 13.055 10.507 12.8129 10.3917C12.6284 10.311 12.4325 10.2765 12.2249 10.288C12.0289 10.288 11.8387 10.3168 11.6543 10.3744C11.3199 10.4551 11.0375 10.6281 10.8069 10.8932C10.7839 10.9163 10.7435 10.9739 10.6859 11.0662C10.6282 11.1469 10.5706 11.2333 10.5129 11.3256C10.4668 11.4178 10.4322 11.5043 10.4092 11.585C10.3861 11.6657 10.3976 11.706 10.4438 11.706H13.8332C13.8217 11.5446 13.7928 11.412 13.7467 11.3083C13.7006 11.193 13.6199 11.0719 13.5046 10.9451ZM20.3152 9.02559C19.9348 9.09476 19.5716 9.21581 19.2258 9.38874C18.7992 9.59626 18.4245 9.89601 18.1017 10.288C17.7789 10.68 17.5368 11.1872 17.3754 11.8098C17.2486 12.2824 17.191 12.7609 17.2025 13.2451C17.214 13.7293 17.3005 14.1847 17.4619 14.6112C17.6348 15.0263 17.8769 15.3952 18.1882 15.718C18.511 16.0293 18.9203 16.2483 19.416 16.3751C19.7964 16.4789 20.1538 16.5423 20.4881 16.5653C20.8225 16.5884 21.1741 16.5769 21.543 16.5307C21.9811 16.4731 22.3558 16.3521 22.6671 16.1676C22.9783 15.9716 23.2666 15.7007 23.5317 15.3548C23.6124 15.4816 23.6989 15.62 23.7911 15.7699C23.8949 15.9082 24.0102 16.0408 24.137 16.1676C24.2638 16.2829 24.4021 16.3751 24.552 16.4443C24.7134 16.5019 24.8806 16.5135 25.0535 16.4789C25.3532 16.4212 25.5492 16.2714 25.6415 16.0293C25.7452 15.7756 25.7683 15.5162 25.7106 15.2511C25.6415 14.9744 25.5492 14.7092 25.4339 14.4556C25.3302 14.202 25.2149 13.9483 25.0881 13.6947C24.9728 13.4411 24.8633 13.1874 24.7595 12.9338C24.6558 12.6802 24.5808 12.4035 24.5347 12.1037C24.4655 11.6657 24.3503 11.2679 24.1889 10.9105C24.0274 10.5531 23.7969 10.2246 23.4971 9.92483C23.1974 9.63661 22.8746 9.41757 22.5287 9.26769C22.1829 9.10629 21.8197 9.0083 21.4393 8.97371C21.0703 8.9276 20.6957 8.94489 20.3152 9.02559ZM33.0635 10.0113C33.1558 10.1727 33.2019 10.3456 33.2019 10.5301C33.2134 10.7145 33.1731 10.8875 33.0808 11.0489C32.9771 11.2564 32.8272 11.4005 32.6312 11.4812C32.4467 11.5504 32.2392 11.5561 32.0087 11.4985C31.9049 11.4754 31.8127 11.4351 31.732 11.3774C31.6513 11.3198 31.5648 11.2622 31.4726 11.2045C31.3919 11.1353 31.2939 11.0719 31.1786 11.0143C31.0748 10.9566 30.9365 10.9163 30.7636 10.8932C30.5906 10.8702 30.4004 10.8702 30.1929 10.8932C29.9969 10.9163 29.8182 10.9624 29.6568 11.0316C29.4032 11.1584 29.2014 11.3544 29.0516 11.6195C28.9017 11.8732 28.8037 12.1499 28.7576 12.4496C28.7115 12.7378 28.7172 13.0318 28.7749 13.3315C28.844 13.6313 28.9709 13.8849 29.1553 14.0924C29.2937 14.2538 29.4724 14.3864 29.6914 14.4902C29.922 14.5939 30.141 14.6573 30.3485 14.6804C30.5445 14.7035 30.7405 14.7035 30.9365 14.6804C31.1325 14.6458 31.3227 14.5997 31.5072 14.5421C31.6455 14.4844 31.8011 14.4095 31.9741 14.3172C32.147 14.2135 32.3142 14.1501 32.4756 14.127C32.6831 14.127 32.8445 14.1847 32.9598 14.3C33.0751 14.4037 33.1558 14.5363 33.2019 14.6977C33.248 14.8476 33.2538 15.009 33.2192 15.1819C33.1961 15.3548 33.1327 15.5047 33.0289 15.6315C32.8906 15.8044 32.6946 15.9716 32.441 16.133C32.1874 16.2829 31.9452 16.3924 31.7147 16.4616C31.438 16.5538 31.1267 16.6057 30.7809 16.6172C30.4465 16.6287 30.1295 16.6172 29.8297 16.5826C29.6914 16.5596 29.5473 16.5307 29.3974 16.4962C29.2475 16.4616 29.1034 16.4212 28.9651 16.3751C28.4578 16.1907 28.0313 15.9313 27.6854 15.5969C27.3511 15.2511 27.0917 14.8649 26.9072 14.4383C26.7343 14.0117 26.6363 13.5564 26.6132 13.0722C26.5902 12.5879 26.6478 12.1095 26.7862 11.6368C26.913 11.1872 27.0686 10.8068 27.2531 10.4955C27.4491 10.1842 27.6739 9.93059 27.9275 9.7346C28.1927 9.52709 28.4867 9.36569 28.8095 9.2504C29.1323 9.12358 29.4896 9.01406 29.8816 8.92183C30.2851 8.84113 30.7117 8.84113 31.1613 8.92183C31.6109 9.00253 32.0144 9.15241 32.3718 9.37145C32.6485 9.52132 32.8791 9.7346 33.0635 10.0113ZM20.9363 14.7507C22.0045 14.7507 22.8704 13.8848 22.8704 12.8166C22.8704 11.7484 22.0045 10.8825 20.9363 10.8825C19.8681 10.8825 19.0022 11.7484 19.0022 12.8166C19.0022 13.8848 19.8681 14.7507 20.9363 14.7507Z" fill="white"/>
</svg>
