<?xml version="1.0" encoding="UTF-8" standalone="no"?>
<!-- Generator: Adobe Illustrator 13.0.0, SVG Export Plug-In . SVG Version: 6.00 Build 14948)  -->

<svg
   xmlns:dc="http://purl.org/dc/elements/1.1/"
   xmlns:cc="http://creativecommons.org/ns#"
   xmlns:rdf="http://www.w3.org/1999/02/22-rdf-syntax-ns#"
   xmlns:svg="http://www.w3.org/2000/svg"
   xmlns="http://www.w3.org/2000/svg"
   xmlns:sodipodi="http://sodipodi.sourceforge.net/DTD/sodipodi-0.dtd"
   xmlns:inkscape="http://www.inkscape.org/namespaces/inkscape"
   version="1.1"
   id="Layer_1"
   x="0px"
   y="0px"
   width="280.17722"
   height="201.48199"
   viewBox="0 0 280.17722 201.48199"
   enable-background="new 0 0 300 250"
   xml:space="preserve"
   inkscape:version="0.47 r22583"
   sodipodi:docname="ILM_logo.svg"><metadata
   id="metadata13"><rdf:RDF><cc:Work
       rdf:about=""><dc:format>image/svg+xml</dc:format><dc:type
         rdf:resource="http://purl.org/dc/dcmitype/StillImage" /></cc:Work></rdf:RDF></metadata><defs
   id="defs11"><inkscape:perspective
     sodipodi:type="inkscape:persp3d"
     inkscape:vp_x="0 : 125 : 1"
     inkscape:vp_y="0 : 1000 : 0"
     inkscape:vp_z="300 : 125 : 1"
     inkscape:persp3d-origin="150 : 83.333333 : 1"
     id="perspective15" /></defs><sodipodi:namedview
   pagecolor="#ffffff"
   bordercolor="#666666"
   borderopacity="1"
   objecttolerance="10"
   gridtolerance="10"
   guidetolerance="10"
   inkscape:pageopacity="0"
   inkscape:pageshadow="2"
   inkscape:window-width="640"
   inkscape:window-height="480"
   id="namedview9"
   showgrid="false"
   inkscape:zoom="1.02"
   inkscape:cx="140.446"
   inkscape:cy="84.437"
   inkscape:window-x="0"
   inkscape:window-y="0"
   inkscape:window-maximized="0"
   inkscape:current-layer="Layer_1" />

<path
   d="m 123.471,162.573 c -0.752,-0.279 -0.89,-0.491 -0.896,-1.388 -0.021,-2.264 0.144,-4.74 0.188,-5.396 0.048,-0.622 0.185,-1.073 0.55,-1.073 0.424,-0.014 0.476,0.362 0.482,0.69 0.006,0.541 0.188,1.402 0.431,2.107 1.053,3.035 3.847,4.151 6.781,4.144 4.313,-0.02 6.422,-2.571 6.415,-4.794 -0.007,-2.059 -0.444,-4.309 -4.456,-6.976 l -2.212,-1.464 c -5.245,-3.475 -7.345,-6.012 -7.369,-9.376 -0.048,-5.437 5.088,-8.077 10.952,-8.316 3.157,-0.123 4.641,0.425 6.135,0.438 0.451,0 1.046,0.056 1.046,0.514 0,0.561 -0.194,1.798 -0.177,5.115 0.006,0.937 -0.138,1.279 -0.541,1.292 -0.335,0.015 -0.517,-0.416 -0.517,-0.923 0,-0.383 0.181,-1.354 -1.033,-2.564 -0.769,-0.745 -2.154,-2.004 -5.317,-1.881 -3.553,0.137 -6.166,2.113 -6.148,4.623 0.007,1.929 1.125,3.352 5.102,5.889 l 1.348,0.848 c 5.898,3.714 8.008,6.593 8.022,10.607 0.014,2.448 -0.783,5.26 -4.278,7.243 -2.404,1.34 -5.092,1.71 -7.619,1.71 -2.741,0 -4.872,-0.288 -6.889,-1.069 m 153.395,7.674 c 0.643,-0.643 0.756,-0.862 1.32,-1.723 0.762,-1.006 1.05,-1.991 1.641,-1.86 0.455,0.198 0.414,0.513 0.175,1.162 -0.178,0.698 -2.188,5.328 -2.784,6.647 0,0 -0.714,1.368 -2.256,1.074 -10.228,-2.024 -7.243,-1.662 -19.013,-3.789 -0.527,-0.096 -0.906,-0.232 -0.906,-0.602 0,-0.261 0.175,-0.417 0.67,-0.417 0.612,0 1.115,-0.11 1.491,-0.212 0.827,-0.206 1.029,-1.362 1.193,-2.873 0.209,-2.195 0.209,-6.265 0.209,-11.072 v -9.89 c 0,-7.939 0,-9.396 -0.079,-11.071 -0.082,-1.772 -0.417,-2.612 -1.774,-2.976 -0.336,-0.109 -0.835,-0.157 -1.371,-0.157 -0.469,0 -0.708,-0.103 -0.708,-0.472 0,-0.362 0.298,-0.466 0.91,-0.472 1.952,0 4.551,0.156 5.676,0.156 0.991,0 4.019,-0.156 5.635,-0.15 0.579,0 0.872,0.104 0.872,0.466 0,0.369 -0.245,0.472 -0.749,0.472 -0.45,0 -1.118,0.048 -1.62,0.157 -1.115,0.26 -1.446,1.148 -1.525,2.976 -0.092,1.675 -0.092,3.132 -0.092,11.071 v 9.89 12.105 c 0,0 -0.359,1.162 3.122,2.29 3.542,0.767 2.235,0.616 6.322,1.212 -0.001,0.002 1.596,0.247 3.641,-1.942 z m -36.66,-17.337 c 0.216,0 0.253,-0.137 0.216,-0.272 l -3.857,-11.34 c -0.045,-0.191 -0.083,-0.417 -0.213,-0.417 -0.129,0 -0.212,0.226 -0.256,0.417 l -3.939,11.291 c -0.048,0.185 0,0.321 0.182,0.321 h 7.867 z m 4.684,17.118 c -1.509,-0.191 -1.443,-0.383 -1.375,-0.684 0.064,-0.308 0.715,-0.103 1.139,-0.185 0.633,-0.109 1.292,-0.24 0.749,-1.628 l -3.96,-12.002 c -0.088,-0.232 -0.215,-0.315 -0.434,-0.315 h -9.527 c -0.215,0 -0.305,0.083 -0.396,0.362 l -2.315,7.284 c -0.417,1.155 -0.547,2.1 -0.577,2.646 -0.042,0.834 0.372,1.478 1.61,1.799 0,0 0.961,0.144 1.026,0.554 0.054,0.342 -0.182,0.466 -0.633,0.403 -1.077,-0.156 -0.804,-0.068 -9.319,-1.012 -0.39,-0.048 -0.652,-0.349 -0.638,-0.567 0.013,-0.274 0.331,-0.302 0.666,-0.302 0.39,0 0.615,-0.013 0.961,-0.061 1.966,-0.267 2.77,-1.881 3.621,-4.172 l 10.734,-28.841 c 0.513,-1.333 0.775,-1.839 1.2,-1.839 0.386,0 0.642,0.417 1.07,1.47 1.029,2.531 8.597,24.621 11.226,31.664 1.419,3.803 1.501,4.795 2.534,5.355 0.646,0.35 0.599,0.302 1.237,0.485 0.321,0.096 0.517,0.171 0.5,0.493 -0.011,0.212 -0.116,0.41 -1.532,0.156 l -7.567,-1.063 z m -36.377,-3.993 c -0.517,0 -0.827,-0.343 -0.827,-0.664 0,-0.212 0.229,-0.383 0.715,-0.383 0.611,0 0.991,-0.007 1.474,-0.13 0.796,-0.178 1.08,-1.272 1.196,-2.572 0.202,-1.881 0.202,-5.423 0.202,-9.766 v -7.886 c 0,-6.805 0,-8.057 -0.071,-9.485 -0.09,-1.525 -0.485,-2.284 -1.361,-2.51 -0.438,-0.137 -0.954,-0.185 -1.437,-0.185 -0.387,0 -0.633,-0.082 -0.633,-0.444 0,-0.268 0.318,-0.355 0.958,-0.355 1.508,0 4.018,0.13 5.17,0.13 0.992,0 3.341,-0.13 4.859,-0.13 0.509,0 0.821,0.088 0.821,0.355 0,0.362 -0.233,0.444 -0.63,0.444 -0.397,0 -0.714,0.048 -1.187,0.144 -1.077,0.226 -1.398,0.984 -1.478,2.551 -0.082,1.429 -0.082,2.681 -0.082,9.485 v 7.886 c 0,4.343 0.058,8.966 0.191,10.888 0.089,1.211 0.027,1.806 1.066,2.229 0.401,0.164 0.507,0.191 1.149,0.322 0.421,0.096 0.8,0.177 0.715,0.608 -0.068,0.308 -0.355,0.423 -0.79,0.375 -2.763,-0.305 -1.43,-0.107 -10.02,-0.907 z m -24.052,-19.608 c 0,0.445 0.082,0.609 0.362,0.725 0.831,0.281 2.021,0.404 3.021,0.404 1.59,0 2.502,-0.39 3.21,-0.917 1.197,-0.889 3.409,-2.879 3.341,-6.182 -0.096,-4.623 -1.874,-6.881 -7.472,-7.018 -0.988,-0.02 -1.706,0.041 -2.1,0.164 -0.28,0.083 -0.362,0.246 -0.362,0.568 v 12.256 z m -7.143,17.556 c -0.521,0 -1.064,-0.042 -1.064,-0.322 0,-0.211 0.261,-0.526 0.731,-0.526 0.596,0 1.27,-0.205 1.621,-0.28 0.804,-0.164 0.811,-1.039 0.965,-2.202 0.198,-1.696 0.198,-6.6 0.198,-10.313 v -7.1 c 0,-6.126 0,-7.255 -0.078,-8.548 -0.083,-1.367 -0.4,-2.018 -1.714,-2.305 -0.311,-0.075 -0.992,-0.109 -1.546,-0.109 -0.438,0 -0.669,-0.089 -0.669,-0.369 0,-0.281 0.276,-0.356 0.871,-0.356 2.104,0 4.613,0.117 5.44,0.117 1.36,0 4.377,-0.117 5.611,-0.117 2.506,0 6.326,0.329 8.474,1.82 1.108,0.765 2.842,2.858 2.985,5.56 0.441,7.913 -5.204,9.027 -5.741,9.472 3.539,4.521 7.707,10.833 9.944,13.433 2.126,2.435 3.354,2.701 3.942,2.852 0.434,0.096 1.159,0.231 1.474,0.239 0.321,0.021 1.227,0.136 1.389,0.52 0.105,0.301 -0.11,0.362 -0.585,0.67 l -4.784,-0.396 c -2.219,-0.425 -3.125,-0.678 -4.162,-1.245 -1.702,-0.924 -3.225,-2.763 -5.439,-5.875 -1.598,-2.223 -5.704,-8.221 -6.228,-8.829 -0.202,-0.239 -0.444,-0.281 -0.718,-0.281 l -3.454,-0.081 c -0.205,0 -0.321,0.081 -0.321,0.328 v 0.561 c 0,3.755 0,8.945 0.202,10.635 0.119,1.177 0.219,2.195 1.398,2.441 0.537,0.116 0.69,0.191 1.32,0.26 0.318,0.035 0.561,0.322 0.516,0.521 -0.054,0.279 -0.393,0.321 -0.909,0.287 -3.005,-0.182 -1.88,-0.066 -9.669,-0.462 z m -70.47,18.437 -3.878,0.096 c -1.518,0.049 -1.699,0.213 -2.058,0.623 -0.414,0.451 -0.352,1.039 -0.414,1.313 -0.052,0.201 -0.052,0.267 -0.209,0.267 -0.167,0 -0.246,-0.199 -0.294,-0.499 -0.024,-0.158 -0.031,-2.202 -0.017,-3.126 0.01,-0.321 0.144,-0.485 0.304,-0.485 0.208,0 0.51,0.226 1.176,0.28 0.766,0.075 1.758,0.055 2.619,0.055 h 10.416 c 0.841,0 1.422,-0.068 1.809,-0.123 0.396,-0.075 0.612,-0.116 0.711,-0.116 0.188,0 0.294,0.164 0.294,0.547 0,0.555 -0.058,2.189 -0.058,2.914 -0.034,0.259 0.038,0.663 -0.236,0.677 -0.202,0 -0.308,-0.195 -0.308,-0.739 l -0.014,-0.185 c -0.116,-0.684 -0.886,-1.354 -3.231,-1.402 l -3.272,-0.088 -0.007,10.915 c 0,2.346 0.038,4.459 0.15,5.553 0.072,0.711 0.209,1.502 0.985,1.614 0.366,0.062 0.294,0.034 0.688,0.089 0.561,0.079 1.084,0.041 1.104,0.172 0.018,0.075 0.018,0.307 -0.263,0.314 -1.255,0.027 -3.18,-0.042 -4.521,-0.056 -0.379,-0.003 -2.13,0.079 -3.422,0.079 -0.338,0 -0.338,-0.096 -0.338,-0.273 0,-0.127 0.229,-0.216 0.54,-0.216 0.394,0 0.718,-0.099 0.954,-0.15 0.53,-0.103 0.623,-0.958 0.708,-1.699 0.137,-1.07 0.137,-3.081 0.137,-5.427 l -0.055,-10.924 z m 50.051,-48.31 -5.953,0.089 c -2.314,0.082 -2.574,0.506 -3.129,1.162 -0.614,0.731 -0.51,1.655 -0.614,2.1 -0.076,0.329 -0.066,0.425 -0.316,0.425 -0.245,0 -0.362,-0.329 -0.439,-0.808 -0.038,-0.253 -0.056,-3.495 -0.038,-4.966 0.011,-0.505 0.215,-0.752 0.451,-0.752 0.314,0 0.78,0.356 1.771,0.438 1.162,0.116 2.653,0.096 3.967,0.096 l 15.753,-0.006 c 1.272,0 2.154,-0.123 2.743,-0.198 0.598,-0.123 0.916,-0.213 1.077,-0.213 0.276,0 0.321,0.246 0.321,0.855 0,0.841 -0.103,3.638 -0.099,4.685 -0.046,0.411 -0.12,0.643 -0.356,0.643 -0.322,0 -0.403,-0.198 -0.441,-0.8 l -0.041,-0.444 c -0.082,-1.054 -1.165,-2.183 -4.705,-2.271 l -5.006,-0.116 0.072,17.549 c 0.009,3.721 0.081,7.071 0.259,8.815 0.106,1.135 0.335,2.024 1.519,2.202 0.561,0.096 0.254,0.021 0.848,0.109 0.842,0.116 0.979,0.267 1.006,0.479 0.017,0.109 -0.092,0.438 -0.513,0.451 -1.895,0.041 -3.663,-0.13 -5.674,-0.15 -0.916,0 -3.456,-0.068 -5.051,-0.068 -0.522,0 -0.741,-0.178 -0.741,-0.465 0,-0.198 0.191,-0.473 0.674,-0.473 0.599,0 0.994,-0.075 1.357,-0.149 0.793,-0.165 1.063,-0.965 1.173,-2.142 0.195,-1.702 0.185,-4.889 0.168,-8.609 l -0.043,-17.468 z m -65.596,10.081 c -0.014,-6.203 -0.014,-8.152 -0.099,-9.459 -0.085,-1.389 -0.407,-2.038 -1.72,-2.325 -0.318,-0.089 -0.992,-0.116 -1.552,-0.116 -0.438,0 -0.674,-0.083 -0.674,-0.377 0,-0.279 0.273,-0.362 0.869,-0.362 2.117,0 4.62,0.117 5.813,0.117 0.954,0 3.458,-0.117 4.894,-0.117 0.588,0 0.869,0.083 0.869,0.362 0,0.294 -0.233,0.377 -0.633,0.377 -0.438,0 -0.674,0.027 -1.156,0.116 -1.07,0.205 -1.385,0.896 -1.464,2.325 -0.072,1.307 -0.072,3.256 -0.058,9.459 l 0.01,5.703 c 0.014,5.922 1.177,8.419 3.119,10.04 1.802,1.518 3.625,1.675 4.979,1.675 1.75,0 3.892,-0.567 5.478,-2.195 2.182,-2.25 2.302,-5.922 2.294,-10.121 l -0.006,-5.102 c -0.021,-6.203 -0.021,-8.152 -0.106,-9.459 -0.082,-1.389 -0.404,-2.038 -1.716,-2.325 -0.322,-0.089 -0.999,-0.116 -1.43,-0.116 -0.438,0 -0.674,-0.083 -0.674,-0.377 0,-0.279 0.281,-0.362 0.831,-0.362 2.024,0 4.535,0.117 4.572,0.117 0.475,0 2.985,-0.117 4.541,-0.117 0.554,0 0.834,0.083 0.834,0.362 0,0.294 -0.243,0.377 -0.718,0.377 -0.438,0 -0.674,0.027 -1.149,0.116 -1.078,0.205 -1.398,0.896 -1.47,2.325 -0.079,1.307 -0.079,3.256 -0.065,9.459 l 0.007,4.369 c 0.014,4.521 -0.417,9.336 -3.751,12.276 -2.821,2.489 -5.69,3.27 -8.275,3.27 -2.11,0 -5.919,-0.452 -8.833,-3.146 -2.031,-1.88 -3.542,-4.896 -3.556,-10.819 l -0.005,-5.95 z m -29.322,5.499 c 0,4.801 0.178,7.188 0.068,9.15 -0.068,1.423 -0.126,4.015 0.175,4.514 0.502,0.861 3.012,0.555 6.035,0.226 7.417,-0.82 11.637,-8.11 11.551,-14.02 -0.072,-5.752 -2.254,-9.466 -3.912,-11.325 -3.536,-3.98 -7.92,-4.528 -10.926,-4.528 -0.769,0 -2.188,0.144 -2.5,0.322 -0.342,0.184 -0.458,0.403 -0.458,0.902 -0.034,1.546 -0.034,5.478 -0.034,9.055 v 5.704 z m -4.657,17.583 c -0.869,0.041 -1.888,0.185 -2.65,0.205 -0.492,0.007 -0.772,-0.123 -0.779,-0.438 0,-0.226 0.143,-0.363 0.608,-0.376 0.582,-0.015 1.04,-0.11 1.378,-0.206 0.759,-0.198 0.94,-1.142 1.071,-2.454 0.157,-1.909 0.215,-7.154 0.215,-11.318 v -7.976 c 0,-6.88 0,-8.145 -0.072,-9.588 -0.079,-1.546 -0.39,-2.271 -1.659,-2.585 -0.308,-0.096 -0.954,-0.13 -1.494,-0.13 -0.428,0 -0.66,-0.104 -0.66,-0.418 0,-0.32 0.267,-0.41 0.848,-0.41 2.038,0 4.462,0.138 5.532,0.138 1.197,0 3.628,-0.138 5.926,-0.138 4.814,0 11.23,0 15.429,5.164 1.921,2.359 3.73,6.114 3.73,11.497 0,5.71 -2.045,10.053 -4.192,12.638 -1.771,2.127 -5.157,5.034 -12.888,5.341 0.001,0 -10.087,1.04 -10.343,1.054 z m -39.7,5.21 c -0.51,0.062 -0.883,0.055 -0.934,-0.376 -0.03,-0.28 0.192,-0.403 0.582,-0.458 0.51,-0.055 1.217,-0.191 1.744,-0.444 0.975,-0.506 1.09,-2.695 1.132,-6.859 l 0.007,-31.686 c -0.051,-0.991 0.444,-1.225 0.841,-1.225 0.438,0 0.824,0.22 1.498,1.074 0.475,0.629 6.524,8.207 12.334,15.148 2.698,3.255 7.943,10.074 8.617,10.847 l -0.068,-21.468 c -0.044,-2.913 -0.397,-3.83 -1.357,-4.309 -0.595,-0.28 -1.549,-0.28 -2.096,-0.28 -0.479,0 -0.646,-0.145 -0.646,-0.438 0,-0.376 0.438,-0.432 1.036,-0.432 2.072,0 3.973,0.144 4.812,0.144 0.441,0 1.953,-0.144 3.898,-0.144 0.523,0 0.92,0.056 0.92,0.432 0,0.293 -0.239,0.438 -0.718,0.438 -0.397,0 -0.718,0 -1.193,0.137 -1.111,0.39 -1.433,1.402 -1.471,4.069 l -0.007,29.921 c 0,1.06 -0.595,1.826 -0.947,1.826 -0.438,0 -0.917,-0.527 -1.347,-1.054 -2.513,-2.872 -7.608,-9.15 -11.746,-14.089 -4.329,-5.177 -8.474,-11.134 -9.185,-12.043 l 0.041,22.507 c 0.079,3.741 0.595,5.731 1.399,6.06 0.67,0.294 1.429,0.342 2.062,0.342 0.438,0 0.681,0.096 0.681,0.377 0,0.383 -0.366,0.402 -0.92,0.485 -2.944,0.459 -8.969,1.498 -8.969,1.498 z m -16.455,3.393 c -0.02,0.007 -0.038,0.014 -0.065,0.026 -0.444,0.131 -0.725,0.096 -0.81,-0.163 -0.059,-0.199 0.058,-0.362 0.516,-0.506 0.568,-0.191 0.999,-0.41 1.32,-0.596 0.711,-0.403 1.128,-1.08 1.183,-2.264 0.103,-1.717 0.181,-18.014 0.181,-21.946 v -7.14 c 0,-6.169 0,-7.311 -0.079,-8.61 -0.085,-1.374 -0.482,-2.065 -1.357,-2.264 -0.431,-0.123 -0.94,-0.164 -1.419,-0.164 -0.403,0 -0.639,-0.082 -0.639,-0.41 0,-0.246 0.314,-0.315 0.954,-0.321 1.508,0 4.011,0.116 5.16,0.116 0.999,0 3.351,-0.116 4.862,-0.11 0.513,0 0.834,0.069 0.834,0.315 0,0.328 -0.246,0.41 -0.64,0.41 -0.4,0 -0.711,0.041 -1.19,0.123 -1.077,0.198 -1.398,0.896 -1.48,2.305 -0.072,1.3 -0.072,2.441 -0.072,8.61 v 7.14 c 0,3.933 0,18.507 0.154,20.25 0.126,1.095 0.4,1.827 1.597,1.983 0.561,0.083 1.436,0.055 2.031,0.055 0.438,0 0.633,0.239 0.633,0.438 0,0.28 -0.325,0.369 -0.759,0.465 -5.003,1.047 -10.915,2.258 -10.915,2.258 z m 239.09,22.699 c -2.608,-2.299 -3.31,-5.287 -3.31,-7.872 0,-1.816 0.568,-4.959 3.129,-7.311 1.922,-1.765 4.449,-2.825 8.423,-2.825 1.658,0 2.646,0.103 3.874,0.267 1.009,0.13 1.867,0.376 2.667,0.451 0.291,0.028 0.399,0.164 0.399,0.322 0,0.219 -0.088,0.533 -0.14,1.47 -0.041,0.876 -0.021,2.346 -0.085,2.876 -0.018,0.394 -0.075,0.615 -0.314,0.615 -0.209,0 -0.268,-0.222 -0.268,-0.591 -0.021,-0.821 -0.368,-1.758 -1.039,-2.456 -0.875,-0.937 -2.962,-1.647 -5.413,-1.647 -2.322,0 -3.833,0.588 -5.017,1.647 -1.949,1.792 -2.451,4.333 -2.451,6.914 0,6.34 4.828,9.493 8.404,9.493 2.373,0 3.816,-0.264 4.88,-1.491 0.459,-0.506 0.801,-1.285 0.903,-1.758 0.085,-0.431 0.14,-0.537 0.358,-0.537 0.181,0 0.232,0.186 0.232,0.4 0,0.314 -0.321,2.641 -0.591,3.55 -0.123,0.451 -0.236,0.585 -0.682,0.77 -1.076,0.431 -3.104,0.619 -4.808,0.619 -3.654,0.001 -6.722,-0.803 -9.151,-2.906 z m -12.179,-9.904 c 0,-4.048 0,-4.793 -0.058,-5.648 -0.055,-0.909 -0.318,-1.36 -0.902,-1.49 -0.291,-0.083 -0.647,-0.116 -0.965,-0.116 -0.264,0 -0.424,-0.048 -0.424,-0.261 0,-0.164 0.212,-0.219 0.636,-0.219 1.016,0 2.698,0.082 3.464,0.082 0.67,0 2.247,-0.082 3.255,-0.082 0.35,0 0.564,0.055 0.564,0.219 0,0.213 -0.156,0.261 -0.424,0.261 -0.273,0 -0.488,0.033 -0.811,0.081 -0.718,0.131 -0.92,0.589 -0.978,1.525 -0.063,0.855 -0.063,1.601 -0.063,5.648 v 4.699 c 0,2.585 0,4.691 0.12,5.837 0.069,0.722 0.264,1.203 1.061,1.313 0.369,0.051 0.964,0.099 1.356,0.099 0.306,0 0.429,0.089 0.429,0.219 0,0.188 -0.212,0.26 -0.504,0.26 -1.76,0 -3.445,-0.071 -4.164,-0.071 -0.608,0 -2.291,0.071 -3.361,0.071 -0.346,0 -0.527,-0.071 -0.527,-0.26 0,-0.13 0.106,-0.219 0.418,-0.219 0.4,0 0.715,-0.048 0.957,-0.099 0.544,-0.11 0.704,-0.564 0.78,-1.337 0.14,-1.122 0.14,-3.229 0.14,-5.813 v -4.699 z m -6.723,10.642 c 0,0.726 -0.027,0.78 -0.349,0.962 -1.727,0.906 -4.339,1.207 -6.422,1.207 -6.538,0 -12.32,-3.099 -12.32,-10.457 0,-4.261 2.212,-7.257 4.633,-8.728 2.568,-1.545 4.938,-1.729 7.186,-1.729 1.835,0 4.178,0.314 4.718,0.424 0.559,0.109 1.484,0.26 2.1,0.294 0.325,0.028 0.38,0.131 0.38,0.322 0,0.294 -0.188,1.039 -0.188,4.37 0,0.427 -0.086,0.564 -0.292,0.564 -0.191,0 -0.242,-0.138 -0.263,-0.346 -0.089,-0.608 -0.223,-1.471 -0.91,-2.216 -0.803,-0.854 -2.937,-2.079 -5.949,-2.079 -1.464,0 -3.416,0.108 -5.279,1.647 -1.502,1.262 -2.452,3.263 -2.452,6.545 0,5.725 3.648,10.022 9.273,10.022 0.697,0 1.628,0 2.278,-0.297 0.396,-0.185 0.506,-0.527 0.506,-0.985 v -2.506 c 0,-1.331 0,-2.346 -0.038,-3.144 -0.027,-0.905 -0.264,-1.333 -1.152,-1.524 -0.202,-0.048 -0.656,-0.075 -1.033,-0.075 -0.231,0 -0.396,-0.059 -0.396,-0.215 0,-0.216 0.191,-0.267 0.555,-0.267 1.392,0 3.07,0.078 3.87,0.078 0.828,0 2.24,-0.078 3.119,-0.078 0.353,0 0.54,0.051 0.54,0.267 0,0.156 -0.16,0.215 -0.35,0.215 -0.211,0 -0.392,0.027 -0.714,0.075 -0.728,0.131 -0.992,0.589 -1.022,1.524 -0.027,0.798 -0.027,1.864 -0.027,3.195 v 2.935 z m -28.351,-6.5 c 0.131,0 0.162,-0.086 0.131,-0.164 l -2.391,-6.59 c -0.034,-0.108 -0.062,-0.239 -0.134,-0.239 -0.088,0 -0.14,0.131 -0.164,0.239 l -2.458,6.56 c -0.027,0.108 0,0.194 0.109,0.194 h 4.907 z m -5.44,1.33 c -0.131,0 -0.191,0.048 -0.236,0.213 l -1.453,3.809 c -0.253,0.667 -0.387,1.307 -0.387,1.628 0,0.479 0.233,0.827 1.061,0.827 h 0.403 c 0.321,0 0.4,0.056 0.4,0.216 0,0.215 -0.165,0.263 -0.459,0.263 -0.852,0 -1.997,-0.071 -2.817,-0.071 -0.298,0 -1.761,0.071 -3.153,0.071 -0.349,0 -0.509,-0.048 -0.509,-0.263 0,-0.16 0.108,-0.216 0.318,-0.216 0.242,0 0.615,-0.027 0.834,-0.051 1.218,-0.16 1.737,-1.074 2.26,-2.404 l 6.696,-16.748 c 0.317,-0.773 0.481,-1.067 0.748,-1.067 0.243,0 0.4,0.239 0.671,0.854 0.64,1.471 4.903,12.354 6.609,16.407 1.016,2.4 1.781,2.773 2.346,2.899 0.399,0.082 0.804,0.109 1.129,0.109 0.208,0 0.342,0.027 0.342,0.216 0,0.215 -0.232,0.263 -1.221,0.263 -0.968,0 -2.913,0 -5.051,-0.048 -0.482,-0.023 -0.793,-0.023 -0.793,-0.215 0,-0.16 0.099,-0.216 0.369,-0.243 0.191,-0.055 0.376,-0.298 0.242,-0.608 l -2.137,-5.659 c -0.051,-0.134 -0.134,-0.182 -0.268,-0.182 h -5.944 z m -28.167,-13.096 c 0.079,-0.459 0.236,-0.698 0.458,-0.698 0.206,0 0.373,0.137 0.719,0.827 l 7.279,15.046 7.25,-15.23 c 0.219,-0.424 0.352,-0.643 0.595,-0.643 0.235,0 0.396,0.26 0.485,0.827 l 2.414,16.479 c 0.243,1.686 0.51,2.462 1.314,2.698 0.775,0.239 1.302,0.267 1.658,0.267 0.235,0 0.42,0.027 0.42,0.188 0,0.219 -0.321,0.29 -0.694,0.29 -0.667,0 -4.346,-0.071 -5.416,-0.156 -0.619,-0.048 -0.776,-0.134 -0.776,-0.295 0,-0.137 0.116,-0.219 0.294,-0.294 0.164,-0.059 0.243,-0.4 0.141,-1.146 l -1.604,-11.732 h -0.1 l -5.819,12.104 c -0.615,1.256 -0.746,1.498 -0.988,1.498 -0.239,0 -0.513,-0.54 -0.937,-1.333 -0.636,-1.228 -2.743,-5.308 -3.064,-6.053 -0.243,-0.564 -1.839,-3.923 -2.78,-5.929 h -0.103 l -1.392,10.62 c -0.044,0.479 -0.075,0.824 -0.075,1.252 0,0.503 0.349,0.749 0.801,0.854 0.485,0.103 0.848,0.13 1.121,0.13 0.209,0 0.407,0.056 0.407,0.188 0,0.242 -0.246,0.29 -0.646,0.29 -1.119,0 -2.326,-0.071 -2.808,-0.071 -0.5,0 -1.779,0.071 -2.637,0.071 -0.261,0 -0.476,-0.048 -0.476,-0.29 0,-0.133 0.157,-0.188 0.428,-0.188 0.212,0 0.393,0 0.789,-0.082 0.756,-0.153 0.972,-1.197 1.108,-2.105 l 2.634,-17.384 z m -21.656,17.147 c -1.549,-1.337 -4.11,-3.839 -4.801,-4.585 -0.694,-0.752 -2.4,-2.674 -2.848,-3.337 -0.91,0.663 -1.851,1.921 -1.851,4.052 0,3.33 2.346,5.468 5.123,5.468 2.053,0 3.817,-1.067 4.377,-1.598 z m -8.357,-8.934 c -1.115,-1.497 -1.324,-2.585 -1.351,-3.789 -0.035,-2.113 1.83,-4.903 6.473,-4.903 1.313,0 2.517,0.267 3.235,0.555 0.452,0.163 0.452,0.375 0.452,0.697 0,0.875 -0.215,3.022 -0.294,3.408 -0.054,0.4 -0.157,0.462 -0.321,0.462 -0.165,0 -0.182,-0.102 -0.182,-0.513 0,-0.69 -0.185,-1.545 -0.772,-2.243 -0.541,-0.637 -1.464,-1.197 -2.965,-1.197 -1.119,0 -2.849,0.773 -2.849,3.048 0,2.51 2.288,4.64 4.421,7.007 0.91,1.042 4.189,4.007 4.691,4.458 0.541,-0.746 1.279,-2.482 1.279,-4.104 0,-0.41 -0.103,-0.886 -0.502,-1.233 -0.345,-0.318 -0.906,-0.397 -1.306,-0.397 -0.157,0 -0.325,-0.055 -0.325,-0.212 0,-0.209 0.223,-0.27 0.431,-0.27 0.646,0 1.703,0.026 3.201,0.191 0.502,0.048 0.913,0.204 0.913,0.533 0,2.055 -1.098,4.526 -2.619,6.315 1.791,1.464 2.985,2.188 3.706,2.612 0.862,0.503 2.326,0.934 2.859,0.934 0.232,0 0.366,0.027 0.366,0.243 0,0.164 -0.21,0.235 -0.797,0.235 h -2.049 c -3.04,0 -4.007,-0.29 -6.298,-2.052 -0.883,0.801 -2.667,2.425 -6.327,2.425 -5.703,0 -7.413,-3.57 -7.413,-5.892 10e-4,-3.118 2.75,-5.545 4.343,-6.318 z m -38.319,0.164 c 0.083,0 0.158,-0.055 0.158,-0.191 v -0.562 c 0,-4.052 0,-4.8 -0.048,-5.648 -0.058,-0.909 -0.267,-1.34 -1.148,-1.525 -0.216,-0.055 -0.667,-0.081 -1.04,-0.081 -0.301,0 -0.458,-0.055 -0.458,-0.24 0,-0.185 0.185,-0.239 0.564,-0.239 1.443,0 3.115,0.082 3.84,0.082 0.646,0 2.318,-0.082 3.358,-0.082 0.38,0 0.561,0.055 0.561,0.239 0,0.186 -0.157,0.24 -0.476,0.24 -0.222,0 -0.451,0.026 -0.783,0.081 -0.714,0.131 -0.93,0.589 -0.974,1.525 -0.058,0.849 -0.058,1.597 -0.058,5.648 v 4.699 c 0,2.448 0,4.562 0.137,5.703 0.085,0.746 0.236,1.335 1.033,1.437 0.373,0.059 0.964,0.109 1.371,0.109 0.287,0 0.417,0.079 0.417,0.216 0,0.191 -0.216,0.263 -0.53,0.263 -1.737,0 -3.409,-0.071 -4.165,-0.071 -0.615,0 -2.288,0.071 -3.327,0.071 -0.379,0 -0.561,-0.071 -0.561,-0.263 0,-0.137 0.092,-0.216 0.424,-0.216 0.394,0 0.718,-0.051 0.961,-0.109 0.537,-0.102 0.667,-0.69 0.776,-1.464 0.126,-1.114 0.126,-3.228 0.126,-5.676 v -2.353 c 0,-0.105 -0.075,-0.157 -0.158,-0.157 H 80.881 c -0.079,0 -0.161,0.03 -0.161,0.157 v 2.353 c 0,2.448 0,4.562 0.13,5.703 0.078,0.746 0.239,1.335 1.039,1.437 0.376,0.059 0.958,0.109 1.365,0.109 0.287,0 0.424,0.079 0.424,0.216 0,0.191 -0.215,0.263 -0.53,0.263 -1.744,0 -3.416,-0.071 -4.162,-0.071 -0.619,0 -2.291,0.071 -3.364,0.071 -0.353,0 -0.534,-0.071 -0.534,-0.263 0,-0.137 0.109,-0.216 0.431,-0.216 0.397,0 0.718,-0.051 0.961,-0.109 0.526,-0.102 0.663,-0.69 0.776,-1.464 0.13,-1.114 0.13,-3.228 0.13,-5.676 v -4.699 c 0,-4.052 0,-4.8 -0.058,-5.648 -0.051,-0.909 -0.267,-1.34 -1.149,-1.525 -0.208,-0.055 -0.66,-0.081 -1.04,-0.081 -0.294,0 -0.452,-0.055 -0.452,-0.24 0,-0.185 0.185,-0.239 0.568,-0.239 1.44,0 3.112,0.082 3.837,0.082 0.639,0 2.312,-0.082 3.357,-0.082 0.373,0 0.554,0.055 0.554,0.239 0,0.186 -0.157,0.24 -0.469,0.24 -0.215,0 -0.451,0.026 -0.772,0.081 -0.725,0.131 -0.934,0.589 -0.992,1.525 -0.051,0.849 -0.051,1.597 -0.051,5.648 v 0.562 c 0,0.137 0.082,0.191 0.161,0.191 h 10.187 z m -20.397,9.889 c 0,0.726 -0.031,0.773 -0.345,0.958 -1.737,0.91 -4.35,1.2 -6.429,1.2 -6.538,0 -12.314,-3.088 -12.314,-10.453 0,-4.261 2.209,-7.257 4.637,-8.721 2.554,-1.545 4.92,-1.729 7.174,-1.729 1.836,0 4.182,0.314 4.715,0.424 0.564,0.103 1.491,0.26 2.107,0.294 0.325,0.028 0.369,0.131 0.369,0.314 0,0.302 -0.182,1.04 -0.182,4.378 0,0.427 -0.078,0.561 -0.287,0.561 -0.202,0 -0.25,-0.134 -0.267,-0.349 -0.092,-0.602 -0.222,-1.471 -0.91,-2.216 -0.804,-0.848 -2.934,-2.072 -5.95,-2.072 -1.471,0 -3.423,0.103 -5.28,1.647 -1.491,1.256 -2.452,3.256 -2.452,6.545 0,5.725 3.648,10.022 9.277,10.022 0.694,0 1.628,0 2.267,-0.297 0.4,-0.185 0.51,-0.527 0.51,-0.988 v -2.503 c 0,-1.331 0,-2.346 -0.031,-3.144 -0.028,-0.916 -0.263,-1.333 -1.149,-1.527 -0.211,-0.052 -0.656,-0.072 -1.039,-0.072 -0.236,0 -0.393,-0.062 -0.393,-0.215 0,-0.216 0.185,-0.271 0.55,-0.271 1.388,0 3.074,0.082 3.874,0.082 0.828,0 2.24,-0.082 3.122,-0.082 0.346,0 0.534,0.055 0.534,0.271 0,0.153 -0.161,0.215 -0.345,0.215 -0.215,0 -0.396,0.021 -0.718,0.072 -0.725,0.134 -0.992,0.588 -1.019,1.527 -0.027,0.798 -0.027,1.86 -0.027,3.195 v 2.934 z M 42.592,188.48 c 0,-4.062 0,-4.808 -0.044,-5.655 -0.059,-0.91 -0.322,-1.36 -0.91,-1.498 -0.294,-0.075 -0.639,-0.103 -0.96,-0.103 -0.267,0 -0.431,-0.054 -0.431,-0.272 0,-0.158 0.216,-0.213 0.643,-0.213 1.019,0 2.698,0.082 3.467,0.082 0.674,0 2.24,-0.082 3.259,-0.082 0.342,0 0.558,0.055 0.558,0.213 0,0.219 -0.157,0.272 -0.424,0.272 -0.27,0 -0.479,0.027 -0.8,0.075 -0.725,0.138 -0.933,0.596 -0.992,1.525 -0.044,0.848 -0.044,1.594 -0.044,5.655 v 4.692 c 0,2.589 0,4.691 0.103,5.841 0.072,0.717 0.256,1.196 1.066,1.306 0.373,0.051 0.954,0.109 1.358,0.109 0.294,0 0.424,0.076 0.424,0.205 0,0.191 -0.208,0.273 -0.503,0.273 -1.764,0 -3.443,-0.082 -4.162,-0.082 -0.612,0 -2.291,0.082 -3.364,0.082 -0.346,0 -0.534,-0.082 -0.534,-0.273 0,-0.129 0.109,-0.205 0.431,-0.205 0.397,0 0.719,-0.059 0.961,-0.109 0.533,-0.109 0.69,-0.561 0.776,-1.333 0.123,-1.122 0.123,-3.225 0.123,-5.813 v -4.692 z m -12.795,4.692 c 0,3.412 0,5.252 0.561,5.73 0.452,0.404 1.142,0.589 3.221,0.589 1.416,0 2.455,-0.028 3.129,-0.745 0.321,-0.353 0.632,-1.098 0.691,-1.602 0.027,-0.242 0.078,-0.406 0.294,-0.406 0.185,0 0.215,0.137 0.215,0.458 0,0.298 -0.188,2.295 -0.41,3.07 -0.158,0.585 -0.281,0.715 -1.672,0.715 -1.922,0 -3.313,-0.055 -4.514,-0.075 -1.197,-0.055 -2.158,-0.082 -3.242,-0.082 -0.301,0 -0.889,0 -1.529,0.027 -0.612,0 -1.306,0.055 -1.836,0.055 -0.353,0 -0.534,-0.082 -0.534,-0.273 0,-0.129 0.103,-0.205 0.424,-0.205 0.403,0 0.725,-0.059 0.961,-0.109 0.526,-0.109 0.667,-0.697 0.77,-1.464 0.137,-1.129 0.137,-3.228 0.137,-5.683 v -4.692 c 0,-4.062 0,-4.808 -0.059,-5.655 -0.044,-0.91 -0.267,-1.34 -1.149,-1.525 -0.202,-0.048 -0.53,-0.075 -0.875,-0.075 -0.287,0 -0.458,-0.054 -0.458,-0.239 0,-0.191 0.191,-0.246 0.582,-0.246 1.262,0 2.94,0.082 3.659,0.082 0.653,0 2.592,-0.082 3.632,-0.082 0.372,0 0.564,0.055 0.564,0.246 0,0.186 -0.164,0.239 -0.479,0.239 -0.294,0 -0.725,0.027 -1.04,0.075 -0.726,0.138 -0.934,0.596 -0.992,1.525 -0.051,0.848 -0.051,1.594 -0.051,5.655 v 4.692 z"
   id="path5" />
<path
   d="m 140.466,86.369 c -14.964,0 -27.103,-12.14 -27.103,-27.104 0,-3.331 0.609,-6.565 1.707,-9.582 0.338,-0.937 0.749,-1.904 1.248,-2.903 1.894,-3.823 4.63,-7.181 7.95,-9.776 0.455,0.584 0.934,1.152 1.429,1.703 3.3,3.696 5.03,8.155 5.52,12.054 l 1.282,10.846 h 15.931 l 1.289,-10.846 c 0.482,-3.898 2.209,-8.357 5.513,-12.054 0.499,-0.551 0.98,-1.119 1.433,-1.703 3.327,2.606 6.056,5.96 7.961,9.783 0.461,0.94 0.882,1.915 1.241,2.906 1.101,3.013 1.699,6.241 1.699,9.571 -0.001,14.966 -12.127,27.105 -27.1,27.105 M 128.217,10.586 c 3.132,-3.228 7.769,-5.574 12.211,-5.591 h 0.079 c 4.442,0.017 9.065,2.363 12.208,5.591 3.146,3.242 4.835,7.786 4.835,12.372 0,5.143 -2.969,9.397 -6.056,13.018 -2.962,3.471 -4.962,5.998 -5.722,10.474 l -1.07,6.688 h -8.473 l -1.067,-6.688 c -0.763,-4.476 -2.763,-7.003 -5.728,-10.474 -3.084,-3.621 -6.056,-7.875 -6.056,-13.018 0,-4.586 1.686,-9.13 4.839,-12.372 z m 55.615,51.094 -12.573,-1.159 c -0.079,-4.428 -1.095,-8.566 -2.866,-12.255 l 10.18,-6.924 c 0.178,-0.103 0.243,-0.322 0.147,-0.496 -0.1,-0.181 -0.318,-0.243 -0.489,-0.147 l -11.25,4.948 c -2.394,-3.898 -5.666,-7.174 -9.571,-9.619 3.077,-4.158 5.223,-9.021 5.223,-14.146 0,-5.581 -2.186,-11.113 -6.275,-15.07 C 152.289,2.883 146.232,0.021 140.474,0 h -0.017 c -5.755,0.021 -11.804,2.883 -15.876,6.812 -4.09,3.957 -6.278,9.489 -6.278,15.07 0,5.125 2.151,9.988 5.215,14.146 -3.902,2.445 -7.167,5.718 -9.558,9.612 l -11.244,-4.952 c -0.178,-0.103 -0.403,-0.034 -0.489,0.144 -0.106,0.171 -0.041,0.393 0.137,0.496 l 10.184,6.925 c -1.775,3.686 -2.794,7.824 -2.873,12.262 l -12.57,1.145 c -0.208,0 -0.366,0.167 -0.366,0.373 0,0.198 0.157,0.366 0.366,0.366 l 12.659,1.162 c 0.349,4.23 1.542,8.231 3.419,11.812 l -10.826,7.365 c -0.171,0.096 -0.243,0.318 -0.144,0.496 0.099,0.178 0.318,0.243 0.496,0.14 l 12.067,-5.314 c 2.521,3.813 5.865,7.021 9.773,9.384 l -5.43,12.34 c -0.102,0.182 -0.038,0.403 0.144,0.5 0.178,0.096 0.394,0.038 0.489,-0.144 l 7.619,-11.182 c 3.508,1.648 7.39,2.661 11.486,2.873 l 1.235,13.576 c 0,0.205 0.164,0.366 0.373,0.366 0.202,0 0.359,-0.161 0.359,-0.366 l 1.256,-13.576 c 4.082,-0.205 7.95,-1.217 11.481,-2.869 l 7.612,11.189 c 0.093,0.178 0.312,0.236 0.488,0.14 0.179,-0.096 0.237,-0.318 0.144,-0.499 l -5.433,-12.341 c 3.915,-2.363 7.263,-5.574 9.776,-9.373 l 12.07,5.311 c 0.175,0.099 0.39,0.038 0.493,-0.141 0.103,-0.178 0.033,-0.4 -0.138,-0.499 L 167.751,75.38 c 1.874,-3.577 3.078,-7.571 3.409,-11.804 l 12.673,-1.169 c 0.205,0 0.373,-0.161 0.373,-0.359 -10e-4,-0.2 -0.169,-0.368 -0.374,-0.368 z"
   id="path7"
   style="fill:#6592c3" />
</svg>